<?xml version="1.0" encoding="UTF-8" standalone="no"?>
<!DOCTYPE svg PUBLIC "-//W3C//DTD SVG 1.1//EN"
 "http://www.w3.org/Graphics/SVG/1.1/DTD/svg11.dtd">
<!-- Generated by graphviz version 7.1.0 (20230121.1956)
 -->
<!-- Title: arbolAST Pages: 1 -->
<svg width="507pt" height="404pt"
 viewBox="0.00 0.00 507.00 404.00" xmlns="http://www.w3.org/2000/svg" xmlns:xlink="http://www.w3.org/1999/xlink">
<g id="graph0" class="graph" transform="scale(1 1) rotate(0) translate(4 400)">
<title>arbolAST</title>
<polygon fill="white" stroke="none" points="-4,4 -4,-400 503,-400 503,4 -4,4"/>
<!-- n0 -->
<g id="node1" class="node">
<title>n0</title>
<ellipse fill="#b2dfee" stroke="#b2dfee" cx="207" cy="-378" rx="27" ry="18"/>
<text text-anchor="middle" x="207" y="-375.5" font-family="Helvetica,sans-Serif" font-size="10.00">INICIO</text>
</g>
<!-- n1 -->
<g id="node2" class="node">
<title>n1</title>
<ellipse fill="#b2dfee" stroke="#b2dfee" cx="207" cy="-306" rx="55.85" ry="18"/>
<text text-anchor="middle" x="207" y="-303.5" font-family="Helvetica,sans-Serif" font-size="10.00">INSTRUCCIONES</text>
</g>
<!-- n0&#45;&gt;n1 -->
<g id="edge1" class="edge">
<title>n0&#45;&gt;n1</title>
<path fill="none" stroke="black" d="M207,-359.7C207,-352.41 207,-343.73 207,-335.54"/>
<polygon fill="black" stroke="black" points="210.5,-335.62 207,-325.62 203.5,-335.62 210.5,-335.62"/>
</g>
<!-- n2 -->
<g id="node3" class="node">
<title>n2</title>
<ellipse fill="#b2dfee" stroke="#b2dfee" cx="207" cy="-234" rx="34.96" ry="18"/>
<text text-anchor="middle" x="207" y="-231.5" font-family="Helvetica,sans-Serif" font-size="10.00">METODO</text>
</g>
<!-- n1&#45;&gt;n2 -->
<g id="edge2" class="edge">
<title>n1&#45;&gt;n2</title>
<path fill="none" stroke="black" d="M207,-287.7C207,-280.41 207,-271.73 207,-263.54"/>
<polygon fill="black" stroke="black" points="210.5,-263.62 207,-253.62 203.5,-263.62 210.5,-263.62"/>
</g>
<!-- n3 -->
<g id="node4" class="node">
<title>n3</title>
<ellipse fill="#b2dfee" stroke="#b2dfee" cx="27" cy="-162" rx="27" ry="18"/>
<text text-anchor="middle" x="27" y="-159.5" font-family="Helvetica,sans-Serif" font-size="10.00">main</text>
</g>
<!-- n2&#45;&gt;n3 -->
<g id="edge3" class="edge">
<title>n2&#45;&gt;n3</title>
<path fill="none" stroke="black" d="M178.3,-223.28C149.02,-213.16 102.43,-196.53 63,-180 61.49,-179.37 59.94,-178.7 58.39,-178.02"/>
<polygon fill="black" stroke="black" points="60.11,-174.96 49.56,-174.01 57.21,-181.33 60.11,-174.96"/>
</g>
<!-- n4 -->
<g id="node5" class="node">
<title>n4</title>
<ellipse fill="#b2dfee" stroke="#b2dfee" cx="99" cy="-162" rx="27" ry="18"/>
<text text-anchor="middle" x="99" y="-159.5" font-family="Helvetica,sans-Serif" font-size="10.00">(</text>
</g>
<!-- n2&#45;&gt;n4 -->
<g id="edge4" class="edge">
<title>n2&#45;&gt;n4</title>
<path fill="none" stroke="black" d="M185.92,-219.34C169.24,-208.53 145.79,-193.33 127.45,-181.44"/>
<polygon fill="black" stroke="black" points="129.42,-178.55 119.13,-176.05 125.62,-184.42 129.42,-178.55"/>
</g>
<!-- n5 -->
<g id="node6" class="node">
<title>n5</title>
<ellipse fill="#b2dfee" stroke="#b2dfee" cx="171" cy="-162" rx="27" ry="18"/>
<text text-anchor="middle" x="171" y="-159.5" font-family="Helvetica,sans-Serif" font-size="10.00">)</text>
</g>
<!-- n2&#45;&gt;n5 -->
<g id="edge5" class="edge">
<title>n2&#45;&gt;n5</title>
<path fill="none" stroke="black" d="M198.47,-216.41C194.34,-208.39 189.29,-198.57 184.65,-189.54"/>
<polygon fill="black" stroke="black" points="187.85,-188.11 180.16,-180.82 181.62,-191.31 187.85,-188.11"/>
</g>
<!-- n6 -->
<g id="node7" class="node">
<title>n6</title>
<ellipse fill="#b2dfee" stroke="#b2dfee" cx="243" cy="-162" rx="27" ry="18"/>
<text text-anchor="middle" x="243" y="-159.5" font-family="Helvetica,sans-Serif" font-size="10.00">{</text>
</g>
<!-- n2&#45;&gt;n6 -->
<g id="edge6" class="edge">
<title>n2&#45;&gt;n6</title>
<path fill="none" stroke="black" d="M215.53,-216.41C219.66,-208.39 224.71,-198.57 229.35,-189.54"/>
<polygon fill="black" stroke="black" points="232.38,-191.31 233.84,-180.82 226.15,-188.11 232.38,-191.31"/>
</g>
<!-- n7 -->
<g id="node8" class="node">
<title>n7</title>
<ellipse fill="#b2dfee" stroke="#b2dfee" cx="321" cy="-162" rx="32.93" ry="18"/>
<text text-anchor="middle" x="321" y="-159.5" font-family="Helvetica,sans-Serif" font-size="10.00">PRINTLN</text>
</g>
<!-- n2&#45;&gt;n7 -->
<g id="edge7" class="edge">
<title>n2&#45;&gt;n7</title>
<path fill="none" stroke="black" d="M228.98,-219.5C246.39,-208.81 270.92,-193.75 290.27,-181.87"/>
<polygon fill="black" stroke="black" points="291.88,-184.99 298.57,-176.77 288.22,-179.02 291.88,-184.99"/>
</g>
<!-- n14 -->
<g id="node15" class="node">
<title>n14</title>
<ellipse fill="#b2dfee" stroke="#b2dfee" cx="399" cy="-162" rx="27" ry="18"/>
<text text-anchor="middle" x="399" y="-159.5" font-family="Helvetica,sans-Serif" font-size="10.00">}</text>
</g>
<!-- n2&#45;&gt;n14 -->
<g id="edge14" class="edge">
<title>n2&#45;&gt;n14</title>
<path fill="none" stroke="black" d="M236.69,-224.02C268.35,-214.19 319.78,-197.48 363,-180 364.52,-179.38 366.07,-178.74 367.63,-178.07"/>
<polygon fill="black" stroke="black" points="368.79,-181.38 376.48,-174.09 365.92,-175 368.79,-181.38"/>
</g>
<!-- n8 -->
<g id="node9" class="node">
<title>n8</title>
<ellipse fill="#b2dfee" stroke="#b2dfee" cx="170" cy="-90" rx="27" ry="18"/>
<text text-anchor="middle" x="170" y="-87.5" font-family="Helvetica,sans-Serif" font-size="10.00">Println</text>
</g>
<!-- n7&#45;&gt;n8 -->
<g id="edge8" class="edge">
<title>n7&#45;&gt;n8</title>
<path fill="none" stroke="black" d="M296.29,-149.69C272.98,-139.01 237.08,-122.5 206,-108 204.7,-107.39 203.37,-106.77 202.02,-106.14"/>
<polygon fill="black" stroke="black" points="203.6,-103.01 193.06,-101.92 200.62,-109.35 203.6,-103.01"/>
</g>
<!-- n9 -->
<g id="node10" class="node">
<title>n9</title>
<ellipse fill="#b2dfee" stroke="#b2dfee" cx="242" cy="-90" rx="27" ry="18"/>
<text text-anchor="middle" x="242" y="-87.5" font-family="Helvetica,sans-Serif" font-size="10.00">(</text>
</g>
<!-- n7&#45;&gt;n9 -->
<g id="edge9" class="edge">
<title>n7&#45;&gt;n9</title>
<path fill="none" stroke="black" d="M304.25,-146.15C293.17,-136.34 278.46,-123.31 266.13,-112.38"/>
<polygon fill="black" stroke="black" points="268.59,-109.89 258.79,-105.88 263.95,-115.13 268.59,-109.89"/>
</g>
<!-- n10 -->
<g id="node11" class="node">
<title>n10</title>
<ellipse fill="#b2dfee" stroke="#b2dfee" cx="321" cy="-90" rx="33.61" ry="18"/>
<text text-anchor="middle" x="321" y="-87.5" font-family="Helvetica,sans-Serif" font-size="10.00">CADENA</text>
</g>
<!-- n7&#45;&gt;n10 -->
<g id="edge10" class="edge">
<title>n7&#45;&gt;n10</title>
<path fill="none" stroke="black" d="M321,-143.7C321,-136.41 321,-127.73 321,-119.54"/>
<polygon fill="black" stroke="black" points="324.5,-119.62 321,-109.62 317.5,-119.62 324.5,-119.62"/>
</g>
<!-- n12 -->
<g id="node13" class="node">
<title>n12</title>
<ellipse fill="#b2dfee" stroke="#b2dfee" cx="400" cy="-90" rx="27" ry="18"/>
<text text-anchor="middle" x="400" y="-87.5" font-family="Helvetica,sans-Serif" font-size="10.00">)</text>
</g>
<!-- n7&#45;&gt;n12 -->
<g id="edge12" class="edge">
<title>n7&#45;&gt;n12</title>
<path fill="none" stroke="black" d="M337.75,-146.15C348.83,-136.34 363.54,-123.31 375.87,-112.38"/>
<polygon fill="black" stroke="black" points="378.05,-115.13 383.21,-105.88 373.41,-109.89 378.05,-115.13"/>
</g>
<!-- n13 -->
<g id="node14" class="node">
<title>n13</title>
<ellipse fill="#b2dfee" stroke="#b2dfee" cx="472" cy="-90" rx="27" ry="18"/>
<text text-anchor="middle" x="472" y="-87.5" font-family="Helvetica,sans-Serif" font-size="10.00">;</text>
</g>
<!-- n7&#45;&gt;n13 -->
<g id="edge13" class="edge">
<title>n7&#45;&gt;n13</title>
<path fill="none" stroke="black" d="M345.71,-149.69C369.02,-139.01 404.92,-122.5 436,-108 437.3,-107.39 438.63,-106.77 439.98,-106.14"/>
<polygon fill="black" stroke="black" points="441.38,-109.35 448.94,-101.92 438.4,-103.01 441.38,-109.35"/>
</g>
<!-- n11 -->
<g id="node12" class="node">
<title>n11</title>
<ellipse fill="#b2dfee" stroke="#b2dfee" cx="321" cy="-18" rx="36.49" ry="18"/>
<text text-anchor="middle" x="321" y="-15.5" font-family="Helvetica,sans-Serif" font-size="10.00">hello world</text>
</g>
<!-- n10&#45;&gt;n11 -->
<g id="edge11" class="edge">
<title>n10&#45;&gt;n11</title>
<path fill="none" stroke="black" d="M321,-71.7C321,-64.41 321,-55.73 321,-47.54"/>
<polygon fill="black" stroke="black" points="324.5,-47.62 321,-37.62 317.5,-47.62 324.5,-47.62"/>
</g>
</g>
</svg>
