<?xml version="1.0" encoding="UTF-8" standalone="no"?>
<!DOCTYPE svg PUBLIC "-//W3C//DTD SVG 1.1//EN"
 "http://www.w3.org/Graphics/SVG/1.1/DTD/svg11.dtd">
<!-- Generated by graphviz version 7.1.0 (20230121.1956)
 -->
<!-- Title: arbolAST Pages: 1 -->
<svg width="603pt" height="692pt"
 viewBox="0.00 0.00 603.00 692.00" xmlns="http://www.w3.org/2000/svg" xmlns:xlink="http://www.w3.org/1999/xlink">
<g id="graph0" class="graph" transform="scale(1 1) rotate(0) translate(4 688)">
<title>arbolAST</title>
<polygon fill="white" stroke="none" points="-4,4 -4,-688 599,-688 599,4 -4,4"/>
<!-- n0 -->
<g id="node1" class="node">
<title>n0</title>
<ellipse fill="#b2dfee" stroke="#b2dfee" cx="407" cy="-666" rx="27" ry="18"/>
<text text-anchor="middle" x="407" y="-663.5" font-family="Helvetica,sans-Serif" font-size="10.00">INICIO</text>
</g>
<!-- n1 -->
<g id="node2" class="node">
<title>n1</title>
<ellipse fill="#b2dfee" stroke="#b2dfee" cx="407" cy="-594" rx="55.85" ry="18"/>
<text text-anchor="middle" x="407" y="-591.5" font-family="Helvetica,sans-Serif" font-size="10.00">INSTRUCCIONES</text>
</g>
<!-- n0&#45;&gt;n1 -->
<g id="edge1" class="edge">
<title>n0&#45;&gt;n1</title>
<path fill="none" stroke="black" d="M407,-647.7C407,-640.41 407,-631.73 407,-623.54"/>
<polygon fill="black" stroke="black" points="410.5,-623.62 407,-613.62 403.5,-623.62 410.5,-623.62"/>
</g>
<!-- n2 -->
<g id="node3" class="node">
<title>n2</title>
<ellipse fill="#b2dfee" stroke="#b2dfee" cx="407" cy="-522" rx="32.93" ry="18"/>
<text text-anchor="middle" x="407" y="-519.5" font-family="Helvetica,sans-Serif" font-size="10.00">PRINTLN</text>
</g>
<!-- n1&#45;&gt;n2 -->
<g id="edge2" class="edge">
<title>n1&#45;&gt;n2</title>
<path fill="none" stroke="black" d="M407,-575.7C407,-568.41 407,-559.73 407,-551.54"/>
<polygon fill="black" stroke="black" points="410.5,-551.62 407,-541.62 403.5,-551.62 410.5,-551.62"/>
</g>
<!-- n3 -->
<g id="node4" class="node">
<title>n3</title>
<ellipse fill="#b2dfee" stroke="#b2dfee" cx="246" cy="-450" rx="27" ry="18"/>
<text text-anchor="middle" x="246" y="-447.5" font-family="Helvetica,sans-Serif" font-size="10.00">Println</text>
</g>
<!-- n2&#45;&gt;n3 -->
<g id="edge3" class="edge">
<title>n2&#45;&gt;n3</title>
<path fill="none" stroke="black" d="M381.49,-510.54C356.14,-500.05 316.2,-483.32 282,-468 280.69,-467.41 279.35,-466.81 278,-466.19"/>
<polygon fill="black" stroke="black" points="279.55,-463.06 269.01,-462.03 276.61,-469.41 279.55,-463.06"/>
</g>
<!-- n4 -->
<g id="node5" class="node">
<title>n4</title>
<ellipse fill="#b2dfee" stroke="#b2dfee" cx="318" cy="-450" rx="27" ry="18"/>
<text text-anchor="middle" x="318" y="-447.5" font-family="Helvetica,sans-Serif" font-size="10.00">(</text>
</g>
<!-- n2&#45;&gt;n4 -->
<g id="edge4" class="edge">
<title>n2&#45;&gt;n4</title>
<path fill="none" stroke="black" d="M388.99,-506.83C376.07,-496.68 358.48,-482.83 344.03,-471.47"/>
<polygon fill="black" stroke="black" points="346.29,-468.8 336.27,-465.37 341.96,-474.3 346.29,-468.8"/>
</g>
<!-- n5 -->
<g id="node6" class="node">
<title>n5</title>
<ellipse fill="#b2dfee" stroke="#b2dfee" cx="407" cy="-450" rx="43.62" ry="18"/>
<text text-anchor="middle" x="407" y="-447.5" font-family="Helvetica,sans-Serif" font-size="10.00">ARITMETICA</text>
</g>
<!-- n2&#45;&gt;n5 -->
<g id="edge5" class="edge">
<title>n2&#45;&gt;n5</title>
<path fill="none" stroke="black" d="M407,-503.7C407,-496.41 407,-487.73 407,-479.54"/>
<polygon fill="black" stroke="black" points="410.5,-479.62 407,-469.62 403.5,-479.62 410.5,-479.62"/>
</g>
<!-- n29 -->
<g id="node30" class="node">
<title>n29</title>
<ellipse fill="#b2dfee" stroke="#b2dfee" cx="496" cy="-450" rx="27" ry="18"/>
<text text-anchor="middle" x="496" y="-447.5" font-family="Helvetica,sans-Serif" font-size="10.00">)</text>
</g>
<!-- n2&#45;&gt;n29 -->
<g id="edge29" class="edge">
<title>n2&#45;&gt;n29</title>
<path fill="none" stroke="black" d="M425.01,-506.83C437.93,-496.68 455.52,-482.83 469.97,-471.47"/>
<polygon fill="black" stroke="black" points="472.04,-474.3 477.73,-465.37 467.71,-468.8 472.04,-474.3"/>
</g>
<!-- n30 -->
<g id="node31" class="node">
<title>n30</title>
<ellipse fill="#b2dfee" stroke="#b2dfee" cx="568" cy="-450" rx="27" ry="18"/>
<text text-anchor="middle" x="568" y="-447.5" font-family="Helvetica,sans-Serif" font-size="10.00">;</text>
</g>
<!-- n2&#45;&gt;n30 -->
<g id="edge30" class="edge">
<title>n2&#45;&gt;n30</title>
<path fill="none" stroke="black" d="M432.51,-510.54C457.86,-500.05 497.8,-483.32 532,-468 533.31,-467.41 534.65,-466.81 536,-466.19"/>
<polygon fill="black" stroke="black" points="537.39,-469.41 544.99,-462.03 534.45,-463.06 537.39,-469.41"/>
</g>
<!-- n6 -->
<g id="node7" class="node">
<title>n6</title>
<ellipse fill="#b2dfee" stroke="#b2dfee" cx="318" cy="-378" rx="43.62" ry="18"/>
<text text-anchor="middle" x="318" y="-375.5" font-family="Helvetica,sans-Serif" font-size="10.00">ARITMETICA</text>
</g>
<!-- n5&#45;&gt;n6 -->
<g id="edge6" class="edge">
<title>n5&#45;&gt;n6</title>
<path fill="none" stroke="black" d="M387.25,-433.46C375.26,-424.04 359.77,-411.85 346.48,-401.4"/>
<polygon fill="black" stroke="black" points="348.91,-398.86 338.89,-395.43 344.58,-404.36 348.91,-398.86"/>
</g>
<!-- n24 -->
<g id="node25" class="node">
<title>n24</title>
<ellipse fill="#b2dfee" stroke="#b2dfee" cx="407" cy="-378" rx="27" ry="18"/>
<text text-anchor="middle" x="407" y="-375.5" font-family="Helvetica,sans-Serif" font-size="10.00">&#45;</text>
</g>
<!-- n5&#45;&gt;n24 -->
<g id="edge24" class="edge">
<title>n5&#45;&gt;n24</title>
<path fill="none" stroke="black" d="M407,-431.7C407,-424.41 407,-415.73 407,-407.54"/>
<polygon fill="black" stroke="black" points="410.5,-407.62 407,-397.62 403.5,-407.62 410.5,-407.62"/>
</g>
<!-- n25 -->
<g id="node26" class="node">
<title>n25</title>
<ellipse fill="#b2dfee" stroke="#b2dfee" cx="491" cy="-378" rx="38.7" ry="18"/>
<text text-anchor="middle" x="491" y="-375.5" font-family="Helvetica,sans-Serif" font-size="10.00">NEGATIVO</text>
</g>
<!-- n5&#45;&gt;n25 -->
<g id="edge25" class="edge">
<title>n5&#45;&gt;n25</title>
<path fill="none" stroke="black" d="M425.64,-433.46C436.92,-424.07 451.5,-411.92 464.02,-401.48"/>
<polygon fill="black" stroke="black" points="466.09,-404.31 471.54,-395.22 461.61,-398.93 466.09,-404.31"/>
</g>
<!-- n7 -->
<g id="node8" class="node">
<title>n7</title>
<ellipse fill="#b2dfee" stroke="#b2dfee" cx="229" cy="-306" rx="43.62" ry="18"/>
<text text-anchor="middle" x="229" y="-303.5" font-family="Helvetica,sans-Serif" font-size="10.00">ARITMETICA</text>
</g>
<!-- n6&#45;&gt;n7 -->
<g id="edge7" class="edge">
<title>n6&#45;&gt;n7</title>
<path fill="none" stroke="black" d="M298.25,-361.46C286.26,-352.04 270.77,-339.85 257.48,-329.4"/>
<polygon fill="black" stroke="black" points="259.91,-326.86 249.89,-323.43 255.58,-332.36 259.91,-326.86"/>
</g>
<!-- n21 -->
<g id="node22" class="node">
<title>n21</title>
<ellipse fill="#b2dfee" stroke="#b2dfee" cx="318" cy="-306" rx="27" ry="18"/>
<text text-anchor="middle" x="318" y="-303.5" font-family="Helvetica,sans-Serif" font-size="10.00">&#45;</text>
</g>
<!-- n6&#45;&gt;n21 -->
<g id="edge21" class="edge">
<title>n6&#45;&gt;n21</title>
<path fill="none" stroke="black" d="M318,-359.7C318,-352.41 318,-343.73 318,-335.54"/>
<polygon fill="black" stroke="black" points="321.5,-335.62 318,-325.62 314.5,-335.62 321.5,-335.62"/>
</g>
<!-- n22 -->
<g id="node23" class="node">
<title>n22</title>
<ellipse fill="#b2dfee" stroke="#b2dfee" cx="390" cy="-306" rx="27" ry="18"/>
<text text-anchor="middle" x="390" y="-303.5" font-family="Helvetica,sans-Serif" font-size="10.00">INT</text>
</g>
<!-- n6&#45;&gt;n22 -->
<g id="edge22" class="edge">
<title>n6&#45;&gt;n22</title>
<path fill="none" stroke="black" d="M334.34,-361.12C344.03,-351.69 356.46,-339.61 367.12,-329.25"/>
<polygon fill="black" stroke="black" points="369.38,-331.93 374.11,-322.45 364.5,-326.91 369.38,-331.93"/>
</g>
<!-- n8 -->
<g id="node9" class="node">
<title>n8</title>
<ellipse fill="#b2dfee" stroke="#b2dfee" cx="138" cy="-234" rx="43.62" ry="18"/>
<text text-anchor="middle" x="138" y="-231.5" font-family="Helvetica,sans-Serif" font-size="10.00">ARITMETICA</text>
</g>
<!-- n7&#45;&gt;n8 -->
<g id="edge8" class="edge">
<title>n7&#45;&gt;n8</title>
<path fill="none" stroke="black" d="M209.25,-289.81C196.94,-280.34 180.87,-267.97 167.1,-257.39"/>
<polygon fill="black" stroke="black" points="169.28,-254.65 159.22,-251.32 165.01,-260.2 169.28,-254.65"/>
</g>
<!-- n18 -->
<g id="node19" class="node">
<title>n18</title>
<ellipse fill="#b2dfee" stroke="#b2dfee" cx="229" cy="-234" rx="27" ry="18"/>
<text text-anchor="middle" x="229" y="-231.5" font-family="Helvetica,sans-Serif" font-size="10.00">&#45;</text>
</g>
<!-- n7&#45;&gt;n18 -->
<g id="edge18" class="edge">
<title>n7&#45;&gt;n18</title>
<path fill="none" stroke="black" d="M229,-287.7C229,-280.41 229,-271.73 229,-263.54"/>
<polygon fill="black" stroke="black" points="232.5,-263.62 229,-253.62 225.5,-263.62 232.5,-263.62"/>
</g>
<!-- n19 -->
<g id="node20" class="node">
<title>n19</title>
<ellipse fill="#b2dfee" stroke="#b2dfee" cx="302" cy="-234" rx="27" ry="18"/>
<text text-anchor="middle" x="302" y="-231.5" font-family="Helvetica,sans-Serif" font-size="10.00">INT</text>
</g>
<!-- n7&#45;&gt;n19 -->
<g id="edge19" class="edge">
<title>n7&#45;&gt;n19</title>
<path fill="none" stroke="black" d="M245.56,-289.12C255.39,-279.69 268,-267.61 278.8,-257.25"/>
<polygon fill="black" stroke="black" points="281.1,-259.89 285.9,-250.44 276.26,-254.84 281.1,-259.89"/>
</g>
<!-- n9 -->
<g id="node10" class="node">
<title>n9</title>
<ellipse fill="#b2dfee" stroke="#b2dfee" cx="51" cy="-162" rx="38.7" ry="18"/>
<text text-anchor="middle" x="51" y="-159.5" font-family="Helvetica,sans-Serif" font-size="10.00">NEGATIVO</text>
</g>
<!-- n8&#45;&gt;n9 -->
<g id="edge9" class="edge">
<title>n8&#45;&gt;n9</title>
<path fill="none" stroke="black" d="M118.69,-217.46C106.82,-207.91 91.41,-195.51 78.3,-184.96"/>
<polygon fill="black" stroke="black" points="80.82,-182.5 70.84,-178.96 76.43,-187.96 80.82,-182.5"/>
</g>
<!-- n13 -->
<g id="node14" class="node">
<title>n13</title>
<ellipse fill="#b2dfee" stroke="#b2dfee" cx="135" cy="-162" rx="27" ry="18"/>
<text text-anchor="middle" x="135" y="-159.5" font-family="Helvetica,sans-Serif" font-size="10.00">&#45;</text>
</g>
<!-- n8&#45;&gt;n13 -->
<g id="edge13" class="edge">
<title>n8&#45;&gt;n13</title>
<path fill="none" stroke="black" d="M137.26,-215.7C136.95,-208.41 136.57,-199.73 136.22,-191.54"/>
<polygon fill="black" stroke="black" points="139.72,-191.46 135.8,-181.62 132.73,-191.76 139.72,-191.46"/>
</g>
<!-- n14 -->
<g id="node15" class="node">
<title>n14</title>
<ellipse fill="#b2dfee" stroke="#b2dfee" cx="219" cy="-162" rx="38.7" ry="18"/>
<text text-anchor="middle" x="219" y="-159.5" font-family="Helvetica,sans-Serif" font-size="10.00">NEGATIVO</text>
</g>
<!-- n8&#45;&gt;n14 -->
<g id="edge14" class="edge">
<title>n8&#45;&gt;n14</title>
<path fill="none" stroke="black" d="M155.98,-217.46C166.85,-208.07 180.91,-195.92 192.98,-185.48"/>
<polygon fill="black" stroke="black" points="194.93,-188.43 200.21,-179.24 190.35,-183.13 194.93,-188.43"/>
</g>
<!-- n10 -->
<g id="node11" class="node">
<title>n10</title>
<ellipse fill="#b2dfee" stroke="#b2dfee" cx="27" cy="-90" rx="27" ry="18"/>
<text text-anchor="middle" x="27" y="-87.5" font-family="Helvetica,sans-Serif" font-size="10.00">&#45;</text>
</g>
<!-- n9&#45;&gt;n10 -->
<g id="edge10" class="edge">
<title>n9&#45;&gt;n10</title>
<path fill="none" stroke="black" d="M45.19,-144.05C42.57,-136.4 39.4,-127.16 36.45,-118.56"/>
<polygon fill="black" stroke="black" points="39.8,-117.55 33.25,-109.22 33.18,-119.82 39.8,-117.55"/>
</g>
<!-- n11 -->
<g id="node12" class="node">
<title>n11</title>
<ellipse fill="#b2dfee" stroke="#b2dfee" cx="99" cy="-90" rx="27" ry="18"/>
<text text-anchor="middle" x="99" y="-87.5" font-family="Helvetica,sans-Serif" font-size="10.00">INT</text>
</g>
<!-- n9&#45;&gt;n11 -->
<g id="edge11" class="edge">
<title>n9&#45;&gt;n11</title>
<path fill="none" stroke="black" d="M62.38,-144.41C68.22,-135.89 75.46,-125.33 81.95,-115.86"/>
<polygon fill="black" stroke="black" points="84.74,-117.99 87.51,-107.76 78.97,-114.03 84.74,-117.99"/>
</g>
<!-- n12 -->
<g id="node13" class="node">
<title>n12</title>
<ellipse fill="#b2dfee" stroke="#b2dfee" cx="99" cy="-18" rx="27" ry="18"/>
<text text-anchor="middle" x="99" y="-15.5" font-family="Helvetica,sans-Serif" font-size="10.00">32</text>
</g>
<!-- n11&#45;&gt;n12 -->
<g id="edge12" class="edge">
<title>n11&#45;&gt;n12</title>
<path fill="none" stroke="black" d="M99,-71.7C99,-64.41 99,-55.73 99,-47.54"/>
<polygon fill="black" stroke="black" points="102.5,-47.62 99,-37.62 95.5,-47.62 102.5,-47.62"/>
</g>
<!-- n15 -->
<g id="node16" class="node">
<title>n15</title>
<ellipse fill="#b2dfee" stroke="#b2dfee" cx="195" cy="-90" rx="27" ry="18"/>
<text text-anchor="middle" x="195" y="-87.5" font-family="Helvetica,sans-Serif" font-size="10.00">&#45;</text>
</g>
<!-- n14&#45;&gt;n15 -->
<g id="edge15" class="edge">
<title>n14&#45;&gt;n15</title>
<path fill="none" stroke="black" d="M213.19,-144.05C210.57,-136.4 207.4,-127.16 204.45,-118.56"/>
<polygon fill="black" stroke="black" points="207.8,-117.55 201.25,-109.22 201.18,-119.82 207.8,-117.55"/>
</g>
<!-- n16 -->
<g id="node17" class="node">
<title>n16</title>
<ellipse fill="#b2dfee" stroke="#b2dfee" cx="267" cy="-90" rx="27" ry="18"/>
<text text-anchor="middle" x="267" y="-87.5" font-family="Helvetica,sans-Serif" font-size="10.00">INT</text>
</g>
<!-- n14&#45;&gt;n16 -->
<g id="edge16" class="edge">
<title>n14&#45;&gt;n16</title>
<path fill="none" stroke="black" d="M230.38,-144.41C236.22,-135.89 243.46,-125.33 249.95,-115.86"/>
<polygon fill="black" stroke="black" points="252.74,-117.99 255.51,-107.76 246.97,-114.03 252.74,-117.99"/>
</g>
<!-- n17 -->
<g id="node18" class="node">
<title>n17</title>
<ellipse fill="#b2dfee" stroke="#b2dfee" cx="267" cy="-18" rx="27" ry="18"/>
<text text-anchor="middle" x="267" y="-15.5" font-family="Helvetica,sans-Serif" font-size="10.00">34</text>
</g>
<!-- n16&#45;&gt;n17 -->
<g id="edge17" class="edge">
<title>n16&#45;&gt;n17</title>
<path fill="none" stroke="black" d="M267,-71.7C267,-64.41 267,-55.73 267,-47.54"/>
<polygon fill="black" stroke="black" points="270.5,-47.62 267,-37.62 263.5,-47.62 270.5,-47.62"/>
</g>
<!-- n20 -->
<g id="node21" class="node">
<title>n20</title>
<ellipse fill="#b2dfee" stroke="#b2dfee" cx="303" cy="-162" rx="27" ry="18"/>
<text text-anchor="middle" x="303" y="-159.5" font-family="Helvetica,sans-Serif" font-size="10.00">2</text>
</g>
<!-- n19&#45;&gt;n20 -->
<g id="edge20" class="edge">
<title>n19&#45;&gt;n20</title>
<path fill="none" stroke="black" d="M302.25,-215.7C302.35,-208.41 302.48,-199.73 302.59,-191.54"/>
<polygon fill="black" stroke="black" points="306.09,-191.67 302.73,-181.62 299.09,-191.57 306.09,-191.67"/>
</g>
<!-- n23 -->
<g id="node24" class="node">
<title>n23</title>
<ellipse fill="#b2dfee" stroke="#b2dfee" cx="390" cy="-234" rx="27" ry="18"/>
<text text-anchor="middle" x="390" y="-231.5" font-family="Helvetica,sans-Serif" font-size="10.00">43</text>
</g>
<!-- n22&#45;&gt;n23 -->
<g id="edge23" class="edge">
<title>n22&#45;&gt;n23</title>
<path fill="none" stroke="black" d="M390,-287.7C390,-280.41 390,-271.73 390,-263.54"/>
<polygon fill="black" stroke="black" points="393.5,-263.62 390,-253.62 386.5,-263.62 393.5,-263.62"/>
</g>
<!-- n26 -->
<g id="node27" class="node">
<title>n26</title>
<ellipse fill="#b2dfee" stroke="#b2dfee" cx="477" cy="-306" rx="27" ry="18"/>
<text text-anchor="middle" x="477" y="-303.5" font-family="Helvetica,sans-Serif" font-size="10.00">&#45;</text>
</g>
<!-- n25&#45;&gt;n26 -->
<g id="edge26" class="edge">
<title>n25&#45;&gt;n26</title>
<path fill="none" stroke="black" d="M487.54,-359.7C486.06,-352.32 484.3,-343.52 482.65,-335.25"/>
<polygon fill="black" stroke="black" points="486.11,-334.71 480.72,-325.59 479.25,-336.08 486.11,-334.71"/>
</g>
<!-- n27 -->
<g id="node28" class="node">
<title>n27</title>
<ellipse fill="#b2dfee" stroke="#b2dfee" cx="549" cy="-306" rx="27" ry="18"/>
<text text-anchor="middle" x="549" y="-303.5" font-family="Helvetica,sans-Serif" font-size="10.00">INT</text>
</g>
<!-- n25&#45;&gt;n27 -->
<g id="edge27" class="edge">
<title>n25&#45;&gt;n27</title>
<path fill="none" stroke="black" d="M504.45,-360.76C511.83,-351.86 521.12,-340.65 529.3,-330.78"/>
<polygon fill="black" stroke="black" points="531.76,-333.29 535.45,-323.35 526.37,-328.82 531.76,-333.29"/>
</g>
<!-- n28 -->
<g id="node29" class="node">
<title>n28</title>
<ellipse fill="#b2dfee" stroke="#b2dfee" cx="549" cy="-234" rx="27" ry="18"/>
<text text-anchor="middle" x="549" y="-231.5" font-family="Helvetica,sans-Serif" font-size="10.00">4</text>
</g>
<!-- n27&#45;&gt;n28 -->
<g id="edge28" class="edge">
<title>n27&#45;&gt;n28</title>
<path fill="none" stroke="black" d="M549,-287.7C549,-280.41 549,-271.73 549,-263.54"/>
<polygon fill="black" stroke="black" points="552.5,-263.62 549,-253.62 545.5,-263.62 552.5,-263.62"/>
</g>
</g>
</svg>
