<?xml version="1.0" encoding="UTF-8" standalone="no"?>
<!DOCTYPE svg PUBLIC "-//W3C//DTD SVG 1.1//EN"
 "http://www.w3.org/Graphics/SVG/1.1/DTD/svg11.dtd">
<!-- Generated by graphviz version 7.1.0 (20230121.1956)
 -->
<!-- Title: arbolAST Pages: 1 -->
<svg width="384pt" height="404pt"
 viewBox="0.00 0.00 384.00 404.00" xmlns="http://www.w3.org/2000/svg" xmlns:xlink="http://www.w3.org/1999/xlink">
<g id="graph0" class="graph" transform="scale(1 1) rotate(0) translate(4 400)">
<title>arbolAST</title>
<polygon fill="white" stroke="none" points="-4,4 -4,-400 380,-400 380,4 -4,4"/>
<!-- n0 -->
<g id="node1" class="node">
<title>n0</title>
<ellipse fill="#b2dfee" stroke="#b2dfee" cx="188" cy="-378" rx="27" ry="18"/>
<text text-anchor="middle" x="188" y="-375.5" font-family="Helvetica,sans-Serif" font-size="10.00">INICIO</text>
</g>
<!-- n1 -->
<g id="node2" class="node">
<title>n1</title>
<ellipse fill="#b2dfee" stroke="#b2dfee" cx="188" cy="-306" rx="55.85" ry="18"/>
<text text-anchor="middle" x="188" y="-303.5" font-family="Helvetica,sans-Serif" font-size="10.00">INSTRUCCIONES</text>
</g>
<!-- n0&#45;&gt;n1 -->
<g id="edge1" class="edge">
<title>n0&#45;&gt;n1</title>
<path fill="none" stroke="black" d="M188,-359.7C188,-352.41 188,-343.73 188,-335.54"/>
<polygon fill="black" stroke="black" points="191.5,-335.62 188,-325.62 184.5,-335.62 191.5,-335.62"/>
</g>
<!-- n2 -->
<g id="node3" class="node">
<title>n2</title>
<ellipse fill="#b2dfee" stroke="#b2dfee" cx="188" cy="-234" rx="32.93" ry="18"/>
<text text-anchor="middle" x="188" y="-231.5" font-family="Helvetica,sans-Serif" font-size="10.00">PRINTLN</text>
</g>
<!-- n1&#45;&gt;n2 -->
<g id="edge2" class="edge">
<title>n1&#45;&gt;n2</title>
<path fill="none" stroke="black" d="M188,-287.7C188,-280.41 188,-271.73 188,-263.54"/>
<polygon fill="black" stroke="black" points="191.5,-263.62 188,-253.62 184.5,-263.62 191.5,-263.62"/>
</g>
<!-- n3 -->
<g id="node4" class="node">
<title>n3</title>
<ellipse fill="#b2dfee" stroke="#b2dfee" cx="27" cy="-162" rx="27" ry="18"/>
<text text-anchor="middle" x="27" y="-159.5" font-family="Helvetica,sans-Serif" font-size="10.00">Println</text>
</g>
<!-- n2&#45;&gt;n3 -->
<g id="edge3" class="edge">
<title>n2&#45;&gt;n3</title>
<path fill="none" stroke="black" d="M162.49,-222.54C137.14,-212.05 97.2,-195.32 63,-180 61.69,-179.41 60.35,-178.81 59,-178.19"/>
<polygon fill="black" stroke="black" points="60.55,-175.06 50.01,-174.03 57.61,-181.41 60.55,-175.06"/>
</g>
<!-- n4 -->
<g id="node5" class="node">
<title>n4</title>
<ellipse fill="#b2dfee" stroke="#b2dfee" cx="99" cy="-162" rx="27" ry="18"/>
<text text-anchor="middle" x="99" y="-159.5" font-family="Helvetica,sans-Serif" font-size="10.00">(</text>
</g>
<!-- n2&#45;&gt;n4 -->
<g id="edge4" class="edge">
<title>n2&#45;&gt;n4</title>
<path fill="none" stroke="black" d="M169.99,-218.83C157.07,-208.68 139.48,-194.83 125.03,-183.47"/>
<polygon fill="black" stroke="black" points="127.29,-180.8 117.27,-177.37 122.96,-186.3 127.29,-180.8"/>
</g>
<!-- n5 -->
<g id="node6" class="node">
<title>n5</title>
<ellipse fill="#b2dfee" stroke="#b2dfee" cx="188" cy="-162" rx="43.62" ry="18"/>
<text text-anchor="middle" x="188" y="-159.5" font-family="Helvetica,sans-Serif" font-size="10.00">ARITMETICA</text>
</g>
<!-- n2&#45;&gt;n5 -->
<g id="edge5" class="edge">
<title>n2&#45;&gt;n5</title>
<path fill="none" stroke="black" d="M188,-215.7C188,-208.41 188,-199.73 188,-191.54"/>
<polygon fill="black" stroke="black" points="191.5,-191.62 188,-181.62 184.5,-191.62 191.5,-191.62"/>
</g>
<!-- n11 -->
<g id="node12" class="node">
<title>n11</title>
<ellipse fill="#b2dfee" stroke="#b2dfee" cx="277" cy="-162" rx="27" ry="18"/>
<text text-anchor="middle" x="277" y="-159.5" font-family="Helvetica,sans-Serif" font-size="10.00">)</text>
</g>
<!-- n2&#45;&gt;n11 -->
<g id="edge11" class="edge">
<title>n2&#45;&gt;n11</title>
<path fill="none" stroke="black" d="M206.01,-218.83C218.93,-208.68 236.52,-194.83 250.97,-183.47"/>
<polygon fill="black" stroke="black" points="253.04,-186.3 258.73,-177.37 248.71,-180.8 253.04,-186.3"/>
</g>
<!-- n12 -->
<g id="node13" class="node">
<title>n12</title>
<ellipse fill="#b2dfee" stroke="#b2dfee" cx="349" cy="-162" rx="27" ry="18"/>
<text text-anchor="middle" x="349" y="-159.5" font-family="Helvetica,sans-Serif" font-size="10.00">;</text>
</g>
<!-- n2&#45;&gt;n12 -->
<g id="edge12" class="edge">
<title>n2&#45;&gt;n12</title>
<path fill="none" stroke="black" d="M213.51,-222.54C238.86,-212.05 278.8,-195.32 313,-180 314.31,-179.41 315.65,-178.81 317,-178.19"/>
<polygon fill="black" stroke="black" points="318.39,-181.41 325.99,-174.03 315.45,-175.06 318.39,-181.41"/>
</g>
<!-- n6 -->
<g id="node7" class="node">
<title>n6</title>
<ellipse fill="#b2dfee" stroke="#b2dfee" cx="110" cy="-90" rx="32.93" ry="18"/>
<text text-anchor="middle" x="110" y="-87.5" font-family="Helvetica,sans-Serif" font-size="10.00">DOUBLE</text>
</g>
<!-- n5&#45;&gt;n6 -->
<g id="edge6" class="edge">
<title>n5&#45;&gt;n6</title>
<path fill="none" stroke="black" d="M170.3,-145.12C159.84,-135.73 146.43,-123.7 134.92,-113.36"/>
<polygon fill="black" stroke="black" points="137.47,-110.95 127.69,-106.87 132.79,-116.16 137.47,-110.95"/>
</g>
<!-- n8 -->
<g id="node9" class="node">
<title>n8</title>
<ellipse fill="#b2dfee" stroke="#b2dfee" cx="188" cy="-90" rx="27" ry="18"/>
<text text-anchor="middle" x="188" y="-87.5" font-family="Helvetica,sans-Serif" font-size="10.00">+</text>
</g>
<!-- n5&#45;&gt;n8 -->
<g id="edge8" class="edge">
<title>n5&#45;&gt;n8</title>
<path fill="none" stroke="black" d="M188,-143.7C188,-136.41 188,-127.73 188,-119.54"/>
<polygon fill="black" stroke="black" points="191.5,-119.62 188,-109.62 184.5,-119.62 191.5,-119.62"/>
</g>
<!-- n9 -->
<g id="node10" class="node">
<title>n9</title>
<ellipse fill="#b2dfee" stroke="#b2dfee" cx="260" cy="-90" rx="27" ry="18"/>
<text text-anchor="middle" x="260" y="-87.5" font-family="Helvetica,sans-Serif" font-size="10.00">INT</text>
</g>
<!-- n5&#45;&gt;n9 -->
<g id="edge9" class="edge">
<title>n5&#45;&gt;n9</title>
<path fill="none" stroke="black" d="M204.34,-145.12C214.03,-135.69 226.46,-123.61 237.12,-113.25"/>
<polygon fill="black" stroke="black" points="239.38,-115.93 244.11,-106.45 234.5,-110.91 239.38,-115.93"/>
</g>
<!-- n7 -->
<g id="node8" class="node">
<title>n7</title>
<ellipse fill="#b2dfee" stroke="#b2dfee" cx="110" cy="-18" rx="27" ry="18"/>
<text text-anchor="middle" x="110" y="-15.5" font-family="Helvetica,sans-Serif" font-size="10.00">3.2</text>
</g>
<!-- n6&#45;&gt;n7 -->
<g id="edge7" class="edge">
<title>n6&#45;&gt;n7</title>
<path fill="none" stroke="black" d="M110,-71.7C110,-64.41 110,-55.73 110,-47.54"/>
<polygon fill="black" stroke="black" points="113.5,-47.62 110,-37.62 106.5,-47.62 113.5,-47.62"/>
</g>
<!-- n10 -->
<g id="node11" class="node">
<title>n10</title>
<ellipse fill="#b2dfee" stroke="#b2dfee" cx="260" cy="-18" rx="27" ry="18"/>
<text text-anchor="middle" x="260" y="-15.5" font-family="Helvetica,sans-Serif" font-size="10.00">4</text>
</g>
<!-- n9&#45;&gt;n10 -->
<g id="edge10" class="edge">
<title>n9&#45;&gt;n10</title>
<path fill="none" stroke="black" d="M260,-71.7C260,-64.41 260,-55.73 260,-47.54"/>
<polygon fill="black" stroke="black" points="263.5,-47.62 260,-37.62 256.5,-47.62 263.5,-47.62"/>
</g>
</g>
</svg>
