<?xml version="1.0" encoding="UTF-8" standalone="no"?>
<!DOCTYPE svg PUBLIC "-//W3C//DTD SVG 1.1//EN"
 "http://www.w3.org/Graphics/SVG/1.1/DTD/svg11.dtd">
<!-- Generated by graphviz version 7.1.0 (20230121.1956)
 -->
<!-- Title: arbolAST Pages: 1 -->
<svg width="2251pt" height="404pt"
 viewBox="0.00 0.00 2250.67 404.00" xmlns="http://www.w3.org/2000/svg" xmlns:xlink="http://www.w3.org/1999/xlink">
<g id="graph0" class="graph" transform="scale(1 1) rotate(0) translate(4 400)">
<title>arbolAST</title>
<polygon fill="white" stroke="none" points="-4,4 -4,-400 2246.67,-400 2246.67,4 -4,4"/>
<!-- n0 -->
<g id="node1" class="node">
<title>n0</title>
<ellipse fill="#b2dfee" stroke="#b2dfee" cx="1259.67" cy="-378" rx="27" ry="18"/>
<text text-anchor="middle" x="1259.67" y="-375.5" font-family="Helvetica,sans-Serif" font-size="10.00">INICIO</text>
</g>
<!-- n1 -->
<g id="node2" class="node">
<title>n1</title>
<ellipse fill="#b2dfee" stroke="#b2dfee" cx="1259.67" cy="-306" rx="55.85" ry="18"/>
<text text-anchor="middle" x="1259.67" y="-303.5" font-family="Helvetica,sans-Serif" font-size="10.00">INSTRUCCIONES</text>
</g>
<!-- n0&#45;&gt;n1 -->
<g id="edge1" class="edge">
<title>n0&#45;&gt;n1</title>
<path fill="none" stroke="black" d="M1259.67,-359.7C1259.67,-352.41 1259.67,-343.73 1259.67,-335.54"/>
<polygon fill="black" stroke="black" points="1263.17,-335.62 1259.67,-325.62 1256.17,-335.62 1263.17,-335.62"/>
</g>
<!-- n2 -->
<g id="node3" class="node">
<title>n2</title>
<ellipse fill="#b2dfee" stroke="#b2dfee" cx="370.67" cy="-234" rx="70.78" ry="18"/>
<text text-anchor="middle" x="370.67" y="-231.5" font-family="Helvetica,sans-Serif" font-size="10.00">Declaracion de Arreglos</text>
</g>
<!-- n1&#45;&gt;n2 -->
<g id="edge2" class="edge">
<title>n1&#45;&gt;n2</title>
<path fill="none" stroke="black" d="M1205.73,-300.75C1054.53,-288.85 626.12,-255.11 448.9,-241.16"/>
<polygon fill="black" stroke="black" points="449.34,-237.68 439.1,-240.39 448.8,-244.66 449.34,-237.68"/>
</g>
<!-- n14 -->
<g id="node15" class="node">
<title>n14</title>
<ellipse fill="#b2dfee" stroke="#b2dfee" cx="1043.67" cy="-234" rx="79.44" ry="18"/>
<text text-anchor="middle" x="1043.67" y="-231.5" font-family="Helvetica,sans-Serif" font-size="10.00">Declaracion de Arreglos 2D</text>
</g>
<!-- n1&#45;&gt;n14 -->
<g id="edge14" class="edge">
<title>n1&#45;&gt;n14</title>
<path fill="none" stroke="black" d="M1221.55,-292.65C1187.34,-281.56 1136.74,-265.16 1098.25,-252.69"/>
<polygon fill="black" stroke="black" points="1099.76,-249.5 1089.17,-249.75 1097.61,-256.16 1099.76,-249.5"/>
</g>
<!-- n36 -->
<g id="node37" class="node">
<title>n36</title>
<ellipse fill="#b2dfee" stroke="#b2dfee" cx="1500.67" cy="-234" rx="32.93" ry="18"/>
<text text-anchor="middle" x="1500.67" y="-231.5" font-family="Helvetica,sans-Serif" font-size="10.00">PRINTLN</text>
</g>
<!-- n1&#45;&gt;n36 -->
<g id="edge36" class="edge">
<title>n1&#45;&gt;n36</title>
<path fill="none" stroke="black" d="M1300.28,-293.2C1345.07,-280.19 1416.68,-259.4 1461.07,-246.5"/>
<polygon fill="black" stroke="black" points="1461.92,-249.9 1470.55,-243.75 1459.97,-243.18 1461.92,-249.9"/>
</g>
<!-- n43 -->
<g id="node44" class="node">
<title>n43</title>
<ellipse fill="#b2dfee" stroke="#b2dfee" cx="1960.67" cy="-234" rx="32.93" ry="18"/>
<text text-anchor="middle" x="1960.67" y="-231.5" font-family="Helvetica,sans-Serif" font-size="10.00">PRINTLN</text>
</g>
<!-- n1&#45;&gt;n43 -->
<g id="edge43" class="edge">
<title>n1&#45;&gt;n43</title>
<path fill="none" stroke="black" d="M1312.64,-299.71C1446.13,-286.38 1794.35,-251.61 1917.08,-239.35"/>
<polygon fill="black" stroke="black" points="1917.13,-242.86 1926.73,-238.39 1916.44,-235.9 1917.13,-242.86"/>
</g>
<!-- n3 -->
<g id="node4" class="node">
<title>n3</title>
<ellipse fill="#b2dfee" stroke="#b2dfee" cx="27.67" cy="-162" rx="27.84" ry="18"/>
<text text-anchor="middle" x="27.67" y="-159.5" font-family="Helvetica,sans-Serif" font-size="10.00">vector1</text>
</g>
<!-- n2&#45;&gt;n3 -->
<g id="edge3" class="edge">
<title>n2&#45;&gt;n3</title>
<path fill="none" stroke="black" d="M305.34,-226.65C242.59,-219.4 145.64,-205.14 64.67,-180 62.94,-179.46 61.19,-178.86 59.43,-178.22"/>
<polygon fill="black" stroke="black" points="60.8,-175 50.22,-174.43 58.14,-181.47 60.8,-175"/>
</g>
<!-- n4 -->
<g id="node5" class="node">
<title>n4</title>
<ellipse fill="#b2dfee" stroke="#b2dfee" cx="100.67" cy="-162" rx="27" ry="18"/>
<text text-anchor="middle" x="100.67" y="-159.5" font-family="Helvetica,sans-Serif" font-size="10.00">:</text>
</g>
<!-- n2&#45;&gt;n4 -->
<g id="edge4" class="edge">
<title>n2&#45;&gt;n4</title>
<path fill="none" stroke="black" d="M312.47,-223.48C264.52,-214.76 195.15,-200.16 136.67,-180 135.12,-179.47 133.54,-178.88 131.96,-178.27"/>
<polygon fill="black" stroke="black" points="133.63,-175.17 123.06,-174.45 130.87,-181.61 133.63,-175.17"/>
</g>
<!-- n5 -->
<g id="node6" class="node">
<title>n5</title>
<ellipse fill="#b2dfee" stroke="#b2dfee" cx="179.67" cy="-162" rx="33.61" ry="18"/>
<text text-anchor="middle" x="179.67" y="-159.5" font-family="Helvetica,sans-Serif" font-size="10.00">CADENA</text>
</g>
<!-- n2&#45;&gt;n5 -->
<g id="edge5" class="edge">
<title>n2&#45;&gt;n5</title>
<path fill="none" stroke="black" d="M330.02,-218.85C300.21,-208.37 258.81,-193.61 222.67,-180 220.64,-179.24 218.56,-178.44 216.46,-177.64"/>
<polygon fill="black" stroke="black" points="217.99,-174.48 207.4,-174.11 215.45,-181 217.99,-174.48"/>
</g>
<!-- n6 -->
<g id="node7" class="node">
<title>n6</title>
<ellipse fill="#b2dfee" stroke="#b2dfee" cx="258.67" cy="-162" rx="27" ry="18"/>
<text text-anchor="middle" x="258.67" y="-159.5" font-family="Helvetica,sans-Serif" font-size="10.00">=</text>
</g>
<!-- n2&#45;&gt;n6 -->
<g id="edge6" class="edge">
<title>n2&#45;&gt;n6</title>
<path fill="none" stroke="black" d="M344.97,-216.94C327.75,-206.18 305.06,-192 287.27,-180.88"/>
<polygon fill="black" stroke="black" points="289.57,-178.19 279.24,-175.86 285.86,-184.12 289.57,-178.19"/>
</g>
<!-- n7 -->
<g id="node8" class="node">
<title>n7</title>
<ellipse fill="#b2dfee" stroke="#b2dfee" cx="330.67" cy="-162" rx="27" ry="18"/>
<text text-anchor="middle" x="330.67" y="-159.5" font-family="Helvetica,sans-Serif" font-size="10.00">[</text>
</g>
<!-- n2&#45;&gt;n7 -->
<g id="edge7" class="edge">
<title>n2&#45;&gt;n7</title>
<path fill="none" stroke="black" d="M360.78,-215.7C356.19,-207.67 350.64,-197.95 345.56,-189.05"/>
<polygon fill="black" stroke="black" points="348.64,-187.4 340.64,-180.46 342.57,-190.88 348.64,-187.4"/>
</g>
<!-- n8 -->
<g id="node9" class="node">
<title>n8</title>
<ellipse fill="#b2dfee" stroke="#b2dfee" cx="409.67" cy="-162" rx="33.61" ry="18"/>
<text text-anchor="middle" x="409.67" y="-159.5" font-family="Helvetica,sans-Serif" font-size="10.00">CADENA</text>
</g>
<!-- n2&#45;&gt;n8 -->
<g id="edge8" class="edge">
<title>n2&#45;&gt;n8</title>
<path fill="none" stroke="black" d="M380.31,-215.7C384.72,-207.78 390.04,-198.23 394.94,-189.44"/>
<polygon fill="black" stroke="black" points="397.86,-191.38 399.67,-180.94 391.74,-187.98 397.86,-191.38"/>
</g>
<!-- n10 -->
<g id="node11" class="node">
<title>n10</title>
<ellipse fill="#b2dfee" stroke="#b2dfee" cx="494.67" cy="-162" rx="33.61" ry="18"/>
<text text-anchor="middle" x="494.67" y="-159.5" font-family="Helvetica,sans-Serif" font-size="10.00">CADENA</text>
</g>
<!-- n2&#45;&gt;n10 -->
<g id="edge10" class="edge">
<title>n2&#45;&gt;n10</title>
<path fill="none" stroke="black" d="M398.8,-217.12C417.67,-206.47 442.56,-192.41 462.26,-181.3"/>
<polygon fill="black" stroke="black" points="463.71,-184.49 470.7,-176.53 460.27,-178.4 463.71,-184.49"/>
</g>
<!-- n12 -->
<g id="node13" class="node">
<title>n12</title>
<ellipse fill="#b2dfee" stroke="#b2dfee" cx="573.67" cy="-162" rx="27" ry="18"/>
<text text-anchor="middle" x="573.67" y="-159.5" font-family="Helvetica,sans-Serif" font-size="10.00">]</text>
</g>
<!-- n2&#45;&gt;n12 -->
<g id="edge12" class="edge">
<title>n2&#45;&gt;n12</title>
<path fill="none" stroke="black" d="M417.32,-220.02C451.14,-210.16 497.75,-195.68 537.67,-180 539.2,-179.4 540.75,-178.76 542.31,-178.11"/>
<polygon fill="black" stroke="black" points="543.46,-181.43 551.17,-174.16 540.61,-175.03 543.46,-181.43"/>
</g>
<!-- n13 -->
<g id="node14" class="node">
<title>n13</title>
<ellipse fill="#b2dfee" stroke="#b2dfee" cx="645.67" cy="-162" rx="27" ry="18"/>
<text text-anchor="middle" x="645.67" y="-159.5" font-family="Helvetica,sans-Serif" font-size="10.00">;</text>
</g>
<!-- n2&#45;&gt;n13 -->
<g id="edge13" class="edge">
<title>n2&#45;&gt;n13</title>
<path fill="none" stroke="black" d="M429.62,-223.71C478.62,-215.09 549.75,-200.5 609.67,-180 611.22,-179.47 612.8,-178.89 614.37,-178.28"/>
<polygon fill="black" stroke="black" points="615.46,-181.62 623.28,-174.47 612.71,-175.18 615.46,-181.62"/>
</g>
<!-- n9 -->
<g id="node10" class="node">
<title>n9</title>
<ellipse fill="#b2dfee" stroke="#b2dfee" cx="409.67" cy="-90" rx="27" ry="18"/>
<text text-anchor="middle" x="409.67" y="-87.5" font-family="Helvetica,sans-Serif" font-size="10.00">Hola</text>
</g>
<!-- n8&#45;&gt;n9 -->
<g id="edge9" class="edge">
<title>n8&#45;&gt;n9</title>
<path fill="none" stroke="black" d="M409.67,-143.7C409.67,-136.41 409.67,-127.73 409.67,-119.54"/>
<polygon fill="black" stroke="black" points="413.17,-119.62 409.67,-109.62 406.17,-119.62 413.17,-119.62"/>
</g>
<!-- n11 -->
<g id="node12" class="node">
<title>n11</title>
<ellipse fill="#b2dfee" stroke="#b2dfee" cx="494.67" cy="-90" rx="27.16" ry="18"/>
<text text-anchor="middle" x="494.67" y="-87.5" font-family="Helvetica,sans-Serif" font-size="10.00">Mundo</text>
</g>
<!-- n10&#45;&gt;n11 -->
<g id="edge11" class="edge">
<title>n10&#45;&gt;n11</title>
<path fill="none" stroke="black" d="M494.67,-143.7C494.67,-136.41 494.67,-127.73 494.67,-119.54"/>
<polygon fill="black" stroke="black" points="498.17,-119.62 494.67,-109.62 491.17,-119.62 498.17,-119.62"/>
</g>
<!-- n15 -->
<g id="node16" class="node">
<title>n15</title>
<ellipse fill="#b2dfee" stroke="#b2dfee" cx="718.67" cy="-162" rx="27.84" ry="18"/>
<text text-anchor="middle" x="718.67" y="-159.5" font-family="Helvetica,sans-Serif" font-size="10.00">vector2</text>
</g>
<!-- n14&#45;&gt;n15 -->
<g id="edge15" class="edge">
<title>n14&#45;&gt;n15</title>
<path fill="none" stroke="black" d="M973.82,-225.09C914.76,-217.24 828.38,-203 755.67,-180 754.07,-179.49 752.44,-178.93 750.82,-178.34"/>
<polygon fill="black" stroke="black" points="752.2,-175.12 741.62,-174.57 749.55,-181.6 752.2,-175.12"/>
</g>
<!-- n16 -->
<g id="node17" class="node">
<title>n16</title>
<ellipse fill="#b2dfee" stroke="#b2dfee" cx="791.67" cy="-162" rx="27" ry="18"/>
<text text-anchor="middle" x="791.67" y="-159.5" font-family="Helvetica,sans-Serif" font-size="10.00">:</text>
</g>
<!-- n14&#45;&gt;n16 -->
<g id="edge16" class="edge">
<title>n14&#45;&gt;n16</title>
<path fill="none" stroke="black" d="M984.06,-221.74C940.15,-212.63 879.34,-198.33 827.67,-180 826.12,-179.45 824.55,-178.86 822.98,-178.23"/>
<polygon fill="black" stroke="black" points="824.65,-175.14 814.08,-174.39 821.87,-181.57 824.65,-175.14"/>
</g>
<!-- n17 -->
<g id="node18" class="node">
<title>n17</title>
<ellipse fill="#b2dfee" stroke="#b2dfee" cx="863.67" cy="-162" rx="27" ry="18"/>
<text text-anchor="middle" x="863.67" y="-159.5" font-family="Helvetica,sans-Serif" font-size="10.00">INT</text>
</g>
<!-- n14&#45;&gt;n17 -->
<g id="edge17" class="edge">
<title>n14&#45;&gt;n17</title>
<path fill="none" stroke="black" d="M1001.07,-218.44C972.2,-208.3 933.33,-194.11 899.67,-180 898.15,-179.37 896.61,-178.7 895.06,-178.02"/>
<polygon fill="black" stroke="black" points="896.78,-174.96 886.23,-174.01 893.88,-181.33 896.78,-174.96"/>
</g>
<!-- n18 -->
<g id="node19" class="node">
<title>n18</title>
<ellipse fill="#b2dfee" stroke="#b2dfee" cx="935.67" cy="-162" rx="27" ry="18"/>
<text text-anchor="middle" x="935.67" y="-159.5" font-family="Helvetica,sans-Serif" font-size="10.00">=</text>
</g>
<!-- n14&#45;&gt;n18 -->
<g id="edge18" class="edge">
<title>n14&#45;&gt;n18</title>
<path fill="none" stroke="black" d="M1018.35,-216.59C1001.98,-205.98 980.67,-192.17 963.78,-181.22"/>
<polygon fill="black" stroke="black" points="965.98,-178.48 955.68,-175.97 962.17,-184.35 965.98,-178.48"/>
</g>
<!-- n19 -->
<g id="node20" class="node">
<title>n19</title>
<ellipse fill="#b2dfee" stroke="#b2dfee" cx="1007.67" cy="-162" rx="27" ry="18"/>
<text text-anchor="middle" x="1007.67" y="-159.5" font-family="Helvetica,sans-Serif" font-size="10.00">[</text>
</g>
<!-- n14&#45;&gt;n19 -->
<g id="edge19" class="edge">
<title>n14&#45;&gt;n19</title>
<path fill="none" stroke="black" d="M1034.77,-215.7C1030.68,-207.75 1025.75,-198.16 1021.22,-189.34"/>
<polygon fill="black" stroke="black" points="1024.35,-187.78 1016.66,-180.49 1018.12,-190.98 1024.35,-187.78"/>
</g>
<!-- n20 -->
<g id="node21" class="node">
<title>n20</title>
<ellipse fill="#b2dfee" stroke="#b2dfee" cx="1079.67" cy="-162" rx="27" ry="18"/>
<text text-anchor="middle" x="1079.67" y="-159.5" font-family="Helvetica,sans-Serif" font-size="10.00">Fila</text>
</g>
<!-- n14&#45;&gt;n20 -->
<g id="edge20" class="edge">
<title>n14&#45;&gt;n20</title>
<path fill="none" stroke="black" d="M1052.57,-215.7C1056.65,-207.75 1061.59,-198.16 1066.12,-189.34"/>
<polygon fill="black" stroke="black" points="1069.21,-190.98 1070.67,-180.49 1062.99,-187.78 1069.21,-190.98"/>
</g>
<!-- n27 -->
<g id="node28" class="node">
<title>n27</title>
<ellipse fill="#b2dfee" stroke="#b2dfee" cx="1151.67" cy="-162" rx="27" ry="18"/>
<text text-anchor="middle" x="1151.67" y="-159.5" font-family="Helvetica,sans-Serif" font-size="10.00">Fila</text>
</g>
<!-- n14&#45;&gt;n27 -->
<g id="edge27" class="edge">
<title>n14&#45;&gt;n27</title>
<path fill="none" stroke="black" d="M1068.99,-216.59C1085.35,-205.98 1106.67,-192.17 1123.56,-181.22"/>
<polygon fill="black" stroke="black" points="1125.16,-184.35 1131.65,-175.97 1121.35,-178.48 1125.16,-184.35"/>
</g>
<!-- n34 -->
<g id="node35" class="node">
<title>n34</title>
<ellipse fill="#b2dfee" stroke="#b2dfee" cx="1223.67" cy="-162" rx="27" ry="18"/>
<text text-anchor="middle" x="1223.67" y="-159.5" font-family="Helvetica,sans-Serif" font-size="10.00">]</text>
</g>
<!-- n14&#45;&gt;n34 -->
<g id="edge34" class="edge">
<title>n14&#45;&gt;n34</title>
<path fill="none" stroke="black" d="M1086.27,-218.44C1115.13,-208.3 1154.01,-194.11 1187.67,-180 1189.18,-179.37 1190.72,-178.7 1192.28,-178.02"/>
<polygon fill="black" stroke="black" points="1193.45,-181.33 1201.11,-174.01 1190.56,-174.96 1193.45,-181.33"/>
</g>
<!-- n35 -->
<g id="node36" class="node">
<title>n35</title>
<ellipse fill="#b2dfee" stroke="#b2dfee" cx="1295.67" cy="-162" rx="27" ry="18"/>
<text text-anchor="middle" x="1295.67" y="-159.5" font-family="Helvetica,sans-Serif" font-size="10.00">;</text>
</g>
<!-- n14&#45;&gt;n35 -->
<g id="edge35" class="edge">
<title>n14&#45;&gt;n35</title>
<path fill="none" stroke="black" d="M1103.28,-221.74C1147.19,-212.63 1207.99,-198.33 1259.67,-180 1261.21,-179.45 1262.78,-178.86 1264.36,-178.23"/>
<polygon fill="black" stroke="black" points="1265.46,-181.57 1273.26,-174.39 1262.69,-175.14 1265.46,-181.57"/>
</g>
<!-- n21 -->
<g id="node22" class="node">
<title>n21</title>
<ellipse fill="#b2dfee" stroke="#b2dfee" cx="863.67" cy="-90" rx="27" ry="18"/>
<text text-anchor="middle" x="863.67" y="-87.5" font-family="Helvetica,sans-Serif" font-size="10.00">[</text>
</g>
<!-- n20&#45;&gt;n21 -->
<g id="edge21" class="edge">
<title>n20&#45;&gt;n21</title>
<path fill="none" stroke="black" d="M1058.64,-150.23C1053.8,-147.98 1048.61,-145.77 1043.67,-144 981.54,-121.81 961.79,-130.19 899.67,-108 898.12,-107.45 896.55,-106.85 894.98,-106.22"/>
<polygon fill="black" stroke="black" points="896.65,-103.14 886.08,-102.38 893.87,-109.56 896.65,-103.14"/>
</g>
<!-- n22 -->
<g id="node23" class="node">
<title>n22</title>
<ellipse fill="#b2dfee" stroke="#b2dfee" cx="935.67" cy="-90" rx="27" ry="18"/>
<text text-anchor="middle" x="935.67" y="-87.5" font-family="Helvetica,sans-Serif" font-size="10.00">INT</text>
</g>
<!-- n20&#45;&gt;n22 -->
<g id="edge22" class="edge">
<title>n20&#45;&gt;n22</title>
<path fill="none" stroke="black" d="M1058.11,-150.52C1034,-138.8 994.74,-119.72 967.19,-106.32"/>
<polygon fill="black" stroke="black" points="968.79,-103.21 958.26,-101.98 965.73,-109.5 968.79,-103.21"/>
</g>
<!-- n24 -->
<g id="node25" class="node">
<title>n24</title>
<ellipse fill="#b2dfee" stroke="#b2dfee" cx="1007.67" cy="-90" rx="27" ry="18"/>
<text text-anchor="middle" x="1007.67" y="-87.5" font-family="Helvetica,sans-Serif" font-size="10.00">INT</text>
</g>
<!-- n20&#45;&gt;n24 -->
<g id="edge24" class="edge">
<title>n20&#45;&gt;n24</title>
<path fill="none" stroke="black" d="M1064.75,-146.5C1054.9,-136.92 1041.81,-124.19 1030.64,-113.34"/>
<polygon fill="black" stroke="black" points="1033.26,-111 1023.65,-106.54 1028.38,-116.02 1033.26,-111"/>
</g>
<!-- n26 -->
<g id="node27" class="node">
<title>n26</title>
<ellipse fill="#b2dfee" stroke="#b2dfee" cx="1079.67" cy="-90" rx="27" ry="18"/>
<text text-anchor="middle" x="1079.67" y="-87.5" font-family="Helvetica,sans-Serif" font-size="10.00">]</text>
</g>
<!-- n20&#45;&gt;n26 -->
<g id="edge26" class="edge">
<title>n20&#45;&gt;n26</title>
<path fill="none" stroke="black" d="M1079.67,-143.7C1079.67,-136.41 1079.67,-127.73 1079.67,-119.54"/>
<polygon fill="black" stroke="black" points="1083.17,-119.62 1079.67,-109.62 1076.17,-119.62 1083.17,-119.62"/>
</g>
<!-- n23 -->
<g id="node24" class="node">
<title>n23</title>
<ellipse fill="#b2dfee" stroke="#b2dfee" cx="935.67" cy="-18" rx="27" ry="18"/>
<text text-anchor="middle" x="935.67" y="-15.5" font-family="Helvetica,sans-Serif" font-size="10.00">1</text>
</g>
<!-- n22&#45;&gt;n23 -->
<g id="edge23" class="edge">
<title>n22&#45;&gt;n23</title>
<path fill="none" stroke="black" d="M935.67,-71.7C935.67,-64.41 935.67,-55.73 935.67,-47.54"/>
<polygon fill="black" stroke="black" points="939.17,-47.62 935.67,-37.62 932.17,-47.62 939.17,-47.62"/>
</g>
<!-- n25 -->
<g id="node26" class="node">
<title>n25</title>
<ellipse fill="#b2dfee" stroke="#b2dfee" cx="1007.67" cy="-18" rx="27" ry="18"/>
<text text-anchor="middle" x="1007.67" y="-15.5" font-family="Helvetica,sans-Serif" font-size="10.00">2</text>
</g>
<!-- n24&#45;&gt;n25 -->
<g id="edge25" class="edge">
<title>n24&#45;&gt;n25</title>
<path fill="none" stroke="black" d="M1007.67,-71.7C1007.67,-64.41 1007.67,-55.73 1007.67,-47.54"/>
<polygon fill="black" stroke="black" points="1011.17,-47.62 1007.67,-37.62 1004.17,-47.62 1011.17,-47.62"/>
</g>
<!-- n28 -->
<g id="node29" class="node">
<title>n28</title>
<ellipse fill="#b2dfee" stroke="#b2dfee" cx="1151.67" cy="-90" rx="27" ry="18"/>
<text text-anchor="middle" x="1151.67" y="-87.5" font-family="Helvetica,sans-Serif" font-size="10.00">[</text>
</g>
<!-- n27&#45;&gt;n28 -->
<g id="edge28" class="edge">
<title>n27&#45;&gt;n28</title>
<path fill="none" stroke="black" d="M1151.67,-143.7C1151.67,-136.41 1151.67,-127.73 1151.67,-119.54"/>
<polygon fill="black" stroke="black" points="1155.17,-119.62 1151.67,-109.62 1148.17,-119.62 1155.17,-119.62"/>
</g>
<!-- n29 -->
<g id="node30" class="node">
<title>n29</title>
<ellipse fill="#b2dfee" stroke="#b2dfee" cx="1223.67" cy="-90" rx="27" ry="18"/>
<text text-anchor="middle" x="1223.67" y="-87.5" font-family="Helvetica,sans-Serif" font-size="10.00">INT</text>
</g>
<!-- n27&#45;&gt;n29 -->
<g id="edge29" class="edge">
<title>n27&#45;&gt;n29</title>
<path fill="none" stroke="black" d="M1166.59,-146.5C1176.43,-136.92 1189.53,-124.19 1200.69,-113.34"/>
<polygon fill="black" stroke="black" points="1202.95,-116.02 1207.68,-106.54 1198.07,-111 1202.95,-116.02"/>
</g>
<!-- n31 -->
<g id="node32" class="node">
<title>n31</title>
<ellipse fill="#b2dfee" stroke="#b2dfee" cx="1295.67" cy="-90" rx="27" ry="18"/>
<text text-anchor="middle" x="1295.67" y="-87.5" font-family="Helvetica,sans-Serif" font-size="10.00">INT</text>
</g>
<!-- n27&#45;&gt;n31 -->
<g id="edge31" class="edge">
<title>n27&#45;&gt;n31</title>
<path fill="none" stroke="black" d="M1173.23,-150.52C1197.33,-138.8 1236.59,-119.72 1264.14,-106.32"/>
<polygon fill="black" stroke="black" points="1265.61,-109.5 1273.07,-101.98 1262.55,-103.21 1265.61,-109.5"/>
</g>
<!-- n33 -->
<g id="node34" class="node">
<title>n33</title>
<ellipse fill="#b2dfee" stroke="#b2dfee" cx="1367.67" cy="-90" rx="27" ry="18"/>
<text text-anchor="middle" x="1367.67" y="-87.5" font-family="Helvetica,sans-Serif" font-size="10.00">]</text>
</g>
<!-- n27&#45;&gt;n33 -->
<g id="edge33" class="edge">
<title>n27&#45;&gt;n33</title>
<path fill="none" stroke="black" d="M1172.7,-150.23C1177.54,-147.98 1182.72,-145.77 1187.67,-144 1249.79,-121.81 1269.54,-130.19 1331.67,-108 1333.21,-107.45 1334.78,-106.85 1336.36,-106.22"/>
<polygon fill="black" stroke="black" points="1337.46,-109.56 1345.25,-102.38 1334.68,-103.14 1337.46,-109.56"/>
</g>
<!-- n30 -->
<g id="node31" class="node">
<title>n30</title>
<ellipse fill="#b2dfee" stroke="#b2dfee" cx="1223.67" cy="-18" rx="27" ry="18"/>
<text text-anchor="middle" x="1223.67" y="-15.5" font-family="Helvetica,sans-Serif" font-size="10.00">3</text>
</g>
<!-- n29&#45;&gt;n30 -->
<g id="edge30" class="edge">
<title>n29&#45;&gt;n30</title>
<path fill="none" stroke="black" d="M1223.67,-71.7C1223.67,-64.41 1223.67,-55.73 1223.67,-47.54"/>
<polygon fill="black" stroke="black" points="1227.17,-47.62 1223.67,-37.62 1220.17,-47.62 1227.17,-47.62"/>
</g>
<!-- n32 -->
<g id="node33" class="node">
<title>n32</title>
<ellipse fill="#b2dfee" stroke="#b2dfee" cx="1295.67" cy="-18" rx="27" ry="18"/>
<text text-anchor="middle" x="1295.67" y="-15.5" font-family="Helvetica,sans-Serif" font-size="10.00">4</text>
</g>
<!-- n31&#45;&gt;n32 -->
<g id="edge32" class="edge">
<title>n31&#45;&gt;n32</title>
<path fill="none" stroke="black" d="M1295.67,-71.7C1295.67,-64.41 1295.67,-55.73 1295.67,-47.54"/>
<polygon fill="black" stroke="black" points="1299.17,-47.62 1295.67,-37.62 1292.17,-47.62 1299.17,-47.62"/>
</g>
<!-- n37 -->
<g id="node38" class="node">
<title>n37</title>
<ellipse fill="#b2dfee" stroke="#b2dfee" cx="1367.67" cy="-162" rx="27" ry="18"/>
<text text-anchor="middle" x="1367.67" y="-159.5" font-family="Helvetica,sans-Serif" font-size="10.00">Println</text>
</g>
<!-- n36&#45;&gt;n37 -->
<g id="edge37" class="edge">
<title>n36&#45;&gt;n37</title>
<path fill="none" stroke="black" d="M1477.5,-220.81C1455.59,-209.27 1422.56,-191.89 1398.44,-179.2"/>
<polygon fill="black" stroke="black" points="1400.2,-176.17 1389.72,-174.61 1396.94,-182.36 1400.2,-176.17"/>
</g>
<!-- n38 -->
<g id="node39" class="node">
<title>n38</title>
<ellipse fill="#b2dfee" stroke="#b2dfee" cx="1439.67" cy="-162" rx="27" ry="18"/>
<text text-anchor="middle" x="1439.67" y="-159.5" font-family="Helvetica,sans-Serif" font-size="10.00">(</text>
</g>
<!-- n36&#45;&gt;n38 -->
<g id="edge38" class="edge">
<title>n36&#45;&gt;n38</title>
<path fill="none" stroke="black" d="M1487.13,-217.46C1479.2,-208.37 1469.03,-196.7 1460.14,-186.5"/>
<polygon fill="black" stroke="black" points="1462.95,-184.39 1453.74,-179.15 1457.67,-188.99 1462.95,-184.39"/>
</g>
<!-- n39 -->
<g id="node40" class="node">
<title>n39</title>
<ellipse fill="#b2dfee" stroke="#b2dfee" cx="1561.67" cy="-162" rx="77.23" ry="18"/>
<text text-anchor="middle" x="1561.67" y="-159.5" font-family="Helvetica,sans-Serif" font-size="10.00">RECUPERAR_VARIABLE</text>
</g>
<!-- n36&#45;&gt;n39 -->
<g id="edge39" class="edge">
<title>n36&#45;&gt;n39</title>
<path fill="none" stroke="black" d="M1514.21,-217.46C1521.62,-208.95 1531,-198.19 1539.46,-188.48"/>
<polygon fill="black" stroke="black" points="1541.96,-190.94 1545.89,-181.1 1536.68,-186.34 1541.96,-190.94"/>
</g>
<!-- n41 -->
<g id="node42" class="node">
<title>n41</title>
<ellipse fill="#b2dfee" stroke="#b2dfee" cx="1683.67" cy="-162" rx="27" ry="18"/>
<text text-anchor="middle" x="1683.67" y="-159.5" font-family="Helvetica,sans-Serif" font-size="10.00">)</text>
</g>
<!-- n36&#45;&gt;n41 -->
<g id="edge41" class="edge">
<title>n36&#45;&gt;n41</title>
<path fill="none" stroke="black" d="M1528.33,-223.9C1558.1,-213.91 1606.7,-197.01 1647.67,-180 1649.18,-179.37 1650.73,-178.71 1652.28,-178.03"/>
<polygon fill="black" stroke="black" points="1653.45,-181.35 1661.12,-174.03 1650.57,-174.97 1653.45,-181.35"/>
</g>
<!-- n42 -->
<g id="node43" class="node">
<title>n42</title>
<ellipse fill="#b2dfee" stroke="#b2dfee" cx="1755.67" cy="-162" rx="27" ry="18"/>
<text text-anchor="middle" x="1755.67" y="-159.5" font-family="Helvetica,sans-Serif" font-size="10.00">;</text>
</g>
<!-- n36&#45;&gt;n42 -->
<g id="edge42" class="edge">
<title>n36&#45;&gt;n42</title>
<path fill="none" stroke="black" d="M1531.71,-227.56C1574.68,-219.56 1654.38,-203.05 1719.67,-180 1721.22,-179.45 1722.79,-178.86 1724.36,-178.24"/>
<polygon fill="black" stroke="black" points="1725.46,-181.58 1733.26,-174.4 1722.69,-175.15 1725.46,-181.58"/>
</g>
<!-- n40 -->
<g id="node41" class="node">
<title>n40</title>
<ellipse fill="#b2dfee" stroke="#b2dfee" cx="1561.67" cy="-90" rx="27.84" ry="18"/>
<text text-anchor="middle" x="1561.67" y="-87.5" font-family="Helvetica,sans-Serif" font-size="10.00">vector1</text>
</g>
<!-- n39&#45;&gt;n40 -->
<g id="edge40" class="edge">
<title>n39&#45;&gt;n40</title>
<path fill="none" stroke="black" d="M1561.67,-143.7C1561.67,-136.41 1561.67,-127.73 1561.67,-119.54"/>
<polygon fill="black" stroke="black" points="1565.17,-119.62 1561.67,-109.62 1558.17,-119.62 1565.17,-119.62"/>
</g>
<!-- n44 -->
<g id="node45" class="node">
<title>n44</title>
<ellipse fill="#b2dfee" stroke="#b2dfee" cx="1827.67" cy="-162" rx="27" ry="18"/>
<text text-anchor="middle" x="1827.67" y="-159.5" font-family="Helvetica,sans-Serif" font-size="10.00">Println</text>
</g>
<!-- n43&#45;&gt;n44 -->
<g id="edge44" class="edge">
<title>n43&#45;&gt;n44</title>
<path fill="none" stroke="black" d="M1937.5,-220.81C1915.59,-209.27 1882.56,-191.89 1858.44,-179.2"/>
<polygon fill="black" stroke="black" points="1860.2,-176.17 1849.72,-174.61 1856.94,-182.36 1860.2,-176.17"/>
</g>
<!-- n45 -->
<g id="node46" class="node">
<title>n45</title>
<ellipse fill="#b2dfee" stroke="#b2dfee" cx="1899.67" cy="-162" rx="27" ry="18"/>
<text text-anchor="middle" x="1899.67" y="-159.5" font-family="Helvetica,sans-Serif" font-size="10.00">(</text>
</g>
<!-- n43&#45;&gt;n45 -->
<g id="edge45" class="edge">
<title>n43&#45;&gt;n45</title>
<path fill="none" stroke="black" d="M1947.13,-217.46C1939.2,-208.37 1929.03,-196.7 1920.14,-186.5"/>
<polygon fill="black" stroke="black" points="1922.95,-184.39 1913.74,-179.15 1917.67,-188.99 1922.95,-184.39"/>
</g>
<!-- n46 -->
<g id="node47" class="node">
<title>n46</title>
<ellipse fill="#b2dfee" stroke="#b2dfee" cx="2021.67" cy="-162" rx="77.23" ry="18"/>
<text text-anchor="middle" x="2021.67" y="-159.5" font-family="Helvetica,sans-Serif" font-size="10.00">RECUPERAR_VARIABLE</text>
</g>
<!-- n43&#45;&gt;n46 -->
<g id="edge46" class="edge">
<title>n43&#45;&gt;n46</title>
<path fill="none" stroke="black" d="M1974.21,-217.46C1981.62,-208.95 1991,-198.19 1999.46,-188.48"/>
<polygon fill="black" stroke="black" points="2001.96,-190.94 2005.89,-181.1 1996.68,-186.34 2001.96,-190.94"/>
</g>
<!-- n48 -->
<g id="node49" class="node">
<title>n48</title>
<ellipse fill="#b2dfee" stroke="#b2dfee" cx="2143.67" cy="-162" rx="27" ry="18"/>
<text text-anchor="middle" x="2143.67" y="-159.5" font-family="Helvetica,sans-Serif" font-size="10.00">)</text>
</g>
<!-- n43&#45;&gt;n48 -->
<g id="edge48" class="edge">
<title>n43&#45;&gt;n48</title>
<path fill="none" stroke="black" d="M1988.33,-223.9C2018.1,-213.91 2066.7,-197.01 2107.67,-180 2109.18,-179.37 2110.73,-178.71 2112.28,-178.03"/>
<polygon fill="black" stroke="black" points="2113.45,-181.35 2121.12,-174.03 2110.57,-174.97 2113.45,-181.35"/>
</g>
<!-- n49 -->
<g id="node50" class="node">
<title>n49</title>
<ellipse fill="#b2dfee" stroke="#b2dfee" cx="2215.67" cy="-162" rx="27" ry="18"/>
<text text-anchor="middle" x="2215.67" y="-159.5" font-family="Helvetica,sans-Serif" font-size="10.00">;</text>
</g>
<!-- n43&#45;&gt;n49 -->
<g id="edge49" class="edge">
<title>n43&#45;&gt;n49</title>
<path fill="none" stroke="black" d="M1991.71,-227.56C2034.68,-219.56 2114.38,-203.05 2179.67,-180 2181.22,-179.45 2182.79,-178.86 2184.36,-178.24"/>
<polygon fill="black" stroke="black" points="2185.46,-181.58 2193.26,-174.4 2182.69,-175.15 2185.46,-181.58"/>
</g>
<!-- n47 -->
<g id="node48" class="node">
<title>n47</title>
<ellipse fill="#b2dfee" stroke="#b2dfee" cx="2021.67" cy="-90" rx="27.84" ry="18"/>
<text text-anchor="middle" x="2021.67" y="-87.5" font-family="Helvetica,sans-Serif" font-size="10.00">vector2</text>
</g>
<!-- n46&#45;&gt;n47 -->
<g id="edge47" class="edge">
<title>n46&#45;&gt;n47</title>
<path fill="none" stroke="black" d="M2021.67,-143.7C2021.67,-136.41 2021.67,-127.73 2021.67,-119.54"/>
<polygon fill="black" stroke="black" points="2025.17,-119.62 2021.67,-109.62 2018.17,-119.62 2025.17,-119.62"/>
</g>
</g>
</svg>
