<?xml version="1.0" encoding="UTF-8" standalone="no"?>
<!DOCTYPE svg PUBLIC "-//W3C//DTD SVG 1.1//EN"
 "http://www.w3.org/Graphics/SVG/1.1/DTD/svg11.dtd">
<!-- Generated by graphviz version 7.1.0 (20230121.1956)
 -->
<!-- Title: arbolAST Pages: 1 -->
<svg width="4050pt" height="476pt"
 viewBox="0.00 0.00 4050.00 476.00" xmlns="http://www.w3.org/2000/svg" xmlns:xlink="http://www.w3.org/1999/xlink">
<g id="graph0" class="graph" transform="scale(1 1) rotate(0) translate(4 472)">
<title>arbolAST</title>
<polygon fill="white" stroke="none" points="-4,4 -4,-472 4046,-472 4046,4 -4,4"/>
<!-- n0 -->
<g id="node1" class="node">
<title>n0</title>
<ellipse fill="#b2dfee" stroke="#b2dfee" cx="1689" cy="-450" rx="27" ry="18"/>
<text text-anchor="middle" x="1689" y="-447.5" font-family="Helvetica,sans-Serif" font-size="10.00">INICIO</text>
</g>
<!-- n1 -->
<g id="node2" class="node">
<title>n1</title>
<ellipse fill="#b2dfee" stroke="#b2dfee" cx="1689" cy="-378" rx="55.85" ry="18"/>
<text text-anchor="middle" x="1689" y="-375.5" font-family="Helvetica,sans-Serif" font-size="10.00">INSTRUCCIONES</text>
</g>
<!-- n0&#45;&gt;n1 -->
<g id="edge1" class="edge">
<title>n0&#45;&gt;n1</title>
<path fill="none" stroke="black" d="M1689,-431.7C1689,-424.41 1689,-415.73 1689,-407.54"/>
<polygon fill="black" stroke="black" points="1692.5,-407.62 1689,-397.62 1685.5,-407.62 1692.5,-407.62"/>
</g>
<!-- n2 -->
<g id="node3" class="node">
<title>n2</title>
<ellipse fill="#b2dfee" stroke="#b2dfee" cx="279" cy="-306" rx="85.89" ry="18"/>
<text text-anchor="middle" x="279" y="-303.5" font-family="Helvetica,sans-Serif" font-size="10.00">DECLARACION_VARIABLES</text>
</g>
<!-- n1&#45;&gt;n2 -->
<g id="edge2" class="edge">
<title>n1&#45;&gt;n2</title>
<path fill="none" stroke="black" d="M1634.16,-374.28C1420.72,-363.68 643.93,-325.12 373,-311.67"/>
<polygon fill="black" stroke="black" points="373.31,-308.18 363.15,-311.18 372.96,-315.17 373.31,-308.18"/>
</g>
<!-- n11 -->
<g id="node12" class="node">
<title>n11</title>
<ellipse fill="#b2dfee" stroke="#b2dfee" cx="786" cy="-306" rx="32.93" ry="18"/>
<text text-anchor="middle" x="786" y="-303.5" font-family="Helvetica,sans-Serif" font-size="10.00">PRINTLN</text>
</g>
<!-- n1&#45;&gt;n11 -->
<g id="edge11" class="edge">
<title>n1&#45;&gt;n11</title>
<path fill="none" stroke="black" d="M1635.22,-372.83C1471.27,-360.12 979.83,-322.03 829.91,-310.4"/>
<polygon fill="black" stroke="black" points="830.24,-306.92 820,-309.64 829.7,-313.9 830.24,-306.92"/>
</g>
<!-- n18 -->
<g id="node19" class="node">
<title>n18</title>
<ellipse fill="#b2dfee" stroke="#b2dfee" cx="1243" cy="-306" rx="85.89" ry="18"/>
<text text-anchor="middle" x="1243" y="-303.5" font-family="Helvetica,sans-Serif" font-size="10.00">DECLARACION_VARIABLES</text>
</g>
<!-- n1&#45;&gt;n18 -->
<g id="edge18" class="edge">
<title>n1&#45;&gt;n18</title>
<path fill="none" stroke="black" d="M1639.57,-369.24C1562.49,-357.14 1413.03,-333.69 1321.23,-319.28"/>
<polygon fill="black" stroke="black" points="1321.97,-315.85 1311.54,-317.76 1320.88,-322.77 1321.97,-315.85"/>
</g>
<!-- n27 -->
<g id="node28" class="node">
<title>n27</title>
<ellipse fill="#b2dfee" stroke="#b2dfee" cx="1689" cy="-306" rx="32.93" ry="18"/>
<text text-anchor="middle" x="1689" y="-303.5" font-family="Helvetica,sans-Serif" font-size="10.00">PRINTLN</text>
</g>
<!-- n1&#45;&gt;n27 -->
<g id="edge27" class="edge">
<title>n1&#45;&gt;n27</title>
<path fill="none" stroke="black" d="M1689,-359.7C1689,-352.41 1689,-343.73 1689,-335.54"/>
<polygon fill="black" stroke="black" points="1692.5,-335.62 1689,-325.62 1685.5,-335.62 1692.5,-335.62"/>
</g>
<!-- n34 -->
<g id="node35" class="node">
<title>n34</title>
<ellipse fill="#b2dfee" stroke="#b2dfee" cx="2138" cy="-306" rx="85.89" ry="18"/>
<text text-anchor="middle" x="2138" y="-303.5" font-family="Helvetica,sans-Serif" font-size="10.00">DECLARACION_VARIABLES</text>
</g>
<!-- n1&#45;&gt;n34 -->
<g id="edge34" class="edge">
<title>n1&#45;&gt;n34</title>
<path fill="none" stroke="black" d="M1738.34,-369.31C1815.86,-357.22 1966.89,-333.68 2059.47,-319.24"/>
<polygon fill="black" stroke="black" points="2059.9,-322.72 2069.24,-317.72 2058.82,-315.8 2059.9,-322.72"/>
</g>
<!-- n43 -->
<g id="node44" class="node">
<title>n43</title>
<ellipse fill="#b2dfee" stroke="#b2dfee" cx="2616" cy="-306" rx="32.93" ry="18"/>
<text text-anchor="middle" x="2616" y="-303.5" font-family="Helvetica,sans-Serif" font-size="10.00">PRINTLN</text>
</g>
<!-- n1&#45;&gt;n43 -->
<g id="edge43" class="edge">
<title>n1&#45;&gt;n43</title>
<path fill="none" stroke="black" d="M1742.85,-372.93C1910.25,-360.29 2419.47,-321.84 2572.23,-310.31"/>
<polygon fill="black" stroke="black" points="2572.21,-313.82 2581.92,-309.57 2571.68,-306.84 2572.21,-313.82"/>
</g>
<!-- n50 -->
<g id="node51" class="node">
<title>n50</title>
<ellipse fill="#b2dfee" stroke="#b2dfee" cx="3150" cy="-306" rx="27" ry="18"/>
<text text-anchor="middle" x="3150" y="-303.5" font-family="Helvetica,sans-Serif" font-size="10.00">IF</text>
</g>
<!-- n1&#45;&gt;n50 -->
<g id="edge50" class="edge">
<title>n1&#45;&gt;n50</title>
<path fill="none" stroke="black" d="M1744.05,-374.36C1980.84,-363.02 2909.84,-318.51 3111.32,-308.85"/>
<polygon fill="black" stroke="black" points="3111.41,-312.35 3121.23,-308.38 3111.07,-305.36 3111.41,-312.35"/>
</g>
<!-- n3 -->
<g id="node4" class="node">
<title>n3</title>
<ellipse fill="#b2dfee" stroke="#b2dfee" cx="27" cy="-234" rx="27" ry="18"/>
<text text-anchor="middle" x="27" y="-231.5" font-family="Helvetica,sans-Serif" font-size="10.00">var</text>
</g>
<!-- n2&#45;&gt;n3 -->
<g id="edge3" class="edge">
<title>n2&#45;&gt;n3</title>
<path fill="none" stroke="black" d="M217.05,-293.25C173.34,-284.13 113.76,-270.01 63,-252 61.45,-251.45 59.88,-250.86 58.31,-250.23"/>
<polygon fill="black" stroke="black" points="59.98,-247.14 49.41,-246.39 57.2,-253.57 59.98,-247.14"/>
</g>
<!-- n4 -->
<g id="node5" class="node">
<title>n4</title>
<ellipse fill="#b2dfee" stroke="#b2dfee" cx="99" cy="-234" rx="27" ry="18"/>
<text text-anchor="middle" x="99" y="-231.5" font-family="Helvetica,sans-Serif" font-size="10.00">a</text>
</g>
<!-- n2&#45;&gt;n4 -->
<g id="edge4" class="edge">
<title>n2&#45;&gt;n4</title>
<path fill="none" stroke="black" d="M235.45,-290.1C206.68,-279.98 168.29,-265.95 135,-252 133.49,-251.37 131.94,-250.7 130.39,-250.02"/>
<polygon fill="black" stroke="black" points="132.11,-246.96 121.56,-246.01 129.21,-253.33 132.11,-246.96"/>
</g>
<!-- n5 -->
<g id="node6" class="node">
<title>n5</title>
<ellipse fill="#b2dfee" stroke="#b2dfee" cx="171" cy="-234" rx="27" ry="18"/>
<text text-anchor="middle" x="171" y="-231.5" font-family="Helvetica,sans-Serif" font-size="10.00">:</text>
</g>
<!-- n2&#45;&gt;n5 -->
<g id="edge5" class="edge">
<title>n2&#45;&gt;n5</title>
<path fill="none" stroke="black" d="M253.41,-288.41C237.14,-277.87 216.06,-264.21 199.29,-253.34"/>
<polygon fill="black" stroke="black" points="201.56,-250.63 191.26,-248.13 197.75,-256.51 201.56,-250.63"/>
</g>
<!-- n6 -->
<g id="node7" class="node">
<title>n6</title>
<ellipse fill="#b2dfee" stroke="#b2dfee" cx="243" cy="-234" rx="27" ry="18"/>
<text text-anchor="middle" x="243" y="-231.5" font-family="Helvetica,sans-Serif" font-size="10.00">INT</text>
</g>
<!-- n2&#45;&gt;n6 -->
<g id="edge6" class="edge">
<title>n2&#45;&gt;n6</title>
<path fill="none" stroke="black" d="M270.1,-287.7C266.02,-279.75 261.08,-270.16 256.55,-261.34"/>
<polygon fill="black" stroke="black" points="259.68,-259.78 252,-252.49 253.46,-262.98 259.68,-259.78"/>
</g>
<!-- n7 -->
<g id="node8" class="node">
<title>n7</title>
<ellipse fill="#b2dfee" stroke="#b2dfee" cx="315" cy="-234" rx="27" ry="18"/>
<text text-anchor="middle" x="315" y="-231.5" font-family="Helvetica,sans-Serif" font-size="10.00">=</text>
</g>
<!-- n2&#45;&gt;n7 -->
<g id="edge7" class="edge">
<title>n2&#45;&gt;n7</title>
<path fill="none" stroke="black" d="M287.9,-287.7C291.98,-279.75 296.92,-270.16 301.45,-261.34"/>
<polygon fill="black" stroke="black" points="304.54,-262.98 306,-252.49 298.32,-259.78 304.54,-262.98"/>
</g>
<!-- n8 -->
<g id="node9" class="node">
<title>n8</title>
<ellipse fill="#b2dfee" stroke="#b2dfee" cx="387" cy="-234" rx="27" ry="18"/>
<text text-anchor="middle" x="387" y="-231.5" font-family="Helvetica,sans-Serif" font-size="10.00">INT</text>
</g>
<!-- n2&#45;&gt;n8 -->
<g id="edge8" class="edge">
<title>n2&#45;&gt;n8</title>
<path fill="none" stroke="black" d="M304.59,-288.41C320.86,-277.87 341.94,-264.21 358.71,-253.34"/>
<polygon fill="black" stroke="black" points="360.25,-256.51 366.74,-248.13 356.44,-250.63 360.25,-256.51"/>
</g>
<!-- n10 -->
<g id="node11" class="node">
<title>n10</title>
<ellipse fill="#b2dfee" stroke="#b2dfee" cx="459" cy="-234" rx="27" ry="18"/>
<text text-anchor="middle" x="459" y="-231.5" font-family="Helvetica,sans-Serif" font-size="10.00">;</text>
</g>
<!-- n2&#45;&gt;n10 -->
<g id="edge10" class="edge">
<title>n2&#45;&gt;n10</title>
<path fill="none" stroke="black" d="M322.55,-290.1C351.32,-279.98 389.71,-265.95 423,-252 424.51,-251.37 426.06,-250.7 427.61,-250.02"/>
<polygon fill="black" stroke="black" points="428.79,-253.33 436.44,-246.01 425.89,-246.96 428.79,-253.33"/>
</g>
<!-- n9 -->
<g id="node10" class="node">
<title>n9</title>
<ellipse fill="#b2dfee" stroke="#b2dfee" cx="387" cy="-162" rx="27" ry="18"/>
<text text-anchor="middle" x="387" y="-159.5" font-family="Helvetica,sans-Serif" font-size="10.00">1</text>
</g>
<!-- n8&#45;&gt;n9 -->
<g id="edge9" class="edge">
<title>n8&#45;&gt;n9</title>
<path fill="none" stroke="black" d="M387,-215.7C387,-208.41 387,-199.73 387,-191.54"/>
<polygon fill="black" stroke="black" points="390.5,-191.62 387,-181.62 383.5,-191.62 390.5,-191.62"/>
</g>
<!-- n12 -->
<g id="node13" class="node">
<title>n12</title>
<ellipse fill="#b2dfee" stroke="#b2dfee" cx="531" cy="-234" rx="27" ry="18"/>
<text text-anchor="middle" x="531" y="-231.5" font-family="Helvetica,sans-Serif" font-size="10.00">Println</text>
</g>
<!-- n11&#45;&gt;n12 -->
<g id="edge12" class="edge">
<title>n11&#45;&gt;n12</title>
<path fill="none" stroke="black" d="M754.96,-299.56C711.99,-291.56 632.29,-275.05 567,-252 565.45,-251.45 563.88,-250.86 562.31,-250.24"/>
<polygon fill="black" stroke="black" points="563.98,-247.15 553.41,-246.4 561.2,-253.58 563.98,-247.15"/>
</g>
<!-- n13 -->
<g id="node14" class="node">
<title>n13</title>
<ellipse fill="#b2dfee" stroke="#b2dfee" cx="603" cy="-234" rx="27" ry="18"/>
<text text-anchor="middle" x="603" y="-231.5" font-family="Helvetica,sans-Serif" font-size="10.00">(</text>
</g>
<!-- n11&#45;&gt;n13 -->
<g id="edge13" class="edge">
<title>n11&#45;&gt;n13</title>
<path fill="none" stroke="black" d="M758.34,-295.9C728.56,-285.91 679.96,-269.01 639,-252 637.48,-251.37 635.94,-250.71 634.38,-250.03"/>
<polygon fill="black" stroke="black" points="636.1,-246.97 625.55,-246.03 633.21,-253.35 636.1,-246.97"/>
</g>
<!-- n14 -->
<g id="node15" class="node">
<title>n14</title>
<ellipse fill="#b2dfee" stroke="#b2dfee" cx="725" cy="-234" rx="77.23" ry="18"/>
<text text-anchor="middle" x="725" y="-231.5" font-family="Helvetica,sans-Serif" font-size="10.00">RECUPERAR_VARIABLE</text>
</g>
<!-- n11&#45;&gt;n14 -->
<g id="edge14" class="edge">
<title>n11&#45;&gt;n14</title>
<path fill="none" stroke="black" d="M772.46,-289.46C765.05,-280.95 755.67,-270.19 747.21,-260.48"/>
<polygon fill="black" stroke="black" points="749.98,-258.34 740.78,-253.1 744.71,-262.94 749.98,-258.34"/>
</g>
<!-- n16 -->
<g id="node17" class="node">
<title>n16</title>
<ellipse fill="#b2dfee" stroke="#b2dfee" cx="847" cy="-234" rx="27" ry="18"/>
<text text-anchor="middle" x="847" y="-231.5" font-family="Helvetica,sans-Serif" font-size="10.00">)</text>
</g>
<!-- n11&#45;&gt;n16 -->
<g id="edge16" class="edge">
<title>n11&#45;&gt;n16</title>
<path fill="none" stroke="black" d="M799.54,-289.46C807.46,-280.37 817.63,-268.7 826.52,-258.5"/>
<polygon fill="black" stroke="black" points="828.99,-260.99 832.92,-251.15 823.72,-256.39 828.99,-260.99"/>
</g>
<!-- n17 -->
<g id="node18" class="node">
<title>n17</title>
<ellipse fill="#b2dfee" stroke="#b2dfee" cx="919" cy="-234" rx="27" ry="18"/>
<text text-anchor="middle" x="919" y="-231.5" font-family="Helvetica,sans-Serif" font-size="10.00">;</text>
</g>
<!-- n11&#45;&gt;n17 -->
<g id="edge17" class="edge">
<title>n11&#45;&gt;n17</title>
<path fill="none" stroke="black" d="M809.17,-292.81C831.08,-281.27 864.11,-263.89 888.23,-251.2"/>
<polygon fill="black" stroke="black" points="889.72,-254.36 896.94,-246.61 886.46,-248.17 889.72,-254.36"/>
</g>
<!-- n15 -->
<g id="node16" class="node">
<title>n15</title>
<ellipse fill="#b2dfee" stroke="#b2dfee" cx="725" cy="-162" rx="27" ry="18"/>
<text text-anchor="middle" x="725" y="-159.5" font-family="Helvetica,sans-Serif" font-size="10.00">a</text>
</g>
<!-- n14&#45;&gt;n15 -->
<g id="edge15" class="edge">
<title>n14&#45;&gt;n15</title>
<path fill="none" stroke="black" d="M725,-215.7C725,-208.41 725,-199.73 725,-191.54"/>
<polygon fill="black" stroke="black" points="728.5,-191.62 725,-181.62 721.5,-191.62 728.5,-191.62"/>
</g>
<!-- n19 -->
<g id="node20" class="node">
<title>n19</title>
<ellipse fill="#b2dfee" stroke="#b2dfee" cx="991" cy="-234" rx="27" ry="18"/>
<text text-anchor="middle" x="991" y="-231.5" font-family="Helvetica,sans-Serif" font-size="10.00">const</text>
</g>
<!-- n18&#45;&gt;n19 -->
<g id="edge19" class="edge">
<title>n18&#45;&gt;n19</title>
<path fill="none" stroke="black" d="M1181.05,-293.25C1137.34,-284.13 1077.76,-270.01 1027,-252 1025.45,-251.45 1023.88,-250.86 1022.31,-250.23"/>
<polygon fill="black" stroke="black" points="1023.98,-247.14 1013.41,-246.39 1021.2,-253.57 1023.98,-247.14"/>
</g>
<!-- n20 -->
<g id="node21" class="node">
<title>n20</title>
<ellipse fill="#b2dfee" stroke="#b2dfee" cx="1063" cy="-234" rx="27" ry="18"/>
<text text-anchor="middle" x="1063" y="-231.5" font-family="Helvetica,sans-Serif" font-size="10.00">b</text>
</g>
<!-- n18&#45;&gt;n20 -->
<g id="edge20" class="edge">
<title>n18&#45;&gt;n20</title>
<path fill="none" stroke="black" d="M1199.45,-290.1C1170.68,-279.98 1132.29,-265.95 1099,-252 1097.49,-251.37 1095.94,-250.7 1094.39,-250.02"/>
<polygon fill="black" stroke="black" points="1096.11,-246.96 1085.56,-246.01 1093.21,-253.33 1096.11,-246.96"/>
</g>
<!-- n21 -->
<g id="node22" class="node">
<title>n21</title>
<ellipse fill="#b2dfee" stroke="#b2dfee" cx="1135" cy="-234" rx="27" ry="18"/>
<text text-anchor="middle" x="1135" y="-231.5" font-family="Helvetica,sans-Serif" font-size="10.00">:</text>
</g>
<!-- n18&#45;&gt;n21 -->
<g id="edge21" class="edge">
<title>n18&#45;&gt;n21</title>
<path fill="none" stroke="black" d="M1217.41,-288.41C1201.14,-277.87 1180.06,-264.21 1163.29,-253.34"/>
<polygon fill="black" stroke="black" points="1165.56,-250.63 1155.26,-248.13 1161.75,-256.51 1165.56,-250.63"/>
</g>
<!-- n22 -->
<g id="node23" class="node">
<title>n22</title>
<ellipse fill="#b2dfee" stroke="#b2dfee" cx="1207" cy="-234" rx="27" ry="18"/>
<text text-anchor="middle" x="1207" y="-231.5" font-family="Helvetica,sans-Serif" font-size="10.00">INT</text>
</g>
<!-- n18&#45;&gt;n22 -->
<g id="edge22" class="edge">
<title>n18&#45;&gt;n22</title>
<path fill="none" stroke="black" d="M1234.1,-287.7C1230.02,-279.75 1225.08,-270.16 1220.55,-261.34"/>
<polygon fill="black" stroke="black" points="1223.68,-259.78 1216,-252.49 1217.46,-262.98 1223.68,-259.78"/>
</g>
<!-- n23 -->
<g id="node24" class="node">
<title>n23</title>
<ellipse fill="#b2dfee" stroke="#b2dfee" cx="1279" cy="-234" rx="27" ry="18"/>
<text text-anchor="middle" x="1279" y="-231.5" font-family="Helvetica,sans-Serif" font-size="10.00">=</text>
</g>
<!-- n18&#45;&gt;n23 -->
<g id="edge23" class="edge">
<title>n18&#45;&gt;n23</title>
<path fill="none" stroke="black" d="M1251.9,-287.7C1255.98,-279.75 1260.92,-270.16 1265.45,-261.34"/>
<polygon fill="black" stroke="black" points="1268.54,-262.98 1270,-252.49 1262.32,-259.78 1268.54,-262.98"/>
</g>
<!-- n24 -->
<g id="node25" class="node">
<title>n24</title>
<ellipse fill="#b2dfee" stroke="#b2dfee" cx="1351" cy="-234" rx="27" ry="18"/>
<text text-anchor="middle" x="1351" y="-231.5" font-family="Helvetica,sans-Serif" font-size="10.00">INT</text>
</g>
<!-- n18&#45;&gt;n24 -->
<g id="edge24" class="edge">
<title>n18&#45;&gt;n24</title>
<path fill="none" stroke="black" d="M1268.59,-288.41C1284.86,-277.87 1305.94,-264.21 1322.71,-253.34"/>
<polygon fill="black" stroke="black" points="1324.25,-256.51 1330.74,-248.13 1320.44,-250.63 1324.25,-256.51"/>
</g>
<!-- n26 -->
<g id="node27" class="node">
<title>n26</title>
<ellipse fill="#b2dfee" stroke="#b2dfee" cx="1423" cy="-234" rx="27" ry="18"/>
<text text-anchor="middle" x="1423" y="-231.5" font-family="Helvetica,sans-Serif" font-size="10.00">;</text>
</g>
<!-- n18&#45;&gt;n26 -->
<g id="edge26" class="edge">
<title>n18&#45;&gt;n26</title>
<path fill="none" stroke="black" d="M1286.55,-290.1C1315.32,-279.98 1353.71,-265.95 1387,-252 1388.51,-251.37 1390.06,-250.7 1391.61,-250.02"/>
<polygon fill="black" stroke="black" points="1392.79,-253.33 1400.44,-246.01 1389.89,-246.96 1392.79,-253.33"/>
</g>
<!-- n25 -->
<g id="node26" class="node">
<title>n25</title>
<ellipse fill="#b2dfee" stroke="#b2dfee" cx="1351" cy="-162" rx="27" ry="18"/>
<text text-anchor="middle" x="1351" y="-159.5" font-family="Helvetica,sans-Serif" font-size="10.00">2</text>
</g>
<!-- n24&#45;&gt;n25 -->
<g id="edge25" class="edge">
<title>n24&#45;&gt;n25</title>
<path fill="none" stroke="black" d="M1351,-215.7C1351,-208.41 1351,-199.73 1351,-191.54"/>
<polygon fill="black" stroke="black" points="1354.5,-191.62 1351,-181.62 1347.5,-191.62 1354.5,-191.62"/>
</g>
<!-- n28 -->
<g id="node29" class="node">
<title>n28</title>
<ellipse fill="#b2dfee" stroke="#b2dfee" cx="1495" cy="-234" rx="27" ry="18"/>
<text text-anchor="middle" x="1495" y="-231.5" font-family="Helvetica,sans-Serif" font-size="10.00">Println</text>
</g>
<!-- n27&#45;&gt;n28 -->
<g id="edge28" class="edge">
<title>n27&#45;&gt;n28</title>
<path fill="none" stroke="black" d="M1660.38,-296.51C1628.44,-286.78 1575.42,-269.87 1531,-252 1529.48,-251.39 1527.93,-250.74 1526.37,-250.08"/>
<polygon fill="black" stroke="black" points="1528.07,-247.01 1517.52,-246.11 1525.21,-253.39 1528.07,-247.01"/>
</g>
<!-- n29 -->
<g id="node30" class="node">
<title>n29</title>
<ellipse fill="#b2dfee" stroke="#b2dfee" cx="1567" cy="-234" rx="27" ry="18"/>
<text text-anchor="middle" x="1567" y="-231.5" font-family="Helvetica,sans-Serif" font-size="10.00">(</text>
</g>
<!-- n27&#45;&gt;n29 -->
<g id="edge29" class="edge">
<title>n27&#45;&gt;n29</title>
<path fill="none" stroke="black" d="M1666.91,-292.32C1647.32,-281.08 1618.53,-264.57 1596.89,-252.15"/>
<polygon fill="black" stroke="black" points="1598.64,-249.12 1588.22,-247.18 1595.15,-255.19 1598.64,-249.12"/>
</g>
<!-- n30 -->
<g id="node31" class="node">
<title>n30</title>
<ellipse fill="#b2dfee" stroke="#b2dfee" cx="1689" cy="-234" rx="77.23" ry="18"/>
<text text-anchor="middle" x="1689" y="-231.5" font-family="Helvetica,sans-Serif" font-size="10.00">RECUPERAR_VARIABLE</text>
</g>
<!-- n27&#45;&gt;n30 -->
<g id="edge30" class="edge">
<title>n27&#45;&gt;n30</title>
<path fill="none" stroke="black" d="M1689,-287.7C1689,-280.41 1689,-271.73 1689,-263.54"/>
<polygon fill="black" stroke="black" points="1692.5,-263.62 1689,-253.62 1685.5,-263.62 1692.5,-263.62"/>
</g>
<!-- n32 -->
<g id="node33" class="node">
<title>n32</title>
<ellipse fill="#b2dfee" stroke="#b2dfee" cx="1811" cy="-234" rx="27" ry="18"/>
<text text-anchor="middle" x="1811" y="-231.5" font-family="Helvetica,sans-Serif" font-size="10.00">)</text>
</g>
<!-- n27&#45;&gt;n32 -->
<g id="edge32" class="edge">
<title>n27&#45;&gt;n32</title>
<path fill="none" stroke="black" d="M1711.09,-292.32C1730.68,-281.08 1759.47,-264.57 1781.11,-252.15"/>
<polygon fill="black" stroke="black" points="1782.85,-255.19 1789.78,-247.18 1779.36,-249.12 1782.85,-255.19"/>
</g>
<!-- n33 -->
<g id="node34" class="node">
<title>n33</title>
<ellipse fill="#b2dfee" stroke="#b2dfee" cx="1883" cy="-234" rx="27" ry="18"/>
<text text-anchor="middle" x="1883" y="-231.5" font-family="Helvetica,sans-Serif" font-size="10.00">;</text>
</g>
<!-- n27&#45;&gt;n33 -->
<g id="edge33" class="edge">
<title>n27&#45;&gt;n33</title>
<path fill="none" stroke="black" d="M1717.62,-296.51C1749.56,-286.78 1802.58,-269.87 1847,-252 1848.52,-251.39 1850.07,-250.74 1851.63,-250.08"/>
<polygon fill="black" stroke="black" points="1852.79,-253.39 1860.48,-246.11 1849.93,-247.01 1852.79,-253.39"/>
</g>
<!-- n31 -->
<g id="node32" class="node">
<title>n31</title>
<ellipse fill="#b2dfee" stroke="#b2dfee" cx="1689" cy="-162" rx="27" ry="18"/>
<text text-anchor="middle" x="1689" y="-159.5" font-family="Helvetica,sans-Serif" font-size="10.00">b</text>
</g>
<!-- n30&#45;&gt;n31 -->
<g id="edge31" class="edge">
<title>n30&#45;&gt;n31</title>
<path fill="none" stroke="black" d="M1689,-215.7C1689,-208.41 1689,-199.73 1689,-191.54"/>
<polygon fill="black" stroke="black" points="1692.5,-191.62 1689,-181.62 1685.5,-191.62 1692.5,-191.62"/>
</g>
<!-- n35 -->
<g id="node36" class="node">
<title>n35</title>
<ellipse fill="#b2dfee" stroke="#b2dfee" cx="1955" cy="-234" rx="27" ry="18"/>
<text text-anchor="middle" x="1955" y="-231.5" font-family="Helvetica,sans-Serif" font-size="10.00">var</text>
</g>
<!-- n34&#45;&gt;n35 -->
<g id="edge35" class="edge">
<title>n34&#45;&gt;n35</title>
<path fill="none" stroke="black" d="M2093.52,-290.2C2064.14,-280.12 2024.95,-266.1 1991,-252 1989.48,-251.37 1987.94,-250.71 1986.38,-250.03"/>
<polygon fill="black" stroke="black" points="1988.1,-246.97 1977.55,-246.03 1985.21,-253.35 1988.1,-246.97"/>
</g>
<!-- n36 -->
<g id="node37" class="node">
<title>n36</title>
<ellipse fill="#b2dfee" stroke="#b2dfee" cx="2027" cy="-234" rx="27" ry="18"/>
<text text-anchor="middle" x="2027" y="-231.5" font-family="Helvetica,sans-Serif" font-size="10.00">c</text>
</g>
<!-- n34&#45;&gt;n36 -->
<g id="edge36" class="edge">
<title>n34&#45;&gt;n36</title>
<path fill="none" stroke="black" d="M2111.69,-288.41C2094.87,-277.8 2073.03,-264.03 2055.75,-253.13"/>
<polygon fill="black" stroke="black" points="2057.78,-250.27 2047.45,-247.9 2054.04,-256.19 2057.78,-250.27"/>
</g>
<!-- n37 -->
<g id="node38" class="node">
<title>n37</title>
<ellipse fill="#b2dfee" stroke="#b2dfee" cx="2099" cy="-234" rx="27" ry="18"/>
<text text-anchor="middle" x="2099" y="-231.5" font-family="Helvetica,sans-Serif" font-size="10.00">:</text>
</g>
<!-- n34&#45;&gt;n37 -->
<g id="edge37" class="edge">
<title>n34&#45;&gt;n37</title>
<path fill="none" stroke="black" d="M2128.36,-287.7C2123.88,-279.67 2118.47,-269.95 2113.52,-261.05"/>
<polygon fill="black" stroke="black" points="2116.66,-259.5 2108.73,-252.47 2110.54,-262.91 2116.66,-259.5"/>
</g>
<!-- n38 -->
<g id="node39" class="node">
<title>n38</title>
<ellipse fill="#b2dfee" stroke="#b2dfee" cx="2177" cy="-234" rx="32.93" ry="18"/>
<text text-anchor="middle" x="2177" y="-231.5" font-family="Helvetica,sans-Serif" font-size="10.00">DOUBLE</text>
</g>
<!-- n34&#45;&gt;n38 -->
<g id="edge38" class="edge">
<title>n34&#45;&gt;n38</title>
<path fill="none" stroke="black" d="M2147.64,-287.7C2152.05,-279.78 2157.37,-270.23 2162.27,-261.44"/>
<polygon fill="black" stroke="black" points="2165.19,-263.38 2167,-252.94 2159.08,-259.98 2165.19,-263.38"/>
</g>
<!-- n39 -->
<g id="node40" class="node">
<title>n39</title>
<ellipse fill="#b2dfee" stroke="#b2dfee" cx="2255" cy="-234" rx="27" ry="18"/>
<text text-anchor="middle" x="2255" y="-231.5" font-family="Helvetica,sans-Serif" font-size="10.00">=</text>
</g>
<!-- n34&#45;&gt;n39 -->
<g id="edge39" class="edge">
<title>n34&#45;&gt;n39</title>
<path fill="none" stroke="black" d="M2165.43,-288.59C2183.55,-277.75 2207.28,-263.55 2225.76,-252.49"/>
<polygon fill="black" stroke="black" points="2227.33,-255.63 2234.12,-247.49 2223.74,-249.62 2227.33,-255.63"/>
</g>
<!-- n40 -->
<g id="node41" class="node">
<title>n40</title>
<ellipse fill="#b2dfee" stroke="#b2dfee" cx="2333" cy="-234" rx="32.93" ry="18"/>
<text text-anchor="middle" x="2333" y="-231.5" font-family="Helvetica,sans-Serif" font-size="10.00">DOUBLE</text>
</g>
<!-- n34&#45;&gt;n40 -->
<g id="edge40" class="edge">
<title>n34&#45;&gt;n40</title>
<path fill="none" stroke="black" d="M2182.74,-290.18C2213.36,-279.86 2254.81,-265.58 2291,-252 2292.91,-251.28 2294.86,-250.54 2296.82,-249.78"/>
<polygon fill="black" stroke="black" points="2297.89,-253.12 2305.91,-246.19 2295.32,-246.61 2297.89,-253.12"/>
</g>
<!-- n42 -->
<g id="node43" class="node">
<title>n42</title>
<ellipse fill="#b2dfee" stroke="#b2dfee" cx="2411" cy="-234" rx="27" ry="18"/>
<text text-anchor="middle" x="2411" y="-231.5" font-family="Helvetica,sans-Serif" font-size="10.00">;</text>
</g>
<!-- n34&#45;&gt;n42 -->
<g id="edge42" class="edge">
<title>n34&#45;&gt;n42</title>
<path fill="none" stroke="black" d="M2204.47,-294.21C2252.59,-285.42 2318.77,-271.3 2375,-252 2376.55,-251.47 2378.13,-250.89 2379.71,-250.27"/>
<polygon fill="black" stroke="black" points="2380.8,-253.61 2388.61,-246.46 2378.04,-247.18 2380.8,-253.61"/>
</g>
<!-- n41 -->
<g id="node42" class="node">
<title>n41</title>
<ellipse fill="#b2dfee" stroke="#b2dfee" cx="2333" cy="-162" rx="27" ry="18"/>
<text text-anchor="middle" x="2333" y="-159.5" font-family="Helvetica,sans-Serif" font-size="10.00">3.1</text>
</g>
<!-- n40&#45;&gt;n41 -->
<g id="edge41" class="edge">
<title>n40&#45;&gt;n41</title>
<path fill="none" stroke="black" d="M2333,-215.7C2333,-208.41 2333,-199.73 2333,-191.54"/>
<polygon fill="black" stroke="black" points="2336.5,-191.62 2333,-181.62 2329.5,-191.62 2336.5,-191.62"/>
</g>
<!-- n44 -->
<g id="node45" class="node">
<title>n44</title>
<ellipse fill="#b2dfee" stroke="#b2dfee" cx="2483" cy="-234" rx="27" ry="18"/>
<text text-anchor="middle" x="2483" y="-231.5" font-family="Helvetica,sans-Serif" font-size="10.00">Println</text>
</g>
<!-- n43&#45;&gt;n44 -->
<g id="edge44" class="edge">
<title>n43&#45;&gt;n44</title>
<path fill="none" stroke="black" d="M2592.83,-292.81C2570.92,-281.27 2537.89,-263.89 2513.77,-251.2"/>
<polygon fill="black" stroke="black" points="2515.54,-248.17 2505.06,-246.61 2512.28,-254.36 2515.54,-248.17"/>
</g>
<!-- n45 -->
<g id="node46" class="node">
<title>n45</title>
<ellipse fill="#b2dfee" stroke="#b2dfee" cx="2555" cy="-234" rx="27" ry="18"/>
<text text-anchor="middle" x="2555" y="-231.5" font-family="Helvetica,sans-Serif" font-size="10.00">(</text>
</g>
<!-- n43&#45;&gt;n45 -->
<g id="edge45" class="edge">
<title>n43&#45;&gt;n45</title>
<path fill="none" stroke="black" d="M2602.46,-289.46C2594.54,-280.37 2584.37,-268.7 2575.48,-258.5"/>
<polygon fill="black" stroke="black" points="2578.28,-256.39 2569.08,-251.15 2573.01,-260.99 2578.28,-256.39"/>
</g>
<!-- n46 -->
<g id="node47" class="node">
<title>n46</title>
<ellipse fill="#b2dfee" stroke="#b2dfee" cx="2677" cy="-234" rx="77.23" ry="18"/>
<text text-anchor="middle" x="2677" y="-231.5" font-family="Helvetica,sans-Serif" font-size="10.00">RECUPERAR_VARIABLE</text>
</g>
<!-- n43&#45;&gt;n46 -->
<g id="edge46" class="edge">
<title>n43&#45;&gt;n46</title>
<path fill="none" stroke="black" d="M2629.54,-289.46C2636.95,-280.95 2646.33,-270.19 2654.79,-260.48"/>
<polygon fill="black" stroke="black" points="2657.29,-262.94 2661.22,-253.1 2652.02,-258.34 2657.29,-262.94"/>
</g>
<!-- n48 -->
<g id="node49" class="node">
<title>n48</title>
<ellipse fill="#b2dfee" stroke="#b2dfee" cx="2799" cy="-234" rx="27" ry="18"/>
<text text-anchor="middle" x="2799" y="-231.5" font-family="Helvetica,sans-Serif" font-size="10.00">)</text>
</g>
<!-- n43&#45;&gt;n48 -->
<g id="edge48" class="edge">
<title>n43&#45;&gt;n48</title>
<path fill="none" stroke="black" d="M2643.66,-295.9C2673.44,-285.91 2722.04,-269.01 2763,-252 2764.52,-251.37 2766.06,-250.71 2767.62,-250.03"/>
<polygon fill="black" stroke="black" points="2768.79,-253.35 2776.45,-246.03 2765.9,-246.97 2768.79,-253.35"/>
</g>
<!-- n49 -->
<g id="node50" class="node">
<title>n49</title>
<ellipse fill="#b2dfee" stroke="#b2dfee" cx="2871" cy="-234" rx="27" ry="18"/>
<text text-anchor="middle" x="2871" y="-231.5" font-family="Helvetica,sans-Serif" font-size="10.00">;</text>
</g>
<!-- n43&#45;&gt;n49 -->
<g id="edge49" class="edge">
<title>n43&#45;&gt;n49</title>
<path fill="none" stroke="black" d="M2647.04,-299.56C2690.01,-291.56 2769.71,-275.05 2835,-252 2836.55,-251.45 2838.12,-250.86 2839.69,-250.24"/>
<polygon fill="black" stroke="black" points="2840.8,-253.58 2848.59,-246.4 2838.02,-247.15 2840.8,-253.58"/>
</g>
<!-- n47 -->
<g id="node48" class="node">
<title>n47</title>
<ellipse fill="#b2dfee" stroke="#b2dfee" cx="2677" cy="-162" rx="27" ry="18"/>
<text text-anchor="middle" x="2677" y="-159.5" font-family="Helvetica,sans-Serif" font-size="10.00">c</text>
</g>
<!-- n46&#45;&gt;n47 -->
<g id="edge47" class="edge">
<title>n46&#45;&gt;n47</title>
<path fill="none" stroke="black" d="M2677,-215.7C2677,-208.41 2677,-199.73 2677,-191.54"/>
<polygon fill="black" stroke="black" points="2680.5,-191.62 2677,-181.62 2673.5,-191.62 2680.5,-191.62"/>
</g>
<!-- n51 -->
<g id="node52" class="node">
<title>n51</title>
<ellipse fill="#b2dfee" stroke="#b2dfee" cx="2943" cy="-234" rx="27" ry="18"/>
<text text-anchor="middle" x="2943" y="-231.5" font-family="Helvetica,sans-Serif" font-size="10.00">if</text>
</g>
<!-- n50&#45;&gt;n51 -->
<g id="edge51" class="edge">
<title>n50&#45;&gt;n51</title>
<path fill="none" stroke="black" d="M3124.99,-298.44C3091.34,-289.34 3029.84,-271.77 2979,-252 2977.47,-251.41 2975.91,-250.77 2974.35,-250.12"/>
<polygon fill="black" stroke="black" points="2976.05,-247.04 2965.49,-246.19 2973.21,-253.44 2976.05,-247.04"/>
</g>
<!-- n52 -->
<g id="node53" class="node">
<title>n52</title>
<ellipse fill="#b2dfee" stroke="#b2dfee" cx="3015" cy="-234" rx="27" ry="18"/>
<text text-anchor="middle" x="3015" y="-231.5" font-family="Helvetica,sans-Serif" font-size="10.00">(</text>
</g>
<!-- n50&#45;&gt;n52 -->
<g id="edge52" class="edge">
<title>n50&#45;&gt;n52</title>
<path fill="none" stroke="black" d="M3129.2,-294.22C3106.84,-282.62 3071.07,-264.07 3045.52,-250.82"/>
<polygon fill="black" stroke="black" points="3047.43,-247.87 3036.94,-246.38 3044.21,-254.09 3047.43,-247.87"/>
</g>
<!-- n53 -->
<g id="node54" class="node">
<title>n53</title>
<ellipse fill="#b2dfee" stroke="#b2dfee" cx="3105" cy="-234" rx="45.15" ry="18"/>
<text text-anchor="middle" x="3105" y="-231.5" font-family="Helvetica,sans-Serif" font-size="10.00">RELACIONAL</text>
</g>
<!-- n50&#45;&gt;n53 -->
<g id="edge53" class="edge">
<title>n50&#45;&gt;n53</title>
<path fill="none" stroke="black" d="M3139.79,-289.12C3134.53,-280.94 3127.99,-270.76 3121.99,-261.44"/>
<polygon fill="black" stroke="black" points="3124.97,-259.59 3116.62,-253.07 3119.08,-263.37 3124.97,-259.59"/>
</g>
<!-- n59 -->
<g id="node60" class="node">
<title>n59</title>
<ellipse fill="#b2dfee" stroke="#b2dfee" cx="3195" cy="-234" rx="27" ry="18"/>
<text text-anchor="middle" x="3195" y="-231.5" font-family="Helvetica,sans-Serif" font-size="10.00">)</text>
</g>
<!-- n50&#45;&gt;n59 -->
<g id="edge59" class="edge">
<title>n50&#45;&gt;n59</title>
<path fill="none" stroke="black" d="M3160.21,-289.12C3165.68,-280.61 3172.54,-269.94 3178.72,-260.32"/>
<polygon fill="black" stroke="black" points="3181.55,-262.4 3184.01,-252.09 3175.66,-258.61 3181.55,-262.4"/>
</g>
<!-- n60 -->
<g id="node61" class="node">
<title>n60</title>
<ellipse fill="#b2dfee" stroke="#b2dfee" cx="3267" cy="-234" rx="27" ry="18"/>
<text text-anchor="middle" x="3267" y="-231.5" font-family="Helvetica,sans-Serif" font-size="10.00">{</text>
</g>
<!-- n50&#45;&gt;n60 -->
<g id="edge60" class="edge">
<title>n50&#45;&gt;n60</title>
<path fill="none" stroke="black" d="M3169.58,-293.28C3188.14,-282.18 3216.27,-265.35 3237.54,-252.63"/>
<polygon fill="black" stroke="black" points="3239.27,-255.67 3246.05,-247.53 3235.68,-249.66 3239.27,-255.67"/>
</g>
<!-- n61 -->
<g id="node62" class="node">
<title>n61</title>
<ellipse fill="#b2dfee" stroke="#b2dfee" cx="3339" cy="-234" rx="27" ry="18"/>
<text text-anchor="middle" x="3339" y="-231.5" font-family="Helvetica,sans-Serif" font-size="10.00">IF</text>
</g>
<!-- n50&#45;&gt;n61 -->
<g id="edge61" class="edge">
<title>n50&#45;&gt;n61</title>
<path fill="none" stroke="black" d="M3174.15,-297.52C3204.55,-287.91 3258.23,-270.26 3303,-252 3304.52,-251.38 3306.07,-250.73 3307.63,-250.06"/>
<polygon fill="black" stroke="black" points="3308.79,-253.37 3316.47,-246.07 3305.91,-246.99 3308.79,-253.37"/>
</g>
<!-- n78 -->
<g id="node79" class="node">
<title>n78</title>
<ellipse fill="#b2dfee" stroke="#b2dfee" cx="3411" cy="-234" rx="27" ry="18"/>
<text text-anchor="middle" x="3411" y="-231.5" font-family="Helvetica,sans-Serif" font-size="10.00">}</text>
</g>
<!-- n50&#45;&gt;n78 -->
<g id="edge78" class="edge">
<title>n50&#45;&gt;n78</title>
<path fill="none" stroke="black" d="M3176.15,-300.68C3218.62,-293.27 3304.91,-276.5 3375,-252 3376.55,-251.46 3378.12,-250.87 3379.7,-250.25"/>
<polygon fill="black" stroke="black" points="3380.8,-253.59 3388.6,-246.42 3378.03,-247.16 3380.8,-253.59"/>
</g>
<!-- n54 -->
<g id="node55" class="node">
<title>n54</title>
<ellipse fill="#b2dfee" stroke="#b2dfee" cx="2970" cy="-162" rx="27" ry="18"/>
<text text-anchor="middle" x="2970" y="-159.5" font-family="Helvetica,sans-Serif" font-size="10.00">INT</text>
</g>
<!-- n53&#45;&gt;n54 -->
<g id="edge54" class="edge">
<title>n53&#45;&gt;n54</title>
<path fill="none" stroke="black" d="M3078.33,-219.17C3056.07,-207.63 3024.33,-191.17 3000.96,-179.05"/>
<polygon fill="black" stroke="black" points="3002.7,-176.01 2992.21,-174.52 2999.48,-182.23 3002.7,-176.01"/>
</g>
<!-- n56 -->
<g id="node57" class="node">
<title>n56</title>
<ellipse fill="#b2dfee" stroke="#b2dfee" cx="3042" cy="-162" rx="27" ry="18"/>
<text text-anchor="middle" x="3042" y="-159.5" font-family="Helvetica,sans-Serif" font-size="10.00">!=</text>
</g>
<!-- n53&#45;&gt;n56 -->
<g id="edge56" class="edge">
<title>n53&#45;&gt;n56</title>
<path fill="none" stroke="black" d="M3090.39,-216.76C3082.18,-207.64 3071.8,-196.11 3062.76,-186.06"/>
<polygon fill="black" stroke="black" points="3065.55,-183.93 3056.26,-178.84 3060.35,-188.62 3065.55,-183.93"/>
</g>
<!-- n57 -->
<g id="node58" class="node">
<title>n57</title>
<ellipse fill="#b2dfee" stroke="#b2dfee" cx="3114" cy="-162" rx="27" ry="18"/>
<text text-anchor="middle" x="3114" y="-159.5" font-family="Helvetica,sans-Serif" font-size="10.00">CHAR</text>
</g>
<!-- n53&#45;&gt;n57 -->
<g id="edge57" class="edge">
<title>n53&#45;&gt;n57</title>
<path fill="none" stroke="black" d="M3107.22,-215.7C3108.17,-208.32 3109.3,-199.52 3110.37,-191.25"/>
<polygon fill="black" stroke="black" points="3113.8,-191.97 3111.61,-181.61 3106.86,-191.08 3113.8,-191.97"/>
</g>
<!-- n55 -->
<g id="node56" class="node">
<title>n55</title>
<ellipse fill="#b2dfee" stroke="#b2dfee" cx="2970" cy="-90" rx="27" ry="18"/>
<text text-anchor="middle" x="2970" y="-87.5" font-family="Helvetica,sans-Serif" font-size="10.00">64</text>
</g>
<!-- n54&#45;&gt;n55 -->
<g id="edge55" class="edge">
<title>n54&#45;&gt;n55</title>
<path fill="none" stroke="black" d="M2970,-143.7C2970,-136.41 2970,-127.73 2970,-119.54"/>
<polygon fill="black" stroke="black" points="2973.5,-119.62 2970,-109.62 2966.5,-119.62 2973.5,-119.62"/>
</g>
<!-- n58 -->
<g id="node59" class="node">
<title>n58</title>
<ellipse fill="#b2dfee" stroke="#b2dfee" cx="3051" cy="-90" rx="27" ry="18"/>
<text text-anchor="middle" x="3051" y="-87.5" font-family="Helvetica,sans-Serif" font-size="10.00">@</text>
</g>
<!-- n57&#45;&gt;n58 -->
<g id="edge58" class="edge">
<title>n57&#45;&gt;n58</title>
<path fill="none" stroke="black" d="M3100.64,-146.15C3092.29,-136.87 3081.35,-124.73 3071.87,-114.19"/>
<polygon fill="black" stroke="black" points="3074.65,-112.04 3065.35,-106.95 3069.44,-116.72 3074.65,-112.04"/>
</g>
<!-- n62 -->
<g id="node63" class="node">
<title>n62</title>
<ellipse fill="#b2dfee" stroke="#b2dfee" cx="3339" cy="-162" rx="85.89" ry="18"/>
<text text-anchor="middle" x="3339" y="-159.5" font-family="Helvetica,sans-Serif" font-size="10.00">DECLARACION_VARIABLES</text>
</g>
<!-- n61&#45;&gt;n62 -->
<g id="edge62" class="edge">
<title>n61&#45;&gt;n62</title>
<path fill="none" stroke="black" d="M3339,-215.7C3339,-208.41 3339,-199.73 3339,-191.54"/>
<polygon fill="black" stroke="black" points="3342.5,-191.62 3339,-181.62 3335.5,-191.62 3342.5,-191.62"/>
</g>
<!-- n71 -->
<g id="node72" class="node">
<title>n71</title>
<ellipse fill="#b2dfee" stroke="#b2dfee" cx="3760" cy="-162" rx="32.93" ry="18"/>
<text text-anchor="middle" x="3760" y="-159.5" font-family="Helvetica,sans-Serif" font-size="10.00">PRINTLN</text>
</g>
<!-- n61&#45;&gt;n71 -->
<g id="edge71" class="edge">
<title>n61&#45;&gt;n71</title>
<path fill="none" stroke="black" d="M3359.52,-222C3364.47,-219.71 3369.83,-217.54 3375,-216 3494.77,-180.39 3642.73,-168.57 3715.42,-164.75"/>
<polygon fill="black" stroke="black" points="3715.51,-168.25 3725.33,-164.26 3715.17,-161.26 3715.51,-168.25"/>
</g>
<!-- n63 -->
<g id="node64" class="node">
<title>n63</title>
<ellipse fill="#b2dfee" stroke="#b2dfee" cx="3123" cy="-90" rx="27" ry="18"/>
<text text-anchor="middle" x="3123" y="-87.5" font-family="Helvetica,sans-Serif" font-size="10.00">const</text>
</g>
<!-- n62&#45;&gt;n63 -->
<g id="edge63" class="edge">
<title>n62&#45;&gt;n63</title>
<path fill="none" stroke="black" d="M3285.51,-147.58C3249.33,-137.94 3200.71,-123.88 3159,-108 3157.47,-107.42 3155.91,-106.79 3154.34,-106.15"/>
<polygon fill="black" stroke="black" points="3156.03,-103.07 3145.47,-102.23 3153.21,-109.47 3156.03,-103.07"/>
</g>
<!-- n64 -->
<g id="node65" class="node">
<title>n64</title>
<ellipse fill="#b2dfee" stroke="#b2dfee" cx="3195" cy="-90" rx="27" ry="18"/>
<text text-anchor="middle" x="3195" y="-87.5" font-family="Helvetica,sans-Serif" font-size="10.00">d</text>
</g>
<!-- n62&#45;&gt;n64 -->
<g id="edge64" class="edge">
<title>n62&#45;&gt;n64</title>
<path fill="none" stroke="black" d="M3305.96,-144.94C3282.06,-133.32 3249.95,-117.71 3226.42,-106.28"/>
<polygon fill="black" stroke="black" points="3228.16,-103.23 3217.64,-102.01 3225.1,-109.53 3228.16,-103.23"/>
</g>
<!-- n65 -->
<g id="node66" class="node">
<title>n65</title>
<ellipse fill="#b2dfee" stroke="#b2dfee" cx="3267" cy="-90" rx="27" ry="18"/>
<text text-anchor="middle" x="3267" y="-87.5" font-family="Helvetica,sans-Serif" font-size="10.00">:</text>
</g>
<!-- n62&#45;&gt;n65 -->
<g id="edge65" class="edge">
<title>n62&#45;&gt;n65</title>
<path fill="none" stroke="black" d="M3321.57,-144.05C3312.08,-134.82 3300.21,-123.29 3289.97,-113.33"/>
<polygon fill="black" stroke="black" points="3292.53,-110.94 3282.92,-106.48 3287.65,-115.96 3292.53,-110.94"/>
</g>
<!-- n66 -->
<g id="node67" class="node">
<title>n66</title>
<ellipse fill="#b2dfee" stroke="#b2dfee" cx="3339" cy="-90" rx="27" ry="18"/>
<text text-anchor="middle" x="3339" y="-87.5" font-family="Helvetica,sans-Serif" font-size="10.00">INT</text>
</g>
<!-- n62&#45;&gt;n66 -->
<g id="edge66" class="edge">
<title>n62&#45;&gt;n66</title>
<path fill="none" stroke="black" d="M3339,-143.7C3339,-136.41 3339,-127.73 3339,-119.54"/>
<polygon fill="black" stroke="black" points="3342.5,-119.62 3339,-109.62 3335.5,-119.62 3342.5,-119.62"/>
</g>
<!-- n67 -->
<g id="node68" class="node">
<title>n67</title>
<ellipse fill="#b2dfee" stroke="#b2dfee" cx="3411" cy="-90" rx="27" ry="18"/>
<text text-anchor="middle" x="3411" y="-87.5" font-family="Helvetica,sans-Serif" font-size="10.00">=</text>
</g>
<!-- n62&#45;&gt;n67 -->
<g id="edge67" class="edge">
<title>n62&#45;&gt;n67</title>
<path fill="none" stroke="black" d="M3356.43,-144.05C3365.92,-134.82 3377.79,-123.29 3388.03,-113.33"/>
<polygon fill="black" stroke="black" points="3390.35,-115.96 3395.08,-106.48 3385.47,-110.94 3390.35,-115.96"/>
</g>
<!-- n68 -->
<g id="node69" class="node">
<title>n68</title>
<ellipse fill="#b2dfee" stroke="#b2dfee" cx="3483" cy="-90" rx="27" ry="18"/>
<text text-anchor="middle" x="3483" y="-87.5" font-family="Helvetica,sans-Serif" font-size="10.00">CHAR</text>
</g>
<!-- n62&#45;&gt;n68 -->
<g id="edge68" class="edge">
<title>n62&#45;&gt;n68</title>
<path fill="none" stroke="black" d="M3372.04,-144.94C3395.94,-133.32 3428.05,-117.71 3451.58,-106.28"/>
<polygon fill="black" stroke="black" points="3452.9,-109.53 3460.36,-102.01 3449.84,-103.23 3452.9,-109.53"/>
</g>
<!-- n70 -->
<g id="node71" class="node">
<title>n70</title>
<ellipse fill="#b2dfee" stroke="#b2dfee" cx="3555" cy="-90" rx="27" ry="18"/>
<text text-anchor="middle" x="3555" y="-87.5" font-family="Helvetica,sans-Serif" font-size="10.00">;</text>
</g>
<!-- n62&#45;&gt;n70 -->
<g id="edge70" class="edge">
<title>n62&#45;&gt;n70</title>
<path fill="none" stroke="black" d="M3392.49,-147.58C3428.67,-137.94 3477.29,-123.88 3519,-108 3520.53,-107.42 3522.09,-106.79 3523.66,-106.15"/>
<polygon fill="black" stroke="black" points="3524.79,-109.47 3532.53,-102.23 3521.97,-103.07 3524.79,-109.47"/>
</g>
<!-- n69 -->
<g id="node70" class="node">
<title>n69</title>
<ellipse fill="#b2dfee" stroke="#b2dfee" cx="3483" cy="-18" rx="27" ry="18"/>
<text text-anchor="middle" x="3483" y="-15.5" font-family="Helvetica,sans-Serif" font-size="10.00">@</text>
</g>
<!-- n68&#45;&gt;n69 -->
<g id="edge69" class="edge">
<title>n68&#45;&gt;n69</title>
<path fill="none" stroke="black" d="M3483,-71.7C3483,-64.41 3483,-55.73 3483,-47.54"/>
<polygon fill="black" stroke="black" points="3486.5,-47.62 3483,-37.62 3479.5,-47.62 3486.5,-47.62"/>
</g>
<!-- n72 -->
<g id="node73" class="node">
<title>n72</title>
<ellipse fill="#b2dfee" stroke="#b2dfee" cx="3627" cy="-90" rx="27" ry="18"/>
<text text-anchor="middle" x="3627" y="-87.5" font-family="Helvetica,sans-Serif" font-size="10.00">Println</text>
</g>
<!-- n71&#45;&gt;n72 -->
<g id="edge72" class="edge">
<title>n71&#45;&gt;n72</title>
<path fill="none" stroke="black" d="M3736.83,-148.81C3714.92,-137.27 3681.89,-119.89 3657.77,-107.2"/>
<polygon fill="black" stroke="black" points="3659.54,-104.17 3649.06,-102.61 3656.28,-110.36 3659.54,-104.17"/>
</g>
<!-- n73 -->
<g id="node74" class="node">
<title>n73</title>
<ellipse fill="#b2dfee" stroke="#b2dfee" cx="3699" cy="-90" rx="27" ry="18"/>
<text text-anchor="middle" x="3699" y="-87.5" font-family="Helvetica,sans-Serif" font-size="10.00">(</text>
</g>
<!-- n71&#45;&gt;n73 -->
<g id="edge73" class="edge">
<title>n71&#45;&gt;n73</title>
<path fill="none" stroke="black" d="M3746.46,-145.46C3738.54,-136.37 3728.37,-124.7 3719.48,-114.5"/>
<polygon fill="black" stroke="black" points="3722.28,-112.39 3713.08,-107.15 3717.01,-116.99 3722.28,-112.39"/>
</g>
<!-- n74 -->
<g id="node75" class="node">
<title>n74</title>
<ellipse fill="#b2dfee" stroke="#b2dfee" cx="3821" cy="-90" rx="77.23" ry="18"/>
<text text-anchor="middle" x="3821" y="-87.5" font-family="Helvetica,sans-Serif" font-size="10.00">RECUPERAR_VARIABLE</text>
</g>
<!-- n71&#45;&gt;n74 -->
<g id="edge74" class="edge">
<title>n71&#45;&gt;n74</title>
<path fill="none" stroke="black" d="M3773.54,-145.46C3780.95,-136.95 3790.33,-126.19 3798.79,-116.48"/>
<polygon fill="black" stroke="black" points="3801.29,-118.94 3805.22,-109.1 3796.02,-114.34 3801.29,-118.94"/>
</g>
<!-- n76 -->
<g id="node77" class="node">
<title>n76</title>
<ellipse fill="#b2dfee" stroke="#b2dfee" cx="3943" cy="-90" rx="27" ry="18"/>
<text text-anchor="middle" x="3943" y="-87.5" font-family="Helvetica,sans-Serif" font-size="10.00">)</text>
</g>
<!-- n71&#45;&gt;n76 -->
<g id="edge76" class="edge">
<title>n71&#45;&gt;n76</title>
<path fill="none" stroke="black" d="M3787.66,-151.9C3817.44,-141.91 3866.04,-125.01 3907,-108 3908.52,-107.37 3910.06,-106.71 3911.62,-106.03"/>
<polygon fill="black" stroke="black" points="3912.79,-109.35 3920.45,-102.03 3909.9,-102.97 3912.79,-109.35"/>
</g>
<!-- n77 -->
<g id="node78" class="node">
<title>n77</title>
<ellipse fill="#b2dfee" stroke="#b2dfee" cx="4015" cy="-90" rx="27" ry="18"/>
<text text-anchor="middle" x="4015" y="-87.5" font-family="Helvetica,sans-Serif" font-size="10.00">;</text>
</g>
<!-- n71&#45;&gt;n77 -->
<g id="edge77" class="edge">
<title>n71&#45;&gt;n77</title>
<path fill="none" stroke="black" d="M3791.04,-155.56C3834.01,-147.56 3913.71,-131.05 3979,-108 3980.55,-107.45 3982.12,-106.86 3983.69,-106.24"/>
<polygon fill="black" stroke="black" points="3984.8,-109.58 3992.59,-102.4 3982.02,-103.15 3984.8,-109.58"/>
</g>
<!-- n75 -->
<g id="node76" class="node">
<title>n75</title>
<ellipse fill="#b2dfee" stroke="#b2dfee" cx="3821" cy="-18" rx="27" ry="18"/>
<text text-anchor="middle" x="3821" y="-15.5" font-family="Helvetica,sans-Serif" font-size="10.00">d</text>
</g>
<!-- n74&#45;&gt;n75 -->
<g id="edge75" class="edge">
<title>n74&#45;&gt;n75</title>
<path fill="none" stroke="black" d="M3821,-71.7C3821,-64.41 3821,-55.73 3821,-47.54"/>
<polygon fill="black" stroke="black" points="3824.5,-47.62 3821,-37.62 3817.5,-47.62 3824.5,-47.62"/>
</g>
</g>
</svg>
