<?xml version="1.0" encoding="UTF-8" standalone="no"?>
<!DOCTYPE svg PUBLIC "-//W3C//DTD SVG 1.1//EN"
 "http://www.w3.org/Graphics/SVG/1.1/DTD/svg11.dtd">
<!-- Generated by graphviz version 7.1.0 (20230121.1956)
 -->
<!-- Title: arbolAST Pages: 1 -->
<svg width="1111pt" height="404pt"
 viewBox="0.00 0.00 1111.00 404.00" xmlns="http://www.w3.org/2000/svg" xmlns:xlink="http://www.w3.org/1999/xlink">
<g id="graph0" class="graph" transform="scale(1 1) rotate(0) translate(4 400)">
<title>arbolAST</title>
<polygon fill="white" stroke="none" points="-4,4 -4,-400 1107,-400 1107,4 -4,4"/>
<!-- n0 -->
<g id="node1" class="node">
<title>n0</title>
<ellipse fill="#b2dfee" stroke="#b2dfee" cx="481" cy="-378" rx="27" ry="18"/>
<text text-anchor="middle" x="481" y="-375.5" font-family="Helvetica,sans-Serif" font-size="10.00">INICIO</text>
</g>
<!-- n1 -->
<g id="node2" class="node">
<title>n1</title>
<ellipse fill="#b2dfee" stroke="#b2dfee" cx="481" cy="-306" rx="55.85" ry="18"/>
<text text-anchor="middle" x="481" y="-303.5" font-family="Helvetica,sans-Serif" font-size="10.00">INSTRUCCIONES</text>
</g>
<!-- n0&#45;&gt;n1 -->
<g id="edge1" class="edge">
<title>n0&#45;&gt;n1</title>
<path fill="none" stroke="black" d="M481,-359.7C481,-352.41 481,-343.73 481,-335.54"/>
<polygon fill="black" stroke="black" points="484.5,-335.62 481,-325.62 477.5,-335.62 484.5,-335.62"/>
</g>
<!-- n2 -->
<g id="node3" class="node">
<title>n2</title>
<ellipse fill="#b2dfee" stroke="#b2dfee" cx="290" cy="-234" rx="85.89" ry="18"/>
<text text-anchor="middle" x="290" y="-231.5" font-family="Helvetica,sans-Serif" font-size="10.00">DECLARACION_VARIABLES</text>
</g>
<!-- n1&#45;&gt;n2 -->
<g id="edge2" class="edge">
<title>n1&#45;&gt;n2</title>
<path fill="none" stroke="black" d="M445.07,-291.83C416.05,-281.19 374.79,-266.07 342.13,-254.1"/>
<polygon fill="black" stroke="black" points="343.42,-250.85 332.83,-250.7 341.02,-257.42 343.42,-250.85"/>
</g>
<!-- n15 -->
<g id="node16" class="node">
<title>n15</title>
<ellipse fill="#b2dfee" stroke="#b2dfee" cx="750" cy="-234" rx="85.89" ry="18"/>
<text text-anchor="middle" x="750" y="-231.5" font-family="Helvetica,sans-Serif" font-size="10.00">DECLARACION_VARIABLES</text>
</g>
<!-- n1&#45;&gt;n15 -->
<g id="edge15" class="edge">
<title>n1&#45;&gt;n15</title>
<path fill="none" stroke="black" d="M523.62,-293.91C567.56,-282.48 636.55,-264.52 686.83,-251.44"/>
<polygon fill="black" stroke="black" points="687.64,-254.85 696.43,-248.94 685.87,-248.07 687.64,-254.85"/>
</g>
<!-- n3 -->
<g id="node4" class="node">
<title>n3</title>
<ellipse fill="#b2dfee" stroke="#b2dfee" cx="27" cy="-162" rx="27" ry="18"/>
<text text-anchor="middle" x="27" y="-159.5" font-family="Helvetica,sans-Serif" font-size="10.00">const</text>
</g>
<!-- n2&#45;&gt;n3 -->
<g id="edge3" class="edge">
<title>n2&#45;&gt;n3</title>
<path fill="none" stroke="black" d="M225.86,-221.79C179.83,-212.85 116.69,-198.71 63,-180 61.45,-179.46 59.88,-178.87 58.3,-178.25"/>
<polygon fill="black" stroke="black" points="59.97,-175.16 49.4,-174.43 57.2,-181.59 59.97,-175.16"/>
</g>
<!-- n4 -->
<g id="node5" class="node">
<title>n4</title>
<ellipse fill="#b2dfee" stroke="#b2dfee" cx="99" cy="-162" rx="27" ry="18"/>
<text text-anchor="middle" x="99" y="-159.5" font-family="Helvetica,sans-Serif" font-size="10.00">cad</text>
</g>
<!-- n2&#45;&gt;n4 -->
<g id="edge4" class="edge">
<title>n2&#45;&gt;n4</title>
<path fill="none" stroke="black" d="M243.38,-218.56C212.35,-208.59 170.84,-194.54 135,-180 133.48,-179.38 131.93,-178.73 130.37,-178.06"/>
<polygon fill="black" stroke="black" points="132.08,-175 121.53,-174.09 129.21,-181.38 132.08,-175"/>
</g>
<!-- n5 -->
<g id="node6" class="node">
<title>n5</title>
<ellipse fill="#b2dfee" stroke="#b2dfee" cx="171" cy="-162" rx="27" ry="18"/>
<text text-anchor="middle" x="171" y="-159.5" font-family="Helvetica,sans-Serif" font-size="10.00">:</text>
</g>
<!-- n2&#45;&gt;n5 -->
<g id="edge5" class="edge">
<title>n2&#45;&gt;n5</title>
<path fill="none" stroke="black" d="M262.1,-216.59C243.67,-205.75 219.54,-191.55 200.74,-180.49"/>
<polygon fill="black" stroke="black" points="202.62,-177.54 192.22,-175.48 199.07,-183.57 202.62,-177.54"/>
</g>
<!-- n6 -->
<g id="node7" class="node">
<title>n6</title>
<ellipse fill="#b2dfee" stroke="#b2dfee" cx="250" cy="-162" rx="33.61" ry="18"/>
<text text-anchor="middle" x="250" y="-159.5" font-family="Helvetica,sans-Serif" font-size="10.00">CADENA</text>
</g>
<!-- n2&#45;&gt;n6 -->
<g id="edge6" class="edge">
<title>n2&#45;&gt;n6</title>
<path fill="none" stroke="black" d="M280.11,-215.7C275.59,-207.78 270.13,-198.23 265.11,-189.44"/>
<polygon fill="black" stroke="black" points="268.25,-187.88 260.25,-180.94 262.17,-191.36 268.25,-187.88"/>
</g>
<!-- n7 -->
<g id="node8" class="node">
<title>n7</title>
<ellipse fill="#b2dfee" stroke="#b2dfee" cx="329" cy="-162" rx="27" ry="18"/>
<text text-anchor="middle" x="329" y="-159.5" font-family="Helvetica,sans-Serif" font-size="10.00">=</text>
</g>
<!-- n2&#45;&gt;n7 -->
<g id="edge7" class="edge">
<title>n2&#45;&gt;n7</title>
<path fill="none" stroke="black" d="M299.64,-215.7C304.12,-207.67 309.53,-197.95 314.48,-189.05"/>
<polygon fill="black" stroke="black" points="317.46,-190.91 319.27,-180.47 311.34,-187.5 317.46,-190.91"/>
</g>
<!-- n8 -->
<g id="node9" class="node">
<title>n8</title>
<ellipse fill="#b2dfee" stroke="#b2dfee" cx="412" cy="-162" rx="38.03" ry="18"/>
<text text-anchor="middle" x="412" y="-159.5" font-family="Helvetica,sans-Serif" font-size="10.00">TOSTRING</text>
</g>
<!-- n2&#45;&gt;n8 -->
<g id="edge8" class="edge">
<title>n2&#45;&gt;n8</title>
<path fill="none" stroke="black" d="M318.6,-216.59C336.55,-206.29 359.77,-192.97 378.56,-182.19"/>
<polygon fill="black" stroke="black" points="380.24,-185.26 387.17,-177.24 376.76,-179.19 380.24,-185.26"/>
</g>
<!-- n14 -->
<g id="node15" class="node">
<title>n14</title>
<ellipse fill="#b2dfee" stroke="#b2dfee" cx="495" cy="-162" rx="27" ry="18"/>
<text text-anchor="middle" x="495" y="-159.5" font-family="Helvetica,sans-Serif" font-size="10.00">;</text>
</g>
<!-- n2&#45;&gt;n14 -->
<g id="edge14" class="edge">
<title>n2&#45;&gt;n14</title>
<path fill="none" stroke="black" d="M340.54,-219.12C374.45,-209.33 419.91,-195.28 459,-180 460.53,-179.4 462.08,-178.77 463.65,-178.11"/>
<polygon fill="black" stroke="black" points="464.79,-181.43 472.51,-174.17 461.95,-175.04 464.79,-181.43"/>
</g>
<!-- n9 -->
<g id="node10" class="node">
<title>n9</title>
<ellipse fill="#b2dfee" stroke="#b2dfee" cx="297" cy="-90" rx="31.4" ry="18"/>
<text text-anchor="middle" x="297" y="-87.5" font-family="Helvetica,sans-Serif" font-size="10.00">.toString</text>
</g>
<!-- n8&#45;&gt;n9 -->
<g id="edge9" class="edge">
<title>n8&#45;&gt;n9</title>
<path fill="none" stroke="black" d="M389.28,-147.17C371.67,-136.45 347.08,-121.48 327.71,-109.69"/>
<polygon fill="black" stroke="black" points="329.78,-106.85 319.41,-104.64 326.14,-112.83 329.78,-106.85"/>
</g>
<!-- n10 -->
<g id="node11" class="node">
<title>n10</title>
<ellipse fill="#b2dfee" stroke="#b2dfee" cx="373" cy="-90" rx="27" ry="18"/>
<text text-anchor="middle" x="373" y="-87.5" font-family="Helvetica,sans-Serif" font-size="10.00">(</text>
</g>
<!-- n8&#45;&gt;n10 -->
<g id="edge10" class="edge">
<title>n8&#45;&gt;n10</title>
<path fill="none" stroke="black" d="M402.76,-144.41C398.18,-136.19 392.54,-126.06 387.4,-116.85"/>
<polygon fill="black" stroke="black" points="390.57,-115.34 382.64,-108.31 384.45,-118.75 390.57,-115.34"/>
</g>
<!-- n11 -->
<g id="node12" class="node">
<title>n11</title>
<ellipse fill="#b2dfee" stroke="#b2dfee" cx="452" cy="-90" rx="33.61" ry="18"/>
<text text-anchor="middle" x="452" y="-87.5" font-family="Helvetica,sans-Serif" font-size="10.00">CADENA</text>
</g>
<!-- n8&#45;&gt;n11 -->
<g id="edge11" class="edge">
<title>n8&#45;&gt;n11</title>
<path fill="none" stroke="black" d="M421.48,-144.41C426.11,-136.3 431.8,-126.35 437,-117.25"/>
<polygon fill="black" stroke="black" points="439.92,-119.2 441.84,-108.78 433.84,-115.73 439.92,-119.2"/>
</g>
<!-- n13 -->
<g id="node14" class="node">
<title>n13</title>
<ellipse fill="#b2dfee" stroke="#b2dfee" cx="531" cy="-90" rx="27" ry="18"/>
<text text-anchor="middle" x="531" y="-87.5" font-family="Helvetica,sans-Serif" font-size="10.00">)</text>
</g>
<!-- n8&#45;&gt;n13 -->
<g id="edge13" class="edge">
<title>n8&#45;&gt;n13</title>
<path fill="none" stroke="black" d="M435.23,-147.34C454.21,-136.17 481.15,-120.33 501.62,-108.28"/>
<polygon fill="black" stroke="black" points="503.23,-111.4 510.07,-103.31 499.68,-105.36 503.23,-111.4"/>
</g>
<!-- n12 -->
<g id="node13" class="node">
<title>n12</title>
<ellipse fill="#b2dfee" stroke="#b2dfee" cx="452" cy="-18" rx="27" ry="18"/>
<text text-anchor="middle" x="452" y="-15.5" font-family="Helvetica,sans-Serif" font-size="10.00">hola</text>
</g>
<!-- n11&#45;&gt;n12 -->
<g id="edge12" class="edge">
<title>n11&#45;&gt;n12</title>
<path fill="none" stroke="black" d="M452,-71.7C452,-64.41 452,-55.73 452,-47.54"/>
<polygon fill="black" stroke="black" points="455.5,-47.62 452,-37.62 448.5,-47.62 455.5,-47.62"/>
</g>
<!-- n16 -->
<g id="node17" class="node">
<title>n16</title>
<ellipse fill="#b2dfee" stroke="#b2dfee" cx="567" cy="-162" rx="27" ry="18"/>
<text text-anchor="middle" x="567" y="-159.5" font-family="Helvetica,sans-Serif" font-size="10.00">const</text>
</g>
<!-- n15&#45;&gt;n16 -->
<g id="edge16" class="edge">
<title>n15&#45;&gt;n16</title>
<path fill="none" stroke="black" d="M705.52,-218.2C676.14,-208.12 636.95,-194.1 603,-180 601.48,-179.37 599.94,-178.71 598.38,-178.03"/>
<polygon fill="black" stroke="black" points="600.1,-174.97 589.55,-174.03 597.21,-181.35 600.1,-174.97"/>
</g>
<!-- n17 -->
<g id="node18" class="node">
<title>n17</title>
<ellipse fill="#b2dfee" stroke="#b2dfee" cx="639" cy="-162" rx="27" ry="18"/>
<text text-anchor="middle" x="639" y="-159.5" font-family="Helvetica,sans-Serif" font-size="10.00">cad2</text>
</g>
<!-- n15&#45;&gt;n17 -->
<g id="edge17" class="edge">
<title>n15&#45;&gt;n17</title>
<path fill="none" stroke="black" d="M723.69,-216.41C706.87,-205.8 685.03,-192.03 667.75,-181.13"/>
<polygon fill="black" stroke="black" points="669.78,-178.27 659.45,-175.9 666.04,-184.19 669.78,-178.27"/>
</g>
<!-- n18 -->
<g id="node19" class="node">
<title>n18</title>
<ellipse fill="#b2dfee" stroke="#b2dfee" cx="711" cy="-162" rx="27" ry="18"/>
<text text-anchor="middle" x="711" y="-159.5" font-family="Helvetica,sans-Serif" font-size="10.00">:</text>
</g>
<!-- n15&#45;&gt;n18 -->
<g id="edge18" class="edge">
<title>n15&#45;&gt;n18</title>
<path fill="none" stroke="black" d="M740.36,-215.7C735.88,-207.67 730.47,-197.95 725.52,-189.05"/>
<polygon fill="black" stroke="black" points="728.66,-187.5 720.73,-180.47 722.54,-190.91 728.66,-187.5"/>
</g>
<!-- n19 -->
<g id="node20" class="node">
<title>n19</title>
<ellipse fill="#b2dfee" stroke="#b2dfee" cx="790" cy="-162" rx="33.61" ry="18"/>
<text text-anchor="middle" x="790" y="-159.5" font-family="Helvetica,sans-Serif" font-size="10.00">CADENA</text>
</g>
<!-- n15&#45;&gt;n19 -->
<g id="edge19" class="edge">
<title>n15&#45;&gt;n19</title>
<path fill="none" stroke="black" d="M759.89,-215.7C764.41,-207.78 769.87,-198.23 774.89,-189.44"/>
<polygon fill="black" stroke="black" points="777.83,-191.36 779.75,-180.94 771.75,-187.88 777.83,-191.36"/>
</g>
<!-- n20 -->
<g id="node21" class="node">
<title>n20</title>
<ellipse fill="#b2dfee" stroke="#b2dfee" cx="869" cy="-162" rx="27" ry="18"/>
<text text-anchor="middle" x="869" y="-159.5" font-family="Helvetica,sans-Serif" font-size="10.00">=</text>
</g>
<!-- n15&#45;&gt;n20 -->
<g id="edge20" class="edge">
<title>n15&#45;&gt;n20</title>
<path fill="none" stroke="black" d="M777.9,-216.59C796.33,-205.75 820.46,-191.55 839.26,-180.49"/>
<polygon fill="black" stroke="black" points="840.93,-183.57 847.78,-175.48 837.38,-177.54 840.93,-183.57"/>
</g>
<!-- n21 -->
<g id="node22" class="node">
<title>n21</title>
<ellipse fill="#b2dfee" stroke="#b2dfee" cx="952" cy="-162" rx="38.03" ry="18"/>
<text text-anchor="middle" x="952" y="-159.5" font-family="Helvetica,sans-Serif" font-size="10.00">TOSTRING</text>
</g>
<!-- n15&#45;&gt;n21 -->
<g id="edge21" class="edge">
<title>n15&#45;&gt;n21</title>
<path fill="none" stroke="black" d="M794.17,-218.13C825.22,-207.62 867.71,-193.12 905,-180 907.21,-179.22 909.47,-178.42 911.75,-177.61"/>
<polygon fill="black" stroke="black" points="912.78,-180.96 921.02,-174.29 910.42,-174.37 912.78,-180.96"/>
</g>
<!-- n27 -->
<g id="node28" class="node">
<title>n27</title>
<ellipse fill="#b2dfee" stroke="#b2dfee" cx="1035" cy="-162" rx="27" ry="18"/>
<text text-anchor="middle" x="1035" y="-159.5" font-family="Helvetica,sans-Serif" font-size="10.00">;</text>
</g>
<!-- n15&#45;&gt;n27 -->
<g id="edge27" class="edge">
<title>n15&#45;&gt;n27</title>
<path fill="none" stroke="black" d="M818.51,-222.81C869.18,-214.23 939.43,-200.1 999,-180 1000.56,-179.48 1002.13,-178.9 1003.71,-178.29"/>
<polygon fill="black" stroke="black" points="1004.8,-181.64 1012.62,-174.5 1002.05,-175.2 1004.8,-181.64"/>
</g>
<!-- n22 -->
<g id="node23" class="node">
<title>n22</title>
<ellipse fill="#b2dfee" stroke="#b2dfee" cx="834" cy="-90" rx="31.4" ry="18"/>
<text text-anchor="middle" x="834" y="-87.5" font-family="Helvetica,sans-Serif" font-size="10.00">.toString</text>
</g>
<!-- n21&#45;&gt;n22 -->
<g id="edge22" class="edge">
<title>n21&#45;&gt;n22</title>
<path fill="none" stroke="black" d="M928.97,-147.34C910.81,-136.56 885.29,-121.43 865.28,-109.56"/>
<polygon fill="black" stroke="black" points="867.07,-106.55 856.69,-104.46 863.5,-112.57 867.07,-106.55"/>
</g>
<!-- n23 -->
<g id="node24" class="node">
<title>n23</title>
<ellipse fill="#b2dfee" stroke="#b2dfee" cx="910" cy="-90" rx="27" ry="18"/>
<text text-anchor="middle" x="910" y="-87.5" font-family="Helvetica,sans-Serif" font-size="10.00">(</text>
</g>
<!-- n21&#45;&gt;n23 -->
<g id="edge23" class="edge">
<title>n21&#45;&gt;n23</title>
<path fill="none" stroke="black" d="M942.05,-144.41C937.11,-136.19 931.04,-126.06 925.51,-116.85"/>
<polygon fill="black" stroke="black" points="928.52,-115.06 920.37,-108.29 922.52,-118.66 928.52,-115.06"/>
</g>
<!-- n24 -->
<g id="node25" class="node">
<title>n24</title>
<ellipse fill="#b2dfee" stroke="#b2dfee" cx="993" cy="-90" rx="37.85" ry="18"/>
<text text-anchor="middle" x="993" y="-87.5" font-family="Helvetica,sans-Serif" font-size="10.00">BOOLEAN</text>
</g>
<!-- n21&#45;&gt;n24 -->
<g id="edge24" class="edge">
<title>n21&#45;&gt;n24</title>
<path fill="none" stroke="black" d="M961.72,-144.41C966.47,-136.3 972.29,-126.35 977.63,-117.25"/>
<polygon fill="black" stroke="black" points="980.55,-119.17 982.59,-108.78 974.51,-115.64 980.55,-119.17"/>
</g>
<!-- n26 -->
<g id="node27" class="node">
<title>n26</title>
<ellipse fill="#b2dfee" stroke="#b2dfee" cx="1076" cy="-90" rx="27" ry="18"/>
<text text-anchor="middle" x="1076" y="-87.5" font-family="Helvetica,sans-Serif" font-size="10.00">)</text>
</g>
<!-- n21&#45;&gt;n26 -->
<g id="edge26" class="edge">
<title>n21&#45;&gt;n26</title>
<path fill="none" stroke="black" d="M975.91,-147.5C995.87,-136.24 1024.42,-120.12 1045.93,-107.97"/>
<polygon fill="black" stroke="black" points="1047.55,-111.08 1054.54,-103.12 1044.11,-104.99 1047.55,-111.08"/>
</g>
<!-- n25 -->
<g id="node26" class="node">
<title>n25</title>
<ellipse fill="#b2dfee" stroke="#b2dfee" cx="993" cy="-18" rx="27" ry="18"/>
<text text-anchor="middle" x="993" y="-15.5" font-family="Helvetica,sans-Serif" font-size="10.00">true</text>
</g>
<!-- n24&#45;&gt;n25 -->
<g id="edge25" class="edge">
<title>n24&#45;&gt;n25</title>
<path fill="none" stroke="black" d="M993,-71.7C993,-64.41 993,-55.73 993,-47.54"/>
<polygon fill="black" stroke="black" points="996.5,-47.62 993,-37.62 989.5,-47.62 996.5,-47.62"/>
</g>
</g>
</svg>
