<?xml version="1.0" encoding="UTF-8" standalone="no"?>
<!DOCTYPE svg PUBLIC "-//W3C//DTD SVG 1.1//EN"
 "http://www.w3.org/Graphics/SVG/1.1/DTD/svg11.dtd">
<!-- Generated by graphviz version 7.1.0 (20230121.1956)
 -->
<!-- Title: arbolAST Pages: 1 -->
<svg width="758pt" height="404pt"
 viewBox="0.00 0.00 758.00 404.00" xmlns="http://www.w3.org/2000/svg" xmlns:xlink="http://www.w3.org/1999/xlink">
<g id="graph0" class="graph" transform="scale(1 1) rotate(0) translate(4 400)">
<title>arbolAST</title>
<polygon fill="white" stroke="none" points="-4,4 -4,-400 754,-400 754,4 -4,4"/>
<!-- n0 -->
<g id="node1" class="node">
<title>n0</title>
<ellipse fill="#b2dfee" stroke="#b2dfee" cx="341" cy="-378" rx="27" ry="18"/>
<text text-anchor="middle" x="341" y="-375.5" font-family="Helvetica,sans-Serif" font-size="10.00">INICIO</text>
</g>
<!-- n1 -->
<g id="node2" class="node">
<title>n1</title>
<ellipse fill="#b2dfee" stroke="#b2dfee" cx="341" cy="-306" rx="55.85" ry="18"/>
<text text-anchor="middle" x="341" y="-303.5" font-family="Helvetica,sans-Serif" font-size="10.00">INSTRUCCIONES</text>
</g>
<!-- n0&#45;&gt;n1 -->
<g id="edge1" class="edge">
<title>n0&#45;&gt;n1</title>
<path fill="none" stroke="black" d="M341,-359.7C341,-352.41 341,-343.73 341,-335.54"/>
<polygon fill="black" stroke="black" points="344.5,-335.62 341,-325.62 337.5,-335.62 344.5,-335.62"/>
</g>
<!-- n2 -->
<g id="node3" class="node">
<title>n2</title>
<ellipse fill="#b2dfee" stroke="#b2dfee" cx="233" cy="-234" rx="32.93" ry="18"/>
<text text-anchor="middle" x="233" y="-231.5" font-family="Helvetica,sans-Serif" font-size="10.00">PRINTLN</text>
</g>
<!-- n1&#45;&gt;n2 -->
<g id="edge2" class="edge">
<title>n1&#45;&gt;n2</title>
<path fill="none" stroke="black" d="M317.03,-289.46C301.14,-279.16 280.15,-265.56 263.12,-254.53"/>
<polygon fill="black" stroke="black" points="265.19,-251.7 254.9,-249.19 261.39,-257.57 265.19,-251.7"/>
</g>
<!-- n13 -->
<g id="node14" class="node">
<title>n13</title>
<ellipse fill="#b2dfee" stroke="#b2dfee" cx="532" cy="-234" rx="32.93" ry="18"/>
<text text-anchor="middle" x="532" y="-231.5" font-family="Helvetica,sans-Serif" font-size="10.00">PRINTLN</text>
</g>
<!-- n1&#45;&gt;n13 -->
<g id="edge13" class="edge">
<title>n1&#45;&gt;n13</title>
<path fill="none" stroke="black" d="M376.93,-291.83C410.57,-279.5 460.63,-261.16 494.71,-248.67"/>
<polygon fill="black" stroke="black" points="495.56,-252.08 503.75,-245.35 493.15,-245.51 495.56,-252.08"/>
</g>
<!-- n3 -->
<g id="node4" class="node">
<title>n3</title>
<ellipse fill="#b2dfee" stroke="#b2dfee" cx="27" cy="-162" rx="27" ry="18"/>
<text text-anchor="middle" x="27" y="-159.5" font-family="Helvetica,sans-Serif" font-size="10.00">Println</text>
</g>
<!-- n2&#45;&gt;n3 -->
<g id="edge3" class="edge">
<title>n2&#45;&gt;n3</title>
<path fill="none" stroke="black" d="M203.7,-225.2C169.48,-215.79 111.39,-198.86 63,-180 61.47,-179.4 59.92,-178.77 58.35,-178.12"/>
<polygon fill="black" stroke="black" points="60.05,-175.04 49.49,-174.18 57.21,-181.44 60.05,-175.04"/>
</g>
<!-- n4 -->
<g id="node5" class="node">
<title>n4</title>
<ellipse fill="#b2dfee" stroke="#b2dfee" cx="99" cy="-162" rx="27" ry="18"/>
<text text-anchor="middle" x="99" y="-159.5" font-family="Helvetica,sans-Serif" font-size="10.00">(</text>
</g>
<!-- n2&#45;&gt;n4 -->
<g id="edge4" class="edge">
<title>n2&#45;&gt;n4</title>
<path fill="none" stroke="black" d="M209.66,-220.81C187.58,-209.27 154.3,-191.89 130,-179.2"/>
<polygon fill="black" stroke="black" points="131.7,-176.13 121.21,-174.6 128.46,-182.34 131.7,-176.13"/>
</g>
<!-- n5 -->
<g id="node6" class="node">
<title>n5</title>
<ellipse fill="#b2dfee" stroke="#b2dfee" cx="188" cy="-162" rx="43.62" ry="18"/>
<text text-anchor="middle" x="188" y="-159.5" font-family="Helvetica,sans-Serif" font-size="10.00">ARITMETICA</text>
</g>
<!-- n2&#45;&gt;n5 -->
<g id="edge5" class="edge">
<title>n2&#45;&gt;n5</title>
<path fill="none" stroke="black" d="M222.56,-216.76C217.3,-208.58 210.79,-198.45 204.84,-189.2"/>
<polygon fill="black" stroke="black" points="207.86,-187.43 199.51,-180.91 201.97,-191.21 207.86,-187.43"/>
</g>
<!-- n11 -->
<g id="node12" class="node">
<title>n11</title>
<ellipse fill="#b2dfee" stroke="#b2dfee" cx="277" cy="-162" rx="27" ry="18"/>
<text text-anchor="middle" x="277" y="-159.5" font-family="Helvetica,sans-Serif" font-size="10.00">)</text>
</g>
<!-- n2&#45;&gt;n11 -->
<g id="edge11" class="edge">
<title>n2&#45;&gt;n11</title>
<path fill="none" stroke="black" d="M243.21,-216.76C248.43,-208.46 254.9,-198.15 260.79,-188.79"/>
<polygon fill="black" stroke="black" points="263.69,-190.76 266.04,-180.43 257.76,-187.03 263.69,-190.76"/>
</g>
<!-- n12 -->
<g id="node13" class="node">
<title>n12</title>
<ellipse fill="#b2dfee" stroke="#b2dfee" cx="349" cy="-162" rx="27" ry="18"/>
<text text-anchor="middle" x="349" y="-159.5" font-family="Helvetica,sans-Serif" font-size="10.00">;</text>
</g>
<!-- n2&#45;&gt;n12 -->
<g id="edge12" class="edge">
<title>n2&#45;&gt;n12</title>
<path fill="none" stroke="black" d="M254.55,-220C272.93,-208.9 299.53,-192.85 319.82,-180.61"/>
<polygon fill="black" stroke="black" points="321.45,-183.71 328.2,-175.55 317.83,-177.72 321.45,-183.71"/>
</g>
<!-- n6 -->
<g id="node7" class="node">
<title>n6</title>
<ellipse fill="#b2dfee" stroke="#b2dfee" cx="116" cy="-90" rx="27" ry="18"/>
<text text-anchor="middle" x="116" y="-87.5" font-family="Helvetica,sans-Serif" font-size="10.00">INT</text>
</g>
<!-- n5&#45;&gt;n6 -->
<g id="edge6" class="edge">
<title>n5&#45;&gt;n6</title>
<path fill="none" stroke="black" d="M171.66,-145.12C161.97,-135.69 149.54,-123.61 138.88,-113.25"/>
<polygon fill="black" stroke="black" points="141.5,-110.91 131.89,-106.45 136.62,-115.93 141.5,-110.91"/>
</g>
<!-- n8 -->
<g id="node9" class="node">
<title>n8</title>
<ellipse fill="#b2dfee" stroke="#b2dfee" cx="188" cy="-90" rx="27" ry="18"/>
<text text-anchor="middle" x="188" y="-87.5" font-family="Helvetica,sans-Serif" font-size="10.00">/</text>
</g>
<!-- n5&#45;&gt;n8 -->
<g id="edge8" class="edge">
<title>n5&#45;&gt;n8</title>
<path fill="none" stroke="black" d="M188,-143.7C188,-136.41 188,-127.73 188,-119.54"/>
<polygon fill="black" stroke="black" points="191.5,-119.62 188,-109.62 184.5,-119.62 191.5,-119.62"/>
</g>
<!-- n9 -->
<g id="node10" class="node">
<title>n9</title>
<ellipse fill="#b2dfee" stroke="#b2dfee" cx="260" cy="-90" rx="27" ry="18"/>
<text text-anchor="middle" x="260" y="-87.5" font-family="Helvetica,sans-Serif" font-size="10.00">INT</text>
</g>
<!-- n5&#45;&gt;n9 -->
<g id="edge9" class="edge">
<title>n5&#45;&gt;n9</title>
<path fill="none" stroke="black" d="M204.34,-145.12C214.03,-135.69 226.46,-123.61 237.12,-113.25"/>
<polygon fill="black" stroke="black" points="239.38,-115.93 244.11,-106.45 234.5,-110.91 239.38,-115.93"/>
</g>
<!-- n7 -->
<g id="node8" class="node">
<title>n7</title>
<ellipse fill="#b2dfee" stroke="#b2dfee" cx="116" cy="-18" rx="27" ry="18"/>
<text text-anchor="middle" x="116" y="-15.5" font-family="Helvetica,sans-Serif" font-size="10.00">5</text>
</g>
<!-- n6&#45;&gt;n7 -->
<g id="edge7" class="edge">
<title>n6&#45;&gt;n7</title>
<path fill="none" stroke="black" d="M116,-71.7C116,-64.41 116,-55.73 116,-47.54"/>
<polygon fill="black" stroke="black" points="119.5,-47.62 116,-37.62 112.5,-47.62 119.5,-47.62"/>
</g>
<!-- n10 -->
<g id="node11" class="node">
<title>n10</title>
<ellipse fill="#b2dfee" stroke="#b2dfee" cx="260" cy="-18" rx="27" ry="18"/>
<text text-anchor="middle" x="260" y="-15.5" font-family="Helvetica,sans-Serif" font-size="10.00">0</text>
</g>
<!-- n9&#45;&gt;n10 -->
<g id="edge10" class="edge">
<title>n9&#45;&gt;n10</title>
<path fill="none" stroke="black" d="M260,-71.7C260,-64.41 260,-55.73 260,-47.54"/>
<polygon fill="black" stroke="black" points="263.5,-47.62 260,-37.62 256.5,-47.62 263.5,-47.62"/>
</g>
<!-- n14 -->
<g id="node15" class="node">
<title>n14</title>
<ellipse fill="#b2dfee" stroke="#b2dfee" cx="421" cy="-162" rx="27" ry="18"/>
<text text-anchor="middle" x="421" y="-159.5" font-family="Helvetica,sans-Serif" font-size="10.00">Println</text>
</g>
<!-- n13&#45;&gt;n14 -->
<g id="edge14" class="edge">
<title>n13&#45;&gt;n14</title>
<path fill="none" stroke="black" d="M510.86,-219.67C493.59,-208.77 468.99,-193.26 449.89,-181.22"/>
<polygon fill="black" stroke="black" points="451.81,-178.29 441.49,-175.92 448.08,-184.21 451.81,-178.29"/>
</g>
<!-- n15 -->
<g id="node16" class="node">
<title>n15</title>
<ellipse fill="#b2dfee" stroke="#b2dfee" cx="493" cy="-162" rx="27" ry="18"/>
<text text-anchor="middle" x="493" y="-159.5" font-family="Helvetica,sans-Serif" font-size="10.00">(</text>
</g>
<!-- n13&#45;&gt;n15 -->
<g id="edge15" class="edge">
<title>n13&#45;&gt;n15</title>
<path fill="none" stroke="black" d="M522.76,-216.41C518.18,-208.19 512.54,-198.06 507.4,-188.85"/>
<polygon fill="black" stroke="black" points="510.57,-187.34 502.64,-180.31 504.45,-190.75 510.57,-187.34"/>
</g>
<!-- n16 -->
<g id="node17" class="node">
<title>n16</title>
<ellipse fill="#b2dfee" stroke="#b2dfee" cx="572" cy="-162" rx="33.61" ry="18"/>
<text text-anchor="middle" x="572" y="-159.5" font-family="Helvetica,sans-Serif" font-size="10.00">CADENA</text>
</g>
<!-- n13&#45;&gt;n16 -->
<g id="edge16" class="edge">
<title>n13&#45;&gt;n16</title>
<path fill="none" stroke="black" d="M541.48,-216.41C546.11,-208.3 551.8,-198.35 557,-189.25"/>
<polygon fill="black" stroke="black" points="559.92,-191.2 561.84,-180.78 553.84,-187.73 559.92,-191.2"/>
</g>
<!-- n18 -->
<g id="node19" class="node">
<title>n18</title>
<ellipse fill="#b2dfee" stroke="#b2dfee" cx="651" cy="-162" rx="27" ry="18"/>
<text text-anchor="middle" x="651" y="-159.5" font-family="Helvetica,sans-Serif" font-size="10.00">)</text>
</g>
<!-- n13&#45;&gt;n18 -->
<g id="edge18" class="edge">
<title>n13&#45;&gt;n18</title>
<path fill="none" stroke="black" d="M553.83,-220.16C572.86,-208.97 600.62,-192.64 621.6,-180.29"/>
<polygon fill="black" stroke="black" points="623.14,-183.45 629.98,-175.36 619.59,-177.42 623.14,-183.45"/>
</g>
<!-- n19 -->
<g id="node20" class="node">
<title>n19</title>
<ellipse fill="#b2dfee" stroke="#b2dfee" cx="723" cy="-162" rx="27" ry="18"/>
<text text-anchor="middle" x="723" y="-159.5" font-family="Helvetica,sans-Serif" font-size="10.00">;</text>
</g>
<!-- n13&#45;&gt;n19 -->
<g id="edge19" class="edge">
<title>n13&#45;&gt;n19</title>
<path fill="none" stroke="black" d="M560.35,-224.36C591.7,-214.56 643.52,-197.64 687,-180 688.52,-179.38 690.07,-178.73 691.63,-178.06"/>
<polygon fill="black" stroke="black" points="692.79,-181.38 700.47,-174.09 689.92,-175 692.79,-181.38"/>
</g>
<!-- n17 -->
<g id="node18" class="node">
<title>n17</title>
<ellipse fill="#b2dfee" stroke="#b2dfee" cx="572" cy="-90" rx="39.38" ry="18"/>
<text text-anchor="middle" x="572" y="-87.5" font-family="Helvetica,sans-Serif" font-size="10.00">hola mundo</text>
</g>
<!-- n16&#45;&gt;n17 -->
<g id="edge17" class="edge">
<title>n16&#45;&gt;n17</title>
<path fill="none" stroke="black" d="M572,-143.7C572,-136.41 572,-127.73 572,-119.54"/>
<polygon fill="black" stroke="black" points="575.5,-119.62 572,-109.62 568.5,-119.62 575.5,-119.62"/>
</g>
</g>
</svg>
