<?xml version="1.0" encoding="UTF-8" standalone="no"?>
<!DOCTYPE svg PUBLIC "-//W3C//DTD SVG 1.1//EN"
 "http://www.w3.org/Graphics/SVG/1.1/DTD/svg11.dtd">
<!-- Generated by graphviz version 7.1.0 (20230121.1956)
 -->
<!-- Title: arbolAST Pages: 1 -->
<svg width="2023pt" height="476pt"
 viewBox="0.00 0.00 2023.00 476.00" xmlns="http://www.w3.org/2000/svg" xmlns:xlink="http://www.w3.org/1999/xlink">
<g id="graph0" class="graph" transform="scale(1 1) rotate(0) translate(4 472)">
<title>arbolAST</title>
<polygon fill="white" stroke="none" points="-4,4 -4,-472 2019,-472 2019,4 -4,4"/>
<!-- n0 -->
<g id="node1" class="node">
<title>n0</title>
<ellipse fill="#b2dfee" stroke="#b2dfee" cx="747" cy="-450" rx="27" ry="18"/>
<text text-anchor="middle" x="747" y="-447.5" font-family="Helvetica,sans-Serif" font-size="10.00">INICIO</text>
</g>
<!-- n1 -->
<g id="node2" class="node">
<title>n1</title>
<ellipse fill="#b2dfee" stroke="#b2dfee" cx="747" cy="-378" rx="55.85" ry="18"/>
<text text-anchor="middle" x="747" y="-375.5" font-family="Helvetica,sans-Serif" font-size="10.00">INSTRUCCIONES</text>
</g>
<!-- n0&#45;&gt;n1 -->
<g id="edge1" class="edge">
<title>n0&#45;&gt;n1</title>
<path fill="none" stroke="black" d="M747,-431.7C747,-424.41 747,-415.73 747,-407.54"/>
<polygon fill="black" stroke="black" points="750.5,-407.62 747,-397.62 743.5,-407.62 750.5,-407.62"/>
</g>
<!-- n2 -->
<g id="node3" class="node">
<title>n2</title>
<ellipse fill="#b2dfee" stroke="#b2dfee" cx="279" cy="-306" rx="85.89" ry="18"/>
<text text-anchor="middle" x="279" y="-303.5" font-family="Helvetica,sans-Serif" font-size="10.00">DECLARACION_VARIABLES</text>
</g>
<!-- n1&#45;&gt;n2 -->
<g id="edge2" class="edge">
<title>n1&#45;&gt;n2</title>
<path fill="none" stroke="black" d="M697.36,-369.58C616.46,-357.48 455.51,-333.4 358.53,-318.9"/>
<polygon fill="black" stroke="black" points="359.22,-315.46 348.82,-317.44 358.19,-322.38 359.22,-315.46"/>
</g>
<!-- n11 -->
<g id="node12" class="node">
<title>n11</title>
<ellipse fill="#b2dfee" stroke="#b2dfee" cx="747" cy="-306" rx="85.89" ry="18"/>
<text text-anchor="middle" x="747" y="-303.5" font-family="Helvetica,sans-Serif" font-size="10.00">DECLARACION_VARIABLES</text>
</g>
<!-- n1&#45;&gt;n11 -->
<g id="edge11" class="edge">
<title>n1&#45;&gt;n11</title>
<path fill="none" stroke="black" d="M747,-359.7C747,-352.41 747,-343.73 747,-335.54"/>
<polygon fill="black" stroke="black" points="750.5,-335.62 747,-325.62 743.5,-335.62 750.5,-335.62"/>
</g>
<!-- n20 -->
<g id="node21" class="node">
<title>n20</title>
<ellipse fill="#b2dfee" stroke="#b2dfee" cx="1242" cy="-306" rx="27" ry="18"/>
<text text-anchor="middle" x="1242" y="-303.5" font-family="Helvetica,sans-Serif" font-size="10.00">IF</text>
</g>
<!-- n1&#45;&gt;n20 -->
<g id="edge20" class="edge">
<title>n1&#45;&gt;n20</title>
<path fill="none" stroke="black" d="M797.19,-369.9C896.47,-355.86 1115.96,-324.82 1204.19,-312.35"/>
<polygon fill="black" stroke="black" points="1204.59,-315.83 1214,-310.96 1203.61,-308.89 1204.59,-315.83"/>
</g>
<!-- n3 -->
<g id="node4" class="node">
<title>n3</title>
<ellipse fill="#b2dfee" stroke="#b2dfee" cx="27" cy="-234" rx="27" ry="18"/>
<text text-anchor="middle" x="27" y="-231.5" font-family="Helvetica,sans-Serif" font-size="10.00">var</text>
</g>
<!-- n2&#45;&gt;n3 -->
<g id="edge3" class="edge">
<title>n2&#45;&gt;n3</title>
<path fill="none" stroke="black" d="M217.05,-293.25C173.34,-284.13 113.76,-270.01 63,-252 61.45,-251.45 59.88,-250.86 58.31,-250.23"/>
<polygon fill="black" stroke="black" points="59.98,-247.14 49.41,-246.39 57.2,-253.57 59.98,-247.14"/>
</g>
<!-- n4 -->
<g id="node5" class="node">
<title>n4</title>
<ellipse fill="#b2dfee" stroke="#b2dfee" cx="99" cy="-234" rx="27" ry="18"/>
<text text-anchor="middle" x="99" y="-231.5" font-family="Helvetica,sans-Serif" font-size="10.00">j</text>
</g>
<!-- n2&#45;&gt;n4 -->
<g id="edge4" class="edge">
<title>n2&#45;&gt;n4</title>
<path fill="none" stroke="black" d="M235.45,-290.1C206.68,-279.98 168.29,-265.95 135,-252 133.49,-251.37 131.94,-250.7 130.39,-250.02"/>
<polygon fill="black" stroke="black" points="132.11,-246.96 121.56,-246.01 129.21,-253.33 132.11,-246.96"/>
</g>
<!-- n5 -->
<g id="node6" class="node">
<title>n5</title>
<ellipse fill="#b2dfee" stroke="#b2dfee" cx="171" cy="-234" rx="27" ry="18"/>
<text text-anchor="middle" x="171" y="-231.5" font-family="Helvetica,sans-Serif" font-size="10.00">:</text>
</g>
<!-- n2&#45;&gt;n5 -->
<g id="edge5" class="edge">
<title>n2&#45;&gt;n5</title>
<path fill="none" stroke="black" d="M253.41,-288.41C237.14,-277.87 216.06,-264.21 199.29,-253.34"/>
<polygon fill="black" stroke="black" points="201.56,-250.63 191.26,-248.13 197.75,-256.51 201.56,-250.63"/>
</g>
<!-- n6 -->
<g id="node7" class="node">
<title>n6</title>
<ellipse fill="#b2dfee" stroke="#b2dfee" cx="243" cy="-234" rx="27" ry="18"/>
<text text-anchor="middle" x="243" y="-231.5" font-family="Helvetica,sans-Serif" font-size="10.00">INT</text>
</g>
<!-- n2&#45;&gt;n6 -->
<g id="edge6" class="edge">
<title>n2&#45;&gt;n6</title>
<path fill="none" stroke="black" d="M270.1,-287.7C266.02,-279.75 261.08,-270.16 256.55,-261.34"/>
<polygon fill="black" stroke="black" points="259.68,-259.78 252,-252.49 253.46,-262.98 259.68,-259.78"/>
</g>
<!-- n7 -->
<g id="node8" class="node">
<title>n7</title>
<ellipse fill="#b2dfee" stroke="#b2dfee" cx="315" cy="-234" rx="27" ry="18"/>
<text text-anchor="middle" x="315" y="-231.5" font-family="Helvetica,sans-Serif" font-size="10.00">=</text>
</g>
<!-- n2&#45;&gt;n7 -->
<g id="edge7" class="edge">
<title>n2&#45;&gt;n7</title>
<path fill="none" stroke="black" d="M287.9,-287.7C291.98,-279.75 296.92,-270.16 301.45,-261.34"/>
<polygon fill="black" stroke="black" points="304.54,-262.98 306,-252.49 298.32,-259.78 304.54,-262.98"/>
</g>
<!-- n8 -->
<g id="node9" class="node">
<title>n8</title>
<ellipse fill="#b2dfee" stroke="#b2dfee" cx="387" cy="-234" rx="27" ry="18"/>
<text text-anchor="middle" x="387" y="-231.5" font-family="Helvetica,sans-Serif" font-size="10.00">INT</text>
</g>
<!-- n2&#45;&gt;n8 -->
<g id="edge8" class="edge">
<title>n2&#45;&gt;n8</title>
<path fill="none" stroke="black" d="M304.59,-288.41C320.86,-277.87 341.94,-264.21 358.71,-253.34"/>
<polygon fill="black" stroke="black" points="360.25,-256.51 366.74,-248.13 356.44,-250.63 360.25,-256.51"/>
</g>
<!-- n10 -->
<g id="node11" class="node">
<title>n10</title>
<ellipse fill="#b2dfee" stroke="#b2dfee" cx="459" cy="-234" rx="27" ry="18"/>
<text text-anchor="middle" x="459" y="-231.5" font-family="Helvetica,sans-Serif" font-size="10.00">;</text>
</g>
<!-- n2&#45;&gt;n10 -->
<g id="edge10" class="edge">
<title>n2&#45;&gt;n10</title>
<path fill="none" stroke="black" d="M322.55,-290.1C351.32,-279.98 389.71,-265.95 423,-252 424.51,-251.37 426.06,-250.7 427.61,-250.02"/>
<polygon fill="black" stroke="black" points="428.79,-253.33 436.44,-246.01 425.89,-246.96 428.79,-253.33"/>
</g>
<!-- n9 -->
<g id="node10" class="node">
<title>n9</title>
<ellipse fill="#b2dfee" stroke="#b2dfee" cx="387" cy="-162" rx="27" ry="18"/>
<text text-anchor="middle" x="387" y="-159.5" font-family="Helvetica,sans-Serif" font-size="10.00">6</text>
</g>
<!-- n8&#45;&gt;n9 -->
<g id="edge9" class="edge">
<title>n8&#45;&gt;n9</title>
<path fill="none" stroke="black" d="M387,-215.7C387,-208.41 387,-199.73 387,-191.54"/>
<polygon fill="black" stroke="black" points="390.5,-191.62 387,-181.62 383.5,-191.62 390.5,-191.62"/>
</g>
<!-- n12 -->
<g id="node13" class="node">
<title>n12</title>
<ellipse fill="#b2dfee" stroke="#b2dfee" cx="531" cy="-234" rx="27" ry="18"/>
<text text-anchor="middle" x="531" y="-231.5" font-family="Helvetica,sans-Serif" font-size="10.00">var</text>
</g>
<!-- n11&#45;&gt;n12 -->
<g id="edge12" class="edge">
<title>n11&#45;&gt;n12</title>
<path fill="none" stroke="black" d="M693.51,-291.58C657.33,-281.94 608.71,-267.88 567,-252 565.47,-251.42 563.91,-250.79 562.34,-250.15"/>
<polygon fill="black" stroke="black" points="564.03,-247.07 553.47,-246.23 561.21,-253.47 564.03,-247.07"/>
</g>
<!-- n13 -->
<g id="node14" class="node">
<title>n13</title>
<ellipse fill="#b2dfee" stroke="#b2dfee" cx="603" cy="-234" rx="27" ry="18"/>
<text text-anchor="middle" x="603" y="-231.5" font-family="Helvetica,sans-Serif" font-size="10.00">k</text>
</g>
<!-- n11&#45;&gt;n13 -->
<g id="edge13" class="edge">
<title>n11&#45;&gt;n13</title>
<path fill="none" stroke="black" d="M713.96,-288.94C690.06,-277.32 657.95,-261.71 634.42,-250.28"/>
<polygon fill="black" stroke="black" points="636.16,-247.23 625.64,-246.01 633.1,-253.53 636.16,-247.23"/>
</g>
<!-- n14 -->
<g id="node15" class="node">
<title>n14</title>
<ellipse fill="#b2dfee" stroke="#b2dfee" cx="675" cy="-234" rx="27" ry="18"/>
<text text-anchor="middle" x="675" y="-231.5" font-family="Helvetica,sans-Serif" font-size="10.00">:</text>
</g>
<!-- n11&#45;&gt;n14 -->
<g id="edge14" class="edge">
<title>n11&#45;&gt;n14</title>
<path fill="none" stroke="black" d="M729.57,-288.05C720.08,-278.82 708.21,-267.29 697.97,-257.33"/>
<polygon fill="black" stroke="black" points="700.53,-254.94 690.92,-250.48 695.65,-259.96 700.53,-254.94"/>
</g>
<!-- n15 -->
<g id="node16" class="node">
<title>n15</title>
<ellipse fill="#b2dfee" stroke="#b2dfee" cx="747" cy="-234" rx="27" ry="18"/>
<text text-anchor="middle" x="747" y="-231.5" font-family="Helvetica,sans-Serif" font-size="10.00">INT</text>
</g>
<!-- n11&#45;&gt;n15 -->
<g id="edge15" class="edge">
<title>n11&#45;&gt;n15</title>
<path fill="none" stroke="black" d="M747,-287.7C747,-280.41 747,-271.73 747,-263.54"/>
<polygon fill="black" stroke="black" points="750.5,-263.62 747,-253.62 743.5,-263.62 750.5,-263.62"/>
</g>
<!-- n16 -->
<g id="node17" class="node">
<title>n16</title>
<ellipse fill="#b2dfee" stroke="#b2dfee" cx="819" cy="-234" rx="27" ry="18"/>
<text text-anchor="middle" x="819" y="-231.5" font-family="Helvetica,sans-Serif" font-size="10.00">=</text>
</g>
<!-- n11&#45;&gt;n16 -->
<g id="edge16" class="edge">
<title>n11&#45;&gt;n16</title>
<path fill="none" stroke="black" d="M764.43,-288.05C773.92,-278.82 785.79,-267.29 796.03,-257.33"/>
<polygon fill="black" stroke="black" points="798.35,-259.96 803.08,-250.48 793.47,-254.94 798.35,-259.96"/>
</g>
<!-- n17 -->
<g id="node18" class="node">
<title>n17</title>
<ellipse fill="#b2dfee" stroke="#b2dfee" cx="891" cy="-234" rx="27" ry="18"/>
<text text-anchor="middle" x="891" y="-231.5" font-family="Helvetica,sans-Serif" font-size="10.00">INT</text>
</g>
<!-- n11&#45;&gt;n17 -->
<g id="edge17" class="edge">
<title>n11&#45;&gt;n17</title>
<path fill="none" stroke="black" d="M780.04,-288.94C803.94,-277.32 836.05,-261.71 859.58,-250.28"/>
<polygon fill="black" stroke="black" points="860.9,-253.53 868.36,-246.01 857.84,-247.23 860.9,-253.53"/>
</g>
<!-- n19 -->
<g id="node20" class="node">
<title>n19</title>
<ellipse fill="#b2dfee" stroke="#b2dfee" cx="963" cy="-234" rx="27" ry="18"/>
<text text-anchor="middle" x="963" y="-231.5" font-family="Helvetica,sans-Serif" font-size="10.00">;</text>
</g>
<!-- n11&#45;&gt;n19 -->
<g id="edge19" class="edge">
<title>n11&#45;&gt;n19</title>
<path fill="none" stroke="black" d="M800.49,-291.58C836.67,-281.94 885.29,-267.88 927,-252 928.53,-251.42 930.09,-250.79 931.66,-250.15"/>
<polygon fill="black" stroke="black" points="932.79,-253.47 940.53,-246.23 929.97,-247.07 932.79,-253.47"/>
</g>
<!-- n18 -->
<g id="node19" class="node">
<title>n18</title>
<ellipse fill="#b2dfee" stroke="#b2dfee" cx="891" cy="-162" rx="27" ry="18"/>
<text text-anchor="middle" x="891" y="-159.5" font-family="Helvetica,sans-Serif" font-size="10.00">10</text>
</g>
<!-- n17&#45;&gt;n18 -->
<g id="edge18" class="edge">
<title>n17&#45;&gt;n18</title>
<path fill="none" stroke="black" d="M891,-215.7C891,-208.41 891,-199.73 891,-191.54"/>
<polygon fill="black" stroke="black" points="894.5,-191.62 891,-181.62 887.5,-191.62 894.5,-191.62"/>
</g>
<!-- n21 -->
<g id="node22" class="node">
<title>n21</title>
<ellipse fill="#b2dfee" stroke="#b2dfee" cx="1035" cy="-234" rx="27" ry="18"/>
<text text-anchor="middle" x="1035" y="-231.5" font-family="Helvetica,sans-Serif" font-size="10.00">if</text>
</g>
<!-- n20&#45;&gt;n21 -->
<g id="edge21" class="edge">
<title>n20&#45;&gt;n21</title>
<path fill="none" stroke="black" d="M1216.99,-298.44C1183.34,-289.34 1121.84,-271.77 1071,-252 1069.47,-251.41 1067.91,-250.77 1066.35,-250.12"/>
<polygon fill="black" stroke="black" points="1068.05,-247.04 1057.49,-246.19 1065.21,-253.44 1068.05,-247.04"/>
</g>
<!-- n22 -->
<g id="node23" class="node">
<title>n22</title>
<ellipse fill="#b2dfee" stroke="#b2dfee" cx="1107" cy="-234" rx="27" ry="18"/>
<text text-anchor="middle" x="1107" y="-231.5" font-family="Helvetica,sans-Serif" font-size="10.00">(</text>
</g>
<!-- n20&#45;&gt;n22 -->
<g id="edge22" class="edge">
<title>n20&#45;&gt;n22</title>
<path fill="none" stroke="black" d="M1221.2,-294.22C1198.84,-282.62 1163.07,-264.07 1137.52,-250.82"/>
<polygon fill="black" stroke="black" points="1139.43,-247.87 1128.94,-246.38 1136.21,-254.09 1139.43,-247.87"/>
</g>
<!-- n23 -->
<g id="node24" class="node">
<title>n23</title>
<ellipse fill="#b2dfee" stroke="#b2dfee" cx="1197" cy="-234" rx="45.15" ry="18"/>
<text text-anchor="middle" x="1197" y="-231.5" font-family="Helvetica,sans-Serif" font-size="10.00">RELACIONAL</text>
</g>
<!-- n20&#45;&gt;n23 -->
<g id="edge23" class="edge">
<title>n20&#45;&gt;n23</title>
<path fill="none" stroke="black" d="M1231.79,-289.12C1226.53,-280.94 1219.99,-270.76 1213.99,-261.44"/>
<polygon fill="black" stroke="black" points="1216.97,-259.59 1208.62,-253.07 1211.08,-263.37 1216.97,-259.59"/>
</g>
<!-- n29 -->
<g id="node30" class="node">
<title>n29</title>
<ellipse fill="#b2dfee" stroke="#b2dfee" cx="1287" cy="-234" rx="27" ry="18"/>
<text text-anchor="middle" x="1287" y="-231.5" font-family="Helvetica,sans-Serif" font-size="10.00">)</text>
</g>
<!-- n20&#45;&gt;n29 -->
<g id="edge29" class="edge">
<title>n20&#45;&gt;n29</title>
<path fill="none" stroke="black" d="M1252.21,-289.12C1257.68,-280.61 1264.54,-269.94 1270.72,-260.32"/>
<polygon fill="black" stroke="black" points="1273.55,-262.4 1276.01,-252.09 1267.66,-258.61 1273.55,-262.4"/>
</g>
<!-- n30 -->
<g id="node31" class="node">
<title>n30</title>
<ellipse fill="#b2dfee" stroke="#b2dfee" cx="1359" cy="-234" rx="27" ry="18"/>
<text text-anchor="middle" x="1359" y="-231.5" font-family="Helvetica,sans-Serif" font-size="10.00">{</text>
</g>
<!-- n20&#45;&gt;n30 -->
<g id="edge30" class="edge">
<title>n20&#45;&gt;n30</title>
<path fill="none" stroke="black" d="M1261.58,-293.28C1280.14,-282.18 1308.27,-265.35 1329.54,-252.63"/>
<polygon fill="black" stroke="black" points="1331.27,-255.67 1338.05,-247.53 1327.68,-249.66 1331.27,-255.67"/>
</g>
<!-- n31 -->
<g id="node32" class="node">
<title>n31</title>
<ellipse fill="#b2dfee" stroke="#b2dfee" cx="1431" cy="-234" rx="27" ry="18"/>
<text text-anchor="middle" x="1431" y="-231.5" font-family="Helvetica,sans-Serif" font-size="10.00">IF</text>
</g>
<!-- n20&#45;&gt;n31 -->
<g id="edge31" class="edge">
<title>n20&#45;&gt;n31</title>
<path fill="none" stroke="black" d="M1266.15,-297.52C1296.55,-287.91 1350.23,-270.26 1395,-252 1396.52,-251.38 1398.07,-250.73 1399.63,-250.06"/>
<polygon fill="black" stroke="black" points="1400.79,-253.37 1408.47,-246.07 1397.91,-246.99 1400.79,-253.37"/>
</g>
<!-- n44 -->
<g id="node45" class="node">
<title>n44</title>
<ellipse fill="#b2dfee" stroke="#b2dfee" cx="1503" cy="-234" rx="27" ry="18"/>
<text text-anchor="middle" x="1503" y="-231.5" font-family="Helvetica,sans-Serif" font-size="10.00">}</text>
</g>
<!-- n20&#45;&gt;n44 -->
<g id="edge44" class="edge">
<title>n20&#45;&gt;n44</title>
<path fill="none" stroke="black" d="M1268.15,-300.68C1310.62,-293.27 1396.91,-276.5 1467,-252 1468.55,-251.46 1470.12,-250.87 1471.7,-250.25"/>
<polygon fill="black" stroke="black" points="1472.8,-253.59 1480.6,-246.42 1470.03,-247.16 1472.8,-253.59"/>
</g>
<!-- n24 -->
<g id="node25" class="node">
<title>n24</title>
<ellipse fill="#b2dfee" stroke="#b2dfee" cx="1037" cy="-162" rx="77.23" ry="18"/>
<text text-anchor="middle" x="1037" y="-159.5" font-family="Helvetica,sans-Serif" font-size="10.00">RECUPERAR_VARIABLE</text>
</g>
<!-- n23&#45;&gt;n24 -->
<g id="edge24" class="edge">
<title>n23&#45;&gt;n24</title>
<path fill="none" stroke="black" d="M1167.28,-220C1143.51,-209.6 1109.77,-194.84 1082.58,-182.94"/>
<polygon fill="black" stroke="black" points="1084.09,-179.78 1073.53,-178.98 1081.28,-186.19 1084.09,-179.78"/>
</g>
<!-- n26 -->
<g id="node27" class="node">
<title>n26</title>
<ellipse fill="#b2dfee" stroke="#b2dfee" cx="1159" cy="-162" rx="27" ry="18"/>
<text text-anchor="middle" x="1159" y="-159.5" font-family="Helvetica,sans-Serif" font-size="10.00">&lt;=</text>
</g>
<!-- n23&#45;&gt;n26 -->
<g id="edge26" class="edge">
<title>n23&#45;&gt;n26</title>
<path fill="none" stroke="black" d="M1187.8,-216.05C1183.44,-208.03 1178.14,-198.26 1173.28,-189.3"/>
<polygon fill="black" stroke="black" points="1176.42,-187.76 1168.57,-180.64 1170.27,-191.1 1176.42,-187.76"/>
</g>
<!-- n27 -->
<g id="node28" class="node">
<title>n27</title>
<ellipse fill="#b2dfee" stroke="#b2dfee" cx="1281" cy="-162" rx="77.23" ry="18"/>
<text text-anchor="middle" x="1281" y="-159.5" font-family="Helvetica,sans-Serif" font-size="10.00">RECUPERAR_VARIABLE</text>
</g>
<!-- n23&#45;&gt;n27 -->
<g id="edge27" class="edge">
<title>n23&#45;&gt;n27</title>
<path fill="none" stroke="black" d="M1215.64,-217.46C1226.35,-208.54 1240.03,-197.14 1252.1,-187.08"/>
<polygon fill="black" stroke="black" points="1254.34,-189.77 1259.78,-180.68 1249.86,-184.4 1254.34,-189.77"/>
</g>
<!-- n25 -->
<g id="node26" class="node">
<title>n25</title>
<ellipse fill="#b2dfee" stroke="#b2dfee" cx="1037" cy="-90" rx="27" ry="18"/>
<text text-anchor="middle" x="1037" y="-87.5" font-family="Helvetica,sans-Serif" font-size="10.00">j</text>
</g>
<!-- n24&#45;&gt;n25 -->
<g id="edge25" class="edge">
<title>n24&#45;&gt;n25</title>
<path fill="none" stroke="black" d="M1037,-143.7C1037,-136.41 1037,-127.73 1037,-119.54"/>
<polygon fill="black" stroke="black" points="1040.5,-119.62 1037,-109.62 1033.5,-119.62 1040.5,-119.62"/>
</g>
<!-- n28 -->
<g id="node29" class="node">
<title>n28</title>
<ellipse fill="#b2dfee" stroke="#b2dfee" cx="1281" cy="-90" rx="27" ry="18"/>
<text text-anchor="middle" x="1281" y="-87.5" font-family="Helvetica,sans-Serif" font-size="10.00">k</text>
</g>
<!-- n27&#45;&gt;n28 -->
<g id="edge28" class="edge">
<title>n27&#45;&gt;n28</title>
<path fill="none" stroke="black" d="M1281,-143.7C1281,-136.41 1281,-127.73 1281,-119.54"/>
<polygon fill="black" stroke="black" points="1284.5,-119.62 1281,-109.62 1277.5,-119.62 1284.5,-119.62"/>
</g>
<!-- n32 -->
<g id="node33" class="node">
<title>n32</title>
<ellipse fill="#b2dfee" stroke="#b2dfee" cx="1406" cy="-162" rx="29.37" ry="18"/>
<text text-anchor="middle" x="1406" y="-159.5" font-family="Helvetica,sans-Serif" font-size="10.00">MATCH</text>
</g>
<!-- n31&#45;&gt;n32 -->
<g id="edge32" class="edge">
<title>n31&#45;&gt;n32</title>
<path fill="none" stroke="black" d="M1424.95,-216.05C1422.22,-208.4 1418.92,-199.16 1415.84,-190.56"/>
<polygon fill="black" stroke="black" points="1419.16,-189.45 1412.51,-181.21 1412.57,-191.81 1419.16,-189.45"/>
</g>
<!-- n33 -->
<g id="node34" class="node">
<title>n33</title>
<ellipse fill="#b2dfee" stroke="#b2dfee" cx="1488" cy="-162" rx="34.29" ry="18"/>
<text text-anchor="middle" x="1488" y="-159.5" font-family="Helvetica,sans-Serif" font-size="10.00">INC_DEC</text>
</g>
<!-- n31&#45;&gt;n33 -->
<g id="edge33" class="edge">
<title>n31&#45;&gt;n33</title>
<path fill="none" stroke="black" d="M1443.37,-217.81C1450.59,-208.94 1459.87,-197.55 1468.09,-187.45"/>
<polygon fill="black" stroke="black" points="1470.71,-189.78 1474.31,-179.82 1465.28,-185.36 1470.71,-189.78"/>
</g>
<!-- n37 -->
<g id="node38" class="node">
<title>n37</title>
<ellipse fill="#b2dfee" stroke="#b2dfee" cx="1733" cy="-162" rx="32.93" ry="18"/>
<text text-anchor="middle" x="1733" y="-159.5" font-family="Helvetica,sans-Serif" font-size="10.00">PRINTLN</text>
</g>
<!-- n31&#45;&gt;n37 -->
<g id="edge37" class="edge">
<title>n31&#45;&gt;n37</title>
<path fill="none" stroke="black" d="M1451.97,-222.05C1456.81,-219.81 1462.01,-217.65 1467,-216 1543.44,-190.76 1636.41,-175.59 1689.75,-168.3"/>
<polygon fill="black" stroke="black" points="1689.87,-171.82 1699.32,-167.03 1688.95,-164.88 1689.87,-171.82"/>
</g>
<!-- n34 -->
<g id="node35" class="node">
<title>n34</title>
<ellipse fill="#b2dfee" stroke="#b2dfee" cx="1384" cy="-90" rx="27" ry="18"/>
<text text-anchor="middle" x="1384" y="-87.5" font-family="Helvetica,sans-Serif" font-size="10.00">j</text>
</g>
<!-- n33&#45;&gt;n34 -->
<g id="edge34" class="edge">
<title>n33&#45;&gt;n34</title>
<path fill="none" stroke="black" d="M1467.45,-147.17C1451.47,-136.41 1429.14,-121.38 1411.59,-109.57"/>
<polygon fill="black" stroke="black" points="1413.92,-106.92 1403.67,-104.24 1410.01,-112.73 1413.92,-106.92"/>
</g>
<!-- n35 -->
<g id="node36" class="node">
<title>n35</title>
<ellipse fill="#b2dfee" stroke="#b2dfee" cx="1456" cy="-90" rx="27" ry="18"/>
<text text-anchor="middle" x="1456" y="-87.5" font-family="Helvetica,sans-Serif" font-size="10.00">++</text>
</g>
<!-- n33&#45;&gt;n35 -->
<g id="edge35" class="edge">
<title>n33&#45;&gt;n35</title>
<path fill="none" stroke="black" d="M1480.25,-144.05C1476.62,-136.12 1472.21,-126.47 1468.16,-117.59"/>
<polygon fill="black" stroke="black" points="1471.42,-116.32 1464.08,-108.68 1465.06,-119.23 1471.42,-116.32"/>
</g>
<!-- n36 -->
<g id="node37" class="node">
<title>n36</title>
<ellipse fill="#b2dfee" stroke="#b2dfee" cx="1528" cy="-90" rx="27" ry="18"/>
<text text-anchor="middle" x="1528" y="-87.5" font-family="Helvetica,sans-Serif" font-size="10.00">;</text>
</g>
<!-- n33&#45;&gt;n36 -->
<g id="edge36" class="edge">
<title>n33&#45;&gt;n36</title>
<path fill="none" stroke="black" d="M1497.48,-144.41C1502.18,-136.19 1507.96,-126.06 1513.23,-116.85"/>
<polygon fill="black" stroke="black" points="1516.19,-118.72 1518.11,-108.3 1510.11,-115.25 1516.19,-118.72"/>
</g>
<!-- n38 -->
<g id="node39" class="node">
<title>n38</title>
<ellipse fill="#b2dfee" stroke="#b2dfee" cx="1600" cy="-90" rx="27" ry="18"/>
<text text-anchor="middle" x="1600" y="-87.5" font-family="Helvetica,sans-Serif" font-size="10.00">Println</text>
</g>
<!-- n37&#45;&gt;n38 -->
<g id="edge38" class="edge">
<title>n37&#45;&gt;n38</title>
<path fill="none" stroke="black" d="M1709.83,-148.81C1687.92,-137.27 1654.89,-119.89 1630.77,-107.2"/>
<polygon fill="black" stroke="black" points="1632.54,-104.17 1622.06,-102.61 1629.28,-110.36 1632.54,-104.17"/>
</g>
<!-- n39 -->
<g id="node40" class="node">
<title>n39</title>
<ellipse fill="#b2dfee" stroke="#b2dfee" cx="1672" cy="-90" rx="27" ry="18"/>
<text text-anchor="middle" x="1672" y="-87.5" font-family="Helvetica,sans-Serif" font-size="10.00">(</text>
</g>
<!-- n37&#45;&gt;n39 -->
<g id="edge39" class="edge">
<title>n37&#45;&gt;n39</title>
<path fill="none" stroke="black" d="M1719.46,-145.46C1711.54,-136.37 1701.37,-124.7 1692.48,-114.5"/>
<polygon fill="black" stroke="black" points="1695.28,-112.39 1686.08,-107.15 1690.01,-116.99 1695.28,-112.39"/>
</g>
<!-- n40 -->
<g id="node41" class="node">
<title>n40</title>
<ellipse fill="#b2dfee" stroke="#b2dfee" cx="1794" cy="-90" rx="77.23" ry="18"/>
<text text-anchor="middle" x="1794" y="-87.5" font-family="Helvetica,sans-Serif" font-size="10.00">RECUPERAR_VARIABLE</text>
</g>
<!-- n37&#45;&gt;n40 -->
<g id="edge40" class="edge">
<title>n37&#45;&gt;n40</title>
<path fill="none" stroke="black" d="M1746.54,-145.46C1753.95,-136.95 1763.33,-126.19 1771.79,-116.48"/>
<polygon fill="black" stroke="black" points="1774.29,-118.94 1778.22,-109.1 1769.02,-114.34 1774.29,-118.94"/>
</g>
<!-- n42 -->
<g id="node43" class="node">
<title>n42</title>
<ellipse fill="#b2dfee" stroke="#b2dfee" cx="1916" cy="-90" rx="27" ry="18"/>
<text text-anchor="middle" x="1916" y="-87.5" font-family="Helvetica,sans-Serif" font-size="10.00">)</text>
</g>
<!-- n37&#45;&gt;n42 -->
<g id="edge42" class="edge">
<title>n37&#45;&gt;n42</title>
<path fill="none" stroke="black" d="M1760.66,-151.9C1790.44,-141.91 1839.04,-125.01 1880,-108 1881.52,-107.37 1883.06,-106.71 1884.62,-106.03"/>
<polygon fill="black" stroke="black" points="1885.79,-109.35 1893.45,-102.03 1882.9,-102.97 1885.79,-109.35"/>
</g>
<!-- n43 -->
<g id="node44" class="node">
<title>n43</title>
<ellipse fill="#b2dfee" stroke="#b2dfee" cx="1988" cy="-90" rx="27" ry="18"/>
<text text-anchor="middle" x="1988" y="-87.5" font-family="Helvetica,sans-Serif" font-size="10.00">;</text>
</g>
<!-- n37&#45;&gt;n43 -->
<g id="edge43" class="edge">
<title>n37&#45;&gt;n43</title>
<path fill="none" stroke="black" d="M1764.04,-155.56C1807.01,-147.56 1886.71,-131.05 1952,-108 1953.55,-107.45 1955.12,-106.86 1956.69,-106.24"/>
<polygon fill="black" stroke="black" points="1957.8,-109.58 1965.59,-102.4 1955.02,-103.15 1957.8,-109.58"/>
</g>
<!-- n41 -->
<g id="node42" class="node">
<title>n41</title>
<ellipse fill="#b2dfee" stroke="#b2dfee" cx="1794" cy="-18" rx="27" ry="18"/>
<text text-anchor="middle" x="1794" y="-15.5" font-family="Helvetica,sans-Serif" font-size="10.00">j</text>
</g>
<!-- n40&#45;&gt;n41 -->
<g id="edge41" class="edge">
<title>n40&#45;&gt;n41</title>
<path fill="none" stroke="black" d="M1794,-71.7C1794,-64.41 1794,-55.73 1794,-47.54"/>
<polygon fill="black" stroke="black" points="1797.5,-47.62 1794,-37.62 1790.5,-47.62 1797.5,-47.62"/>
</g>
</g>
</svg>
