<?xml version="1.0" encoding="UTF-8" standalone="no"?>
<!DOCTYPE svg PUBLIC "-//W3C//DTD SVG 1.1//EN"
 "http://www.w3.org/Graphics/SVG/1.1/DTD/svg11.dtd">
<!-- Generated by graphviz version 7.1.0 (20230121.1956)
 -->
<!-- Title: arbolAST Pages: 1 -->
<svg width="2271pt" height="260pt"
 viewBox="0.00 0.00 2270.67 260.00" xmlns="http://www.w3.org/2000/svg" xmlns:xlink="http://www.w3.org/1999/xlink">
<g id="graph0" class="graph" transform="scale(1 1) rotate(0) translate(4 256)">
<title>arbolAST</title>
<polygon fill="white" stroke="none" points="-4,4 -4,-256 2266.67,-256 2266.67,4 -4,4"/>
<!-- n0 -->
<g id="node1" class="node">
<title>n0</title>
<ellipse fill="#b2dfee" stroke="#b2dfee" cx="1010.67" cy="-234" rx="27" ry="18"/>
<text text-anchor="middle" x="1010.67" y="-231.5" font-family="Helvetica,sans-Serif" font-size="10.00">INICIO</text>
</g>
<!-- n1 -->
<g id="node2" class="node">
<title>n1</title>
<ellipse fill="#b2dfee" stroke="#b2dfee" cx="1010.67" cy="-162" rx="55.85" ry="18"/>
<text text-anchor="middle" x="1010.67" y="-159.5" font-family="Helvetica,sans-Serif" font-size="10.00">INSTRUCCIONES</text>
</g>
<!-- n0&#45;&gt;n1 -->
<g id="edge1" class="edge">
<title>n0&#45;&gt;n1</title>
<path fill="none" stroke="black" d="M1010.67,-215.7C1010.67,-208.41 1010.67,-199.73 1010.67,-191.54"/>
<polygon fill="black" stroke="black" points="1014.17,-191.62 1010.67,-181.62 1007.17,-191.62 1014.17,-191.62"/>
</g>
<!-- n2 -->
<g id="node3" class="node">
<title>n2</title>
<ellipse fill="#b2dfee" stroke="#b2dfee" cx="270.67" cy="-90" rx="31.58" ry="18"/>
<text text-anchor="middle" x="270.67" y="-87.5" font-family="Helvetica,sans-Serif" font-size="10.00">STRUCT</text>
</g>
<!-- n1&#45;&gt;n2 -->
<g id="edge2" class="edge">
<title>n1&#45;&gt;n2</title>
<path fill="none" stroke="black" d="M957.45,-155.97C817.17,-142.7 439.43,-106.96 312.74,-94.98"/>
<polygon fill="black" stroke="black" points="313.42,-91.53 303.13,-94.07 312.76,-98.5 313.42,-91.53"/>
</g>
<!-- n8 -->
<g id="node9" class="node">
<title>n8</title>
<ellipse fill="#b2dfee" stroke="#b2dfee" cx="783.67" cy="-90" rx="31.58" ry="18"/>
<text text-anchor="middle" x="783.67" y="-87.5" font-family="Helvetica,sans-Serif" font-size="10.00">STRUCT</text>
</g>
<!-- n1&#45;&gt;n8 -->
<g id="edge8" class="edge">
<title>n1&#45;&gt;n8</title>
<path fill="none" stroke="black" d="M971.39,-148.89C929.42,-135.95 863.36,-115.58 821.83,-102.77"/>
<polygon fill="black" stroke="black" points="823.1,-99.5 812.51,-99.89 821.04,-106.19 823.1,-99.5"/>
</g>
<!-- n15 -->
<g id="node16" class="node">
<title>n15</title>
<ellipse fill="#b2dfee" stroke="#b2dfee" cx="1238.67" cy="-90" rx="44.3" ry="18"/>
<text text-anchor="middle" x="1238.67" y="-87.5" font-family="Helvetica,sans-Serif" font-size="10.00">INSTSTRUCT</text>
</g>
<!-- n1&#45;&gt;n15 -->
<g id="edge15" class="edge">
<title>n1&#45;&gt;n15</title>
<path fill="none" stroke="black" d="M1050.12,-148.89C1089.93,-136.66 1151.34,-117.81 1193.18,-104.96"/>
<polygon fill="black" stroke="black" points="1194.19,-108.32 1202.72,-102.04 1192.13,-101.63 1194.19,-108.32"/>
</g>
<!-- n22 -->
<g id="node23" class="node">
<title>n22</title>
<ellipse fill="#b2dfee" stroke="#b2dfee" cx="1852.67" cy="-90" rx="44.3" ry="18"/>
<text text-anchor="middle" x="1852.67" y="-87.5" font-family="Helvetica,sans-Serif" font-size="10.00">INSTSTRUCT</text>
</g>
<!-- n1&#45;&gt;n22 -->
<g id="edge22" class="edge">
<title>n1&#45;&gt;n22</title>
<path fill="none" stroke="black" d="M1064.3,-156.54C1215.75,-143.95 1645.58,-108.22 1798.13,-95.53"/>
<polygon fill="black" stroke="black" points="1798.3,-99.03 1807.97,-94.72 1797.72,-92.06 1798.3,-99.03"/>
</g>
<!-- n3 -->
<g id="node4" class="node">
<title>n3</title>
<ellipse fill="#b2dfee" stroke="#b2dfee" cx="27.67" cy="-18" rx="27.84" ry="18"/>
<text text-anchor="middle" x="27.67" y="-15.5" font-family="Helvetica,sans-Serif" font-size="10.00">struct {</text>
</g>
<!-- n2&#45;&gt;n3 -->
<g id="edge3" class="edge">
<title>n2&#45;&gt;n3</title>
<path fill="none" stroke="black" d="M241,-83.26C200.32,-74.98 125.26,-58.2 63.67,-36 62.31,-35.51 60.94,-34.99 59.57,-34.45"/>
<polygon fill="black" stroke="black" points="61.04,-31.27 50.48,-30.53 58.27,-37.7 61.04,-31.27"/>
</g>
<!-- n4 -->
<g id="node5" class="node">
<title>n4</title>
<ellipse fill="#b2dfee" stroke="#b2dfee" cx="130.67" cy="-18" rx="57.88" ry="18"/>
<text text-anchor="middle" x="130.67" y="-15.5" font-family="Helvetica,sans-Serif" font-size="10.00">nombre : CADENA</text>
</g>
<!-- n2&#45;&gt;n4 -->
<g id="edge4" class="edge">
<title>n2&#45;&gt;n4</title>
<path fill="none" stroke="black" d="M247.55,-77.44C226.69,-67.01 195.54,-51.44 170.65,-38.99"/>
<polygon fill="black" stroke="black" points="172.27,-35.89 161.76,-34.55 169.14,-42.15 172.27,-35.89"/>
</g>
<!-- n5 -->
<g id="node6" class="node">
<title>n5</title>
<ellipse fill="#b2dfee" stroke="#b2dfee" cx="233.67" cy="-18" rx="27.84" ry="18"/>
<text text-anchor="middle" x="233.67" y="-15.5" font-family="Helvetica,sans-Serif" font-size="10.00">id : INT</text>
</g>
<!-- n2&#45;&gt;n5 -->
<g id="edge5" class="edge">
<title>n2&#45;&gt;n5</title>
<path fill="none" stroke="black" d="M261.9,-72.41C257.66,-64.39 252.47,-54.57 247.7,-45.54"/>
<polygon fill="black" stroke="black" points="250.85,-44.01 243.08,-36.81 244.66,-47.28 250.85,-44.01"/>
</g>
<!-- n6 -->
<g id="node7" class="node">
<title>n6</title>
<ellipse fill="#b2dfee" stroke="#b2dfee" cx="306.67" cy="-18" rx="27" ry="18"/>
<text text-anchor="middle" x="306.67" y="-15.5" font-family="Helvetica,sans-Serif" font-size="10.00">}</text>
</g>
<!-- n2&#45;&gt;n6 -->
<g id="edge6" class="edge">
<title>n2&#45;&gt;n6</title>
<path fill="none" stroke="black" d="M279.2,-72.41C283.32,-64.39 288.38,-54.57 293.02,-45.54"/>
<polygon fill="black" stroke="black" points="296.04,-47.31 297.5,-36.82 289.82,-44.11 296.04,-47.31"/>
</g>
<!-- n7 -->
<g id="node8" class="node">
<title>n7</title>
<ellipse fill="#b2dfee" stroke="#b2dfee" cx="378.67" cy="-18" rx="27" ry="18"/>
<text text-anchor="middle" x="378.67" y="-15.5" font-family="Helvetica,sans-Serif" font-size="10.00">curso</text>
</g>
<!-- n2&#45;&gt;n7 -->
<g id="edge7" class="edge">
<title>n2&#45;&gt;n7</title>
<path fill="none" stroke="black" d="M290.98,-75.83C307.76,-64.96 331.77,-49.4 350.42,-37.31"/>
<polygon fill="black" stroke="black" points="352.13,-40.37 358.62,-31.99 348.32,-34.5 352.13,-40.37"/>
</g>
<!-- n9 -->
<g id="node10" class="node">
<title>n9</title>
<ellipse fill="#b2dfee" stroke="#b2dfee" cx="451.67" cy="-18" rx="27.84" ry="18"/>
<text text-anchor="middle" x="451.67" y="-15.5" font-family="Helvetica,sans-Serif" font-size="10.00">struct {</text>
</g>
<!-- n8&#45;&gt;n9 -->
<g id="edge9" class="edge">
<title>n8&#45;&gt;n9</title>
<path fill="none" stroke="black" d="M752.33,-86.13C697.59,-80.53 581.41,-65.94 487.67,-36 486.1,-35.5 484.52,-34.95 482.93,-34.35"/>
<polygon fill="black" stroke="black" points="484.58,-31.25 474.01,-30.61 481.87,-37.71 484.58,-31.25"/>
</g>
<!-- n10 -->
<g id="node11" class="node">
<title>n10</title>
<ellipse fill="#b2dfee" stroke="#b2dfee" cx="554.67" cy="-18" rx="57.88" ry="18"/>
<text text-anchor="middle" x="554.67" y="-15.5" font-family="Helvetica,sans-Serif" font-size="10.00">nombre : CADENA</text>
</g>
<!-- n8&#45;&gt;n10 -->
<g id="edge10" class="edge">
<title>n8&#45;&gt;n10</title>
<path fill="none" stroke="black" d="M756.5,-80.7C719.43,-69.36 652.28,-48.84 605.67,-34.59"/>
<polygon fill="black" stroke="black" points="606.91,-31.31 596.33,-31.73 604.87,-38 606.91,-31.31"/>
</g>
<!-- n11 -->
<g id="node12" class="node">
<title>n11</title>
<ellipse fill="#b2dfee" stroke="#b2dfee" cx="666.67" cy="-18" rx="35.82" ry="18"/>
<text text-anchor="middle" x="666.67" y="-15.5" font-family="Helvetica,sans-Serif" font-size="10.00">edad : INT</text>
</g>
<!-- n8&#45;&gt;n11 -->
<g id="edge11" class="edge">
<title>n8&#45;&gt;n11</title>
<path fill="none" stroke="black" d="M762.48,-76.32C744.68,-65.67 718.96,-50.29 698.66,-38.14"/>
<polygon fill="black" stroke="black" points="700.57,-35.2 690.19,-33.07 696.97,-41.21 700.57,-35.2"/>
</g>
<!-- n12 -->
<g id="node13" class="node">
<title>n12</title>
<ellipse fill="#b2dfee" stroke="#b2dfee" cx="783.67" cy="-18" rx="63.65" ry="18"/>
<text text-anchor="middle" x="783.67" y="-15.5" font-family="Helvetica,sans-Serif" font-size="10.00">asignatura : STRUCT</text>
</g>
<!-- n8&#45;&gt;n12 -->
<g id="edge12" class="edge">
<title>n8&#45;&gt;n12</title>
<path fill="none" stroke="black" d="M783.67,-71.7C783.67,-64.41 783.67,-55.73 783.67,-47.54"/>
<polygon fill="black" stroke="black" points="787.17,-47.62 783.67,-37.62 780.17,-47.62 787.17,-47.62"/>
</g>
<!-- n13 -->
<g id="node14" class="node">
<title>n13</title>
<ellipse fill="#b2dfee" stroke="#b2dfee" cx="892.67" cy="-18" rx="27" ry="18"/>
<text text-anchor="middle" x="892.67" y="-15.5" font-family="Helvetica,sans-Serif" font-size="10.00">}</text>
</g>
<!-- n8&#45;&gt;n13 -->
<g id="edge13" class="edge">
<title>n8&#45;&gt;n13</title>
<path fill="none" stroke="black" d="M804.17,-75.83C821.11,-64.96 845.34,-49.4 864.16,-37.31"/>
<polygon fill="black" stroke="black" points="865.92,-40.34 872.44,-31.99 862.14,-34.45 865.92,-40.34"/>
</g>
<!-- n14 -->
<g id="node15" class="node">
<title>n14</title>
<ellipse fill="#b2dfee" stroke="#b2dfee" cx="973.67" cy="-18" rx="36.49" ry="18"/>
<text text-anchor="middle" x="973.67" y="-15.5" font-family="Helvetica,sans-Serif" font-size="10.00">estudiante</text>
</g>
<!-- n8&#45;&gt;n14 -->
<g id="edge14" class="edge">
<title>n8&#45;&gt;n14</title>
<path fill="none" stroke="black" d="M809.89,-79.51C838.96,-68.97 887.21,-51.41 928.67,-36 930.72,-35.24 932.83,-34.45 934.95,-33.66"/>
<polygon fill="black" stroke="black" points="936.05,-36.98 944.18,-30.19 933.59,-30.43 936.05,-36.98"/>
</g>
<!-- n16 -->
<g id="node17" class="node">
<title>n16</title>
<ellipse fill="#b2dfee" stroke="#b2dfee" cx="1054.67" cy="-18" rx="27" ry="18"/>
<text text-anchor="middle" x="1054.67" y="-15.5" font-family="Helvetica,sans-Serif" font-size="10.00">var</text>
</g>
<!-- n15&#45;&gt;n16 -->
<g id="edge16" class="edge">
<title>n15&#45;&gt;n16</title>
<path fill="none" stroke="black" d="M1204.81,-77.92C1174.58,-67.78 1129.25,-51.97 1090.67,-36 1089.15,-35.37 1087.61,-34.71 1086.05,-34.04"/>
<polygon fill="black" stroke="black" points="1087.77,-30.97 1077.21,-30.04 1084.88,-37.35 1087.77,-30.97"/>
</g>
<!-- n17 -->
<g id="node18" class="node">
<title>n17</title>
<ellipse fill="#b2dfee" stroke="#b2dfee" cx="1146.67" cy="-18" rx="46.51" ry="18"/>
<text text-anchor="middle" x="1146.67" y="-15.5" font-family="Helvetica,sans-Serif" font-size="10.00">curso1 : curso</text>
</g>
<!-- n15&#45;&gt;n17 -->
<g id="edge17" class="edge">
<title>n15&#45;&gt;n17</title>
<path fill="none" stroke="black" d="M1218.7,-73.81C1206.13,-64.25 1189.69,-51.74 1175.69,-41.08"/>
<polygon fill="black" stroke="black" points="1178.19,-38.59 1168.11,-35.32 1173.95,-44.16 1178.19,-38.59"/>
</g>
<!-- n18 -->
<g id="node19" class="node">
<title>n18</title>
<ellipse fill="#b2dfee" stroke="#b2dfee" cx="1238.67" cy="-18" rx="27" ry="18"/>
<text text-anchor="middle" x="1238.67" y="-15.5" font-family="Helvetica,sans-Serif" font-size="10.00">= {</text>
</g>
<!-- n15&#45;&gt;n18 -->
<g id="edge18" class="edge">
<title>n15&#45;&gt;n18</title>
<path fill="none" stroke="black" d="M1238.67,-71.7C1238.67,-64.41 1238.67,-55.73 1238.67,-47.54"/>
<polygon fill="black" stroke="black" points="1242.17,-47.62 1238.67,-37.62 1235.17,-47.62 1242.17,-47.62"/>
</g>
<!-- n19 -->
<g id="node20" class="node">
<title>n19</title>
<ellipse fill="#b2dfee" stroke="#b2dfee" cx="1332.67" cy="-18" rx="48.72" ry="18"/>
<text text-anchor="middle" x="1332.67" y="-15.5" font-family="Helvetica,sans-Serif" font-size="10.00">nombre : OLC1</text>
</g>
<!-- n15&#45;&gt;n19 -->
<g id="edge19" class="edge">
<title>n15&#45;&gt;n19</title>
<path fill="none" stroke="black" d="M1259.06,-73.81C1271.82,-64.31 1288.48,-51.91 1302.72,-41.3"/>
<polygon fill="black" stroke="black" points="1304.52,-44.33 1310.45,-35.55 1300.33,-38.71 1304.52,-44.33"/>
</g>
<!-- n20 -->
<g id="node21" class="node">
<title>n20</title>
<ellipse fill="#b2dfee" stroke="#b2dfee" cx="1426.67" cy="-18" rx="27" ry="18"/>
<text text-anchor="middle" x="1426.67" y="-15.5" font-family="Helvetica,sans-Serif" font-size="10.00">id : 10</text>
</g>
<!-- n15&#45;&gt;n20 -->
<g id="edge20" class="edge">
<title>n15&#45;&gt;n20</title>
<path fill="none" stroke="black" d="M1272.86,-78.22C1303.92,-68.17 1350.83,-52.3 1390.67,-36 1392.19,-35.38 1393.73,-34.73 1395.29,-34.05"/>
<polygon fill="black" stroke="black" points="1396.46,-37.37 1404.13,-30.07 1393.58,-30.99 1396.46,-37.37"/>
</g>
<!-- n21 -->
<g id="node22" class="node">
<title>n21</title>
<ellipse fill="#b2dfee" stroke="#b2dfee" cx="1498.67" cy="-18" rx="27" ry="18"/>
<text text-anchor="middle" x="1498.67" y="-15.5" font-family="Helvetica,sans-Serif" font-size="10.00">}</text>
</g>
<!-- n15&#45;&gt;n21 -->
<g id="edge21" class="edge">
<title>n15&#45;&gt;n21</title>
<path fill="none" stroke="black" d="M1279.04,-82.08C1324.46,-73.7 1400.06,-57.92 1462.67,-36 1464.22,-35.46 1465.79,-34.87 1467.36,-34.25"/>
<polygon fill="black" stroke="black" points="1468.46,-37.59 1476.26,-30.42 1465.7,-31.16 1468.46,-37.59"/>
</g>
<!-- n23 -->
<g id="node24" class="node">
<title>n23</title>
<ellipse fill="#b2dfee" stroke="#b2dfee" cx="1570.67" cy="-18" rx="27" ry="18"/>
<text text-anchor="middle" x="1570.67" y="-15.5" font-family="Helvetica,sans-Serif" font-size="10.00">var</text>
</g>
<!-- n22&#45;&gt;n23 -->
<g id="edge23" class="edge">
<title>n22&#45;&gt;n23</title>
<path fill="none" stroke="black" d="M1811.41,-83.08C1761.91,-75.29 1676.8,-59.76 1606.67,-36 1605.11,-35.47 1603.54,-34.9 1601.96,-34.29"/>
<polygon fill="black" stroke="black" points="1603.62,-31.19 1593.05,-30.49 1600.87,-37.63 1603.62,-31.19"/>
</g>
<!-- n24 -->
<g id="node25" class="node">
<title>n24</title>
<ellipse fill="#b2dfee" stroke="#b2dfee" cx="1663.67" cy="-18" rx="47.86" ry="18"/>
<text text-anchor="middle" x="1663.67" y="-15.5" font-family="Helvetica,sans-Serif" font-size="10.00">e3 : estudiante</text>
</g>
<!-- n22&#45;&gt;n24 -->
<g id="edge24" class="edge">
<title>n22&#45;&gt;n24</title>
<path fill="none" stroke="black" d="M1820.61,-77.13C1789.53,-65.62 1742.15,-48.07 1707.58,-35.26"/>
<polygon fill="black" stroke="black" points="1708.85,-32 1698.26,-31.81 1706.42,-38.57 1708.85,-32"/>
</g>
<!-- n25 -->
<g id="node26" class="node">
<title>n25</title>
<ellipse fill="#b2dfee" stroke="#b2dfee" cx="1756.67" cy="-18" rx="27" ry="18"/>
<text text-anchor="middle" x="1756.67" y="-15.5" font-family="Helvetica,sans-Serif" font-size="10.00">= {</text>
</g>
<!-- n22&#45;&gt;n25 -->
<g id="edge25" class="edge">
<title>n22&#45;&gt;n25</title>
<path fill="none" stroke="black" d="M1831.84,-73.81C1817.68,-63.49 1798.82,-49.74 1783.54,-38.59"/>
<polygon fill="black" stroke="black" points="1785.92,-36 1775.78,-32.93 1781.79,-41.65 1785.92,-36"/>
</g>
<!-- n26 -->
<g id="node27" class="node">
<title>n26</title>
<ellipse fill="#b2dfee" stroke="#b2dfee" cx="1852.67" cy="-18" rx="51.43" ry="18"/>
<text text-anchor="middle" x="1852.67" y="-15.5" font-family="Helvetica,sans-Serif" font-size="10.00">nombre : prueba</text>
</g>
<!-- n22&#45;&gt;n26 -->
<g id="edge26" class="edge">
<title>n22&#45;&gt;n26</title>
<path fill="none" stroke="black" d="M1852.67,-71.7C1852.67,-64.41 1852.67,-55.73 1852.67,-47.54"/>
<polygon fill="black" stroke="black" points="1856.17,-47.62 1852.67,-37.62 1849.17,-47.62 1856.17,-47.62"/>
</g>
<!-- n27 -->
<g id="node28" class="node">
<title>n27</title>
<ellipse fill="#b2dfee" stroke="#b2dfee" cx="1955.67" cy="-18" rx="33.61" ry="18"/>
<text text-anchor="middle" x="1955.67" y="-15.5" font-family="Helvetica,sans-Serif" font-size="10.00">edad : 10</text>
</g>
<!-- n22&#45;&gt;n27 -->
<g id="edge27" class="edge">
<title>n22&#45;&gt;n27</title>
<path fill="none" stroke="black" d="M1874.76,-73.98C1889.78,-63.77 1909.83,-50.15 1926.2,-39.02"/>
<polygon fill="black" stroke="black" points="1927.8,-42.17 1934.1,-33.65 1923.87,-36.38 1927.8,-42.17"/>
</g>
<!-- n28 -->
<g id="node29" class="node">
<title>n28</title>
<ellipse fill="#b2dfee" stroke="#b2dfee" cx="2062.67" cy="-18" rx="55.85" ry="18"/>
<text text-anchor="middle" x="2062.67" y="-15.5" font-family="Helvetica,sans-Serif" font-size="10.00">asignatura : OLC1</text>
</g>
<!-- n22&#45;&gt;n28 -->
<g id="edge28" class="edge">
<title>n22&#45;&gt;n28</title>
<path fill="none" stroke="black" d="M1885.94,-77.91C1920.44,-66.41 1974.71,-48.32 2014.02,-35.22"/>
<polygon fill="black" stroke="black" points="2015.12,-38.54 2023.5,-32.06 2012.91,-31.9 2015.12,-38.54"/>
</g>
<!-- n29 -->
<g id="node30" class="node">
<title>n29</title>
<ellipse fill="#b2dfee" stroke="#b2dfee" cx="2163.67" cy="-18" rx="27" ry="18"/>
<text text-anchor="middle" x="2163.67" y="-15.5" font-family="Helvetica,sans-Serif" font-size="10.00">id : 10</text>
</g>
<!-- n22&#45;&gt;n29 -->
<g id="edge29" class="edge">
<title>n22&#45;&gt;n29</title>
<path fill="none" stroke="black" d="M1894.96,-84.2C1949.67,-77.23 2047.48,-62.2 2127.67,-36 2129.23,-35.49 2130.81,-34.93 2132.39,-34.33"/>
<polygon fill="black" stroke="black" points="2133.46,-37.68 2141.31,-30.56 2130.74,-31.23 2133.46,-37.68"/>
</g>
<!-- n30 -->
<g id="node31" class="node">
<title>n30</title>
<ellipse fill="#b2dfee" stroke="#b2dfee" cx="2235.67" cy="-18" rx="27" ry="18"/>
<text text-anchor="middle" x="2235.67" y="-15.5" font-family="Helvetica,sans-Serif" font-size="10.00">}</text>
</g>
<!-- n22&#45;&gt;n30 -->
<g id="edge30" class="edge">
<title>n22&#45;&gt;n30</title>
<path fill="none" stroke="black" d="M1896.57,-86.37C1963.31,-81.48 2093.73,-68.35 2199.67,-36 2201.28,-35.51 2202.91,-34.96 2204.54,-34.36"/>
<polygon fill="black" stroke="black" points="2205.85,-37.6 2213.74,-30.53 2203.16,-31.14 2205.85,-37.6"/>
</g>
</g>
</svg>
