<?xml version="1.0" encoding="UTF-8" standalone="no"?>
<!DOCTYPE svg PUBLIC "-//W3C//DTD SVG 1.1//EN"
 "http://www.w3.org/Graphics/SVG/1.1/DTD/svg11.dtd">
<!-- Generated by graphviz version 7.1.0 (20230121.1956)
 -->
<!-- Title: arbolAST Pages: 1 -->
<svg width="3064pt" height="620pt"
 viewBox="0.00 0.00 3064.00 620.00" xmlns="http://www.w3.org/2000/svg" xmlns:xlink="http://www.w3.org/1999/xlink">
<g id="graph0" class="graph" transform="scale(1 1) rotate(0) translate(4 616)">
<title>arbolAST</title>
<polygon fill="white" stroke="none" points="-4,4 -4,-616 3060,-616 3060,4 -4,4"/>
<!-- n0 -->
<g id="node1" class="node">
<title>n0</title>
<ellipse fill="#b2dfee" stroke="#b2dfee" cx="1207" cy="-594" rx="27" ry="18"/>
<text text-anchor="middle" x="1207" y="-591.5" font-family="Helvetica,sans-Serif" font-size="10.00">INICIO</text>
</g>
<!-- n1 -->
<g id="node2" class="node">
<title>n1</title>
<ellipse fill="#b2dfee" stroke="#b2dfee" cx="1207" cy="-522" rx="55.85" ry="18"/>
<text text-anchor="middle" x="1207" y="-519.5" font-family="Helvetica,sans-Serif" font-size="10.00">INSTRUCCIONES</text>
</g>
<!-- n0&#45;&gt;n1 -->
<g id="edge1" class="edge">
<title>n0&#45;&gt;n1</title>
<path fill="none" stroke="black" d="M1207,-575.7C1207,-568.41 1207,-559.73 1207,-551.54"/>
<polygon fill="black" stroke="black" points="1210.5,-551.62 1207,-541.62 1203.5,-551.62 1210.5,-551.62"/>
</g>
<!-- n2 -->
<g id="node3" class="node">
<title>n2</title>
<ellipse fill="#b2dfee" stroke="#b2dfee" cx="279" cy="-450" rx="85.89" ry="18"/>
<text text-anchor="middle" x="279" y="-447.5" font-family="Helvetica,sans-Serif" font-size="10.00">DECLARACION_VARIABLES</text>
</g>
<!-- n1&#45;&gt;n2 -->
<g id="edge2" class="edge">
<title>n1&#45;&gt;n2</title>
<path fill="none" stroke="black" d="M1153.1,-516.93C1000.04,-505.39 561.53,-472.31 370.17,-457.88"/>
<polygon fill="black" stroke="black" points="370.5,-454.39 360.26,-457.13 369.97,-461.37 370.5,-454.39"/>
</g>
<!-- n11 -->
<g id="node12" class="node">
<title>n11</title>
<ellipse fill="#b2dfee" stroke="#b2dfee" cx="786" cy="-450" rx="32.93" ry="18"/>
<text text-anchor="middle" x="786" y="-447.5" font-family="Helvetica,sans-Serif" font-size="10.00">PRINTLN</text>
</g>
<!-- n1&#45;&gt;n11 -->
<g id="edge11" class="edge">
<title>n1&#45;&gt;n11</title>
<path fill="none" stroke="black" d="M1158.29,-512.9C1075.05,-499.06 906.81,-471.09 828.23,-458.02"/>
<polygon fill="black" stroke="black" points="829.24,-454.64 818.8,-456.45 828.09,-461.55 829.24,-454.64"/>
</g>
<!-- n18 -->
<g id="node19" class="node">
<title>n18</title>
<ellipse fill="#b2dfee" stroke="#b2dfee" cx="1207" cy="-450" rx="85.89" ry="18"/>
<text text-anchor="middle" x="1207" y="-447.5" font-family="Helvetica,sans-Serif" font-size="10.00">DECLARACION_VARIABLES</text>
</g>
<!-- n1&#45;&gt;n18 -->
<g id="edge18" class="edge">
<title>n1&#45;&gt;n18</title>
<path fill="none" stroke="black" d="M1207,-503.7C1207,-496.41 1207,-487.73 1207,-479.54"/>
<polygon fill="black" stroke="black" points="1210.5,-479.62 1207,-469.62 1203.5,-479.62 1210.5,-479.62"/>
</g>
<!-- n27 -->
<g id="node28" class="node">
<title>n27</title>
<ellipse fill="#b2dfee" stroke="#b2dfee" cx="1628" cy="-450" rx="32.93" ry="18"/>
<text text-anchor="middle" x="1628" y="-447.5" font-family="Helvetica,sans-Serif" font-size="10.00">PRINTLN</text>
</g>
<!-- n1&#45;&gt;n27 -->
<g id="edge27" class="edge">
<title>n1&#45;&gt;n27</title>
<path fill="none" stroke="black" d="M1255.71,-512.9C1338.95,-499.06 1507.19,-471.09 1585.77,-458.02"/>
<polygon fill="black" stroke="black" points="1585.91,-461.55 1595.2,-456.45 1584.76,-454.64 1585.91,-461.55"/>
</g>
<!-- n34 -->
<g id="node35" class="node">
<title>n34</title>
<ellipse fill="#b2dfee" stroke="#b2dfee" cx="2162" cy="-450" rx="27" ry="18"/>
<text text-anchor="middle" x="2162" y="-447.5" font-family="Helvetica,sans-Serif" font-size="10.00">IF</text>
</g>
<!-- n1&#45;&gt;n34 -->
<g id="edge34" class="edge">
<title>n1&#45;&gt;n34</title>
<path fill="none" stroke="black" d="M1261.08,-517.04C1434.73,-504.31 1975.46,-464.67 2123.95,-453.79"/>
<polygon fill="black" stroke="black" points="2123.9,-457.3 2133.62,-453.08 2123.39,-450.32 2123.9,-457.3"/>
</g>
<!-- n3 -->
<g id="node4" class="node">
<title>n3</title>
<ellipse fill="#b2dfee" stroke="#b2dfee" cx="27" cy="-378" rx="27" ry="18"/>
<text text-anchor="middle" x="27" y="-375.5" font-family="Helvetica,sans-Serif" font-size="10.00">var</text>
</g>
<!-- n2&#45;&gt;n3 -->
<g id="edge3" class="edge">
<title>n2&#45;&gt;n3</title>
<path fill="none" stroke="black" d="M217.05,-437.25C173.34,-428.13 113.76,-414.01 63,-396 61.45,-395.45 59.88,-394.86 58.31,-394.23"/>
<polygon fill="black" stroke="black" points="59.98,-391.14 49.41,-390.39 57.2,-397.57 59.98,-391.14"/>
</g>
<!-- n4 -->
<g id="node5" class="node">
<title>n4</title>
<ellipse fill="#b2dfee" stroke="#b2dfee" cx="99" cy="-378" rx="27" ry="18"/>
<text text-anchor="middle" x="99" y="-375.5" font-family="Helvetica,sans-Serif" font-size="10.00">a</text>
</g>
<!-- n2&#45;&gt;n4 -->
<g id="edge4" class="edge">
<title>n2&#45;&gt;n4</title>
<path fill="none" stroke="black" d="M235.45,-434.1C206.68,-423.98 168.29,-409.95 135,-396 133.49,-395.37 131.94,-394.7 130.39,-394.02"/>
<polygon fill="black" stroke="black" points="132.11,-390.96 121.56,-390.01 129.21,-397.33 132.11,-390.96"/>
</g>
<!-- n5 -->
<g id="node6" class="node">
<title>n5</title>
<ellipse fill="#b2dfee" stroke="#b2dfee" cx="171" cy="-378" rx="27" ry="18"/>
<text text-anchor="middle" x="171" y="-375.5" font-family="Helvetica,sans-Serif" font-size="10.00">:</text>
</g>
<!-- n2&#45;&gt;n5 -->
<g id="edge5" class="edge">
<title>n2&#45;&gt;n5</title>
<path fill="none" stroke="black" d="M253.41,-432.41C237.14,-421.87 216.06,-408.21 199.29,-397.34"/>
<polygon fill="black" stroke="black" points="201.56,-394.63 191.26,-392.13 197.75,-400.51 201.56,-394.63"/>
</g>
<!-- n6 -->
<g id="node7" class="node">
<title>n6</title>
<ellipse fill="#b2dfee" stroke="#b2dfee" cx="243" cy="-378" rx="27" ry="18"/>
<text text-anchor="middle" x="243" y="-375.5" font-family="Helvetica,sans-Serif" font-size="10.00">INT</text>
</g>
<!-- n2&#45;&gt;n6 -->
<g id="edge6" class="edge">
<title>n2&#45;&gt;n6</title>
<path fill="none" stroke="black" d="M270.1,-431.7C266.02,-423.75 261.08,-414.16 256.55,-405.34"/>
<polygon fill="black" stroke="black" points="259.68,-403.78 252,-396.49 253.46,-406.98 259.68,-403.78"/>
</g>
<!-- n7 -->
<g id="node8" class="node">
<title>n7</title>
<ellipse fill="#b2dfee" stroke="#b2dfee" cx="315" cy="-378" rx="27" ry="18"/>
<text text-anchor="middle" x="315" y="-375.5" font-family="Helvetica,sans-Serif" font-size="10.00">=</text>
</g>
<!-- n2&#45;&gt;n7 -->
<g id="edge7" class="edge">
<title>n2&#45;&gt;n7</title>
<path fill="none" stroke="black" d="M287.9,-431.7C291.98,-423.75 296.92,-414.16 301.45,-405.34"/>
<polygon fill="black" stroke="black" points="304.54,-406.98 306,-396.49 298.32,-403.78 304.54,-406.98"/>
</g>
<!-- n8 -->
<g id="node9" class="node">
<title>n8</title>
<ellipse fill="#b2dfee" stroke="#b2dfee" cx="387" cy="-378" rx="27" ry="18"/>
<text text-anchor="middle" x="387" y="-375.5" font-family="Helvetica,sans-Serif" font-size="10.00">INT</text>
</g>
<!-- n2&#45;&gt;n8 -->
<g id="edge8" class="edge">
<title>n2&#45;&gt;n8</title>
<path fill="none" stroke="black" d="M304.59,-432.41C320.86,-421.87 341.94,-408.21 358.71,-397.34"/>
<polygon fill="black" stroke="black" points="360.25,-400.51 366.74,-392.13 356.44,-394.63 360.25,-400.51"/>
</g>
<!-- n10 -->
<g id="node11" class="node">
<title>n10</title>
<ellipse fill="#b2dfee" stroke="#b2dfee" cx="459" cy="-378" rx="27" ry="18"/>
<text text-anchor="middle" x="459" y="-375.5" font-family="Helvetica,sans-Serif" font-size="10.00">;</text>
</g>
<!-- n2&#45;&gt;n10 -->
<g id="edge10" class="edge">
<title>n2&#45;&gt;n10</title>
<path fill="none" stroke="black" d="M322.55,-434.1C351.32,-423.98 389.71,-409.95 423,-396 424.51,-395.37 426.06,-394.7 427.61,-394.02"/>
<polygon fill="black" stroke="black" points="428.79,-397.33 436.44,-390.01 425.89,-390.96 428.79,-397.33"/>
</g>
<!-- n9 -->
<g id="node10" class="node">
<title>n9</title>
<ellipse fill="#b2dfee" stroke="#b2dfee" cx="387" cy="-306" rx="27" ry="18"/>
<text text-anchor="middle" x="387" y="-303.5" font-family="Helvetica,sans-Serif" font-size="10.00">1</text>
</g>
<!-- n8&#45;&gt;n9 -->
<g id="edge9" class="edge">
<title>n8&#45;&gt;n9</title>
<path fill="none" stroke="black" d="M387,-359.7C387,-352.41 387,-343.73 387,-335.54"/>
<polygon fill="black" stroke="black" points="390.5,-335.62 387,-325.62 383.5,-335.62 390.5,-335.62"/>
</g>
<!-- n12 -->
<g id="node13" class="node">
<title>n12</title>
<ellipse fill="#b2dfee" stroke="#b2dfee" cx="531" cy="-378" rx="27" ry="18"/>
<text text-anchor="middle" x="531" y="-375.5" font-family="Helvetica,sans-Serif" font-size="10.00">Println</text>
</g>
<!-- n11&#45;&gt;n12 -->
<g id="edge12" class="edge">
<title>n11&#45;&gt;n12</title>
<path fill="none" stroke="black" d="M754.96,-443.56C711.99,-435.56 632.29,-419.05 567,-396 565.45,-395.45 563.88,-394.86 562.31,-394.24"/>
<polygon fill="black" stroke="black" points="563.98,-391.15 553.41,-390.4 561.2,-397.58 563.98,-391.15"/>
</g>
<!-- n13 -->
<g id="node14" class="node">
<title>n13</title>
<ellipse fill="#b2dfee" stroke="#b2dfee" cx="603" cy="-378" rx="27" ry="18"/>
<text text-anchor="middle" x="603" y="-375.5" font-family="Helvetica,sans-Serif" font-size="10.00">(</text>
</g>
<!-- n11&#45;&gt;n13 -->
<g id="edge13" class="edge">
<title>n11&#45;&gt;n13</title>
<path fill="none" stroke="black" d="M758.34,-439.9C728.56,-429.91 679.96,-413.01 639,-396 637.48,-395.37 635.94,-394.71 634.38,-394.03"/>
<polygon fill="black" stroke="black" points="636.1,-390.97 625.55,-390.03 633.21,-397.35 636.1,-390.97"/>
</g>
<!-- n14 -->
<g id="node15" class="node">
<title>n14</title>
<ellipse fill="#b2dfee" stroke="#b2dfee" cx="725" cy="-378" rx="77.23" ry="18"/>
<text text-anchor="middle" x="725" y="-375.5" font-family="Helvetica,sans-Serif" font-size="10.00">RECUPERAR_VARIABLE</text>
</g>
<!-- n11&#45;&gt;n14 -->
<g id="edge14" class="edge">
<title>n11&#45;&gt;n14</title>
<path fill="none" stroke="black" d="M772.46,-433.46C765.05,-424.95 755.67,-414.19 747.21,-404.48"/>
<polygon fill="black" stroke="black" points="749.98,-402.34 740.78,-397.1 744.71,-406.94 749.98,-402.34"/>
</g>
<!-- n16 -->
<g id="node17" class="node">
<title>n16</title>
<ellipse fill="#b2dfee" stroke="#b2dfee" cx="847" cy="-378" rx="27" ry="18"/>
<text text-anchor="middle" x="847" y="-375.5" font-family="Helvetica,sans-Serif" font-size="10.00">)</text>
</g>
<!-- n11&#45;&gt;n16 -->
<g id="edge16" class="edge">
<title>n11&#45;&gt;n16</title>
<path fill="none" stroke="black" d="M799.54,-433.46C807.46,-424.37 817.63,-412.7 826.52,-402.5"/>
<polygon fill="black" stroke="black" points="828.99,-404.99 832.92,-395.15 823.72,-400.39 828.99,-404.99"/>
</g>
<!-- n17 -->
<g id="node18" class="node">
<title>n17</title>
<ellipse fill="#b2dfee" stroke="#b2dfee" cx="919" cy="-378" rx="27" ry="18"/>
<text text-anchor="middle" x="919" y="-375.5" font-family="Helvetica,sans-Serif" font-size="10.00">;</text>
</g>
<!-- n11&#45;&gt;n17 -->
<g id="edge17" class="edge">
<title>n11&#45;&gt;n17</title>
<path fill="none" stroke="black" d="M809.17,-436.81C831.08,-425.27 864.11,-407.89 888.23,-395.2"/>
<polygon fill="black" stroke="black" points="889.72,-398.36 896.94,-390.61 886.46,-392.17 889.72,-398.36"/>
</g>
<!-- n15 -->
<g id="node16" class="node">
<title>n15</title>
<ellipse fill="#b2dfee" stroke="#b2dfee" cx="725" cy="-306" rx="27" ry="18"/>
<text text-anchor="middle" x="725" y="-303.5" font-family="Helvetica,sans-Serif" font-size="10.00">a</text>
</g>
<!-- n14&#45;&gt;n15 -->
<g id="edge15" class="edge">
<title>n14&#45;&gt;n15</title>
<path fill="none" stroke="black" d="M725,-359.7C725,-352.41 725,-343.73 725,-335.54"/>
<polygon fill="black" stroke="black" points="728.5,-335.62 725,-325.62 721.5,-335.62 728.5,-335.62"/>
</g>
<!-- n19 -->
<g id="node20" class="node">
<title>n19</title>
<ellipse fill="#b2dfee" stroke="#b2dfee" cx="991" cy="-378" rx="27" ry="18"/>
<text text-anchor="middle" x="991" y="-375.5" font-family="Helvetica,sans-Serif" font-size="10.00">const</text>
</g>
<!-- n18&#45;&gt;n19 -->
<g id="edge19" class="edge">
<title>n18&#45;&gt;n19</title>
<path fill="none" stroke="black" d="M1153.51,-435.58C1117.33,-425.94 1068.71,-411.88 1027,-396 1025.47,-395.42 1023.91,-394.79 1022.34,-394.15"/>
<polygon fill="black" stroke="black" points="1024.03,-391.07 1013.47,-390.23 1021.21,-397.47 1024.03,-391.07"/>
</g>
<!-- n20 -->
<g id="node21" class="node">
<title>n20</title>
<ellipse fill="#b2dfee" stroke="#b2dfee" cx="1063" cy="-378" rx="27" ry="18"/>
<text text-anchor="middle" x="1063" y="-375.5" font-family="Helvetica,sans-Serif" font-size="10.00">b</text>
</g>
<!-- n18&#45;&gt;n20 -->
<g id="edge20" class="edge">
<title>n18&#45;&gt;n20</title>
<path fill="none" stroke="black" d="M1173.96,-432.94C1150.06,-421.32 1117.95,-405.71 1094.42,-394.28"/>
<polygon fill="black" stroke="black" points="1096.16,-391.23 1085.64,-390.01 1093.1,-397.53 1096.16,-391.23"/>
</g>
<!-- n21 -->
<g id="node22" class="node">
<title>n21</title>
<ellipse fill="#b2dfee" stroke="#b2dfee" cx="1135" cy="-378" rx="27" ry="18"/>
<text text-anchor="middle" x="1135" y="-375.5" font-family="Helvetica,sans-Serif" font-size="10.00">:</text>
</g>
<!-- n18&#45;&gt;n21 -->
<g id="edge21" class="edge">
<title>n18&#45;&gt;n21</title>
<path fill="none" stroke="black" d="M1189.57,-432.05C1180.08,-422.82 1168.21,-411.29 1157.97,-401.33"/>
<polygon fill="black" stroke="black" points="1160.53,-398.94 1150.92,-394.48 1155.65,-403.96 1160.53,-398.94"/>
</g>
<!-- n22 -->
<g id="node23" class="node">
<title>n22</title>
<ellipse fill="#b2dfee" stroke="#b2dfee" cx="1207" cy="-378" rx="27" ry="18"/>
<text text-anchor="middle" x="1207" y="-375.5" font-family="Helvetica,sans-Serif" font-size="10.00">INT</text>
</g>
<!-- n18&#45;&gt;n22 -->
<g id="edge22" class="edge">
<title>n18&#45;&gt;n22</title>
<path fill="none" stroke="black" d="M1207,-431.7C1207,-424.41 1207,-415.73 1207,-407.54"/>
<polygon fill="black" stroke="black" points="1210.5,-407.62 1207,-397.62 1203.5,-407.62 1210.5,-407.62"/>
</g>
<!-- n23 -->
<g id="node24" class="node">
<title>n23</title>
<ellipse fill="#b2dfee" stroke="#b2dfee" cx="1279" cy="-378" rx="27" ry="18"/>
<text text-anchor="middle" x="1279" y="-375.5" font-family="Helvetica,sans-Serif" font-size="10.00">=</text>
</g>
<!-- n18&#45;&gt;n23 -->
<g id="edge23" class="edge">
<title>n18&#45;&gt;n23</title>
<path fill="none" stroke="black" d="M1224.43,-432.05C1233.92,-422.82 1245.79,-411.29 1256.03,-401.33"/>
<polygon fill="black" stroke="black" points="1258.35,-403.96 1263.08,-394.48 1253.47,-398.94 1258.35,-403.96"/>
</g>
<!-- n24 -->
<g id="node25" class="node">
<title>n24</title>
<ellipse fill="#b2dfee" stroke="#b2dfee" cx="1351" cy="-378" rx="27" ry="18"/>
<text text-anchor="middle" x="1351" y="-375.5" font-family="Helvetica,sans-Serif" font-size="10.00">INT</text>
</g>
<!-- n18&#45;&gt;n24 -->
<g id="edge24" class="edge">
<title>n18&#45;&gt;n24</title>
<path fill="none" stroke="black" d="M1240.04,-432.94C1263.94,-421.32 1296.05,-405.71 1319.58,-394.28"/>
<polygon fill="black" stroke="black" points="1320.9,-397.53 1328.36,-390.01 1317.84,-391.23 1320.9,-397.53"/>
</g>
<!-- n26 -->
<g id="node27" class="node">
<title>n26</title>
<ellipse fill="#b2dfee" stroke="#b2dfee" cx="1423" cy="-378" rx="27" ry="18"/>
<text text-anchor="middle" x="1423" y="-375.5" font-family="Helvetica,sans-Serif" font-size="10.00">;</text>
</g>
<!-- n18&#45;&gt;n26 -->
<g id="edge26" class="edge">
<title>n18&#45;&gt;n26</title>
<path fill="none" stroke="black" d="M1260.49,-435.58C1296.67,-425.94 1345.29,-411.88 1387,-396 1388.53,-395.42 1390.09,-394.79 1391.66,-394.15"/>
<polygon fill="black" stroke="black" points="1392.79,-397.47 1400.53,-390.23 1389.97,-391.07 1392.79,-397.47"/>
</g>
<!-- n25 -->
<g id="node26" class="node">
<title>n25</title>
<ellipse fill="#b2dfee" stroke="#b2dfee" cx="1351" cy="-306" rx="27" ry="18"/>
<text text-anchor="middle" x="1351" y="-303.5" font-family="Helvetica,sans-Serif" font-size="10.00">2</text>
</g>
<!-- n24&#45;&gt;n25 -->
<g id="edge25" class="edge">
<title>n24&#45;&gt;n25</title>
<path fill="none" stroke="black" d="M1351,-359.7C1351,-352.41 1351,-343.73 1351,-335.54"/>
<polygon fill="black" stroke="black" points="1354.5,-335.62 1351,-325.62 1347.5,-335.62 1354.5,-335.62"/>
</g>
<!-- n28 -->
<g id="node29" class="node">
<title>n28</title>
<ellipse fill="#b2dfee" stroke="#b2dfee" cx="1495" cy="-378" rx="27" ry="18"/>
<text text-anchor="middle" x="1495" y="-375.5" font-family="Helvetica,sans-Serif" font-size="10.00">Println</text>
</g>
<!-- n27&#45;&gt;n28 -->
<g id="edge28" class="edge">
<title>n27&#45;&gt;n28</title>
<path fill="none" stroke="black" d="M1604.83,-436.81C1582.92,-425.27 1549.89,-407.89 1525.77,-395.2"/>
<polygon fill="black" stroke="black" points="1527.54,-392.17 1517.06,-390.61 1524.28,-398.36 1527.54,-392.17"/>
</g>
<!-- n29 -->
<g id="node30" class="node">
<title>n29</title>
<ellipse fill="#b2dfee" stroke="#b2dfee" cx="1567" cy="-378" rx="27" ry="18"/>
<text text-anchor="middle" x="1567" y="-375.5" font-family="Helvetica,sans-Serif" font-size="10.00">(</text>
</g>
<!-- n27&#45;&gt;n29 -->
<g id="edge29" class="edge">
<title>n27&#45;&gt;n29</title>
<path fill="none" stroke="black" d="M1614.46,-433.46C1606.54,-424.37 1596.37,-412.7 1587.48,-402.5"/>
<polygon fill="black" stroke="black" points="1590.28,-400.39 1581.08,-395.15 1585.01,-404.99 1590.28,-400.39"/>
</g>
<!-- n30 -->
<g id="node31" class="node">
<title>n30</title>
<ellipse fill="#b2dfee" stroke="#b2dfee" cx="1689" cy="-378" rx="77.23" ry="18"/>
<text text-anchor="middle" x="1689" y="-375.5" font-family="Helvetica,sans-Serif" font-size="10.00">RECUPERAR_VARIABLE</text>
</g>
<!-- n27&#45;&gt;n30 -->
<g id="edge30" class="edge">
<title>n27&#45;&gt;n30</title>
<path fill="none" stroke="black" d="M1641.54,-433.46C1648.95,-424.95 1658.33,-414.19 1666.79,-404.48"/>
<polygon fill="black" stroke="black" points="1669.29,-406.94 1673.22,-397.1 1664.02,-402.34 1669.29,-406.94"/>
</g>
<!-- n32 -->
<g id="node33" class="node">
<title>n32</title>
<ellipse fill="#b2dfee" stroke="#b2dfee" cx="1811" cy="-378" rx="27" ry="18"/>
<text text-anchor="middle" x="1811" y="-375.5" font-family="Helvetica,sans-Serif" font-size="10.00">)</text>
</g>
<!-- n27&#45;&gt;n32 -->
<g id="edge32" class="edge">
<title>n27&#45;&gt;n32</title>
<path fill="none" stroke="black" d="M1655.66,-439.9C1685.44,-429.91 1734.04,-413.01 1775,-396 1776.52,-395.37 1778.06,-394.71 1779.62,-394.03"/>
<polygon fill="black" stroke="black" points="1780.79,-397.35 1788.45,-390.03 1777.9,-390.97 1780.79,-397.35"/>
</g>
<!-- n33 -->
<g id="node34" class="node">
<title>n33</title>
<ellipse fill="#b2dfee" stroke="#b2dfee" cx="1883" cy="-378" rx="27" ry="18"/>
<text text-anchor="middle" x="1883" y="-375.5" font-family="Helvetica,sans-Serif" font-size="10.00">;</text>
</g>
<!-- n27&#45;&gt;n33 -->
<g id="edge33" class="edge">
<title>n27&#45;&gt;n33</title>
<path fill="none" stroke="black" d="M1659.04,-443.56C1702.01,-435.56 1781.71,-419.05 1847,-396 1848.55,-395.45 1850.12,-394.86 1851.69,-394.24"/>
<polygon fill="black" stroke="black" points="1852.8,-397.58 1860.59,-390.4 1850.02,-391.15 1852.8,-397.58"/>
</g>
<!-- n31 -->
<g id="node32" class="node">
<title>n31</title>
<ellipse fill="#b2dfee" stroke="#b2dfee" cx="1689" cy="-306" rx="27" ry="18"/>
<text text-anchor="middle" x="1689" y="-303.5" font-family="Helvetica,sans-Serif" font-size="10.00">b</text>
</g>
<!-- n30&#45;&gt;n31 -->
<g id="edge31" class="edge">
<title>n30&#45;&gt;n31</title>
<path fill="none" stroke="black" d="M1689,-359.7C1689,-352.41 1689,-343.73 1689,-335.54"/>
<polygon fill="black" stroke="black" points="1692.5,-335.62 1689,-325.62 1685.5,-335.62 1692.5,-335.62"/>
</g>
<!-- n35 -->
<g id="node36" class="node">
<title>n35</title>
<ellipse fill="#b2dfee" stroke="#b2dfee" cx="1955" cy="-378" rx="27" ry="18"/>
<text text-anchor="middle" x="1955" y="-375.5" font-family="Helvetica,sans-Serif" font-size="10.00">if</text>
</g>
<!-- n34&#45;&gt;n35 -->
<g id="edge35" class="edge">
<title>n34&#45;&gt;n35</title>
<path fill="none" stroke="black" d="M2136.99,-442.44C2103.34,-433.34 2041.84,-415.77 1991,-396 1989.47,-395.41 1987.91,-394.77 1986.35,-394.12"/>
<polygon fill="black" stroke="black" points="1988.05,-391.04 1977.49,-390.19 1985.21,-397.44 1988.05,-391.04"/>
</g>
<!-- n36 -->
<g id="node37" class="node">
<title>n36</title>
<ellipse fill="#b2dfee" stroke="#b2dfee" cx="2027" cy="-378" rx="27" ry="18"/>
<text text-anchor="middle" x="2027" y="-375.5" font-family="Helvetica,sans-Serif" font-size="10.00">(</text>
</g>
<!-- n34&#45;&gt;n36 -->
<g id="edge36" class="edge">
<title>n34&#45;&gt;n36</title>
<path fill="none" stroke="black" d="M2141.2,-438.22C2118.84,-426.62 2083.07,-408.07 2057.52,-394.82"/>
<polygon fill="black" stroke="black" points="2059.43,-391.87 2048.94,-390.38 2056.21,-398.09 2059.43,-391.87"/>
</g>
<!-- n37 -->
<g id="node38" class="node">
<title>n37</title>
<ellipse fill="#b2dfee" stroke="#b2dfee" cx="2117" cy="-378" rx="45.15" ry="18"/>
<text text-anchor="middle" x="2117" y="-375.5" font-family="Helvetica,sans-Serif" font-size="10.00">RELACIONAL</text>
</g>
<!-- n34&#45;&gt;n37 -->
<g id="edge37" class="edge">
<title>n34&#45;&gt;n37</title>
<path fill="none" stroke="black" d="M2151.79,-433.12C2146.53,-424.94 2139.99,-414.76 2133.99,-405.44"/>
<polygon fill="black" stroke="black" points="2136.97,-403.59 2128.62,-397.07 2131.08,-407.37 2136.97,-403.59"/>
</g>
<!-- n43 -->
<g id="node44" class="node">
<title>n43</title>
<ellipse fill="#b2dfee" stroke="#b2dfee" cx="2207" cy="-378" rx="27" ry="18"/>
<text text-anchor="middle" x="2207" y="-375.5" font-family="Helvetica,sans-Serif" font-size="10.00">)</text>
</g>
<!-- n34&#45;&gt;n43 -->
<g id="edge43" class="edge">
<title>n34&#45;&gt;n43</title>
<path fill="none" stroke="black" d="M2172.21,-433.12C2177.68,-424.61 2184.54,-413.94 2190.72,-404.32"/>
<polygon fill="black" stroke="black" points="2193.55,-406.4 2196.01,-396.09 2187.66,-402.61 2193.55,-406.4"/>
</g>
<!-- n44 -->
<g id="node45" class="node">
<title>n44</title>
<ellipse fill="#b2dfee" stroke="#b2dfee" cx="2279" cy="-378" rx="27" ry="18"/>
<text text-anchor="middle" x="2279" y="-375.5" font-family="Helvetica,sans-Serif" font-size="10.00">{</text>
</g>
<!-- n34&#45;&gt;n44 -->
<g id="edge44" class="edge">
<title>n34&#45;&gt;n44</title>
<path fill="none" stroke="black" d="M2181.58,-437.28C2200.14,-426.18 2228.27,-409.35 2249.54,-396.63"/>
<polygon fill="black" stroke="black" points="2251.27,-399.67 2258.05,-391.53 2247.68,-393.66 2251.27,-399.67"/>
</g>
<!-- n45 -->
<g id="node46" class="node">
<title>n45</title>
<ellipse fill="#b2dfee" stroke="#b2dfee" cx="2353" cy="-378" rx="27" ry="18"/>
<text text-anchor="middle" x="2353" y="-375.5" font-family="Helvetica,sans-Serif" font-size="10.00">IF</text>
</g>
<!-- n34&#45;&gt;n45 -->
<g id="edge45" class="edge">
<title>n34&#45;&gt;n45</title>
<path fill="none" stroke="black" d="M2186.09,-441.38C2216.43,-431.61 2270.05,-413.8 2315,-396 2316.93,-395.23 2318.91,-394.43 2320.9,-393.6"/>
<polygon fill="black" stroke="black" points="2322.26,-396.82 2330.05,-389.64 2319.48,-390.4 2322.26,-396.82"/>
</g>
<!-- n69 -->
<g id="node70" class="node">
<title>n69</title>
<ellipse fill="#b2dfee" stroke="#b2dfee" cx="2425" cy="-378" rx="27" ry="18"/>
<text text-anchor="middle" x="2425" y="-375.5" font-family="Helvetica,sans-Serif" font-size="10.00">}</text>
</g>
<!-- n34&#45;&gt;n69 -->
<g id="edge69" class="edge">
<title>n34&#45;&gt;n69</title>
<path fill="none" stroke="black" d="M2188.04,-444.78C2230.77,-437.43 2318.11,-420.7 2389,-396 2390.55,-395.46 2392.12,-394.87 2393.7,-394.25"/>
<polygon fill="black" stroke="black" points="2394.8,-397.59 2402.6,-390.43 2392.03,-391.16 2394.8,-397.59"/>
</g>
<!-- n38 -->
<g id="node39" class="node">
<title>n38</title>
<ellipse fill="#b2dfee" stroke="#b2dfee" cx="1972" cy="-306" rx="27" ry="18"/>
<text text-anchor="middle" x="1972" y="-303.5" font-family="Helvetica,sans-Serif" font-size="10.00">INT</text>
</g>
<!-- n37&#45;&gt;n38 -->
<g id="edge38" class="edge">
<title>n37&#45;&gt;n38</title>
<path fill="none" stroke="black" d="M2089.04,-363.5C2064.56,-351.68 2029.01,-334.52 2003.52,-322.22"/>
<polygon fill="black" stroke="black" points="2005.17,-319.13 1994.64,-317.93 2002.13,-325.43 2005.17,-319.13"/>
</g>
<!-- n40 -->
<g id="node41" class="node">
<title>n40</title>
<ellipse fill="#b2dfee" stroke="#b2dfee" cx="2045" cy="-306" rx="27" ry="18"/>
<text text-anchor="middle" x="2045" y="-303.5" font-family="Helvetica,sans-Serif" font-size="10.00">==</text>
</g>
<!-- n37&#45;&gt;n40 -->
<g id="edge40" class="edge">
<title>n37&#45;&gt;n40</title>
<path fill="none" stroke="black" d="M2100.66,-361.12C2090.97,-351.69 2078.54,-339.61 2067.88,-329.25"/>
<polygon fill="black" stroke="black" points="2070.5,-326.91 2060.89,-322.45 2065.62,-331.93 2070.5,-326.91"/>
</g>
<!-- n41 -->
<g id="node42" class="node">
<title>n41</title>
<ellipse fill="#b2dfee" stroke="#b2dfee" cx="2117" cy="-306" rx="27" ry="18"/>
<text text-anchor="middle" x="2117" y="-303.5" font-family="Helvetica,sans-Serif" font-size="10.00">INT</text>
</g>
<!-- n37&#45;&gt;n41 -->
<g id="edge41" class="edge">
<title>n37&#45;&gt;n41</title>
<path fill="none" stroke="black" d="M2117,-359.7C2117,-352.41 2117,-343.73 2117,-335.54"/>
<polygon fill="black" stroke="black" points="2120.5,-335.62 2117,-325.62 2113.5,-335.62 2120.5,-335.62"/>
</g>
<!-- n39 -->
<g id="node40" class="node">
<title>n39</title>
<ellipse fill="#b2dfee" stroke="#b2dfee" cx="1971" cy="-234" rx="27" ry="18"/>
<text text-anchor="middle" x="1971" y="-231.5" font-family="Helvetica,sans-Serif" font-size="10.00">2</text>
</g>
<!-- n38&#45;&gt;n39 -->
<g id="edge39" class="edge">
<title>n38&#45;&gt;n39</title>
<path fill="none" stroke="black" d="M1971.75,-287.7C1971.65,-280.41 1971.52,-271.73 1971.41,-263.54"/>
<polygon fill="black" stroke="black" points="1974.91,-263.57 1971.27,-253.62 1967.91,-263.67 1974.91,-263.57"/>
</g>
<!-- n42 -->
<g id="node43" class="node">
<title>n42</title>
<ellipse fill="#b2dfee" stroke="#b2dfee" cx="2043" cy="-234" rx="27" ry="18"/>
<text text-anchor="middle" x="2043" y="-231.5" font-family="Helvetica,sans-Serif" font-size="10.00">2</text>
</g>
<!-- n41&#45;&gt;n42 -->
<g id="edge42" class="edge">
<title>n41&#45;&gt;n42</title>
<path fill="none" stroke="black" d="M2102.02,-290.83C2091.76,-281.13 2077.94,-268.06 2066.26,-257"/>
<polygon fill="black" stroke="black" points="2068.98,-254.75 2059.31,-250.42 2064.17,-259.84 2068.98,-254.75"/>
</g>
<!-- n46 -->
<g id="node47" class="node">
<title>n46</title>
<ellipse fill="#b2dfee" stroke="#b2dfee" cx="2353" cy="-306" rx="27" ry="18"/>
<text text-anchor="middle" x="2353" y="-303.5" font-family="Helvetica,sans-Serif" font-size="10.00">IF</text>
</g>
<!-- n45&#45;&gt;n46 -->
<g id="edge46" class="edge">
<title>n45&#45;&gt;n46</title>
<path fill="none" stroke="black" d="M2353,-359.7C2353,-352.41 2353,-343.73 2353,-335.54"/>
<polygon fill="black" stroke="black" points="2356.5,-335.62 2353,-325.62 2349.5,-335.62 2356.5,-335.62"/>
</g>
<!-- n62 -->
<g id="node63" class="node">
<title>n62</title>
<ellipse fill="#b2dfee" stroke="#b2dfee" cx="2774" cy="-306" rx="32.93" ry="18"/>
<text text-anchor="middle" x="2774" y="-303.5" font-family="Helvetica,sans-Serif" font-size="10.00">PRINTLN</text>
</g>
<!-- n45&#45;&gt;n62 -->
<g id="edge62" class="edge">
<title>n45&#45;&gt;n62</title>
<path fill="none" stroke="black" d="M2373.52,-366C2378.47,-363.71 2383.83,-361.54 2389,-360 2508.77,-324.39 2656.73,-312.57 2729.42,-308.75"/>
<polygon fill="black" stroke="black" points="2729.51,-312.25 2739.33,-308.26 2729.17,-305.26 2729.51,-312.25"/>
</g>
<!-- n47 -->
<g id="node48" class="node">
<title>n47</title>
<ellipse fill="#b2dfee" stroke="#b2dfee" cx="2115" cy="-234" rx="27" ry="18"/>
<text text-anchor="middle" x="2115" y="-231.5" font-family="Helvetica,sans-Serif" font-size="10.00">if</text>
</g>
<!-- n46&#45;&gt;n47 -->
<g id="edge47" class="edge">
<title>n46&#45;&gt;n47</title>
<path fill="none" stroke="black" d="M2327.35,-299.86C2288.53,-291.73 2212.84,-274.5 2151,-252 2149.46,-251.44 2147.89,-250.84 2146.32,-250.2"/>
<polygon fill="black" stroke="black" points="2148,-247.12 2137.43,-246.34 2145.2,-253.53 2148,-247.12"/>
</g>
<!-- n48 -->
<g id="node49" class="node">
<title>n48</title>
<ellipse fill="#b2dfee" stroke="#b2dfee" cx="2187" cy="-234" rx="27" ry="18"/>
<text text-anchor="middle" x="2187" y="-231.5" font-family="Helvetica,sans-Serif" font-size="10.00">(</text>
</g>
<!-- n46&#45;&gt;n48 -->
<g id="edge48" class="edge">
<title>n46&#45;&gt;n48</title>
<path fill="none" stroke="black" d="M2330.3,-296.18C2304.23,-285.94 2260.26,-268.38 2223,-252 2221.5,-251.34 2219.96,-250.66 2218.42,-249.96"/>
<polygon fill="black" stroke="black" points="2220.15,-246.9 2209.61,-245.89 2217.22,-253.26 2220.15,-246.9"/>
</g>
<!-- n49 -->
<g id="node50" class="node">
<title>n49</title>
<ellipse fill="#b2dfee" stroke="#b2dfee" cx="2270" cy="-234" rx="37.85" ry="18"/>
<text text-anchor="middle" x="2270" y="-231.5" font-family="Helvetica,sans-Serif" font-size="10.00">BOOLEAN</text>
</g>
<!-- n46&#45;&gt;n49 -->
<g id="edge49" class="edge">
<title>n46&#45;&gt;n49</title>
<path fill="none" stroke="black" d="M2336.6,-291.17C2325.24,-281.59 2309.86,-268.61 2296.74,-257.55"/>
<polygon fill="black" stroke="black" points="2299.15,-255.01 2289.25,-251.23 2294.64,-260.36 2299.15,-255.01"/>
</g>
<!-- n51 -->
<g id="node52" class="node">
<title>n51</title>
<ellipse fill="#b2dfee" stroke="#b2dfee" cx="2353" cy="-234" rx="27" ry="18"/>
<text text-anchor="middle" x="2353" y="-231.5" font-family="Helvetica,sans-Serif" font-size="10.00">)</text>
</g>
<!-- n46&#45;&gt;n51 -->
<g id="edge51" class="edge">
<title>n46&#45;&gt;n51</title>
<path fill="none" stroke="black" d="M2353,-287.7C2353,-280.41 2353,-271.73 2353,-263.54"/>
<polygon fill="black" stroke="black" points="2356.5,-263.62 2353,-253.62 2349.5,-263.62 2356.5,-263.62"/>
</g>
<!-- n52 -->
<g id="node53" class="node">
<title>n52</title>
<ellipse fill="#b2dfee" stroke="#b2dfee" cx="2425" cy="-234" rx="27" ry="18"/>
<text text-anchor="middle" x="2425" y="-231.5" font-family="Helvetica,sans-Serif" font-size="10.00">{</text>
</g>
<!-- n46&#45;&gt;n52 -->
<g id="edge52" class="edge">
<title>n46&#45;&gt;n52</title>
<path fill="none" stroke="black" d="M2367.92,-290.5C2377.77,-280.92 2390.86,-268.19 2402.03,-257.34"/>
<polygon fill="black" stroke="black" points="2404.29,-260.02 2409.02,-250.54 2399.41,-255 2404.29,-260.02"/>
</g>
<!-- n53 -->
<g id="node54" class="node">
<title>n53</title>
<ellipse fill="#b2dfee" stroke="#b2dfee" cx="2497" cy="-234" rx="27" ry="18"/>
<text text-anchor="middle" x="2497" y="-231.5" font-family="Helvetica,sans-Serif" font-size="10.00">IF</text>
</g>
<!-- n46&#45;&gt;n53 -->
<g id="edge53" class="edge">
<title>n46&#45;&gt;n53</title>
<path fill="none" stroke="black" d="M2374.56,-294.52C2398.66,-282.8 2437.92,-263.72 2465.47,-250.32"/>
<polygon fill="black" stroke="black" points="2466.94,-253.5 2474.4,-245.98 2463.88,-247.21 2466.94,-253.5"/>
</g>
<!-- n61 -->
<g id="node62" class="node">
<title>n61</title>
<ellipse fill="#b2dfee" stroke="#b2dfee" cx="2569" cy="-234" rx="27" ry="18"/>
<text text-anchor="middle" x="2569" y="-231.5" font-family="Helvetica,sans-Serif" font-size="10.00">}</text>
</g>
<!-- n46&#45;&gt;n61 -->
<g id="edge61" class="edge">
<title>n46&#45;&gt;n61</title>
<path fill="none" stroke="black" d="M2378.15,-298.91C2413.32,-290.1 2478.96,-272.57 2533,-252 2534.53,-251.42 2536.09,-250.79 2537.66,-250.15"/>
<polygon fill="black" stroke="black" points="2538.79,-253.47 2546.53,-246.23 2535.97,-247.07 2538.79,-253.47"/>
</g>
<!-- n50 -->
<g id="node51" class="node">
<title>n50</title>
<ellipse fill="#b2dfee" stroke="#b2dfee" cx="2270" cy="-162" rx="27" ry="18"/>
<text text-anchor="middle" x="2270" y="-159.5" font-family="Helvetica,sans-Serif" font-size="10.00">true</text>
</g>
<!-- n49&#45;&gt;n50 -->
<g id="edge50" class="edge">
<title>n49&#45;&gt;n50</title>
<path fill="none" stroke="black" d="M2270,-215.7C2270,-208.41 2270,-199.73 2270,-191.54"/>
<polygon fill="black" stroke="black" points="2273.5,-191.62 2270,-181.62 2266.5,-191.62 2273.5,-191.62"/>
</g>
<!-- n54 -->
<g id="node55" class="node">
<title>n54</title>
<ellipse fill="#b2dfee" stroke="#b2dfee" cx="2497" cy="-162" rx="32.93" ry="18"/>
<text text-anchor="middle" x="2497" y="-159.5" font-family="Helvetica,sans-Serif" font-size="10.00">PRINTLN</text>
</g>
<!-- n53&#45;&gt;n54 -->
<g id="edge54" class="edge">
<title>n53&#45;&gt;n54</title>
<path fill="none" stroke="black" d="M2497,-215.7C2497,-208.41 2497,-199.73 2497,-191.54"/>
<polygon fill="black" stroke="black" points="2500.5,-191.62 2497,-181.62 2493.5,-191.62 2500.5,-191.62"/>
</g>
<!-- n55 -->
<g id="node56" class="node">
<title>n55</title>
<ellipse fill="#b2dfee" stroke="#b2dfee" cx="2303" cy="-90" rx="27" ry="18"/>
<text text-anchor="middle" x="2303" y="-87.5" font-family="Helvetica,sans-Serif" font-size="10.00">Println</text>
</g>
<!-- n54&#45;&gt;n55 -->
<g id="edge55" class="edge">
<title>n54&#45;&gt;n55</title>
<path fill="none" stroke="black" d="M2468.38,-152.51C2436.44,-142.78 2383.42,-125.87 2339,-108 2337.48,-107.39 2335.93,-106.74 2334.37,-106.08"/>
<polygon fill="black" stroke="black" points="2336.07,-103.01 2325.52,-102.11 2333.21,-109.39 2336.07,-103.01"/>
</g>
<!-- n56 -->
<g id="node57" class="node">
<title>n56</title>
<ellipse fill="#b2dfee" stroke="#b2dfee" cx="2375" cy="-90" rx="27" ry="18"/>
<text text-anchor="middle" x="2375" y="-87.5" font-family="Helvetica,sans-Serif" font-size="10.00">(</text>
</g>
<!-- n54&#45;&gt;n56 -->
<g id="edge56" class="edge">
<title>n54&#45;&gt;n56</title>
<path fill="none" stroke="black" d="M2474.91,-148.32C2455.32,-137.08 2426.53,-120.57 2404.89,-108.15"/>
<polygon fill="black" stroke="black" points="2406.64,-105.12 2396.22,-103.18 2403.15,-111.19 2406.64,-105.12"/>
</g>
<!-- n57 -->
<g id="node58" class="node">
<title>n57</title>
<ellipse fill="#b2dfee" stroke="#b2dfee" cx="2497" cy="-90" rx="77.23" ry="18"/>
<text text-anchor="middle" x="2497" y="-87.5" font-family="Helvetica,sans-Serif" font-size="10.00">RECUPERAR_VARIABLE</text>
</g>
<!-- n54&#45;&gt;n57 -->
<g id="edge57" class="edge">
<title>n54&#45;&gt;n57</title>
<path fill="none" stroke="black" d="M2497,-143.7C2497,-136.41 2497,-127.73 2497,-119.54"/>
<polygon fill="black" stroke="black" points="2500.5,-119.62 2497,-109.62 2493.5,-119.62 2500.5,-119.62"/>
</g>
<!-- n59 -->
<g id="node60" class="node">
<title>n59</title>
<ellipse fill="#b2dfee" stroke="#b2dfee" cx="2619" cy="-90" rx="27" ry="18"/>
<text text-anchor="middle" x="2619" y="-87.5" font-family="Helvetica,sans-Serif" font-size="10.00">)</text>
</g>
<!-- n54&#45;&gt;n59 -->
<g id="edge59" class="edge">
<title>n54&#45;&gt;n59</title>
<path fill="none" stroke="black" d="M2519.09,-148.32C2538.68,-137.08 2567.47,-120.57 2589.11,-108.15"/>
<polygon fill="black" stroke="black" points="2590.85,-111.19 2597.78,-103.18 2587.36,-105.12 2590.85,-111.19"/>
</g>
<!-- n60 -->
<g id="node61" class="node">
<title>n60</title>
<ellipse fill="#b2dfee" stroke="#b2dfee" cx="2691" cy="-90" rx="27" ry="18"/>
<text text-anchor="middle" x="2691" y="-87.5" font-family="Helvetica,sans-Serif" font-size="10.00">;</text>
</g>
<!-- n54&#45;&gt;n60 -->
<g id="edge60" class="edge">
<title>n54&#45;&gt;n60</title>
<path fill="none" stroke="black" d="M2525.62,-152.51C2557.56,-142.78 2610.58,-125.87 2655,-108 2656.52,-107.39 2658.07,-106.74 2659.63,-106.08"/>
<polygon fill="black" stroke="black" points="2660.79,-109.39 2668.48,-102.11 2657.93,-103.01 2660.79,-109.39"/>
</g>
<!-- n58 -->
<g id="node59" class="node">
<title>n58</title>
<ellipse fill="#b2dfee" stroke="#b2dfee" cx="2497" cy="-18" rx="27" ry="18"/>
<text text-anchor="middle" x="2497" y="-15.5" font-family="Helvetica,sans-Serif" font-size="10.00">a</text>
</g>
<!-- n57&#45;&gt;n58 -->
<g id="edge58" class="edge">
<title>n57&#45;&gt;n58</title>
<path fill="none" stroke="black" d="M2497,-71.7C2497,-64.41 2497,-55.73 2497,-47.54"/>
<polygon fill="black" stroke="black" points="2500.5,-47.62 2497,-37.62 2493.5,-47.62 2500.5,-47.62"/>
</g>
<!-- n63 -->
<g id="node64" class="node">
<title>n63</title>
<ellipse fill="#b2dfee" stroke="#b2dfee" cx="2641" cy="-234" rx="27" ry="18"/>
<text text-anchor="middle" x="2641" y="-231.5" font-family="Helvetica,sans-Serif" font-size="10.00">Println</text>
</g>
<!-- n62&#45;&gt;n63 -->
<g id="edge63" class="edge">
<title>n62&#45;&gt;n63</title>
<path fill="none" stroke="black" d="M2750.83,-292.81C2728.92,-281.27 2695.89,-263.89 2671.77,-251.2"/>
<polygon fill="black" stroke="black" points="2673.54,-248.17 2663.06,-246.61 2670.28,-254.36 2673.54,-248.17"/>
</g>
<!-- n64 -->
<g id="node65" class="node">
<title>n64</title>
<ellipse fill="#b2dfee" stroke="#b2dfee" cx="2713" cy="-234" rx="27" ry="18"/>
<text text-anchor="middle" x="2713" y="-231.5" font-family="Helvetica,sans-Serif" font-size="10.00">(</text>
</g>
<!-- n62&#45;&gt;n64 -->
<g id="edge64" class="edge">
<title>n62&#45;&gt;n64</title>
<path fill="none" stroke="black" d="M2760.46,-289.46C2752.54,-280.37 2742.37,-268.7 2733.48,-258.5"/>
<polygon fill="black" stroke="black" points="2736.28,-256.39 2727.08,-251.15 2731.01,-260.99 2736.28,-256.39"/>
</g>
<!-- n65 -->
<g id="node66" class="node">
<title>n65</title>
<ellipse fill="#b2dfee" stroke="#b2dfee" cx="2835" cy="-234" rx="77.23" ry="18"/>
<text text-anchor="middle" x="2835" y="-231.5" font-family="Helvetica,sans-Serif" font-size="10.00">RECUPERAR_VARIABLE</text>
</g>
<!-- n62&#45;&gt;n65 -->
<g id="edge65" class="edge">
<title>n62&#45;&gt;n65</title>
<path fill="none" stroke="black" d="M2787.54,-289.46C2794.95,-280.95 2804.33,-270.19 2812.79,-260.48"/>
<polygon fill="black" stroke="black" points="2815.29,-262.94 2819.22,-253.1 2810.02,-258.34 2815.29,-262.94"/>
</g>
<!-- n67 -->
<g id="node68" class="node">
<title>n67</title>
<ellipse fill="#b2dfee" stroke="#b2dfee" cx="2957" cy="-234" rx="27" ry="18"/>
<text text-anchor="middle" x="2957" y="-231.5" font-family="Helvetica,sans-Serif" font-size="10.00">)</text>
</g>
<!-- n62&#45;&gt;n67 -->
<g id="edge67" class="edge">
<title>n62&#45;&gt;n67</title>
<path fill="none" stroke="black" d="M2801.66,-295.9C2831.44,-285.91 2880.04,-269.01 2921,-252 2922.52,-251.37 2924.06,-250.71 2925.62,-250.03"/>
<polygon fill="black" stroke="black" points="2926.79,-253.35 2934.45,-246.03 2923.9,-246.97 2926.79,-253.35"/>
</g>
<!-- n68 -->
<g id="node69" class="node">
<title>n68</title>
<ellipse fill="#b2dfee" stroke="#b2dfee" cx="3029" cy="-234" rx="27" ry="18"/>
<text text-anchor="middle" x="3029" y="-231.5" font-family="Helvetica,sans-Serif" font-size="10.00">;</text>
</g>
<!-- n62&#45;&gt;n68 -->
<g id="edge68" class="edge">
<title>n62&#45;&gt;n68</title>
<path fill="none" stroke="black" d="M2805.04,-299.56C2848.01,-291.56 2927.71,-275.05 2993,-252 2994.55,-251.45 2996.12,-250.86 2997.69,-250.24"/>
<polygon fill="black" stroke="black" points="2998.8,-253.58 3006.59,-246.4 2996.02,-247.15 2998.8,-253.58"/>
</g>
<!-- n66 -->
<g id="node67" class="node">
<title>n66</title>
<ellipse fill="#b2dfee" stroke="#b2dfee" cx="2835" cy="-162" rx="27" ry="18"/>
<text text-anchor="middle" x="2835" y="-159.5" font-family="Helvetica,sans-Serif" font-size="10.00">a</text>
</g>
<!-- n65&#45;&gt;n66 -->
<g id="edge66" class="edge">
<title>n65&#45;&gt;n66</title>
<path fill="none" stroke="black" d="M2835,-215.7C2835,-208.41 2835,-199.73 2835,-191.54"/>
<polygon fill="black" stroke="black" points="2838.5,-191.62 2835,-181.62 2831.5,-191.62 2838.5,-191.62"/>
</g>
</g>
</svg>
