<?xml version="1.0" encoding="UTF-8" standalone="no"?>
<!DOCTYPE svg PUBLIC "-//W3C//DTD SVG 1.1//EN"
 "http://www.w3.org/Graphics/SVG/1.1/DTD/svg11.dtd">
<!-- Generated by graphviz version 7.1.0 (20230121.1956)
 -->
<!-- Title: arbolAST Pages: 1 -->
<svg width="1288pt" height="404pt"
 viewBox="0.00 0.00 1288.00 404.00" xmlns="http://www.w3.org/2000/svg" xmlns:xlink="http://www.w3.org/1999/xlink">
<g id="graph0" class="graph" transform="scale(1 1) rotate(0) translate(4 400)">
<title>arbolAST</title>
<polygon fill="white" stroke="none" points="-4,4 -4,-400 1284,-400 1284,4 -4,4"/>
<!-- n0 -->
<g id="node1" class="node">
<title>n0</title>
<ellipse fill="#b2dfee" stroke="#b2dfee" cx="718" cy="-378" rx="27" ry="18"/>
<text text-anchor="middle" x="718" y="-375.5" font-family="Helvetica,sans-Serif" font-size="10.00">INICIO</text>
</g>
<!-- n1 -->
<g id="node2" class="node">
<title>n1</title>
<ellipse fill="#b2dfee" stroke="#b2dfee" cx="718" cy="-306" rx="55.85" ry="18"/>
<text text-anchor="middle" x="718" y="-303.5" font-family="Helvetica,sans-Serif" font-size="10.00">INSTRUCCIONES</text>
</g>
<!-- n0&#45;&gt;n1 -->
<g id="edge1" class="edge">
<title>n0&#45;&gt;n1</title>
<path fill="none" stroke="black" d="M718,-359.7C718,-352.41 718,-343.73 718,-335.54"/>
<polygon fill="black" stroke="black" points="721.5,-335.62 718,-325.62 714.5,-335.62 721.5,-335.62"/>
</g>
<!-- n2 -->
<g id="node3" class="node">
<title>n2</title>
<ellipse fill="#b2dfee" stroke="#b2dfee" cx="279" cy="-234" rx="85.89" ry="18"/>
<text text-anchor="middle" x="279" y="-231.5" font-family="Helvetica,sans-Serif" font-size="10.00">DECLARACION_VARIABLES</text>
</g>
<!-- n1&#45;&gt;n2 -->
<g id="edge2" class="edge">
<title>n1&#45;&gt;n2</title>
<path fill="none" stroke="black" d="M668.92,-297.17C593.29,-285.11 447.55,-261.88 357.25,-247.48"/>
<polygon fill="black" stroke="black" points="357.9,-244.04 347.48,-245.92 356.8,-250.95 357.9,-244.04"/>
</g>
<!-- n13 -->
<g id="node14" class="node">
<title>n13</title>
<ellipse fill="#b2dfee" stroke="#b2dfee" cx="718" cy="-234" rx="32.93" ry="18"/>
<text text-anchor="middle" x="718" y="-231.5" font-family="Helvetica,sans-Serif" font-size="10.00">PRINTLN</text>
</g>
<!-- n1&#45;&gt;n13 -->
<g id="edge13" class="edge">
<title>n1&#45;&gt;n13</title>
<path fill="none" stroke="black" d="M718,-287.7C718,-280.41 718,-271.73 718,-263.54"/>
<polygon fill="black" stroke="black" points="721.5,-263.62 718,-253.62 714.5,-263.62 721.5,-263.62"/>
</g>
<!-- n24 -->
<g id="node25" class="node">
<title>n24</title>
<ellipse fill="#b2dfee" stroke="#b2dfee" cx="1062" cy="-234" rx="32.93" ry="18"/>
<text text-anchor="middle" x="1062" y="-231.5" font-family="Helvetica,sans-Serif" font-size="10.00">PRINTLN</text>
</g>
<!-- n1&#45;&gt;n24 -->
<g id="edge24" class="edge">
<title>n1&#45;&gt;n24</title>
<path fill="none" stroke="black" d="M764.39,-295.56C831.87,-281.83 956.04,-256.56 1020.59,-243.43"/>
<polygon fill="black" stroke="black" points="1020.96,-246.92 1030.06,-241.5 1019.56,-240.06 1020.96,-246.92"/>
</g>
<!-- n3 -->
<g id="node4" class="node">
<title>n3</title>
<ellipse fill="#b2dfee" stroke="#b2dfee" cx="27" cy="-162" rx="27" ry="18"/>
<text text-anchor="middle" x="27" y="-159.5" font-family="Helvetica,sans-Serif" font-size="10.00">var</text>
</g>
<!-- n2&#45;&gt;n3 -->
<g id="edge3" class="edge">
<title>n2&#45;&gt;n3</title>
<path fill="none" stroke="black" d="M217.05,-221.25C173.34,-212.13 113.76,-198.01 63,-180 61.45,-179.45 59.88,-178.86 58.31,-178.23"/>
<polygon fill="black" stroke="black" points="59.98,-175.14 49.41,-174.39 57.2,-181.57 59.98,-175.14"/>
</g>
<!-- n4 -->
<g id="node5" class="node">
<title>n4</title>
<ellipse fill="#b2dfee" stroke="#b2dfee" cx="99" cy="-162" rx="27" ry="18"/>
<text text-anchor="middle" x="99" y="-159.5" font-family="Helvetica,sans-Serif" font-size="10.00">z</text>
</g>
<!-- n2&#45;&gt;n4 -->
<g id="edge4" class="edge">
<title>n2&#45;&gt;n4</title>
<path fill="none" stroke="black" d="M235.45,-218.1C206.68,-207.98 168.29,-193.95 135,-180 133.49,-179.37 131.94,-178.7 130.39,-178.02"/>
<polygon fill="black" stroke="black" points="132.11,-174.96 121.56,-174.01 129.21,-181.33 132.11,-174.96"/>
</g>
<!-- n5 -->
<g id="node6" class="node">
<title>n5</title>
<ellipse fill="#b2dfee" stroke="#b2dfee" cx="171" cy="-162" rx="27" ry="18"/>
<text text-anchor="middle" x="171" y="-159.5" font-family="Helvetica,sans-Serif" font-size="10.00">:</text>
</g>
<!-- n2&#45;&gt;n5 -->
<g id="edge5" class="edge">
<title>n2&#45;&gt;n5</title>
<path fill="none" stroke="black" d="M253.41,-216.41C237.14,-205.87 216.06,-192.21 199.29,-181.34"/>
<polygon fill="black" stroke="black" points="201.56,-178.63 191.26,-176.13 197.75,-184.51 201.56,-178.63"/>
</g>
<!-- n6 -->
<g id="node7" class="node">
<title>n6</title>
<ellipse fill="#b2dfee" stroke="#b2dfee" cx="243" cy="-162" rx="27" ry="18"/>
<text text-anchor="middle" x="243" y="-159.5" font-family="Helvetica,sans-Serif" font-size="10.00">INT</text>
</g>
<!-- n2&#45;&gt;n6 -->
<g id="edge6" class="edge">
<title>n2&#45;&gt;n6</title>
<path fill="none" stroke="black" d="M270.1,-215.7C266.02,-207.75 261.08,-198.16 256.55,-189.34"/>
<polygon fill="black" stroke="black" points="259.68,-187.78 252,-180.49 253.46,-190.98 259.68,-187.78"/>
</g>
<!-- n7 -->
<g id="node8" class="node">
<title>n7</title>
<ellipse fill="#b2dfee" stroke="#b2dfee" cx="315" cy="-162" rx="27" ry="18"/>
<text text-anchor="middle" x="315" y="-159.5" font-family="Helvetica,sans-Serif" font-size="10.00">=</text>
</g>
<!-- n2&#45;&gt;n7 -->
<g id="edge7" class="edge">
<title>n2&#45;&gt;n7</title>
<path fill="none" stroke="black" d="M287.9,-215.7C291.98,-207.75 296.92,-198.16 301.45,-189.34"/>
<polygon fill="black" stroke="black" points="304.54,-190.98 306,-180.49 298.32,-187.78 304.54,-190.98"/>
</g>
<!-- n8 -->
<g id="node9" class="node">
<title>n8</title>
<ellipse fill="#b2dfee" stroke="#b2dfee" cx="400" cy="-162" rx="40.06" ry="18"/>
<text text-anchor="middle" x="400" y="-159.5" font-family="Helvetica,sans-Serif" font-size="10.00">NEGACION</text>
</g>
<!-- n2&#45;&gt;n8 -->
<g id="edge8" class="edge">
<title>n2&#45;&gt;n8</title>
<path fill="none" stroke="black" d="M307.37,-216.59C325.05,-206.36 347.89,-193.15 366.46,-182.4"/>
<polygon fill="black" stroke="black" points="368.07,-185.51 374.98,-177.48 364.57,-179.45 368.07,-185.51"/>
</g>
<!-- n12 -->
<g id="node13" class="node">
<title>n12</title>
<ellipse fill="#b2dfee" stroke="#b2dfee" cx="485" cy="-162" rx="27" ry="18"/>
<text text-anchor="middle" x="485" y="-159.5" font-family="Helvetica,sans-Serif" font-size="10.00">;</text>
</g>
<!-- n2&#45;&gt;n12 -->
<g id="edge12" class="edge">
<title>n2&#45;&gt;n12</title>
<path fill="none" stroke="black" d="M329.84,-219.15C363.96,-209.38 409.68,-195.33 449,-180 450.53,-179.4 452.08,-178.77 453.65,-178.12"/>
<polygon fill="black" stroke="black" points="454.79,-181.44 462.51,-174.18 451.95,-175.04 454.79,-181.44"/>
</g>
<!-- n9 -->
<g id="node10" class="node">
<title>n9</title>
<ellipse fill="#b2dfee" stroke="#b2dfee" cx="364" cy="-90" rx="27" ry="18"/>
<text text-anchor="middle" x="364" y="-87.5" font-family="Helvetica,sans-Serif" font-size="10.00">&#45;</text>
</g>
<!-- n8&#45;&gt;n9 -->
<g id="edge9" class="edge">
<title>n8&#45;&gt;n9</title>
<path fill="none" stroke="black" d="M391.29,-144.05C387.16,-136.03 382.13,-126.26 377.52,-117.3"/>
<polygon fill="black" stroke="black" points="380.76,-115.95 373.08,-108.65 374.54,-119.15 380.76,-115.95"/>
</g>
<!-- n10 -->
<g id="node11" class="node">
<title>n10</title>
<ellipse fill="#b2dfee" stroke="#b2dfee" cx="436" cy="-90" rx="27" ry="18"/>
<text text-anchor="middle" x="436" y="-87.5" font-family="Helvetica,sans-Serif" font-size="10.00">INT</text>
</g>
<!-- n8&#45;&gt;n10 -->
<g id="edge10" class="edge">
<title>n8&#45;&gt;n10</title>
<path fill="none" stroke="black" d="M408.71,-144.05C412.84,-136.03 417.87,-126.26 422.48,-117.3"/>
<polygon fill="black" stroke="black" points="425.46,-119.15 426.92,-108.65 419.24,-115.95 425.46,-119.15"/>
</g>
<!-- n11 -->
<g id="node12" class="node">
<title>n11</title>
<ellipse fill="#b2dfee" stroke="#b2dfee" cx="436" cy="-18" rx="27" ry="18"/>
<text text-anchor="middle" x="436" y="-15.5" font-family="Helvetica,sans-Serif" font-size="10.00">&#45;5</text>
</g>
<!-- n10&#45;&gt;n11 -->
<g id="edge11" class="edge">
<title>n10&#45;&gt;n11</title>
<path fill="none" stroke="black" d="M436,-71.7C436,-64.41 436,-55.73 436,-47.54"/>
<polygon fill="black" stroke="black" points="439.5,-47.62 436,-37.62 432.5,-47.62 439.5,-47.62"/>
</g>
<!-- n14 -->
<g id="node15" class="node">
<title>n14</title>
<ellipse fill="#b2dfee" stroke="#b2dfee" cx="557" cy="-162" rx="27" ry="18"/>
<text text-anchor="middle" x="557" y="-159.5" font-family="Helvetica,sans-Serif" font-size="10.00">Println</text>
</g>
<!-- n13&#45;&gt;n14 -->
<g id="edge14" class="edge">
<title>n13&#45;&gt;n14</title>
<path fill="none" stroke="black" d="M692.49,-222.54C667.14,-212.05 627.2,-195.32 593,-180 591.69,-179.41 590.35,-178.81 589,-178.19"/>
<polygon fill="black" stroke="black" points="590.55,-175.06 580.01,-174.03 587.61,-181.41 590.55,-175.06"/>
</g>
<!-- n15 -->
<g id="node16" class="node">
<title>n15</title>
<ellipse fill="#b2dfee" stroke="#b2dfee" cx="629" cy="-162" rx="27" ry="18"/>
<text text-anchor="middle" x="629" y="-159.5" font-family="Helvetica,sans-Serif" font-size="10.00">(</text>
</g>
<!-- n13&#45;&gt;n15 -->
<g id="edge15" class="edge">
<title>n13&#45;&gt;n15</title>
<path fill="none" stroke="black" d="M699.99,-218.83C687.07,-208.68 669.48,-194.83 655.03,-183.47"/>
<polygon fill="black" stroke="black" points="657.29,-180.8 647.27,-177.37 652.96,-186.3 657.29,-180.8"/>
</g>
<!-- n16 -->
<g id="node17" class="node">
<title>n16</title>
<ellipse fill="#b2dfee" stroke="#b2dfee" cx="718" cy="-162" rx="43.62" ry="18"/>
<text text-anchor="middle" x="718" y="-159.5" font-family="Helvetica,sans-Serif" font-size="10.00">ARITMETICA</text>
</g>
<!-- n13&#45;&gt;n16 -->
<g id="edge16" class="edge">
<title>n13&#45;&gt;n16</title>
<path fill="none" stroke="black" d="M718,-215.7C718,-208.41 718,-199.73 718,-191.54"/>
<polygon fill="black" stroke="black" points="721.5,-191.62 718,-181.62 714.5,-191.62 721.5,-191.62"/>
</g>
<!-- n22 -->
<g id="node23" class="node">
<title>n22</title>
<ellipse fill="#b2dfee" stroke="#b2dfee" cx="807" cy="-162" rx="27" ry="18"/>
<text text-anchor="middle" x="807" y="-159.5" font-family="Helvetica,sans-Serif" font-size="10.00">)</text>
</g>
<!-- n13&#45;&gt;n22 -->
<g id="edge22" class="edge">
<title>n13&#45;&gt;n22</title>
<path fill="none" stroke="black" d="M736.01,-218.83C748.93,-208.68 766.52,-194.83 780.97,-183.47"/>
<polygon fill="black" stroke="black" points="783.04,-186.3 788.73,-177.37 778.71,-180.8 783.04,-186.3"/>
</g>
<!-- n23 -->
<g id="node24" class="node">
<title>n23</title>
<ellipse fill="#b2dfee" stroke="#b2dfee" cx="879" cy="-162" rx="27" ry="18"/>
<text text-anchor="middle" x="879" y="-159.5" font-family="Helvetica,sans-Serif" font-size="10.00">;</text>
</g>
<!-- n13&#45;&gt;n23 -->
<g id="edge23" class="edge">
<title>n13&#45;&gt;n23</title>
<path fill="none" stroke="black" d="M743.51,-222.54C768.86,-212.05 808.8,-195.32 843,-180 844.31,-179.41 845.65,-178.81 847,-178.19"/>
<polygon fill="black" stroke="black" points="848.39,-181.41 855.99,-174.03 845.45,-175.06 848.39,-181.41"/>
</g>
<!-- n17 -->
<g id="node18" class="node">
<title>n17</title>
<ellipse fill="#b2dfee" stroke="#b2dfee" cx="646" cy="-90" rx="27" ry="18"/>
<text text-anchor="middle" x="646" y="-87.5" font-family="Helvetica,sans-Serif" font-size="10.00">INT</text>
</g>
<!-- n16&#45;&gt;n17 -->
<g id="edge17" class="edge">
<title>n16&#45;&gt;n17</title>
<path fill="none" stroke="black" d="M701.66,-145.12C691.97,-135.69 679.54,-123.61 668.88,-113.25"/>
<polygon fill="black" stroke="black" points="671.5,-110.91 661.89,-106.45 666.62,-115.93 671.5,-110.91"/>
</g>
<!-- n19 -->
<g id="node20" class="node">
<title>n19</title>
<ellipse fill="#b2dfee" stroke="#b2dfee" cx="718" cy="-90" rx="27" ry="18"/>
<text text-anchor="middle" x="718" y="-87.5" font-family="Helvetica,sans-Serif" font-size="10.00">/</text>
</g>
<!-- n16&#45;&gt;n19 -->
<g id="edge19" class="edge">
<title>n16&#45;&gt;n19</title>
<path fill="none" stroke="black" d="M718,-143.7C718,-136.41 718,-127.73 718,-119.54"/>
<polygon fill="black" stroke="black" points="721.5,-119.62 718,-109.62 714.5,-119.62 721.5,-119.62"/>
</g>
<!-- n20 -->
<g id="node21" class="node">
<title>n20</title>
<ellipse fill="#b2dfee" stroke="#b2dfee" cx="790" cy="-90" rx="27" ry="18"/>
<text text-anchor="middle" x="790" y="-87.5" font-family="Helvetica,sans-Serif" font-size="10.00">INT</text>
</g>
<!-- n16&#45;&gt;n20 -->
<g id="edge20" class="edge">
<title>n16&#45;&gt;n20</title>
<path fill="none" stroke="black" d="M734.34,-145.12C744.03,-135.69 756.46,-123.61 767.12,-113.25"/>
<polygon fill="black" stroke="black" points="769.38,-115.93 774.11,-106.45 764.5,-110.91 769.38,-115.93"/>
</g>
<!-- n18 -->
<g id="node19" class="node">
<title>n18</title>
<ellipse fill="#b2dfee" stroke="#b2dfee" cx="646" cy="-18" rx="27" ry="18"/>
<text text-anchor="middle" x="646" y="-15.5" font-family="Helvetica,sans-Serif" font-size="10.00">5</text>
</g>
<!-- n17&#45;&gt;n18 -->
<g id="edge18" class="edge">
<title>n17&#45;&gt;n18</title>
<path fill="none" stroke="black" d="M646,-71.7C646,-64.41 646,-55.73 646,-47.54"/>
<polygon fill="black" stroke="black" points="649.5,-47.62 646,-37.62 642.5,-47.62 649.5,-47.62"/>
</g>
<!-- n21 -->
<g id="node22" class="node">
<title>n21</title>
<ellipse fill="#b2dfee" stroke="#b2dfee" cx="790" cy="-18" rx="27" ry="18"/>
<text text-anchor="middle" x="790" y="-15.5" font-family="Helvetica,sans-Serif" font-size="10.00">0</text>
</g>
<!-- n20&#45;&gt;n21 -->
<g id="edge21" class="edge">
<title>n20&#45;&gt;n21</title>
<path fill="none" stroke="black" d="M790,-71.7C790,-64.41 790,-55.73 790,-47.54"/>
<polygon fill="black" stroke="black" points="793.5,-47.62 790,-37.62 786.5,-47.62 793.5,-47.62"/>
</g>
<!-- n25 -->
<g id="node26" class="node">
<title>n25</title>
<ellipse fill="#b2dfee" stroke="#b2dfee" cx="951" cy="-162" rx="27" ry="18"/>
<text text-anchor="middle" x="951" y="-159.5" font-family="Helvetica,sans-Serif" font-size="10.00">Println</text>
</g>
<!-- n24&#45;&gt;n25 -->
<g id="edge25" class="edge">
<title>n24&#45;&gt;n25</title>
<path fill="none" stroke="black" d="M1040.86,-219.67C1023.59,-208.77 998.99,-193.26 979.89,-181.22"/>
<polygon fill="black" stroke="black" points="981.81,-178.29 971.49,-175.92 978.08,-184.21 981.81,-178.29"/>
</g>
<!-- n26 -->
<g id="node27" class="node">
<title>n26</title>
<ellipse fill="#b2dfee" stroke="#b2dfee" cx="1023" cy="-162" rx="27" ry="18"/>
<text text-anchor="middle" x="1023" y="-159.5" font-family="Helvetica,sans-Serif" font-size="10.00">(</text>
</g>
<!-- n24&#45;&gt;n26 -->
<g id="edge26" class="edge">
<title>n24&#45;&gt;n26</title>
<path fill="none" stroke="black" d="M1052.76,-216.41C1048.18,-208.19 1042.54,-198.06 1037.4,-188.85"/>
<polygon fill="black" stroke="black" points="1040.57,-187.34 1032.64,-180.31 1034.45,-190.75 1040.57,-187.34"/>
</g>
<!-- n27 -->
<g id="node28" class="node">
<title>n27</title>
<ellipse fill="#b2dfee" stroke="#b2dfee" cx="1102" cy="-162" rx="33.61" ry="18"/>
<text text-anchor="middle" x="1102" y="-159.5" font-family="Helvetica,sans-Serif" font-size="10.00">CADENA</text>
</g>
<!-- n24&#45;&gt;n27 -->
<g id="edge27" class="edge">
<title>n24&#45;&gt;n27</title>
<path fill="none" stroke="black" d="M1071.48,-216.41C1076.11,-208.3 1081.8,-198.35 1087,-189.25"/>
<polygon fill="black" stroke="black" points="1089.92,-191.2 1091.84,-180.78 1083.84,-187.73 1089.92,-191.2"/>
</g>
<!-- n29 -->
<g id="node30" class="node">
<title>n29</title>
<ellipse fill="#b2dfee" stroke="#b2dfee" cx="1181" cy="-162" rx="27" ry="18"/>
<text text-anchor="middle" x="1181" y="-159.5" font-family="Helvetica,sans-Serif" font-size="10.00">)</text>
</g>
<!-- n24&#45;&gt;n29 -->
<g id="edge29" class="edge">
<title>n24&#45;&gt;n29</title>
<path fill="none" stroke="black" d="M1083.83,-220.16C1102.86,-208.97 1130.62,-192.64 1151.6,-180.29"/>
<polygon fill="black" stroke="black" points="1153.14,-183.45 1159.98,-175.36 1149.59,-177.42 1153.14,-183.45"/>
</g>
<!-- n30 -->
<g id="node31" class="node">
<title>n30</title>
<ellipse fill="#b2dfee" stroke="#b2dfee" cx="1253" cy="-162" rx="27" ry="18"/>
<text text-anchor="middle" x="1253" y="-159.5" font-family="Helvetica,sans-Serif" font-size="10.00">;</text>
</g>
<!-- n24&#45;&gt;n30 -->
<g id="edge30" class="edge">
<title>n24&#45;&gt;n30</title>
<path fill="none" stroke="black" d="M1090.35,-224.36C1121.7,-214.56 1173.52,-197.64 1217,-180 1218.52,-179.38 1220.07,-178.73 1221.63,-178.06"/>
<polygon fill="black" stroke="black" points="1222.79,-181.38 1230.47,-174.09 1219.92,-175 1222.79,-181.38"/>
</g>
<!-- n28 -->
<g id="node29" class="node">
<title>n28</title>
<ellipse fill="#b2dfee" stroke="#b2dfee" cx="1102" cy="-90" rx="39.38" ry="18"/>
<text text-anchor="middle" x="1102" y="-87.5" font-family="Helvetica,sans-Serif" font-size="10.00">hola mundo</text>
</g>
<!-- n27&#45;&gt;n28 -->
<g id="edge28" class="edge">
<title>n27&#45;&gt;n28</title>
<path fill="none" stroke="black" d="M1102,-143.7C1102,-136.41 1102,-127.73 1102,-119.54"/>
<polygon fill="black" stroke="black" points="1105.5,-119.62 1102,-109.62 1098.5,-119.62 1105.5,-119.62"/>
</g>
</g>
</svg>
