<?xml version="1.0" encoding="UTF-8" standalone="no"?>
<!DOCTYPE svg PUBLIC "-//W3C//DTD SVG 1.1//EN"
 "http://www.w3.org/Graphics/SVG/1.1/DTD/svg11.dtd">
<!-- Generated by graphviz version 7.1.0 (20230121.1956)
 -->
<!-- Title: arbolAST Pages: 1 -->
<svg width="1740pt" height="404pt"
 viewBox="0.00 0.00 1740.00 404.00" xmlns="http://www.w3.org/2000/svg" xmlns:xlink="http://www.w3.org/1999/xlink">
<g id="graph0" class="graph" transform="scale(1 1) rotate(0) translate(4 400)">
<title>arbolAST</title>
<polygon fill="white" stroke="none" points="-4,4 -4,-400 1736,-400 1736,4 -4,4"/>
<!-- n0 -->
<g id="node1" class="node">
<title>n0</title>
<ellipse fill="#b2dfee" stroke="#b2dfee" cx="974" cy="-378" rx="27" ry="18"/>
<text text-anchor="middle" x="974" y="-375.5" font-family="Helvetica,sans-Serif" font-size="10.00">INICIO</text>
</g>
<!-- n1 -->
<g id="node2" class="node">
<title>n1</title>
<ellipse fill="#b2dfee" stroke="#b2dfee" cx="974" cy="-306" rx="55.85" ry="18"/>
<text text-anchor="middle" x="974" y="-303.5" font-family="Helvetica,sans-Serif" font-size="10.00">INSTRUCCIONES</text>
</g>
<!-- n0&#45;&gt;n1 -->
<g id="edge1" class="edge">
<title>n0&#45;&gt;n1</title>
<path fill="none" stroke="black" d="M974,-359.7C974,-352.41 974,-343.73 974,-335.54"/>
<polygon fill="black" stroke="black" points="977.5,-335.62 974,-325.62 970.5,-335.62 977.5,-335.62"/>
</g>
<!-- n2 -->
<g id="node3" class="node">
<title>n2</title>
<ellipse fill="#b2dfee" stroke="#b2dfee" cx="387" cy="-234" rx="70.78" ry="18"/>
<text text-anchor="middle" x="387" y="-231.5" font-family="Helvetica,sans-Serif" font-size="10.00">Declaracion de Arreglos</text>
</g>
<!-- n1&#45;&gt;n2 -->
<g id="edge2" class="edge">
<title>n1&#45;&gt;n2</title>
<path fill="none" stroke="black" d="M922.17,-298.82C817.8,-286.37 582.04,-258.26 461.31,-243.86"/>
<polygon fill="black" stroke="black" points="461.84,-240.4 451.49,-242.69 461.01,-247.35 461.84,-240.4"/>
</g>
<!-- n16 -->
<g id="node17" class="node">
<title>n16</title>
<ellipse fill="#b2dfee" stroke="#b2dfee" cx="974" cy="-234" rx="85.89" ry="18"/>
<text text-anchor="middle" x="974" y="-231.5" font-family="Helvetica,sans-Serif" font-size="10.00">DECLARACION_VARIABLES</text>
</g>
<!-- n1&#45;&gt;n16 -->
<g id="edge16" class="edge">
<title>n1&#45;&gt;n16</title>
<path fill="none" stroke="black" d="M974,-287.7C974,-280.41 974,-271.73 974,-263.54"/>
<polygon fill="black" stroke="black" points="977.5,-263.62 974,-253.62 970.5,-263.62 977.5,-263.62"/>
</g>
<!-- n31 -->
<g id="node32" class="node">
<title>n31</title>
<ellipse fill="#b2dfee" stroke="#b2dfee" cx="1453" cy="-234" rx="32.93" ry="18"/>
<text text-anchor="middle" x="1453" y="-231.5" font-family="Helvetica,sans-Serif" font-size="10.00">PRINTLN</text>
</g>
<!-- n1&#45;&gt;n31 -->
<g id="edge31" class="edge">
<title>n1&#45;&gt;n31</title>
<path fill="none" stroke="black" d="M1023.91,-297.71C1118.27,-283.92 1321.34,-254.24 1410.05,-241.28"/>
<polygon fill="black" stroke="black" points="1410.4,-244.76 1419.79,-239.85 1409.39,-237.84 1410.4,-244.76"/>
</g>
<!-- n3 -->
<g id="node4" class="node">
<title>n3</title>
<ellipse fill="#b2dfee" stroke="#b2dfee" cx="27" cy="-162" rx="27" ry="18"/>
<text text-anchor="middle" x="27" y="-159.5" font-family="Helvetica,sans-Serif" font-size="10.00">arr</text>
</g>
<!-- n2&#45;&gt;n3 -->
<g id="edge3" class="edge">
<title>n2&#45;&gt;n3</title>
<path fill="none" stroke="black" d="M320.28,-227.57C253.89,-220.89 149.67,-206.97 63,-180 61.39,-179.5 59.76,-178.94 58.13,-178.34"/>
<polygon fill="black" stroke="black" points="59.52,-175.12 48.94,-174.49 56.81,-181.58 59.52,-175.12"/>
</g>
<!-- n4 -->
<g id="node5" class="node">
<title>n4</title>
<ellipse fill="#b2dfee" stroke="#b2dfee" cx="99" cy="-162" rx="27" ry="18"/>
<text text-anchor="middle" x="99" y="-159.5" font-family="Helvetica,sans-Serif" font-size="10.00">:</text>
</g>
<!-- n2&#45;&gt;n4 -->
<g id="edge4" class="edge">
<title>n2&#45;&gt;n4</title>
<path fill="none" stroke="black" d="M326.38,-224.34C274.66,-215.99 198.78,-201.44 135,-180 133.44,-179.48 131.87,-178.9 130.29,-178.3"/>
<polygon fill="black" stroke="black" points="131.95,-175.2 121.37,-174.51 129.2,-181.64 131.95,-175.2"/>
</g>
<!-- n5 -->
<g id="node6" class="node">
<title>n5</title>
<ellipse fill="#b2dfee" stroke="#b2dfee" cx="171" cy="-162" rx="27" ry="18"/>
<text text-anchor="middle" x="171" y="-159.5" font-family="Helvetica,sans-Serif" font-size="10.00">INT</text>
</g>
<!-- n2&#45;&gt;n5 -->
<g id="edge5" class="edge">
<title>n2&#45;&gt;n5</title>
<path fill="none" stroke="black" d="M337.81,-220.72C301.24,-211.07 250.38,-196.52 207,-180 205.47,-179.42 203.91,-178.79 202.34,-178.15"/>
<polygon fill="black" stroke="black" points="204.03,-175.07 193.47,-174.23 201.21,-181.47 204.03,-175.07"/>
</g>
<!-- n6 -->
<g id="node7" class="node">
<title>n6</title>
<ellipse fill="#b2dfee" stroke="#b2dfee" cx="243" cy="-162" rx="27" ry="18"/>
<text text-anchor="middle" x="243" y="-159.5" font-family="Helvetica,sans-Serif" font-size="10.00">=</text>
</g>
<!-- n2&#45;&gt;n6 -->
<g id="edge6" class="edge">
<title>n2&#45;&gt;n6</title>
<path fill="none" stroke="black" d="M355.04,-217.46C331.04,-205.8 298.34,-189.9 274.46,-178.29"/>
<polygon fill="black" stroke="black" points="276.06,-175.18 265.54,-173.96 273,-181.47 276.06,-175.18"/>
</g>
<!-- n7 -->
<g id="node8" class="node">
<title>n7</title>
<ellipse fill="#b2dfee" stroke="#b2dfee" cx="315" cy="-162" rx="27" ry="18"/>
<text text-anchor="middle" x="315" y="-159.5" font-family="Helvetica,sans-Serif" font-size="10.00">[</text>
</g>
<!-- n2&#45;&gt;n7 -->
<g id="edge7" class="edge">
<title>n2&#45;&gt;n7</title>
<path fill="none" stroke="black" d="M369.94,-216.41C360.32,-207.06 348.18,-195.26 337.77,-185.13"/>
<polygon fill="black" stroke="black" points="340.21,-182.62 330.6,-178.16 335.33,-187.64 340.21,-182.62"/>
</g>
<!-- n8 -->
<g id="node9" class="node">
<title>n8</title>
<ellipse fill="#b2dfee" stroke="#b2dfee" cx="387" cy="-162" rx="27" ry="18"/>
<text text-anchor="middle" x="387" y="-159.5" font-family="Helvetica,sans-Serif" font-size="10.00">INT</text>
</g>
<!-- n2&#45;&gt;n8 -->
<g id="edge8" class="edge">
<title>n2&#45;&gt;n8</title>
<path fill="none" stroke="black" d="M387,-215.7C387,-208.41 387,-199.73 387,-191.54"/>
<polygon fill="black" stroke="black" points="390.5,-191.62 387,-181.62 383.5,-191.62 390.5,-191.62"/>
</g>
<!-- n10 -->
<g id="node11" class="node">
<title>n10</title>
<ellipse fill="#b2dfee" stroke="#b2dfee" cx="459" cy="-162" rx="27" ry="18"/>
<text text-anchor="middle" x="459" y="-159.5" font-family="Helvetica,sans-Serif" font-size="10.00">INT</text>
</g>
<!-- n2&#45;&gt;n10 -->
<g id="edge10" class="edge">
<title>n2&#45;&gt;n10</title>
<path fill="none" stroke="black" d="M404.06,-216.41C413.68,-207.06 425.82,-195.26 436.23,-185.13"/>
<polygon fill="black" stroke="black" points="438.67,-187.64 443.4,-178.16 433.79,-182.62 438.67,-187.64"/>
</g>
<!-- n12 -->
<g id="node13" class="node">
<title>n12</title>
<ellipse fill="#b2dfee" stroke="#b2dfee" cx="531" cy="-162" rx="27" ry="18"/>
<text text-anchor="middle" x="531" y="-159.5" font-family="Helvetica,sans-Serif" font-size="10.00">INT</text>
</g>
<!-- n2&#45;&gt;n12 -->
<g id="edge12" class="edge">
<title>n2&#45;&gt;n12</title>
<path fill="none" stroke="black" d="M418.96,-217.46C442.96,-205.8 475.66,-189.9 499.54,-178.29"/>
<polygon fill="black" stroke="black" points="501,-181.47 508.46,-173.96 497.94,-175.18 501,-181.47"/>
</g>
<!-- n14 -->
<g id="node15" class="node">
<title>n14</title>
<ellipse fill="#b2dfee" stroke="#b2dfee" cx="603" cy="-162" rx="27" ry="18"/>
<text text-anchor="middle" x="603" y="-159.5" font-family="Helvetica,sans-Serif" font-size="10.00">]</text>
</g>
<!-- n2&#45;&gt;n14 -->
<g id="edge14" class="edge">
<title>n2&#45;&gt;n14</title>
<path fill="none" stroke="black" d="M436.19,-220.72C472.76,-211.07 523.62,-196.52 567,-180 568.53,-179.42 570.09,-178.79 571.66,-178.15"/>
<polygon fill="black" stroke="black" points="572.79,-181.47 580.53,-174.23 569.97,-175.07 572.79,-181.47"/>
</g>
<!-- n15 -->
<g id="node16" class="node">
<title>n15</title>
<ellipse fill="#b2dfee" stroke="#b2dfee" cx="675" cy="-162" rx="27" ry="18"/>
<text text-anchor="middle" x="675" y="-159.5" font-family="Helvetica,sans-Serif" font-size="10.00">;</text>
</g>
<!-- n2&#45;&gt;n15 -->
<g id="edge15" class="edge">
<title>n2&#45;&gt;n15</title>
<path fill="none" stroke="black" d="M447.62,-224.34C499.34,-215.99 575.22,-201.44 639,-180 640.56,-179.48 642.13,-178.9 643.71,-178.3"/>
<polygon fill="black" stroke="black" points="644.8,-181.64 652.63,-174.51 642.05,-175.2 644.8,-181.64"/>
</g>
<!-- n9 -->
<g id="node10" class="node">
<title>n9</title>
<ellipse fill="#b2dfee" stroke="#b2dfee" cx="387" cy="-90" rx="27" ry="18"/>
<text text-anchor="middle" x="387" y="-87.5" font-family="Helvetica,sans-Serif" font-size="10.00">0</text>
</g>
<!-- n8&#45;&gt;n9 -->
<g id="edge9" class="edge">
<title>n8&#45;&gt;n9</title>
<path fill="none" stroke="black" d="M387,-143.7C387,-136.41 387,-127.73 387,-119.54"/>
<polygon fill="black" stroke="black" points="390.5,-119.62 387,-109.62 383.5,-119.62 390.5,-119.62"/>
</g>
<!-- n11 -->
<g id="node12" class="node">
<title>n11</title>
<ellipse fill="#b2dfee" stroke="#b2dfee" cx="459" cy="-90" rx="27" ry="18"/>
<text text-anchor="middle" x="459" y="-87.5" font-family="Helvetica,sans-Serif" font-size="10.00">1</text>
</g>
<!-- n10&#45;&gt;n11 -->
<g id="edge11" class="edge">
<title>n10&#45;&gt;n11</title>
<path fill="none" stroke="black" d="M459,-143.7C459,-136.41 459,-127.73 459,-119.54"/>
<polygon fill="black" stroke="black" points="462.5,-119.62 459,-109.62 455.5,-119.62 462.5,-119.62"/>
</g>
<!-- n13 -->
<g id="node14" class="node">
<title>n13</title>
<ellipse fill="#b2dfee" stroke="#b2dfee" cx="531" cy="-90" rx="27" ry="18"/>
<text text-anchor="middle" x="531" y="-87.5" font-family="Helvetica,sans-Serif" font-size="10.00">2</text>
</g>
<!-- n12&#45;&gt;n13 -->
<g id="edge13" class="edge">
<title>n12&#45;&gt;n13</title>
<path fill="none" stroke="black" d="M531,-143.7C531,-136.41 531,-127.73 531,-119.54"/>
<polygon fill="black" stroke="black" points="534.5,-119.62 531,-109.62 527.5,-119.62 534.5,-119.62"/>
</g>
<!-- n17 -->
<g id="node18" class="node">
<title>n17</title>
<ellipse fill="#b2dfee" stroke="#b2dfee" cx="747" cy="-162" rx="27" ry="18"/>
<text text-anchor="middle" x="747" y="-159.5" font-family="Helvetica,sans-Serif" font-size="10.00">const</text>
</g>
<!-- n16&#45;&gt;n17 -->
<g id="edge17" class="edge">
<title>n16&#45;&gt;n17</title>
<path fill="none" stroke="black" d="M917.62,-220.04C879.16,-210.55 827.35,-196.49 783,-180 781.46,-179.43 779.9,-178.82 778.33,-178.18"/>
<polygon fill="black" stroke="black" points="780.01,-175.09 769.45,-174.29 777.21,-181.5 780.01,-175.09"/>
</g>
<!-- n18 -->
<g id="node19" class="node">
<title>n18</title>
<ellipse fill="#b2dfee" stroke="#b2dfee" cx="819" cy="-162" rx="27" ry="18"/>
<text text-anchor="middle" x="819" y="-159.5" font-family="Helvetica,sans-Serif" font-size="10.00">flag</text>
</g>
<!-- n16&#45;&gt;n18 -->
<g id="edge18" class="edge">
<title>n16&#45;&gt;n18</title>
<path fill="none" stroke="black" d="M937.98,-217.2C914.33,-206.77 882.75,-192.73 855,-180 853.69,-179.4 852.36,-178.79 851.01,-178.16"/>
<polygon fill="black" stroke="black" points="852.58,-175.03 842.04,-173.97 849.61,-181.37 852.58,-175.03"/>
</g>
<!-- n19 -->
<g id="node20" class="node">
<title>n19</title>
<ellipse fill="#b2dfee" stroke="#b2dfee" cx="891" cy="-162" rx="27" ry="18"/>
<text text-anchor="middle" x="891" y="-159.5" font-family="Helvetica,sans-Serif" font-size="10.00">:</text>
</g>
<!-- n16&#45;&gt;n19 -->
<g id="edge19" class="edge">
<title>n16&#45;&gt;n19</title>
<path fill="none" stroke="black" d="M953.91,-216.05C942.52,-206.45 928.16,-194.34 916.04,-184.12"/>
<polygon fill="black" stroke="black" points="918.35,-181.49 908.45,-177.71 913.83,-186.84 918.35,-181.49"/>
</g>
<!-- n20 -->
<g id="node21" class="node">
<title>n20</title>
<ellipse fill="#b2dfee" stroke="#b2dfee" cx="974" cy="-162" rx="37.85" ry="18"/>
<text text-anchor="middle" x="974" y="-159.5" font-family="Helvetica,sans-Serif" font-size="10.00">BOOLEAN</text>
</g>
<!-- n16&#45;&gt;n20 -->
<g id="edge20" class="edge">
<title>n16&#45;&gt;n20</title>
<path fill="none" stroke="black" d="M974,-215.7C974,-208.41 974,-199.73 974,-191.54"/>
<polygon fill="black" stroke="black" points="977.5,-191.62 974,-181.62 970.5,-191.62 977.5,-191.62"/>
</g>
<!-- n21 -->
<g id="node22" class="node">
<title>n21</title>
<ellipse fill="#b2dfee" stroke="#b2dfee" cx="1057" cy="-162" rx="27" ry="18"/>
<text text-anchor="middle" x="1057" y="-159.5" font-family="Helvetica,sans-Serif" font-size="10.00">=</text>
</g>
<!-- n16&#45;&gt;n21 -->
<g id="edge21" class="edge">
<title>n16&#45;&gt;n21</title>
<path fill="none" stroke="black" d="M994.09,-216.05C1005.48,-206.45 1019.84,-194.34 1031.96,-184.12"/>
<polygon fill="black" stroke="black" points="1034.17,-186.84 1039.55,-177.71 1029.65,-181.49 1034.17,-186.84"/>
</g>
<!-- n22 -->
<g id="node23" class="node">
<title>n22</title>
<ellipse fill="#b2dfee" stroke="#b2dfee" cx="1129" cy="-162" rx="27" ry="18"/>
<text text-anchor="middle" x="1129" y="-159.5" font-family="Helvetica,sans-Serif" font-size="10.00">FIND</text>
</g>
<!-- n16&#45;&gt;n22 -->
<g id="edge22" class="edge">
<title>n16&#45;&gt;n22</title>
<path fill="none" stroke="black" d="M1010.02,-217.2C1033.67,-206.77 1065.25,-192.73 1093,-180 1094.31,-179.4 1095.64,-178.79 1096.99,-178.16"/>
<polygon fill="black" stroke="black" points="1098.39,-181.37 1105.96,-173.97 1095.42,-175.03 1098.39,-181.37"/>
</g>
<!-- n30 -->
<g id="node31" class="node">
<title>n30</title>
<ellipse fill="#b2dfee" stroke="#b2dfee" cx="1201" cy="-162" rx="27" ry="18"/>
<text text-anchor="middle" x="1201" y="-159.5" font-family="Helvetica,sans-Serif" font-size="10.00">;</text>
</g>
<!-- n16&#45;&gt;n30 -->
<g id="edge30" class="edge">
<title>n16&#45;&gt;n30</title>
<path fill="none" stroke="black" d="M1030.38,-220.04C1068.84,-210.55 1120.65,-196.49 1165,-180 1166.54,-179.43 1168.1,-178.82 1169.67,-178.18"/>
<polygon fill="black" stroke="black" points="1170.79,-181.5 1178.55,-174.29 1167.99,-175.09 1170.79,-181.5"/>
</g>
<!-- n23 -->
<g id="node24" class="node">
<title>n23</title>
<ellipse fill="#b2dfee" stroke="#b2dfee" cx="913" cy="-90" rx="27" ry="18"/>
<text text-anchor="middle" x="913" y="-87.5" font-family="Helvetica,sans-Serif" font-size="10.00">FIND</text>
</g>
<!-- n22&#45;&gt;n23 -->
<g id="edge23" class="edge">
<title>n22&#45;&gt;n23</title>
<path fill="none" stroke="black" d="M1107.97,-150.23C1103.13,-147.98 1097.95,-145.77 1093,-144 1030.87,-121.81 1011.13,-130.19 949,-108 947.45,-107.45 945.89,-106.85 944.31,-106.22"/>
<polygon fill="black" stroke="black" points="945.98,-103.14 935.42,-102.38 943.2,-109.56 945.98,-103.14"/>
</g>
<!-- n24 -->
<g id="node25" class="node">
<title>n24</title>
<ellipse fill="#b2dfee" stroke="#b2dfee" cx="985" cy="-90" rx="27" ry="18"/>
<text text-anchor="middle" x="985" y="-87.5" font-family="Helvetica,sans-Serif" font-size="10.00">(</text>
</g>
<!-- n22&#45;&gt;n24 -->
<g id="edge24" class="edge">
<title>n22&#45;&gt;n24</title>
<path fill="none" stroke="black" d="M1107.44,-150.52C1083.34,-138.8 1044.08,-119.72 1016.53,-106.32"/>
<polygon fill="black" stroke="black" points="1018.12,-103.21 1007.6,-101.98 1015.06,-109.5 1018.12,-103.21"/>
</g>
<!-- n25 -->
<g id="node26" class="node">
<title>n25</title>
<ellipse fill="#b2dfee" stroke="#b2dfee" cx="1057" cy="-90" rx="27" ry="18"/>
<text text-anchor="middle" x="1057" y="-87.5" font-family="Helvetica,sans-Serif" font-size="10.00">arr</text>
</g>
<!-- n22&#45;&gt;n25 -->
<g id="edge25" class="edge">
<title>n22&#45;&gt;n25</title>
<path fill="none" stroke="black" d="M1114.08,-146.5C1104.23,-136.92 1091.14,-124.19 1079.97,-113.34"/>
<polygon fill="black" stroke="black" points="1082.59,-111 1072.98,-106.54 1077.71,-116.02 1082.59,-111"/>
</g>
<!-- n26 -->
<g id="node27" class="node">
<title>n26</title>
<ellipse fill="#b2dfee" stroke="#b2dfee" cx="1129" cy="-90" rx="27" ry="18"/>
<text text-anchor="middle" x="1129" y="-87.5" font-family="Helvetica,sans-Serif" font-size="10.00">,</text>
</g>
<!-- n22&#45;&gt;n26 -->
<g id="edge26" class="edge">
<title>n22&#45;&gt;n26</title>
<path fill="none" stroke="black" d="M1129,-143.7C1129,-136.41 1129,-127.73 1129,-119.54"/>
<polygon fill="black" stroke="black" points="1132.5,-119.62 1129,-109.62 1125.5,-119.62 1132.5,-119.62"/>
</g>
<!-- n27 -->
<g id="node28" class="node">
<title>n27</title>
<ellipse fill="#b2dfee" stroke="#b2dfee" cx="1201" cy="-90" rx="27" ry="18"/>
<text text-anchor="middle" x="1201" y="-87.5" font-family="Helvetica,sans-Serif" font-size="10.00">INT</text>
</g>
<!-- n22&#45;&gt;n27 -->
<g id="edge27" class="edge">
<title>n22&#45;&gt;n27</title>
<path fill="none" stroke="black" d="M1143.92,-146.5C1153.77,-136.92 1166.86,-124.19 1178.03,-113.34"/>
<polygon fill="black" stroke="black" points="1180.29,-116.02 1185.02,-106.54 1175.41,-111 1180.29,-116.02"/>
</g>
<!-- n29 -->
<g id="node30" class="node">
<title>n29</title>
<ellipse fill="#b2dfee" stroke="#b2dfee" cx="1273" cy="-90" rx="27" ry="18"/>
<text text-anchor="middle" x="1273" y="-87.5" font-family="Helvetica,sans-Serif" font-size="10.00">)</text>
</g>
<!-- n22&#45;&gt;n29 -->
<g id="edge29" class="edge">
<title>n22&#45;&gt;n29</title>
<path fill="none" stroke="black" d="M1150.56,-150.52C1174.66,-138.8 1213.92,-119.72 1241.47,-106.32"/>
<polygon fill="black" stroke="black" points="1242.94,-109.5 1250.4,-101.98 1239.88,-103.21 1242.94,-109.5"/>
</g>
<!-- n28 -->
<g id="node29" class="node">
<title>n28</title>
<ellipse fill="#b2dfee" stroke="#b2dfee" cx="1201" cy="-18" rx="27" ry="18"/>
<text text-anchor="middle" x="1201" y="-15.5" font-family="Helvetica,sans-Serif" font-size="10.00">1</text>
</g>
<!-- n27&#45;&gt;n28 -->
<g id="edge28" class="edge">
<title>n27&#45;&gt;n28</title>
<path fill="none" stroke="black" d="M1201,-71.7C1201,-64.41 1201,-55.73 1201,-47.54"/>
<polygon fill="black" stroke="black" points="1204.5,-47.62 1201,-37.62 1197.5,-47.62 1204.5,-47.62"/>
</g>
<!-- n32 -->
<g id="node33" class="node">
<title>n32</title>
<ellipse fill="#b2dfee" stroke="#b2dfee" cx="1345" cy="-162" rx="27" ry="18"/>
<text text-anchor="middle" x="1345" y="-159.5" font-family="Helvetica,sans-Serif" font-size="10.00">Println</text>
</g>
<!-- n31&#45;&gt;n32 -->
<g id="edge32" class="edge">
<title>n31&#45;&gt;n32</title>
<path fill="none" stroke="black" d="M1432.43,-219.67C1415.73,-208.84 1391.99,-193.45 1373.46,-181.44"/>
<polygon fill="black" stroke="black" points="1375.61,-178.67 1365.31,-176.17 1371.8,-184.54 1375.61,-178.67"/>
</g>
<!-- n33 -->
<g id="node34" class="node">
<title>n33</title>
<ellipse fill="#b2dfee" stroke="#b2dfee" cx="1417" cy="-162" rx="27" ry="18"/>
<text text-anchor="middle" x="1417" y="-159.5" font-family="Helvetica,sans-Serif" font-size="10.00">(</text>
</g>
<!-- n31&#45;&gt;n33 -->
<g id="edge33" class="edge">
<title>n31&#45;&gt;n33</title>
<path fill="none" stroke="black" d="M1444.47,-216.41C1440.34,-208.39 1435.29,-198.57 1430.65,-189.54"/>
<polygon fill="black" stroke="black" points="1433.85,-188.11 1426.16,-180.82 1427.62,-191.31 1433.85,-188.11"/>
</g>
<!-- n34 -->
<g id="node35" class="node">
<title>n34</title>
<ellipse fill="#b2dfee" stroke="#b2dfee" cx="1489" cy="-162" rx="27" ry="18"/>
<text text-anchor="middle" x="1489" y="-159.5" font-family="Helvetica,sans-Serif" font-size="10.00">FIND</text>
</g>
<!-- n31&#45;&gt;n34 -->
<g id="edge34" class="edge">
<title>n31&#45;&gt;n34</title>
<path fill="none" stroke="black" d="M1461.53,-216.41C1465.66,-208.39 1470.71,-198.57 1475.35,-189.54"/>
<polygon fill="black" stroke="black" points="1478.38,-191.31 1479.84,-180.82 1472.15,-188.11 1478.38,-191.31"/>
</g>
<!-- n42 -->
<g id="node43" class="node">
<title>n42</title>
<ellipse fill="#b2dfee" stroke="#b2dfee" cx="1561" cy="-162" rx="27" ry="18"/>
<text text-anchor="middle" x="1561" y="-159.5" font-family="Helvetica,sans-Serif" font-size="10.00">)</text>
</g>
<!-- n31&#45;&gt;n42 -->
<g id="edge42" class="edge">
<title>n31&#45;&gt;n42</title>
<path fill="none" stroke="black" d="M1473.57,-219.67C1490.27,-208.84 1514.01,-193.45 1532.54,-181.44"/>
<polygon fill="black" stroke="black" points="1534.2,-184.54 1540.69,-176.17 1530.39,-178.67 1534.2,-184.54"/>
</g>
<!-- n43 -->
<g id="node44" class="node">
<title>n43</title>
<ellipse fill="#b2dfee" stroke="#b2dfee" cx="1633" cy="-162" rx="27" ry="18"/>
<text text-anchor="middle" x="1633" y="-159.5" font-family="Helvetica,sans-Serif" font-size="10.00">;</text>
</g>
<!-- n31&#45;&gt;n43 -->
<g id="edge43" class="edge">
<title>n31&#45;&gt;n43</title>
<path fill="none" stroke="black" d="M1480.62,-223.65C1509.82,-213.58 1557.08,-196.73 1597,-180 1598.51,-179.37 1600.06,-178.7 1601.61,-178.02"/>
<polygon fill="black" stroke="black" points="1602.79,-181.33 1610.44,-174.01 1599.89,-174.96 1602.79,-181.33"/>
</g>
<!-- n35 -->
<g id="node36" class="node">
<title>n35</title>
<ellipse fill="#b2dfee" stroke="#b2dfee" cx="1345" cy="-90" rx="27" ry="18"/>
<text text-anchor="middle" x="1345" y="-87.5" font-family="Helvetica,sans-Serif" font-size="10.00">FIND</text>
</g>
<!-- n34&#45;&gt;n35 -->
<g id="edge35" class="edge">
<title>n34&#45;&gt;n35</title>
<path fill="none" stroke="black" d="M1467.44,-150.52C1443.34,-138.8 1404.08,-119.72 1376.53,-106.32"/>
<polygon fill="black" stroke="black" points="1378.12,-103.21 1367.6,-101.98 1375.06,-109.5 1378.12,-103.21"/>
</g>
<!-- n36 -->
<g id="node37" class="node">
<title>n36</title>
<ellipse fill="#b2dfee" stroke="#b2dfee" cx="1417" cy="-90" rx="27" ry="18"/>
<text text-anchor="middle" x="1417" y="-87.5" font-family="Helvetica,sans-Serif" font-size="10.00">(</text>
</g>
<!-- n34&#45;&gt;n36 -->
<g id="edge36" class="edge">
<title>n34&#45;&gt;n36</title>
<path fill="none" stroke="black" d="M1474.08,-146.5C1464.23,-136.92 1451.14,-124.19 1439.97,-113.34"/>
<polygon fill="black" stroke="black" points="1442.59,-111 1432.98,-106.54 1437.71,-116.02 1442.59,-111"/>
</g>
<!-- n37 -->
<g id="node38" class="node">
<title>n37</title>
<ellipse fill="#b2dfee" stroke="#b2dfee" cx="1489" cy="-90" rx="27" ry="18"/>
<text text-anchor="middle" x="1489" y="-87.5" font-family="Helvetica,sans-Serif" font-size="10.00">arr</text>
</g>
<!-- n34&#45;&gt;n37 -->
<g id="edge37" class="edge">
<title>n34&#45;&gt;n37</title>
<path fill="none" stroke="black" d="M1489,-143.7C1489,-136.41 1489,-127.73 1489,-119.54"/>
<polygon fill="black" stroke="black" points="1492.5,-119.62 1489,-109.62 1485.5,-119.62 1492.5,-119.62"/>
</g>
<!-- n38 -->
<g id="node39" class="node">
<title>n38</title>
<ellipse fill="#b2dfee" stroke="#b2dfee" cx="1561" cy="-90" rx="27" ry="18"/>
<text text-anchor="middle" x="1561" y="-87.5" font-family="Helvetica,sans-Serif" font-size="10.00">,</text>
</g>
<!-- n34&#45;&gt;n38 -->
<g id="edge38" class="edge">
<title>n34&#45;&gt;n38</title>
<path fill="none" stroke="black" d="M1503.92,-146.5C1513.77,-136.92 1526.86,-124.19 1538.03,-113.34"/>
<polygon fill="black" stroke="black" points="1540.29,-116.02 1545.02,-106.54 1535.41,-111 1540.29,-116.02"/>
</g>
<!-- n39 -->
<g id="node40" class="node">
<title>n39</title>
<ellipse fill="#b2dfee" stroke="#b2dfee" cx="1633" cy="-90" rx="27" ry="18"/>
<text text-anchor="middle" x="1633" y="-87.5" font-family="Helvetica,sans-Serif" font-size="10.00">INT</text>
</g>
<!-- n34&#45;&gt;n39 -->
<g id="edge39" class="edge">
<title>n34&#45;&gt;n39</title>
<path fill="none" stroke="black" d="M1510.56,-150.52C1534.66,-138.8 1573.92,-119.72 1601.47,-106.32"/>
<polygon fill="black" stroke="black" points="1602.94,-109.5 1610.4,-101.98 1599.88,-103.21 1602.94,-109.5"/>
</g>
<!-- n41 -->
<g id="node42" class="node">
<title>n41</title>
<ellipse fill="#b2dfee" stroke="#b2dfee" cx="1705" cy="-90" rx="27" ry="18"/>
<text text-anchor="middle" x="1705" y="-87.5" font-family="Helvetica,sans-Serif" font-size="10.00">)</text>
</g>
<!-- n34&#45;&gt;n41 -->
<g id="edge41" class="edge">
<title>n34&#45;&gt;n41</title>
<path fill="none" stroke="black" d="M1510.03,-150.23C1514.87,-147.98 1520.05,-145.77 1525,-144 1587.13,-121.81 1606.87,-130.19 1669,-108 1670.55,-107.45 1672.11,-106.85 1673.69,-106.22"/>
<polygon fill="black" stroke="black" points="1674.8,-109.56 1682.58,-102.38 1672.02,-103.14 1674.8,-109.56"/>
</g>
<!-- n40 -->
<g id="node41" class="node">
<title>n40</title>
<ellipse fill="#b2dfee" stroke="#b2dfee" cx="1633" cy="-18" rx="27" ry="18"/>
<text text-anchor="middle" x="1633" y="-15.5" font-family="Helvetica,sans-Serif" font-size="10.00">1</text>
</g>
<!-- n39&#45;&gt;n40 -->
<g id="edge40" class="edge">
<title>n39&#45;&gt;n40</title>
<path fill="none" stroke="black" d="M1633,-71.7C1633,-64.41 1633,-55.73 1633,-47.54"/>
<polygon fill="black" stroke="black" points="1636.5,-47.62 1633,-37.62 1629.5,-47.62 1636.5,-47.62"/>
</g>
</g>
</svg>
