<?xml version="1.0" encoding="UTF-8" standalone="no"?>
<!DOCTYPE svg PUBLIC "-//W3C//DTD SVG 1.1//EN"
 "http://www.w3.org/Graphics/SVG/1.1/DTD/svg11.dtd">
<!-- Generated by graphviz version 7.1.0 (20230121.1956)
 -->
<!-- Title: arbolAST Pages: 1 -->
<svg width="1629pt" height="404pt"
 viewBox="0.00 0.00 1629.00 404.00" xmlns="http://www.w3.org/2000/svg" xmlns:xlink="http://www.w3.org/1999/xlink">
<g id="graph0" class="graph" transform="scale(1 1) rotate(0) translate(4 400)">
<title>arbolAST</title>
<polygon fill="white" stroke="none" points="-4,4 -4,-400 1625,-400 1625,4 -4,4"/>
<!-- n0 -->
<g id="node1" class="node">
<title>n0</title>
<ellipse fill="#b2dfee" stroke="#b2dfee" cx="747" cy="-378" rx="27" ry="18"/>
<text text-anchor="middle" x="747" y="-375.5" font-family="Helvetica,sans-Serif" font-size="10.00">INICIO</text>
</g>
<!-- n1 -->
<g id="node2" class="node">
<title>n1</title>
<ellipse fill="#b2dfee" stroke="#b2dfee" cx="747" cy="-306" rx="55.85" ry="18"/>
<text text-anchor="middle" x="747" y="-303.5" font-family="Helvetica,sans-Serif" font-size="10.00">INSTRUCCIONES</text>
</g>
<!-- n0&#45;&gt;n1 -->
<g id="edge1" class="edge">
<title>n0&#45;&gt;n1</title>
<path fill="none" stroke="black" d="M747,-359.7C747,-352.41 747,-343.73 747,-335.54"/>
<polygon fill="black" stroke="black" points="750.5,-335.62 747,-325.62 743.5,-335.62 750.5,-335.62"/>
</g>
<!-- n2 -->
<g id="node3" class="node">
<title>n2</title>
<ellipse fill="#b2dfee" stroke="#b2dfee" cx="279" cy="-234" rx="85.89" ry="18"/>
<text text-anchor="middle" x="279" y="-231.5" font-family="Helvetica,sans-Serif" font-size="10.00">DECLARACION_VARIABLES</text>
</g>
<!-- n1&#45;&gt;n2 -->
<g id="edge2" class="edge">
<title>n1&#45;&gt;n2</title>
<path fill="none" stroke="black" d="M697.36,-297.58C616.46,-285.48 455.51,-261.4 358.53,-246.9"/>
<polygon fill="black" stroke="black" points="359.22,-243.46 348.82,-245.44 358.19,-250.38 359.22,-243.46"/>
</g>
<!-- n11 -->
<g id="node12" class="node">
<title>n11</title>
<ellipse fill="#b2dfee" stroke="#b2dfee" cx="747" cy="-234" rx="85.89" ry="18"/>
<text text-anchor="middle" x="747" y="-231.5" font-family="Helvetica,sans-Serif" font-size="10.00">DECLARACION_VARIABLES</text>
</g>
<!-- n1&#45;&gt;n11 -->
<g id="edge11" class="edge">
<title>n1&#45;&gt;n11</title>
<path fill="none" stroke="black" d="M747,-287.7C747,-280.41 747,-271.73 747,-263.54"/>
<polygon fill="black" stroke="black" points="750.5,-263.62 747,-253.62 743.5,-263.62 750.5,-263.62"/>
</g>
<!-- n20 -->
<g id="node21" class="node">
<title>n20</title>
<ellipse fill="#b2dfee" stroke="#b2dfee" cx="1287" cy="-234" rx="27.84" ry="18"/>
<text text-anchor="middle" x="1287" y="-231.5" font-family="Helvetica,sans-Serif" font-size="10.00">WHILE</text>
</g>
<!-- n1&#45;&gt;n20 -->
<g id="edge20" class="edge">
<title>n1&#45;&gt;n20</title>
<path fill="none" stroke="black" d="M798.29,-298.35C905.84,-284.41 1152.9,-252.38 1248.37,-240.01"/>
<polygon fill="black" stroke="black" points="1248.79,-243.48 1258.26,-238.73 1247.89,-236.54 1248.79,-243.48"/>
</g>
<!-- n3 -->
<g id="node4" class="node">
<title>n3</title>
<ellipse fill="#b2dfee" stroke="#b2dfee" cx="27" cy="-162" rx="27" ry="18"/>
<text text-anchor="middle" x="27" y="-159.5" font-family="Helvetica,sans-Serif" font-size="10.00">var</text>
</g>
<!-- n2&#45;&gt;n3 -->
<g id="edge3" class="edge">
<title>n2&#45;&gt;n3</title>
<path fill="none" stroke="black" d="M217.05,-221.25C173.34,-212.13 113.76,-198.01 63,-180 61.45,-179.45 59.88,-178.86 58.31,-178.23"/>
<polygon fill="black" stroke="black" points="59.98,-175.14 49.41,-174.39 57.2,-181.57 59.98,-175.14"/>
</g>
<!-- n4 -->
<g id="node5" class="node">
<title>n4</title>
<ellipse fill="#b2dfee" stroke="#b2dfee" cx="99" cy="-162" rx="27" ry="18"/>
<text text-anchor="middle" x="99" y="-159.5" font-family="Helvetica,sans-Serif" font-size="10.00">j</text>
</g>
<!-- n2&#45;&gt;n4 -->
<g id="edge4" class="edge">
<title>n2&#45;&gt;n4</title>
<path fill="none" stroke="black" d="M235.45,-218.1C206.68,-207.98 168.29,-193.95 135,-180 133.49,-179.37 131.94,-178.7 130.39,-178.02"/>
<polygon fill="black" stroke="black" points="132.11,-174.96 121.56,-174.01 129.21,-181.33 132.11,-174.96"/>
</g>
<!-- n5 -->
<g id="node6" class="node">
<title>n5</title>
<ellipse fill="#b2dfee" stroke="#b2dfee" cx="171" cy="-162" rx="27" ry="18"/>
<text text-anchor="middle" x="171" y="-159.5" font-family="Helvetica,sans-Serif" font-size="10.00">:</text>
</g>
<!-- n2&#45;&gt;n5 -->
<g id="edge5" class="edge">
<title>n2&#45;&gt;n5</title>
<path fill="none" stroke="black" d="M253.41,-216.41C237.14,-205.87 216.06,-192.21 199.29,-181.34"/>
<polygon fill="black" stroke="black" points="201.56,-178.63 191.26,-176.13 197.75,-184.51 201.56,-178.63"/>
</g>
<!-- n6 -->
<g id="node7" class="node">
<title>n6</title>
<ellipse fill="#b2dfee" stroke="#b2dfee" cx="243" cy="-162" rx="27" ry="18"/>
<text text-anchor="middle" x="243" y="-159.5" font-family="Helvetica,sans-Serif" font-size="10.00">INT</text>
</g>
<!-- n2&#45;&gt;n6 -->
<g id="edge6" class="edge">
<title>n2&#45;&gt;n6</title>
<path fill="none" stroke="black" d="M270.1,-215.7C266.02,-207.75 261.08,-198.16 256.55,-189.34"/>
<polygon fill="black" stroke="black" points="259.68,-187.78 252,-180.49 253.46,-190.98 259.68,-187.78"/>
</g>
<!-- n7 -->
<g id="node8" class="node">
<title>n7</title>
<ellipse fill="#b2dfee" stroke="#b2dfee" cx="315" cy="-162" rx="27" ry="18"/>
<text text-anchor="middle" x="315" y="-159.5" font-family="Helvetica,sans-Serif" font-size="10.00">=</text>
</g>
<!-- n2&#45;&gt;n7 -->
<g id="edge7" class="edge">
<title>n2&#45;&gt;n7</title>
<path fill="none" stroke="black" d="M287.9,-215.7C291.98,-207.75 296.92,-198.16 301.45,-189.34"/>
<polygon fill="black" stroke="black" points="304.54,-190.98 306,-180.49 298.32,-187.78 304.54,-190.98"/>
</g>
<!-- n8 -->
<g id="node9" class="node">
<title>n8</title>
<ellipse fill="#b2dfee" stroke="#b2dfee" cx="387" cy="-162" rx="27" ry="18"/>
<text text-anchor="middle" x="387" y="-159.5" font-family="Helvetica,sans-Serif" font-size="10.00">INT</text>
</g>
<!-- n2&#45;&gt;n8 -->
<g id="edge8" class="edge">
<title>n2&#45;&gt;n8</title>
<path fill="none" stroke="black" d="M304.59,-216.41C320.86,-205.87 341.94,-192.21 358.71,-181.34"/>
<polygon fill="black" stroke="black" points="360.25,-184.51 366.74,-176.13 356.44,-178.63 360.25,-184.51"/>
</g>
<!-- n10 -->
<g id="node11" class="node">
<title>n10</title>
<ellipse fill="#b2dfee" stroke="#b2dfee" cx="459" cy="-162" rx="27" ry="18"/>
<text text-anchor="middle" x="459" y="-159.5" font-family="Helvetica,sans-Serif" font-size="10.00">;</text>
</g>
<!-- n2&#45;&gt;n10 -->
<g id="edge10" class="edge">
<title>n2&#45;&gt;n10</title>
<path fill="none" stroke="black" d="M322.55,-218.1C351.32,-207.98 389.71,-193.95 423,-180 424.51,-179.37 426.06,-178.7 427.61,-178.02"/>
<polygon fill="black" stroke="black" points="428.79,-181.33 436.44,-174.01 425.89,-174.96 428.79,-181.33"/>
</g>
<!-- n9 -->
<g id="node10" class="node">
<title>n9</title>
<ellipse fill="#b2dfee" stroke="#b2dfee" cx="387" cy="-90" rx="27" ry="18"/>
<text text-anchor="middle" x="387" y="-87.5" font-family="Helvetica,sans-Serif" font-size="10.00">0</text>
</g>
<!-- n8&#45;&gt;n9 -->
<g id="edge9" class="edge">
<title>n8&#45;&gt;n9</title>
<path fill="none" stroke="black" d="M387,-143.7C387,-136.41 387,-127.73 387,-119.54"/>
<polygon fill="black" stroke="black" points="390.5,-119.62 387,-109.62 383.5,-119.62 390.5,-119.62"/>
</g>
<!-- n12 -->
<g id="node13" class="node">
<title>n12</title>
<ellipse fill="#b2dfee" stroke="#b2dfee" cx="531" cy="-162" rx="27" ry="18"/>
<text text-anchor="middle" x="531" y="-159.5" font-family="Helvetica,sans-Serif" font-size="10.00">var</text>
</g>
<!-- n11&#45;&gt;n12 -->
<g id="edge12" class="edge">
<title>n11&#45;&gt;n12</title>
<path fill="none" stroke="black" d="M693.51,-219.58C657.33,-209.94 608.71,-195.88 567,-180 565.47,-179.42 563.91,-178.79 562.34,-178.15"/>
<polygon fill="black" stroke="black" points="564.03,-175.07 553.47,-174.23 561.21,-181.47 564.03,-175.07"/>
</g>
<!-- n13 -->
<g id="node14" class="node">
<title>n13</title>
<ellipse fill="#b2dfee" stroke="#b2dfee" cx="603" cy="-162" rx="27" ry="18"/>
<text text-anchor="middle" x="603" y="-159.5" font-family="Helvetica,sans-Serif" font-size="10.00">k</text>
</g>
<!-- n11&#45;&gt;n13 -->
<g id="edge13" class="edge">
<title>n11&#45;&gt;n13</title>
<path fill="none" stroke="black" d="M713.96,-216.94C690.06,-205.32 657.95,-189.71 634.42,-178.28"/>
<polygon fill="black" stroke="black" points="636.16,-175.23 625.64,-174.01 633.1,-181.53 636.16,-175.23"/>
</g>
<!-- n14 -->
<g id="node15" class="node">
<title>n14</title>
<ellipse fill="#b2dfee" stroke="#b2dfee" cx="675" cy="-162" rx="27" ry="18"/>
<text text-anchor="middle" x="675" y="-159.5" font-family="Helvetica,sans-Serif" font-size="10.00">:</text>
</g>
<!-- n11&#45;&gt;n14 -->
<g id="edge14" class="edge">
<title>n11&#45;&gt;n14</title>
<path fill="none" stroke="black" d="M729.57,-216.05C720.08,-206.82 708.21,-195.29 697.97,-185.33"/>
<polygon fill="black" stroke="black" points="700.53,-182.94 690.92,-178.48 695.65,-187.96 700.53,-182.94"/>
</g>
<!-- n15 -->
<g id="node16" class="node">
<title>n15</title>
<ellipse fill="#b2dfee" stroke="#b2dfee" cx="747" cy="-162" rx="27" ry="18"/>
<text text-anchor="middle" x="747" y="-159.5" font-family="Helvetica,sans-Serif" font-size="10.00">INT</text>
</g>
<!-- n11&#45;&gt;n15 -->
<g id="edge15" class="edge">
<title>n11&#45;&gt;n15</title>
<path fill="none" stroke="black" d="M747,-215.7C747,-208.41 747,-199.73 747,-191.54"/>
<polygon fill="black" stroke="black" points="750.5,-191.62 747,-181.62 743.5,-191.62 750.5,-191.62"/>
</g>
<!-- n16 -->
<g id="node17" class="node">
<title>n16</title>
<ellipse fill="#b2dfee" stroke="#b2dfee" cx="819" cy="-162" rx="27" ry="18"/>
<text text-anchor="middle" x="819" y="-159.5" font-family="Helvetica,sans-Serif" font-size="10.00">=</text>
</g>
<!-- n11&#45;&gt;n16 -->
<g id="edge16" class="edge">
<title>n11&#45;&gt;n16</title>
<path fill="none" stroke="black" d="M764.43,-216.05C773.92,-206.82 785.79,-195.29 796.03,-185.33"/>
<polygon fill="black" stroke="black" points="798.35,-187.96 803.08,-178.48 793.47,-182.94 798.35,-187.96"/>
</g>
<!-- n17 -->
<g id="node18" class="node">
<title>n17</title>
<ellipse fill="#b2dfee" stroke="#b2dfee" cx="891" cy="-162" rx="27" ry="18"/>
<text text-anchor="middle" x="891" y="-159.5" font-family="Helvetica,sans-Serif" font-size="10.00">INT</text>
</g>
<!-- n11&#45;&gt;n17 -->
<g id="edge17" class="edge">
<title>n11&#45;&gt;n17</title>
<path fill="none" stroke="black" d="M780.04,-216.94C803.94,-205.32 836.05,-189.71 859.58,-178.28"/>
<polygon fill="black" stroke="black" points="860.9,-181.53 868.36,-174.01 857.84,-175.23 860.9,-181.53"/>
</g>
<!-- n19 -->
<g id="node20" class="node">
<title>n19</title>
<ellipse fill="#b2dfee" stroke="#b2dfee" cx="963" cy="-162" rx="27" ry="18"/>
<text text-anchor="middle" x="963" y="-159.5" font-family="Helvetica,sans-Serif" font-size="10.00">;</text>
</g>
<!-- n11&#45;&gt;n19 -->
<g id="edge19" class="edge">
<title>n11&#45;&gt;n19</title>
<path fill="none" stroke="black" d="M800.49,-219.58C836.67,-209.94 885.29,-195.88 927,-180 928.53,-179.42 930.09,-178.79 931.66,-178.15"/>
<polygon fill="black" stroke="black" points="932.79,-181.47 940.53,-174.23 929.97,-175.07 932.79,-181.47"/>
</g>
<!-- n18 -->
<g id="node19" class="node">
<title>n18</title>
<ellipse fill="#b2dfee" stroke="#b2dfee" cx="891" cy="-90" rx="27" ry="18"/>
<text text-anchor="middle" x="891" y="-87.5" font-family="Helvetica,sans-Serif" font-size="10.00">10</text>
</g>
<!-- n17&#45;&gt;n18 -->
<g id="edge18" class="edge">
<title>n17&#45;&gt;n18</title>
<path fill="none" stroke="black" d="M891,-143.7C891,-136.41 891,-127.73 891,-119.54"/>
<polygon fill="black" stroke="black" points="894.5,-119.62 891,-109.62 887.5,-119.62 894.5,-119.62"/>
</g>
<!-- n21 -->
<g id="node22" class="node">
<title>n21</title>
<ellipse fill="#b2dfee" stroke="#b2dfee" cx="1035" cy="-162" rx="27" ry="18"/>
<text text-anchor="middle" x="1035" y="-159.5" font-family="Helvetica,sans-Serif" font-size="10.00">while</text>
</g>
<!-- n20&#45;&gt;n21 -->
<g id="edge21" class="edge">
<title>n20&#45;&gt;n21</title>
<path fill="none" stroke="black" d="M1260.23,-228.23C1218.91,-220.46 1137.41,-203.56 1071,-180 1069.45,-179.45 1067.88,-178.86 1066.31,-178.23"/>
<polygon fill="black" stroke="black" points="1067.98,-175.14 1057.41,-174.39 1065.2,-181.57 1067.98,-175.14"/>
</g>
<!-- n22 -->
<g id="node23" class="node">
<title>n22</title>
<ellipse fill="#b2dfee" stroke="#b2dfee" cx="1107" cy="-162" rx="27" ry="18"/>
<text text-anchor="middle" x="1107" y="-159.5" font-family="Helvetica,sans-Serif" font-size="10.00">(</text>
</g>
<!-- n20&#45;&gt;n22 -->
<g id="edge22" class="edge">
<title>n20&#45;&gt;n22</title>
<path fill="none" stroke="black" d="M1262.54,-224.74C1233.68,-214.82 1184.4,-197.35 1143,-180 1141.49,-179.37 1139.94,-178.7 1138.39,-178.02"/>
<polygon fill="black" stroke="black" points="1140.11,-174.96 1129.56,-174.01 1137.21,-181.33 1140.11,-174.96"/>
</g>
<!-- n23 -->
<g id="node24" class="node">
<title>n23</title>
<ellipse fill="#b2dfee" stroke="#b2dfee" cx="1197" cy="-162" rx="45.15" ry="18"/>
<text text-anchor="middle" x="1197" y="-159.5" font-family="Helvetica,sans-Serif" font-size="10.00">RELACIONAL</text>
</g>
<!-- n20&#45;&gt;n23 -->
<g id="edge23" class="edge">
<title>n20&#45;&gt;n23</title>
<path fill="none" stroke="black" d="M1269.65,-219.5C1257.24,-209.86 1240.27,-196.65 1225.84,-185.43"/>
<polygon fill="black" stroke="black" points="1228.04,-182.71 1218,-179.33 1223.75,-188.24 1228.04,-182.71"/>
</g>
<!-- n29 -->
<g id="node30" class="node">
<title>n29</title>
<ellipse fill="#b2dfee" stroke="#b2dfee" cx="1287" cy="-162" rx="27" ry="18"/>
<text text-anchor="middle" x="1287" y="-159.5" font-family="Helvetica,sans-Serif" font-size="10.00">)</text>
</g>
<!-- n20&#45;&gt;n29 -->
<g id="edge29" class="edge">
<title>n20&#45;&gt;n29</title>
<path fill="none" stroke="black" d="M1287,-215.7C1287,-208.41 1287,-199.73 1287,-191.54"/>
<polygon fill="black" stroke="black" points="1290.5,-191.62 1287,-181.62 1283.5,-191.62 1290.5,-191.62"/>
</g>
<!-- n30 -->
<g id="node31" class="node">
<title>n30</title>
<ellipse fill="#b2dfee" stroke="#b2dfee" cx="1359" cy="-162" rx="27" ry="18"/>
<text text-anchor="middle" x="1359" y="-159.5" font-family="Helvetica,sans-Serif" font-size="10.00">{</text>
</g>
<!-- n20&#45;&gt;n30 -->
<g id="edge30" class="edge">
<title>n20&#45;&gt;n30</title>
<path fill="none" stroke="black" d="M1301.92,-218.5C1311.77,-208.92 1324.86,-196.19 1336.03,-185.34"/>
<polygon fill="black" stroke="black" points="1338.29,-188.02 1343.02,-178.54 1333.41,-183 1338.29,-188.02"/>
</g>
<!-- n31 -->
<g id="node32" class="node">
<title>n31</title>
<ellipse fill="#b2dfee" stroke="#b2dfee" cx="1433" cy="-162" rx="29.37" ry="18"/>
<text text-anchor="middle" x="1433" y="-159.5" font-family="Helvetica,sans-Serif" font-size="10.00">MATCH</text>
</g>
<!-- n20&#45;&gt;n31 -->
<g id="edge31" class="edge">
<title>n20&#45;&gt;n31</title>
<path fill="none" stroke="black" d="M1308.86,-222.52C1333.12,-210.89 1372.54,-191.99 1400.44,-178.61"/>
<polygon fill="black" stroke="black" points="1401.64,-181.92 1409.15,-174.44 1398.62,-175.6 1401.64,-181.92"/>
</g>
<!-- n32 -->
<g id="node33" class="node">
<title>n32</title>
<ellipse fill="#b2dfee" stroke="#b2dfee" cx="1515" cy="-162" rx="34.29" ry="18"/>
<text text-anchor="middle" x="1515" y="-159.5" font-family="Helvetica,sans-Serif" font-size="10.00">INC_DEC</text>
</g>
<!-- n20&#45;&gt;n32 -->
<g id="edge32" class="edge">
<title>n20&#45;&gt;n32</title>
<path fill="none" stroke="black" d="M1312.52,-226.41C1348.24,-217.02 1415.07,-198.82 1471,-180 1473.24,-179.25 1475.54,-178.44 1477.85,-177.62"/>
<polygon fill="black" stroke="black" points="1479.03,-180.91 1487.19,-174.16 1476.6,-174.35 1479.03,-180.91"/>
</g>
<!-- n36 -->
<g id="node37" class="node">
<title>n36</title>
<ellipse fill="#b2dfee" stroke="#b2dfee" cx="1594" cy="-162" rx="27" ry="18"/>
<text text-anchor="middle" x="1594" y="-159.5" font-family="Helvetica,sans-Serif" font-size="10.00">}</text>
</g>
<!-- n20&#45;&gt;n36 -->
<g id="edge36" class="edge">
<title>n20&#45;&gt;n36</title>
<path fill="none" stroke="black" d="M1314.49,-229.91C1364.1,-223.84 1471.46,-208.41 1558,-180 1559.56,-179.49 1561.14,-178.92 1562.72,-178.32"/>
<polygon fill="black" stroke="black" points="1563.79,-181.67 1571.64,-174.55 1561.07,-175.22 1563.79,-181.67"/>
</g>
<!-- n24 -->
<g id="node25" class="node">
<title>n24</title>
<ellipse fill="#b2dfee" stroke="#b2dfee" cx="1075" cy="-90" rx="77.23" ry="18"/>
<text text-anchor="middle" x="1075" y="-87.5" font-family="Helvetica,sans-Serif" font-size="10.00">RECUPERAR_VARIABLE</text>
</g>
<!-- n23&#45;&gt;n24 -->
<g id="edge24" class="edge">
<title>n23&#45;&gt;n24</title>
<path fill="none" stroke="black" d="M1172.02,-146.67C1155,-136.9 1132.15,-123.79 1112.91,-112.75"/>
<polygon fill="black" stroke="black" points="1114.66,-109.72 1104.24,-107.78 1111.18,-115.79 1114.66,-109.72"/>
</g>
<!-- n26 -->
<g id="node27" class="node">
<title>n26</title>
<ellipse fill="#b2dfee" stroke="#b2dfee" cx="1197" cy="-90" rx="27" ry="18"/>
<text text-anchor="middle" x="1197" y="-87.5" font-family="Helvetica,sans-Serif" font-size="10.00">&lt;=</text>
</g>
<!-- n23&#45;&gt;n26 -->
<g id="edge26" class="edge">
<title>n23&#45;&gt;n26</title>
<path fill="none" stroke="black" d="M1197,-143.7C1197,-136.41 1197,-127.73 1197,-119.54"/>
<polygon fill="black" stroke="black" points="1200.5,-119.62 1197,-109.62 1193.5,-119.62 1200.5,-119.62"/>
</g>
<!-- n27 -->
<g id="node28" class="node">
<title>n27</title>
<ellipse fill="#b2dfee" stroke="#b2dfee" cx="1319" cy="-90" rx="77.23" ry="18"/>
<text text-anchor="middle" x="1319" y="-87.5" font-family="Helvetica,sans-Serif" font-size="10.00">RECUPERAR_VARIABLE</text>
</g>
<!-- n23&#45;&gt;n27 -->
<g id="edge27" class="edge">
<title>n23&#45;&gt;n27</title>
<path fill="none" stroke="black" d="M1221.98,-146.67C1239,-136.9 1261.85,-123.79 1281.09,-112.75"/>
<polygon fill="black" stroke="black" points="1282.82,-115.79 1289.76,-107.78 1279.34,-109.72 1282.82,-115.79"/>
</g>
<!-- n25 -->
<g id="node26" class="node">
<title>n25</title>
<ellipse fill="#b2dfee" stroke="#b2dfee" cx="1075" cy="-18" rx="27" ry="18"/>
<text text-anchor="middle" x="1075" y="-15.5" font-family="Helvetica,sans-Serif" font-size="10.00">j</text>
</g>
<!-- n24&#45;&gt;n25 -->
<g id="edge25" class="edge">
<title>n24&#45;&gt;n25</title>
<path fill="none" stroke="black" d="M1075,-71.7C1075,-64.41 1075,-55.73 1075,-47.54"/>
<polygon fill="black" stroke="black" points="1078.5,-47.62 1075,-37.62 1071.5,-47.62 1078.5,-47.62"/>
</g>
<!-- n28 -->
<g id="node29" class="node">
<title>n28</title>
<ellipse fill="#b2dfee" stroke="#b2dfee" cx="1319" cy="-18" rx="27" ry="18"/>
<text text-anchor="middle" x="1319" y="-15.5" font-family="Helvetica,sans-Serif" font-size="10.00">k</text>
</g>
<!-- n27&#45;&gt;n28 -->
<g id="edge28" class="edge">
<title>n27&#45;&gt;n28</title>
<path fill="none" stroke="black" d="M1319,-71.7C1319,-64.41 1319,-55.73 1319,-47.54"/>
<polygon fill="black" stroke="black" points="1322.5,-47.62 1319,-37.62 1315.5,-47.62 1322.5,-47.62"/>
</g>
<!-- n33 -->
<g id="node34" class="node">
<title>n33</title>
<ellipse fill="#b2dfee" stroke="#b2dfee" cx="1443" cy="-90" rx="27" ry="18"/>
<text text-anchor="middle" x="1443" y="-87.5" font-family="Helvetica,sans-Serif" font-size="10.00">j</text>
</g>
<!-- n32&#45;&gt;n33 -->
<g id="edge33" class="edge">
<title>n32&#45;&gt;n33</title>
<path fill="none" stroke="black" d="M1499.38,-145.81C1489.49,-136.2 1476.54,-123.61 1465.55,-112.93"/>
<polygon fill="black" stroke="black" points="1468.31,-110.72 1458.7,-106.26 1463.43,-115.74 1468.31,-110.72"/>
</g>
<!-- n34 -->
<g id="node35" class="node">
<title>n34</title>
<ellipse fill="#b2dfee" stroke="#b2dfee" cx="1515" cy="-90" rx="27" ry="18"/>
<text text-anchor="middle" x="1515" y="-87.5" font-family="Helvetica,sans-Serif" font-size="10.00">++</text>
</g>
<!-- n32&#45;&gt;n34 -->
<g id="edge34" class="edge">
<title>n32&#45;&gt;n34</title>
<path fill="none" stroke="black" d="M1515,-143.7C1515,-136.41 1515,-127.73 1515,-119.54"/>
<polygon fill="black" stroke="black" points="1518.5,-119.62 1515,-109.62 1511.5,-119.62 1518.5,-119.62"/>
</g>
<!-- n35 -->
<g id="node36" class="node">
<title>n35</title>
<ellipse fill="#b2dfee" stroke="#b2dfee" cx="1587" cy="-90" rx="27" ry="18"/>
<text text-anchor="middle" x="1587" y="-87.5" font-family="Helvetica,sans-Serif" font-size="10.00">;</text>
</g>
<!-- n32&#45;&gt;n35 -->
<g id="edge35" class="edge">
<title>n32&#45;&gt;n35</title>
<path fill="none" stroke="black" d="M1530.62,-145.81C1540.51,-136.2 1553.46,-123.61 1564.45,-112.93"/>
<polygon fill="black" stroke="black" points="1566.57,-115.74 1571.3,-106.26 1561.69,-110.72 1566.57,-115.74"/>
</g>
</g>
</svg>
