<?xml version="1.0" encoding="UTF-8" standalone="no"?>
<!DOCTYPE svg PUBLIC "-//W3C//DTD SVG 1.1//EN"
 "http://www.w3.org/Graphics/SVG/1.1/DTD/svg11.dtd">
<!-- Generated by graphviz version 7.1.0 (20230121.1956)
 -->
<!-- Title: arbolAST Pages: 1 -->
<svg width="712pt" height="404pt"
 viewBox="0.00 0.00 711.67 404.00" xmlns="http://www.w3.org/2000/svg" xmlns:xlink="http://www.w3.org/1999/xlink">
<g id="graph0" class="graph" transform="scale(1 1) rotate(0) translate(4 400)">
<title>arbolAST</title>
<polygon fill="white" stroke="none" points="-4,4 -4,-400 707.67,-400 707.67,4 -4,4"/>
<!-- n0 -->
<g id="node1" class="node">
<title>n0</title>
<ellipse fill="#b2dfee" stroke="#b2dfee" cx="316.67" cy="-378" rx="27" ry="18"/>
<text text-anchor="middle" x="316.67" y="-375.5" font-family="Helvetica,sans-Serif" font-size="10.00">INICIO</text>
</g>
<!-- n1 -->
<g id="node2" class="node">
<title>n1</title>
<ellipse fill="#b2dfee" stroke="#b2dfee" cx="316.67" cy="-306" rx="55.85" ry="18"/>
<text text-anchor="middle" x="316.67" y="-303.5" font-family="Helvetica,sans-Serif" font-size="10.00">INSTRUCCIONES</text>
</g>
<!-- n0&#45;&gt;n1 -->
<g id="edge1" class="edge">
<title>n0&#45;&gt;n1</title>
<path fill="none" stroke="black" d="M316.67,-359.7C316.67,-352.41 316.67,-343.73 316.67,-335.54"/>
<polygon fill="black" stroke="black" points="320.17,-335.62 316.67,-325.62 313.17,-335.62 320.17,-335.62"/>
</g>
<!-- n2 -->
<g id="node3" class="node">
<title>n2</title>
<ellipse fill="#b2dfee" stroke="#b2dfee" cx="316.67" cy="-234" rx="79.44" ry="18"/>
<text text-anchor="middle" x="316.67" y="-231.5" font-family="Helvetica,sans-Serif" font-size="10.00">Declaracion de Arreglos 2D</text>
</g>
<!-- n1&#45;&gt;n2 -->
<g id="edge2" class="edge">
<title>n1&#45;&gt;n2</title>
<path fill="none" stroke="black" d="M316.67,-287.7C316.67,-280.41 316.67,-271.73 316.67,-263.54"/>
<polygon fill="black" stroke="black" points="320.17,-263.62 316.67,-253.62 313.17,-263.62 320.17,-263.62"/>
</g>
<!-- n3 -->
<g id="node4" class="node">
<title>n3</title>
<ellipse fill="#b2dfee" stroke="#b2dfee" cx="27.67" cy="-162" rx="27.84" ry="18"/>
<text text-anchor="middle" x="27.67" y="-159.5" font-family="Helvetica,sans-Serif" font-size="10.00">vector2</text>
</g>
<!-- n2&#45;&gt;n3 -->
<g id="edge3" class="edge">
<title>n2&#45;&gt;n3</title>
<path fill="none" stroke="black" d="M251.4,-223.39C199.9,-214.83 126.65,-200.47 64.67,-180 63.07,-179.47 61.46,-178.9 59.83,-178.29"/>
<polygon fill="black" stroke="black" points="61.23,-175.08 50.65,-174.48 58.55,-181.54 61.23,-175.08"/>
</g>
<!-- n4 -->
<g id="node5" class="node">
<title>n4</title>
<ellipse fill="#b2dfee" stroke="#b2dfee" cx="100.67" cy="-162" rx="27" ry="18"/>
<text text-anchor="middle" x="100.67" y="-159.5" font-family="Helvetica,sans-Serif" font-size="10.00">:</text>
</g>
<!-- n2&#45;&gt;n4 -->
<g id="edge4" class="edge">
<title>n2&#45;&gt;n4</title>
<path fill="none" stroke="black" d="M264.76,-220C228.42,-210.35 178.99,-196.11 136.67,-180 135.13,-179.42 133.57,-178.79 132.01,-178.15"/>
<polygon fill="black" stroke="black" points="133.7,-175.07 123.14,-174.23 130.87,-181.47 133.7,-175.07"/>
</g>
<!-- n5 -->
<g id="node6" class="node">
<title>n5</title>
<ellipse fill="#b2dfee" stroke="#b2dfee" cx="172.67" cy="-162" rx="27" ry="18"/>
<text text-anchor="middle" x="172.67" y="-159.5" font-family="Helvetica,sans-Serif" font-size="10.00">INT</text>
</g>
<!-- n2&#45;&gt;n5 -->
<g id="edge5" class="edge">
<title>n2&#45;&gt;n5</title>
<path fill="none" stroke="black" d="M284.35,-217.29C260.48,-205.69 228.14,-189.97 204.4,-178.43"/>
<polygon fill="black" stroke="black" points="206.05,-175.34 195.53,-174.11 202.99,-181.63 206.05,-175.34"/>
</g>
<!-- n6 -->
<g id="node7" class="node">
<title>n6</title>
<ellipse fill="#b2dfee" stroke="#b2dfee" cx="244.67" cy="-162" rx="27" ry="18"/>
<text text-anchor="middle" x="244.67" y="-159.5" font-family="Helvetica,sans-Serif" font-size="10.00">=</text>
</g>
<!-- n2&#45;&gt;n6 -->
<g id="edge6" class="edge">
<title>n2&#45;&gt;n6</title>
<path fill="none" stroke="black" d="M299.24,-216.05C289.74,-206.82 277.88,-195.29 267.64,-185.33"/>
<polygon fill="black" stroke="black" points="270.2,-182.94 260.59,-178.48 265.32,-187.96 270.2,-182.94"/>
</g>
<!-- n7 -->
<g id="node8" class="node">
<title>n7</title>
<ellipse fill="#b2dfee" stroke="#b2dfee" cx="316.67" cy="-162" rx="27" ry="18"/>
<text text-anchor="middle" x="316.67" y="-159.5" font-family="Helvetica,sans-Serif" font-size="10.00">[</text>
</g>
<!-- n2&#45;&gt;n7 -->
<g id="edge7" class="edge">
<title>n2&#45;&gt;n7</title>
<path fill="none" stroke="black" d="M316.67,-215.7C316.67,-208.41 316.67,-199.73 316.67,-191.54"/>
<polygon fill="black" stroke="black" points="320.17,-191.62 316.67,-181.62 313.17,-191.62 320.17,-191.62"/>
</g>
<!-- n8 -->
<g id="node9" class="node">
<title>n8</title>
<ellipse fill="#b2dfee" stroke="#b2dfee" cx="388.67" cy="-162" rx="27" ry="18"/>
<text text-anchor="middle" x="388.67" y="-159.5" font-family="Helvetica,sans-Serif" font-size="10.00">Fila</text>
</g>
<!-- n2&#45;&gt;n8 -->
<g id="edge8" class="edge">
<title>n2&#45;&gt;n8</title>
<path fill="none" stroke="black" d="M334.1,-216.05C343.59,-206.82 355.46,-195.29 365.7,-185.33"/>
<polygon fill="black" stroke="black" points="368.02,-187.96 372.75,-178.48 363.14,-182.94 368.02,-187.96"/>
</g>
<!-- n15 -->
<g id="node16" class="node">
<title>n15</title>
<ellipse fill="#b2dfee" stroke="#b2dfee" cx="460.67" cy="-162" rx="27" ry="18"/>
<text text-anchor="middle" x="460.67" y="-159.5" font-family="Helvetica,sans-Serif" font-size="10.00">Fila</text>
</g>
<!-- n2&#45;&gt;n15 -->
<g id="edge15" class="edge">
<title>n2&#45;&gt;n15</title>
<path fill="none" stroke="black" d="M348.98,-217.29C372.86,-205.69 405.2,-189.97 428.93,-178.43"/>
<polygon fill="black" stroke="black" points="430.34,-181.63 437.81,-174.11 427.28,-175.34 430.34,-181.63"/>
</g>
<!-- n22 -->
<g id="node23" class="node">
<title>n22</title>
<ellipse fill="#b2dfee" stroke="#b2dfee" cx="532.67" cy="-162" rx="27" ry="18"/>
<text text-anchor="middle" x="532.67" y="-159.5" font-family="Helvetica,sans-Serif" font-size="10.00">]</text>
</g>
<!-- n2&#45;&gt;n22 -->
<g id="edge22" class="edge">
<title>n2&#45;&gt;n22</title>
<path fill="none" stroke="black" d="M368.58,-220C404.92,-210.35 454.35,-196.11 496.67,-180 498.2,-179.42 499.76,-178.79 501.33,-178.15"/>
<polygon fill="black" stroke="black" points="502.46,-181.47 510.2,-174.23 499.64,-175.07 502.46,-181.47"/>
</g>
<!-- n23 -->
<g id="node24" class="node">
<title>n23</title>
<ellipse fill="#b2dfee" stroke="#b2dfee" cx="604.67" cy="-162" rx="27" ry="18"/>
<text text-anchor="middle" x="604.67" y="-159.5" font-family="Helvetica,sans-Serif" font-size="10.00">;</text>
</g>
<!-- n2&#45;&gt;n23 -->
<g id="edge23" class="edge">
<title>n2&#45;&gt;n23</title>
<path fill="none" stroke="black" d="M382.26,-223.53C433.78,-215.06 506.9,-200.76 568.67,-180 570.22,-179.48 571.8,-178.9 573.38,-178.3"/>
<polygon fill="black" stroke="black" points="574.46,-181.64 582.29,-174.51 571.72,-175.2 574.46,-181.64"/>
</g>
<!-- n9 -->
<g id="node10" class="node">
<title>n9</title>
<ellipse fill="#b2dfee" stroke="#b2dfee" cx="172.67" cy="-90" rx="27" ry="18"/>
<text text-anchor="middle" x="172.67" y="-87.5" font-family="Helvetica,sans-Serif" font-size="10.00">[</text>
</g>
<!-- n8&#45;&gt;n9 -->
<g id="edge9" class="edge">
<title>n8&#45;&gt;n9</title>
<path fill="none" stroke="black" d="M367.64,-150.23C362.8,-147.98 357.61,-145.77 352.67,-144 290.54,-121.81 270.79,-130.19 208.67,-108 207.12,-107.45 205.55,-106.85 203.98,-106.22"/>
<polygon fill="black" stroke="black" points="205.65,-103.14 195.08,-102.38 202.87,-109.56 205.65,-103.14"/>
</g>
<!-- n10 -->
<g id="node11" class="node">
<title>n10</title>
<ellipse fill="#b2dfee" stroke="#b2dfee" cx="244.67" cy="-90" rx="27" ry="18"/>
<text text-anchor="middle" x="244.67" y="-87.5" font-family="Helvetica,sans-Serif" font-size="10.00">INT</text>
</g>
<!-- n8&#45;&gt;n10 -->
<g id="edge10" class="edge">
<title>n8&#45;&gt;n10</title>
<path fill="none" stroke="black" d="M367.11,-150.52C343,-138.8 303.74,-119.72 276.19,-106.32"/>
<polygon fill="black" stroke="black" points="277.79,-103.21 267.26,-101.98 274.73,-109.5 277.79,-103.21"/>
</g>
<!-- n12 -->
<g id="node13" class="node">
<title>n12</title>
<ellipse fill="#b2dfee" stroke="#b2dfee" cx="316.67" cy="-90" rx="27" ry="18"/>
<text text-anchor="middle" x="316.67" y="-87.5" font-family="Helvetica,sans-Serif" font-size="10.00">INT</text>
</g>
<!-- n8&#45;&gt;n12 -->
<g id="edge12" class="edge">
<title>n8&#45;&gt;n12</title>
<path fill="none" stroke="black" d="M373.75,-146.5C363.9,-136.92 350.81,-124.19 339.64,-113.34"/>
<polygon fill="black" stroke="black" points="342.26,-111 332.65,-106.54 337.38,-116.02 342.26,-111"/>
</g>
<!-- n14 -->
<g id="node15" class="node">
<title>n14</title>
<ellipse fill="#b2dfee" stroke="#b2dfee" cx="388.67" cy="-90" rx="27" ry="18"/>
<text text-anchor="middle" x="388.67" y="-87.5" font-family="Helvetica,sans-Serif" font-size="10.00">]</text>
</g>
<!-- n8&#45;&gt;n14 -->
<g id="edge14" class="edge">
<title>n8&#45;&gt;n14</title>
<path fill="none" stroke="black" d="M388.67,-143.7C388.67,-136.41 388.67,-127.73 388.67,-119.54"/>
<polygon fill="black" stroke="black" points="392.17,-119.62 388.67,-109.62 385.17,-119.62 392.17,-119.62"/>
</g>
<!-- n11 -->
<g id="node12" class="node">
<title>n11</title>
<ellipse fill="#b2dfee" stroke="#b2dfee" cx="244.67" cy="-18" rx="27" ry="18"/>
<text text-anchor="middle" x="244.67" y="-15.5" font-family="Helvetica,sans-Serif" font-size="10.00">1</text>
</g>
<!-- n10&#45;&gt;n11 -->
<g id="edge11" class="edge">
<title>n10&#45;&gt;n11</title>
<path fill="none" stroke="black" d="M244.67,-71.7C244.67,-64.41 244.67,-55.73 244.67,-47.54"/>
<polygon fill="black" stroke="black" points="248.17,-47.62 244.67,-37.62 241.17,-47.62 248.17,-47.62"/>
</g>
<!-- n13 -->
<g id="node14" class="node">
<title>n13</title>
<ellipse fill="#b2dfee" stroke="#b2dfee" cx="316.67" cy="-18" rx="27" ry="18"/>
<text text-anchor="middle" x="316.67" y="-15.5" font-family="Helvetica,sans-Serif" font-size="10.00">2</text>
</g>
<!-- n12&#45;&gt;n13 -->
<g id="edge13" class="edge">
<title>n12&#45;&gt;n13</title>
<path fill="none" stroke="black" d="M316.67,-71.7C316.67,-64.41 316.67,-55.73 316.67,-47.54"/>
<polygon fill="black" stroke="black" points="320.17,-47.62 316.67,-37.62 313.17,-47.62 320.17,-47.62"/>
</g>
<!-- n16 -->
<g id="node17" class="node">
<title>n16</title>
<ellipse fill="#b2dfee" stroke="#b2dfee" cx="460.67" cy="-90" rx="27" ry="18"/>
<text text-anchor="middle" x="460.67" y="-87.5" font-family="Helvetica,sans-Serif" font-size="10.00">[</text>
</g>
<!-- n15&#45;&gt;n16 -->
<g id="edge16" class="edge">
<title>n15&#45;&gt;n16</title>
<path fill="none" stroke="black" d="M460.67,-143.7C460.67,-136.41 460.67,-127.73 460.67,-119.54"/>
<polygon fill="black" stroke="black" points="464.17,-119.62 460.67,-109.62 457.17,-119.62 464.17,-119.62"/>
</g>
<!-- n17 -->
<g id="node18" class="node">
<title>n17</title>
<ellipse fill="#b2dfee" stroke="#b2dfee" cx="532.67" cy="-90" rx="27" ry="18"/>
<text text-anchor="middle" x="532.67" y="-87.5" font-family="Helvetica,sans-Serif" font-size="10.00">INT</text>
</g>
<!-- n15&#45;&gt;n17 -->
<g id="edge17" class="edge">
<title>n15&#45;&gt;n17</title>
<path fill="none" stroke="black" d="M475.59,-146.5C485.43,-136.92 498.53,-124.19 509.69,-113.34"/>
<polygon fill="black" stroke="black" points="511.95,-116.02 516.68,-106.54 507.07,-111 511.95,-116.02"/>
</g>
<!-- n19 -->
<g id="node20" class="node">
<title>n19</title>
<ellipse fill="#b2dfee" stroke="#b2dfee" cx="604.67" cy="-90" rx="27" ry="18"/>
<text text-anchor="middle" x="604.67" y="-87.5" font-family="Helvetica,sans-Serif" font-size="10.00">INT</text>
</g>
<!-- n15&#45;&gt;n19 -->
<g id="edge19" class="edge">
<title>n15&#45;&gt;n19</title>
<path fill="none" stroke="black" d="M482.23,-150.52C506.33,-138.8 545.59,-119.72 573.14,-106.32"/>
<polygon fill="black" stroke="black" points="574.61,-109.5 582.07,-101.98 571.55,-103.21 574.61,-109.5"/>
</g>
<!-- n21 -->
<g id="node22" class="node">
<title>n21</title>
<ellipse fill="#b2dfee" stroke="#b2dfee" cx="676.67" cy="-90" rx="27" ry="18"/>
<text text-anchor="middle" x="676.67" y="-87.5" font-family="Helvetica,sans-Serif" font-size="10.00">]</text>
</g>
<!-- n15&#45;&gt;n21 -->
<g id="edge21" class="edge">
<title>n15&#45;&gt;n21</title>
<path fill="none" stroke="black" d="M481.7,-150.23C486.54,-147.98 491.72,-145.77 496.67,-144 558.79,-121.81 578.54,-130.19 640.67,-108 642.21,-107.45 643.78,-106.85 645.36,-106.22"/>
<polygon fill="black" stroke="black" points="646.46,-109.56 654.25,-102.38 643.68,-103.14 646.46,-109.56"/>
</g>
<!-- n18 -->
<g id="node19" class="node">
<title>n18</title>
<ellipse fill="#b2dfee" stroke="#b2dfee" cx="532.67" cy="-18" rx="27" ry="18"/>
<text text-anchor="middle" x="532.67" y="-15.5" font-family="Helvetica,sans-Serif" font-size="10.00">3</text>
</g>
<!-- n17&#45;&gt;n18 -->
<g id="edge18" class="edge">
<title>n17&#45;&gt;n18</title>
<path fill="none" stroke="black" d="M532.67,-71.7C532.67,-64.41 532.67,-55.73 532.67,-47.54"/>
<polygon fill="black" stroke="black" points="536.17,-47.62 532.67,-37.62 529.17,-47.62 536.17,-47.62"/>
</g>
<!-- n20 -->
<g id="node21" class="node">
<title>n20</title>
<ellipse fill="#b2dfee" stroke="#b2dfee" cx="604.67" cy="-18" rx="27" ry="18"/>
<text text-anchor="middle" x="604.67" y="-15.5" font-family="Helvetica,sans-Serif" font-size="10.00">4</text>
</g>
<!-- n19&#45;&gt;n20 -->
<g id="edge20" class="edge">
<title>n19&#45;&gt;n20</title>
<path fill="none" stroke="black" d="M604.67,-71.7C604.67,-64.41 604.67,-55.73 604.67,-47.54"/>
<polygon fill="black" stroke="black" points="608.17,-47.62 604.67,-37.62 601.17,-47.62 608.17,-47.62"/>
</g>
</g>
</svg>
