<?xml version="1.0" encoding="UTF-8" standalone="no"?>
<!DOCTYPE svg PUBLIC "-//W3C//DTD SVG 1.1//EN"
 "http://www.w3.org/Graphics/SVG/1.1/DTD/svg11.dtd">
<!-- Generated by graphviz version 7.1.0 (20230121.1956)
 -->
<!-- Title: arbolAST Pages: 1 -->
<svg width="2465pt" height="548pt"
 viewBox="0.00 0.00 2465.00 548.00" xmlns="http://www.w3.org/2000/svg" xmlns:xlink="http://www.w3.org/1999/xlink">
<g id="graph0" class="graph" transform="scale(1 1) rotate(0) translate(4 544)">
<title>arbolAST</title>
<polygon fill="white" stroke="none" points="-4,4 -4,-544 2461,-544 2461,4 -4,4"/>
<!-- n0 -->
<g id="node1" class="node">
<title>n0</title>
<ellipse fill="#b2dfee" stroke="#b2dfee" cx="549" cy="-522" rx="27" ry="18"/>
<text text-anchor="middle" x="549" y="-519.5" font-family="Helvetica,sans-Serif" font-size="10.00">INICIO</text>
</g>
<!-- n1 -->
<g id="node2" class="node">
<title>n1</title>
<ellipse fill="#b2dfee" stroke="#b2dfee" cx="549" cy="-450" rx="55.85" ry="18"/>
<text text-anchor="middle" x="549" y="-447.5" font-family="Helvetica,sans-Serif" font-size="10.00">INSTRUCCIONES</text>
</g>
<!-- n0&#45;&gt;n1 -->
<g id="edge1" class="edge">
<title>n0&#45;&gt;n1</title>
<path fill="none" stroke="black" d="M549,-503.7C549,-496.41 549,-487.73 549,-479.54"/>
<polygon fill="black" stroke="black" points="552.5,-479.62 549,-469.62 545.5,-479.62 552.5,-479.62"/>
</g>
<!-- n2 -->
<g id="node3" class="node">
<title>n2</title>
<ellipse fill="#b2dfee" stroke="#b2dfee" cx="279" cy="-378" rx="85.89" ry="18"/>
<text text-anchor="middle" x="279" y="-375.5" font-family="Helvetica,sans-Serif" font-size="10.00">DECLARACION_VARIABLES</text>
</g>
<!-- n1&#45;&gt;n2 -->
<g id="edge2" class="edge">
<title>n1&#45;&gt;n2</title>
<path fill="none" stroke="black" d="M506.52,-437.99C462.47,-426.57 393.12,-408.59 342.55,-395.48"/>
<polygon fill="black" stroke="black" points="343.44,-392.09 332.88,-392.97 341.68,-398.87 343.44,-392.09"/>
</g>
<!-- n11 -->
<g id="node12" class="node">
<title>n11</title>
<ellipse fill="#b2dfee" stroke="#b2dfee" cx="860" cy="-378" rx="27.84" ry="18"/>
<text text-anchor="middle" x="860" y="-375.5" font-family="Helvetica,sans-Serif" font-size="10.00">WHILE</text>
</g>
<!-- n1&#45;&gt;n11 -->
<g id="edge11" class="edge">
<title>n1&#45;&gt;n11</title>
<path fill="none" stroke="black" d="M593.89,-438.9C655.58,-425.01 765.42,-400.29 822.79,-387.38"/>
<polygon fill="black" stroke="black" points="823.4,-390.83 832.39,-385.21 821.86,-384 823.4,-390.83"/>
</g>
<!-- n3 -->
<g id="node4" class="node">
<title>n3</title>
<ellipse fill="#b2dfee" stroke="#b2dfee" cx="27" cy="-306" rx="27" ry="18"/>
<text text-anchor="middle" x="27" y="-303.5" font-family="Helvetica,sans-Serif" font-size="10.00">var</text>
</g>
<!-- n2&#45;&gt;n3 -->
<g id="edge3" class="edge">
<title>n2&#45;&gt;n3</title>
<path fill="none" stroke="black" d="M217.05,-365.25C173.34,-356.13 113.76,-342.01 63,-324 61.45,-323.45 59.88,-322.86 58.31,-322.23"/>
<polygon fill="black" stroke="black" points="59.98,-319.14 49.41,-318.39 57.2,-325.57 59.98,-319.14"/>
</g>
<!-- n4 -->
<g id="node5" class="node">
<title>n4</title>
<ellipse fill="#b2dfee" stroke="#b2dfee" cx="99" cy="-306" rx="27" ry="18"/>
<text text-anchor="middle" x="99" y="-303.5" font-family="Helvetica,sans-Serif" font-size="10.00">i</text>
</g>
<!-- n2&#45;&gt;n4 -->
<g id="edge4" class="edge">
<title>n2&#45;&gt;n4</title>
<path fill="none" stroke="black" d="M235.45,-362.1C206.68,-351.98 168.29,-337.95 135,-324 133.49,-323.37 131.94,-322.7 130.39,-322.02"/>
<polygon fill="black" stroke="black" points="132.11,-318.96 121.56,-318.01 129.21,-325.33 132.11,-318.96"/>
</g>
<!-- n5 -->
<g id="node6" class="node">
<title>n5</title>
<ellipse fill="#b2dfee" stroke="#b2dfee" cx="171" cy="-306" rx="27" ry="18"/>
<text text-anchor="middle" x="171" y="-303.5" font-family="Helvetica,sans-Serif" font-size="10.00">:</text>
</g>
<!-- n2&#45;&gt;n5 -->
<g id="edge5" class="edge">
<title>n2&#45;&gt;n5</title>
<path fill="none" stroke="black" d="M253.41,-360.41C237.14,-349.87 216.06,-336.21 199.29,-325.34"/>
<polygon fill="black" stroke="black" points="201.56,-322.63 191.26,-320.13 197.75,-328.51 201.56,-322.63"/>
</g>
<!-- n6 -->
<g id="node7" class="node">
<title>n6</title>
<ellipse fill="#b2dfee" stroke="#b2dfee" cx="243" cy="-306" rx="27" ry="18"/>
<text text-anchor="middle" x="243" y="-303.5" font-family="Helvetica,sans-Serif" font-size="10.00">INT</text>
</g>
<!-- n2&#45;&gt;n6 -->
<g id="edge6" class="edge">
<title>n2&#45;&gt;n6</title>
<path fill="none" stroke="black" d="M270.1,-359.7C266.02,-351.75 261.08,-342.16 256.55,-333.34"/>
<polygon fill="black" stroke="black" points="259.68,-331.78 252,-324.49 253.46,-334.98 259.68,-331.78"/>
</g>
<!-- n7 -->
<g id="node8" class="node">
<title>n7</title>
<ellipse fill="#b2dfee" stroke="#b2dfee" cx="315" cy="-306" rx="27" ry="18"/>
<text text-anchor="middle" x="315" y="-303.5" font-family="Helvetica,sans-Serif" font-size="10.00">=</text>
</g>
<!-- n2&#45;&gt;n7 -->
<g id="edge7" class="edge">
<title>n2&#45;&gt;n7</title>
<path fill="none" stroke="black" d="M287.9,-359.7C291.98,-351.75 296.92,-342.16 301.45,-333.34"/>
<polygon fill="black" stroke="black" points="304.54,-334.98 306,-324.49 298.32,-331.78 304.54,-334.98"/>
</g>
<!-- n8 -->
<g id="node9" class="node">
<title>n8</title>
<ellipse fill="#b2dfee" stroke="#b2dfee" cx="387" cy="-306" rx="27" ry="18"/>
<text text-anchor="middle" x="387" y="-303.5" font-family="Helvetica,sans-Serif" font-size="10.00">INT</text>
</g>
<!-- n2&#45;&gt;n8 -->
<g id="edge8" class="edge">
<title>n2&#45;&gt;n8</title>
<path fill="none" stroke="black" d="M304.59,-360.41C320.86,-349.87 341.94,-336.21 358.71,-325.34"/>
<polygon fill="black" stroke="black" points="360.25,-328.51 366.74,-320.13 356.44,-322.63 360.25,-328.51"/>
</g>
<!-- n10 -->
<g id="node11" class="node">
<title>n10</title>
<ellipse fill="#b2dfee" stroke="#b2dfee" cx="459" cy="-306" rx="27" ry="18"/>
<text text-anchor="middle" x="459" y="-303.5" font-family="Helvetica,sans-Serif" font-size="10.00">;</text>
</g>
<!-- n2&#45;&gt;n10 -->
<g id="edge10" class="edge">
<title>n2&#45;&gt;n10</title>
<path fill="none" stroke="black" d="M322.55,-362.1C351.32,-351.98 389.71,-337.95 423,-324 424.51,-323.37 426.06,-322.7 427.61,-322.02"/>
<polygon fill="black" stroke="black" points="428.79,-325.33 436.44,-318.01 425.89,-318.96 428.79,-325.33"/>
</g>
<!-- n9 -->
<g id="node10" class="node">
<title>n9</title>
<ellipse fill="#b2dfee" stroke="#b2dfee" cx="382" cy="-234" rx="27" ry="18"/>
<text text-anchor="middle" x="382" y="-231.5" font-family="Helvetica,sans-Serif" font-size="10.00">1</text>
</g>
<!-- n8&#45;&gt;n9 -->
<g id="edge9" class="edge">
<title>n8&#45;&gt;n9</title>
<path fill="none" stroke="black" d="M385.76,-287.7C385.24,-280.41 384.62,-271.73 384.04,-263.54"/>
<polygon fill="black" stroke="black" points="387.53,-263.34 383.33,-253.61 380.55,-263.84 387.53,-263.34"/>
</g>
<!-- n12 -->
<g id="node13" class="node">
<title>n12</title>
<ellipse fill="#b2dfee" stroke="#b2dfee" cx="536" cy="-306" rx="27" ry="18"/>
<text text-anchor="middle" x="536" y="-303.5" font-family="Helvetica,sans-Serif" font-size="10.00">while</text>
</g>
<!-- n11&#45;&gt;n12 -->
<g id="edge12" class="edge">
<title>n11&#45;&gt;n12</title>
<path fill="none" stroke="black" d="M832.42,-374.33C780.46,-368.77 664.91,-353.92 572,-324 570.4,-323.48 568.77,-322.91 567.14,-322.3"/>
<polygon fill="black" stroke="black" points="568.54,-319.09 557.96,-318.42 565.81,-325.53 568.54,-319.09"/>
</g>
<!-- n13 -->
<g id="node14" class="node">
<title>n13</title>
<ellipse fill="#b2dfee" stroke="#b2dfee" cx="608" cy="-306" rx="27" ry="18"/>
<text text-anchor="middle" x="608" y="-303.5" font-family="Helvetica,sans-Serif" font-size="10.00">(</text>
</g>
<!-- n11&#45;&gt;n13 -->
<g id="edge13" class="edge">
<title>n11&#45;&gt;n13</title>
<path fill="none" stroke="black" d="M833.23,-372.23C791.91,-364.46 710.41,-347.56 644,-324 642.45,-323.45 640.88,-322.86 639.31,-322.23"/>
<polygon fill="black" stroke="black" points="640.98,-319.14 630.41,-318.39 638.2,-325.57 640.98,-319.14"/>
</g>
<!-- n14 -->
<g id="node15" class="node">
<title>n14</title>
<ellipse fill="#b2dfee" stroke="#b2dfee" cx="698" cy="-306" rx="45.15" ry="18"/>
<text text-anchor="middle" x="698" y="-303.5" font-family="Helvetica,sans-Serif" font-size="10.00">RELACIONAL</text>
</g>
<!-- n11&#45;&gt;n14 -->
<g id="edge14" class="edge">
<title>n11&#45;&gt;n14</title>
<path fill="none" stroke="black" d="M837.13,-367.12C811.54,-356.06 769.59,-337.93 738.43,-324.47"/>
<polygon fill="black" stroke="black" points="739.87,-321.28 729.3,-320.52 737.09,-327.7 739.87,-321.28"/>
</g>
<!-- n20 -->
<g id="node21" class="node">
<title>n20</title>
<ellipse fill="#b2dfee" stroke="#b2dfee" cx="788" cy="-306" rx="27" ry="18"/>
<text text-anchor="middle" x="788" y="-303.5" font-family="Helvetica,sans-Serif" font-size="10.00">)</text>
</g>
<!-- n11&#45;&gt;n20 -->
<g id="edge20" class="edge">
<title>n11&#45;&gt;n20</title>
<path fill="none" stroke="black" d="M845.08,-362.5C835.23,-352.92 822.14,-340.19 810.97,-329.34"/>
<polygon fill="black" stroke="black" points="813.59,-327 803.98,-322.54 808.71,-332.02 813.59,-327"/>
</g>
<!-- n21 -->
<g id="node22" class="node">
<title>n21</title>
<ellipse fill="#b2dfee" stroke="#b2dfee" cx="860" cy="-306" rx="27" ry="18"/>
<text text-anchor="middle" x="860" y="-303.5" font-family="Helvetica,sans-Serif" font-size="10.00">{</text>
</g>
<!-- n11&#45;&gt;n21 -->
<g id="edge21" class="edge">
<title>n11&#45;&gt;n21</title>
<path fill="none" stroke="black" d="M860,-359.7C860,-352.41 860,-343.73 860,-335.54"/>
<polygon fill="black" stroke="black" points="863.5,-335.62 860,-325.62 856.5,-335.62 863.5,-335.62"/>
</g>
<!-- n22 -->
<g id="node23" class="node">
<title>n22</title>
<ellipse fill="#b2dfee" stroke="#b2dfee" cx="991" cy="-306" rx="85.89" ry="18"/>
<text text-anchor="middle" x="991" y="-303.5" font-family="Helvetica,sans-Serif" font-size="10.00">DECLARACION_VARIABLES</text>
</g>
<!-- n11&#45;&gt;n22 -->
<g id="edge22" class="edge">
<title>n11&#45;&gt;n22</title>
<path fill="none" stroke="black" d="M881.05,-365.75C899.82,-355.72 927.82,-340.76 950.87,-328.44"/>
<polygon fill="black" stroke="black" points="952.22,-331.69 959.39,-323.89 948.92,-325.52 952.22,-331.69"/>
</g>
<!-- n31 -->
<g id="node32" class="node">
<title>n31</title>
<ellipse fill="#b2dfee" stroke="#b2dfee" cx="1526" cy="-306" rx="27.84" ry="18"/>
<text text-anchor="middle" x="1526" y="-303.5" font-family="Helvetica,sans-Serif" font-size="10.00">WHILE</text>
</g>
<!-- n11&#45;&gt;n31 -->
<g id="edge31" class="edge">
<title>n11&#45;&gt;n31</title>
<path fill="none" stroke="black" d="M887.35,-374.13C991.7,-363.16 1365.03,-323.92 1487.08,-311.09"/>
<polygon fill="black" stroke="black" points="1487.34,-314.58 1496.92,-310.06 1486.61,-307.62 1487.34,-314.58"/>
</g>
<!-- n58 -->
<g id="node59" class="node">
<title>n58</title>
<ellipse fill="#b2dfee" stroke="#b2dfee" cx="2023" cy="-306" rx="32.93" ry="18"/>
<text text-anchor="middle" x="2023" y="-303.5" font-family="Helvetica,sans-Serif" font-size="10.00">PRINTLN</text>
</g>
<!-- n11&#45;&gt;n58 -->
<g id="edge58" class="edge">
<title>n11&#45;&gt;n58</title>
<path fill="none" stroke="black" d="M887.89,-375.32C1041.85,-366.05 1787.9,-321.15 1978.56,-309.67"/>
<polygon fill="black" stroke="black" points="1978.77,-313.17 1988.54,-309.07 1978.35,-306.18 1978.77,-313.17"/>
</g>
<!-- n65 -->
<g id="node66" class="node">
<title>n65</title>
<ellipse fill="#b2dfee" stroke="#b2dfee" cx="2286" cy="-306" rx="34.29" ry="18"/>
<text text-anchor="middle" x="2286" y="-303.5" font-family="Helvetica,sans-Serif" font-size="10.00">INC_DEC</text>
</g>
<!-- n11&#45;&gt;n65 -->
<g id="edge65" class="edge">
<title>n11&#45;&gt;n65</title>
<path fill="none" stroke="black" d="M888.04,-376.11C1020.27,-371.83 1594.7,-352.42 2065,-324 2126,-320.31 2196.37,-314.66 2241,-310.9"/>
<polygon fill="black" stroke="black" points="2241.15,-314.4 2250.82,-310.06 2240.56,-307.42 2241.15,-314.4"/>
</g>
<!-- n69 -->
<g id="node70" class="node">
<title>n69</title>
<ellipse fill="#b2dfee" stroke="#b2dfee" cx="2365" cy="-306" rx="27" ry="18"/>
<text text-anchor="middle" x="2365" y="-303.5" font-family="Helvetica,sans-Serif" font-size="10.00">}</text>
</g>
<!-- n11&#45;&gt;n69 -->
<g id="edge69" class="edge">
<title>n11&#45;&gt;n69</title>
<path fill="none" stroke="black" d="M888.08,-376.67C1079.07,-374.31 2184.09,-359.25 2329,-324 2330.64,-323.6 2332.29,-323.13 2333.94,-322.59"/>
<polygon fill="black" stroke="black" points="2335.17,-325.87 2343.18,-318.94 2332.59,-319.36 2335.17,-325.87"/>
</g>
<!-- n15 -->
<g id="node16" class="node">
<title>n15</title>
<ellipse fill="#b2dfee" stroke="#b2dfee" cx="504" cy="-234" rx="77.23" ry="18"/>
<text text-anchor="middle" x="504" y="-231.5" font-family="Helvetica,sans-Serif" font-size="10.00">RECUPERAR_VARIABLE</text>
</g>
<!-- n14&#45;&gt;n15 -->
<g id="edge15" class="edge">
<title>n14&#45;&gt;n15</title>
<path fill="none" stroke="black" d="M665.53,-293.28C635.42,-282.42 590.13,-266.08 555.17,-253.46"/>
<polygon fill="black" stroke="black" points="556.69,-250.29 546.1,-250.19 554.31,-256.88 556.69,-250.29"/>
</g>
<!-- n17 -->
<g id="node18" class="node">
<title>n17</title>
<ellipse fill="#b2dfee" stroke="#b2dfee" cx="626" cy="-234" rx="27" ry="18"/>
<text text-anchor="middle" x="626" y="-231.5" font-family="Helvetica,sans-Serif" font-size="10.00">&lt;=</text>
</g>
<!-- n14&#45;&gt;n17 -->
<g id="edge17" class="edge">
<title>n14&#45;&gt;n17</title>
<path fill="none" stroke="black" d="M681.66,-289.12C671.97,-279.69 659.54,-267.61 648.88,-257.25"/>
<polygon fill="black" stroke="black" points="651.5,-254.91 641.89,-250.45 646.62,-259.93 651.5,-254.91"/>
</g>
<!-- n18 -->
<g id="node19" class="node">
<title>n18</title>
<ellipse fill="#b2dfee" stroke="#b2dfee" cx="698" cy="-234" rx="27" ry="18"/>
<text text-anchor="middle" x="698" y="-231.5" font-family="Helvetica,sans-Serif" font-size="10.00">INT</text>
</g>
<!-- n14&#45;&gt;n18 -->
<g id="edge18" class="edge">
<title>n14&#45;&gt;n18</title>
<path fill="none" stroke="black" d="M698,-287.7C698,-280.41 698,-271.73 698,-263.54"/>
<polygon fill="black" stroke="black" points="701.5,-263.62 698,-253.62 694.5,-263.62 701.5,-263.62"/>
</g>
<!-- n16 -->
<g id="node17" class="node">
<title>n16</title>
<ellipse fill="#b2dfee" stroke="#b2dfee" cx="504" cy="-162" rx="27" ry="18"/>
<text text-anchor="middle" x="504" y="-159.5" font-family="Helvetica,sans-Serif" font-size="10.00">i</text>
</g>
<!-- n15&#45;&gt;n16 -->
<g id="edge16" class="edge">
<title>n15&#45;&gt;n16</title>
<path fill="none" stroke="black" d="M504,-215.7C504,-208.41 504,-199.73 504,-191.54"/>
<polygon fill="black" stroke="black" points="507.5,-191.62 504,-181.62 500.5,-191.62 507.5,-191.62"/>
</g>
<!-- n19 -->
<g id="node20" class="node">
<title>n19</title>
<ellipse fill="#b2dfee" stroke="#b2dfee" cx="698" cy="-162" rx="27" ry="18"/>
<text text-anchor="middle" x="698" y="-159.5" font-family="Helvetica,sans-Serif" font-size="10.00">5</text>
</g>
<!-- n18&#45;&gt;n19 -->
<g id="edge19" class="edge">
<title>n18&#45;&gt;n19</title>
<path fill="none" stroke="black" d="M698,-215.7C698,-208.41 698,-199.73 698,-191.54"/>
<polygon fill="black" stroke="black" points="701.5,-191.62 698,-181.62 694.5,-191.62 701.5,-191.62"/>
</g>
<!-- n23 -->
<g id="node24" class="node">
<title>n23</title>
<ellipse fill="#b2dfee" stroke="#b2dfee" cx="770" cy="-234" rx="27" ry="18"/>
<text text-anchor="middle" x="770" y="-231.5" font-family="Helvetica,sans-Serif" font-size="10.00">var</text>
</g>
<!-- n22&#45;&gt;n23 -->
<g id="edge23" class="edge">
<title>n22&#45;&gt;n23</title>
<path fill="none" stroke="black" d="M936.01,-291.75C898.81,-282.17 848.84,-268.13 806,-252 804.46,-251.42 802.9,-250.8 801.33,-250.16"/>
<polygon fill="black" stroke="black" points="803.02,-247.08 792.46,-246.26 800.21,-253.49 803.02,-247.08"/>
</g>
<!-- n24 -->
<g id="node25" class="node">
<title>n24</title>
<ellipse fill="#b2dfee" stroke="#b2dfee" cx="842" cy="-234" rx="27" ry="18"/>
<text text-anchor="middle" x="842" y="-231.5" font-family="Helvetica,sans-Serif" font-size="10.00">j</text>
</g>
<!-- n22&#45;&gt;n24 -->
<g id="edge24" class="edge">
<title>n22&#45;&gt;n24</title>
<path fill="none" stroke="black" d="M956.87,-289.02C934.44,-278.51 904.47,-264.46 878,-252 876.7,-251.39 875.37,-250.76 874.03,-250.13"/>
<polygon fill="black" stroke="black" points="875.6,-247 865.07,-245.9 872.62,-253.33 875.6,-247"/>
</g>
<!-- n25 -->
<g id="node26" class="node">
<title>n25</title>
<ellipse fill="#b2dfee" stroke="#b2dfee" cx="914" cy="-234" rx="27" ry="18"/>
<text text-anchor="middle" x="914" y="-231.5" font-family="Helvetica,sans-Serif" font-size="10.00">:</text>
</g>
<!-- n22&#45;&gt;n25 -->
<g id="edge25" class="edge">
<title>n22&#45;&gt;n25</title>
<path fill="none" stroke="black" d="M972.36,-288.05C962.04,-278.67 949.09,-266.9 938.01,-256.83"/>
<polygon fill="black" stroke="black" points="940.49,-254.35 930.73,-250.21 935.78,-259.53 940.49,-254.35"/>
</g>
<!-- n26 -->
<g id="node27" class="node">
<title>n26</title>
<ellipse fill="#b2dfee" stroke="#b2dfee" cx="986" cy="-234" rx="27" ry="18"/>
<text text-anchor="middle" x="986" y="-231.5" font-family="Helvetica,sans-Serif" font-size="10.00">INT</text>
</g>
<!-- n22&#45;&gt;n26 -->
<g id="edge26" class="edge">
<title>n22&#45;&gt;n26</title>
<path fill="none" stroke="black" d="M989.76,-287.7C989.24,-280.41 988.62,-271.73 988.04,-263.54"/>
<polygon fill="black" stroke="black" points="991.53,-263.34 987.33,-253.61 984.55,-263.84 991.53,-263.34"/>
</g>
<!-- n27 -->
<g id="node28" class="node">
<title>n27</title>
<ellipse fill="#b2dfee" stroke="#b2dfee" cx="1058" cy="-234" rx="27" ry="18"/>
<text text-anchor="middle" x="1058" y="-231.5" font-family="Helvetica,sans-Serif" font-size="10.00">=</text>
</g>
<!-- n22&#45;&gt;n27 -->
<g id="edge27" class="edge">
<title>n22&#45;&gt;n27</title>
<path fill="none" stroke="black" d="M1007.22,-288.05C1015.97,-278.92 1026.88,-267.52 1036.34,-257.63"/>
<polygon fill="black" stroke="black" points="1038.76,-260.16 1043.15,-250.52 1033.7,-255.32 1038.76,-260.16"/>
</g>
<!-- n28 -->
<g id="node29" class="node">
<title>n28</title>
<ellipse fill="#b2dfee" stroke="#b2dfee" cx="1130" cy="-234" rx="27" ry="18"/>
<text text-anchor="middle" x="1130" y="-231.5" font-family="Helvetica,sans-Serif" font-size="10.00">INT</text>
</g>
<!-- n22&#45;&gt;n28 -->
<g id="edge28" class="edge">
<title>n22&#45;&gt;n28</title>
<path fill="none" stroke="black" d="M1022.89,-288.94C1045.72,-277.44 1076.31,-262.04 1098.95,-250.64"/>
<polygon fill="black" stroke="black" points="1100.34,-253.86 1107.69,-246.23 1097.19,-247.61 1100.34,-253.86"/>
</g>
<!-- n30 -->
<g id="node31" class="node">
<title>n30</title>
<ellipse fill="#b2dfee" stroke="#b2dfee" cx="1202" cy="-234" rx="27" ry="18"/>
<text text-anchor="middle" x="1202" y="-231.5" font-family="Helvetica,sans-Serif" font-size="10.00">;</text>
</g>
<!-- n22&#45;&gt;n30 -->
<g id="edge30" class="edge">
<title>n22&#45;&gt;n30</title>
<path fill="none" stroke="black" d="M1043.36,-291.32C1078.5,-281.61 1125.56,-267.57 1166,-252 1167.53,-251.41 1169.09,-250.78 1170.65,-250.13"/>
<polygon fill="black" stroke="black" points="1171.79,-253.46 1179.52,-246.21 1168.96,-247.05 1171.79,-253.46"/>
</g>
<!-- n29 -->
<g id="node30" class="node">
<title>n29</title>
<ellipse fill="#b2dfee" stroke="#b2dfee" cx="1027" cy="-162" rx="27" ry="18"/>
<text text-anchor="middle" x="1027" y="-159.5" font-family="Helvetica,sans-Serif" font-size="10.00">1</text>
</g>
<!-- n28&#45;&gt;n29 -->
<g id="edge29" class="edge">
<title>n28&#45;&gt;n29</title>
<path fill="none" stroke="black" d="M1111.59,-220.49C1095.77,-209.73 1072.73,-194.08 1054.69,-181.82"/>
<polygon fill="black" stroke="black" points="1056.74,-178.98 1046.51,-176.26 1052.81,-184.77 1056.74,-178.98"/>
</g>
<!-- n32 -->
<g id="node33" class="node">
<title>n32</title>
<ellipse fill="#b2dfee" stroke="#b2dfee" cx="1274" cy="-234" rx="27" ry="18"/>
<text text-anchor="middle" x="1274" y="-231.5" font-family="Helvetica,sans-Serif" font-size="10.00">while</text>
</g>
<!-- n31&#45;&gt;n32 -->
<g id="edge32" class="edge">
<title>n31&#45;&gt;n32</title>
<path fill="none" stroke="black" d="M1499.23,-300.23C1457.91,-292.46 1376.41,-275.56 1310,-252 1308.45,-251.45 1306.88,-250.86 1305.31,-250.23"/>
<polygon fill="black" stroke="black" points="1306.98,-247.14 1296.41,-246.39 1304.2,-253.57 1306.98,-247.14"/>
</g>
<!-- n33 -->
<g id="node34" class="node">
<title>n33</title>
<ellipse fill="#b2dfee" stroke="#b2dfee" cx="1346" cy="-234" rx="27" ry="18"/>
<text text-anchor="middle" x="1346" y="-231.5" font-family="Helvetica,sans-Serif" font-size="10.00">(</text>
</g>
<!-- n31&#45;&gt;n33 -->
<g id="edge33" class="edge">
<title>n31&#45;&gt;n33</title>
<path fill="none" stroke="black" d="M1501.54,-296.74C1472.68,-286.82 1423.4,-269.35 1382,-252 1380.49,-251.37 1378.94,-250.7 1377.39,-250.02"/>
<polygon fill="black" stroke="black" points="1379.11,-246.96 1368.56,-246.01 1376.21,-253.33 1379.11,-246.96"/>
</g>
<!-- n34 -->
<g id="node35" class="node">
<title>n34</title>
<ellipse fill="#b2dfee" stroke="#b2dfee" cx="1436" cy="-234" rx="45.15" ry="18"/>
<text text-anchor="middle" x="1436" y="-231.5" font-family="Helvetica,sans-Serif" font-size="10.00">RELACIONAL</text>
</g>
<!-- n31&#45;&gt;n34 -->
<g id="edge34" class="edge">
<title>n31&#45;&gt;n34</title>
<path fill="none" stroke="black" d="M1508.65,-291.5C1496.24,-281.86 1479.27,-268.65 1464.84,-257.43"/>
<polygon fill="black" stroke="black" points="1467.04,-254.71 1457,-251.33 1462.75,-260.24 1467.04,-254.71"/>
</g>
<!-- n40 -->
<g id="node41" class="node">
<title>n40</title>
<ellipse fill="#b2dfee" stroke="#b2dfee" cx="1526" cy="-234" rx="27" ry="18"/>
<text text-anchor="middle" x="1526" y="-231.5" font-family="Helvetica,sans-Serif" font-size="10.00">)</text>
</g>
<!-- n31&#45;&gt;n40 -->
<g id="edge40" class="edge">
<title>n31&#45;&gt;n40</title>
<path fill="none" stroke="black" d="M1526,-287.7C1526,-280.41 1526,-271.73 1526,-263.54"/>
<polygon fill="black" stroke="black" points="1529.5,-263.62 1526,-253.62 1522.5,-263.62 1529.5,-263.62"/>
</g>
<!-- n41 -->
<g id="node42" class="node">
<title>n41</title>
<ellipse fill="#b2dfee" stroke="#b2dfee" cx="1598" cy="-234" rx="27" ry="18"/>
<text text-anchor="middle" x="1598" y="-231.5" font-family="Helvetica,sans-Serif" font-size="10.00">{</text>
</g>
<!-- n31&#45;&gt;n41 -->
<g id="edge41" class="edge">
<title>n31&#45;&gt;n41</title>
<path fill="none" stroke="black" d="M1540.92,-290.5C1550.77,-280.92 1563.86,-268.19 1575.03,-257.34"/>
<polygon fill="black" stroke="black" points="1577.29,-260.02 1582.02,-250.54 1572.41,-255 1577.29,-260.02"/>
</g>
<!-- n42 -->
<g id="node43" class="node">
<title>n42</title>
<ellipse fill="#b2dfee" stroke="#b2dfee" cx="1676" cy="-234" rx="32.93" ry="18"/>
<text text-anchor="middle" x="1676" y="-231.5" font-family="Helvetica,sans-Serif" font-size="10.00">PRINTLN</text>
</g>
<!-- n31&#45;&gt;n42 -->
<g id="edge42" class="edge">
<title>n31&#45;&gt;n42</title>
<path fill="none" stroke="black" d="M1548.13,-294.67C1572.63,-283.24 1612.44,-264.66 1641.13,-251.27"/>
<polygon fill="black" stroke="black" points="1642.58,-254.46 1650.16,-247.06 1639.62,-248.12 1642.58,-254.46"/>
</g>
<!-- n53 -->
<g id="node54" class="node">
<title>n53</title>
<ellipse fill="#b2dfee" stroke="#b2dfee" cx="1761" cy="-234" rx="34.29" ry="18"/>
<text text-anchor="middle" x="1761" y="-231.5" font-family="Helvetica,sans-Serif" font-size="10.00">INC_DEC</text>
</g>
<!-- n31&#45;&gt;n53 -->
<g id="edge53" class="edge">
<title>n31&#45;&gt;n53</title>
<path fill="none" stroke="black" d="M1552.04,-298.75C1589.21,-289.63 1659.46,-271.59 1718,-252 1719.97,-251.34 1721.98,-250.64 1724,-249.92"/>
<polygon fill="black" stroke="black" points="1725.23,-253.19 1733.37,-246.41 1722.78,-246.64 1725.23,-253.19"/>
</g>
<!-- n57 -->
<g id="node58" class="node">
<title>n57</title>
<ellipse fill="#b2dfee" stroke="#b2dfee" cx="1840" cy="-234" rx="27" ry="18"/>
<text text-anchor="middle" x="1840" y="-231.5" font-family="Helvetica,sans-Serif" font-size="10.00">}</text>
</g>
<!-- n31&#45;&gt;n57 -->
<g id="edge57" class="edge">
<title>n31&#45;&gt;n57</title>
<path fill="none" stroke="black" d="M1553.41,-302.1C1603.94,-296.26 1714.77,-281.06 1804,-252 1805.6,-251.48 1807.23,-250.9 1808.85,-250.29"/>
<polygon fill="black" stroke="black" points="1810.19,-253.52 1818.03,-246.4 1807.46,-247.08 1810.19,-253.52"/>
</g>
<!-- n35 -->
<g id="node36" class="node">
<title>n35</title>
<ellipse fill="#b2dfee" stroke="#b2dfee" cx="1149" cy="-162" rx="77.23" ry="18"/>
<text text-anchor="middle" x="1149" y="-159.5" font-family="Helvetica,sans-Serif" font-size="10.00">RECUPERAR_VARIABLE</text>
</g>
<!-- n34&#45;&gt;n35 -->
<g id="edge35" class="edge">
<title>n34&#45;&gt;n35</title>
<path fill="none" stroke="black" d="M1401.84,-221.79C1395.29,-219.76 1388.45,-217.75 1382,-216 1326.88,-201.08 1263.67,-186.88 1217.01,-176.94"/>
<polygon fill="black" stroke="black" points="1217.81,-173.53 1207.3,-174.89 1216.36,-180.38 1217.81,-173.53"/>
</g>
<!-- n37 -->
<g id="node38" class="node">
<title>n37</title>
<ellipse fill="#b2dfee" stroke="#b2dfee" cx="1271" cy="-162" rx="27" ry="18"/>
<text text-anchor="middle" x="1271" y="-159.5" font-family="Helvetica,sans-Serif" font-size="10.00">&lt;=</text>
</g>
<!-- n34&#45;&gt;n37 -->
<g id="edge37" class="edge">
<title>n34&#45;&gt;n37</title>
<path fill="none" stroke="black" d="M1404.79,-220.7C1378.55,-210.23 1340.12,-194.61 1307,-180 1305.68,-179.42 1304.34,-178.82 1302.99,-178.21"/>
<polygon fill="black" stroke="black" points="1304.54,-175.07 1293.99,-174.06 1301.61,-181.43 1304.54,-175.07"/>
</g>
<!-- n38 -->
<g id="node39" class="node">
<title>n38</title>
<ellipse fill="#b2dfee" stroke="#b2dfee" cx="1393" cy="-162" rx="77.23" ry="18"/>
<text text-anchor="middle" x="1393" y="-159.5" font-family="Helvetica,sans-Serif" font-size="10.00">RECUPERAR_VARIABLE</text>
</g>
<!-- n34&#45;&gt;n38 -->
<g id="edge38" class="edge">
<title>n34&#45;&gt;n38</title>
<path fill="none" stroke="black" d="M1425.59,-216.05C1420.8,-208.26 1415,-198.82 1409.63,-190.08"/>
<polygon fill="black" stroke="black" points="1412.62,-188.25 1404.4,-181.56 1406.66,-191.92 1412.62,-188.25"/>
</g>
<!-- n36 -->
<g id="node37" class="node">
<title>n36</title>
<ellipse fill="#b2dfee" stroke="#b2dfee" cx="1149" cy="-90" rx="27" ry="18"/>
<text text-anchor="middle" x="1149" y="-87.5" font-family="Helvetica,sans-Serif" font-size="10.00">j</text>
</g>
<!-- n35&#45;&gt;n36 -->
<g id="edge36" class="edge">
<title>n35&#45;&gt;n36</title>
<path fill="none" stroke="black" d="M1149,-143.7C1149,-136.41 1149,-127.73 1149,-119.54"/>
<polygon fill="black" stroke="black" points="1152.5,-119.62 1149,-109.62 1145.5,-119.62 1152.5,-119.62"/>
</g>
<!-- n39 -->
<g id="node40" class="node">
<title>n39</title>
<ellipse fill="#b2dfee" stroke="#b2dfee" cx="1393" cy="-90" rx="27" ry="18"/>
<text text-anchor="middle" x="1393" y="-87.5" font-family="Helvetica,sans-Serif" font-size="10.00">i</text>
</g>
<!-- n38&#45;&gt;n39 -->
<g id="edge39" class="edge">
<title>n38&#45;&gt;n39</title>
<path fill="none" stroke="black" d="M1393,-143.7C1393,-136.41 1393,-127.73 1393,-119.54"/>
<polygon fill="black" stroke="black" points="1396.5,-119.62 1393,-109.62 1389.5,-119.62 1396.5,-119.62"/>
</g>
<!-- n43 -->
<g id="node44" class="node">
<title>n43</title>
<ellipse fill="#b2dfee" stroke="#b2dfee" cx="1515" cy="-162" rx="27" ry="18"/>
<text text-anchor="middle" x="1515" y="-159.5" font-family="Helvetica,sans-Serif" font-size="10.00">Println</text>
</g>
<!-- n42&#45;&gt;n43 -->
<g id="edge43" class="edge">
<title>n42&#45;&gt;n43</title>
<path fill="none" stroke="black" d="M1650.49,-222.54C1625.14,-212.05 1585.2,-195.32 1551,-180 1549.69,-179.41 1548.35,-178.81 1547,-178.19"/>
<polygon fill="black" stroke="black" points="1548.55,-175.06 1538.01,-174.03 1545.61,-181.41 1548.55,-175.06"/>
</g>
<!-- n44 -->
<g id="node45" class="node">
<title>n44</title>
<ellipse fill="#b2dfee" stroke="#b2dfee" cx="1587" cy="-162" rx="27" ry="18"/>
<text text-anchor="middle" x="1587" y="-159.5" font-family="Helvetica,sans-Serif" font-size="10.00">(</text>
</g>
<!-- n42&#45;&gt;n44 -->
<g id="edge44" class="edge">
<title>n42&#45;&gt;n44</title>
<path fill="none" stroke="black" d="M1657.99,-218.83C1645.07,-208.68 1627.48,-194.83 1613.03,-183.47"/>
<polygon fill="black" stroke="black" points="1615.29,-180.8 1605.27,-177.37 1610.96,-186.3 1615.29,-180.8"/>
</g>
<!-- n45 -->
<g id="node46" class="node">
<title>n45</title>
<ellipse fill="#b2dfee" stroke="#b2dfee" cx="1676" cy="-162" rx="43.62" ry="18"/>
<text text-anchor="middle" x="1676" y="-159.5" font-family="Helvetica,sans-Serif" font-size="10.00">ARITMETICA</text>
</g>
<!-- n42&#45;&gt;n45 -->
<g id="edge45" class="edge">
<title>n42&#45;&gt;n45</title>
<path fill="none" stroke="black" d="M1676,-215.7C1676,-208.41 1676,-199.73 1676,-191.54"/>
<polygon fill="black" stroke="black" points="1679.5,-191.62 1676,-181.62 1672.5,-191.62 1679.5,-191.62"/>
</g>
<!-- n51 -->
<g id="node52" class="node">
<title>n51</title>
<ellipse fill="#b2dfee" stroke="#b2dfee" cx="1765" cy="-162" rx="27" ry="18"/>
<text text-anchor="middle" x="1765" y="-159.5" font-family="Helvetica,sans-Serif" font-size="10.00">)</text>
</g>
<!-- n42&#45;&gt;n51 -->
<g id="edge51" class="edge">
<title>n42&#45;&gt;n51</title>
<path fill="none" stroke="black" d="M1694.01,-218.83C1706.93,-208.68 1724.52,-194.83 1738.97,-183.47"/>
<polygon fill="black" stroke="black" points="1741.04,-186.3 1746.73,-177.37 1736.71,-180.8 1741.04,-186.3"/>
</g>
<!-- n52 -->
<g id="node53" class="node">
<title>n52</title>
<ellipse fill="#b2dfee" stroke="#b2dfee" cx="1837" cy="-162" rx="27" ry="18"/>
<text text-anchor="middle" x="1837" y="-159.5" font-family="Helvetica,sans-Serif" font-size="10.00">;</text>
</g>
<!-- n42&#45;&gt;n52 -->
<g id="edge52" class="edge">
<title>n42&#45;&gt;n52</title>
<path fill="none" stroke="black" d="M1701.51,-222.54C1726.86,-212.05 1766.8,-195.32 1801,-180 1802.31,-179.41 1803.65,-178.81 1805,-178.19"/>
<polygon fill="black" stroke="black" points="1806.39,-181.41 1813.99,-174.03 1803.45,-175.06 1806.39,-181.41"/>
</g>
<!-- n46 -->
<g id="node47" class="node">
<title>n46</title>
<ellipse fill="#b2dfee" stroke="#b2dfee" cx="1554" cy="-90" rx="77.23" ry="18"/>
<text text-anchor="middle" x="1554" y="-87.5" font-family="Helvetica,sans-Serif" font-size="10.00">RECUPERAR_VARIABLE</text>
</g>
<!-- n45&#45;&gt;n46 -->
<g id="edge46" class="edge">
<title>n45&#45;&gt;n46</title>
<path fill="none" stroke="black" d="M1651.31,-146.83C1634.24,-137.04 1611.19,-123.81 1591.81,-112.7"/>
<polygon fill="black" stroke="black" points="1593.79,-109.8 1583.38,-107.86 1590.31,-115.87 1593.79,-109.8"/>
</g>
<!-- n48 -->
<g id="node49" class="node">
<title>n48</title>
<ellipse fill="#b2dfee" stroke="#b2dfee" cx="1676" cy="-90" rx="27" ry="18"/>
<text text-anchor="middle" x="1676" y="-87.5" font-family="Helvetica,sans-Serif" font-size="10.00">+</text>
</g>
<!-- n45&#45;&gt;n48 -->
<g id="edge48" class="edge">
<title>n45&#45;&gt;n48</title>
<path fill="none" stroke="black" d="M1676,-143.7C1676,-136.41 1676,-127.73 1676,-119.54"/>
<polygon fill="black" stroke="black" points="1679.5,-119.62 1676,-109.62 1672.5,-119.62 1679.5,-119.62"/>
</g>
<!-- n49 -->
<g id="node50" class="node">
<title>n49</title>
<ellipse fill="#b2dfee" stroke="#b2dfee" cx="1755" cy="-90" rx="33.61" ry="18"/>
<text text-anchor="middle" x="1755" y="-87.5" font-family="Helvetica,sans-Serif" font-size="10.00">CADENA</text>
</g>
<!-- n45&#45;&gt;n49 -->
<g id="edge49" class="edge">
<title>n45&#45;&gt;n49</title>
<path fill="none" stroke="black" d="M1693.93,-145.12C1704.52,-135.73 1718.1,-123.7 1729.76,-113.36"/>
<polygon fill="black" stroke="black" points="1731.93,-116.12 1737.09,-106.87 1727.29,-110.88 1731.93,-116.12"/>
</g>
<!-- n47 -->
<g id="node48" class="node">
<title>n47</title>
<ellipse fill="#b2dfee" stroke="#b2dfee" cx="1554" cy="-18" rx="27" ry="18"/>
<text text-anchor="middle" x="1554" y="-15.5" font-family="Helvetica,sans-Serif" font-size="10.00">i</text>
</g>
<!-- n46&#45;&gt;n47 -->
<g id="edge47" class="edge">
<title>n46&#45;&gt;n47</title>
<path fill="none" stroke="black" d="M1554,-71.7C1554,-64.41 1554,-55.73 1554,-47.54"/>
<polygon fill="black" stroke="black" points="1557.5,-47.62 1554,-37.62 1550.5,-47.62 1557.5,-47.62"/>
</g>
<!-- n50 -->
<g id="node51" class="node">
<title>n50</title>
<ellipse fill="#b2dfee" stroke="#b2dfee" cx="1755" cy="-18" rx="27" ry="18"/>
<text text-anchor="middle" x="1755" y="-15.5" font-family="Helvetica,sans-Serif" font-size="10.00"> </text>
</g>
<!-- n49&#45;&gt;n50 -->
<g id="edge50" class="edge">
<title>n49&#45;&gt;n50</title>
<path fill="none" stroke="black" d="M1755,-71.7C1755,-64.41 1755,-55.73 1755,-47.54"/>
<polygon fill="black" stroke="black" points="1758.5,-47.62 1755,-37.62 1751.5,-47.62 1758.5,-47.62"/>
</g>
<!-- n54 -->
<g id="node55" class="node">
<title>n54</title>
<ellipse fill="#b2dfee" stroke="#b2dfee" cx="1909" cy="-162" rx="27" ry="18"/>
<text text-anchor="middle" x="1909" y="-159.5" font-family="Helvetica,sans-Serif" font-size="10.00">j</text>
</g>
<!-- n53&#45;&gt;n54 -->
<g id="edge54" class="edge">
<title>n53&#45;&gt;n54</title>
<path fill="none" stroke="black" d="M1785.77,-221.28C1810.91,-209.4 1849.91,-190.95 1877.29,-178"/>
<polygon fill="black" stroke="black" points="1878.61,-181.25 1886.15,-173.81 1875.61,-174.92 1878.61,-181.25"/>
</g>
<!-- n55 -->
<g id="node56" class="node">
<title>n55</title>
<ellipse fill="#b2dfee" stroke="#b2dfee" cx="1981" cy="-162" rx="27" ry="18"/>
<text text-anchor="middle" x="1981" y="-159.5" font-family="Helvetica,sans-Serif" font-size="10.00">++</text>
</g>
<!-- n53&#45;&gt;n55 -->
<g id="edge55" class="edge">
<title>n53&#45;&gt;n55</title>
<path fill="none" stroke="black" d="M1787.19,-222.04C1792.69,-219.9 1798.5,-217.78 1804,-216 1865.53,-196.07 1884.15,-201.91 1945,-180 1946.54,-179.44 1948.11,-178.84 1949.69,-178.22"/>
<polygon fill="black" stroke="black" points="1950.8,-181.55 1958.58,-174.36 1948.01,-175.13 1950.8,-181.55"/>
</g>
<!-- n56 -->
<g id="node57" class="node">
<title>n56</title>
<ellipse fill="#b2dfee" stroke="#b2dfee" cx="2053" cy="-162" rx="27" ry="18"/>
<text text-anchor="middle" x="2053" y="-159.5" font-family="Helvetica,sans-Serif" font-size="10.00">;</text>
</g>
<!-- n53&#45;&gt;n56 -->
<g id="edge56" class="edge">
<title>n53&#45;&gt;n56</title>
<path fill="none" stroke="black" d="M1786.62,-221.86C1792.27,-219.69 1798.28,-217.6 1804,-216 1896.48,-190.21 1925.4,-208.77 2017,-180 2018.61,-179.5 2020.23,-178.93 2021.86,-178.33"/>
<polygon fill="black" stroke="black" points="2023.19,-181.57 2031.05,-174.47 2020.48,-175.11 2023.19,-181.57"/>
</g>
<!-- n59 -->
<g id="node60" class="node">
<title>n59</title>
<ellipse fill="#b2dfee" stroke="#b2dfee" cx="1912" cy="-234" rx="27" ry="18"/>
<text text-anchor="middle" x="1912" y="-231.5" font-family="Helvetica,sans-Serif" font-size="10.00">Println</text>
</g>
<!-- n58&#45;&gt;n59 -->
<g id="edge59" class="edge">
<title>n58&#45;&gt;n59</title>
<path fill="none" stroke="black" d="M2001.86,-291.67C1984.59,-280.77 1959.99,-265.26 1940.89,-253.22"/>
<polygon fill="black" stroke="black" points="1942.81,-250.29 1932.49,-247.92 1939.08,-256.21 1942.81,-250.29"/>
</g>
<!-- n60 -->
<g id="node61" class="node">
<title>n60</title>
<ellipse fill="#b2dfee" stroke="#b2dfee" cx="1984" cy="-234" rx="27" ry="18"/>
<text text-anchor="middle" x="1984" y="-231.5" font-family="Helvetica,sans-Serif" font-size="10.00">(</text>
</g>
<!-- n58&#45;&gt;n60 -->
<g id="edge60" class="edge">
<title>n58&#45;&gt;n60</title>
<path fill="none" stroke="black" d="M2013.76,-288.41C2009.18,-280.19 2003.54,-270.06 1998.4,-260.85"/>
<polygon fill="black" stroke="black" points="2001.57,-259.34 1993.64,-252.31 1995.45,-262.75 2001.57,-259.34"/>
</g>
<!-- n61 -->
<g id="node62" class="node">
<title>n61</title>
<ellipse fill="#b2dfee" stroke="#b2dfee" cx="2063" cy="-234" rx="33.61" ry="18"/>
<text text-anchor="middle" x="2063" y="-231.5" font-family="Helvetica,sans-Serif" font-size="10.00">CADENA</text>
</g>
<!-- n58&#45;&gt;n61 -->
<g id="edge61" class="edge">
<title>n58&#45;&gt;n61</title>
<path fill="none" stroke="black" d="M2032.48,-288.41C2037.11,-280.3 2042.8,-270.35 2048,-261.25"/>
<polygon fill="black" stroke="black" points="2050.92,-263.2 2052.84,-252.78 2044.84,-259.73 2050.92,-263.2"/>
</g>
<!-- n63 -->
<g id="node64" class="node">
<title>n63</title>
<ellipse fill="#b2dfee" stroke="#b2dfee" cx="2142" cy="-234" rx="27" ry="18"/>
<text text-anchor="middle" x="2142" y="-231.5" font-family="Helvetica,sans-Serif" font-size="10.00">)</text>
</g>
<!-- n58&#45;&gt;n63 -->
<g id="edge63" class="edge">
<title>n58&#45;&gt;n63</title>
<path fill="none" stroke="black" d="M2044.83,-292.16C2063.86,-280.97 2091.62,-264.64 2112.6,-252.29"/>
<polygon fill="black" stroke="black" points="2114.14,-255.45 2120.98,-247.36 2110.59,-249.42 2114.14,-255.45"/>
</g>
<!-- n64 -->
<g id="node65" class="node">
<title>n64</title>
<ellipse fill="#b2dfee" stroke="#b2dfee" cx="2214" cy="-234" rx="27" ry="18"/>
<text text-anchor="middle" x="2214" y="-231.5" font-family="Helvetica,sans-Serif" font-size="10.00">;</text>
</g>
<!-- n58&#45;&gt;n64 -->
<g id="edge64" class="edge">
<title>n58&#45;&gt;n64</title>
<path fill="none" stroke="black" d="M2051.35,-296.36C2082.7,-286.56 2134.52,-269.64 2178,-252 2179.52,-251.38 2181.07,-250.73 2182.63,-250.06"/>
<polygon fill="black" stroke="black" points="2183.79,-253.38 2191.47,-246.09 2180.92,-247 2183.79,-253.38"/>
</g>
<!-- n62 -->
<g id="node63" class="node">
<title>n62</title>
<ellipse fill="#b2dfee" stroke="#b2dfee" cx="2125" cy="-162" rx="27" ry="18"/>
<text text-anchor="middle" x="2125" y="-159.5" font-family="Helvetica,sans-Serif" font-size="10.00"> </text>
</g>
<!-- n61&#45;&gt;n62 -->
<g id="edge62" class="edge">
<title>n61&#45;&gt;n62</title>
<path fill="none" stroke="black" d="M2076.76,-217.46C2084.82,-208.37 2095.15,-196.7 2104.19,-186.5"/>
<polygon fill="black" stroke="black" points="2106.69,-188.95 2110.7,-179.14 2101.45,-184.31 2106.69,-188.95"/>
</g>
<!-- n66 -->
<g id="node67" class="node">
<title>n66</title>
<ellipse fill="#b2dfee" stroke="#b2dfee" cx="2286" cy="-234" rx="27" ry="18"/>
<text text-anchor="middle" x="2286" y="-231.5" font-family="Helvetica,sans-Serif" font-size="10.00">i</text>
</g>
<!-- n65&#45;&gt;n66 -->
<g id="edge66" class="edge">
<title>n65&#45;&gt;n66</title>
<path fill="none" stroke="black" d="M2286,-287.7C2286,-280.41 2286,-271.73 2286,-263.54"/>
<polygon fill="black" stroke="black" points="2289.5,-263.62 2286,-253.62 2282.5,-263.62 2289.5,-263.62"/>
</g>
<!-- n67 -->
<g id="node68" class="node">
<title>n67</title>
<ellipse fill="#b2dfee" stroke="#b2dfee" cx="2358" cy="-234" rx="27" ry="18"/>
<text text-anchor="middle" x="2358" y="-231.5" font-family="Helvetica,sans-Serif" font-size="10.00">++</text>
</g>
<!-- n65&#45;&gt;n67 -->
<g id="edge67" class="edge">
<title>n65&#45;&gt;n67</title>
<path fill="none" stroke="black" d="M2301.62,-289.81C2311.51,-280.2 2324.46,-267.61 2335.45,-256.93"/>
<polygon fill="black" stroke="black" points="2337.57,-259.74 2342.3,-250.26 2332.69,-254.72 2337.57,-259.74"/>
</g>
<!-- n68 -->
<g id="node69" class="node">
<title>n68</title>
<ellipse fill="#b2dfee" stroke="#b2dfee" cx="2430" cy="-234" rx="27" ry="18"/>
<text text-anchor="middle" x="2430" y="-231.5" font-family="Helvetica,sans-Serif" font-size="10.00">;</text>
</g>
<!-- n65&#45;&gt;n68 -->
<g id="edge68" class="edge">
<title>n65&#45;&gt;n68</title>
<path fill="none" stroke="black" d="M2310.43,-293.13C2334.69,-281.33 2371.99,-263.2 2398.48,-250.32"/>
<polygon fill="black" stroke="black" points="2399.92,-253.51 2407.38,-246 2396.86,-247.22 2399.92,-253.51"/>
</g>
</g>
</svg>
