<?xml version="1.0" encoding="UTF-8" standalone="no"?>
<!DOCTYPE svg PUBLIC "-//W3C//DTD SVG 1.1//EN"
 "http://www.w3.org/Graphics/SVG/1.1/DTD/svg11.dtd">
<!-- Generated by graphviz version 7.1.0 (20230121.1956)
 -->
<!-- Title: arbolAST Pages: 1 -->
<svg width="888pt" height="404pt"
 viewBox="0.00 0.00 888.00 404.00" xmlns="http://www.w3.org/2000/svg" xmlns:xlink="http://www.w3.org/1999/xlink">
<g id="graph0" class="graph" transform="scale(1 1) rotate(0) translate(4 400)">
<title>arbolAST</title>
<polygon fill="white" stroke="none" points="-4,4 -4,-400 884,-400 884,4 -4,4"/>
<!-- n0 -->
<g id="node1" class="node">
<title>n0</title>
<ellipse fill="#b2dfee" stroke="#b2dfee" cx="423" cy="-378" rx="27" ry="18"/>
<text text-anchor="middle" x="423" y="-375.5" font-family="Helvetica,sans-Serif" font-size="10.00">INICIO</text>
</g>
<!-- n1 -->
<g id="node2" class="node">
<title>n1</title>
<ellipse fill="#b2dfee" stroke="#b2dfee" cx="423" cy="-306" rx="55.85" ry="18"/>
<text text-anchor="middle" x="423" y="-303.5" font-family="Helvetica,sans-Serif" font-size="10.00">INSTRUCCIONES</text>
</g>
<!-- n0&#45;&gt;n1 -->
<g id="edge1" class="edge">
<title>n0&#45;&gt;n1</title>
<path fill="none" stroke="black" d="M423,-359.7C423,-352.41 423,-343.73 423,-335.54"/>
<polygon fill="black" stroke="black" points="426.5,-335.62 423,-325.62 419.5,-335.62 426.5,-335.62"/>
</g>
<!-- n2 -->
<g id="node3" class="node">
<title>n2</title>
<ellipse fill="#b2dfee" stroke="#b2dfee" cx="279" cy="-234" rx="85.89" ry="18"/>
<text text-anchor="middle" x="279" y="-231.5" font-family="Helvetica,sans-Serif" font-size="10.00">DECLARACION_VARIABLES</text>
</g>
<!-- n1&#45;&gt;n2 -->
<g id="edge2" class="edge">
<title>n1&#45;&gt;n2</title>
<path fill="none" stroke="black" d="M393.16,-290.5C372.66,-280.53 345.11,-267.14 322.22,-256.01"/>
<polygon fill="black" stroke="black" points="323.95,-252.96 313.43,-251.74 320.89,-259.26 323.95,-252.96"/>
</g>
<!-- n11 -->
<g id="node12" class="node">
<title>n11</title>
<ellipse fill="#b2dfee" stroke="#b2dfee" cx="647" cy="-234" rx="32.93" ry="18"/>
<text text-anchor="middle" x="647" y="-231.5" font-family="Helvetica,sans-Serif" font-size="10.00">PRINTLN</text>
</g>
<!-- n1&#45;&gt;n11 -->
<g id="edge11" class="edge">
<title>n1&#45;&gt;n11</title>
<path fill="none" stroke="black" d="M462.02,-292.81C502.92,-280.02 566.83,-260.05 607.8,-247.25"/>
<polygon fill="black" stroke="black" points="608.76,-250.62 617.26,-244.29 606.67,-243.93 608.76,-250.62"/>
</g>
<!-- n3 -->
<g id="node4" class="node">
<title>n3</title>
<ellipse fill="#b2dfee" stroke="#b2dfee" cx="27" cy="-162" rx="27" ry="18"/>
<text text-anchor="middle" x="27" y="-159.5" font-family="Helvetica,sans-Serif" font-size="10.00">var</text>
</g>
<!-- n2&#45;&gt;n3 -->
<g id="edge3" class="edge">
<title>n2&#45;&gt;n3</title>
<path fill="none" stroke="black" d="M217.05,-221.25C173.34,-212.13 113.76,-198.01 63,-180 61.45,-179.45 59.88,-178.86 58.31,-178.23"/>
<polygon fill="black" stroke="black" points="59.98,-175.14 49.41,-174.39 57.2,-181.57 59.98,-175.14"/>
</g>
<!-- n4 -->
<g id="node5" class="node">
<title>n4</title>
<ellipse fill="#b2dfee" stroke="#b2dfee" cx="99" cy="-162" rx="27" ry="18"/>
<text text-anchor="middle" x="99" y="-159.5" font-family="Helvetica,sans-Serif" font-size="10.00">num2</text>
</g>
<!-- n2&#45;&gt;n4 -->
<g id="edge4" class="edge">
<title>n2&#45;&gt;n4</title>
<path fill="none" stroke="black" d="M235.45,-218.1C206.68,-207.98 168.29,-193.95 135,-180 133.49,-179.37 131.94,-178.7 130.39,-178.02"/>
<polygon fill="black" stroke="black" points="132.11,-174.96 121.56,-174.01 129.21,-181.33 132.11,-174.96"/>
</g>
<!-- n5 -->
<g id="node6" class="node">
<title>n5</title>
<ellipse fill="#b2dfee" stroke="#b2dfee" cx="171" cy="-162" rx="27" ry="18"/>
<text text-anchor="middle" x="171" y="-159.5" font-family="Helvetica,sans-Serif" font-size="10.00">:</text>
</g>
<!-- n2&#45;&gt;n5 -->
<g id="edge5" class="edge">
<title>n2&#45;&gt;n5</title>
<path fill="none" stroke="black" d="M253.41,-216.41C237.14,-205.87 216.06,-192.21 199.29,-181.34"/>
<polygon fill="black" stroke="black" points="201.56,-178.63 191.26,-176.13 197.75,-184.51 201.56,-178.63"/>
</g>
<!-- n6 -->
<g id="node7" class="node">
<title>n6</title>
<ellipse fill="#b2dfee" stroke="#b2dfee" cx="243" cy="-162" rx="27" ry="18"/>
<text text-anchor="middle" x="243" y="-159.5" font-family="Helvetica,sans-Serif" font-size="10.00">INT</text>
</g>
<!-- n2&#45;&gt;n6 -->
<g id="edge6" class="edge">
<title>n2&#45;&gt;n6</title>
<path fill="none" stroke="black" d="M270.1,-215.7C266.02,-207.75 261.08,-198.16 256.55,-189.34"/>
<polygon fill="black" stroke="black" points="259.68,-187.78 252,-180.49 253.46,-190.98 259.68,-187.78"/>
</g>
<!-- n7 -->
<g id="node8" class="node">
<title>n7</title>
<ellipse fill="#b2dfee" stroke="#b2dfee" cx="315" cy="-162" rx="27" ry="18"/>
<text text-anchor="middle" x="315" y="-159.5" font-family="Helvetica,sans-Serif" font-size="10.00">=</text>
</g>
<!-- n2&#45;&gt;n7 -->
<g id="edge7" class="edge">
<title>n2&#45;&gt;n7</title>
<path fill="none" stroke="black" d="M287.9,-215.7C291.98,-207.75 296.92,-198.16 301.45,-189.34"/>
<polygon fill="black" stroke="black" points="304.54,-190.98 306,-180.49 298.32,-187.78 304.54,-190.98"/>
</g>
<!-- n8 -->
<g id="node9" class="node">
<title>n8</title>
<ellipse fill="#b2dfee" stroke="#b2dfee" cx="387" cy="-162" rx="27" ry="18"/>
<text text-anchor="middle" x="387" y="-159.5" font-family="Helvetica,sans-Serif" font-size="10.00">INT</text>
</g>
<!-- n2&#45;&gt;n8 -->
<g id="edge8" class="edge">
<title>n2&#45;&gt;n8</title>
<path fill="none" stroke="black" d="M304.59,-216.41C320.86,-205.87 341.94,-192.21 358.71,-181.34"/>
<polygon fill="black" stroke="black" points="360.25,-184.51 366.74,-176.13 356.44,-178.63 360.25,-184.51"/>
</g>
<!-- n10 -->
<g id="node11" class="node">
<title>n10</title>
<ellipse fill="#b2dfee" stroke="#b2dfee" cx="459" cy="-162" rx="27" ry="18"/>
<text text-anchor="middle" x="459" y="-159.5" font-family="Helvetica,sans-Serif" font-size="10.00">;</text>
</g>
<!-- n2&#45;&gt;n10 -->
<g id="edge10" class="edge">
<title>n2&#45;&gt;n10</title>
<path fill="none" stroke="black" d="M322.55,-218.1C351.32,-207.98 389.71,-193.95 423,-180 424.51,-179.37 426.06,-178.7 427.61,-178.02"/>
<polygon fill="black" stroke="black" points="428.79,-181.33 436.44,-174.01 425.89,-174.96 428.79,-181.33"/>
</g>
<!-- n9 -->
<g id="node10" class="node">
<title>n9</title>
<ellipse fill="#b2dfee" stroke="#b2dfee" cx="387" cy="-90" rx="27" ry="18"/>
<text text-anchor="middle" x="387" y="-87.5" font-family="Helvetica,sans-Serif" font-size="10.00">8</text>
</g>
<!-- n8&#45;&gt;n9 -->
<g id="edge9" class="edge">
<title>n8&#45;&gt;n9</title>
<path fill="none" stroke="black" d="M387,-143.7C387,-136.41 387,-127.73 387,-119.54"/>
<polygon fill="black" stroke="black" points="390.5,-119.62 387,-109.62 383.5,-119.62 390.5,-119.62"/>
</g>
<!-- n12 -->
<g id="node13" class="node">
<title>n12</title>
<ellipse fill="#b2dfee" stroke="#b2dfee" cx="531" cy="-162" rx="27" ry="18"/>
<text text-anchor="middle" x="531" y="-159.5" font-family="Helvetica,sans-Serif" font-size="10.00">Println</text>
</g>
<!-- n11&#45;&gt;n12 -->
<g id="edge12" class="edge">
<title>n11&#45;&gt;n12</title>
<path fill="none" stroke="black" d="M625.45,-220C607.07,-208.9 580.47,-192.85 560.18,-180.61"/>
<polygon fill="black" stroke="black" points="562.17,-177.72 551.8,-175.55 558.55,-183.71 562.17,-177.72"/>
</g>
<!-- n13 -->
<g id="node14" class="node">
<title>n13</title>
<ellipse fill="#b2dfee" stroke="#b2dfee" cx="603" cy="-162" rx="27" ry="18"/>
<text text-anchor="middle" x="603" y="-159.5" font-family="Helvetica,sans-Serif" font-size="10.00">(</text>
</g>
<!-- n11&#45;&gt;n13 -->
<g id="edge13" class="edge">
<title>n11&#45;&gt;n13</title>
<path fill="none" stroke="black" d="M636.79,-216.76C631.57,-208.46 625.1,-198.15 619.21,-188.79"/>
<polygon fill="black" stroke="black" points="622.24,-187.03 613.96,-180.43 616.31,-190.76 622.24,-187.03"/>
</g>
<!-- n14 -->
<g id="node15" class="node">
<title>n14</title>
<ellipse fill="#b2dfee" stroke="#b2dfee" cx="692" cy="-162" rx="43.62" ry="18"/>
<text text-anchor="middle" x="692" y="-159.5" font-family="Helvetica,sans-Serif" font-size="10.00">ARITMETICA</text>
</g>
<!-- n11&#45;&gt;n14 -->
<g id="edge14" class="edge">
<title>n11&#45;&gt;n14</title>
<path fill="none" stroke="black" d="M657.44,-216.76C662.7,-208.58 669.21,-198.45 675.16,-189.2"/>
<polygon fill="black" stroke="black" points="678.03,-191.21 680.49,-180.91 672.14,-187.43 678.03,-191.21"/>
</g>
<!-- n20 -->
<g id="node21" class="node">
<title>n20</title>
<ellipse fill="#b2dfee" stroke="#b2dfee" cx="781" cy="-162" rx="27" ry="18"/>
<text text-anchor="middle" x="781" y="-159.5" font-family="Helvetica,sans-Serif" font-size="10.00">)</text>
</g>
<!-- n11&#45;&gt;n20 -->
<g id="edge20" class="edge">
<title>n11&#45;&gt;n20</title>
<path fill="none" stroke="black" d="M670.34,-220.81C692.42,-209.27 725.7,-191.89 750,-179.2"/>
<polygon fill="black" stroke="black" points="751.54,-182.34 758.79,-174.6 748.3,-176.13 751.54,-182.34"/>
</g>
<!-- n21 -->
<g id="node22" class="node">
<title>n21</title>
<ellipse fill="#b2dfee" stroke="#b2dfee" cx="853" cy="-162" rx="27" ry="18"/>
<text text-anchor="middle" x="853" y="-159.5" font-family="Helvetica,sans-Serif" font-size="10.00">;</text>
</g>
<!-- n11&#45;&gt;n21 -->
<g id="edge21" class="edge">
<title>n11&#45;&gt;n21</title>
<path fill="none" stroke="black" d="M676.3,-225.2C710.52,-215.79 768.61,-198.86 817,-180 818.53,-179.4 820.08,-178.77 821.65,-178.12"/>
<polygon fill="black" stroke="black" points="822.79,-181.44 830.51,-174.18 819.95,-175.04 822.79,-181.44"/>
</g>
<!-- n15 -->
<g id="node16" class="node">
<title>n15</title>
<ellipse fill="#b2dfee" stroke="#b2dfee" cx="570" cy="-90" rx="77.23" ry="18"/>
<text text-anchor="middle" x="570" y="-87.5" font-family="Helvetica,sans-Serif" font-size="10.00">RECUPERAR_VARIABLE</text>
</g>
<!-- n14&#45;&gt;n15 -->
<g id="edge15" class="edge">
<title>n14&#45;&gt;n15</title>
<path fill="none" stroke="black" d="M667.31,-146.83C650.24,-137.04 627.19,-123.81 607.81,-112.7"/>
<polygon fill="black" stroke="black" points="609.79,-109.8 599.38,-107.86 606.31,-115.87 609.79,-109.8"/>
</g>
<!-- n17 -->
<g id="node18" class="node">
<title>n17</title>
<ellipse fill="#b2dfee" stroke="#b2dfee" cx="692" cy="-90" rx="27" ry="18"/>
<text text-anchor="middle" x="692" y="-87.5" font-family="Helvetica,sans-Serif" font-size="10.00">**</text>
</g>
<!-- n14&#45;&gt;n17 -->
<g id="edge17" class="edge">
<title>n14&#45;&gt;n17</title>
<path fill="none" stroke="black" d="M692,-143.7C692,-136.41 692,-127.73 692,-119.54"/>
<polygon fill="black" stroke="black" points="695.5,-119.62 692,-109.62 688.5,-119.62 695.5,-119.62"/>
</g>
<!-- n18 -->
<g id="node19" class="node">
<title>n18</title>
<ellipse fill="#b2dfee" stroke="#b2dfee" cx="764" cy="-90" rx="27" ry="18"/>
<text text-anchor="middle" x="764" y="-87.5" font-family="Helvetica,sans-Serif" font-size="10.00">INT</text>
</g>
<!-- n14&#45;&gt;n18 -->
<g id="edge18" class="edge">
<title>n14&#45;&gt;n18</title>
<path fill="none" stroke="black" d="M708.34,-145.12C718.03,-135.69 730.46,-123.61 741.12,-113.25"/>
<polygon fill="black" stroke="black" points="743.38,-115.93 748.11,-106.45 738.5,-110.91 743.38,-115.93"/>
</g>
<!-- n16 -->
<g id="node17" class="node">
<title>n16</title>
<ellipse fill="#b2dfee" stroke="#b2dfee" cx="570" cy="-18" rx="27" ry="18"/>
<text text-anchor="middle" x="570" y="-15.5" font-family="Helvetica,sans-Serif" font-size="10.00">num2</text>
</g>
<!-- n15&#45;&gt;n16 -->
<g id="edge16" class="edge">
<title>n15&#45;&gt;n16</title>
<path fill="none" stroke="black" d="M570,-71.7C570,-64.41 570,-55.73 570,-47.54"/>
<polygon fill="black" stroke="black" points="573.5,-47.62 570,-37.62 566.5,-47.62 573.5,-47.62"/>
</g>
<!-- n19 -->
<g id="node20" class="node">
<title>n19</title>
<ellipse fill="#b2dfee" stroke="#b2dfee" cx="764" cy="-18" rx="27" ry="18"/>
<text text-anchor="middle" x="764" y="-15.5" font-family="Helvetica,sans-Serif" font-size="10.00">4</text>
</g>
<!-- n18&#45;&gt;n19 -->
<g id="edge19" class="edge">
<title>n18&#45;&gt;n19</title>
<path fill="none" stroke="black" d="M764,-71.7C764,-64.41 764,-55.73 764,-47.54"/>
<polygon fill="black" stroke="black" points="767.5,-47.62 764,-37.62 760.5,-47.62 767.5,-47.62"/>
</g>
</g>
</svg>
