<?xml version="1.0" encoding="UTF-8" standalone="no"?>
<!DOCTYPE svg PUBLIC "-//W3C//DTD SVG 1.1//EN"
 "http://www.w3.org/Graphics/SVG/1.1/DTD/svg11.dtd">
<!-- Generated by graphviz version 7.1.0 (20230121.1956)
 -->
<!-- Title: arbolAST Pages: 1 -->
<svg width="2101pt" height="332pt"
 viewBox="0.00 0.00 2100.67 332.00" xmlns="http://www.w3.org/2000/svg" xmlns:xlink="http://www.w3.org/1999/xlink">
<g id="graph0" class="graph" transform="scale(1 1) rotate(0) translate(4 328)">
<title>arbolAST</title>
<polygon fill="white" stroke="none" points="-4,4 -4,-328 2096.67,-328 2096.67,4 -4,4"/>
<!-- n0 -->
<g id="node1" class="node">
<title>n0</title>
<ellipse fill="#b2dfee" stroke="#b2dfee" cx="988.67" cy="-306" rx="27" ry="18"/>
<text text-anchor="middle" x="988.67" y="-303.5" font-family="Helvetica,sans-Serif" font-size="10.00">INICIO</text>
</g>
<!-- n1 -->
<g id="node2" class="node">
<title>n1</title>
<ellipse fill="#b2dfee" stroke="#b2dfee" cx="988.67" cy="-234" rx="55.85" ry="18"/>
<text text-anchor="middle" x="988.67" y="-231.5" font-family="Helvetica,sans-Serif" font-size="10.00">INSTRUCCIONES</text>
</g>
<!-- n0&#45;&gt;n1 -->
<g id="edge1" class="edge">
<title>n0&#45;&gt;n1</title>
<path fill="none" stroke="black" d="M988.67,-287.7C988.67,-280.41 988.67,-271.73 988.67,-263.54"/>
<polygon fill="black" stroke="black" points="992.17,-263.62 988.67,-253.62 985.17,-263.62 992.17,-263.62"/>
</g>
<!-- n2 -->
<g id="node3" class="node">
<title>n2</title>
<ellipse fill="#b2dfee" stroke="#b2dfee" cx="283.67" cy="-162" rx="31.58" ry="18"/>
<text text-anchor="middle" x="283.67" y="-159.5" font-family="Helvetica,sans-Serif" font-size="10.00">STRUCT</text>
</g>
<!-- n1&#45;&gt;n2 -->
<g id="edge2" class="edge">
<title>n1&#45;&gt;n2</title>
<path fill="none" stroke="black" d="M935.68,-227.74C801.18,-214.38 448.57,-179.37 326.22,-167.22"/>
<polygon fill="black" stroke="black" points="326.58,-163.74 316.28,-166.24 325.89,-170.71 326.58,-163.74"/>
</g>
<!-- n8 -->
<g id="node9" class="node">
<title>n8</title>
<ellipse fill="#b2dfee" stroke="#b2dfee" cx="767.67" cy="-162" rx="44.3" ry="18"/>
<text text-anchor="middle" x="767.67" y="-159.5" font-family="Helvetica,sans-Serif" font-size="10.00">INSTSTRUCT</text>
</g>
<!-- n1&#45;&gt;n8 -->
<g id="edge8" class="edge">
<title>n1&#45;&gt;n8</title>
<path fill="none" stroke="black" d="M949.92,-220.73C911.67,-208.61 853.22,-190.1 812.88,-177.32"/>
<polygon fill="black" stroke="black" points="814.04,-174.02 803.45,-174.33 811.93,-180.69 814.04,-174.02"/>
</g>
<!-- n15 -->
<g id="node16" class="node">
<title>n15</title>
<ellipse fill="#b2dfee" stroke="#b2dfee" cx="1245.67" cy="-162" rx="85.89" ry="18"/>
<text text-anchor="middle" x="1245.67" y="-159.5" font-family="Helvetica,sans-Serif" font-size="10.00">DECLARACION_VARIABLES</text>
</g>
<!-- n1&#45;&gt;n15 -->
<g id="edge15" class="edge">
<title>n1&#45;&gt;n15</title>
<path fill="none" stroke="black" d="M1030.24,-221.68C1071.8,-210.36 1136.2,-192.82 1183.77,-179.86"/>
<polygon fill="black" stroke="black" points="1184.68,-183.24 1193.41,-177.23 1182.84,-176.49 1184.68,-183.24"/>
</g>
<!-- n23 -->
<g id="node24" class="node">
<title>n23</title>
<ellipse fill="#b2dfee" stroke="#b2dfee" cx="1810.67" cy="-162" rx="32.93" ry="18"/>
<text text-anchor="middle" x="1810.67" y="-159.5" font-family="Helvetica,sans-Serif" font-size="10.00">PRINTLN</text>
</g>
<!-- n1&#45;&gt;n23 -->
<g id="edge23" class="edge">
<title>n1&#45;&gt;n23</title>
<path fill="none" stroke="black" d="M1042.28,-228.43C1194.52,-215.47 1627.36,-178.61 1766.8,-166.74"/>
<polygon fill="black" stroke="black" points="1767.06,-170.23 1776.73,-165.89 1766.46,-163.25 1767.06,-170.23"/>
</g>
<!-- n3 -->
<g id="node4" class="node">
<title>n3</title>
<ellipse fill="#b2dfee" stroke="#b2dfee" cx="27.67" cy="-90" rx="27.84" ry="18"/>
<text text-anchor="middle" x="27.67" y="-87.5" font-family="Helvetica,sans-Serif" font-size="10.00">struct {</text>
</g>
<!-- n2&#45;&gt;n3 -->
<g id="edge3" class="edge">
<title>n2&#45;&gt;n3</title>
<path fill="none" stroke="black" d="M253.57,-155.78C210.67,-147.88 129.81,-131.31 63.67,-108 62.31,-107.52 60.94,-107.01 59.56,-106.47"/>
<polygon fill="black" stroke="black" points="61.03,-103.29 50.46,-102.58 58.28,-109.73 61.03,-103.29"/>
</g>
<!-- n4 -->
<g id="node5" class="node">
<title>n4</title>
<ellipse fill="#b2dfee" stroke="#b2dfee" cx="130.67" cy="-90" rx="57.88" ry="18"/>
<text text-anchor="middle" x="130.67" y="-87.5" font-family="Helvetica,sans-Serif" font-size="10.00">nombre : CADENA</text>
</g>
<!-- n2&#45;&gt;n4 -->
<g id="edge4" class="edge">
<title>n2&#45;&gt;n4</title>
<path fill="none" stroke="black" d="M259.42,-149.91C236.11,-139.24 200.4,-122.9 172.49,-110.14"/>
<polygon fill="black" stroke="black" points="174.15,-107.05 163.6,-106.07 171.24,-113.41 174.15,-107.05"/>
</g>
<!-- n5 -->
<g id="node6" class="node">
<title>n5</title>
<ellipse fill="#b2dfee" stroke="#b2dfee" cx="242.67" cy="-90" rx="35.82" ry="18"/>
<text text-anchor="middle" x="242.67" y="-87.5" font-family="Helvetica,sans-Serif" font-size="10.00">edad : INT</text>
</g>
<!-- n2&#45;&gt;n5 -->
<g id="edge5" class="edge">
<title>n2&#45;&gt;n5</title>
<path fill="none" stroke="black" d="M273.95,-144.41C269.2,-136.3 263.37,-126.35 258.04,-117.25"/>
<polygon fill="black" stroke="black" points="261.15,-115.64 253.08,-108.78 255.11,-119.17 261.15,-115.64"/>
</g>
<!-- n6 -->
<g id="node7" class="node">
<title>n6</title>
<ellipse fill="#b2dfee" stroke="#b2dfee" cx="323.67" cy="-90" rx="27" ry="18"/>
<text text-anchor="middle" x="323.67" y="-87.5" font-family="Helvetica,sans-Serif" font-size="10.00">}</text>
</g>
<!-- n2&#45;&gt;n6 -->
<g id="edge6" class="edge">
<title>n2&#45;&gt;n6</title>
<path fill="none" stroke="black" d="M293.15,-144.41C297.85,-136.19 303.63,-126.06 308.89,-116.85"/>
<polygon fill="black" stroke="black" points="311.86,-118.72 313.78,-108.3 305.78,-115.25 311.86,-118.72"/>
</g>
<!-- n7 -->
<g id="node8" class="node">
<title>n7</title>
<ellipse fill="#b2dfee" stroke="#b2dfee" cx="404.67" cy="-90" rx="36.49" ry="18"/>
<text text-anchor="middle" x="404.67" y="-87.5" font-family="Helvetica,sans-Serif" font-size="10.00">estudiante</text>
</g>
<!-- n2&#45;&gt;n7 -->
<g id="edge7" class="edge">
<title>n2&#45;&gt;n7</title>
<path fill="none" stroke="black" d="M305.3,-148.49C323.76,-137.81 350.59,-122.28 371.72,-110.06"/>
<polygon fill="black" stroke="black" points="373.36,-113.15 380.26,-105.12 369.86,-107.1 373.36,-113.15"/>
</g>
<!-- n9 -->
<g id="node10" class="node">
<title>n9</title>
<ellipse fill="#b2dfee" stroke="#b2dfee" cx="485.67" cy="-90" rx="27" ry="18"/>
<text text-anchor="middle" x="485.67" y="-87.5" font-family="Helvetica,sans-Serif" font-size="10.00">var</text>
</g>
<!-- n8&#45;&gt;n9 -->
<g id="edge9" class="edge">
<title>n8&#45;&gt;n9</title>
<path fill="none" stroke="black" d="M726.41,-155.08C676.91,-147.29 591.8,-131.76 521.67,-108 520.11,-107.47 518.54,-106.9 516.96,-106.29"/>
<polygon fill="black" stroke="black" points="518.62,-103.19 508.05,-102.49 515.87,-109.63 518.62,-103.19"/>
</g>
<!-- n10 -->
<g id="node11" class="node">
<title>n10</title>
<ellipse fill="#b2dfee" stroke="#b2dfee" cx="578.67" cy="-90" rx="47.86" ry="18"/>
<text text-anchor="middle" x="578.67" y="-87.5" font-family="Helvetica,sans-Serif" font-size="10.00">e1 : estudiante</text>
</g>
<!-- n8&#45;&gt;n10 -->
<g id="edge10" class="edge">
<title>n8&#45;&gt;n10</title>
<path fill="none" stroke="black" d="M735.61,-149.13C704.53,-137.62 657.15,-120.07 622.58,-107.26"/>
<polygon fill="black" stroke="black" points="623.85,-104 613.26,-103.81 621.42,-110.57 623.85,-104"/>
</g>
<!-- n11 -->
<g id="node12" class="node">
<title>n11</title>
<ellipse fill="#b2dfee" stroke="#b2dfee" cx="671.67" cy="-90" rx="27" ry="18"/>
<text text-anchor="middle" x="671.67" y="-87.5" font-family="Helvetica,sans-Serif" font-size="10.00">= {</text>
</g>
<!-- n8&#45;&gt;n11 -->
<g id="edge11" class="edge">
<title>n8&#45;&gt;n11</title>
<path fill="none" stroke="black" d="M746.84,-145.81C732.68,-135.49 713.82,-121.74 698.54,-110.59"/>
<polygon fill="black" stroke="black" points="700.92,-108 690.78,-104.93 696.79,-113.65 700.92,-108"/>
</g>
<!-- n12 -->
<g id="node13" class="node">
<title>n12</title>
<ellipse fill="#b2dfee" stroke="#b2dfee" cx="767.67" cy="-90" rx="51.43" ry="18"/>
<text text-anchor="middle" x="767.67" y="-87.5" font-family="Helvetica,sans-Serif" font-size="10.00">nombre : prueba</text>
</g>
<!-- n8&#45;&gt;n12 -->
<g id="edge12" class="edge">
<title>n8&#45;&gt;n12</title>
<path fill="none" stroke="black" d="M767.67,-143.7C767.67,-136.41 767.67,-127.73 767.67,-119.54"/>
<polygon fill="black" stroke="black" points="771.17,-119.62 767.67,-109.62 764.17,-119.62 771.17,-119.62"/>
</g>
<!-- n13 -->
<g id="node14" class="node">
<title>n13</title>
<ellipse fill="#b2dfee" stroke="#b2dfee" cx="870.67" cy="-90" rx="33.61" ry="18"/>
<text text-anchor="middle" x="870.67" y="-87.5" font-family="Helvetica,sans-Serif" font-size="10.00">edad : 10</text>
</g>
<!-- n8&#45;&gt;n13 -->
<g id="edge13" class="edge">
<title>n8&#45;&gt;n13</title>
<path fill="none" stroke="black" d="M789.76,-145.98C804.78,-135.77 824.83,-122.15 841.2,-111.02"/>
<polygon fill="black" stroke="black" points="842.8,-114.17 849.1,-105.65 838.87,-108.38 842.8,-114.17"/>
</g>
<!-- n14 -->
<g id="node15" class="node">
<title>n14</title>
<ellipse fill="#b2dfee" stroke="#b2dfee" cx="949.67" cy="-90" rx="27" ry="18"/>
<text text-anchor="middle" x="949.67" y="-87.5" font-family="Helvetica,sans-Serif" font-size="10.00">}</text>
</g>
<!-- n8&#45;&gt;n14 -->
<g id="edge14" class="edge">
<title>n8&#45;&gt;n14</title>
<path fill="none" stroke="black" d="M801.06,-149.87C830.87,-139.7 875.58,-123.86 913.67,-108 915.18,-107.37 916.73,-106.71 918.28,-106.03"/>
<polygon fill="black" stroke="black" points="919.45,-109.34 927.12,-102.02 916.56,-102.97 919.45,-109.34"/>
</g>
<!-- n16 -->
<g id="node17" class="node">
<title>n16</title>
<ellipse fill="#b2dfee" stroke="#b2dfee" cx="1021.67" cy="-90" rx="27" ry="18"/>
<text text-anchor="middle" x="1021.67" y="-87.5" font-family="Helvetica,sans-Serif" font-size="10.00">const</text>
</g>
<!-- n15&#45;&gt;n16 -->
<g id="edge16" class="edge">
<title>n15&#45;&gt;n16</title>
<path fill="none" stroke="black" d="M1190.19,-147.95C1152.33,-138.41 1101.34,-124.34 1057.67,-108 1056.13,-107.42 1054.57,-106.81 1053,-106.17"/>
<polygon fill="black" stroke="black" points="1054.69,-103.09 1044.12,-102.27 1051.87,-109.5 1054.69,-103.09"/>
</g>
<!-- n17 -->
<g id="node18" class="node">
<title>n17</title>
<ellipse fill="#b2dfee" stroke="#b2dfee" cx="1115.67" cy="-90" rx="48.72" ry="18"/>
<text text-anchor="middle" x="1115.67" y="-87.5" font-family="Helvetica,sans-Serif" font-size="10.00">edadestudiante</text>
</g>
<!-- n15&#45;&gt;n17 -->
<g id="edge17" class="edge">
<title>n15&#45;&gt;n17</title>
<path fill="none" stroke="black" d="M1215.52,-144.76C1196.74,-134.65 1172.45,-121.57 1152.53,-110.85"/>
<polygon fill="black" stroke="black" points="1154.36,-107.86 1143.9,-106.2 1151.04,-114.02 1154.36,-107.86"/>
</g>
<!-- n18 -->
<g id="node19" class="node">
<title>n18</title>
<ellipse fill="#b2dfee" stroke="#b2dfee" cx="1209.67" cy="-90" rx="27" ry="18"/>
<text text-anchor="middle" x="1209.67" y="-87.5" font-family="Helvetica,sans-Serif" font-size="10.00">:</text>
</g>
<!-- n15&#45;&gt;n18 -->
<g id="edge18" class="edge">
<title>n15&#45;&gt;n18</title>
<path fill="none" stroke="black" d="M1236.77,-143.7C1232.68,-135.75 1227.75,-126.16 1223.22,-117.34"/>
<polygon fill="black" stroke="black" points="1226.35,-115.78 1218.66,-108.49 1220.12,-118.98 1226.35,-115.78"/>
</g>
<!-- n19 -->
<g id="node20" class="node">
<title>n19</title>
<ellipse fill="#b2dfee" stroke="#b2dfee" cx="1281.67" cy="-90" rx="27" ry="18"/>
<text text-anchor="middle" x="1281.67" y="-87.5" font-family="Helvetica,sans-Serif" font-size="10.00">INT</text>
</g>
<!-- n15&#45;&gt;n19 -->
<g id="edge19" class="edge">
<title>n15&#45;&gt;n19</title>
<path fill="none" stroke="black" d="M1254.57,-143.7C1258.65,-135.75 1263.59,-126.16 1268.12,-117.34"/>
<polygon fill="black" stroke="black" points="1271.21,-118.98 1272.67,-108.49 1264.99,-115.78 1271.21,-118.98"/>
</g>
<!-- n20 -->
<g id="node21" class="node">
<title>n20</title>
<ellipse fill="#b2dfee" stroke="#b2dfee" cx="1353.67" cy="-90" rx="27" ry="18"/>
<text text-anchor="middle" x="1353.67" y="-87.5" font-family="Helvetica,sans-Serif" font-size="10.00">=</text>
</g>
<!-- n15&#45;&gt;n20 -->
<g id="edge20" class="edge">
<title>n15&#45;&gt;n20</title>
<path fill="none" stroke="black" d="M1271.26,-144.41C1287.53,-133.87 1308.61,-120.21 1325.37,-109.34"/>
<polygon fill="black" stroke="black" points="1326.92,-112.51 1333.41,-104.13 1323.11,-106.63 1326.92,-112.51"/>
</g>
<!-- n21 -->
<g id="node22" class="node">
<title>n21</title>
<ellipse fill="#b2dfee" stroke="#b2dfee" cx="1479.67" cy="-90" rx="80.79" ry="18"/>
<text text-anchor="middle" x="1479.67" y="-87.5" font-family="Helvetica,sans-Serif" font-size="10.00">ACCESO CAMPO STRUCT</text>
</g>
<!-- n15&#45;&gt;n21 -->
<g id="edge21" class="edge">
<title>n15&#45;&gt;n21</title>
<path fill="none" stroke="black" d="M1293.59,-146.67C1330.74,-135.55 1382.38,-120.1 1421.83,-108.3"/>
<polygon fill="black" stroke="black" points="1422.59,-111.73 1431.16,-105.51 1420.58,-105.02 1422.59,-111.73"/>
</g>
<!-- n22 -->
<g id="node23" class="node">
<title>n22</title>
<ellipse fill="#b2dfee" stroke="#b2dfee" cx="1605.67" cy="-90" rx="27" ry="18"/>
<text text-anchor="middle" x="1605.67" y="-87.5" font-family="Helvetica,sans-Serif" font-size="10.00">;</text>
</g>
<!-- n15&#45;&gt;n22 -->
<g id="edge22" class="edge">
<title>n15&#45;&gt;n22</title>
<path fill="none" stroke="black" d="M1323.99,-154.37C1390.5,-147.28 1487.9,-133.44 1569.67,-108 1571.28,-107.5 1572.9,-106.94 1574.53,-106.34"/>
<polygon fill="black" stroke="black" points="1575.85,-109.58 1583.73,-102.49 1573.15,-103.12 1575.85,-109.58"/>
</g>
<!-- n24 -->
<g id="node25" class="node">
<title>n24</title>
<ellipse fill="#b2dfee" stroke="#b2dfee" cx="1677.67" cy="-90" rx="27" ry="18"/>
<text text-anchor="middle" x="1677.67" y="-87.5" font-family="Helvetica,sans-Serif" font-size="10.00">Println</text>
</g>
<!-- n23&#45;&gt;n24 -->
<g id="edge24" class="edge">
<title>n23&#45;&gt;n24</title>
<path fill="none" stroke="black" d="M1787.5,-148.81C1765.59,-137.27 1732.56,-119.89 1708.44,-107.2"/>
<polygon fill="black" stroke="black" points="1710.2,-104.17 1699.72,-102.61 1706.94,-110.36 1710.2,-104.17"/>
</g>
<!-- n25 -->
<g id="node26" class="node">
<title>n25</title>
<ellipse fill="#b2dfee" stroke="#b2dfee" cx="1749.67" cy="-90" rx="27" ry="18"/>
<text text-anchor="middle" x="1749.67" y="-87.5" font-family="Helvetica,sans-Serif" font-size="10.00">(</text>
</g>
<!-- n23&#45;&gt;n25 -->
<g id="edge25" class="edge">
<title>n23&#45;&gt;n25</title>
<path fill="none" stroke="black" d="M1797.13,-145.46C1789.2,-136.37 1779.03,-124.7 1770.14,-114.5"/>
<polygon fill="black" stroke="black" points="1772.95,-112.39 1763.74,-107.15 1767.67,-116.99 1772.95,-112.39"/>
</g>
<!-- n26 -->
<g id="node27" class="node">
<title>n26</title>
<ellipse fill="#b2dfee" stroke="#b2dfee" cx="1871.67" cy="-90" rx="77.23" ry="18"/>
<text text-anchor="middle" x="1871.67" y="-87.5" font-family="Helvetica,sans-Serif" font-size="10.00">RECUPERAR_VARIABLE</text>
</g>
<!-- n23&#45;&gt;n26 -->
<g id="edge26" class="edge">
<title>n23&#45;&gt;n26</title>
<path fill="none" stroke="black" d="M1824.21,-145.46C1831.62,-136.95 1841,-126.19 1849.46,-116.48"/>
<polygon fill="black" stroke="black" points="1851.96,-118.94 1855.89,-109.1 1846.68,-114.34 1851.96,-118.94"/>
</g>
<!-- n28 -->
<g id="node29" class="node">
<title>n28</title>
<ellipse fill="#b2dfee" stroke="#b2dfee" cx="1993.67" cy="-90" rx="27" ry="18"/>
<text text-anchor="middle" x="1993.67" y="-87.5" font-family="Helvetica,sans-Serif" font-size="10.00">)</text>
</g>
<!-- n23&#45;&gt;n28 -->
<g id="edge28" class="edge">
<title>n23&#45;&gt;n28</title>
<path fill="none" stroke="black" d="M1838.33,-151.9C1868.1,-141.91 1916.7,-125.01 1957.67,-108 1959.18,-107.37 1960.73,-106.71 1962.28,-106.03"/>
<polygon fill="black" stroke="black" points="1963.45,-109.35 1971.12,-102.03 1960.57,-102.97 1963.45,-109.35"/>
</g>
<!-- n29 -->
<g id="node30" class="node">
<title>n29</title>
<ellipse fill="#b2dfee" stroke="#b2dfee" cx="2065.67" cy="-90" rx="27" ry="18"/>
<text text-anchor="middle" x="2065.67" y="-87.5" font-family="Helvetica,sans-Serif" font-size="10.00">;</text>
</g>
<!-- n23&#45;&gt;n29 -->
<g id="edge29" class="edge">
<title>n23&#45;&gt;n29</title>
<path fill="none" stroke="black" d="M1841.71,-155.56C1884.68,-147.56 1964.38,-131.05 2029.67,-108 2031.22,-107.45 2032.79,-106.86 2034.36,-106.24"/>
<polygon fill="black" stroke="black" points="2035.46,-109.58 2043.26,-102.4 2032.69,-103.15 2035.46,-109.58"/>
</g>
<!-- n27 -->
<g id="node28" class="node">
<title>n27</title>
<ellipse fill="#b2dfee" stroke="#b2dfee" cx="1871.67" cy="-18" rx="48.72" ry="18"/>
<text text-anchor="middle" x="1871.67" y="-15.5" font-family="Helvetica,sans-Serif" font-size="10.00">edadestudiante</text>
</g>
<!-- n26&#45;&gt;n27 -->
<g id="edge27" class="edge">
<title>n26&#45;&gt;n27</title>
<path fill="none" stroke="black" d="M1871.67,-71.7C1871.67,-64.41 1871.67,-55.73 1871.67,-47.54"/>
<polygon fill="black" stroke="black" points="1875.17,-47.62 1871.67,-37.62 1868.17,-47.62 1875.17,-47.62"/>
</g>
</g>
</svg>
