<?xml version="1.0" encoding="UTF-8" standalone="no"?>
<!DOCTYPE svg PUBLIC "-//W3C//DTD SVG 1.1//EN"
 "http://www.w3.org/Graphics/SVG/1.1/DTD/svg11.dtd">
<!-- Generated by graphviz version 7.1.0 (20230121.1956)
 -->
<!-- Title: arbolAST Pages: 1 -->
<svg width="723pt" height="548pt"
 viewBox="0.00 0.00 723.00 548.00" xmlns="http://www.w3.org/2000/svg" xmlns:xlink="http://www.w3.org/1999/xlink">
<g id="graph0" class="graph" transform="scale(1 1) rotate(0) translate(4 544)">
<title>arbolAST</title>
<polygon fill="white" stroke="none" points="-4,4 -4,-544 719,-544 719,4 -4,4"/>
<!-- n0 -->
<g id="node1" class="node">
<title>n0</title>
<ellipse fill="#b2dfee" stroke="#b2dfee" cx="334" cy="-522" rx="27" ry="18"/>
<text text-anchor="middle" x="334" y="-519.5" font-family="Helvetica,sans-Serif" font-size="10.00">INICIO</text>
</g>
<!-- n1 -->
<g id="node2" class="node">
<title>n1</title>
<ellipse fill="#b2dfee" stroke="#b2dfee" cx="334" cy="-450" rx="55.85" ry="18"/>
<text text-anchor="middle" x="334" y="-447.5" font-family="Helvetica,sans-Serif" font-size="10.00">INSTRUCCIONES</text>
</g>
<!-- n0&#45;&gt;n1 -->
<g id="edge1" class="edge">
<title>n0&#45;&gt;n1</title>
<path fill="none" stroke="black" d="M334,-503.7C334,-496.41 334,-487.73 334,-479.54"/>
<polygon fill="black" stroke="black" points="337.5,-479.62 334,-469.62 330.5,-479.62 337.5,-479.62"/>
</g>
<!-- n2 -->
<g id="node3" class="node">
<title>n2</title>
<ellipse fill="#b2dfee" stroke="#b2dfee" cx="334" cy="-378" rx="32.93" ry="18"/>
<text text-anchor="middle" x="334" y="-375.5" font-family="Helvetica,sans-Serif" font-size="10.00">PRINTLN</text>
</g>
<!-- n1&#45;&gt;n2 -->
<g id="edge2" class="edge">
<title>n1&#45;&gt;n2</title>
<path fill="none" stroke="black" d="M334,-431.7C334,-424.41 334,-415.73 334,-407.54"/>
<polygon fill="black" stroke="black" points="337.5,-407.62 334,-397.62 330.5,-407.62 337.5,-407.62"/>
</g>
<!-- n3 -->
<g id="node4" class="node">
<title>n3</title>
<ellipse fill="#b2dfee" stroke="#b2dfee" cx="173" cy="-306" rx="27" ry="18"/>
<text text-anchor="middle" x="173" y="-303.5" font-family="Helvetica,sans-Serif" font-size="10.00">Println</text>
</g>
<!-- n2&#45;&gt;n3 -->
<g id="edge3" class="edge">
<title>n2&#45;&gt;n3</title>
<path fill="none" stroke="black" d="M308.49,-366.54C283.14,-356.05 243.2,-339.32 209,-324 207.69,-323.41 206.35,-322.81 205,-322.19"/>
<polygon fill="black" stroke="black" points="206.55,-319.06 196.01,-318.03 203.61,-325.41 206.55,-319.06"/>
</g>
<!-- n4 -->
<g id="node5" class="node">
<title>n4</title>
<ellipse fill="#b2dfee" stroke="#b2dfee" cx="245" cy="-306" rx="27" ry="18"/>
<text text-anchor="middle" x="245" y="-303.5" font-family="Helvetica,sans-Serif" font-size="10.00">(</text>
</g>
<!-- n2&#45;&gt;n4 -->
<g id="edge4" class="edge">
<title>n2&#45;&gt;n4</title>
<path fill="none" stroke="black" d="M315.99,-362.83C303.07,-352.68 285.48,-338.83 271.03,-327.47"/>
<polygon fill="black" stroke="black" points="273.29,-324.8 263.27,-321.37 268.96,-330.3 273.29,-324.8"/>
</g>
<!-- n5 -->
<g id="node6" class="node">
<title>n5</title>
<ellipse fill="#b2dfee" stroke="#b2dfee" cx="334" cy="-306" rx="43.62" ry="18"/>
<text text-anchor="middle" x="334" y="-303.5" font-family="Helvetica,sans-Serif" font-size="10.00">ARITMETICA</text>
</g>
<!-- n2&#45;&gt;n5 -->
<g id="edge5" class="edge">
<title>n2&#45;&gt;n5</title>
<path fill="none" stroke="black" d="M334,-359.7C334,-352.41 334,-343.73 334,-335.54"/>
<polygon fill="black" stroke="black" points="337.5,-335.62 334,-325.62 330.5,-335.62 337.5,-335.62"/>
</g>
<!-- n31 -->
<g id="node32" class="node">
<title>n31</title>
<ellipse fill="#b2dfee" stroke="#b2dfee" cx="423" cy="-306" rx="27" ry="18"/>
<text text-anchor="middle" x="423" y="-303.5" font-family="Helvetica,sans-Serif" font-size="10.00">)</text>
</g>
<!-- n2&#45;&gt;n31 -->
<g id="edge31" class="edge">
<title>n2&#45;&gt;n31</title>
<path fill="none" stroke="black" d="M352.01,-362.83C364.93,-352.68 382.52,-338.83 396.97,-327.47"/>
<polygon fill="black" stroke="black" points="399.04,-330.3 404.73,-321.37 394.71,-324.8 399.04,-330.3"/>
</g>
<!-- n32 -->
<g id="node33" class="node">
<title>n32</title>
<ellipse fill="#b2dfee" stroke="#b2dfee" cx="495" cy="-306" rx="27" ry="18"/>
<text text-anchor="middle" x="495" y="-303.5" font-family="Helvetica,sans-Serif" font-size="10.00">;</text>
</g>
<!-- n2&#45;&gt;n32 -->
<g id="edge32" class="edge">
<title>n2&#45;&gt;n32</title>
<path fill="none" stroke="black" d="M359.51,-366.54C384.86,-356.05 424.8,-339.32 459,-324 460.31,-323.41 461.65,-322.81 463,-322.19"/>
<polygon fill="black" stroke="black" points="464.39,-325.41 471.99,-318.03 461.45,-319.06 464.39,-325.41"/>
</g>
<!-- n6 -->
<g id="node7" class="node">
<title>n6</title>
<ellipse fill="#b2dfee" stroke="#b2dfee" cx="220" cy="-234" rx="43.62" ry="18"/>
<text text-anchor="middle" x="220" y="-231.5" font-family="Helvetica,sans-Serif" font-size="10.00">ARITMETICA</text>
</g>
<!-- n5&#45;&gt;n6 -->
<g id="edge6" class="edge">
<title>n5&#45;&gt;n6</title>
<path fill="none" stroke="black" d="M310.38,-290.5C293.87,-280.36 271.6,-266.68 253.29,-255.44"/>
<polygon fill="black" stroke="black" points="255.23,-252.53 244.88,-250.28 251.57,-258.49 255.23,-252.53"/>
</g>
<!-- n16 -->
<g id="node17" class="node">
<title>n16</title>
<ellipse fill="#b2dfee" stroke="#b2dfee" cx="334" cy="-234" rx="27" ry="18"/>
<text text-anchor="middle" x="334" y="-231.5" font-family="Helvetica,sans-Serif" font-size="10.00">+</text>
</g>
<!-- n5&#45;&gt;n16 -->
<g id="edge16" class="edge">
<title>n5&#45;&gt;n16</title>
<path fill="none" stroke="black" d="M334,-287.7C334,-280.41 334,-271.73 334,-263.54"/>
<polygon fill="black" stroke="black" points="337.5,-263.62 334,-253.62 330.5,-263.62 337.5,-263.62"/>
</g>
<!-- n17 -->
<g id="node18" class="node">
<title>n17</title>
<ellipse fill="#b2dfee" stroke="#b2dfee" cx="436" cy="-234" rx="43.62" ry="18"/>
<text text-anchor="middle" x="436" y="-231.5" font-family="Helvetica,sans-Serif" font-size="10.00">ARITMETICA</text>
</g>
<!-- n5&#45;&gt;n17 -->
<g id="edge17" class="edge">
<title>n5&#45;&gt;n17</title>
<path fill="none" stroke="black" d="M355.88,-289.98C370.13,-280.2 388.95,-267.29 404.76,-256.44"/>
<polygon fill="black" stroke="black" points="406.64,-259.39 412.91,-250.85 402.68,-253.62 406.64,-259.39"/>
</g>
<!-- n7 -->
<g id="node8" class="node">
<title>n7</title>
<ellipse fill="#b2dfee" stroke="#b2dfee" cx="86" cy="-162" rx="40.06" ry="18"/>
<text text-anchor="middle" x="86" y="-159.5" font-family="Helvetica,sans-Serif" font-size="10.00">NEGACION</text>
</g>
<!-- n6&#45;&gt;n7 -->
<g id="edge7" class="edge">
<title>n6&#45;&gt;n7</title>
<path fill="none" stroke="black" d="M193.85,-219.34C173.11,-208.5 143.92,-193.26 121.14,-181.36"/>
<polygon fill="black" stroke="black" points="123.01,-178.38 112.52,-176.86 119.77,-184.59 123.01,-178.38"/>
</g>
<!-- n11 -->
<g id="node12" class="node">
<title>n11</title>
<ellipse fill="#b2dfee" stroke="#b2dfee" cx="171" cy="-162" rx="27" ry="18"/>
<text text-anchor="middle" x="171" y="-159.5" font-family="Helvetica,sans-Serif" font-size="10.00">&#45;</text>
</g>
<!-- n6&#45;&gt;n11 -->
<g id="edge11" class="edge">
<title>n6&#45;&gt;n11</title>
<path fill="none" stroke="black" d="M208.39,-216.41C202.42,-207.89 195.03,-197.33 188.4,-187.86"/>
<polygon fill="black" stroke="black" points="191.33,-185.94 182.73,-179.75 185.59,-189.95 191.33,-185.94"/>
</g>
<!-- n12 -->
<g id="node13" class="node">
<title>n12</title>
<ellipse fill="#b2dfee" stroke="#b2dfee" cx="256" cy="-162" rx="40.06" ry="18"/>
<text text-anchor="middle" x="256" y="-159.5" font-family="Helvetica,sans-Serif" font-size="10.00">NEGACION</text>
</g>
<!-- n6&#45;&gt;n12 -->
<g id="edge12" class="edge">
<title>n6&#45;&gt;n12</title>
<path fill="none" stroke="black" d="M228.71,-216.05C232.74,-208.23 237.62,-198.75 242.13,-189.98"/>
<polygon fill="black" stroke="black" points="245.21,-191.63 246.67,-181.13 238.99,-188.43 245.21,-191.63"/>
</g>
<!-- n8 -->
<g id="node9" class="node">
<title>n8</title>
<ellipse fill="#b2dfee" stroke="#b2dfee" cx="27" cy="-90" rx="27" ry="18"/>
<text text-anchor="middle" x="27" y="-87.5" font-family="Helvetica,sans-Serif" font-size="10.00">&#45;</text>
</g>
<!-- n7&#45;&gt;n8 -->
<g id="edge8" class="edge">
<title>n7&#45;&gt;n8</title>
<path fill="none" stroke="black" d="M72.32,-144.76C64.81,-135.86 55.36,-124.65 47.04,-114.78"/>
<polygon fill="black" stroke="black" points="49.9,-112.74 40.78,-107.35 44.55,-117.25 49.9,-112.74"/>
</g>
<!-- n9 -->
<g id="node10" class="node">
<title>n9</title>
<ellipse fill="#b2dfee" stroke="#b2dfee" cx="99" cy="-90" rx="27" ry="18"/>
<text text-anchor="middle" x="99" y="-87.5" font-family="Helvetica,sans-Serif" font-size="10.00">INT</text>
</g>
<!-- n7&#45;&gt;n9 -->
<g id="edge9" class="edge">
<title>n7&#45;&gt;n9</title>
<path fill="none" stroke="black" d="M89.21,-143.7C90.58,-136.32 92.22,-127.52 93.75,-119.25"/>
<polygon fill="black" stroke="black" points="97.16,-120.06 95.55,-109.59 90.28,-118.79 97.16,-120.06"/>
</g>
<!-- n10 -->
<g id="node11" class="node">
<title>n10</title>
<ellipse fill="#b2dfee" stroke="#b2dfee" cx="99" cy="-18" rx="27" ry="18"/>
<text text-anchor="middle" x="99" y="-15.5" font-family="Helvetica,sans-Serif" font-size="10.00">32</text>
</g>
<!-- n9&#45;&gt;n10 -->
<g id="edge10" class="edge">
<title>n9&#45;&gt;n10</title>
<path fill="none" stroke="black" d="M99,-71.7C99,-64.41 99,-55.73 99,-47.54"/>
<polygon fill="black" stroke="black" points="102.5,-47.62 99,-37.62 95.5,-47.62 102.5,-47.62"/>
</g>
<!-- n13 -->
<g id="node14" class="node">
<title>n13</title>
<ellipse fill="#b2dfee" stroke="#b2dfee" cx="184" cy="-90" rx="27" ry="18"/>
<text text-anchor="middle" x="184" y="-87.5" font-family="Helvetica,sans-Serif" font-size="10.00">&#45;</text>
</g>
<!-- n12&#45;&gt;n13 -->
<g id="edge13" class="edge">
<title>n12&#45;&gt;n13</title>
<path fill="none" stroke="black" d="M239.66,-145.12C229.97,-135.69 217.54,-123.61 206.88,-113.25"/>
<polygon fill="black" stroke="black" points="209.5,-110.91 199.89,-106.45 204.62,-115.93 209.5,-110.91"/>
</g>
<!-- n14 -->
<g id="node15" class="node">
<title>n14</title>
<ellipse fill="#b2dfee" stroke="#b2dfee" cx="256" cy="-90" rx="27" ry="18"/>
<text text-anchor="middle" x="256" y="-87.5" font-family="Helvetica,sans-Serif" font-size="10.00">INT</text>
</g>
<!-- n12&#45;&gt;n14 -->
<g id="edge14" class="edge">
<title>n12&#45;&gt;n14</title>
<path fill="none" stroke="black" d="M256,-143.7C256,-136.41 256,-127.73 256,-119.54"/>
<polygon fill="black" stroke="black" points="259.5,-119.62 256,-109.62 252.5,-119.62 259.5,-119.62"/>
</g>
<!-- n15 -->
<g id="node16" class="node">
<title>n15</title>
<ellipse fill="#b2dfee" stroke="#b2dfee" cx="256" cy="-18" rx="27" ry="18"/>
<text text-anchor="middle" x="256" y="-15.5" font-family="Helvetica,sans-Serif" font-size="10.00">34</text>
</g>
<!-- n14&#45;&gt;n15 -->
<g id="edge15" class="edge">
<title>n14&#45;&gt;n15</title>
<path fill="none" stroke="black" d="M256,-71.7C256,-64.41 256,-55.73 256,-47.54"/>
<polygon fill="black" stroke="black" points="259.5,-47.62 256,-37.62 252.5,-47.62 259.5,-47.62"/>
</g>
<!-- n18 -->
<g id="node19" class="node">
<title>n18</title>
<ellipse fill="#b2dfee" stroke="#b2dfee" cx="400" cy="-162" rx="43.62" ry="18"/>
<text text-anchor="middle" x="400" y="-159.5" font-family="Helvetica,sans-Serif" font-size="10.00">ARITMETICA</text>
</g>
<!-- n17&#45;&gt;n18 -->
<g id="edge18" class="edge">
<title>n17&#45;&gt;n18</title>
<path fill="none" stroke="black" d="M427.29,-216.05C423.26,-208.23 418.38,-198.75 413.87,-189.98"/>
<polygon fill="black" stroke="black" points="417.01,-188.43 409.33,-181.13 410.79,-191.63 417.01,-188.43"/>
</g>
<!-- n24 -->
<g id="node25" class="node">
<title>n24</title>
<ellipse fill="#b2dfee" stroke="#b2dfee" cx="489" cy="-162" rx="27" ry="18"/>
<text text-anchor="middle" x="489" y="-159.5" font-family="Helvetica,sans-Serif" font-size="10.00">/</text>
</g>
<!-- n17&#45;&gt;n24 -->
<g id="edge24" class="edge">
<title>n17&#45;&gt;n24</title>
<path fill="none" stroke="black" d="M448.56,-216.41C455.08,-207.8 463.17,-197.11 470.4,-187.56"/>
<polygon fill="black" stroke="black" points="473.1,-189.8 476.34,-179.72 467.52,-185.58 473.1,-189.8"/>
</g>
<!-- n25 -->
<g id="node26" class="node">
<title>n25</title>
<ellipse fill="#b2dfee" stroke="#b2dfee" cx="597" cy="-162" rx="43.62" ry="18"/>
<text text-anchor="middle" x="597" y="-159.5" font-family="Helvetica,sans-Serif" font-size="10.00">ARITMETICA</text>
</g>
<!-- n17&#45;&gt;n25 -->
<g id="edge25" class="edge">
<title>n17&#45;&gt;n25</title>
<path fill="none" stroke="black" d="M465.16,-220.32C490.95,-209.11 528.81,-192.65 557.35,-180.24"/>
<polygon fill="black" stroke="black" points="558.63,-183.5 566.4,-176.3 555.84,-177.08 558.63,-183.5"/>
</g>
<!-- n19 -->
<g id="node20" class="node">
<title>n19</title>
<ellipse fill="#b2dfee" stroke="#b2dfee" cx="328" cy="-90" rx="27" ry="18"/>
<text text-anchor="middle" x="328" y="-87.5" font-family="Helvetica,sans-Serif" font-size="10.00">INT</text>
</g>
<!-- n18&#45;&gt;n19 -->
<g id="edge19" class="edge">
<title>n18&#45;&gt;n19</title>
<path fill="none" stroke="black" d="M383.66,-145.12C373.97,-135.69 361.54,-123.61 350.88,-113.25"/>
<polygon fill="black" stroke="black" points="353.5,-110.91 343.89,-106.45 348.62,-115.93 353.5,-110.91"/>
</g>
<!-- n21 -->
<g id="node22" class="node">
<title>n21</title>
<ellipse fill="#b2dfee" stroke="#b2dfee" cx="400" cy="-90" rx="27" ry="18"/>
<text text-anchor="middle" x="400" y="-87.5" font-family="Helvetica,sans-Serif" font-size="10.00">*</text>
</g>
<!-- n18&#45;&gt;n21 -->
<g id="edge21" class="edge">
<title>n18&#45;&gt;n21</title>
<path fill="none" stroke="black" d="M400,-143.7C400,-136.41 400,-127.73 400,-119.54"/>
<polygon fill="black" stroke="black" points="403.5,-119.62 400,-109.62 396.5,-119.62 403.5,-119.62"/>
</g>
<!-- n22 -->
<g id="node23" class="node">
<title>n22</title>
<ellipse fill="#b2dfee" stroke="#b2dfee" cx="472" cy="-90" rx="27" ry="18"/>
<text text-anchor="middle" x="472" y="-87.5" font-family="Helvetica,sans-Serif" font-size="10.00">INT</text>
</g>
<!-- n18&#45;&gt;n22 -->
<g id="edge22" class="edge">
<title>n18&#45;&gt;n22</title>
<path fill="none" stroke="black" d="M416.34,-145.12C426.03,-135.69 438.46,-123.61 449.12,-113.25"/>
<polygon fill="black" stroke="black" points="451.38,-115.93 456.11,-106.45 446.5,-110.91 451.38,-115.93"/>
</g>
<!-- n20 -->
<g id="node21" class="node">
<title>n20</title>
<ellipse fill="#b2dfee" stroke="#b2dfee" cx="328" cy="-18" rx="27" ry="18"/>
<text text-anchor="middle" x="328" y="-15.5" font-family="Helvetica,sans-Serif" font-size="10.00">2</text>
</g>
<!-- n19&#45;&gt;n20 -->
<g id="edge20" class="edge">
<title>n19&#45;&gt;n20</title>
<path fill="none" stroke="black" d="M328,-71.7C328,-64.41 328,-55.73 328,-47.54"/>
<polygon fill="black" stroke="black" points="331.5,-47.62 328,-37.62 324.5,-47.62 331.5,-47.62"/>
</g>
<!-- n23 -->
<g id="node24" class="node">
<title>n23</title>
<ellipse fill="#b2dfee" stroke="#b2dfee" cx="472" cy="-18" rx="27" ry="18"/>
<text text-anchor="middle" x="472" y="-15.5" font-family="Helvetica,sans-Serif" font-size="10.00">44</text>
</g>
<!-- n22&#45;&gt;n23 -->
<g id="edge23" class="edge">
<title>n22&#45;&gt;n23</title>
<path fill="none" stroke="black" d="M472,-71.7C472,-64.41 472,-55.73 472,-47.54"/>
<polygon fill="black" stroke="black" points="475.5,-47.62 472,-37.62 468.5,-47.62 475.5,-47.62"/>
</g>
<!-- n26 -->
<g id="node27" class="node">
<title>n26</title>
<ellipse fill="#b2dfee" stroke="#b2dfee" cx="544" cy="-90" rx="27" ry="18"/>
<text text-anchor="middle" x="544" y="-87.5" font-family="Helvetica,sans-Serif" font-size="10.00">INT</text>
</g>
<!-- n25&#45;&gt;n26 -->
<g id="edge26" class="edge">
<title>n25&#45;&gt;n26</title>
<path fill="none" stroke="black" d="M584.44,-144.41C577.92,-135.8 569.83,-125.11 562.6,-115.56"/>
<polygon fill="black" stroke="black" points="565.48,-113.58 556.66,-107.72 559.9,-117.8 565.48,-113.58"/>
</g>
<!-- n28 -->
<g id="node29" class="node">
<title>n28</title>
<ellipse fill="#b2dfee" stroke="#b2dfee" cx="616" cy="-90" rx="27" ry="18"/>
<text text-anchor="middle" x="616" y="-87.5" font-family="Helvetica,sans-Serif" font-size="10.00">**</text>
</g>
<!-- n25&#45;&gt;n28 -->
<g id="edge28" class="edge">
<title>n25&#45;&gt;n28</title>
<path fill="none" stroke="black" d="M601.7,-143.7C603.72,-136.24 606.14,-127.32 608.41,-118.97"/>
<polygon fill="black" stroke="black" points="611.72,-120.13 610.96,-109.57 604.96,-118.3 611.72,-120.13"/>
</g>
<!-- n29 -->
<g id="node30" class="node">
<title>n29</title>
<ellipse fill="#b2dfee" stroke="#b2dfee" cx="688" cy="-90" rx="27" ry="18"/>
<text text-anchor="middle" x="688" y="-87.5" font-family="Helvetica,sans-Serif" font-size="10.00">INT</text>
</g>
<!-- n25&#45;&gt;n29 -->
<g id="edge29" class="edge">
<title>n25&#45;&gt;n29</title>
<path fill="none" stroke="black" d="M616.75,-145.81C629.95,-135.65 647.48,-122.17 661.84,-111.12"/>
<polygon fill="black" stroke="black" points="663.75,-114.07 669.55,-105.19 659.49,-108.52 663.75,-114.07"/>
</g>
<!-- n27 -->
<g id="node28" class="node">
<title>n27</title>
<ellipse fill="#b2dfee" stroke="#b2dfee" cx="544" cy="-18" rx="27" ry="18"/>
<text text-anchor="middle" x="544" y="-15.5" font-family="Helvetica,sans-Serif" font-size="10.00">4</text>
</g>
<!-- n26&#45;&gt;n27 -->
<g id="edge27" class="edge">
<title>n26&#45;&gt;n27</title>
<path fill="none" stroke="black" d="M544,-71.7C544,-64.41 544,-55.73 544,-47.54"/>
<polygon fill="black" stroke="black" points="547.5,-47.62 544,-37.62 540.5,-47.62 547.5,-47.62"/>
</g>
<!-- n30 -->
<g id="node31" class="node">
<title>n30</title>
<ellipse fill="#b2dfee" stroke="#b2dfee" cx="688" cy="-18" rx="27" ry="18"/>
<text text-anchor="middle" x="688" y="-15.5" font-family="Helvetica,sans-Serif" font-size="10.00">2</text>
</g>
<!-- n29&#45;&gt;n30 -->
<g id="edge30" class="edge">
<title>n29&#45;&gt;n30</title>
<path fill="none" stroke="black" d="M688,-71.7C688,-64.41 688,-55.73 688,-47.54"/>
<polygon fill="black" stroke="black" points="691.5,-47.62 688,-37.62 684.5,-47.62 691.5,-47.62"/>
</g>
</g>
</svg>
