<?xml version="1.0" encoding="UTF-8" standalone="no"?>
<!DOCTYPE svg PUBLIC "-//W3C//DTD SVG 1.1//EN"
 "http://www.w3.org/Graphics/SVG/1.1/DTD/svg11.dtd">
<!-- Generated by graphviz version 7.1.0 (20230121.1956)
 -->
<!-- Title: arbolAST Pages: 1 -->
<svg width="474pt" height="548pt"
 viewBox="0.00 0.00 474.00 548.00" xmlns="http://www.w3.org/2000/svg" xmlns:xlink="http://www.w3.org/1999/xlink">
<g id="graph0" class="graph" transform="scale(1 1) rotate(0) translate(4 544)">
<title>arbolAST</title>
<polygon fill="white" stroke="none" points="-4,4 -4,-544 470,-544 470,4 -4,4"/>
<!-- n0 -->
<g id="node1" class="node">
<title>n0</title>
<ellipse fill="#b2dfee" stroke="#b2dfee" cx="277" cy="-522" rx="27" ry="18"/>
<text text-anchor="middle" x="277" y="-519.5" font-family="Helvetica,sans-Serif" font-size="10.00">INICIO</text>
</g>
<!-- n1 -->
<g id="node2" class="node">
<title>n1</title>
<ellipse fill="#b2dfee" stroke="#b2dfee" cx="277" cy="-450" rx="55.85" ry="18"/>
<text text-anchor="middle" x="277" y="-447.5" font-family="Helvetica,sans-Serif" font-size="10.00">INSTRUCCIONES</text>
</g>
<!-- n0&#45;&gt;n1 -->
<g id="edge1" class="edge">
<title>n0&#45;&gt;n1</title>
<path fill="none" stroke="black" d="M277,-503.7C277,-496.41 277,-487.73 277,-479.54"/>
<polygon fill="black" stroke="black" points="280.5,-479.62 277,-469.62 273.5,-479.62 280.5,-479.62"/>
</g>
<!-- n2 -->
<g id="node3" class="node">
<title>n2</title>
<ellipse fill="#b2dfee" stroke="#b2dfee" cx="277" cy="-378" rx="32.93" ry="18"/>
<text text-anchor="middle" x="277" y="-375.5" font-family="Helvetica,sans-Serif" font-size="10.00">PRINTLN</text>
</g>
<!-- n1&#45;&gt;n2 -->
<g id="edge2" class="edge">
<title>n1&#45;&gt;n2</title>
<path fill="none" stroke="black" d="M277,-431.7C277,-424.41 277,-415.73 277,-407.54"/>
<polygon fill="black" stroke="black" points="280.5,-407.62 277,-397.62 273.5,-407.62 280.5,-407.62"/>
</g>
<!-- n3 -->
<g id="node4" class="node">
<title>n3</title>
<ellipse fill="#b2dfee" stroke="#b2dfee" cx="115" cy="-306" rx="27" ry="18"/>
<text text-anchor="middle" x="115" y="-303.5" font-family="Helvetica,sans-Serif" font-size="10.00">Println</text>
</g>
<!-- n2&#45;&gt;n3 -->
<g id="edge3" class="edge">
<title>n2&#45;&gt;n3</title>
<path fill="none" stroke="black" d="M251.28,-366.56C225.72,-356.1 185.46,-339.37 151,-324 149.69,-323.41 148.35,-322.81 147,-322.2"/>
<polygon fill="black" stroke="black" points="148.55,-319.06 138.01,-318.04 145.61,-325.41 148.55,-319.06"/>
</g>
<!-- n4 -->
<g id="node5" class="node">
<title>n4</title>
<ellipse fill="#b2dfee" stroke="#b2dfee" cx="187" cy="-306" rx="27" ry="18"/>
<text text-anchor="middle" x="187" y="-303.5" font-family="Helvetica,sans-Serif" font-size="10.00">(</text>
</g>
<!-- n2&#45;&gt;n4 -->
<g id="edge4" class="edge">
<title>n2&#45;&gt;n4</title>
<path fill="none" stroke="black" d="M258.79,-362.83C245.64,-352.61 227.7,-338.66 213.04,-327.26"/>
<polygon fill="black" stroke="black" points="215.21,-324.5 205.16,-321.13 210.91,-330.03 215.21,-324.5"/>
</g>
<!-- n5 -->
<g id="node6" class="node">
<title>n5</title>
<ellipse fill="#b2dfee" stroke="#b2dfee" cx="277" cy="-306" rx="45.15" ry="18"/>
<text text-anchor="middle" x="277" y="-303.5" font-family="Helvetica,sans-Serif" font-size="10.00">RELACIONAL</text>
</g>
<!-- n2&#45;&gt;n5 -->
<g id="edge5" class="edge">
<title>n2&#45;&gt;n5</title>
<path fill="none" stroke="black" d="M277,-359.7C277,-352.41 277,-343.73 277,-335.54"/>
<polygon fill="black" stroke="black" points="280.5,-335.62 277,-325.62 273.5,-335.62 280.5,-335.62"/>
</g>
<!-- n19 -->
<g id="node20" class="node">
<title>n19</title>
<ellipse fill="#b2dfee" stroke="#b2dfee" cx="367" cy="-306" rx="27" ry="18"/>
<text text-anchor="middle" x="367" y="-303.5" font-family="Helvetica,sans-Serif" font-size="10.00">)</text>
</g>
<!-- n2&#45;&gt;n19 -->
<g id="edge19" class="edge">
<title>n2&#45;&gt;n19</title>
<path fill="none" stroke="black" d="M295.21,-362.83C308.36,-352.61 326.3,-338.66 340.96,-327.26"/>
<polygon fill="black" stroke="black" points="343.09,-330.03 348.84,-321.13 338.79,-324.5 343.09,-330.03"/>
</g>
<!-- n20 -->
<g id="node21" class="node">
<title>n20</title>
<ellipse fill="#b2dfee" stroke="#b2dfee" cx="439" cy="-306" rx="27" ry="18"/>
<text text-anchor="middle" x="439" y="-303.5" font-family="Helvetica,sans-Serif" font-size="10.00">;</text>
</g>
<!-- n2&#45;&gt;n20 -->
<g id="edge20" class="edge">
<title>n2&#45;&gt;n20</title>
<path fill="none" stroke="black" d="M302.72,-366.56C328.28,-356.1 368.54,-339.37 403,-324 404.31,-323.41 405.65,-322.81 407,-322.2"/>
<polygon fill="black" stroke="black" points="408.39,-325.41 415.99,-318.04 405.45,-319.06 408.39,-325.41"/>
</g>
<!-- n6 -->
<g id="node7" class="node">
<title>n6</title>
<ellipse fill="#b2dfee" stroke="#b2dfee" cx="188" cy="-234" rx="43.62" ry="18"/>
<text text-anchor="middle" x="188" y="-231.5" font-family="Helvetica,sans-Serif" font-size="10.00">ARITMETICA</text>
</g>
<!-- n5&#45;&gt;n6 -->
<g id="edge6" class="edge">
<title>n5&#45;&gt;n6</title>
<path fill="none" stroke="black" d="M257.25,-289.46C245.26,-280.04 229.77,-267.85 216.48,-257.4"/>
<polygon fill="black" stroke="black" points="218.91,-254.86 208.89,-251.43 214.58,-260.36 218.91,-254.86"/>
</g>
<!-- n16 -->
<g id="node17" class="node">
<title>n16</title>
<ellipse fill="#b2dfee" stroke="#b2dfee" cx="277" cy="-234" rx="27" ry="18"/>
<text text-anchor="middle" x="277" y="-231.5" font-family="Helvetica,sans-Serif" font-size="10.00">!=</text>
</g>
<!-- n5&#45;&gt;n16 -->
<g id="edge16" class="edge">
<title>n5&#45;&gt;n16</title>
<path fill="none" stroke="black" d="M277,-287.7C277,-280.41 277,-271.73 277,-263.54"/>
<polygon fill="black" stroke="black" points="280.5,-263.62 277,-253.62 273.5,-263.62 280.5,-263.62"/>
</g>
<!-- n17 -->
<g id="node18" class="node">
<title>n17</title>
<ellipse fill="#b2dfee" stroke="#b2dfee" cx="349" cy="-234" rx="27" ry="18"/>
<text text-anchor="middle" x="349" y="-231.5" font-family="Helvetica,sans-Serif" font-size="10.00">INT</text>
</g>
<!-- n5&#45;&gt;n17 -->
<g id="edge17" class="edge">
<title>n5&#45;&gt;n17</title>
<path fill="none" stroke="black" d="M293.34,-289.12C303.03,-279.69 315.46,-267.61 326.12,-257.25"/>
<polygon fill="black" stroke="black" points="328.38,-259.93 333.11,-250.45 323.5,-254.91 328.38,-259.93"/>
</g>
<!-- n7 -->
<g id="node8" class="node">
<title>n7</title>
<ellipse fill="#b2dfee" stroke="#b2dfee" cx="99" cy="-162" rx="43.62" ry="18"/>
<text text-anchor="middle" x="99" y="-159.5" font-family="Helvetica,sans-Serif" font-size="10.00">ARITMETICA</text>
</g>
<!-- n6&#45;&gt;n7 -->
<g id="edge7" class="edge">
<title>n6&#45;&gt;n7</title>
<path fill="none" stroke="black" d="M168.25,-217.46C156.26,-208.04 140.77,-195.85 127.48,-185.4"/>
<polygon fill="black" stroke="black" points="129.91,-182.86 119.89,-179.43 125.58,-188.36 129.91,-182.86"/>
</g>
<!-- n13 -->
<g id="node14" class="node">
<title>n13</title>
<ellipse fill="#b2dfee" stroke="#b2dfee" cx="188" cy="-162" rx="27" ry="18"/>
<text text-anchor="middle" x="188" y="-159.5" font-family="Helvetica,sans-Serif" font-size="10.00">&#45;</text>
</g>
<!-- n6&#45;&gt;n13 -->
<g id="edge13" class="edge">
<title>n6&#45;&gt;n13</title>
<path fill="none" stroke="black" d="M188,-215.7C188,-208.41 188,-199.73 188,-191.54"/>
<polygon fill="black" stroke="black" points="191.5,-191.62 188,-181.62 184.5,-191.62 191.5,-191.62"/>
</g>
<!-- n14 -->
<g id="node15" class="node">
<title>n14</title>
<ellipse fill="#b2dfee" stroke="#b2dfee" cx="260" cy="-162" rx="27" ry="18"/>
<text text-anchor="middle" x="260" y="-159.5" font-family="Helvetica,sans-Serif" font-size="10.00">INT</text>
</g>
<!-- n6&#45;&gt;n14 -->
<g id="edge14" class="edge">
<title>n6&#45;&gt;n14</title>
<path fill="none" stroke="black" d="M204.34,-217.12C214.03,-207.69 226.46,-195.61 237.12,-185.25"/>
<polygon fill="black" stroke="black" points="239.38,-187.93 244.11,-178.45 234.5,-182.91 239.38,-187.93"/>
</g>
<!-- n8 -->
<g id="node9" class="node">
<title>n8</title>
<ellipse fill="#b2dfee" stroke="#b2dfee" cx="27" cy="-90" rx="27" ry="18"/>
<text text-anchor="middle" x="27" y="-87.5" font-family="Helvetica,sans-Serif" font-size="10.00">INT</text>
</g>
<!-- n7&#45;&gt;n8 -->
<g id="edge8" class="edge">
<title>n7&#45;&gt;n8</title>
<path fill="none" stroke="black" d="M82.66,-145.12C72.97,-135.69 60.54,-123.61 49.88,-113.25"/>
<polygon fill="black" stroke="black" points="52.5,-110.91 42.89,-106.45 47.62,-115.93 52.5,-110.91"/>
</g>
<!-- n10 -->
<g id="node11" class="node">
<title>n10</title>
<ellipse fill="#b2dfee" stroke="#b2dfee" cx="99" cy="-90" rx="27" ry="18"/>
<text text-anchor="middle" x="99" y="-87.5" font-family="Helvetica,sans-Serif" font-size="10.00">*</text>
</g>
<!-- n7&#45;&gt;n10 -->
<g id="edge10" class="edge">
<title>n7&#45;&gt;n10</title>
<path fill="none" stroke="black" d="M99,-143.7C99,-136.41 99,-127.73 99,-119.54"/>
<polygon fill="black" stroke="black" points="102.5,-119.62 99,-109.62 95.5,-119.62 102.5,-119.62"/>
</g>
<!-- n11 -->
<g id="node12" class="node">
<title>n11</title>
<ellipse fill="#b2dfee" stroke="#b2dfee" cx="171" cy="-90" rx="27" ry="18"/>
<text text-anchor="middle" x="171" y="-87.5" font-family="Helvetica,sans-Serif" font-size="10.00">INT</text>
</g>
<!-- n7&#45;&gt;n11 -->
<g id="edge11" class="edge">
<title>n7&#45;&gt;n11</title>
<path fill="none" stroke="black" d="M115.34,-145.12C125.03,-135.69 137.46,-123.61 148.12,-113.25"/>
<polygon fill="black" stroke="black" points="150.38,-115.93 155.11,-106.45 145.5,-110.91 150.38,-115.93"/>
</g>
<!-- n9 -->
<g id="node10" class="node">
<title>n9</title>
<ellipse fill="#b2dfee" stroke="#b2dfee" cx="27" cy="-18" rx="27" ry="18"/>
<text text-anchor="middle" x="27" y="-15.5" font-family="Helvetica,sans-Serif" font-size="10.00">4</text>
</g>
<!-- n8&#45;&gt;n9 -->
<g id="edge9" class="edge">
<title>n8&#45;&gt;n9</title>
<path fill="none" stroke="black" d="M27,-71.7C27,-64.41 27,-55.73 27,-47.54"/>
<polygon fill="black" stroke="black" points="30.5,-47.62 27,-37.62 23.5,-47.62 30.5,-47.62"/>
</g>
<!-- n12 -->
<g id="node13" class="node">
<title>n12</title>
<ellipse fill="#b2dfee" stroke="#b2dfee" cx="171" cy="-18" rx="27" ry="18"/>
<text text-anchor="middle" x="171" y="-15.5" font-family="Helvetica,sans-Serif" font-size="10.00">2</text>
</g>
<!-- n11&#45;&gt;n12 -->
<g id="edge12" class="edge">
<title>n11&#45;&gt;n12</title>
<path fill="none" stroke="black" d="M171,-71.7C171,-64.41 171,-55.73 171,-47.54"/>
<polygon fill="black" stroke="black" points="174.5,-47.62 171,-37.62 167.5,-47.62 174.5,-47.62"/>
</g>
<!-- n15 -->
<g id="node16" class="node">
<title>n15</title>
<ellipse fill="#b2dfee" stroke="#b2dfee" cx="260" cy="-90" rx="27" ry="18"/>
<text text-anchor="middle" x="260" y="-87.5" font-family="Helvetica,sans-Serif" font-size="10.00">1</text>
</g>
<!-- n14&#45;&gt;n15 -->
<g id="edge15" class="edge">
<title>n14&#45;&gt;n15</title>
<path fill="none" stroke="black" d="M260,-143.7C260,-136.41 260,-127.73 260,-119.54"/>
<polygon fill="black" stroke="black" points="263.5,-119.62 260,-109.62 256.5,-119.62 263.5,-119.62"/>
</g>
<!-- n18 -->
<g id="node19" class="node">
<title>n18</title>
<ellipse fill="#b2dfee" stroke="#b2dfee" cx="349" cy="-162" rx="27" ry="18"/>
<text text-anchor="middle" x="349" y="-159.5" font-family="Helvetica,sans-Serif" font-size="10.00">8</text>
</g>
<!-- n17&#45;&gt;n18 -->
<g id="edge18" class="edge">
<title>n17&#45;&gt;n18</title>
<path fill="none" stroke="black" d="M349,-215.7C349,-208.41 349,-199.73 349,-191.54"/>
<polygon fill="black" stroke="black" points="352.5,-191.62 349,-181.62 345.5,-191.62 352.5,-191.62"/>
</g>
</g>
</svg>
