<?xml version="1.0" encoding="UTF-8" standalone="no"?>
<!DOCTYPE svg PUBLIC "-//W3C//DTD SVG 1.1//EN"
 "http://www.w3.org/Graphics/SVG/1.1/DTD/svg11.dtd">
<!-- Generated by graphviz version 7.1.0 (20230121.1956)
 -->
<!-- Title: arbolAST Pages: 1 -->
<svg width="386pt" height="404pt"
 viewBox="0.00 0.00 386.00 404.00" xmlns="http://www.w3.org/2000/svg" xmlns:xlink="http://www.w3.org/1999/xlink">
<g id="graph0" class="graph" transform="scale(1 1) rotate(0) translate(4 400)">
<title>arbolAST</title>
<polygon fill="white" stroke="none" points="-4,4 -4,-400 382,-400 382,4 -4,4"/>
<!-- n0 -->
<g id="node1" class="node">
<title>n0</title>
<ellipse fill="#b2dfee" stroke="#b2dfee" cx="189" cy="-378" rx="27" ry="18"/>
<text text-anchor="middle" x="189" y="-375.5" font-family="Helvetica,sans-Serif" font-size="10.00">INICIO</text>
</g>
<!-- n1 -->
<g id="node2" class="node">
<title>n1</title>
<ellipse fill="#b2dfee" stroke="#b2dfee" cx="189" cy="-306" rx="55.85" ry="18"/>
<text text-anchor="middle" x="189" y="-303.5" font-family="Helvetica,sans-Serif" font-size="10.00">INSTRUCCIONES</text>
</g>
<!-- n0&#45;&gt;n1 -->
<g id="edge1" class="edge">
<title>n0&#45;&gt;n1</title>
<path fill="none" stroke="black" d="M189,-359.7C189,-352.41 189,-343.73 189,-335.54"/>
<polygon fill="black" stroke="black" points="192.5,-335.62 189,-325.62 185.5,-335.62 192.5,-335.62"/>
</g>
<!-- n2 -->
<g id="node3" class="node">
<title>n2</title>
<ellipse fill="#b2dfee" stroke="#b2dfee" cx="189" cy="-234" rx="32.93" ry="18"/>
<text text-anchor="middle" x="189" y="-231.5" font-family="Helvetica,sans-Serif" font-size="10.00">PRINTLN</text>
</g>
<!-- n1&#45;&gt;n2 -->
<g id="edge2" class="edge">
<title>n1&#45;&gt;n2</title>
<path fill="none" stroke="black" d="M189,-287.7C189,-280.41 189,-271.73 189,-263.54"/>
<polygon fill="black" stroke="black" points="192.5,-263.62 189,-253.62 185.5,-263.62 192.5,-263.62"/>
</g>
<!-- n3 -->
<g id="node4" class="node">
<title>n3</title>
<ellipse fill="#b2dfee" stroke="#b2dfee" cx="27" cy="-162" rx="27" ry="18"/>
<text text-anchor="middle" x="27" y="-159.5" font-family="Helvetica,sans-Serif" font-size="10.00">Println</text>
</g>
<!-- n2&#45;&gt;n3 -->
<g id="edge3" class="edge">
<title>n2&#45;&gt;n3</title>
<path fill="none" stroke="black" d="M163.28,-222.56C137.72,-212.1 97.46,-195.37 63,-180 61.69,-179.41 60.35,-178.81 59,-178.2"/>
<polygon fill="black" stroke="black" points="60.55,-175.06 50.01,-174.04 57.61,-181.41 60.55,-175.06"/>
</g>
<!-- n4 -->
<g id="node5" class="node">
<title>n4</title>
<ellipse fill="#b2dfee" stroke="#b2dfee" cx="99" cy="-162" rx="27" ry="18"/>
<text text-anchor="middle" x="99" y="-159.5" font-family="Helvetica,sans-Serif" font-size="10.00">(</text>
</g>
<!-- n2&#45;&gt;n4 -->
<g id="edge4" class="edge">
<title>n2&#45;&gt;n4</title>
<path fill="none" stroke="black" d="M170.79,-218.83C157.64,-208.61 139.7,-194.66 125.04,-183.26"/>
<polygon fill="black" stroke="black" points="127.21,-180.5 117.16,-177.13 122.91,-186.03 127.21,-180.5"/>
</g>
<!-- n5 -->
<g id="node6" class="node">
<title>n5</title>
<ellipse fill="#b2dfee" stroke="#b2dfee" cx="189" cy="-162" rx="45.15" ry="18"/>
<text text-anchor="middle" x="189" y="-159.5" font-family="Helvetica,sans-Serif" font-size="10.00">RELACIONAL</text>
</g>
<!-- n2&#45;&gt;n5 -->
<g id="edge5" class="edge">
<title>n2&#45;&gt;n5</title>
<path fill="none" stroke="black" d="M189,-215.7C189,-208.41 189,-199.73 189,-191.54"/>
<polygon fill="black" stroke="black" points="192.5,-191.62 189,-181.62 185.5,-191.62 192.5,-191.62"/>
</g>
<!-- n11 -->
<g id="node12" class="node">
<title>n11</title>
<ellipse fill="#b2dfee" stroke="#b2dfee" cx="279" cy="-162" rx="27" ry="18"/>
<text text-anchor="middle" x="279" y="-159.5" font-family="Helvetica,sans-Serif" font-size="10.00">)</text>
</g>
<!-- n2&#45;&gt;n11 -->
<g id="edge11" class="edge">
<title>n2&#45;&gt;n11</title>
<path fill="none" stroke="black" d="M207.21,-218.83C220.36,-208.61 238.3,-194.66 252.96,-183.26"/>
<polygon fill="black" stroke="black" points="255.09,-186.03 260.84,-177.13 250.79,-180.5 255.09,-186.03"/>
</g>
<!-- n12 -->
<g id="node13" class="node">
<title>n12</title>
<ellipse fill="#b2dfee" stroke="#b2dfee" cx="351" cy="-162" rx="27" ry="18"/>
<text text-anchor="middle" x="351" y="-159.5" font-family="Helvetica,sans-Serif" font-size="10.00">;</text>
</g>
<!-- n2&#45;&gt;n12 -->
<g id="edge12" class="edge">
<title>n2&#45;&gt;n12</title>
<path fill="none" stroke="black" d="M214.72,-222.56C240.28,-212.1 280.54,-195.37 315,-180 316.31,-179.41 317.65,-178.81 319,-178.2"/>
<polygon fill="black" stroke="black" points="320.39,-181.41 327.99,-174.04 317.45,-175.06 320.39,-181.41"/>
</g>
<!-- n6 -->
<g id="node7" class="node">
<title>n6</title>
<ellipse fill="#b2dfee" stroke="#b2dfee" cx="110" cy="-90" rx="33.61" ry="18"/>
<text text-anchor="middle" x="110" y="-87.5" font-family="Helvetica,sans-Serif" font-size="10.00">CADENA</text>
</g>
<!-- n5&#45;&gt;n6 -->
<g id="edge6" class="edge">
<title>n5&#45;&gt;n6</title>
<path fill="none" stroke="black" d="M171.07,-145.12C160.48,-135.73 146.9,-123.7 135.24,-113.36"/>
<polygon fill="black" stroke="black" points="137.71,-110.88 127.91,-106.87 133.07,-116.12 137.71,-110.88"/>
</g>
<!-- n8 -->
<g id="node9" class="node">
<title>n8</title>
<ellipse fill="#b2dfee" stroke="#b2dfee" cx="189" cy="-90" rx="27" ry="18"/>
<text text-anchor="middle" x="189" y="-87.5" font-family="Helvetica,sans-Serif" font-size="10.00">&lt;=</text>
</g>
<!-- n5&#45;&gt;n8 -->
<g id="edge8" class="edge">
<title>n5&#45;&gt;n8</title>
<path fill="none" stroke="black" d="M189,-143.7C189,-136.41 189,-127.73 189,-119.54"/>
<polygon fill="black" stroke="black" points="192.5,-119.62 189,-109.62 185.5,-119.62 192.5,-119.62"/>
</g>
<!-- n9 -->
<g id="node10" class="node">
<title>n9</title>
<ellipse fill="#b2dfee" stroke="#b2dfee" cx="261" cy="-90" rx="27" ry="18"/>
<text text-anchor="middle" x="261" y="-87.5" font-family="Helvetica,sans-Serif" font-size="10.00">INT</text>
</g>
<!-- n5&#45;&gt;n9 -->
<g id="edge9" class="edge">
<title>n5&#45;&gt;n9</title>
<path fill="none" stroke="black" d="M205.34,-145.12C215.03,-135.69 227.46,-123.61 238.12,-113.25"/>
<polygon fill="black" stroke="black" points="240.38,-115.93 245.11,-106.45 235.5,-110.91 240.38,-115.93"/>
</g>
<!-- n7 -->
<g id="node8" class="node">
<title>n7</title>
<ellipse fill="#b2dfee" stroke="#b2dfee" cx="110" cy="-18" rx="27" ry="18"/>
<text text-anchor="middle" x="110" y="-15.5" font-family="Helvetica,sans-Serif" font-size="10.00">jo</text>
</g>
<!-- n6&#45;&gt;n7 -->
<g id="edge7" class="edge">
<title>n6&#45;&gt;n7</title>
<path fill="none" stroke="black" d="M110,-71.7C110,-64.41 110,-55.73 110,-47.54"/>
<polygon fill="black" stroke="black" points="113.5,-47.62 110,-37.62 106.5,-47.62 113.5,-47.62"/>
</g>
<!-- n10 -->
<g id="node11" class="node">
<title>n10</title>
<ellipse fill="#b2dfee" stroke="#b2dfee" cx="261" cy="-18" rx="27" ry="18"/>
<text text-anchor="middle" x="261" y="-15.5" font-family="Helvetica,sans-Serif" font-size="10.00">2</text>
</g>
<!-- n9&#45;&gt;n10 -->
<g id="edge10" class="edge">
<title>n9&#45;&gt;n10</title>
<path fill="none" stroke="black" d="M261,-71.7C261,-64.41 261,-55.73 261,-47.54"/>
<polygon fill="black" stroke="black" points="264.5,-47.62 261,-37.62 257.5,-47.62 264.5,-47.62"/>
</g>
</g>
</svg>
