<?xml version="1.0" encoding="UTF-8" standalone="no"?>
<!DOCTYPE svg PUBLIC "-//W3C//DTD SVG 1.1//EN"
 "http://www.w3.org/Graphics/SVG/1.1/DTD/svg11.dtd">
<!-- Generated by graphviz version 7.1.0 (20230121.1956)
 -->
<!-- Title: arbolAST Pages: 1 -->
<svg width="2061pt" height="548pt"
 viewBox="0.00 0.00 2061.00 548.00" xmlns="http://www.w3.org/2000/svg" xmlns:xlink="http://www.w3.org/1999/xlink">
<g id="graph0" class="graph" transform="scale(1 1) rotate(0) translate(4 544)">
<title>arbolAST</title>
<polygon fill="white" stroke="none" points="-4,4 -4,-544 2057,-544 2057,4 -4,4"/>
<!-- n0 -->
<g id="node1" class="node">
<title>n0</title>
<ellipse fill="#b2dfee" stroke="#b2dfee" cx="1053" cy="-522" rx="27" ry="18"/>
<text text-anchor="middle" x="1053" y="-519.5" font-family="Helvetica,sans-Serif" font-size="10.00">INICIO</text>
</g>
<!-- n1 -->
<g id="node2" class="node">
<title>n1</title>
<ellipse fill="#b2dfee" stroke="#b2dfee" cx="1053" cy="-450" rx="55.85" ry="18"/>
<text text-anchor="middle" x="1053" y="-447.5" font-family="Helvetica,sans-Serif" font-size="10.00">INSTRUCCIONES</text>
</g>
<!-- n0&#45;&gt;n1 -->
<g id="edge1" class="edge">
<title>n0&#45;&gt;n1</title>
<path fill="none" stroke="black" d="M1053,-503.7C1053,-496.41 1053,-487.73 1053,-479.54"/>
<polygon fill="black" stroke="black" points="1056.5,-479.62 1053,-469.62 1049.5,-479.62 1056.5,-479.62"/>
</g>
<!-- n2 -->
<g id="node3" class="node">
<title>n2</title>
<ellipse fill="#b2dfee" stroke="#b2dfee" cx="279" cy="-378" rx="85.89" ry="18"/>
<text text-anchor="middle" x="279" y="-375.5" font-family="Helvetica,sans-Serif" font-size="10.00">DECLARACION_VARIABLES</text>
</g>
<!-- n1&#45;&gt;n2 -->
<g id="edge2" class="edge">
<title>n1&#45;&gt;n2</title>
<path fill="none" stroke="black" d="M999.8,-444.19C868.89,-432.35 530.01,-401.7 367.92,-387.04"/>
<polygon fill="black" stroke="black" points="368.34,-383.57 358.07,-386.15 367.71,-390.54 368.34,-383.57"/>
</g>
<!-- n11 -->
<g id="node12" class="node">
<title>n11</title>
<ellipse fill="#b2dfee" stroke="#b2dfee" cx="783" cy="-378" rx="85.89" ry="18"/>
<text text-anchor="middle" x="783" y="-375.5" font-family="Helvetica,sans-Serif" font-size="10.00">DECLARACION_VARIABLES</text>
</g>
<!-- n1&#45;&gt;n11 -->
<g id="edge11" class="edge">
<title>n1&#45;&gt;n11</title>
<path fill="none" stroke="black" d="M1010.52,-437.99C966.47,-426.57 897.12,-408.59 846.55,-395.48"/>
<polygon fill="black" stroke="black" points="847.44,-392.09 836.88,-392.97 845.68,-398.87 847.44,-392.09"/>
</g>
<!-- n20 -->
<g id="node21" class="node">
<title>n20</title>
<ellipse fill="#b2dfee" stroke="#b2dfee" cx="1287" cy="-378" rx="27.84" ry="18"/>
<text text-anchor="middle" x="1287" y="-375.5" font-family="Helvetica,sans-Serif" font-size="10.00">WHILE</text>
</g>
<!-- n1&#45;&gt;n20 -->
<g id="edge20" class="edge">
<title>n1&#45;&gt;n20</title>
<path fill="none" stroke="black" d="M1092.96,-437.05C1137.32,-423.78 1208.28,-402.55 1250.98,-389.77"/>
<polygon fill="black" stroke="black" points="1251.95,-393.14 1260.53,-386.92 1249.94,-386.43 1251.95,-393.14"/>
</g>
<!-- n62 -->
<g id="node63" class="node">
<title>n62</title>
<ellipse fill="#b2dfee" stroke="#b2dfee" cx="1362" cy="-378" rx="29.37" ry="18"/>
<text text-anchor="middle" x="1362" y="-375.5" font-family="Helvetica,sans-Serif" font-size="10.00">BREAK</text>
</g>
<!-- n1&#45;&gt;n62 -->
<g id="edge62" class="edge">
<title>n1&#45;&gt;n62</title>
<path fill="none" stroke="black" d="M1104.31,-442.52C1159.46,-434.73 1249.28,-419.68 1324,-396 1325.8,-395.43 1327.63,-394.8 1329.46,-394.13"/>
<polygon fill="black" stroke="black" points="1330.46,-397.5 1338.42,-390.5 1327.84,-391.01 1330.46,-397.5"/>
</g>
<!-- n3 -->
<g id="node4" class="node">
<title>n3</title>
<ellipse fill="#b2dfee" stroke="#b2dfee" cx="27" cy="-306" rx="27" ry="18"/>
<text text-anchor="middle" x="27" y="-303.5" font-family="Helvetica,sans-Serif" font-size="10.00">var</text>
</g>
<!-- n2&#45;&gt;n3 -->
<g id="edge3" class="edge">
<title>n2&#45;&gt;n3</title>
<path fill="none" stroke="black" d="M217.05,-365.25C173.34,-356.13 113.76,-342.01 63,-324 61.45,-323.45 59.88,-322.86 58.31,-322.23"/>
<polygon fill="black" stroke="black" points="59.98,-319.14 49.41,-318.39 57.2,-325.57 59.98,-319.14"/>
</g>
<!-- n4 -->
<g id="node5" class="node">
<title>n4</title>
<ellipse fill="#b2dfee" stroke="#b2dfee" cx="99" cy="-306" rx="27" ry="18"/>
<text text-anchor="middle" x="99" y="-303.5" font-family="Helvetica,sans-Serif" font-size="10.00">j</text>
</g>
<!-- n2&#45;&gt;n4 -->
<g id="edge4" class="edge">
<title>n2&#45;&gt;n4</title>
<path fill="none" stroke="black" d="M235.45,-362.1C206.68,-351.98 168.29,-337.95 135,-324 133.49,-323.37 131.94,-322.7 130.39,-322.02"/>
<polygon fill="black" stroke="black" points="132.11,-318.96 121.56,-318.01 129.21,-325.33 132.11,-318.96"/>
</g>
<!-- n5 -->
<g id="node6" class="node">
<title>n5</title>
<ellipse fill="#b2dfee" stroke="#b2dfee" cx="171" cy="-306" rx="27" ry="18"/>
<text text-anchor="middle" x="171" y="-303.5" font-family="Helvetica,sans-Serif" font-size="10.00">:</text>
</g>
<!-- n2&#45;&gt;n5 -->
<g id="edge5" class="edge">
<title>n2&#45;&gt;n5</title>
<path fill="none" stroke="black" d="M253.41,-360.41C237.14,-349.87 216.06,-336.21 199.29,-325.34"/>
<polygon fill="black" stroke="black" points="201.56,-322.63 191.26,-320.13 197.75,-328.51 201.56,-322.63"/>
</g>
<!-- n6 -->
<g id="node7" class="node">
<title>n6</title>
<ellipse fill="#b2dfee" stroke="#b2dfee" cx="243" cy="-306" rx="27" ry="18"/>
<text text-anchor="middle" x="243" y="-303.5" font-family="Helvetica,sans-Serif" font-size="10.00">INT</text>
</g>
<!-- n2&#45;&gt;n6 -->
<g id="edge6" class="edge">
<title>n2&#45;&gt;n6</title>
<path fill="none" stroke="black" d="M270.1,-359.7C266.02,-351.75 261.08,-342.16 256.55,-333.34"/>
<polygon fill="black" stroke="black" points="259.68,-331.78 252,-324.49 253.46,-334.98 259.68,-331.78"/>
</g>
<!-- n7 -->
<g id="node8" class="node">
<title>n7</title>
<ellipse fill="#b2dfee" stroke="#b2dfee" cx="315" cy="-306" rx="27" ry="18"/>
<text text-anchor="middle" x="315" y="-303.5" font-family="Helvetica,sans-Serif" font-size="10.00">=</text>
</g>
<!-- n2&#45;&gt;n7 -->
<g id="edge7" class="edge">
<title>n2&#45;&gt;n7</title>
<path fill="none" stroke="black" d="M287.9,-359.7C291.98,-351.75 296.92,-342.16 301.45,-333.34"/>
<polygon fill="black" stroke="black" points="304.54,-334.98 306,-324.49 298.32,-331.78 304.54,-334.98"/>
</g>
<!-- n8 -->
<g id="node9" class="node">
<title>n8</title>
<ellipse fill="#b2dfee" stroke="#b2dfee" cx="387" cy="-306" rx="27" ry="18"/>
<text text-anchor="middle" x="387" y="-303.5" font-family="Helvetica,sans-Serif" font-size="10.00">INT</text>
</g>
<!-- n2&#45;&gt;n8 -->
<g id="edge8" class="edge">
<title>n2&#45;&gt;n8</title>
<path fill="none" stroke="black" d="M304.59,-360.41C320.86,-349.87 341.94,-336.21 358.71,-325.34"/>
<polygon fill="black" stroke="black" points="360.25,-328.51 366.74,-320.13 356.44,-322.63 360.25,-328.51"/>
</g>
<!-- n10 -->
<g id="node11" class="node">
<title>n10</title>
<ellipse fill="#b2dfee" stroke="#b2dfee" cx="459" cy="-306" rx="27" ry="18"/>
<text text-anchor="middle" x="459" y="-303.5" font-family="Helvetica,sans-Serif" font-size="10.00">;</text>
</g>
<!-- n2&#45;&gt;n10 -->
<g id="edge10" class="edge">
<title>n2&#45;&gt;n10</title>
<path fill="none" stroke="black" d="M322.55,-362.1C351.32,-351.98 389.71,-337.95 423,-324 424.51,-323.37 426.06,-322.7 427.61,-322.02"/>
<polygon fill="black" stroke="black" points="428.79,-325.33 436.44,-318.01 425.89,-318.96 428.79,-325.33"/>
</g>
<!-- n9 -->
<g id="node10" class="node">
<title>n9</title>
<ellipse fill="#b2dfee" stroke="#b2dfee" cx="387" cy="-234" rx="27" ry="18"/>
<text text-anchor="middle" x="387" y="-231.5" font-family="Helvetica,sans-Serif" font-size="10.00">0</text>
</g>
<!-- n8&#45;&gt;n9 -->
<g id="edge9" class="edge">
<title>n8&#45;&gt;n9</title>
<path fill="none" stroke="black" d="M387,-287.7C387,-280.41 387,-271.73 387,-263.54"/>
<polygon fill="black" stroke="black" points="390.5,-263.62 387,-253.62 383.5,-263.62 390.5,-263.62"/>
</g>
<!-- n12 -->
<g id="node13" class="node">
<title>n12</title>
<ellipse fill="#b2dfee" stroke="#b2dfee" cx="531" cy="-306" rx="27" ry="18"/>
<text text-anchor="middle" x="531" y="-303.5" font-family="Helvetica,sans-Serif" font-size="10.00">var</text>
</g>
<!-- n11&#45;&gt;n12 -->
<g id="edge12" class="edge">
<title>n11&#45;&gt;n12</title>
<path fill="none" stroke="black" d="M721.05,-365.25C677.34,-356.13 617.76,-342.01 567,-324 565.45,-323.45 563.88,-322.86 562.31,-322.23"/>
<polygon fill="black" stroke="black" points="563.98,-319.14 553.41,-318.39 561.2,-325.57 563.98,-319.14"/>
</g>
<!-- n13 -->
<g id="node14" class="node">
<title>n13</title>
<ellipse fill="#b2dfee" stroke="#b2dfee" cx="603" cy="-306" rx="27" ry="18"/>
<text text-anchor="middle" x="603" y="-303.5" font-family="Helvetica,sans-Serif" font-size="10.00">k</text>
</g>
<!-- n11&#45;&gt;n13 -->
<g id="edge13" class="edge">
<title>n11&#45;&gt;n13</title>
<path fill="none" stroke="black" d="M739.45,-362.1C710.68,-351.98 672.29,-337.95 639,-324 637.49,-323.37 635.94,-322.7 634.39,-322.02"/>
<polygon fill="black" stroke="black" points="636.11,-318.96 625.56,-318.01 633.21,-325.33 636.11,-318.96"/>
</g>
<!-- n14 -->
<g id="node15" class="node">
<title>n14</title>
<ellipse fill="#b2dfee" stroke="#b2dfee" cx="675" cy="-306" rx="27" ry="18"/>
<text text-anchor="middle" x="675" y="-303.5" font-family="Helvetica,sans-Serif" font-size="10.00">:</text>
</g>
<!-- n11&#45;&gt;n14 -->
<g id="edge14" class="edge">
<title>n11&#45;&gt;n14</title>
<path fill="none" stroke="black" d="M757.41,-360.41C741.14,-349.87 720.06,-336.21 703.29,-325.34"/>
<polygon fill="black" stroke="black" points="705.56,-322.63 695.26,-320.13 701.75,-328.51 705.56,-322.63"/>
</g>
<!-- n15 -->
<g id="node16" class="node">
<title>n15</title>
<ellipse fill="#b2dfee" stroke="#b2dfee" cx="747" cy="-306" rx="27" ry="18"/>
<text text-anchor="middle" x="747" y="-303.5" font-family="Helvetica,sans-Serif" font-size="10.00">INT</text>
</g>
<!-- n11&#45;&gt;n15 -->
<g id="edge15" class="edge">
<title>n11&#45;&gt;n15</title>
<path fill="none" stroke="black" d="M774.1,-359.7C770.02,-351.75 765.08,-342.16 760.55,-333.34"/>
<polygon fill="black" stroke="black" points="763.68,-331.78 756,-324.49 757.46,-334.98 763.68,-331.78"/>
</g>
<!-- n16 -->
<g id="node17" class="node">
<title>n16</title>
<ellipse fill="#b2dfee" stroke="#b2dfee" cx="819" cy="-306" rx="27" ry="18"/>
<text text-anchor="middle" x="819" y="-303.5" font-family="Helvetica,sans-Serif" font-size="10.00">=</text>
</g>
<!-- n11&#45;&gt;n16 -->
<g id="edge16" class="edge">
<title>n11&#45;&gt;n16</title>
<path fill="none" stroke="black" d="M791.9,-359.7C795.98,-351.75 800.92,-342.16 805.45,-333.34"/>
<polygon fill="black" stroke="black" points="808.54,-334.98 810,-324.49 802.32,-331.78 808.54,-334.98"/>
</g>
<!-- n17 -->
<g id="node18" class="node">
<title>n17</title>
<ellipse fill="#b2dfee" stroke="#b2dfee" cx="891" cy="-306" rx="27" ry="18"/>
<text text-anchor="middle" x="891" y="-303.5" font-family="Helvetica,sans-Serif" font-size="10.00">INT</text>
</g>
<!-- n11&#45;&gt;n17 -->
<g id="edge17" class="edge">
<title>n11&#45;&gt;n17</title>
<path fill="none" stroke="black" d="M808.59,-360.41C824.86,-349.87 845.94,-336.21 862.71,-325.34"/>
<polygon fill="black" stroke="black" points="864.25,-328.51 870.74,-320.13 860.44,-322.63 864.25,-328.51"/>
</g>
<!-- n19 -->
<g id="node20" class="node">
<title>n19</title>
<ellipse fill="#b2dfee" stroke="#b2dfee" cx="963" cy="-306" rx="27" ry="18"/>
<text text-anchor="middle" x="963" y="-303.5" font-family="Helvetica,sans-Serif" font-size="10.00">;</text>
</g>
<!-- n11&#45;&gt;n19 -->
<g id="edge19" class="edge">
<title>n11&#45;&gt;n19</title>
<path fill="none" stroke="black" d="M826.55,-362.1C855.32,-351.98 893.71,-337.95 927,-324 928.51,-323.37 930.06,-322.7 931.61,-322.02"/>
<polygon fill="black" stroke="black" points="932.79,-325.33 940.44,-318.01 929.89,-318.96 932.79,-325.33"/>
</g>
<!-- n18 -->
<g id="node19" class="node">
<title>n18</title>
<ellipse fill="#b2dfee" stroke="#b2dfee" cx="806" cy="-234" rx="27" ry="18"/>
<text text-anchor="middle" x="806" y="-231.5" font-family="Helvetica,sans-Serif" font-size="10.00">10</text>
</g>
<!-- n17&#45;&gt;n18 -->
<g id="edge18" class="edge">
<title>n17&#45;&gt;n18</title>
<path fill="none" stroke="black" d="M874.61,-291.5C862.34,-281.4 845.34,-267.39 831.32,-255.86"/>
<polygon fill="black" stroke="black" points="833.74,-253.31 823.8,-249.66 829.29,-258.72 833.74,-253.31"/>
</g>
<!-- n21 -->
<g id="node22" class="node">
<title>n21</title>
<ellipse fill="#b2dfee" stroke="#b2dfee" cx="1035" cy="-306" rx="27" ry="18"/>
<text text-anchor="middle" x="1035" y="-303.5" font-family="Helvetica,sans-Serif" font-size="10.00">while</text>
</g>
<!-- n20&#45;&gt;n21 -->
<g id="edge21" class="edge">
<title>n20&#45;&gt;n21</title>
<path fill="none" stroke="black" d="M1260.23,-372.23C1218.91,-364.46 1137.41,-347.56 1071,-324 1069.45,-323.45 1067.88,-322.86 1066.31,-322.23"/>
<polygon fill="black" stroke="black" points="1067.98,-319.14 1057.41,-318.39 1065.2,-325.57 1067.98,-319.14"/>
</g>
<!-- n22 -->
<g id="node23" class="node">
<title>n22</title>
<ellipse fill="#b2dfee" stroke="#b2dfee" cx="1107" cy="-306" rx="27" ry="18"/>
<text text-anchor="middle" x="1107" y="-303.5" font-family="Helvetica,sans-Serif" font-size="10.00">(</text>
</g>
<!-- n20&#45;&gt;n22 -->
<g id="edge22" class="edge">
<title>n20&#45;&gt;n22</title>
<path fill="none" stroke="black" d="M1262.54,-368.74C1233.68,-358.82 1184.4,-341.35 1143,-324 1141.49,-323.37 1139.94,-322.7 1138.39,-322.02"/>
<polygon fill="black" stroke="black" points="1140.11,-318.96 1129.56,-318.01 1137.21,-325.33 1140.11,-318.96"/>
</g>
<!-- n23 -->
<g id="node24" class="node">
<title>n23</title>
<ellipse fill="#b2dfee" stroke="#b2dfee" cx="1197" cy="-306" rx="45.15" ry="18"/>
<text text-anchor="middle" x="1197" y="-303.5" font-family="Helvetica,sans-Serif" font-size="10.00">RELACIONAL</text>
</g>
<!-- n20&#45;&gt;n23 -->
<g id="edge23" class="edge">
<title>n20&#45;&gt;n23</title>
<path fill="none" stroke="black" d="M1269.65,-363.5C1257.24,-353.86 1240.27,-340.65 1225.84,-329.43"/>
<polygon fill="black" stroke="black" points="1228.04,-326.71 1218,-323.33 1223.75,-332.24 1228.04,-326.71"/>
</g>
<!-- n29 -->
<g id="node30" class="node">
<title>n29</title>
<ellipse fill="#b2dfee" stroke="#b2dfee" cx="1287" cy="-306" rx="27" ry="18"/>
<text text-anchor="middle" x="1287" y="-303.5" font-family="Helvetica,sans-Serif" font-size="10.00">)</text>
</g>
<!-- n20&#45;&gt;n29 -->
<g id="edge29" class="edge">
<title>n20&#45;&gt;n29</title>
<path fill="none" stroke="black" d="M1287,-359.7C1287,-352.41 1287,-343.73 1287,-335.54"/>
<polygon fill="black" stroke="black" points="1290.5,-335.62 1287,-325.62 1283.5,-335.62 1290.5,-335.62"/>
</g>
<!-- n30 -->
<g id="node31" class="node">
<title>n30</title>
<ellipse fill="#b2dfee" stroke="#b2dfee" cx="1359" cy="-306" rx="27" ry="18"/>
<text text-anchor="middle" x="1359" y="-303.5" font-family="Helvetica,sans-Serif" font-size="10.00">{</text>
</g>
<!-- n20&#45;&gt;n30 -->
<g id="edge30" class="edge">
<title>n20&#45;&gt;n30</title>
<path fill="none" stroke="black" d="M1301.92,-362.5C1311.77,-352.92 1324.86,-340.19 1336.03,-329.34"/>
<polygon fill="black" stroke="black" points="1338.29,-332.02 1343.02,-322.54 1333.41,-327 1338.29,-332.02"/>
</g>
<!-- n31 -->
<g id="node32" class="node">
<title>n31</title>
<ellipse fill="#b2dfee" stroke="#b2dfee" cx="1456" cy="-306" rx="27" ry="18"/>
<text text-anchor="middle" x="1456" y="-303.5" font-family="Helvetica,sans-Serif" font-size="10.00">IF</text>
</g>
<!-- n20&#45;&gt;n31 -->
<g id="edge31" class="edge">
<title>n20&#45;&gt;n31</title>
<path fill="none" stroke="black" d="M1309.23,-366.57C1314.08,-364.36 1319.19,-362.07 1324,-360 1357.15,-345.74 1395.46,-330.49 1422.24,-320.03"/>
<polygon fill="black" stroke="black" points="1423.51,-323.29 1431.56,-316.4 1420.97,-316.77 1423.51,-323.29"/>
</g>
<!-- n56 -->
<g id="node57" class="node">
<title>n56</title>
<ellipse fill="#b2dfee" stroke="#b2dfee" cx="1530" cy="-306" rx="29.37" ry="18"/>
<text text-anchor="middle" x="1530" y="-303.5" font-family="Helvetica,sans-Serif" font-size="10.00">MATCH</text>
</g>
<!-- n20&#45;&gt;n56 -->
<g id="edge56" class="edge">
<title>n20&#45;&gt;n56</title>
<path fill="none" stroke="black" d="M1308.59,-366.12C1313.57,-363.88 1318.9,-361.69 1324,-360 1396.46,-335.91 1419.42,-347.72 1492,-324 1493.59,-323.48 1495.2,-322.92 1496.82,-322.32"/>
<polygon fill="black" stroke="black" points="1498.04,-325.6 1506,-318.61 1495.41,-319.11 1498.04,-325.6"/>
</g>
<!-- n57 -->
<g id="node58" class="node">
<title>n57</title>
<ellipse fill="#b2dfee" stroke="#b2dfee" cx="1834" cy="-306" rx="34.29" ry="18"/>
<text text-anchor="middle" x="1834" y="-303.5" font-family="Helvetica,sans-Serif" font-size="10.00">INC_DEC</text>
</g>
<!-- n20&#45;&gt;n57 -->
<g id="edge57" class="edge">
<title>n20&#45;&gt;n57</title>
<path fill="none" stroke="black" d="M1308.07,-365.88C1313.17,-363.6 1318.68,-361.46 1324,-360 1411.1,-336.16 1680.49,-316.82 1788.51,-309.82"/>
<polygon fill="black" stroke="black" points="1788.69,-313.31 1798.45,-309.18 1788.24,-306.33 1788.69,-313.31"/>
</g>
<!-- n61 -->
<g id="node62" class="node">
<title>n61</title>
<ellipse fill="#b2dfee" stroke="#b2dfee" cx="1913" cy="-306" rx="27" ry="18"/>
<text text-anchor="middle" x="1913" y="-303.5" font-family="Helvetica,sans-Serif" font-size="10.00">}</text>
</g>
<!-- n20&#45;&gt;n61 -->
<g id="edge61" class="edge">
<title>n20&#45;&gt;n61</title>
<path fill="none" stroke="black" d="M1308.04,-365.73C1313.13,-363.46 1318.65,-361.35 1324,-360 1562.77,-299.58 1638.55,-385.67 1877,-324 1878.63,-323.58 1880.28,-323.08 1881.92,-322.53"/>
<polygon fill="black" stroke="black" points="1883.17,-325.8 1891.15,-318.83 1880.57,-319.3 1883.17,-325.8"/>
</g>
<!-- n24 -->
<g id="node25" class="node">
<title>n24</title>
<ellipse fill="#b2dfee" stroke="#b2dfee" cx="928" cy="-234" rx="77.23" ry="18"/>
<text text-anchor="middle" x="928" y="-231.5" font-family="Helvetica,sans-Serif" font-size="10.00">RECUPERAR_VARIABLE</text>
</g>
<!-- n23&#45;&gt;n24 -->
<g id="edge24" class="edge">
<title>n23&#45;&gt;n24</title>
<path fill="none" stroke="black" d="M1162.82,-293.88C1156.26,-291.85 1149.44,-289.8 1143,-288 1092.88,-273.95 1035.63,-259.93 992.82,-249.85"/>
<polygon fill="black" stroke="black" points="993.71,-246.46 983.18,-247.59 992.11,-253.28 993.71,-246.46"/>
</g>
<!-- n26 -->
<g id="node27" class="node">
<title>n26</title>
<ellipse fill="#b2dfee" stroke="#b2dfee" cx="1050" cy="-234" rx="27" ry="18"/>
<text text-anchor="middle" x="1050" y="-231.5" font-family="Helvetica,sans-Serif" font-size="10.00">&lt;=</text>
</g>
<!-- n23&#45;&gt;n26 -->
<g id="edge26" class="edge">
<title>n23&#45;&gt;n26</title>
<path fill="none" stroke="black" d="M1168.66,-291.5C1143.84,-279.68 1107.8,-262.52 1081.96,-250.22"/>
<polygon fill="black" stroke="black" points="1083.47,-247.06 1072.94,-245.92 1080.46,-253.38 1083.47,-247.06"/>
</g>
<!-- n27 -->
<g id="node28" class="node">
<title>n27</title>
<ellipse fill="#b2dfee" stroke="#b2dfee" cx="1172" cy="-234" rx="77.23" ry="18"/>
<text text-anchor="middle" x="1172" y="-231.5" font-family="Helvetica,sans-Serif" font-size="10.00">RECUPERAR_VARIABLE</text>
</g>
<!-- n23&#45;&gt;n27 -->
<g id="edge27" class="edge">
<title>n23&#45;&gt;n27</title>
<path fill="none" stroke="black" d="M1190.82,-287.7C1188.13,-280.15 1184.9,-271.12 1181.89,-262.68"/>
<polygon fill="black" stroke="black" points="1185.28,-261.77 1178.62,-253.53 1178.69,-264.12 1185.28,-261.77"/>
</g>
<!-- n25 -->
<g id="node26" class="node">
<title>n25</title>
<ellipse fill="#b2dfee" stroke="#b2dfee" cx="928" cy="-162" rx="27" ry="18"/>
<text text-anchor="middle" x="928" y="-159.5" font-family="Helvetica,sans-Serif" font-size="10.00">j</text>
</g>
<!-- n24&#45;&gt;n25 -->
<g id="edge25" class="edge">
<title>n24&#45;&gt;n25</title>
<path fill="none" stroke="black" d="M928,-215.7C928,-208.41 928,-199.73 928,-191.54"/>
<polygon fill="black" stroke="black" points="931.5,-191.62 928,-181.62 924.5,-191.62 931.5,-191.62"/>
</g>
<!-- n28 -->
<g id="node29" class="node">
<title>n28</title>
<ellipse fill="#b2dfee" stroke="#b2dfee" cx="1172" cy="-162" rx="27" ry="18"/>
<text text-anchor="middle" x="1172" y="-159.5" font-family="Helvetica,sans-Serif" font-size="10.00">k</text>
</g>
<!-- n27&#45;&gt;n28 -->
<g id="edge28" class="edge">
<title>n27&#45;&gt;n28</title>
<path fill="none" stroke="black" d="M1172,-215.7C1172,-208.41 1172,-199.73 1172,-191.54"/>
<polygon fill="black" stroke="black" points="1175.5,-191.62 1172,-181.62 1168.5,-191.62 1175.5,-191.62"/>
</g>
<!-- n32 -->
<g id="node33" class="node">
<title>n32</title>
<ellipse fill="#b2dfee" stroke="#b2dfee" cx="1294" cy="-234" rx="27" ry="18"/>
<text text-anchor="middle" x="1294" y="-231.5" font-family="Helvetica,sans-Serif" font-size="10.00">if</text>
</g>
<!-- n31&#45;&gt;n32 -->
<g id="edge32" class="edge">
<title>n31&#45;&gt;n32</title>
<path fill="none" stroke="black" d="M1433.57,-295.91C1408.27,-285.57 1365.98,-268.05 1330,-252 1328.69,-251.41 1327.35,-250.81 1326,-250.2"/>
<polygon fill="black" stroke="black" points="1327.55,-247.06 1317.01,-246.04 1324.61,-253.41 1327.55,-247.06"/>
</g>
<!-- n33 -->
<g id="node34" class="node">
<title>n33</title>
<ellipse fill="#b2dfee" stroke="#b2dfee" cx="1366" cy="-234" rx="27" ry="18"/>
<text text-anchor="middle" x="1366" y="-231.5" font-family="Helvetica,sans-Serif" font-size="10.00">(</text>
</g>
<!-- n31&#45;&gt;n33 -->
<g id="edge33" class="edge">
<title>n31&#45;&gt;n33</title>
<path fill="none" stroke="black" d="M1439.07,-291.83C1425.83,-281.54 1407.19,-267.04 1392.05,-255.26"/>
<polygon fill="black" stroke="black" points="1394.4,-252.65 1384.35,-249.27 1390.1,-258.18 1394.4,-252.65"/>
</g>
<!-- n34 -->
<g id="node35" class="node">
<title>n34</title>
<ellipse fill="#b2dfee" stroke="#b2dfee" cx="1456" cy="-234" rx="45.15" ry="18"/>
<text text-anchor="middle" x="1456" y="-231.5" font-family="Helvetica,sans-Serif" font-size="10.00">RELACIONAL</text>
</g>
<!-- n31&#45;&gt;n34 -->
<g id="edge34" class="edge">
<title>n31&#45;&gt;n34</title>
<path fill="none" stroke="black" d="M1456,-287.7C1456,-280.41 1456,-271.73 1456,-263.54"/>
<polygon fill="black" stroke="black" points="1459.5,-263.62 1456,-253.62 1452.5,-263.62 1459.5,-263.62"/>
</g>
<!-- n40 -->
<g id="node41" class="node">
<title>n40</title>
<ellipse fill="#b2dfee" stroke="#b2dfee" cx="1546" cy="-234" rx="27" ry="18"/>
<text text-anchor="middle" x="1546" y="-231.5" font-family="Helvetica,sans-Serif" font-size="10.00">)</text>
</g>
<!-- n31&#45;&gt;n40 -->
<g id="edge40" class="edge">
<title>n31&#45;&gt;n40</title>
<path fill="none" stroke="black" d="M1472.93,-291.83C1486.17,-281.54 1504.81,-267.04 1519.95,-255.26"/>
<polygon fill="black" stroke="black" points="1521.9,-258.18 1527.65,-249.27 1517.6,-252.65 1521.9,-258.18"/>
</g>
<!-- n41 -->
<g id="node42" class="node">
<title>n41</title>
<ellipse fill="#b2dfee" stroke="#b2dfee" cx="1618" cy="-234" rx="27" ry="18"/>
<text text-anchor="middle" x="1618" y="-231.5" font-family="Helvetica,sans-Serif" font-size="10.00">{</text>
</g>
<!-- n31&#45;&gt;n41 -->
<g id="edge41" class="edge">
<title>n31&#45;&gt;n41</title>
<path fill="none" stroke="black" d="M1477.22,-294.72C1482.05,-292.45 1487.18,-290.1 1492,-288 1531.5,-270.79 1542.5,-269.21 1582,-252 1583.5,-251.34 1585.04,-250.66 1586.59,-249.97"/>
<polygon fill="black" stroke="black" points="1587.78,-253.27 1595.4,-245.92 1584.85,-246.91 1587.78,-253.27"/>
</g>
<!-- n42 -->
<g id="node43" class="node">
<title>n42</title>
<ellipse fill="#b2dfee" stroke="#b2dfee" cx="1690" cy="-234" rx="27" ry="18"/>
<text text-anchor="middle" x="1690" y="-231.5" font-family="Helvetica,sans-Serif" font-size="10.00">IF</text>
</g>
<!-- n31&#45;&gt;n42 -->
<g id="edge42" class="edge">
<title>n31&#45;&gt;n42</title>
<path fill="none" stroke="black" d="M1476.99,-294.13C1481.84,-291.89 1487.03,-289.7 1492,-288 1561.78,-264.11 1584.22,-275.89 1654,-252 1655.55,-251.47 1657.13,-250.89 1658.71,-250.28"/>
<polygon fill="black" stroke="black" points="1659.8,-253.62 1667.61,-246.47 1657.04,-247.18 1659.8,-253.62"/>
</g>
<!-- n55 -->
<g id="node56" class="node">
<title>n55</title>
<ellipse fill="#b2dfee" stroke="#b2dfee" cx="1762" cy="-234" rx="27" ry="18"/>
<text text-anchor="middle" x="1762" y="-231.5" font-family="Helvetica,sans-Serif" font-size="10.00">}</text>
</g>
<!-- n31&#45;&gt;n55 -->
<g id="edge55" class="edge">
<title>n31&#45;&gt;n55</title>
<path fill="none" stroke="black" d="M1476.53,-294.06C1481.49,-291.77 1486.84,-289.58 1492,-288 1592.62,-257.21 1625.38,-282.79 1726,-252 1727.61,-251.51 1729.24,-250.95 1730.87,-250.36"/>
<polygon fill="black" stroke="black" points="1732.19,-253.6 1740.07,-246.52 1729.49,-247.14 1732.19,-253.6"/>
</g>
<!-- n35 -->
<g id="node36" class="node">
<title>n35</title>
<ellipse fill="#b2dfee" stroke="#b2dfee" cx="1314" cy="-162" rx="77.23" ry="18"/>
<text text-anchor="middle" x="1314" y="-159.5" font-family="Helvetica,sans-Serif" font-size="10.00">RECUPERAR_VARIABLE</text>
</g>
<!-- n34&#45;&gt;n35 -->
<g id="edge35" class="edge">
<title>n34&#45;&gt;n35</title>
<path fill="none" stroke="black" d="M1428.28,-219.34C1407.85,-209.26 1379.67,-195.37 1356.41,-183.91"/>
<polygon fill="black" stroke="black" points="1357.99,-180.78 1347.47,-179.5 1354.89,-187.06 1357.99,-180.78"/>
</g>
<!-- n37 -->
<g id="node38" class="node">
<title>n37</title>
<ellipse fill="#b2dfee" stroke="#b2dfee" cx="1436" cy="-162" rx="27" ry="18"/>
<text text-anchor="middle" x="1436" y="-159.5" font-family="Helvetica,sans-Serif" font-size="10.00">==</text>
</g>
<!-- n34&#45;&gt;n37 -->
<g id="edge37" class="edge">
<title>n34&#45;&gt;n37</title>
<path fill="none" stroke="black" d="M1451.06,-215.7C1448.92,-208.24 1446.38,-199.32 1443.99,-190.97"/>
<polygon fill="black" stroke="black" points="1447.42,-190.21 1441.3,-181.56 1440.68,-192.14 1447.42,-190.21"/>
</g>
<!-- n38 -->
<g id="node39" class="node">
<title>n38</title>
<ellipse fill="#b2dfee" stroke="#b2dfee" cx="1508" cy="-162" rx="27" ry="18"/>
<text text-anchor="middle" x="1508" y="-159.5" font-family="Helvetica,sans-Serif" font-size="10.00">INT</text>
</g>
<!-- n34&#45;&gt;n38 -->
<g id="edge38" class="edge">
<title>n34&#45;&gt;n38</title>
<path fill="none" stroke="black" d="M1468.32,-216.41C1474.72,-207.8 1482.66,-197.11 1489.76,-187.56"/>
<polygon fill="black" stroke="black" points="1492.42,-189.84 1495.58,-179.73 1486.8,-185.67 1492.42,-189.84"/>
</g>
<!-- n36 -->
<g id="node37" class="node">
<title>n36</title>
<ellipse fill="#b2dfee" stroke="#b2dfee" cx="1314" cy="-90" rx="27" ry="18"/>
<text text-anchor="middle" x="1314" y="-87.5" font-family="Helvetica,sans-Serif" font-size="10.00">j</text>
</g>
<!-- n35&#45;&gt;n36 -->
<g id="edge36" class="edge">
<title>n35&#45;&gt;n36</title>
<path fill="none" stroke="black" d="M1314,-143.7C1314,-136.41 1314,-127.73 1314,-119.54"/>
<polygon fill="black" stroke="black" points="1317.5,-119.62 1314,-109.62 1310.5,-119.62 1317.5,-119.62"/>
</g>
<!-- n39 -->
<g id="node40" class="node">
<title>n39</title>
<ellipse fill="#b2dfee" stroke="#b2dfee" cx="1436" cy="-90" rx="27" ry="18"/>
<text text-anchor="middle" x="1436" y="-87.5" font-family="Helvetica,sans-Serif" font-size="10.00">5</text>
</g>
<!-- n38&#45;&gt;n39 -->
<g id="edge39" class="edge">
<title>n38&#45;&gt;n39</title>
<path fill="none" stroke="black" d="M1493.08,-146.5C1483.23,-136.92 1470.14,-124.19 1458.97,-113.34"/>
<polygon fill="black" stroke="black" points="1461.59,-111 1451.98,-106.54 1456.71,-116.02 1461.59,-111"/>
</g>
<!-- n43 -->
<g id="node44" class="node">
<title>n43</title>
<ellipse fill="#b2dfee" stroke="#b2dfee" cx="1674" cy="-162" rx="32.93" ry="18"/>
<text text-anchor="middle" x="1674" y="-159.5" font-family="Helvetica,sans-Serif" font-size="10.00">PRINTLN</text>
</g>
<!-- n42&#45;&gt;n43 -->
<g id="edge43" class="edge">
<title>n42&#45;&gt;n43</title>
<path fill="none" stroke="black" d="M1686.04,-215.7C1684.36,-208.32 1682.35,-199.52 1680.46,-191.25"/>
<polygon fill="black" stroke="black" points="1683.89,-190.55 1678.25,-181.58 1677.06,-192.11 1683.89,-190.55"/>
</g>
<!-- n50 -->
<g id="node51" class="node">
<title>n50</title>
<ellipse fill="#b2dfee" stroke="#b2dfee" cx="1882" cy="-162" rx="34.29" ry="18"/>
<text text-anchor="middle" x="1882" y="-159.5" font-family="Helvetica,sans-Serif" font-size="10.00">INC_DEC</text>
</g>
<!-- n42&#45;&gt;n50 -->
<g id="edge50" class="edge">
<title>n42&#45;&gt;n50</title>
<path fill="none" stroke="black" d="M1711.14,-222.53C1715.98,-220.27 1721.13,-217.97 1726,-216 1764.9,-200.27 1810.45,-185.16 1842.25,-175.13"/>
<polygon fill="black" stroke="black" points="1842.94,-178.58 1851.44,-172.25 1840.85,-171.9 1842.94,-178.58"/>
</g>
<!-- n54 -->
<g id="node55" class="node">
<title>n54</title>
<ellipse fill="#b2dfee" stroke="#b2dfee" cx="1972" cy="-162" rx="38.03" ry="18"/>
<text text-anchor="middle" x="1972" y="-159.5" font-family="Helvetica,sans-Serif" font-size="10.00">CONTINUE</text>
</g>
<!-- n42&#45;&gt;n54 -->
<g id="edge54" class="edge">
<title>n42&#45;&gt;n54</title>
<path fill="none" stroke="black" d="M1710.56,-222.16C1715.52,-219.87 1720.87,-217.65 1726,-216 1811.59,-188.57 1838.21,-203.37 1925,-180 1927.55,-179.31 1930.15,-178.55 1932.76,-177.74"/>
<polygon fill="black" stroke="black" points="1933.59,-181.15 1941.98,-174.68 1931.38,-174.51 1933.59,-181.15"/>
</g>
<!-- n44 -->
<g id="node45" class="node">
<title>n44</title>
<ellipse fill="#b2dfee" stroke="#b2dfee" cx="1508" cy="-90" rx="27" ry="18"/>
<text text-anchor="middle" x="1508" y="-87.5" font-family="Helvetica,sans-Serif" font-size="10.00">Println</text>
</g>
<!-- n43&#45;&gt;n44 -->
<g id="edge44" class="edge">
<title>n43&#45;&gt;n44</title>
<path fill="none" stroke="black" d="M1647.93,-150.85C1621.56,-140.47 1579.7,-123.69 1544,-108 1542.5,-107.34 1540.96,-106.66 1539.42,-105.96"/>
<polygon fill="black" stroke="black" points="1541.15,-102.9 1530.61,-101.89 1538.22,-109.26 1541.15,-102.9"/>
</g>
<!-- n45 -->
<g id="node46" class="node">
<title>n45</title>
<ellipse fill="#b2dfee" stroke="#b2dfee" cx="1580" cy="-90" rx="27" ry="18"/>
<text text-anchor="middle" x="1580" y="-87.5" font-family="Helvetica,sans-Serif" font-size="10.00">(</text>
</g>
<!-- n43&#45;&gt;n45 -->
<g id="edge45" class="edge">
<title>n43&#45;&gt;n45</title>
<path fill="none" stroke="black" d="M1654.98,-146.83C1641.03,-136.45 1621.91,-122.21 1606.47,-110.71"/>
<polygon fill="black" stroke="black" points="1608.73,-108.03 1598.62,-104.87 1604.55,-113.65 1608.73,-108.03"/>
</g>
<!-- n46 -->
<g id="node47" class="node">
<title>n46</title>
<ellipse fill="#b2dfee" stroke="#b2dfee" cx="1659" cy="-90" rx="33.61" ry="18"/>
<text text-anchor="middle" x="1659" y="-87.5" font-family="Helvetica,sans-Serif" font-size="10.00">CADENA</text>
</g>
<!-- n43&#45;&gt;n46 -->
<g id="edge46" class="edge">
<title>n43&#45;&gt;n46</title>
<path fill="none" stroke="black" d="M1670.29,-143.7C1668.71,-136.32 1666.83,-127.52 1665.05,-119.25"/>
<polygon fill="black" stroke="black" points="1668.5,-118.63 1662.98,-109.58 1661.66,-120.1 1668.5,-118.63"/>
</g>
<!-- n48 -->
<g id="node49" class="node">
<title>n48</title>
<ellipse fill="#b2dfee" stroke="#b2dfee" cx="1738" cy="-90" rx="27" ry="18"/>
<text text-anchor="middle" x="1738" y="-87.5" font-family="Helvetica,sans-Serif" font-size="10.00">)</text>
</g>
<!-- n43&#45;&gt;n48 -->
<g id="edge48" class="edge">
<title>n43&#45;&gt;n48</title>
<path fill="none" stroke="black" d="M1688.2,-145.46C1696.52,-136.37 1707.19,-124.7 1716.52,-114.5"/>
<polygon fill="black" stroke="black" points="1719.09,-116.87 1723.25,-107.13 1713.92,-112.15 1719.09,-116.87"/>
</g>
<!-- n49 -->
<g id="node50" class="node">
<title>n49</title>
<ellipse fill="#b2dfee" stroke="#b2dfee" cx="1810" cy="-90" rx="27" ry="18"/>
<text text-anchor="middle" x="1810" y="-87.5" font-family="Helvetica,sans-Serif" font-size="10.00">;</text>
</g>
<!-- n43&#45;&gt;n49 -->
<g id="edge49" class="edge">
<title>n43&#45;&gt;n49</title>
<path fill="none" stroke="black" d="M1697.38,-148.97C1719.97,-137.34 1754.33,-119.65 1779.16,-106.87"/>
<polygon fill="black" stroke="black" points="1780.52,-110.11 1787.81,-102.42 1777.31,-103.89 1780.52,-110.11"/>
</g>
<!-- n47 -->
<g id="node48" class="node">
<title>n47</title>
<ellipse fill="#b2dfee" stroke="#b2dfee" cx="1659" cy="-18" rx="70.1" ry="18"/>
<text text-anchor="middle" x="1659" y="-15.5" font-family="Helvetica,sans-Serif" font-size="10.00">Continuar cuando j es 5</text>
</g>
<!-- n46&#45;&gt;n47 -->
<g id="edge47" class="edge">
<title>n46&#45;&gt;n47</title>
<path fill="none" stroke="black" d="M1659,-71.7C1659,-64.41 1659,-55.73 1659,-47.54"/>
<polygon fill="black" stroke="black" points="1662.5,-47.62 1659,-37.62 1655.5,-47.62 1662.5,-47.62"/>
</g>
<!-- n51 -->
<g id="node52" class="node">
<title>n51</title>
<ellipse fill="#b2dfee" stroke="#b2dfee" cx="1882" cy="-90" rx="27" ry="18"/>
<text text-anchor="middle" x="1882" y="-87.5" font-family="Helvetica,sans-Serif" font-size="10.00">j</text>
</g>
<!-- n50&#45;&gt;n51 -->
<g id="edge51" class="edge">
<title>n50&#45;&gt;n51</title>
<path fill="none" stroke="black" d="M1882,-143.7C1882,-136.41 1882,-127.73 1882,-119.54"/>
<polygon fill="black" stroke="black" points="1885.5,-119.62 1882,-109.62 1878.5,-119.62 1885.5,-119.62"/>
</g>
<!-- n52 -->
<g id="node53" class="node">
<title>n52</title>
<ellipse fill="#b2dfee" stroke="#b2dfee" cx="1954" cy="-90" rx="27" ry="18"/>
<text text-anchor="middle" x="1954" y="-87.5" font-family="Helvetica,sans-Serif" font-size="10.00">++</text>
</g>
<!-- n50&#45;&gt;n52 -->
<g id="edge52" class="edge">
<title>n50&#45;&gt;n52</title>
<path fill="none" stroke="black" d="M1897.62,-145.81C1907.51,-136.2 1920.46,-123.61 1931.45,-112.93"/>
<polygon fill="black" stroke="black" points="1933.57,-115.74 1938.3,-106.26 1928.69,-110.72 1933.57,-115.74"/>
</g>
<!-- n53 -->
<g id="node54" class="node">
<title>n53</title>
<ellipse fill="#b2dfee" stroke="#b2dfee" cx="2026" cy="-90" rx="27" ry="18"/>
<text text-anchor="middle" x="2026" y="-87.5" font-family="Helvetica,sans-Serif" font-size="10.00">;</text>
</g>
<!-- n50&#45;&gt;n53 -->
<g id="edge53" class="edge">
<title>n50&#45;&gt;n53</title>
<path fill="none" stroke="black" d="M1906.43,-149.13C1930.69,-137.33 1967.99,-119.2 1994.48,-106.32"/>
<polygon fill="black" stroke="black" points="1995.92,-109.51 2003.38,-102 1992.86,-103.22 1995.92,-109.51"/>
</g>
<!-- n58 -->
<g id="node59" class="node">
<title>n58</title>
<ellipse fill="#b2dfee" stroke="#b2dfee" cx="1834" cy="-234" rx="27" ry="18"/>
<text text-anchor="middle" x="1834" y="-231.5" font-family="Helvetica,sans-Serif" font-size="10.00">j</text>
</g>
<!-- n57&#45;&gt;n58 -->
<g id="edge58" class="edge">
<title>n57&#45;&gt;n58</title>
<path fill="none" stroke="black" d="M1834,-287.7C1834,-280.41 1834,-271.73 1834,-263.54"/>
<polygon fill="black" stroke="black" points="1837.5,-263.62 1834,-253.62 1830.5,-263.62 1837.5,-263.62"/>
</g>
<!-- n59 -->
<g id="node60" class="node">
<title>n59</title>
<ellipse fill="#b2dfee" stroke="#b2dfee" cx="1906" cy="-234" rx="27" ry="18"/>
<text text-anchor="middle" x="1906" y="-231.5" font-family="Helvetica,sans-Serif" font-size="10.00">++</text>
</g>
<!-- n57&#45;&gt;n59 -->
<g id="edge59" class="edge">
<title>n57&#45;&gt;n59</title>
<path fill="none" stroke="black" d="M1849.62,-289.81C1859.51,-280.2 1872.46,-267.61 1883.45,-256.93"/>
<polygon fill="black" stroke="black" points="1885.57,-259.74 1890.3,-250.26 1880.69,-254.72 1885.57,-259.74"/>
</g>
<!-- n60 -->
<g id="node61" class="node">
<title>n60</title>
<ellipse fill="#b2dfee" stroke="#b2dfee" cx="1978" cy="-234" rx="27" ry="18"/>
<text text-anchor="middle" x="1978" y="-231.5" font-family="Helvetica,sans-Serif" font-size="10.00">;</text>
</g>
<!-- n57&#45;&gt;n60 -->
<g id="edge60" class="edge">
<title>n57&#45;&gt;n60</title>
<path fill="none" stroke="black" d="M1858.43,-293.13C1882.69,-281.33 1919.99,-263.2 1946.48,-250.32"/>
<polygon fill="black" stroke="black" points="1947.92,-253.51 1955.38,-246 1944.86,-247.22 1947.92,-253.51"/>
</g>
</g>
</svg>
