<?xml version="1.0" encoding="UTF-8" standalone="no"?>
<!DOCTYPE svg PUBLIC "-//W3C//DTD SVG 1.1//EN"
 "http://www.w3.org/Graphics/SVG/1.1/DTD/svg11.dtd">
<!-- Generated by graphviz version 7.1.0 (20230121.1956)
 -->
<!-- Title: arbolAST Pages: 1 -->
<svg width="1844pt" height="332pt"
 viewBox="0.00 0.00 1844.00 332.00" xmlns="http://www.w3.org/2000/svg" xmlns:xlink="http://www.w3.org/1999/xlink">
<g id="graph0" class="graph" transform="scale(1 1) rotate(0) translate(4 328)">
<title>arbolAST</title>
<polygon fill="white" stroke="none" points="-4,4 -4,-328 1840,-328 1840,4 -4,4"/>
<!-- n0 -->
<g id="node1" class="node">
<title>n0</title>
<ellipse fill="#b2dfee" stroke="#b2dfee" cx="881" cy="-306" rx="27" ry="18"/>
<text text-anchor="middle" x="881" y="-303.5" font-family="Helvetica,sans-Serif" font-size="10.00">INICIO</text>
</g>
<!-- n1 -->
<g id="node2" class="node">
<title>n1</title>
<ellipse fill="#b2dfee" stroke="#b2dfee" cx="881" cy="-234" rx="55.85" ry="18"/>
<text text-anchor="middle" x="881" y="-231.5" font-family="Helvetica,sans-Serif" font-size="10.00">INSTRUCCIONES</text>
</g>
<!-- n0&#45;&gt;n1 -->
<g id="edge1" class="edge">
<title>n0&#45;&gt;n1</title>
<path fill="none" stroke="black" d="M881,-287.7C881,-280.41 881,-271.73 881,-263.54"/>
<polygon fill="black" stroke="black" points="884.5,-263.62 881,-253.62 877.5,-263.62 884.5,-263.62"/>
</g>
<!-- n2 -->
<g id="node3" class="node">
<title>n2</title>
<ellipse fill="#b2dfee" stroke="#b2dfee" cx="279" cy="-162" rx="55.17" ry="18"/>
<text text-anchor="middle" x="279" y="-159.5" font-family="Helvetica,sans-Serif" font-size="10.00">DECLARA_LISTA</text>
</g>
<!-- n1&#45;&gt;n2 -->
<g id="edge2" class="edge">
<title>n1&#45;&gt;n2</title>
<path fill="none" stroke="black" d="M829.15,-226.97C718.78,-214.14 460.92,-184.15 341.61,-170.28"/>
<polygon fill="black" stroke="black" points="342.35,-166.84 332.01,-169.16 341.54,-173.8 342.35,-166.84"/>
</g>
<!-- n10 -->
<g id="node11" class="node">
<title>n10</title>
<ellipse fill="#b2dfee" stroke="#b2dfee" cx="701" cy="-162" rx="52.28" ry="18"/>
<text text-anchor="middle" x="701" y="-159.5" font-family="Helvetica,sans-Serif" font-size="10.00">APPEND_LISTA</text>
</g>
<!-- n1&#45;&gt;n10 -->
<g id="edge10" class="edge">
<title>n1&#45;&gt;n10</title>
<path fill="none" stroke="black" d="M846.29,-219.5C817.51,-208.31 776.4,-192.32 745.25,-180.21"/>
<polygon fill="black" stroke="black" points="746.68,-177.01 736.1,-176.65 744.15,-183.53 746.68,-177.01"/>
</g>
<!-- n16 -->
<g id="node17" class="node">
<title>n16</title>
<ellipse fill="#b2dfee" stroke="#b2dfee" cx="1061" cy="-162" rx="58.06" ry="18"/>
<text text-anchor="middle" x="1061" y="-159.5" font-family="Helvetica,sans-Serif" font-size="10.00">ASIG_ARREGLOS</text>
</g>
<!-- n1&#45;&gt;n16 -->
<g id="edge16" class="edge">
<title>n1&#45;&gt;n16</title>
<path fill="none" stroke="black" d="M915.71,-219.5C944.04,-208.49 984.3,-192.83 1015.26,-180.79"/>
<polygon fill="black" stroke="black" points="1016.32,-184.13 1024.38,-177.24 1013.79,-177.61 1016.32,-184.13"/>
</g>
<!-- n27 -->
<g id="node28" class="node">
<title>n27</title>
<ellipse fill="#b2dfee" stroke="#b2dfee" cx="1554" cy="-162" rx="32.93" ry="18"/>
<text text-anchor="middle" x="1554" y="-159.5" font-family="Helvetica,sans-Serif" font-size="10.00">PRINTLN</text>
</g>
<!-- n1&#45;&gt;n27 -->
<g id="edge27" class="edge">
<title>n1&#45;&gt;n27</title>
<path fill="none" stroke="black" d="M933.53,-227.54C1062.26,-214.15 1391.62,-179.89 1510.43,-167.53"/>
<polygon fill="black" stroke="black" points="1510.5,-171.04 1520.08,-166.53 1509.77,-164.08 1510.5,-171.04"/>
</g>
<!-- n3 -->
<g id="node4" class="node">
<title>n3</title>
<ellipse fill="#b2dfee" stroke="#b2dfee" cx="27" cy="-90" rx="27" ry="18"/>
<text text-anchor="middle" x="27" y="-87.5" font-family="Helvetica,sans-Serif" font-size="10.00">List&lt;</text>
</g>
<!-- n2&#45;&gt;n3 -->
<g id="edge3" class="edge">
<title>n2&#45;&gt;n3</title>
<path fill="none" stroke="black" d="M231.86,-152.28C187.56,-143.41 119.77,-128.14 63,-108 61.45,-107.45 59.88,-106.86 58.31,-106.23"/>
<polygon fill="black" stroke="black" points="59.98,-103.14 49.41,-102.39 57.2,-109.57 59.98,-103.14"/>
</g>
<!-- n4 -->
<g id="node5" class="node">
<title>n4</title>
<ellipse fill="#b2dfee" stroke="#b2dfee" cx="99" cy="-90" rx="27" ry="18"/>
<text text-anchor="middle" x="99" y="-87.5" font-family="Helvetica,sans-Serif" font-size="10.00">INT</text>
</g>
<!-- n2&#45;&gt;n4 -->
<g id="edge4" class="edge">
<title>n2&#45;&gt;n4</title>
<path fill="none" stroke="black" d="M241.96,-148.38C212.66,-138.16 170.87,-123.04 135,-108 133.49,-107.37 131.94,-106.7 130.39,-106.02"/>
<polygon fill="black" stroke="black" points="132.11,-102.96 121.56,-102.01 129.21,-109.33 132.11,-102.96"/>
</g>
<!-- n5 -->
<g id="node6" class="node">
<title>n5</title>
<ellipse fill="#b2dfee" stroke="#b2dfee" cx="171" cy="-90" rx="27" ry="18"/>
<text text-anchor="middle" x="171" y="-87.5" font-family="Helvetica,sans-Serif" font-size="10.00">&gt;</text>
</g>
<!-- n2&#45;&gt;n5 -->
<g id="edge5" class="edge">
<title>n2&#45;&gt;n5</title>
<path fill="none" stroke="black" d="M255.03,-145.46C238.62,-134.82 216.77,-120.67 199.47,-109.45"/>
<polygon fill="black" stroke="black" points="201.45,-106.56 191.15,-104.06 197.64,-112.44 201.45,-106.56"/>
</g>
<!-- n6 -->
<g id="node7" class="node">
<title>n6</title>
<ellipse fill="#b2dfee" stroke="#b2dfee" cx="243" cy="-90" rx="27" ry="18"/>
<text text-anchor="middle" x="243" y="-87.5" font-family="Helvetica,sans-Serif" font-size="10.00">milista</text>
</g>
<!-- n2&#45;&gt;n6 -->
<g id="edge6" class="edge">
<title>n2&#45;&gt;n6</title>
<path fill="none" stroke="black" d="M270.29,-144.05C266.16,-136.03 261.13,-126.26 256.52,-117.3"/>
<polygon fill="black" stroke="black" points="259.76,-115.95 252.08,-108.65 253.54,-119.15 259.76,-115.95"/>
</g>
<!-- n7 -->
<g id="node8" class="node">
<title>n7</title>
<ellipse fill="#b2dfee" stroke="#b2dfee" cx="315" cy="-90" rx="27" ry="18"/>
<text text-anchor="middle" x="315" y="-87.5" font-family="Helvetica,sans-Serif" font-size="10.00">=</text>
</g>
<!-- n2&#45;&gt;n7 -->
<g id="edge7" class="edge">
<title>n2&#45;&gt;n7</title>
<path fill="none" stroke="black" d="M287.71,-144.05C291.84,-136.03 296.87,-126.26 301.48,-117.3"/>
<polygon fill="black" stroke="black" points="304.46,-119.15 305.92,-108.65 298.24,-115.95 304.46,-119.15"/>
</g>
<!-- n8 -->
<g id="node9" class="node">
<title>n8</title>
<ellipse fill="#b2dfee" stroke="#b2dfee" cx="395" cy="-90" rx="34.96" ry="18"/>
<text text-anchor="middle" x="395" y="-87.5" font-family="Helvetica,sans-Serif" font-size="10.00">new List()</text>
</g>
<!-- n2&#45;&gt;n8 -->
<g id="edge8" class="edge">
<title>n2&#45;&gt;n8</title>
<path fill="none" stroke="black" d="M304.46,-145.64C321.79,-135.18 344.85,-121.26 363.36,-110.09"/>
<polygon fill="black" stroke="black" points="365.07,-113.15 371.82,-104.99 361.45,-107.16 365.07,-113.15"/>
</g>
<!-- n9 -->
<g id="node10" class="node">
<title>n9</title>
<ellipse fill="#b2dfee" stroke="#b2dfee" cx="475" cy="-90" rx="27" ry="18"/>
<text text-anchor="middle" x="475" y="-87.5" font-family="Helvetica,sans-Serif" font-size="10.00">;</text>
</g>
<!-- n2&#45;&gt;n9 -->
<g id="edge9" class="edge">
<title>n2&#45;&gt;n9</title>
<path fill="none" stroke="black" d="M318.93,-149.25C351.6,-139.29 398.79,-124.08 439,-108 440.52,-107.39 442.08,-106.75 443.64,-106.08"/>
<polygon fill="black" stroke="black" points="444.79,-109.4 452.49,-102.12 441.93,-103.01 444.79,-109.4"/>
</g>
<!-- n11 -->
<g id="node12" class="node">
<title>n11</title>
<ellipse fill="#b2dfee" stroke="#b2dfee" cx="547" cy="-90" rx="27" ry="18"/>
<text text-anchor="middle" x="547" y="-87.5" font-family="Helvetica,sans-Serif" font-size="10.00">milista</text>
</g>
<!-- n10&#45;&gt;n11 -->
<g id="edge11" class="edge">
<title>n10&#45;&gt;n11</title>
<path fill="none" stroke="black" d="M669.87,-147.21C646.04,-136.61 612.37,-121.53 583,-108 581.69,-107.4 580.36,-106.78 579.02,-106.16"/>
<polygon fill="black" stroke="black" points="580.58,-103.03 570.04,-101.96 577.62,-109.37 580.58,-103.03"/>
</g>
<!-- n12 -->
<g id="node13" class="node">
<title>n12</title>
<ellipse fill="#b2dfee" stroke="#b2dfee" cx="624" cy="-90" rx="31.58" ry="18"/>
<text text-anchor="middle" x="624" y="-87.5" font-family="Helvetica,sans-Serif" font-size="10.00">.append(</text>
</g>
<!-- n10&#45;&gt;n12 -->
<g id="edge12" class="edge">
<title>n10&#45;&gt;n12</title>
<path fill="none" stroke="black" d="M683.14,-144.76C672.9,-135.46 659.9,-123.64 648.7,-113.46"/>
<polygon fill="black" stroke="black" points="651.06,-110.87 641.31,-106.74 646.35,-116.05 651.06,-110.87"/>
</g>
<!-- n13 -->
<g id="node14" class="node">
<title>n13</title>
<ellipse fill="#b2dfee" stroke="#b2dfee" cx="701" cy="-90" rx="27" ry="18"/>
<text text-anchor="middle" x="701" y="-87.5" font-family="Helvetica,sans-Serif" font-size="10.00">INT</text>
</g>
<!-- n10&#45;&gt;n13 -->
<g id="edge13" class="edge">
<title>n10&#45;&gt;n13</title>
<path fill="none" stroke="black" d="M701,-143.7C701,-136.41 701,-127.73 701,-119.54"/>
<polygon fill="black" stroke="black" points="704.5,-119.62 701,-109.62 697.5,-119.62 704.5,-119.62"/>
</g>
<!-- n15 -->
<g id="node16" class="node">
<title>n15</title>
<ellipse fill="#b2dfee" stroke="#b2dfee" cx="773" cy="-90" rx="27" ry="18"/>
<text text-anchor="middle" x="773" y="-87.5" font-family="Helvetica,sans-Serif" font-size="10.00">);</text>
</g>
<!-- n10&#45;&gt;n15 -->
<g id="edge15" class="edge">
<title>n10&#45;&gt;n15</title>
<path fill="none" stroke="black" d="M717.7,-144.76C727.4,-135.33 739.76,-123.32 750.33,-113.04"/>
<polygon fill="black" stroke="black" points="752.53,-115.79 757.26,-106.3 747.65,-110.77 752.53,-115.79"/>
</g>
<!-- n14 -->
<g id="node15" class="node">
<title>n14</title>
<ellipse fill="#b2dfee" stroke="#b2dfee" cx="701" cy="-18" rx="27" ry="18"/>
<text text-anchor="middle" x="701" y="-15.5" font-family="Helvetica,sans-Serif" font-size="10.00">1</text>
</g>
<!-- n13&#45;&gt;n14 -->
<g id="edge14" class="edge">
<title>n13&#45;&gt;n14</title>
<path fill="none" stroke="black" d="M701,-71.7C701,-64.41 701,-55.73 701,-47.54"/>
<polygon fill="black" stroke="black" points="704.5,-47.62 701,-37.62 697.5,-47.62 704.5,-47.62"/>
</g>
<!-- n17 -->
<g id="node18" class="node">
<title>n17</title>
<ellipse fill="#b2dfee" stroke="#b2dfee" cx="845" cy="-90" rx="27" ry="18"/>
<text text-anchor="middle" x="845" y="-87.5" font-family="Helvetica,sans-Serif" font-size="10.00">ASIG</text>
</g>
<!-- n16&#45;&gt;n17 -->
<g id="edge17" class="edge">
<title>n16&#45;&gt;n17</title>
<path fill="none" stroke="black" d="M1016.72,-150.01C979.9,-140.39 926.36,-125.27 881,-108 879.47,-107.42 877.91,-106.79 876.34,-106.15"/>
<polygon fill="black" stroke="black" points="878.03,-103.07 867.47,-102.23 875.21,-109.47 878.03,-103.07"/>
</g>
<!-- n18 -->
<g id="node19" class="node">
<title>n18</title>
<ellipse fill="#b2dfee" stroke="#b2dfee" cx="917" cy="-90" rx="27" ry="18"/>
<text text-anchor="middle" x="917" y="-87.5" font-family="Helvetica,sans-Serif" font-size="10.00">milista</text>
</g>
<!-- n16&#45;&gt;n18 -->
<g id="edge18" class="edge">
<title>n16&#45;&gt;n18</title>
<path fill="none" stroke="black" d="M1030.81,-146.33C1006.67,-134.59 972.94,-118.19 948.47,-106.3"/>
<polygon fill="black" stroke="black" points="950.16,-103.23 939.64,-102 947.1,-109.52 950.16,-103.23"/>
</g>
<!-- n19 -->
<g id="node20" class="node">
<title>n19</title>
<ellipse fill="#b2dfee" stroke="#b2dfee" cx="989" cy="-90" rx="27" ry="18"/>
<text text-anchor="middle" x="989" y="-87.5" font-family="Helvetica,sans-Serif" font-size="10.00">[</text>
</g>
<!-- n16&#45;&gt;n19 -->
<g id="edge19" class="edge">
<title>n16&#45;&gt;n19</title>
<path fill="none" stroke="black" d="M1043.94,-144.41C1034.32,-135.06 1022.18,-123.26 1011.77,-113.13"/>
<polygon fill="black" stroke="black" points="1014.21,-110.62 1004.6,-106.16 1009.33,-115.64 1014.21,-110.62"/>
</g>
<!-- n20 -->
<g id="node21" class="node">
<title>n20</title>
<ellipse fill="#b2dfee" stroke="#b2dfee" cx="1061" cy="-90" rx="27" ry="18"/>
<text text-anchor="middle" x="1061" y="-87.5" font-family="Helvetica,sans-Serif" font-size="10.00">INT</text>
</g>
<!-- n16&#45;&gt;n20 -->
<g id="edge20" class="edge">
<title>n16&#45;&gt;n20</title>
<path fill="none" stroke="black" d="M1061,-143.7C1061,-136.41 1061,-127.73 1061,-119.54"/>
<polygon fill="black" stroke="black" points="1064.5,-119.62 1061,-109.62 1057.5,-119.62 1064.5,-119.62"/>
</g>
<!-- n22 -->
<g id="node23" class="node">
<title>n22</title>
<ellipse fill="#b2dfee" stroke="#b2dfee" cx="1133" cy="-90" rx="27" ry="18"/>
<text text-anchor="middle" x="1133" y="-87.5" font-family="Helvetica,sans-Serif" font-size="10.00">]</text>
</g>
<!-- n16&#45;&gt;n22 -->
<g id="edge22" class="edge">
<title>n16&#45;&gt;n22</title>
<path fill="none" stroke="black" d="M1078.06,-144.41C1087.68,-135.06 1099.82,-123.26 1110.23,-113.13"/>
<polygon fill="black" stroke="black" points="1112.67,-115.64 1117.4,-106.16 1107.79,-110.62 1112.67,-115.64"/>
</g>
<!-- n23 -->
<g id="node24" class="node">
<title>n23</title>
<ellipse fill="#b2dfee" stroke="#b2dfee" cx="1205" cy="-90" rx="27" ry="18"/>
<text text-anchor="middle" x="1205" y="-87.5" font-family="Helvetica,sans-Serif" font-size="10.00">=</text>
</g>
<!-- n16&#45;&gt;n23 -->
<g id="edge23" class="edge">
<title>n16&#45;&gt;n23</title>
<path fill="none" stroke="black" d="M1091.19,-146.33C1115.33,-134.59 1149.06,-118.19 1173.53,-106.3"/>
<polygon fill="black" stroke="black" points="1174.9,-109.52 1182.36,-102 1171.84,-103.23 1174.9,-109.52"/>
</g>
<!-- n24 -->
<g id="node25" class="node">
<title>n24</title>
<ellipse fill="#b2dfee" stroke="#b2dfee" cx="1277" cy="-90" rx="27" ry="18"/>
<text text-anchor="middle" x="1277" y="-87.5" font-family="Helvetica,sans-Serif" font-size="10.00">INT</text>
</g>
<!-- n16&#45;&gt;n24 -->
<g id="edge24" class="edge">
<title>n16&#45;&gt;n24</title>
<path fill="none" stroke="black" d="M1105.28,-150.01C1142.1,-140.39 1195.64,-125.27 1241,-108 1242.53,-107.42 1244.09,-106.79 1245.66,-106.15"/>
<polygon fill="black" stroke="black" points="1246.79,-109.47 1254.53,-102.23 1243.97,-103.07 1246.79,-109.47"/>
</g>
<!-- n26 -->
<g id="node27" class="node">
<title>n26</title>
<ellipse fill="#b2dfee" stroke="#b2dfee" cx="1349" cy="-90" rx="27" ry="18"/>
<text text-anchor="middle" x="1349" y="-87.5" font-family="Helvetica,sans-Serif" font-size="10.00">;</text>
</g>
<!-- n16&#45;&gt;n26 -->
<g id="edge26" class="edge">
<title>n16&#45;&gt;n26</title>
<path fill="none" stroke="black" d="M1113.1,-153.69C1164.73,-145.61 1245.62,-130.65 1313,-108 1314.56,-107.48 1316.13,-106.9 1317.71,-106.3"/>
<polygon fill="black" stroke="black" points="1318.8,-109.64 1326.63,-102.51 1316.05,-103.2 1318.8,-109.64"/>
</g>
<!-- n21 -->
<g id="node22" class="node">
<title>n21</title>
<ellipse fill="#b2dfee" stroke="#b2dfee" cx="1061" cy="-18" rx="27" ry="18"/>
<text text-anchor="middle" x="1061" y="-15.5" font-family="Helvetica,sans-Serif" font-size="10.00">0</text>
</g>
<!-- n20&#45;&gt;n21 -->
<g id="edge21" class="edge">
<title>n20&#45;&gt;n21</title>
<path fill="none" stroke="black" d="M1061,-71.7C1061,-64.41 1061,-55.73 1061,-47.54"/>
<polygon fill="black" stroke="black" points="1064.5,-47.62 1061,-37.62 1057.5,-47.62 1064.5,-47.62"/>
</g>
<!-- n25 -->
<g id="node26" class="node">
<title>n25</title>
<ellipse fill="#b2dfee" stroke="#b2dfee" cx="1277" cy="-18" rx="27" ry="18"/>
<text text-anchor="middle" x="1277" y="-15.5" font-family="Helvetica,sans-Serif" font-size="10.00">2</text>
</g>
<!-- n24&#45;&gt;n25 -->
<g id="edge25" class="edge">
<title>n24&#45;&gt;n25</title>
<path fill="none" stroke="black" d="M1277,-71.7C1277,-64.41 1277,-55.73 1277,-47.54"/>
<polygon fill="black" stroke="black" points="1280.5,-47.62 1277,-37.62 1273.5,-47.62 1280.5,-47.62"/>
</g>
<!-- n28 -->
<g id="node29" class="node">
<title>n28</title>
<ellipse fill="#b2dfee" stroke="#b2dfee" cx="1421" cy="-90" rx="27" ry="18"/>
<text text-anchor="middle" x="1421" y="-87.5" font-family="Helvetica,sans-Serif" font-size="10.00">Println</text>
</g>
<!-- n27&#45;&gt;n28 -->
<g id="edge28" class="edge">
<title>n27&#45;&gt;n28</title>
<path fill="none" stroke="black" d="M1530.83,-148.81C1508.92,-137.27 1475.89,-119.89 1451.77,-107.2"/>
<polygon fill="black" stroke="black" points="1453.54,-104.17 1443.06,-102.61 1450.28,-110.36 1453.54,-104.17"/>
</g>
<!-- n29 -->
<g id="node30" class="node">
<title>n29</title>
<ellipse fill="#b2dfee" stroke="#b2dfee" cx="1493" cy="-90" rx="27" ry="18"/>
<text text-anchor="middle" x="1493" y="-87.5" font-family="Helvetica,sans-Serif" font-size="10.00">(</text>
</g>
<!-- n27&#45;&gt;n29 -->
<g id="edge29" class="edge">
<title>n27&#45;&gt;n29</title>
<path fill="none" stroke="black" d="M1540.46,-145.46C1532.54,-136.37 1522.37,-124.7 1513.48,-114.5"/>
<polygon fill="black" stroke="black" points="1516.28,-112.39 1507.08,-107.15 1511.01,-116.99 1516.28,-112.39"/>
</g>
<!-- n30 -->
<g id="node31" class="node">
<title>n30</title>
<ellipse fill="#b2dfee" stroke="#b2dfee" cx="1615" cy="-90" rx="77.23" ry="18"/>
<text text-anchor="middle" x="1615" y="-87.5" font-family="Helvetica,sans-Serif" font-size="10.00">RECUPERAR_VARIABLE</text>
</g>
<!-- n27&#45;&gt;n30 -->
<g id="edge30" class="edge">
<title>n27&#45;&gt;n30</title>
<path fill="none" stroke="black" d="M1567.54,-145.46C1574.95,-136.95 1584.33,-126.19 1592.79,-116.48"/>
<polygon fill="black" stroke="black" points="1595.29,-118.94 1599.22,-109.1 1590.02,-114.34 1595.29,-118.94"/>
</g>
<!-- n32 -->
<g id="node33" class="node">
<title>n32</title>
<ellipse fill="#b2dfee" stroke="#b2dfee" cx="1737" cy="-90" rx="27" ry="18"/>
<text text-anchor="middle" x="1737" y="-87.5" font-family="Helvetica,sans-Serif" font-size="10.00">)</text>
</g>
<!-- n27&#45;&gt;n32 -->
<g id="edge32" class="edge">
<title>n27&#45;&gt;n32</title>
<path fill="none" stroke="black" d="M1581.66,-151.9C1611.44,-141.91 1660.04,-125.01 1701,-108 1702.52,-107.37 1704.06,-106.71 1705.62,-106.03"/>
<polygon fill="black" stroke="black" points="1706.79,-109.35 1714.45,-102.03 1703.9,-102.97 1706.79,-109.35"/>
</g>
<!-- n33 -->
<g id="node34" class="node">
<title>n33</title>
<ellipse fill="#b2dfee" stroke="#b2dfee" cx="1809" cy="-90" rx="27" ry="18"/>
<text text-anchor="middle" x="1809" y="-87.5" font-family="Helvetica,sans-Serif" font-size="10.00">;</text>
</g>
<!-- n27&#45;&gt;n33 -->
<g id="edge33" class="edge">
<title>n27&#45;&gt;n33</title>
<path fill="none" stroke="black" d="M1585.04,-155.56C1628.01,-147.56 1707.71,-131.05 1773,-108 1774.55,-107.45 1776.12,-106.86 1777.69,-106.24"/>
<polygon fill="black" stroke="black" points="1778.8,-109.58 1786.59,-102.4 1776.02,-103.15 1778.8,-109.58"/>
</g>
<!-- n31 -->
<g id="node32" class="node">
<title>n31</title>
<ellipse fill="#b2dfee" stroke="#b2dfee" cx="1615" cy="-18" rx="27" ry="18"/>
<text text-anchor="middle" x="1615" y="-15.5" font-family="Helvetica,sans-Serif" font-size="10.00">milista</text>
</g>
<!-- n30&#45;&gt;n31 -->
<g id="edge31" class="edge">
<title>n30&#45;&gt;n31</title>
<path fill="none" stroke="black" d="M1615,-71.7C1615,-64.41 1615,-55.73 1615,-47.54"/>
<polygon fill="black" stroke="black" points="1618.5,-47.62 1615,-37.62 1611.5,-47.62 1618.5,-47.62"/>
</g>
</g>
</svg>
