<?xml version="1.0" encoding="UTF-8" standalone="no"?>
<!DOCTYPE svg PUBLIC "-//W3C//DTD SVG 1.1//EN"
 "http://www.w3.org/Graphics/SVG/1.1/DTD/svg11.dtd">
<!-- Generated by graphviz version 7.1.0 (20230121.1956)
 -->
<!-- Title: arbolAST Pages: 1 -->
<svg width="1204pt" height="404pt"
 viewBox="0.00 0.00 1204.00 404.00" xmlns="http://www.w3.org/2000/svg" xmlns:xlink="http://www.w3.org/1999/xlink">
<g id="graph0" class="graph" transform="scale(1 1) rotate(0) translate(4 400)">
<title>arbolAST</title>
<polygon fill="white" stroke="none" points="-4,4 -4,-400 1200,-400 1200,4 -4,4"/>
<!-- n0 -->
<g id="node1" class="node">
<title>n0</title>
<ellipse fill="#b2dfee" stroke="#b2dfee" cx="637" cy="-378" rx="27" ry="18"/>
<text text-anchor="middle" x="637" y="-375.5" font-family="Helvetica,sans-Serif" font-size="10.00">INICIO</text>
</g>
<!-- n1 -->
<g id="node2" class="node">
<title>n1</title>
<ellipse fill="#b2dfee" stroke="#b2dfee" cx="637" cy="-306" rx="55.85" ry="18"/>
<text text-anchor="middle" x="637" y="-303.5" font-family="Helvetica,sans-Serif" font-size="10.00">INSTRUCCIONES</text>
</g>
<!-- n0&#45;&gt;n1 -->
<g id="edge1" class="edge">
<title>n0&#45;&gt;n1</title>
<path fill="none" stroke="black" d="M637,-359.7C637,-352.41 637,-343.73 637,-335.54"/>
<polygon fill="black" stroke="black" points="640.5,-335.62 637,-325.62 633.5,-335.62 640.5,-335.62"/>
</g>
<!-- n2 -->
<g id="node3" class="node">
<title>n2</title>
<ellipse fill="#b2dfee" stroke="#b2dfee" cx="279" cy="-234" rx="85.89" ry="18"/>
<text text-anchor="middle" x="279" y="-231.5" font-family="Helvetica,sans-Serif" font-size="10.00">DECLARACION_VARIABLES</text>
</g>
<!-- n1&#45;&gt;n2 -->
<g id="edge2" class="edge">
<title>n1&#45;&gt;n2</title>
<path fill="none" stroke="black" d="M590.2,-295.85C529.39,-283.96 422.59,-263.08 351.32,-249.14"/>
<polygon fill="black" stroke="black" points="352.17,-245.74 341.68,-247.26 350.83,-252.61 352.17,-245.74"/>
</g>
<!-- n13 -->
<g id="node14" class="node">
<title>n13</title>
<ellipse fill="#b2dfee" stroke="#b2dfee" cx="637" cy="-234" rx="34.29" ry="18"/>
<text text-anchor="middle" x="637" y="-231.5" font-family="Helvetica,sans-Serif" font-size="10.00">INC_DEC</text>
</g>
<!-- n1&#45;&gt;n13 -->
<g id="edge13" class="edge">
<title>n1&#45;&gt;n13</title>
<path fill="none" stroke="black" d="M637,-287.7C637,-280.41 637,-271.73 637,-263.54"/>
<polygon fill="black" stroke="black" points="640.5,-263.62 637,-253.62 633.5,-263.62 640.5,-263.62"/>
</g>
<!-- n17 -->
<g id="node18" class="node">
<title>n17</title>
<ellipse fill="#b2dfee" stroke="#b2dfee" cx="914" cy="-234" rx="32.93" ry="18"/>
<text text-anchor="middle" x="914" y="-231.5" font-family="Helvetica,sans-Serif" font-size="10.00">PRINTLN</text>
</g>
<!-- n1&#45;&gt;n17 -->
<g id="edge17" class="edge">
<title>n1&#45;&gt;n17</title>
<path fill="none" stroke="black" d="M679.98,-294.14C732.81,-280.79 821.82,-258.3 873.49,-245.24"/>
<polygon fill="black" stroke="black" points="874.24,-248.66 883.08,-242.81 872.53,-241.87 874.24,-248.66"/>
</g>
<!-- n3 -->
<g id="node4" class="node">
<title>n3</title>
<ellipse fill="#b2dfee" stroke="#b2dfee" cx="27" cy="-162" rx="27" ry="18"/>
<text text-anchor="middle" x="27" y="-159.5" font-family="Helvetica,sans-Serif" font-size="10.00">var</text>
</g>
<!-- n2&#45;&gt;n3 -->
<g id="edge3" class="edge">
<title>n2&#45;&gt;n3</title>
<path fill="none" stroke="black" d="M217.05,-221.25C173.34,-212.13 113.76,-198.01 63,-180 61.45,-179.45 59.88,-178.86 58.31,-178.23"/>
<polygon fill="black" stroke="black" points="59.98,-175.14 49.41,-174.39 57.2,-181.57 59.98,-175.14"/>
</g>
<!-- n4 -->
<g id="node5" class="node">
<title>n4</title>
<ellipse fill="#b2dfee" stroke="#b2dfee" cx="99" cy="-162" rx="27" ry="18"/>
<text text-anchor="middle" x="99" y="-159.5" font-family="Helvetica,sans-Serif" font-size="10.00">z</text>
</g>
<!-- n2&#45;&gt;n4 -->
<g id="edge4" class="edge">
<title>n2&#45;&gt;n4</title>
<path fill="none" stroke="black" d="M235.45,-218.1C206.68,-207.98 168.29,-193.95 135,-180 133.49,-179.37 131.94,-178.7 130.39,-178.02"/>
<polygon fill="black" stroke="black" points="132.11,-174.96 121.56,-174.01 129.21,-181.33 132.11,-174.96"/>
</g>
<!-- n5 -->
<g id="node6" class="node">
<title>n5</title>
<ellipse fill="#b2dfee" stroke="#b2dfee" cx="171" cy="-162" rx="27" ry="18"/>
<text text-anchor="middle" x="171" y="-159.5" font-family="Helvetica,sans-Serif" font-size="10.00">:</text>
</g>
<!-- n2&#45;&gt;n5 -->
<g id="edge5" class="edge">
<title>n2&#45;&gt;n5</title>
<path fill="none" stroke="black" d="M253.41,-216.41C237.14,-205.87 216.06,-192.21 199.29,-181.34"/>
<polygon fill="black" stroke="black" points="201.56,-178.63 191.26,-176.13 197.75,-184.51 201.56,-178.63"/>
</g>
<!-- n6 -->
<g id="node7" class="node">
<title>n6</title>
<ellipse fill="#b2dfee" stroke="#b2dfee" cx="243" cy="-162" rx="27" ry="18"/>
<text text-anchor="middle" x="243" y="-159.5" font-family="Helvetica,sans-Serif" font-size="10.00">INT</text>
</g>
<!-- n2&#45;&gt;n6 -->
<g id="edge6" class="edge">
<title>n2&#45;&gt;n6</title>
<path fill="none" stroke="black" d="M270.1,-215.7C266.02,-207.75 261.08,-198.16 256.55,-189.34"/>
<polygon fill="black" stroke="black" points="259.68,-187.78 252,-180.49 253.46,-190.98 259.68,-187.78"/>
</g>
<!-- n7 -->
<g id="node8" class="node">
<title>n7</title>
<ellipse fill="#b2dfee" stroke="#b2dfee" cx="315" cy="-162" rx="27" ry="18"/>
<text text-anchor="middle" x="315" y="-159.5" font-family="Helvetica,sans-Serif" font-size="10.00">=</text>
</g>
<!-- n2&#45;&gt;n7 -->
<g id="edge7" class="edge">
<title>n2&#45;&gt;n7</title>
<path fill="none" stroke="black" d="M287.9,-215.7C291.98,-207.75 296.92,-198.16 301.45,-189.34"/>
<polygon fill="black" stroke="black" points="304.54,-190.98 306,-180.49 298.32,-187.78 304.54,-190.98"/>
</g>
<!-- n8 -->
<g id="node9" class="node">
<title>n8</title>
<ellipse fill="#b2dfee" stroke="#b2dfee" cx="404" cy="-162" rx="43.62" ry="18"/>
<text text-anchor="middle" x="404" y="-159.5" font-family="Helvetica,sans-Serif" font-size="10.00">ARITMETICA</text>
</g>
<!-- n2&#45;&gt;n8 -->
<g id="edge8" class="edge">
<title>n2&#45;&gt;n8</title>
<path fill="none" stroke="black" d="M307.99,-216.76C326.21,-206.56 349.82,-193.34 369.07,-182.56"/>
<polygon fill="black" stroke="black" points="370.63,-185.7 377.65,-177.76 367.21,-179.59 370.63,-185.7"/>
</g>
<!-- n12 -->
<g id="node13" class="node">
<title>n12</title>
<ellipse fill="#b2dfee" stroke="#b2dfee" cx="493" cy="-162" rx="27" ry="18"/>
<text text-anchor="middle" x="493" y="-159.5" font-family="Helvetica,sans-Serif" font-size="10.00">;</text>
</g>
<!-- n2&#45;&gt;n12 -->
<g id="edge12" class="edge">
<title>n2&#45;&gt;n12</title>
<path fill="none" stroke="black" d="M331.88,-219.52C367.66,-209.85 415.74,-195.78 457,-180 458.53,-179.41 460.09,-178.79 461.66,-178.14"/>
<polygon fill="black" stroke="black" points="462.79,-181.46 470.53,-174.22 459.97,-175.06 462.79,-181.46"/>
</g>
<!-- n9 -->
<g id="node10" class="node">
<title>n9</title>
<ellipse fill="#b2dfee" stroke="#b2dfee" cx="368" cy="-90" rx="27" ry="18"/>
<text text-anchor="middle" x="368" y="-87.5" font-family="Helvetica,sans-Serif" font-size="10.00">INT</text>
</g>
<!-- n8&#45;&gt;n9 -->
<g id="edge9" class="edge">
<title>n8&#45;&gt;n9</title>
<path fill="none" stroke="black" d="M395.29,-144.05C391.16,-136.03 386.13,-126.26 381.52,-117.3"/>
<polygon fill="black" stroke="black" points="384.76,-115.95 377.08,-108.65 378.54,-119.15 384.76,-115.95"/>
</g>
<!-- n11 -->
<g id="node12" class="node">
<title>n11</title>
<ellipse fill="#b2dfee" stroke="#b2dfee" cx="440" cy="-90" rx="27" ry="18"/>
<text text-anchor="middle" x="440" y="-87.5" font-family="Helvetica,sans-Serif" font-size="10.00">&#45;</text>
</g>
<!-- n8&#45;&gt;n11 -->
<g id="edge11" class="edge">
<title>n8&#45;&gt;n11</title>
<path fill="none" stroke="black" d="M412.71,-144.05C416.84,-136.03 421.87,-126.26 426.48,-117.3"/>
<polygon fill="black" stroke="black" points="429.46,-119.15 430.92,-108.65 423.24,-115.95 429.46,-119.15"/>
</g>
<!-- n10 -->
<g id="node11" class="node">
<title>n10</title>
<ellipse fill="#b2dfee" stroke="#b2dfee" cx="368" cy="-18" rx="27" ry="18"/>
<text text-anchor="middle" x="368" y="-15.5" font-family="Helvetica,sans-Serif" font-size="10.00">5</text>
</g>
<!-- n9&#45;&gt;n10 -->
<g id="edge10" class="edge">
<title>n9&#45;&gt;n10</title>
<path fill="none" stroke="black" d="M368,-71.7C368,-64.41 368,-55.73 368,-47.54"/>
<polygon fill="black" stroke="black" points="371.5,-47.62 368,-37.62 364.5,-47.62 371.5,-47.62"/>
</g>
<!-- n14 -->
<g id="node15" class="node">
<title>n14</title>
<ellipse fill="#b2dfee" stroke="#b2dfee" cx="565" cy="-162" rx="27" ry="18"/>
<text text-anchor="middle" x="565" y="-159.5" font-family="Helvetica,sans-Serif" font-size="10.00">z</text>
</g>
<!-- n13&#45;&gt;n14 -->
<g id="edge14" class="edge">
<title>n13&#45;&gt;n14</title>
<path fill="none" stroke="black" d="M621.38,-217.81C611.49,-208.2 598.54,-195.61 587.55,-184.93"/>
<polygon fill="black" stroke="black" points="590.31,-182.72 580.7,-178.26 585.43,-187.74 590.31,-182.72"/>
</g>
<!-- n15 -->
<g id="node16" class="node">
<title>n15</title>
<ellipse fill="#b2dfee" stroke="#b2dfee" cx="637" cy="-162" rx="27" ry="18"/>
<text text-anchor="middle" x="637" y="-159.5" font-family="Helvetica,sans-Serif" font-size="10.00">++</text>
</g>
<!-- n13&#45;&gt;n15 -->
<g id="edge15" class="edge">
<title>n13&#45;&gt;n15</title>
<path fill="none" stroke="black" d="M637,-215.7C637,-208.41 637,-199.73 637,-191.54"/>
<polygon fill="black" stroke="black" points="640.5,-191.62 637,-181.62 633.5,-191.62 640.5,-191.62"/>
</g>
<!-- n16 -->
<g id="node17" class="node">
<title>n16</title>
<ellipse fill="#b2dfee" stroke="#b2dfee" cx="709" cy="-162" rx="27" ry="18"/>
<text text-anchor="middle" x="709" y="-159.5" font-family="Helvetica,sans-Serif" font-size="10.00">;</text>
</g>
<!-- n13&#45;&gt;n16 -->
<g id="edge16" class="edge">
<title>n13&#45;&gt;n16</title>
<path fill="none" stroke="black" d="M652.62,-217.81C662.51,-208.2 675.46,-195.61 686.45,-184.93"/>
<polygon fill="black" stroke="black" points="688.57,-187.74 693.3,-178.26 683.69,-182.72 688.57,-187.74"/>
</g>
<!-- n18 -->
<g id="node19" class="node">
<title>n18</title>
<ellipse fill="#b2dfee" stroke="#b2dfee" cx="781" cy="-162" rx="27" ry="18"/>
<text text-anchor="middle" x="781" y="-159.5" font-family="Helvetica,sans-Serif" font-size="10.00">Println</text>
</g>
<!-- n17&#45;&gt;n18 -->
<g id="edge18" class="edge">
<title>n17&#45;&gt;n18</title>
<path fill="none" stroke="black" d="M890.83,-220.81C868.92,-209.27 835.89,-191.89 811.77,-179.2"/>
<polygon fill="black" stroke="black" points="813.54,-176.17 803.06,-174.61 810.28,-182.36 813.54,-176.17"/>
</g>
<!-- n19 -->
<g id="node20" class="node">
<title>n19</title>
<ellipse fill="#b2dfee" stroke="#b2dfee" cx="853" cy="-162" rx="27" ry="18"/>
<text text-anchor="middle" x="853" y="-159.5" font-family="Helvetica,sans-Serif" font-size="10.00">(</text>
</g>
<!-- n17&#45;&gt;n19 -->
<g id="edge19" class="edge">
<title>n17&#45;&gt;n19</title>
<path fill="none" stroke="black" d="M900.46,-217.46C892.54,-208.37 882.37,-196.7 873.48,-186.5"/>
<polygon fill="black" stroke="black" points="876.28,-184.39 867.08,-179.15 871.01,-188.99 876.28,-184.39"/>
</g>
<!-- n20 -->
<g id="node21" class="node">
<title>n20</title>
<ellipse fill="#b2dfee" stroke="#b2dfee" cx="975" cy="-162" rx="77.23" ry="18"/>
<text text-anchor="middle" x="975" y="-159.5" font-family="Helvetica,sans-Serif" font-size="10.00">RECUPERAR_VARIABLE</text>
</g>
<!-- n17&#45;&gt;n20 -->
<g id="edge20" class="edge">
<title>n17&#45;&gt;n20</title>
<path fill="none" stroke="black" d="M927.54,-217.46C934.95,-208.95 944.33,-198.19 952.79,-188.48"/>
<polygon fill="black" stroke="black" points="955.29,-190.94 959.22,-181.1 950.02,-186.34 955.29,-190.94"/>
</g>
<!-- n22 -->
<g id="node23" class="node">
<title>n22</title>
<ellipse fill="#b2dfee" stroke="#b2dfee" cx="1097" cy="-162" rx="27" ry="18"/>
<text text-anchor="middle" x="1097" y="-159.5" font-family="Helvetica,sans-Serif" font-size="10.00">)</text>
</g>
<!-- n17&#45;&gt;n22 -->
<g id="edge22" class="edge">
<title>n17&#45;&gt;n22</title>
<path fill="none" stroke="black" d="M941.66,-223.9C971.44,-213.91 1020.04,-197.01 1061,-180 1062.52,-179.37 1064.06,-178.71 1065.62,-178.03"/>
<polygon fill="black" stroke="black" points="1066.79,-181.35 1074.45,-174.03 1063.9,-174.97 1066.79,-181.35"/>
</g>
<!-- n23 -->
<g id="node24" class="node">
<title>n23</title>
<ellipse fill="#b2dfee" stroke="#b2dfee" cx="1169" cy="-162" rx="27" ry="18"/>
<text text-anchor="middle" x="1169" y="-159.5" font-family="Helvetica,sans-Serif" font-size="10.00">;</text>
</g>
<!-- n17&#45;&gt;n23 -->
<g id="edge23" class="edge">
<title>n17&#45;&gt;n23</title>
<path fill="none" stroke="black" d="M945.04,-227.56C988.01,-219.56 1067.71,-203.05 1133,-180 1134.55,-179.45 1136.12,-178.86 1137.69,-178.24"/>
<polygon fill="black" stroke="black" points="1138.8,-181.58 1146.59,-174.4 1136.02,-175.15 1138.8,-181.58"/>
</g>
<!-- n21 -->
<g id="node22" class="node">
<title>n21</title>
<ellipse fill="#b2dfee" stroke="#b2dfee" cx="975" cy="-90" rx="27" ry="18"/>
<text text-anchor="middle" x="975" y="-87.5" font-family="Helvetica,sans-Serif" font-size="10.00">z</text>
</g>
<!-- n20&#45;&gt;n21 -->
<g id="edge21" class="edge">
<title>n20&#45;&gt;n21</title>
<path fill="none" stroke="black" d="M975,-143.7C975,-136.41 975,-127.73 975,-119.54"/>
<polygon fill="black" stroke="black" points="978.5,-119.62 975,-109.62 971.5,-119.62 978.5,-119.62"/>
</g>
</g>
</svg>
