<?xml version="1.0" encoding="UTF-8" standalone="no"?>
<!DOCTYPE svg PUBLIC "-//W3C//DTD SVG 1.1//EN"
 "http://www.w3.org/Graphics/SVG/1.1/DTD/svg11.dtd">
<!-- Generated by graphviz version 7.1.0 (20230121.1956)
 -->
<!-- Title: arbolAST Pages: 1 -->
<svg width="1290pt" height="404pt"
 viewBox="0.00 0.00 1290.00 404.00" xmlns="http://www.w3.org/2000/svg" xmlns:xlink="http://www.w3.org/1999/xlink">
<g id="graph0" class="graph" transform="scale(1 1) rotate(0) translate(4 400)">
<title>arbolAST</title>
<polygon fill="white" stroke="none" points="-4,4 -4,-400 1286,-400 1286,4 -4,4"/>
<!-- n0 -->
<g id="node1" class="node">
<title>n0</title>
<ellipse fill="#b2dfee" stroke="#b2dfee" cx="719" cy="-378" rx="27" ry="18"/>
<text text-anchor="middle" x="719" y="-375.5" font-family="Helvetica,sans-Serif" font-size="10.00">INICIO</text>
</g>
<!-- n1 -->
<g id="node2" class="node">
<title>n1</title>
<ellipse fill="#b2dfee" stroke="#b2dfee" cx="719" cy="-306" rx="55.85" ry="18"/>
<text text-anchor="middle" x="719" y="-303.5" font-family="Helvetica,sans-Serif" font-size="10.00">INSTRUCCIONES</text>
</g>
<!-- n0&#45;&gt;n1 -->
<g id="edge1" class="edge">
<title>n0&#45;&gt;n1</title>
<path fill="none" stroke="black" d="M719,-359.7C719,-352.41 719,-343.73 719,-335.54"/>
<polygon fill="black" stroke="black" points="722.5,-335.62 719,-325.62 715.5,-335.62 722.5,-335.62"/>
</g>
<!-- n2 -->
<g id="node3" class="node">
<title>n2</title>
<ellipse fill="#b2dfee" stroke="#b2dfee" cx="279" cy="-234" rx="85.89" ry="18"/>
<text text-anchor="middle" x="279" y="-231.5" font-family="Helvetica,sans-Serif" font-size="10.00">DECLARACION_VARIABLES</text>
</g>
<!-- n1&#45;&gt;n2 -->
<g id="edge2" class="edge">
<title>n1&#45;&gt;n2</title>
<path fill="none" stroke="black" d="M669.81,-297.17C593.89,-285.1 447.52,-261.81 357.05,-247.42"/>
<polygon fill="black" stroke="black" points="357.68,-243.97 347.25,-245.86 356.58,-250.89 357.68,-243.97"/>
</g>
<!-- n13 -->
<g id="node14" class="node">
<title>n13</title>
<ellipse fill="#b2dfee" stroke="#b2dfee" cx="719" cy="-234" rx="32.93" ry="18"/>
<text text-anchor="middle" x="719" y="-231.5" font-family="Helvetica,sans-Serif" font-size="10.00">PRINTLN</text>
</g>
<!-- n1&#45;&gt;n13 -->
<g id="edge13" class="edge">
<title>n1&#45;&gt;n13</title>
<path fill="none" stroke="black" d="M719,-287.7C719,-280.41 719,-271.73 719,-263.54"/>
<polygon fill="black" stroke="black" points="722.5,-263.62 719,-253.62 715.5,-263.62 722.5,-263.62"/>
</g>
<!-- n24 -->
<g id="node25" class="node">
<title>n24</title>
<ellipse fill="#b2dfee" stroke="#b2dfee" cx="1064" cy="-234" rx="32.93" ry="18"/>
<text text-anchor="middle" x="1064" y="-231.5" font-family="Helvetica,sans-Serif" font-size="10.00">PRINTLN</text>
</g>
<!-- n1&#45;&gt;n24 -->
<g id="edge24" class="edge">
<title>n1&#45;&gt;n24</title>
<path fill="none" stroke="black" d="M765.17,-295.63C832.72,-281.93 957.49,-256.61 1022.37,-243.45"/>
<polygon fill="black" stroke="black" points="1022.79,-246.93 1031.9,-241.51 1021.4,-240.07 1022.79,-246.93"/>
</g>
<!-- n3 -->
<g id="node4" class="node">
<title>n3</title>
<ellipse fill="#b2dfee" stroke="#b2dfee" cx="27" cy="-162" rx="27" ry="18"/>
<text text-anchor="middle" x="27" y="-159.5" font-family="Helvetica,sans-Serif" font-size="10.00">var</text>
</g>
<!-- n2&#45;&gt;n3 -->
<g id="edge3" class="edge">
<title>n2&#45;&gt;n3</title>
<path fill="none" stroke="black" d="M217.05,-221.25C173.34,-212.13 113.76,-198.01 63,-180 61.45,-179.45 59.88,-178.86 58.31,-178.23"/>
<polygon fill="black" stroke="black" points="59.98,-175.14 49.41,-174.39 57.2,-181.57 59.98,-175.14"/>
</g>
<!-- n4 -->
<g id="node5" class="node">
<title>n4</title>
<ellipse fill="#b2dfee" stroke="#b2dfee" cx="99" cy="-162" rx="27" ry="18"/>
<text text-anchor="middle" x="99" y="-159.5" font-family="Helvetica,sans-Serif" font-size="10.00">z</text>
</g>
<!-- n2&#45;&gt;n4 -->
<g id="edge4" class="edge">
<title>n2&#45;&gt;n4</title>
<path fill="none" stroke="black" d="M235.45,-218.1C206.68,-207.98 168.29,-193.95 135,-180 133.49,-179.37 131.94,-178.7 130.39,-178.02"/>
<polygon fill="black" stroke="black" points="132.11,-174.96 121.56,-174.01 129.21,-181.33 132.11,-174.96"/>
</g>
<!-- n5 -->
<g id="node6" class="node">
<title>n5</title>
<ellipse fill="#b2dfee" stroke="#b2dfee" cx="171" cy="-162" rx="27" ry="18"/>
<text text-anchor="middle" x="171" y="-159.5" font-family="Helvetica,sans-Serif" font-size="10.00">:</text>
</g>
<!-- n2&#45;&gt;n5 -->
<g id="edge5" class="edge">
<title>n2&#45;&gt;n5</title>
<path fill="none" stroke="black" d="M253.41,-216.41C237.14,-205.87 216.06,-192.21 199.29,-181.34"/>
<polygon fill="black" stroke="black" points="201.56,-178.63 191.26,-176.13 197.75,-184.51 201.56,-178.63"/>
</g>
<!-- n6 -->
<g id="node7" class="node">
<title>n6</title>
<ellipse fill="#b2dfee" stroke="#b2dfee" cx="243" cy="-162" rx="27" ry="18"/>
<text text-anchor="middle" x="243" y="-159.5" font-family="Helvetica,sans-Serif" font-size="10.00">INT</text>
</g>
<!-- n2&#45;&gt;n6 -->
<g id="edge6" class="edge">
<title>n2&#45;&gt;n6</title>
<path fill="none" stroke="black" d="M270.1,-215.7C266.02,-207.75 261.08,-198.16 256.55,-189.34"/>
<polygon fill="black" stroke="black" points="259.68,-187.78 252,-180.49 253.46,-190.98 259.68,-187.78"/>
</g>
<!-- n7 -->
<g id="node8" class="node">
<title>n7</title>
<ellipse fill="#b2dfee" stroke="#b2dfee" cx="315" cy="-162" rx="27" ry="18"/>
<text text-anchor="middle" x="315" y="-159.5" font-family="Helvetica,sans-Serif" font-size="10.00">=</text>
</g>
<!-- n2&#45;&gt;n7 -->
<g id="edge7" class="edge">
<title>n2&#45;&gt;n7</title>
<path fill="none" stroke="black" d="M287.9,-215.7C291.98,-207.75 296.92,-198.16 301.45,-189.34"/>
<polygon fill="black" stroke="black" points="304.54,-190.98 306,-180.49 298.32,-187.78 304.54,-190.98"/>
</g>
<!-- n8 -->
<g id="node9" class="node">
<title>n8</title>
<ellipse fill="#b2dfee" stroke="#b2dfee" cx="400" cy="-162" rx="40.06" ry="18"/>
<text text-anchor="middle" x="400" y="-159.5" font-family="Helvetica,sans-Serif" font-size="10.00">NEGACION</text>
</g>
<!-- n2&#45;&gt;n8 -->
<g id="edge8" class="edge">
<title>n2&#45;&gt;n8</title>
<path fill="none" stroke="black" d="M307.37,-216.59C325.05,-206.36 347.89,-193.15 366.46,-182.4"/>
<polygon fill="black" stroke="black" points="368.07,-185.51 374.98,-177.48 364.57,-179.45 368.07,-185.51"/>
</g>
<!-- n12 -->
<g id="node13" class="node">
<title>n12</title>
<ellipse fill="#b2dfee" stroke="#b2dfee" cx="485" cy="-162" rx="27" ry="18"/>
<text text-anchor="middle" x="485" y="-159.5" font-family="Helvetica,sans-Serif" font-size="10.00">;</text>
</g>
<!-- n2&#45;&gt;n12 -->
<g id="edge12" class="edge">
<title>n2&#45;&gt;n12</title>
<path fill="none" stroke="black" d="M329.84,-219.15C363.96,-209.38 409.68,-195.33 449,-180 450.53,-179.4 452.08,-178.77 453.65,-178.12"/>
<polygon fill="black" stroke="black" points="454.79,-181.44 462.51,-174.18 451.95,-175.04 454.79,-181.44"/>
</g>
<!-- n9 -->
<g id="node10" class="node">
<title>n9</title>
<ellipse fill="#b2dfee" stroke="#b2dfee" cx="364" cy="-90" rx="27" ry="18"/>
<text text-anchor="middle" x="364" y="-87.5" font-family="Helvetica,sans-Serif" font-size="10.00">&#45;</text>
</g>
<!-- n8&#45;&gt;n9 -->
<g id="edge9" class="edge">
<title>n8&#45;&gt;n9</title>
<path fill="none" stroke="black" d="M391.29,-144.05C387.16,-136.03 382.13,-126.26 377.52,-117.3"/>
<polygon fill="black" stroke="black" points="380.76,-115.95 373.08,-108.65 374.54,-119.15 380.76,-115.95"/>
</g>
<!-- n10 -->
<g id="node11" class="node">
<title>n10</title>
<ellipse fill="#b2dfee" stroke="#b2dfee" cx="436" cy="-90" rx="27" ry="18"/>
<text text-anchor="middle" x="436" y="-87.5" font-family="Helvetica,sans-Serif" font-size="10.00">INT</text>
</g>
<!-- n8&#45;&gt;n10 -->
<g id="edge10" class="edge">
<title>n8&#45;&gt;n10</title>
<path fill="none" stroke="black" d="M408.71,-144.05C412.84,-136.03 417.87,-126.26 422.48,-117.3"/>
<polygon fill="black" stroke="black" points="425.46,-119.15 426.92,-108.65 419.24,-115.95 425.46,-119.15"/>
</g>
<!-- n11 -->
<g id="node12" class="node">
<title>n11</title>
<ellipse fill="#b2dfee" stroke="#b2dfee" cx="436" cy="-18" rx="27" ry="18"/>
<text text-anchor="middle" x="436" y="-15.5" font-family="Helvetica,sans-Serif" font-size="10.00">&#45;5</text>
</g>
<!-- n10&#45;&gt;n11 -->
<g id="edge11" class="edge">
<title>n10&#45;&gt;n11</title>
<path fill="none" stroke="black" d="M436,-71.7C436,-64.41 436,-55.73 436,-47.54"/>
<polygon fill="black" stroke="black" points="439.5,-47.62 436,-37.62 432.5,-47.62 439.5,-47.62"/>
</g>
<!-- n14 -->
<g id="node15" class="node">
<title>n14</title>
<ellipse fill="#b2dfee" stroke="#b2dfee" cx="557" cy="-162" rx="27" ry="18"/>
<text text-anchor="middle" x="557" y="-159.5" font-family="Helvetica,sans-Serif" font-size="10.00">Println</text>
</g>
<!-- n13&#45;&gt;n14 -->
<g id="edge14" class="edge">
<title>n13&#45;&gt;n14</title>
<path fill="none" stroke="black" d="M693.28,-222.56C667.72,-212.1 627.46,-195.37 593,-180 591.69,-179.41 590.35,-178.81 589,-178.2"/>
<polygon fill="black" stroke="black" points="590.55,-175.06 580.01,-174.04 587.61,-181.41 590.55,-175.06"/>
</g>
<!-- n15 -->
<g id="node16" class="node">
<title>n15</title>
<ellipse fill="#b2dfee" stroke="#b2dfee" cx="629" cy="-162" rx="27" ry="18"/>
<text text-anchor="middle" x="629" y="-159.5" font-family="Helvetica,sans-Serif" font-size="10.00">(</text>
</g>
<!-- n13&#45;&gt;n15 -->
<g id="edge15" class="edge">
<title>n13&#45;&gt;n15</title>
<path fill="none" stroke="black" d="M700.79,-218.83C687.64,-208.61 669.7,-194.66 655.04,-183.26"/>
<polygon fill="black" stroke="black" points="657.21,-180.5 647.16,-177.13 652.91,-186.03 657.21,-180.5"/>
</g>
<!-- n16 -->
<g id="node17" class="node">
<title>n16</title>
<ellipse fill="#b2dfee" stroke="#b2dfee" cx="719" cy="-162" rx="45.15" ry="18"/>
<text text-anchor="middle" x="719" y="-159.5" font-family="Helvetica,sans-Serif" font-size="10.00">RELACIONAL</text>
</g>
<!-- n13&#45;&gt;n16 -->
<g id="edge16" class="edge">
<title>n13&#45;&gt;n16</title>
<path fill="none" stroke="black" d="M719,-215.7C719,-208.41 719,-199.73 719,-191.54"/>
<polygon fill="black" stroke="black" points="722.5,-191.62 719,-181.62 715.5,-191.62 722.5,-191.62"/>
</g>
<!-- n22 -->
<g id="node23" class="node">
<title>n22</title>
<ellipse fill="#b2dfee" stroke="#b2dfee" cx="809" cy="-162" rx="27" ry="18"/>
<text text-anchor="middle" x="809" y="-159.5" font-family="Helvetica,sans-Serif" font-size="10.00">)</text>
</g>
<!-- n13&#45;&gt;n22 -->
<g id="edge22" class="edge">
<title>n13&#45;&gt;n22</title>
<path fill="none" stroke="black" d="M737.21,-218.83C750.36,-208.61 768.3,-194.66 782.96,-183.26"/>
<polygon fill="black" stroke="black" points="785.09,-186.03 790.84,-177.13 780.79,-180.5 785.09,-186.03"/>
</g>
<!-- n23 -->
<g id="node24" class="node">
<title>n23</title>
<ellipse fill="#b2dfee" stroke="#b2dfee" cx="881" cy="-162" rx="27" ry="18"/>
<text text-anchor="middle" x="881" y="-159.5" font-family="Helvetica,sans-Serif" font-size="10.00">;</text>
</g>
<!-- n13&#45;&gt;n23 -->
<g id="edge23" class="edge">
<title>n13&#45;&gt;n23</title>
<path fill="none" stroke="black" d="M744.72,-222.56C770.28,-212.1 810.54,-195.37 845,-180 846.31,-179.41 847.65,-178.81 849,-178.2"/>
<polygon fill="black" stroke="black" points="850.39,-181.41 857.99,-174.04 847.45,-175.06 850.39,-181.41"/>
</g>
<!-- n17 -->
<g id="node18" class="node">
<title>n17</title>
<ellipse fill="#b2dfee" stroke="#b2dfee" cx="597" cy="-90" rx="77.23" ry="18"/>
<text text-anchor="middle" x="597" y="-87.5" font-family="Helvetica,sans-Serif" font-size="10.00">RECUPERAR_VARIABLE</text>
</g>
<!-- n16&#45;&gt;n17 -->
<g id="edge17" class="edge">
<title>n16&#45;&gt;n17</title>
<path fill="none" stroke="black" d="M694.02,-146.67C677,-136.9 654.15,-123.79 634.91,-112.75"/>
<polygon fill="black" stroke="black" points="636.66,-109.72 626.24,-107.78 633.18,-115.79 636.66,-109.72"/>
</g>
<!-- n19 -->
<g id="node20" class="node">
<title>n19</title>
<ellipse fill="#b2dfee" stroke="#b2dfee" cx="719" cy="-90" rx="27" ry="18"/>
<text text-anchor="middle" x="719" y="-87.5" font-family="Helvetica,sans-Serif" font-size="10.00">&lt;</text>
</g>
<!-- n16&#45;&gt;n19 -->
<g id="edge19" class="edge">
<title>n16&#45;&gt;n19</title>
<path fill="none" stroke="black" d="M719,-143.7C719,-136.41 719,-127.73 719,-119.54"/>
<polygon fill="black" stroke="black" points="722.5,-119.62 719,-109.62 715.5,-119.62 722.5,-119.62"/>
</g>
<!-- n20 -->
<g id="node21" class="node">
<title>n20</title>
<ellipse fill="#b2dfee" stroke="#b2dfee" cx="791" cy="-90" rx="27" ry="18"/>
<text text-anchor="middle" x="791" y="-87.5" font-family="Helvetica,sans-Serif" font-size="10.00">INT</text>
</g>
<!-- n16&#45;&gt;n20 -->
<g id="edge20" class="edge">
<title>n16&#45;&gt;n20</title>
<path fill="none" stroke="black" d="M735.34,-145.12C745.03,-135.69 757.46,-123.61 768.12,-113.25"/>
<polygon fill="black" stroke="black" points="770.38,-115.93 775.11,-106.45 765.5,-110.91 770.38,-115.93"/>
</g>
<!-- n18 -->
<g id="node19" class="node">
<title>n18</title>
<ellipse fill="#b2dfee" stroke="#b2dfee" cx="597" cy="-18" rx="27" ry="18"/>
<text text-anchor="middle" x="597" y="-15.5" font-family="Helvetica,sans-Serif" font-size="10.00">z</text>
</g>
<!-- n17&#45;&gt;n18 -->
<g id="edge18" class="edge">
<title>n17&#45;&gt;n18</title>
<path fill="none" stroke="black" d="M597,-71.7C597,-64.41 597,-55.73 597,-47.54"/>
<polygon fill="black" stroke="black" points="600.5,-47.62 597,-37.62 593.5,-47.62 600.5,-47.62"/>
</g>
<!-- n21 -->
<g id="node22" class="node">
<title>n21</title>
<ellipse fill="#b2dfee" stroke="#b2dfee" cx="791" cy="-18" rx="27" ry="18"/>
<text text-anchor="middle" x="791" y="-15.5" font-family="Helvetica,sans-Serif" font-size="10.00">5</text>
</g>
<!-- n20&#45;&gt;n21 -->
<g id="edge21" class="edge">
<title>n20&#45;&gt;n21</title>
<path fill="none" stroke="black" d="M791,-71.7C791,-64.41 791,-55.73 791,-47.54"/>
<polygon fill="black" stroke="black" points="794.5,-47.62 791,-37.62 787.5,-47.62 794.5,-47.62"/>
</g>
<!-- n25 -->
<g id="node26" class="node">
<title>n25</title>
<ellipse fill="#b2dfee" stroke="#b2dfee" cx="953" cy="-162" rx="27" ry="18"/>
<text text-anchor="middle" x="953" y="-159.5" font-family="Helvetica,sans-Serif" font-size="10.00">Println</text>
</g>
<!-- n24&#45;&gt;n25 -->
<g id="edge25" class="edge">
<title>n24&#45;&gt;n25</title>
<path fill="none" stroke="black" d="M1042.86,-219.67C1025.59,-208.77 1000.99,-193.26 981.89,-181.22"/>
<polygon fill="black" stroke="black" points="983.81,-178.29 973.49,-175.92 980.08,-184.21 983.81,-178.29"/>
</g>
<!-- n26 -->
<g id="node27" class="node">
<title>n26</title>
<ellipse fill="#b2dfee" stroke="#b2dfee" cx="1025" cy="-162" rx="27" ry="18"/>
<text text-anchor="middle" x="1025" y="-159.5" font-family="Helvetica,sans-Serif" font-size="10.00">(</text>
</g>
<!-- n24&#45;&gt;n26 -->
<g id="edge26" class="edge">
<title>n24&#45;&gt;n26</title>
<path fill="none" stroke="black" d="M1054.76,-216.41C1050.18,-208.19 1044.54,-198.06 1039.4,-188.85"/>
<polygon fill="black" stroke="black" points="1042.57,-187.34 1034.64,-180.31 1036.45,-190.75 1042.57,-187.34"/>
</g>
<!-- n27 -->
<g id="node28" class="node">
<title>n27</title>
<ellipse fill="#b2dfee" stroke="#b2dfee" cx="1104" cy="-162" rx="33.61" ry="18"/>
<text text-anchor="middle" x="1104" y="-159.5" font-family="Helvetica,sans-Serif" font-size="10.00">CADENA</text>
</g>
<!-- n24&#45;&gt;n27 -->
<g id="edge27" class="edge">
<title>n24&#45;&gt;n27</title>
<path fill="none" stroke="black" d="M1073.48,-216.41C1078.11,-208.3 1083.8,-198.35 1089,-189.25"/>
<polygon fill="black" stroke="black" points="1091.92,-191.2 1093.84,-180.78 1085.84,-187.73 1091.92,-191.2"/>
</g>
<!-- n29 -->
<g id="node30" class="node">
<title>n29</title>
<ellipse fill="#b2dfee" stroke="#b2dfee" cx="1183" cy="-162" rx="27" ry="18"/>
<text text-anchor="middle" x="1183" y="-159.5" font-family="Helvetica,sans-Serif" font-size="10.00">)</text>
</g>
<!-- n24&#45;&gt;n29 -->
<g id="edge29" class="edge">
<title>n24&#45;&gt;n29</title>
<path fill="none" stroke="black" d="M1085.83,-220.16C1104.86,-208.97 1132.62,-192.64 1153.6,-180.29"/>
<polygon fill="black" stroke="black" points="1155.14,-183.45 1161.98,-175.36 1151.59,-177.42 1155.14,-183.45"/>
</g>
<!-- n30 -->
<g id="node31" class="node">
<title>n30</title>
<ellipse fill="#b2dfee" stroke="#b2dfee" cx="1255" cy="-162" rx="27" ry="18"/>
<text text-anchor="middle" x="1255" y="-159.5" font-family="Helvetica,sans-Serif" font-size="10.00">;</text>
</g>
<!-- n24&#45;&gt;n30 -->
<g id="edge30" class="edge">
<title>n24&#45;&gt;n30</title>
<path fill="none" stroke="black" d="M1092.35,-224.36C1123.7,-214.56 1175.52,-197.64 1219,-180 1220.52,-179.38 1222.07,-178.73 1223.63,-178.06"/>
<polygon fill="black" stroke="black" points="1224.79,-181.38 1232.47,-174.09 1221.92,-175 1224.79,-181.38"/>
</g>
<!-- n28 -->
<g id="node29" class="node">
<title>n28</title>
<ellipse fill="#b2dfee" stroke="#b2dfee" cx="1104" cy="-90" rx="39.38" ry="18"/>
<text text-anchor="middle" x="1104" y="-87.5" font-family="Helvetica,sans-Serif" font-size="10.00">hola mundo</text>
</g>
<!-- n27&#45;&gt;n28 -->
<g id="edge28" class="edge">
<title>n27&#45;&gt;n28</title>
<path fill="none" stroke="black" d="M1104,-143.7C1104,-136.41 1104,-127.73 1104,-119.54"/>
<polygon fill="black" stroke="black" points="1107.5,-119.62 1104,-109.62 1100.5,-119.62 1107.5,-119.62"/>
</g>
</g>
</svg>
