<?xml version="1.0" encoding="UTF-8" standalone="no"?>
<!DOCTYPE svg PUBLIC "-//W3C//DTD SVG 1.1//EN"
 "http://www.w3.org/Graphics/SVG/1.1/DTD/svg11.dtd">
<!-- Generated by graphviz version 7.1.0 (20230121.1956)
 -->
<!-- Title: arbolAST Pages: 1 -->
<svg width="998pt" height="332pt"
 viewBox="0.00 0.00 998.00 332.00" xmlns="http://www.w3.org/2000/svg" xmlns:xlink="http://www.w3.org/1999/xlink">
<g id="graph0" class="graph" transform="scale(1 1) rotate(0) translate(4 328)">
<title>arbolAST</title>
<polygon fill="white" stroke="none" points="-4,4 -4,-328 994,-328 994,4 -4,4"/>
<!-- n0 -->
<g id="node1" class="node">
<title>n0</title>
<ellipse fill="#b2dfee" stroke="#b2dfee" cx="711" cy="-306" rx="27" ry="18"/>
<text text-anchor="middle" x="711" y="-303.5" font-family="Helvetica,sans-Serif" font-size="10.00">INICIO</text>
</g>
<!-- n1 -->
<g id="node2" class="node">
<title>n1</title>
<ellipse fill="#b2dfee" stroke="#b2dfee" cx="711" cy="-234" rx="55.85" ry="18"/>
<text text-anchor="middle" x="711" y="-231.5" font-family="Helvetica,sans-Serif" font-size="10.00">INSTRUCCIONES</text>
</g>
<!-- n0&#45;&gt;n1 -->
<g id="edge1" class="edge">
<title>n0&#45;&gt;n1</title>
<path fill="none" stroke="black" d="M711,-287.7C711,-280.41 711,-271.73 711,-263.54"/>
<polygon fill="black" stroke="black" points="714.5,-263.62 711,-253.62 707.5,-263.62 714.5,-263.62"/>
</g>
<!-- n2 -->
<g id="node3" class="node">
<title>n2</title>
<ellipse fill="#b2dfee" stroke="#b2dfee" cx="279" cy="-162" rx="85.89" ry="18"/>
<text text-anchor="middle" x="279" y="-159.5" font-family="Helvetica,sans-Serif" font-size="10.00">DECLARACION_VARIABLES</text>
</g>
<!-- n1&#45;&gt;n2 -->
<g id="edge2" class="edge">
<title>n1&#45;&gt;n2</title>
<path fill="none" stroke="black" d="M661.86,-225.04C587.4,-212.97 445.27,-189.94 356.69,-175.59"/>
<polygon fill="black" stroke="black" points="357.29,-172.14 346.86,-174 356.17,-179.05 357.29,-172.14"/>
</g>
<!-- n11 -->
<g id="node12" class="node">
<title>n11</title>
<ellipse fill="#b2dfee" stroke="#b2dfee" cx="711" cy="-162" rx="85.89" ry="18"/>
<text text-anchor="middle" x="711" y="-159.5" font-family="Helvetica,sans-Serif" font-size="10.00">DECLARACION_VARIABLES</text>
</g>
<!-- n1&#45;&gt;n11 -->
<g id="edge11" class="edge">
<title>n1&#45;&gt;n11</title>
<path fill="none" stroke="black" d="M711,-215.7C711,-208.41 711,-199.73 711,-191.54"/>
<polygon fill="black" stroke="black" points="714.5,-191.62 711,-181.62 707.5,-191.62 714.5,-191.62"/>
</g>
<!-- n20 -->
<g id="node21" class="node">
<title>n20</title>
<ellipse fill="#b2dfee" stroke="#b2dfee" cx="842" cy="-162" rx="27" ry="18"/>
<text text-anchor="middle" x="842" y="-159.5" font-family="Helvetica,sans-Serif" font-size="10.00">FOR</text>
</g>
<!-- n1&#45;&gt;n20 -->
<g id="edge20" class="edge">
<title>n1&#45;&gt;n20</title>
<path fill="none" stroke="black" d="M739.1,-217.98C760.29,-206.66 789.34,-191.14 811.17,-179.48"/>
<polygon fill="black" stroke="black" points="812.73,-182.61 819.9,-174.81 809.43,-176.43 812.73,-182.61"/>
</g>
<!-- n3 -->
<g id="node4" class="node">
<title>n3</title>
<ellipse fill="#b2dfee" stroke="#b2dfee" cx="27" cy="-90" rx="27" ry="18"/>
<text text-anchor="middle" x="27" y="-87.5" font-family="Helvetica,sans-Serif" font-size="10.00">var</text>
</g>
<!-- n2&#45;&gt;n3 -->
<g id="edge3" class="edge">
<title>n2&#45;&gt;n3</title>
<path fill="none" stroke="black" d="M217.05,-149.25C173.34,-140.13 113.76,-126.01 63,-108 61.45,-107.45 59.88,-106.86 58.31,-106.23"/>
<polygon fill="black" stroke="black" points="59.98,-103.14 49.41,-102.39 57.2,-109.57 59.98,-103.14"/>
</g>
<!-- n4 -->
<g id="node5" class="node">
<title>n4</title>
<ellipse fill="#b2dfee" stroke="#b2dfee" cx="99" cy="-90" rx="27" ry="18"/>
<text text-anchor="middle" x="99" y="-87.5" font-family="Helvetica,sans-Serif" font-size="10.00">i</text>
</g>
<!-- n2&#45;&gt;n4 -->
<g id="edge4" class="edge">
<title>n2&#45;&gt;n4</title>
<path fill="none" stroke="black" d="M235.45,-146.1C206.68,-135.98 168.29,-121.95 135,-108 133.49,-107.37 131.94,-106.7 130.39,-106.02"/>
<polygon fill="black" stroke="black" points="132.11,-102.96 121.56,-102.01 129.21,-109.33 132.11,-102.96"/>
</g>
<!-- n5 -->
<g id="node6" class="node">
<title>n5</title>
<ellipse fill="#b2dfee" stroke="#b2dfee" cx="171" cy="-90" rx="27" ry="18"/>
<text text-anchor="middle" x="171" y="-87.5" font-family="Helvetica,sans-Serif" font-size="10.00">:</text>
</g>
<!-- n2&#45;&gt;n5 -->
<g id="edge5" class="edge">
<title>n2&#45;&gt;n5</title>
<path fill="none" stroke="black" d="M253.41,-144.41C237.14,-133.87 216.06,-120.21 199.29,-109.34"/>
<polygon fill="black" stroke="black" points="201.56,-106.63 191.26,-104.13 197.75,-112.51 201.56,-106.63"/>
</g>
<!-- n6 -->
<g id="node7" class="node">
<title>n6</title>
<ellipse fill="#b2dfee" stroke="#b2dfee" cx="243" cy="-90" rx="27" ry="18"/>
<text text-anchor="middle" x="243" y="-87.5" font-family="Helvetica,sans-Serif" font-size="10.00">INT</text>
</g>
<!-- n2&#45;&gt;n6 -->
<g id="edge6" class="edge">
<title>n2&#45;&gt;n6</title>
<path fill="none" stroke="black" d="M270.1,-143.7C266.02,-135.75 261.08,-126.16 256.55,-117.34"/>
<polygon fill="black" stroke="black" points="259.68,-115.78 252,-108.49 253.46,-118.98 259.68,-115.78"/>
</g>
<!-- n7 -->
<g id="node8" class="node">
<title>n7</title>
<ellipse fill="#b2dfee" stroke="#b2dfee" cx="315" cy="-90" rx="27" ry="18"/>
<text text-anchor="middle" x="315" y="-87.5" font-family="Helvetica,sans-Serif" font-size="10.00">=</text>
</g>
<!-- n2&#45;&gt;n7 -->
<g id="edge7" class="edge">
<title>n2&#45;&gt;n7</title>
<path fill="none" stroke="black" d="M287.9,-143.7C291.98,-135.75 296.92,-126.16 301.45,-117.34"/>
<polygon fill="black" stroke="black" points="304.54,-118.98 306,-108.49 298.32,-115.78 304.54,-118.98"/>
</g>
<!-- n8 -->
<g id="node9" class="node">
<title>n8</title>
<ellipse fill="#b2dfee" stroke="#b2dfee" cx="387" cy="-90" rx="27" ry="18"/>
<text text-anchor="middle" x="387" y="-87.5" font-family="Helvetica,sans-Serif" font-size="10.00">INT</text>
</g>
<!-- n2&#45;&gt;n8 -->
<g id="edge8" class="edge">
<title>n2&#45;&gt;n8</title>
<path fill="none" stroke="black" d="M304.59,-144.41C320.86,-133.87 341.94,-120.21 358.71,-109.34"/>
<polygon fill="black" stroke="black" points="360.25,-112.51 366.74,-104.13 356.44,-106.63 360.25,-112.51"/>
</g>
<!-- n10 -->
<g id="node11" class="node">
<title>n10</title>
<ellipse fill="#b2dfee" stroke="#b2dfee" cx="459" cy="-90" rx="27" ry="18"/>
<text text-anchor="middle" x="459" y="-87.5" font-family="Helvetica,sans-Serif" font-size="10.00">;</text>
</g>
<!-- n2&#45;&gt;n10 -->
<g id="edge10" class="edge">
<title>n2&#45;&gt;n10</title>
<path fill="none" stroke="black" d="M322.55,-146.1C351.32,-135.98 389.71,-121.95 423,-108 424.51,-107.37 426.06,-106.7 427.61,-106.02"/>
<polygon fill="black" stroke="black" points="428.79,-109.33 436.44,-102.01 425.89,-102.96 428.79,-109.33"/>
</g>
<!-- n9 -->
<g id="node10" class="node">
<title>n9</title>
<ellipse fill="#b2dfee" stroke="#b2dfee" cx="387" cy="-18" rx="27" ry="18"/>
<text text-anchor="middle" x="387" y="-15.5" font-family="Helvetica,sans-Serif" font-size="10.00">0</text>
</g>
<!-- n8&#45;&gt;n9 -->
<g id="edge9" class="edge">
<title>n8&#45;&gt;n9</title>
<path fill="none" stroke="black" d="M387,-71.7C387,-64.41 387,-55.73 387,-47.54"/>
<polygon fill="black" stroke="black" points="390.5,-47.62 387,-37.62 383.5,-47.62 390.5,-47.62"/>
</g>
<!-- n12 -->
<g id="node13" class="node">
<title>n12</title>
<ellipse fill="#b2dfee" stroke="#b2dfee" cx="531" cy="-90" rx="27" ry="18"/>
<text text-anchor="middle" x="531" y="-87.5" font-family="Helvetica,sans-Serif" font-size="10.00">var</text>
</g>
<!-- n11&#45;&gt;n12 -->
<g id="edge12" class="edge">
<title>n11&#45;&gt;n12</title>
<path fill="none" stroke="black" d="M667.45,-146.1C638.68,-135.98 600.29,-121.95 567,-108 565.49,-107.37 563.94,-106.7 562.39,-106.02"/>
<polygon fill="black" stroke="black" points="564.11,-102.96 553.56,-102.01 561.21,-109.33 564.11,-102.96"/>
</g>
<!-- n13 -->
<g id="node14" class="node">
<title>n13</title>
<ellipse fill="#b2dfee" stroke="#b2dfee" cx="603" cy="-90" rx="27" ry="18"/>
<text text-anchor="middle" x="603" y="-87.5" font-family="Helvetica,sans-Serif" font-size="10.00">j</text>
</g>
<!-- n11&#45;&gt;n13 -->
<g id="edge13" class="edge">
<title>n11&#45;&gt;n13</title>
<path fill="none" stroke="black" d="M685.41,-144.41C669.14,-133.87 648.06,-120.21 631.29,-109.34"/>
<polygon fill="black" stroke="black" points="633.56,-106.63 623.26,-104.13 629.75,-112.51 633.56,-106.63"/>
</g>
<!-- n14 -->
<g id="node15" class="node">
<title>n14</title>
<ellipse fill="#b2dfee" stroke="#b2dfee" cx="675" cy="-90" rx="27" ry="18"/>
<text text-anchor="middle" x="675" y="-87.5" font-family="Helvetica,sans-Serif" font-size="10.00">:</text>
</g>
<!-- n11&#45;&gt;n14 -->
<g id="edge14" class="edge">
<title>n11&#45;&gt;n14</title>
<path fill="none" stroke="black" d="M702.1,-143.7C698.02,-135.75 693.08,-126.16 688.55,-117.34"/>
<polygon fill="black" stroke="black" points="691.68,-115.78 684,-108.49 685.46,-118.98 691.68,-115.78"/>
</g>
<!-- n15 -->
<g id="node16" class="node">
<title>n15</title>
<ellipse fill="#b2dfee" stroke="#b2dfee" cx="747" cy="-90" rx="27" ry="18"/>
<text text-anchor="middle" x="747" y="-87.5" font-family="Helvetica,sans-Serif" font-size="10.00">INT</text>
</g>
<!-- n11&#45;&gt;n15 -->
<g id="edge15" class="edge">
<title>n11&#45;&gt;n15</title>
<path fill="none" stroke="black" d="M719.9,-143.7C723.98,-135.75 728.92,-126.16 733.45,-117.34"/>
<polygon fill="black" stroke="black" points="736.54,-118.98 738,-108.49 730.32,-115.78 736.54,-118.98"/>
</g>
<!-- n16 -->
<g id="node17" class="node">
<title>n16</title>
<ellipse fill="#b2dfee" stroke="#b2dfee" cx="819" cy="-90" rx="27" ry="18"/>
<text text-anchor="middle" x="819" y="-87.5" font-family="Helvetica,sans-Serif" font-size="10.00">=</text>
</g>
<!-- n11&#45;&gt;n16 -->
<g id="edge16" class="edge">
<title>n11&#45;&gt;n16</title>
<path fill="none" stroke="black" d="M736.59,-144.41C752.86,-133.87 773.94,-120.21 790.71,-109.34"/>
<polygon fill="black" stroke="black" points="792.25,-112.51 798.74,-104.13 788.44,-106.63 792.25,-112.51"/>
</g>
<!-- n17 -->
<g id="node18" class="node">
<title>n17</title>
<ellipse fill="#b2dfee" stroke="#b2dfee" cx="891" cy="-90" rx="27" ry="18"/>
<text text-anchor="middle" x="891" y="-87.5" font-family="Helvetica,sans-Serif" font-size="10.00">INT</text>
</g>
<!-- n11&#45;&gt;n17 -->
<g id="edge17" class="edge">
<title>n11&#45;&gt;n17</title>
<path fill="none" stroke="black" d="M754.55,-146.1C783.32,-135.98 821.71,-121.95 855,-108 856.51,-107.37 858.06,-106.7 859.61,-106.02"/>
<polygon fill="black" stroke="black" points="860.79,-109.33 868.44,-102.01 857.89,-102.96 860.79,-109.33"/>
</g>
<!-- n19 -->
<g id="node20" class="node">
<title>n19</title>
<ellipse fill="#b2dfee" stroke="#b2dfee" cx="963" cy="-90" rx="27" ry="18"/>
<text text-anchor="middle" x="963" y="-87.5" font-family="Helvetica,sans-Serif" font-size="10.00">;</text>
</g>
<!-- n11&#45;&gt;n19 -->
<g id="edge19" class="edge">
<title>n11&#45;&gt;n19</title>
<path fill="none" stroke="black" d="M772.95,-149.25C816.66,-140.13 876.24,-126.01 927,-108 928.55,-107.45 930.12,-106.86 931.69,-106.23"/>
<polygon fill="black" stroke="black" points="932.8,-109.57 940.59,-102.39 930.02,-103.14 932.8,-109.57"/>
</g>
<!-- n18 -->
<g id="node19" class="node">
<title>n18</title>
<ellipse fill="#b2dfee" stroke="#b2dfee" cx="891" cy="-18" rx="27" ry="18"/>
<text text-anchor="middle" x="891" y="-15.5" font-family="Helvetica,sans-Serif" font-size="10.00">5</text>
</g>
<!-- n17&#45;&gt;n18 -->
<g id="edge18" class="edge">
<title>n17&#45;&gt;n18</title>
<path fill="none" stroke="black" d="M891,-71.7C891,-64.41 891,-55.73 891,-47.54"/>
<polygon fill="black" stroke="black" points="894.5,-47.62 891,-37.62 887.5,-47.62 894.5,-47.62"/>
</g>
</g>
</svg>
