<?xml version="1.0" encoding="UTF-8" standalone="no"?>
<!DOCTYPE svg PUBLIC "-//W3C//DTD SVG 1.1//EN"
 "http://www.w3.org/Graphics/SVG/1.1/DTD/svg11.dtd">
<!-- Generated by graphviz version 7.1.0 (20230121.1956)
 -->
<!-- Title: arbolAST Pages: 1 -->
<svg width="1018pt" height="260pt"
 viewBox="0.00 0.00 1018.16 260.00" xmlns="http://www.w3.org/2000/svg" xmlns:xlink="http://www.w3.org/1999/xlink">
<g id="graph0" class="graph" transform="scale(1 1) rotate(0) translate(4 256)">
<title>arbolAST</title>
<polygon fill="white" stroke="none" points="-4,4 -4,-256 1014.16,-256 1014.16,4 -4,4"/>
<!-- n0 -->
<g id="node1" class="node">
<title>n0</title>
<ellipse fill="#b2dfee" stroke="#b2dfee" cx="450.67" cy="-234" rx="27" ry="18"/>
<text text-anchor="middle" x="450.67" y="-231.5" font-family="Helvetica,sans-Serif" font-size="10.00">INICIO</text>
</g>
<!-- n1 -->
<g id="node2" class="node">
<title>n1</title>
<ellipse fill="#b2dfee" stroke="#b2dfee" cx="450.67" cy="-162" rx="55.85" ry="18"/>
<text text-anchor="middle" x="450.67" y="-159.5" font-family="Helvetica,sans-Serif" font-size="10.00">INSTRUCCIONES</text>
</g>
<!-- n0&#45;&gt;n1 -->
<g id="edge1" class="edge">
<title>n0&#45;&gt;n1</title>
<path fill="none" stroke="black" d="M450.67,-215.7C450.67,-208.41 450.67,-199.73 450.67,-191.54"/>
<polygon fill="black" stroke="black" points="454.17,-191.62 450.67,-181.62 447.17,-191.62 454.17,-191.62"/>
</g>
<!-- n2 -->
<g id="node3" class="node">
<title>n2</title>
<ellipse fill="#b2dfee" stroke="#b2dfee" cx="270.67" cy="-90" rx="31.58" ry="18"/>
<text text-anchor="middle" x="270.67" y="-87.5" font-family="Helvetica,sans-Serif" font-size="10.00">STRUCT</text>
</g>
<!-- n1&#45;&gt;n2 -->
<g id="edge2" class="edge">
<title>n1&#45;&gt;n2</title>
<path fill="none" stroke="black" d="M415.96,-147.5C384.62,-135.31 338.66,-117.44 306.86,-105.08"/>
<polygon fill="black" stroke="black" points="308.25,-101.86 297.66,-101.5 305.72,-108.39 308.25,-101.86"/>
</g>
<!-- n8 -->
<g id="node9" class="node">
<title>n8</title>
<ellipse fill="#b2dfee" stroke="#b2dfee" cx="666.67" cy="-90" rx="31.58" ry="18"/>
<text text-anchor="middle" x="666.67" y="-87.5" font-family="Helvetica,sans-Serif" font-size="10.00">STRUCT</text>
</g>
<!-- n1&#45;&gt;n8 -->
<g id="edge8" class="edge">
<title>n1&#45;&gt;n8</title>
<path fill="none" stroke="black" d="M488.79,-148.65C528.22,-135.87 589.45,-116.03 628.79,-103.27"/>
<polygon fill="black" stroke="black" points="629.64,-106.68 638.08,-100.26 627.49,-100.02 629.64,-106.68"/>
</g>
<!-- n3 -->
<g id="node4" class="node">
<title>n3</title>
<ellipse fill="#b2dfee" stroke="#b2dfee" cx="27.67" cy="-18" rx="27.84" ry="18"/>
<text text-anchor="middle" x="27.67" y="-15.5" font-family="Helvetica,sans-Serif" font-size="10.00">struct {</text>
</g>
<!-- n2&#45;&gt;n3 -->
<g id="edge3" class="edge">
<title>n2&#45;&gt;n3</title>
<path fill="none" stroke="black" d="M241,-83.26C200.32,-74.98 125.26,-58.2 63.67,-36 62.31,-35.51 60.94,-34.99 59.57,-34.45"/>
<polygon fill="black" stroke="black" points="61.04,-31.27 50.48,-30.53 58.27,-37.7 61.04,-31.27"/>
</g>
<!-- n4 -->
<g id="node5" class="node">
<title>n4</title>
<ellipse fill="#b2dfee" stroke="#b2dfee" cx="130.67" cy="-18" rx="57.88" ry="18"/>
<text text-anchor="middle" x="130.67" y="-15.5" font-family="Helvetica,sans-Serif" font-size="10.00">nombre : CADENA</text>
</g>
<!-- n2&#45;&gt;n4 -->
<g id="edge4" class="edge">
<title>n2&#45;&gt;n4</title>
<path fill="none" stroke="black" d="M247.55,-77.44C226.69,-67.01 195.54,-51.44 170.65,-38.99"/>
<polygon fill="black" stroke="black" points="172.27,-35.89 161.76,-34.55 169.14,-42.15 172.27,-35.89"/>
</g>
<!-- n5 -->
<g id="node6" class="node">
<title>n5</title>
<ellipse fill="#b2dfee" stroke="#b2dfee" cx="233.67" cy="-18" rx="27.84" ry="18"/>
<text text-anchor="middle" x="233.67" y="-15.5" font-family="Helvetica,sans-Serif" font-size="10.00">id : INT</text>
</g>
<!-- n2&#45;&gt;n5 -->
<g id="edge5" class="edge">
<title>n2&#45;&gt;n5</title>
<path fill="none" stroke="black" d="M261.9,-72.41C257.66,-64.39 252.47,-54.57 247.7,-45.54"/>
<polygon fill="black" stroke="black" points="250.85,-44.01 243.08,-36.81 244.66,-47.28 250.85,-44.01"/>
</g>
<!-- n6 -->
<g id="node7" class="node">
<title>n6</title>
<ellipse fill="#b2dfee" stroke="#b2dfee" cx="306.67" cy="-18" rx="27" ry="18"/>
<text text-anchor="middle" x="306.67" y="-15.5" font-family="Helvetica,sans-Serif" font-size="10.00">}</text>
</g>
<!-- n2&#45;&gt;n6 -->
<g id="edge6" class="edge">
<title>n2&#45;&gt;n6</title>
<path fill="none" stroke="black" d="M279.2,-72.41C283.32,-64.39 288.38,-54.57 293.02,-45.54"/>
<polygon fill="black" stroke="black" points="296.04,-47.31 297.5,-36.82 289.82,-44.11 296.04,-47.31"/>
</g>
<!-- n7 -->
<g id="node8" class="node">
<title>n7</title>
<ellipse fill="#b2dfee" stroke="#b2dfee" cx="378.67" cy="-18" rx="27" ry="18"/>
<text text-anchor="middle" x="378.67" y="-15.5" font-family="Helvetica,sans-Serif" font-size="10.00">curso</text>
</g>
<!-- n2&#45;&gt;n7 -->
<g id="edge7" class="edge">
<title>n2&#45;&gt;n7</title>
<path fill="none" stroke="black" d="M290.98,-75.83C307.76,-64.96 331.77,-49.4 350.42,-37.31"/>
<polygon fill="black" stroke="black" points="352.13,-40.37 358.62,-31.99 348.32,-34.5 352.13,-40.37"/>
</g>
<!-- n9 -->
<g id="node10" class="node">
<title>n9</title>
<ellipse fill="#b2dfee" stroke="#b2dfee" cx="451.67" cy="-18" rx="27.84" ry="18"/>
<text text-anchor="middle" x="451.67" y="-15.5" font-family="Helvetica,sans-Serif" font-size="10.00">struct {</text>
</g>
<!-- n8&#45;&gt;n9 -->
<g id="edge9" class="edge">
<title>n8&#45;&gt;n9</title>
<path fill="none" stroke="black" d="M638.01,-81.97C602.28,-72.87 539.6,-55.82 487.67,-36 486.32,-35.49 484.96,-34.95 483.59,-34.38"/>
<polygon fill="black" stroke="black" points="485.09,-31.22 474.52,-30.4 482.27,-37.63 485.09,-31.22"/>
</g>
<!-- n10 -->
<g id="node11" class="node">
<title>n10</title>
<ellipse fill="#b2dfee" stroke="#b2dfee" cx="554.67" cy="-18" rx="57.88" ry="18"/>
<text text-anchor="middle" x="554.67" y="-15.5" font-family="Helvetica,sans-Serif" font-size="10.00">nombre : CADENA</text>
</g>
<!-- n8&#45;&gt;n10 -->
<g id="edge10" class="edge">
<title>n8&#45;&gt;n10</title>
<path fill="none" stroke="black" d="M645.86,-76C629.99,-66.08 607.77,-52.19 589.24,-40.61"/>
<polygon fill="black" stroke="black" points="591.29,-37.76 580.95,-35.43 587.58,-43.7 591.29,-37.76"/>
</g>
<!-- n11 -->
<g id="node12" class="node">
<title>n11</title>
<ellipse fill="#b2dfee" stroke="#b2dfee" cx="666.67" cy="-18" rx="35.82" ry="18"/>
<text text-anchor="middle" x="666.67" y="-15.5" font-family="Helvetica,sans-Serif" font-size="10.00">edad : INT</text>
</g>
<!-- n8&#45;&gt;n11 -->
<g id="edge11" class="edge">
<title>n8&#45;&gt;n11</title>
<path fill="none" stroke="black" d="M666.67,-71.7C666.67,-64.41 666.67,-55.73 666.67,-47.54"/>
<polygon fill="black" stroke="black" points="670.17,-47.62 666.67,-37.62 663.17,-47.62 670.17,-47.62"/>
</g>
<!-- n12 -->
<g id="node13" class="node">
<title>n12</title>
<ellipse fill="#b2dfee" stroke="#b2dfee" cx="783.67" cy="-18" rx="63.65" ry="18"/>
<text text-anchor="middle" x="783.67" y="-15.5" font-family="Helvetica,sans-Serif" font-size="10.00">asignatura : STRUCT</text>
</g>
<!-- n8&#45;&gt;n12 -->
<g id="edge12" class="edge">
<title>n8&#45;&gt;n12</title>
<path fill="none" stroke="black" d="M687.85,-76.32C704.45,-66.39 727.93,-52.35 747.49,-40.64"/>
<polygon fill="black" stroke="black" points="749.22,-43.69 756.01,-35.55 745.63,-37.68 749.22,-43.69"/>
</g>
<!-- n13 -->
<g id="node14" class="node">
<title>n13</title>
<ellipse fill="#b2dfee" stroke="#b2dfee" cx="892.67" cy="-18" rx="27" ry="18"/>
<text text-anchor="middle" x="892.67" y="-15.5" font-family="Helvetica,sans-Serif" font-size="10.00">}</text>
</g>
<!-- n8&#45;&gt;n13 -->
<g id="edge13" class="edge">
<title>n8&#45;&gt;n13</title>
<path fill="none" stroke="black" d="M695.8,-82.5C733.51,-73.71 800.99,-56.74 856.67,-36 858.21,-35.43 859.77,-34.81 861.34,-34.17"/>
<polygon fill="black" stroke="black" points="862.46,-37.5 870.22,-30.28 859.65,-31.09 862.46,-37.5"/>
</g>
<!-- n14 -->
<g id="node15" class="node">
<title>n14</title>
<ellipse fill="#b2dfee" stroke="#b2dfee" cx="973.67" cy="-18" rx="36.49" ry="18"/>
<text text-anchor="middle" x="973.67" y="-15.5" font-family="Helvetica,sans-Serif" font-size="10.00">estudiante</text>
</g>
<!-- n8&#45;&gt;n14 -->
<g id="edge14" class="edge">
<title>n8&#45;&gt;n14</title>
<path fill="none" stroke="black" d="M696.91,-84.51C746.08,-76.86 846.17,-59.76 928.67,-36 930.92,-35.35 933.23,-34.64 935.54,-33.88"/>
<polygon fill="black" stroke="black" points="936.57,-37.23 944.87,-30.64 934.27,-30.62 936.57,-37.23"/>
</g>
</g>
</svg>
