<?xml version="1.0" encoding="UTF-8" standalone="no"?>
<!DOCTYPE svg PUBLIC "-//W3C//DTD SVG 1.1//EN"
 "http://www.w3.org/Graphics/SVG/1.1/DTD/svg11.dtd">
<!-- Generated by graphviz version 7.1.0 (20230121.1956)
 -->
<!-- Title: arbolAST Pages: 1 -->
<svg width="4022pt" height="404pt"
 viewBox="0.00 0.00 4021.97 404.00" xmlns="http://www.w3.org/2000/svg" xmlns:xlink="http://www.w3.org/1999/xlink">
<g id="graph0" class="graph" transform="scale(1 1) rotate(0) translate(4 400)">
<title>arbolAST</title>
<polygon fill="white" stroke="none" points="-4,4 -4,-400 4017.97,-400 4017.97,4 -4,4"/>
<!-- n0 -->
<g id="node1" class="node">
<title>n0</title>
<ellipse fill="#b2dfee" stroke="#b2dfee" cx="1298.97" cy="-378" rx="27" ry="18"/>
<text text-anchor="middle" x="1298.97" y="-375.5" font-family="Helvetica,sans-Serif" font-size="10.00">INICIO</text>
</g>
<!-- n1 -->
<g id="node2" class="node">
<title>n1</title>
<ellipse fill="#b2dfee" stroke="#b2dfee" cx="1298.97" cy="-306" rx="55.85" ry="18"/>
<text text-anchor="middle" x="1298.97" y="-303.5" font-family="Helvetica,sans-Serif" font-size="10.00">INSTRUCCIONES</text>
</g>
<!-- n0&#45;&gt;n1 -->
<g id="edge1" class="edge">
<title>n0&#45;&gt;n1</title>
<path fill="none" stroke="black" d="M1298.97,-359.7C1298.97,-352.41 1298.97,-343.73 1298.97,-335.54"/>
<polygon fill="black" stroke="black" points="1302.47,-335.62 1298.97,-325.62 1295.47,-335.62 1302.47,-335.62"/>
</g>
<!-- n2 -->
<g id="node3" class="node">
<title>n2</title>
<ellipse fill="#b2dfee" stroke="#b2dfee" cx="434.97" cy="-234" rx="70.78" ry="18"/>
<text text-anchor="middle" x="434.97" y="-231.5" font-family="Helvetica,sans-Serif" font-size="10.00">Declaracion de Arreglos</text>
</g>
<!-- n1&#45;&gt;n2 -->
<g id="edge2" class="edge">
<title>n1&#45;&gt;n2</title>
<path fill="none" stroke="black" d="M1245.24,-300.65C1097.68,-288.69 685.64,-255.31 512.82,-241.31"/>
<polygon fill="black" stroke="black" points="513.3,-237.83 503.05,-240.52 512.73,-244.81 513.3,-237.83"/>
</g>
<!-- n18 -->
<g id="node19" class="node">
<title>n18</title>
<ellipse fill="#b2dfee" stroke="#b2dfee" cx="1082.97" cy="-234" rx="85.89" ry="18"/>
<text text-anchor="middle" x="1082.97" y="-231.5" font-family="Helvetica,sans-Serif" font-size="10.00">DECLARACION_VARIABLES</text>
</g>
<!-- n1&#45;&gt;n18 -->
<g id="edge18" class="edge">
<title>n1&#45;&gt;n18</title>
<path fill="none" stroke="black" d="M1260.85,-292.65C1226.97,-281.67 1177.02,-265.48 1138.67,-253.05"/>
<polygon fill="black" stroke="black" points="1140.21,-249.87 1129.62,-250.12 1138.06,-256.53 1140.21,-249.87"/>
</g>
<!-- n27 -->
<g id="node28" class="node">
<title>n27</title>
<ellipse fill="#b2dfee" stroke="#b2dfee" cx="1514.97" cy="-234" rx="85.89" ry="18"/>
<text text-anchor="middle" x="1514.97" y="-231.5" font-family="Helvetica,sans-Serif" font-size="10.00">DECLARACION_VARIABLES</text>
</g>
<!-- n1&#45;&gt;n27 -->
<g id="edge27" class="edge">
<title>n1&#45;&gt;n27</title>
<path fill="none" stroke="black" d="M1337.08,-292.65C1370.96,-281.67 1420.91,-265.48 1459.26,-253.05"/>
<polygon fill="black" stroke="black" points="1459.87,-256.53 1468.31,-250.12 1457.72,-249.87 1459.87,-256.53"/>
</g>
<!-- n36 -->
<g id="node37" class="node">
<title>n36</title>
<ellipse fill="#b2dfee" stroke="#b2dfee" cx="2453.97" cy="-234" rx="27" ry="18"/>
<text text-anchor="middle" x="2453.97" y="-231.5" font-family="Helvetica,sans-Serif" font-size="10.00">FOR</text>
</g>
<!-- n1&#45;&gt;n36 -->
<g id="edge36" class="edge">
<title>n1&#45;&gt;n36</title>
<path fill="none" stroke="black" d="M1353.51,-301.69C1553.72,-289.56 2245.37,-247.64 2415.79,-237.31"/>
<polygon fill="black" stroke="black" points="2415.86,-240.82 2425.63,-236.72 2415.44,-233.83 2415.86,-240.82"/>
</g>
<!-- n3 -->
<g id="node4" class="node">
<title>n3</title>
<ellipse fill="#b2dfee" stroke="#b2dfee" cx="32.97" cy="-162" rx="32.93" ry="18"/>
<text text-anchor="middle" x="32.97" y="-159.5" font-family="Helvetica,sans-Serif" font-size="10.00">VECTOR</text>
</g>
<!-- n2&#45;&gt;n3 -->
<g id="edge3" class="edge">
<title>n2&#45;&gt;n3</title>
<path fill="none" stroke="black" d="M367.97,-227.94C294.93,-221.33 175.1,-207.22 74.97,-180 72.86,-179.43 70.72,-178.78 68.57,-178.08"/>
<polygon fill="black" stroke="black" points="69.97,-174.86 59.37,-174.76 67.59,-181.45 69.97,-174.86"/>
</g>
<!-- n4 -->
<g id="node5" class="node">
<title>n4</title>
<ellipse fill="#b2dfee" stroke="#b2dfee" cx="110.97" cy="-162" rx="27" ry="18"/>
<text text-anchor="middle" x="110.97" y="-159.5" font-family="Helvetica,sans-Serif" font-size="10.00">:</text>
</g>
<!-- n2&#45;&gt;n4 -->
<g id="edge4" class="edge">
<title>n2&#45;&gt;n4</title>
<path fill="none" stroke="black" d="M370.88,-226.04C311.73,-218.49 221.97,-204.16 146.97,-180 145.36,-179.48 143.74,-178.91 142.11,-178.3"/>
<polygon fill="black" stroke="black" points="143.5,-175.09 132.93,-174.42 140.78,-181.53 143.5,-175.09"/>
</g>
<!-- n5 -->
<g id="node6" class="node">
<title>n5</title>
<ellipse fill="#b2dfee" stroke="#b2dfee" cx="182.97" cy="-162" rx="27" ry="18"/>
<text text-anchor="middle" x="182.97" y="-159.5" font-family="Helvetica,sans-Serif" font-size="10.00">INT</text>
</g>
<!-- n2&#45;&gt;n5 -->
<g id="edge5" class="edge">
<title>n2&#45;&gt;n5</title>
<path fill="none" stroke="black" d="M379.48,-222.59C335.31,-213.54 272.28,-198.91 218.97,-180 217.42,-179.45 215.85,-178.86 214.27,-178.23"/>
<polygon fill="black" stroke="black" points="215.95,-175.14 205.38,-174.39 213.17,-181.57 215.95,-175.14"/>
</g>
<!-- n6 -->
<g id="node7" class="node">
<title>n6</title>
<ellipse fill="#b2dfee" stroke="#b2dfee" cx="254.97" cy="-162" rx="27" ry="18"/>
<text text-anchor="middle" x="254.97" y="-159.5" font-family="Helvetica,sans-Serif" font-size="10.00">=</text>
</g>
<!-- n2&#45;&gt;n6 -->
<g id="edge6" class="edge">
<title>n2&#45;&gt;n6</title>
<path fill="none" stroke="black" d="M393.94,-218.99C364.92,-208.81 325.24,-194.37 290.97,-180 289.45,-179.37 287.91,-178.7 286.35,-178.02"/>
<polygon fill="black" stroke="black" points="288.08,-174.96 277.52,-174.01 285.18,-181.33 288.08,-174.96"/>
</g>
<!-- n7 -->
<g id="node8" class="node">
<title>n7</title>
<ellipse fill="#b2dfee" stroke="#b2dfee" cx="326.97" cy="-162" rx="27" ry="18"/>
<text text-anchor="middle" x="326.97" y="-159.5" font-family="Helvetica,sans-Serif" font-size="10.00">[</text>
</g>
<!-- n2&#45;&gt;n7 -->
<g id="edge7" class="edge">
<title>n2&#45;&gt;n7</title>
<path fill="none" stroke="black" d="M409.92,-216.76C393.56,-206.16 372.17,-192.3 355.21,-181.31"/>
<polygon fill="black" stroke="black" points="357.37,-178.54 347.08,-176.04 353.57,-184.41 357.37,-178.54"/>
</g>
<!-- n8 -->
<g id="node9" class="node">
<title>n8</title>
<ellipse fill="#b2dfee" stroke="#b2dfee" cx="398.97" cy="-162" rx="27" ry="18"/>
<text text-anchor="middle" x="398.97" y="-159.5" font-family="Helvetica,sans-Serif" font-size="10.00">INT</text>
</g>
<!-- n2&#45;&gt;n8 -->
<g id="edge8" class="edge">
<title>n2&#45;&gt;n8</title>
<path fill="none" stroke="black" d="M426.07,-215.7C421.98,-207.75 417.05,-198.16 412.51,-189.34"/>
<polygon fill="black" stroke="black" points="415.65,-187.78 407.96,-180.49 409.42,-190.98 415.65,-187.78"/>
</g>
<!-- n10 -->
<g id="node11" class="node">
<title>n10</title>
<ellipse fill="#b2dfee" stroke="#b2dfee" cx="470.97" cy="-162" rx="27" ry="18"/>
<text text-anchor="middle" x="470.97" y="-159.5" font-family="Helvetica,sans-Serif" font-size="10.00">INT</text>
</g>
<!-- n2&#45;&gt;n10 -->
<g id="edge10" class="edge">
<title>n2&#45;&gt;n10</title>
<path fill="none" stroke="black" d="M443.86,-215.7C447.95,-207.75 452.88,-198.16 457.42,-189.34"/>
<polygon fill="black" stroke="black" points="460.51,-190.98 461.97,-180.49 454.28,-187.78 460.51,-190.98"/>
</g>
<!-- n12 -->
<g id="node13" class="node">
<title>n12</title>
<ellipse fill="#b2dfee" stroke="#b2dfee" cx="542.97" cy="-162" rx="27" ry="18"/>
<text text-anchor="middle" x="542.97" y="-159.5" font-family="Helvetica,sans-Serif" font-size="10.00">INT</text>
</g>
<!-- n2&#45;&gt;n12 -->
<g id="edge12" class="edge">
<title>n2&#45;&gt;n12</title>
<path fill="none" stroke="black" d="M460.01,-216.76C476.37,-206.16 497.76,-192.3 514.72,-181.31"/>
<polygon fill="black" stroke="black" points="516.36,-184.41 522.85,-176.04 512.56,-178.54 516.36,-184.41"/>
</g>
<!-- n14 -->
<g id="node15" class="node">
<title>n14</title>
<ellipse fill="#b2dfee" stroke="#b2dfee" cx="614.97" cy="-162" rx="27" ry="18"/>
<text text-anchor="middle" x="614.97" y="-159.5" font-family="Helvetica,sans-Serif" font-size="10.00">INT</text>
</g>
<!-- n2&#45;&gt;n14 -->
<g id="edge14" class="edge">
<title>n2&#45;&gt;n14</title>
<path fill="none" stroke="black" d="M475.99,-218.99C505.01,-208.81 544.69,-194.37 578.97,-180 580.48,-179.37 582.02,-178.7 583.58,-178.02"/>
<polygon fill="black" stroke="black" points="584.75,-181.33 592.41,-174.01 581.85,-174.96 584.75,-181.33"/>
</g>
<!-- n16 -->
<g id="node17" class="node">
<title>n16</title>
<ellipse fill="#b2dfee" stroke="#b2dfee" cx="686.97" cy="-162" rx="27" ry="18"/>
<text text-anchor="middle" x="686.97" y="-159.5" font-family="Helvetica,sans-Serif" font-size="10.00">]</text>
</g>
<!-- n2&#45;&gt;n16 -->
<g id="edge16" class="edge">
<title>n2&#45;&gt;n16</title>
<path fill="none" stroke="black" d="M490.45,-222.59C534.62,-213.54 597.65,-198.91 650.97,-180 652.51,-179.45 654.08,-178.86 655.66,-178.23"/>
<polygon fill="black" stroke="black" points="656.76,-181.57 664.55,-174.39 653.98,-175.14 656.76,-181.57"/>
</g>
<!-- n17 -->
<g id="node18" class="node">
<title>n17</title>
<ellipse fill="#b2dfee" stroke="#b2dfee" cx="758.97" cy="-162" rx="27" ry="18"/>
<text text-anchor="middle" x="758.97" y="-159.5" font-family="Helvetica,sans-Serif" font-size="10.00">;</text>
</g>
<!-- n2&#45;&gt;n17 -->
<g id="edge17" class="edge">
<title>n2&#45;&gt;n17</title>
<path fill="none" stroke="black" d="M499.05,-226.04C558.2,-218.49 647.96,-204.16 722.97,-180 724.57,-179.48 726.19,-178.91 727.82,-178.3"/>
<polygon fill="black" stroke="black" points="729.15,-181.53 737,-174.42 726.43,-175.09 729.15,-181.53"/>
</g>
<!-- n9 -->
<g id="node10" class="node">
<title>n9</title>
<ellipse fill="#b2dfee" stroke="#b2dfee" cx="398.97" cy="-90" rx="27" ry="18"/>
<text text-anchor="middle" x="398.97" y="-87.5" font-family="Helvetica,sans-Serif" font-size="10.00">1</text>
</g>
<!-- n8&#45;&gt;n9 -->
<g id="edge9" class="edge">
<title>n8&#45;&gt;n9</title>
<path fill="none" stroke="black" d="M398.97,-143.7C398.97,-136.41 398.97,-127.73 398.97,-119.54"/>
<polygon fill="black" stroke="black" points="402.47,-119.62 398.97,-109.62 395.47,-119.62 402.47,-119.62"/>
</g>
<!-- n11 -->
<g id="node12" class="node">
<title>n11</title>
<ellipse fill="#b2dfee" stroke="#b2dfee" cx="470.97" cy="-90" rx="27" ry="18"/>
<text text-anchor="middle" x="470.97" y="-87.5" font-family="Helvetica,sans-Serif" font-size="10.00">2</text>
</g>
<!-- n10&#45;&gt;n11 -->
<g id="edge11" class="edge">
<title>n10&#45;&gt;n11</title>
<path fill="none" stroke="black" d="M470.97,-143.7C470.97,-136.41 470.97,-127.73 470.97,-119.54"/>
<polygon fill="black" stroke="black" points="474.47,-119.62 470.97,-109.62 467.47,-119.62 474.47,-119.62"/>
</g>
<!-- n13 -->
<g id="node14" class="node">
<title>n13</title>
<ellipse fill="#b2dfee" stroke="#b2dfee" cx="542.97" cy="-90" rx="27" ry="18"/>
<text text-anchor="middle" x="542.97" y="-87.5" font-family="Helvetica,sans-Serif" font-size="10.00">3</text>
</g>
<!-- n12&#45;&gt;n13 -->
<g id="edge13" class="edge">
<title>n12&#45;&gt;n13</title>
<path fill="none" stroke="black" d="M542.97,-143.7C542.97,-136.41 542.97,-127.73 542.97,-119.54"/>
<polygon fill="black" stroke="black" points="546.47,-119.62 542.97,-109.62 539.47,-119.62 546.47,-119.62"/>
</g>
<!-- n15 -->
<g id="node16" class="node">
<title>n15</title>
<ellipse fill="#b2dfee" stroke="#b2dfee" cx="614.97" cy="-90" rx="27" ry="18"/>
<text text-anchor="middle" x="614.97" y="-87.5" font-family="Helvetica,sans-Serif" font-size="10.00">4</text>
</g>
<!-- n14&#45;&gt;n15 -->
<g id="edge15" class="edge">
<title>n14&#45;&gt;n15</title>
<path fill="none" stroke="black" d="M614.97,-143.7C614.97,-136.41 614.97,-127.73 614.97,-119.54"/>
<polygon fill="black" stroke="black" points="618.47,-119.62 614.97,-109.62 611.47,-119.62 618.47,-119.62"/>
</g>
<!-- n19 -->
<g id="node20" class="node">
<title>n19</title>
<ellipse fill="#b2dfee" stroke="#b2dfee" cx="830.97" cy="-162" rx="27" ry="18"/>
<text text-anchor="middle" x="830.97" y="-159.5" font-family="Helvetica,sans-Serif" font-size="10.00">var</text>
</g>
<!-- n18&#45;&gt;n19 -->
<g id="edge19" class="edge">
<title>n18&#45;&gt;n19</title>
<path fill="none" stroke="black" d="M1021.02,-221.25C977.31,-212.13 917.73,-198.01 866.97,-180 865.42,-179.45 863.85,-178.86 862.27,-178.23"/>
<polygon fill="black" stroke="black" points="863.95,-175.14 853.38,-174.39 861.17,-181.57 863.95,-175.14"/>
</g>
<!-- n20 -->
<g id="node21" class="node">
<title>n20</title>
<ellipse fill="#b2dfee" stroke="#b2dfee" cx="902.97" cy="-162" rx="27" ry="18"/>
<text text-anchor="middle" x="902.97" y="-159.5" font-family="Helvetica,sans-Serif" font-size="10.00">i</text>
</g>
<!-- n18&#45;&gt;n20 -->
<g id="edge20" class="edge">
<title>n18&#45;&gt;n20</title>
<path fill="none" stroke="black" d="M1039.41,-218.1C1010.65,-207.98 972.26,-193.95 938.97,-180 937.45,-179.37 935.91,-178.7 934.35,-178.02"/>
<polygon fill="black" stroke="black" points="936.08,-174.96 925.52,-174.01 933.18,-181.33 936.08,-174.96"/>
</g>
<!-- n21 -->
<g id="node22" class="node">
<title>n21</title>
<ellipse fill="#b2dfee" stroke="#b2dfee" cx="974.97" cy="-162" rx="27" ry="18"/>
<text text-anchor="middle" x="974.97" y="-159.5" font-family="Helvetica,sans-Serif" font-size="10.00">:</text>
</g>
<!-- n18&#45;&gt;n21 -->
<g id="edge21" class="edge">
<title>n18&#45;&gt;n21</title>
<path fill="none" stroke="black" d="M1057.37,-216.41C1041.1,-205.87 1020.02,-192.21 1003.26,-181.34"/>
<polygon fill="black" stroke="black" points="1005.52,-178.63 995.23,-176.13 1001.71,-184.51 1005.52,-178.63"/>
</g>
<!-- n22 -->
<g id="node23" class="node">
<title>n22</title>
<ellipse fill="#b2dfee" stroke="#b2dfee" cx="1046.97" cy="-162" rx="27" ry="18"/>
<text text-anchor="middle" x="1046.97" y="-159.5" font-family="Helvetica,sans-Serif" font-size="10.00">INT</text>
</g>
<!-- n18&#45;&gt;n22 -->
<g id="edge22" class="edge">
<title>n18&#45;&gt;n22</title>
<path fill="none" stroke="black" d="M1074.07,-215.7C1069.98,-207.75 1065.05,-198.16 1060.51,-189.34"/>
<polygon fill="black" stroke="black" points="1063.65,-187.78 1055.96,-180.49 1057.42,-190.98 1063.65,-187.78"/>
</g>
<!-- n23 -->
<g id="node24" class="node">
<title>n23</title>
<ellipse fill="#b2dfee" stroke="#b2dfee" cx="1118.97" cy="-162" rx="27" ry="18"/>
<text text-anchor="middle" x="1118.97" y="-159.5" font-family="Helvetica,sans-Serif" font-size="10.00">=</text>
</g>
<!-- n18&#45;&gt;n23 -->
<g id="edge23" class="edge">
<title>n18&#45;&gt;n23</title>
<path fill="none" stroke="black" d="M1091.86,-215.7C1095.95,-207.75 1100.88,-198.16 1105.42,-189.34"/>
<polygon fill="black" stroke="black" points="1108.51,-190.98 1109.97,-180.49 1102.28,-187.78 1108.51,-190.98"/>
</g>
<!-- n24 -->
<g id="node25" class="node">
<title>n24</title>
<ellipse fill="#b2dfee" stroke="#b2dfee" cx="1190.97" cy="-162" rx="27" ry="18"/>
<text text-anchor="middle" x="1190.97" y="-159.5" font-family="Helvetica,sans-Serif" font-size="10.00">INT</text>
</g>
<!-- n18&#45;&gt;n24 -->
<g id="edge24" class="edge">
<title>n18&#45;&gt;n24</title>
<path fill="none" stroke="black" d="M1108.56,-216.41C1124.83,-205.87 1145.91,-192.21 1162.67,-181.34"/>
<polygon fill="black" stroke="black" points="1164.22,-184.51 1170.71,-176.13 1160.41,-178.63 1164.22,-184.51"/>
</g>
<!-- n26 -->
<g id="node27" class="node">
<title>n26</title>
<ellipse fill="#b2dfee" stroke="#b2dfee" cx="1262.97" cy="-162" rx="27" ry="18"/>
<text text-anchor="middle" x="1262.97" y="-159.5" font-family="Helvetica,sans-Serif" font-size="10.00">;</text>
</g>
<!-- n18&#45;&gt;n26 -->
<g id="edge26" class="edge">
<title>n18&#45;&gt;n26</title>
<path fill="none" stroke="black" d="M1126.52,-218.1C1155.28,-207.98 1193.67,-193.95 1226.97,-180 1228.48,-179.37 1230.02,-178.7 1231.58,-178.02"/>
<polygon fill="black" stroke="black" points="1232.75,-181.33 1240.41,-174.01 1229.85,-174.96 1232.75,-181.33"/>
</g>
<!-- n25 -->
<g id="node26" class="node">
<title>n25</title>
<ellipse fill="#b2dfee" stroke="#b2dfee" cx="1190.97" cy="-90" rx="27" ry="18"/>
<text text-anchor="middle" x="1190.97" y="-87.5" font-family="Helvetica,sans-Serif" font-size="10.00">0</text>
</g>
<!-- n24&#45;&gt;n25 -->
<g id="edge25" class="edge">
<title>n24&#45;&gt;n25</title>
<path fill="none" stroke="black" d="M1190.97,-143.7C1190.97,-136.41 1190.97,-127.73 1190.97,-119.54"/>
<polygon fill="black" stroke="black" points="1194.47,-119.62 1190.97,-109.62 1187.47,-119.62 1194.47,-119.62"/>
</g>
<!-- n28 -->
<g id="node29" class="node">
<title>n28</title>
<ellipse fill="#b2dfee" stroke="#b2dfee" cx="1334.97" cy="-162" rx="27" ry="18"/>
<text text-anchor="middle" x="1334.97" y="-159.5" font-family="Helvetica,sans-Serif" font-size="10.00">var</text>
</g>
<!-- n27&#45;&gt;n28 -->
<g id="edge28" class="edge">
<title>n27&#45;&gt;n28</title>
<path fill="none" stroke="black" d="M1471.41,-218.1C1442.65,-207.98 1404.26,-193.95 1370.97,-180 1369.45,-179.37 1367.91,-178.7 1366.35,-178.02"/>
<polygon fill="black" stroke="black" points="1368.08,-174.96 1357.52,-174.01 1365.18,-181.33 1368.08,-174.96"/>
</g>
<!-- n29 -->
<g id="node30" class="node">
<title>n29</title>
<ellipse fill="#b2dfee" stroke="#b2dfee" cx="1406.97" cy="-162" rx="27" ry="18"/>
<text text-anchor="middle" x="1406.97" y="-159.5" font-family="Helvetica,sans-Serif" font-size="10.00">j</text>
</g>
<!-- n27&#45;&gt;n29 -->
<g id="edge29" class="edge">
<title>n27&#45;&gt;n29</title>
<path fill="none" stroke="black" d="M1489.37,-216.41C1473.1,-205.87 1452.02,-192.21 1435.26,-181.34"/>
<polygon fill="black" stroke="black" points="1437.52,-178.63 1427.23,-176.13 1433.71,-184.51 1437.52,-178.63"/>
</g>
<!-- n30 -->
<g id="node31" class="node">
<title>n30</title>
<ellipse fill="#b2dfee" stroke="#b2dfee" cx="1478.97" cy="-162" rx="27" ry="18"/>
<text text-anchor="middle" x="1478.97" y="-159.5" font-family="Helvetica,sans-Serif" font-size="10.00">:</text>
</g>
<!-- n27&#45;&gt;n30 -->
<g id="edge30" class="edge">
<title>n27&#45;&gt;n30</title>
<path fill="none" stroke="black" d="M1506.07,-215.7C1501.98,-207.75 1497.05,-198.16 1492.51,-189.34"/>
<polygon fill="black" stroke="black" points="1495.65,-187.78 1487.96,-180.49 1489.42,-190.98 1495.65,-187.78"/>
</g>
<!-- n31 -->
<g id="node32" class="node">
<title>n31</title>
<ellipse fill="#b2dfee" stroke="#b2dfee" cx="1550.97" cy="-162" rx="27" ry="18"/>
<text text-anchor="middle" x="1550.97" y="-159.5" font-family="Helvetica,sans-Serif" font-size="10.00">INT</text>
</g>
<!-- n27&#45;&gt;n31 -->
<g id="edge31" class="edge">
<title>n27&#45;&gt;n31</title>
<path fill="none" stroke="black" d="M1523.86,-215.7C1527.95,-207.75 1532.88,-198.16 1537.42,-189.34"/>
<polygon fill="black" stroke="black" points="1540.51,-190.98 1541.97,-180.49 1534.28,-187.78 1540.51,-190.98"/>
</g>
<!-- n32 -->
<g id="node33" class="node">
<title>n32</title>
<ellipse fill="#b2dfee" stroke="#b2dfee" cx="1622.97" cy="-162" rx="27" ry="18"/>
<text text-anchor="middle" x="1622.97" y="-159.5" font-family="Helvetica,sans-Serif" font-size="10.00">=</text>
</g>
<!-- n27&#45;&gt;n32 -->
<g id="edge32" class="edge">
<title>n27&#45;&gt;n32</title>
<path fill="none" stroke="black" d="M1540.56,-216.41C1556.83,-205.87 1577.91,-192.21 1594.67,-181.34"/>
<polygon fill="black" stroke="black" points="1596.22,-184.51 1602.71,-176.13 1592.41,-178.63 1596.22,-184.51"/>
</g>
<!-- n33 -->
<g id="node34" class="node">
<title>n33</title>
<ellipse fill="#b2dfee" stroke="#b2dfee" cx="1694.97" cy="-162" rx="27" ry="18"/>
<text text-anchor="middle" x="1694.97" y="-159.5" font-family="Helvetica,sans-Serif" font-size="10.00">INT</text>
</g>
<!-- n27&#45;&gt;n33 -->
<g id="edge33" class="edge">
<title>n27&#45;&gt;n33</title>
<path fill="none" stroke="black" d="M1558.52,-218.1C1587.28,-207.98 1625.67,-193.95 1658.97,-180 1660.48,-179.37 1662.02,-178.7 1663.58,-178.02"/>
<polygon fill="black" stroke="black" points="1664.75,-181.33 1672.41,-174.01 1661.85,-174.96 1664.75,-181.33"/>
</g>
<!-- n35 -->
<g id="node36" class="node">
<title>n35</title>
<ellipse fill="#b2dfee" stroke="#b2dfee" cx="1766.97" cy="-162" rx="27" ry="18"/>
<text text-anchor="middle" x="1766.97" y="-159.5" font-family="Helvetica,sans-Serif" font-size="10.00">;</text>
</g>
<!-- n27&#45;&gt;n35 -->
<g id="edge35" class="edge">
<title>n27&#45;&gt;n35</title>
<path fill="none" stroke="black" d="M1576.91,-221.25C1620.62,-212.13 1680.2,-198.01 1730.97,-180 1732.51,-179.45 1734.08,-178.86 1735.66,-178.23"/>
<polygon fill="black" stroke="black" points="1736.76,-181.57 1744.55,-174.39 1733.98,-175.14 1736.76,-181.57"/>
</g>
<!-- n34 -->
<g id="node35" class="node">
<title>n34</title>
<ellipse fill="#b2dfee" stroke="#b2dfee" cx="1694.97" cy="-90" rx="27" ry="18"/>
<text text-anchor="middle" x="1694.97" y="-87.5" font-family="Helvetica,sans-Serif" font-size="10.00">6</text>
</g>
<!-- n33&#45;&gt;n34 -->
<g id="edge34" class="edge">
<title>n33&#45;&gt;n34</title>
<path fill="none" stroke="black" d="M1694.97,-143.7C1694.97,-136.41 1694.97,-127.73 1694.97,-119.54"/>
<polygon fill="black" stroke="black" points="1698.47,-119.62 1694.97,-109.62 1691.47,-119.62 1698.47,-119.62"/>
</g>
<!-- n37 -->
<g id="node38" class="node">
<title>n37</title>
<ellipse fill="#b2dfee" stroke="#b2dfee" cx="1838.97" cy="-162" rx="27" ry="18"/>
<text text-anchor="middle" x="1838.97" y="-159.5" font-family="Helvetica,sans-Serif" font-size="10.00">for</text>
</g>
<!-- n36&#45;&gt;n37 -->
<g id="edge37" class="edge">
<title>n36&#45;&gt;n37</title>
<path fill="none" stroke="black" d="M2426.84,-231.77C2327.14,-227.07 1981.24,-208.98 1874.97,-180 1873.34,-179.56 1871.7,-179.04 1870.06,-178.48"/>
<polygon fill="black" stroke="black" points="1871.42,-175.25 1860.83,-174.74 1868.79,-181.74 1871.42,-175.25"/>
</g>
<!-- n38 -->
<g id="node39" class="node">
<title>n38</title>
<ellipse fill="#b2dfee" stroke="#b2dfee" cx="1910.97" cy="-162" rx="27" ry="18"/>
<text text-anchor="middle" x="1910.97" y="-159.5" font-family="Helvetica,sans-Serif" font-size="10.00">(</text>
</g>
<!-- n36&#45;&gt;n38 -->
<g id="edge38" class="edge">
<title>n36&#45;&gt;n38</title>
<path fill="none" stroke="black" d="M2426.71,-233.33C2349.76,-233.61 2124.88,-229.75 1946.97,-180 1945.34,-179.55 1943.7,-179.02 1942.06,-178.45"/>
<polygon fill="black" stroke="black" points="1943.43,-175.23 1932.85,-174.69 1940.78,-181.71 1943.43,-175.23"/>
</g>
<!-- n39 -->
<g id="node40" class="node">
<title>n39</title>
<ellipse fill="#b2dfee" stroke="#b2dfee" cx="2022.97" cy="-162" rx="66.54" ry="18"/>
<text text-anchor="middle" x="2022.97" y="-159.5" font-family="Helvetica,sans-Serif" font-size="10.00">ASIGNAR_VARIABLE</text>
</g>
<!-- n36&#45;&gt;n39 -->
<g id="edge39" class="edge">
<title>n36&#45;&gt;n39</title>
<path fill="none" stroke="black" d="M2427.65,-228.73C2361.55,-217.99 2186.9,-189.62 2090.04,-173.89"/>
<polygon fill="black" stroke="black" points="2090.84,-170.48 2080.4,-172.33 2089.71,-177.39 2090.84,-170.48"/>
</g>
<!-- n45 -->
<g id="node46" class="node">
<title>n45</title>
<ellipse fill="#b2dfee" stroke="#b2dfee" cx="2294.97" cy="-162" rx="45.15" ry="18"/>
<text text-anchor="middle" x="2294.97" y="-159.5" font-family="Helvetica,sans-Serif" font-size="10.00">RELACIONAL</text>
</g>
<!-- n36&#45;&gt;n45 -->
<g id="edge45" class="edge">
<title>n36&#45;&gt;n45</title>
<path fill="none" stroke="black" d="M2431.86,-223.27C2406.82,-212.24 2365.52,-194.06 2334.83,-180.55"/>
<polygon fill="black" stroke="black" points="2336.4,-177.42 2325.84,-176.59 2333.58,-183.82 2336.4,-177.42"/>
</g>
<!-- n51 -->
<g id="node52" class="node">
<title>n51</title>
<ellipse fill="#b2dfee" stroke="#b2dfee" cx="2414.97" cy="-162" rx="34.29" ry="18"/>
<text text-anchor="middle" x="2414.97" y="-159.5" font-family="Helvetica,sans-Serif" font-size="10.00">INC_DEC</text>
</g>
<!-- n36&#45;&gt;n51 -->
<g id="edge51" class="edge">
<title>n36&#45;&gt;n51</title>
<path fill="none" stroke="black" d="M2444.92,-216.76C2440.41,-208.67 2434.83,-198.66 2429.72,-189.49"/>
<polygon fill="black" stroke="black" points="2432.89,-187.99 2424.97,-180.96 2426.78,-191.39 2432.89,-187.99"/>
</g>
<!-- n55 -->
<g id="node56" class="node">
<title>n55</title>
<ellipse fill="#b2dfee" stroke="#b2dfee" cx="2493.97" cy="-162" rx="27" ry="18"/>
<text text-anchor="middle" x="2493.97" y="-159.5" font-family="Helvetica,sans-Serif" font-size="10.00">)</text>
</g>
<!-- n36&#45;&gt;n55 -->
<g id="edge55" class="edge">
<title>n36&#45;&gt;n55</title>
<path fill="none" stroke="black" d="M2463.24,-216.76C2467.94,-208.55 2473.75,-198.37 2479.06,-189.09"/>
<polygon fill="black" stroke="black" points="2482.06,-190.88 2483.99,-180.46 2475.99,-187.41 2482.06,-190.88"/>
</g>
<!-- n56 -->
<g id="node57" class="node">
<title>n56</title>
<ellipse fill="#b2dfee" stroke="#b2dfee" cx="2565.97" cy="-162" rx="27" ry="18"/>
<text text-anchor="middle" x="2565.97" y="-159.5" font-family="Helvetica,sans-Serif" font-size="10.00">{</text>
</g>
<!-- n36&#45;&gt;n56 -->
<g id="edge56" class="edge">
<title>n36&#45;&gt;n56</title>
<path fill="none" stroke="black" d="M2473.22,-220.97C2490.77,-210 2516.94,-193.64 2537.01,-181.1"/>
<polygon fill="black" stroke="black" points="2538.68,-184.18 2545.3,-175.91 2534.97,-178.24 2538.68,-184.18"/>
</g>
<!-- n57 -->
<g id="node58" class="node">
<title>n57</title>
<ellipse fill="#b2dfee" stroke="#b2dfee" cx="2872.97" cy="-162" rx="58.06" ry="18"/>
<text text-anchor="middle" x="2872.97" y="-159.5" font-family="Helvetica,sans-Serif" font-size="10.00">ASIG_ARREGLOS</text>
</g>
<!-- n36&#45;&gt;n57 -->
<g id="edge57" class="edge">
<title>n36&#45;&gt;n57</title>
<path fill="none" stroke="black" d="M2480.18,-228.62C2545.79,-217.66 2718.5,-188.81 2811.53,-173.26"/>
<polygon fill="black" stroke="black" points="2811.96,-176.74 2821.25,-171.64 2810.81,-169.84 2811.96,-176.74"/>
</g>
<!-- n68 -->
<g id="node69" class="node">
<title>n68</title>
<ellipse fill="#b2dfee" stroke="#b2dfee" cx="3418.97" cy="-162" rx="34.29" ry="18"/>
<text text-anchor="middle" x="3418.97" y="-159.5" font-family="Helvetica,sans-Serif" font-size="10.00">INC_DEC</text>
</g>
<!-- n36&#45;&gt;n68 -->
<g id="edge68" class="edge">
<title>n36&#45;&gt;n68</title>
<path fill="none" stroke="black" d="M2481.04,-231.04C2614.65,-221.34 3204.12,-178.58 3373.38,-166.31"/>
<polygon fill="black" stroke="black" points="3373.6,-169.8 3383.32,-165.59 3373.09,-162.82 3373.6,-169.8"/>
</g>
<!-- n72 -->
<g id="node73" class="node">
<title>n72</title>
<ellipse fill="#b2dfee" stroke="#b2dfee" cx="3670.97" cy="-162" rx="32.93" ry="18"/>
<text text-anchor="middle" x="3670.97" y="-159.5" font-family="Helvetica,sans-Serif" font-size="10.00">PRINTLN</text>
</g>
<!-- n36&#45;&gt;n72 -->
<g id="edge72" class="edge">
<title>n36&#45;&gt;n72</title>
<path fill="none" stroke="black" d="M2481.24,-231.85C2598.7,-226.85 3072.92,-206.04 3461.97,-180 3519.07,-176.18 3584.86,-170.64 3627.13,-166.93"/>
<polygon fill="black" stroke="black" points="3627.24,-170.44 3636.9,-166.07 3626.63,-163.46 3627.24,-170.44"/>
</g>
<!-- n79 -->
<g id="node80" class="node">
<title>n79</title>
<ellipse fill="#b2dfee" stroke="#b2dfee" cx="3748.97" cy="-162" rx="27" ry="18"/>
<text text-anchor="middle" x="3748.97" y="-159.5" font-family="Helvetica,sans-Serif" font-size="10.00">}</text>
</g>
<!-- n36&#45;&gt;n79 -->
<g id="edge79" class="edge">
<title>n36&#45;&gt;n79</title>
<path fill="none" stroke="black" d="M2481.28,-232.5C2653.85,-229.26 3589.63,-210.39 3712.97,-180 3714.6,-179.6 3716.25,-179.12 3717.9,-178.58"/>
<polygon fill="black" stroke="black" points="3719.13,-181.85 3727.14,-174.91 3716.55,-175.35 3719.13,-181.85"/>
</g>
<!-- n40 -->
<g id="node41" class="node">
<title>n40</title>
<ellipse fill="#b2dfee" stroke="#b2dfee" cx="1786.97" cy="-90" rx="27" ry="18"/>
<text text-anchor="middle" x="1786.97" y="-87.5" font-family="Helvetica,sans-Serif" font-size="10.00">i</text>
</g>
<!-- n39&#45;&gt;n40 -->
<g id="edge40" class="edge">
<title>n39&#45;&gt;n40</title>
<path fill="none" stroke="black" d="M1974.76,-149.3C1924.93,-137.01 1850.63,-118.1 1822.97,-108 1821.42,-107.44 1819.86,-106.83 1818.29,-106.2"/>
<polygon fill="black" stroke="black" points="1819.97,-103.11 1809.4,-102.33 1817.17,-109.53 1819.97,-103.11"/>
</g>
<!-- n41 -->
<g id="node42" class="node">
<title>n41</title>
<ellipse fill="#b2dfee" stroke="#b2dfee" cx="1858.97" cy="-90" rx="27" ry="18"/>
<text text-anchor="middle" x="1858.97" y="-87.5" font-family="Helvetica,sans-Serif" font-size="10.00">=</text>
</g>
<!-- n39&#45;&gt;n41 -->
<g id="edge41" class="edge">
<title>n39&#45;&gt;n41</title>
<path fill="none" stroke="black" d="M1986.63,-146.5C1960.9,-136.1 1925.64,-121.59 1894.97,-108 1893.65,-107.42 1892.31,-106.82 1890.96,-106.21"/>
<polygon fill="black" stroke="black" points="1892.51,-103.07 1881.96,-102.05 1889.58,-109.42 1892.51,-103.07"/>
</g>
<!-- n42 -->
<g id="node43" class="node">
<title>n42</title>
<ellipse fill="#b2dfee" stroke="#b2dfee" cx="1930.97" cy="-90" rx="27" ry="18"/>
<text text-anchor="middle" x="1930.97" y="-87.5" font-family="Helvetica,sans-Serif" font-size="10.00">INT</text>
</g>
<!-- n39&#45;&gt;n42 -->
<g id="edge42" class="edge">
<title>n39&#45;&gt;n42</title>
<path fill="none" stroke="black" d="M2001.63,-144.76C1988.43,-134.72 1971.39,-121.76 1957.35,-111.07"/>
<polygon fill="black" stroke="black" points="1959.47,-108.29 1949.39,-105.02 1955.23,-113.86 1959.47,-108.29"/>
</g>
<!-- n44 -->
<g id="node45" class="node">
<title>n44</title>
<ellipse fill="#b2dfee" stroke="#b2dfee" cx="2002.97" cy="-90" rx="27" ry="18"/>
<text text-anchor="middle" x="2002.97" y="-87.5" font-family="Helvetica,sans-Serif" font-size="10.00">;</text>
</g>
<!-- n39&#45;&gt;n44 -->
<g id="edge44" class="edge">
<title>n39&#45;&gt;n44</title>
<path fill="none" stroke="black" d="M2018.02,-143.7C2015.89,-136.24 2013.34,-127.32 2010.96,-118.97"/>
<polygon fill="black" stroke="black" points="2014.38,-118.21 2008.27,-109.56 2007.65,-120.14 2014.38,-118.21"/>
</g>
<!-- n43 -->
<g id="node44" class="node">
<title>n43</title>
<ellipse fill="#b2dfee" stroke="#b2dfee" cx="1930.97" cy="-18" rx="27" ry="18"/>
<text text-anchor="middle" x="1930.97" y="-15.5" font-family="Helvetica,sans-Serif" font-size="10.00">0</text>
</g>
<!-- n42&#45;&gt;n43 -->
<g id="edge43" class="edge">
<title>n42&#45;&gt;n43</title>
<path fill="none" stroke="black" d="M1930.97,-71.7C1930.97,-64.41 1930.97,-55.73 1930.97,-47.54"/>
<polygon fill="black" stroke="black" points="1934.47,-47.62 1930.97,-37.62 1927.47,-47.62 1934.47,-47.62"/>
</g>
<!-- n46 -->
<g id="node47" class="node">
<title>n46</title>
<ellipse fill="#b2dfee" stroke="#b2dfee" cx="2124.97" cy="-90" rx="77.23" ry="18"/>
<text text-anchor="middle" x="2124.97" y="-87.5" font-family="Helvetica,sans-Serif" font-size="10.00">RECUPERAR_VARIABLE</text>
</g>
<!-- n45&#45;&gt;n46 -->
<g id="edge46" class="edge">
<title>n45&#45;&gt;n46</title>
<path fill="none" stroke="black" d="M2264.57,-148.49C2238.97,-137.94 2201.91,-122.68 2172.4,-110.53"/>
<polygon fill="black" stroke="black" points="2173.89,-107.36 2163.31,-106.79 2171.22,-113.83 2173.89,-107.36"/>
</g>
<!-- n48 -->
<g id="node49" class="node">
<title>n48</title>
<ellipse fill="#b2dfee" stroke="#b2dfee" cx="2246.97" cy="-90" rx="27" ry="18"/>
<text text-anchor="middle" x="2246.97" y="-87.5" font-family="Helvetica,sans-Serif" font-size="10.00">&lt;</text>
</g>
<!-- n45&#45;&gt;n48 -->
<g id="edge48" class="edge">
<title>n45&#45;&gt;n48</title>
<path fill="none" stroke="black" d="M2283.59,-144.41C2277.75,-135.89 2270.51,-125.33 2264.01,-115.86"/>
<polygon fill="black" stroke="black" points="2267,-114.03 2258.46,-107.76 2261.23,-117.99 2267,-114.03"/>
</g>
<!-- n49 -->
<g id="node50" class="node">
<title>n49</title>
<ellipse fill="#b2dfee" stroke="#b2dfee" cx="2318.97" cy="-90" rx="27" ry="18"/>
<text text-anchor="middle" x="2318.97" y="-87.5" font-family="Helvetica,sans-Serif" font-size="10.00">INT</text>
</g>
<!-- n45&#45;&gt;n49 -->
<g id="edge49" class="edge">
<title>n45&#45;&gt;n49</title>
<path fill="none" stroke="black" d="M2300.9,-143.7C2303.52,-136.04 2306.67,-126.85 2309.6,-118.3"/>
<polygon fill="black" stroke="black" points="2312.84,-119.65 2312.78,-109.05 2306.22,-117.38 2312.84,-119.65"/>
</g>
<!-- n47 -->
<g id="node48" class="node">
<title>n47</title>
<ellipse fill="#b2dfee" stroke="#b2dfee" cx="2124.97" cy="-18" rx="27" ry="18"/>
<text text-anchor="middle" x="2124.97" y="-15.5" font-family="Helvetica,sans-Serif" font-size="10.00">i</text>
</g>
<!-- n46&#45;&gt;n47 -->
<g id="edge47" class="edge">
<title>n46&#45;&gt;n47</title>
<path fill="none" stroke="black" d="M2124.97,-71.7C2124.97,-64.41 2124.97,-55.73 2124.97,-47.54"/>
<polygon fill="black" stroke="black" points="2128.47,-47.62 2124.97,-37.62 2121.47,-47.62 2128.47,-47.62"/>
</g>
<!-- n50 -->
<g id="node51" class="node">
<title>n50</title>
<ellipse fill="#b2dfee" stroke="#b2dfee" cx="2318.97" cy="-18" rx="27" ry="18"/>
<text text-anchor="middle" x="2318.97" y="-15.5" font-family="Helvetica,sans-Serif" font-size="10.00">4</text>
</g>
<!-- n49&#45;&gt;n50 -->
<g id="edge50" class="edge">
<title>n49&#45;&gt;n50</title>
<path fill="none" stroke="black" d="M2318.97,-71.7C2318.97,-64.41 2318.97,-55.73 2318.97,-47.54"/>
<polygon fill="black" stroke="black" points="2322.47,-47.62 2318.97,-37.62 2315.47,-47.62 2322.47,-47.62"/>
</g>
<!-- n52 -->
<g id="node53" class="node">
<title>n52</title>
<ellipse fill="#b2dfee" stroke="#b2dfee" cx="2390.97" cy="-90" rx="27" ry="18"/>
<text text-anchor="middle" x="2390.97" y="-87.5" font-family="Helvetica,sans-Serif" font-size="10.00">i</text>
</g>
<!-- n51&#45;&gt;n52 -->
<g id="edge52" class="edge">
<title>n51&#45;&gt;n52</title>
<path fill="none" stroke="black" d="M2409.16,-144.05C2406.53,-136.4 2403.36,-127.16 2400.41,-118.56"/>
<polygon fill="black" stroke="black" points="2403.77,-117.55 2397.21,-109.22 2397.14,-119.82 2403.77,-117.55"/>
</g>
<!-- n53 -->
<g id="node54" class="node">
<title>n53</title>
<ellipse fill="#b2dfee" stroke="#b2dfee" cx="2462.97" cy="-90" rx="27" ry="18"/>
<text text-anchor="middle" x="2462.97" y="-87.5" font-family="Helvetica,sans-Serif" font-size="10.00">++</text>
</g>
<!-- n51&#45;&gt;n53 -->
<g id="edge53" class="edge">
<title>n51&#45;&gt;n53</title>
<path fill="none" stroke="black" d="M2426.1,-144.76C2431.94,-136.25 2439.21,-125.64 2445.76,-116.09"/>
<polygon fill="black" stroke="black" points="2448.6,-118.14 2451.37,-107.91 2442.83,-114.18 2448.6,-118.14"/>
</g>
<!-- n54 -->
<g id="node55" class="node">
<title>n54</title>
<ellipse fill="#b2dfee" stroke="#b2dfee" cx="2534.97" cy="-90" rx="27" ry="18"/>
<text text-anchor="middle" x="2534.97" y="-87.5" font-family="Helvetica,sans-Serif" font-size="10.00">;</text>
</g>
<!-- n51&#45;&gt;n54 -->
<g id="edge54" class="edge">
<title>n51&#45;&gt;n54</title>
<path fill="none" stroke="black" d="M2437.25,-148C2456.48,-136.78 2484.38,-120.51 2505.45,-108.21"/>
<polygon fill="black" stroke="black" points="2507,-111.36 2513.87,-103.3 2503.47,-105.32 2507,-111.36"/>
</g>
<!-- n58 -->
<g id="node59" class="node">
<title>n58</title>
<ellipse fill="#b2dfee" stroke="#b2dfee" cx="2606.97" cy="-90" rx="27" ry="18"/>
<text text-anchor="middle" x="2606.97" y="-87.5" font-family="Helvetica,sans-Serif" font-size="10.00">ASIG</text>
</g>
<!-- n57&#45;&gt;n58 -->
<g id="edge58" class="edge">
<title>n57&#45;&gt;n58</title>
<path fill="none" stroke="black" d="M2822.74,-152.64C2775.56,-144.04 2703.36,-128.95 2642.97,-108 2641.41,-107.46 2639.84,-106.88 2638.26,-106.26"/>
<polygon fill="black" stroke="black" points="2639.93,-103.17 2629.36,-102.44 2637.17,-109.6 2639.93,-103.17"/>
</g>
<!-- n59 -->
<g id="node60" class="node">
<title>n59</title>
<ellipse fill="#b2dfee" stroke="#b2dfee" cx="2678.97" cy="-90" rx="27" ry="18"/>
<text text-anchor="middle" x="2678.97" y="-87.5" font-family="Helvetica,sans-Serif" font-size="10.00">vector</text>
</g>
<!-- n57&#45;&gt;n59 -->
<g id="edge59" class="edge">
<title>n57&#45;&gt;n59</title>
<path fill="none" stroke="black" d="M2832.23,-148.78C2800.03,-138.78 2754.16,-123.76 2714.97,-108 2713.44,-107.39 2711.89,-106.74 2710.33,-106.08"/>
<polygon fill="black" stroke="black" points="2712.04,-103.01 2701.48,-102.11 2709.18,-109.39 2712.04,-103.01"/>
</g>
<!-- n60 -->
<g id="node61" class="node">
<title>n60</title>
<ellipse fill="#b2dfee" stroke="#b2dfee" cx="2750.97" cy="-90" rx="27" ry="18"/>
<text text-anchor="middle" x="2750.97" y="-87.5" font-family="Helvetica,sans-Serif" font-size="10.00">[</text>
</g>
<!-- n57&#45;&gt;n60 -->
<g id="edge60" class="edge">
<title>n57&#45;&gt;n60</title>
<path fill="none" stroke="black" d="M2846.19,-145.64C2826.84,-134.53 2800.69,-119.53 2780.69,-108.06"/>
<polygon fill="black" stroke="black" points="2782.59,-105.11 2772.17,-103.17 2779.11,-111.18 2782.59,-105.11"/>
</g>
<!-- n61 -->
<g id="node62" class="node">
<title>n61</title>
<ellipse fill="#b2dfee" stroke="#b2dfee" cx="2872.97" cy="-90" rx="77.23" ry="18"/>
<text text-anchor="middle" x="2872.97" y="-87.5" font-family="Helvetica,sans-Serif" font-size="10.00">RECUPERAR_VARIABLE</text>
</g>
<!-- n57&#45;&gt;n61 -->
<g id="edge61" class="edge">
<title>n57&#45;&gt;n61</title>
<path fill="none" stroke="black" d="M2872.97,-143.7C2872.97,-136.41 2872.97,-127.73 2872.97,-119.54"/>
<polygon fill="black" stroke="black" points="2876.47,-119.62 2872.97,-109.62 2869.47,-119.62 2876.47,-119.62"/>
</g>
<!-- n63 -->
<g id="node64" class="node">
<title>n63</title>
<ellipse fill="#b2dfee" stroke="#b2dfee" cx="2994.97" cy="-90" rx="27" ry="18"/>
<text text-anchor="middle" x="2994.97" y="-87.5" font-family="Helvetica,sans-Serif" font-size="10.00">]</text>
</g>
<!-- n57&#45;&gt;n63 -->
<g id="edge63" class="edge">
<title>n57&#45;&gt;n63</title>
<path fill="none" stroke="black" d="M2899.74,-145.64C2919.09,-134.53 2945.24,-119.53 2965.24,-108.06"/>
<polygon fill="black" stroke="black" points="2966.82,-111.18 2973.76,-103.17 2963.34,-105.11 2966.82,-111.18"/>
</g>
<!-- n64 -->
<g id="node65" class="node">
<title>n64</title>
<ellipse fill="#b2dfee" stroke="#b2dfee" cx="3066.97" cy="-90" rx="27" ry="18"/>
<text text-anchor="middle" x="3066.97" y="-87.5" font-family="Helvetica,sans-Serif" font-size="10.00">=</text>
</g>
<!-- n57&#45;&gt;n64 -->
<g id="edge64" class="edge">
<title>n57&#45;&gt;n64</title>
<path fill="none" stroke="black" d="M2913.7,-148.78C2945.9,-138.78 2991.77,-123.76 3030.97,-108 3032.49,-107.39 3034.04,-106.74 3035.6,-106.08"/>
<polygon fill="black" stroke="black" points="3036.75,-109.39 3044.45,-102.11 3033.89,-103.01 3036.75,-109.39"/>
</g>
<!-- n65 -->
<g id="node66" class="node">
<title>n65</title>
<ellipse fill="#b2dfee" stroke="#b2dfee" cx="3188.97" cy="-90" rx="77.23" ry="18"/>
<text text-anchor="middle" x="3188.97" y="-87.5" font-family="Helvetica,sans-Serif" font-size="10.00">RECUPERAR_VARIABLE</text>
</g>
<!-- n57&#45;&gt;n65 -->
<g id="edge65" class="edge">
<title>n57&#45;&gt;n65</title>
<path fill="none" stroke="black" d="M2919.25,-150.75C2973.07,-138.82 3062.31,-119.06 3123.28,-105.55"/>
<polygon fill="black" stroke="black" points="3123.84,-109.01 3132.85,-103.43 3122.33,-102.18 3123.84,-109.01"/>
</g>
<!-- n67 -->
<g id="node68" class="node">
<title>n67</title>
<ellipse fill="#b2dfee" stroke="#b2dfee" cx="3310.97" cy="-90" rx="27" ry="18"/>
<text text-anchor="middle" x="3310.97" y="-87.5" font-family="Helvetica,sans-Serif" font-size="10.00">;</text>
</g>
<!-- n57&#45;&gt;n67 -->
<g id="edge67" class="edge">
<title>n57&#45;&gt;n67</title>
<path fill="none" stroke="black" d="M2930.71,-158.99C3009.84,-154.97 3155.77,-143.07 3274.97,-108 3276.58,-107.52 3278.22,-106.99 3279.85,-106.4"/>
<polygon fill="black" stroke="black" points="3281.15,-109.65 3289.06,-102.6 3278.48,-103.18 3281.15,-109.65"/>
</g>
<!-- n62 -->
<g id="node63" class="node">
<title>n62</title>
<ellipse fill="#b2dfee" stroke="#b2dfee" cx="2872.97" cy="-18" rx="27" ry="18"/>
<text text-anchor="middle" x="2872.97" y="-15.5" font-family="Helvetica,sans-Serif" font-size="10.00">i</text>
</g>
<!-- n61&#45;&gt;n62 -->
<g id="edge62" class="edge">
<title>n61&#45;&gt;n62</title>
<path fill="none" stroke="black" d="M2872.97,-71.7C2872.97,-64.41 2872.97,-55.73 2872.97,-47.54"/>
<polygon fill="black" stroke="black" points="2876.47,-47.62 2872.97,-37.62 2869.47,-47.62 2876.47,-47.62"/>
</g>
<!-- n66 -->
<g id="node67" class="node">
<title>n66</title>
<ellipse fill="#b2dfee" stroke="#b2dfee" cx="3188.97" cy="-18" rx="27" ry="18"/>
<text text-anchor="middle" x="3188.97" y="-15.5" font-family="Helvetica,sans-Serif" font-size="10.00">j</text>
</g>
<!-- n65&#45;&gt;n66 -->
<g id="edge66" class="edge">
<title>n65&#45;&gt;n66</title>
<path fill="none" stroke="black" d="M3188.97,-71.7C3188.97,-64.41 3188.97,-55.73 3188.97,-47.54"/>
<polygon fill="black" stroke="black" points="3192.47,-47.62 3188.97,-37.62 3185.47,-47.62 3192.47,-47.62"/>
</g>
<!-- n69 -->
<g id="node70" class="node">
<title>n69</title>
<ellipse fill="#b2dfee" stroke="#b2dfee" cx="3382.97" cy="-90" rx="27" ry="18"/>
<text text-anchor="middle" x="3382.97" y="-87.5" font-family="Helvetica,sans-Serif" font-size="10.00">j</text>
</g>
<!-- n68&#45;&gt;n69 -->
<g id="edge69" class="edge">
<title>n68&#45;&gt;n69</title>
<path fill="none" stroke="black" d="M3410.43,-144.41C3406.31,-136.39 3401.26,-126.57 3396.62,-117.54"/>
<polygon fill="black" stroke="black" points="3399.81,-116.11 3392.13,-108.82 3393.59,-119.31 3399.81,-116.11"/>
</g>
<!-- n70 -->
<g id="node71" class="node">
<title>n70</title>
<ellipse fill="#b2dfee" stroke="#b2dfee" cx="3454.97" cy="-90" rx="27" ry="18"/>
<text text-anchor="middle" x="3454.97" y="-87.5" font-family="Helvetica,sans-Serif" font-size="10.00">++</text>
</g>
<!-- n68&#45;&gt;n70 -->
<g id="edge70" class="edge">
<title>n68&#45;&gt;n70</title>
<path fill="none" stroke="black" d="M3427.5,-144.41C3431.62,-136.39 3436.67,-126.57 3441.31,-117.54"/>
<polygon fill="black" stroke="black" points="3444.34,-119.31 3445.8,-108.82 3438.12,-116.11 3444.34,-119.31"/>
</g>
<!-- n71 -->
<g id="node72" class="node">
<title>n71</title>
<ellipse fill="#b2dfee" stroke="#b2dfee" cx="3526.97" cy="-90" rx="27" ry="18"/>
<text text-anchor="middle" x="3526.97" y="-87.5" font-family="Helvetica,sans-Serif" font-size="10.00">;</text>
</g>
<!-- n68&#45;&gt;n71 -->
<g id="edge71" class="edge">
<title>n68&#45;&gt;n71</title>
<path fill="none" stroke="black" d="M3440.04,-147.34C3456.72,-136.53 3480.18,-121.33 3498.52,-109.44"/>
<polygon fill="black" stroke="black" points="3500.35,-112.42 3506.84,-104.05 3496.54,-106.55 3500.35,-112.42"/>
</g>
<!-- n73 -->
<g id="node74" class="node">
<title>n73</title>
<ellipse fill="#b2dfee" stroke="#b2dfee" cx="3598.97" cy="-90" rx="27" ry="18"/>
<text text-anchor="middle" x="3598.97" y="-87.5" font-family="Helvetica,sans-Serif" font-size="10.00">Println</text>
</g>
<!-- n72&#45;&gt;n73 -->
<g id="edge73" class="edge">
<title>n72&#45;&gt;n73</title>
<path fill="none" stroke="black" d="M3655.34,-145.81C3645.45,-136.2 3632.51,-123.61 3621.52,-112.93"/>
<polygon fill="black" stroke="black" points="3624.27,-110.72 3614.66,-106.26 3619.39,-115.74 3624.27,-110.72"/>
</g>
<!-- n74 -->
<g id="node75" class="node">
<title>n74</title>
<ellipse fill="#b2dfee" stroke="#b2dfee" cx="3670.97" cy="-90" rx="27" ry="18"/>
<text text-anchor="middle" x="3670.97" y="-87.5" font-family="Helvetica,sans-Serif" font-size="10.00">(</text>
</g>
<!-- n72&#45;&gt;n74 -->
<g id="edge74" class="edge">
<title>n72&#45;&gt;n74</title>
<path fill="none" stroke="black" d="M3670.97,-143.7C3670.97,-136.41 3670.97,-127.73 3670.97,-119.54"/>
<polygon fill="black" stroke="black" points="3674.47,-119.62 3670.97,-109.62 3667.47,-119.62 3674.47,-119.62"/>
</g>
<!-- n75 -->
<g id="node76" class="node">
<title>n75</title>
<ellipse fill="#b2dfee" stroke="#b2dfee" cx="3792.97" cy="-90" rx="77.23" ry="18"/>
<text text-anchor="middle" x="3792.97" y="-87.5" font-family="Helvetica,sans-Serif" font-size="10.00">RECUPERAR_VARIABLE</text>
</g>
<!-- n72&#45;&gt;n75 -->
<g id="edge75" class="edge">
<title>n72&#45;&gt;n75</title>
<path fill="none" stroke="black" d="M3693.06,-148.32C3710.33,-138.41 3734.74,-124.41 3755.11,-112.72"/>
<polygon fill="black" stroke="black" points="3756.79,-115.79 3763.72,-107.78 3753.3,-109.72 3756.79,-115.79"/>
</g>
<!-- n77 -->
<g id="node78" class="node">
<title>n77</title>
<ellipse fill="#b2dfee" stroke="#b2dfee" cx="3914.97" cy="-90" rx="27" ry="18"/>
<text text-anchor="middle" x="3914.97" y="-87.5" font-family="Helvetica,sans-Serif" font-size="10.00">)</text>
</g>
<!-- n72&#45;&gt;n77 -->
<g id="edge77" class="edge">
<title>n72&#45;&gt;n77</title>
<path fill="none" stroke="black" d="M3696.03,-150.04C3701.55,-147.86 3707.4,-145.72 3712.97,-144 3785.11,-121.76 3807.48,-132.27 3878.97,-108 3880.52,-107.47 3882.1,-106.9 3883.68,-106.28"/>
<polygon fill="black" stroke="black" points="3884.76,-109.63 3892.58,-102.48 3882.01,-103.19 3884.76,-109.63"/>
</g>
<!-- n78 -->
<g id="node79" class="node">
<title>n78</title>
<ellipse fill="#b2dfee" stroke="#b2dfee" cx="3986.97" cy="-90" rx="27" ry="18"/>
<text text-anchor="middle" x="3986.97" y="-87.5" font-family="Helvetica,sans-Serif" font-size="10.00">;</text>
</g>
<!-- n72&#45;&gt;n78 -->
<g id="edge78" class="edge">
<title>n72&#45;&gt;n78</title>
<path fill="none" stroke="black" d="M3695.95,-149.77C3701.47,-147.61 3707.35,-145.54 3712.97,-144 3816.15,-115.74 3848.63,-139.17 3950.97,-108 3952.58,-107.51 3954.21,-106.96 3955.84,-106.36"/>
<polygon fill="black" stroke="black" points="3957.15,-109.61 3965.04,-102.53 3954.46,-103.14 3957.15,-109.61"/>
</g>
<!-- n76 -->
<g id="node77" class="node">
<title>n76</title>
<ellipse fill="#b2dfee" stroke="#b2dfee" cx="3792.97" cy="-18" rx="27" ry="18"/>
<text text-anchor="middle" x="3792.97" y="-15.5" font-family="Helvetica,sans-Serif" font-size="10.00">vector</text>
</g>
<!-- n75&#45;&gt;n76 -->
<g id="edge76" class="edge">
<title>n75&#45;&gt;n76</title>
<path fill="none" stroke="black" d="M3792.97,-71.7C3792.97,-64.41 3792.97,-55.73 3792.97,-47.54"/>
<polygon fill="black" stroke="black" points="3796.47,-47.62 3792.97,-37.62 3789.47,-47.62 3796.47,-47.62"/>
</g>
</g>
</svg>
