<?xml version="1.0" encoding="UTF-8" standalone="no"?>
<!DOCTYPE svg PUBLIC "-//W3C//DTD SVG 1.1//EN"
 "http://www.w3.org/Graphics/SVG/1.1/DTD/svg11.dtd">
<!-- Generated by graphviz version 7.1.0 (20230121.1956)
 -->
<!-- Title: arbolAST Pages: 1 -->
<svg width="1170pt" height="332pt"
 viewBox="0.00 0.00 1170.00 332.00" xmlns="http://www.w3.org/2000/svg" xmlns:xlink="http://www.w3.org/1999/xlink">
<g id="graph0" class="graph" transform="scale(1 1) rotate(0) translate(4 328)">
<title>arbolAST</title>
<polygon fill="white" stroke="none" points="-4,4 -4,-328 1166,-328 1166,4 -4,4"/>
<!-- n0 -->
<g id="node1" class="node">
<title>n0</title>
<ellipse fill="#b2dfee" stroke="#b2dfee" cx="603" cy="-306" rx="27" ry="18"/>
<text text-anchor="middle" x="603" y="-303.5" font-family="Helvetica,sans-Serif" font-size="10.00">INICIO</text>
</g>
<!-- n1 -->
<g id="node2" class="node">
<title>n1</title>
<ellipse fill="#b2dfee" stroke="#b2dfee" cx="603" cy="-234" rx="55.85" ry="18"/>
<text text-anchor="middle" x="603" y="-231.5" font-family="Helvetica,sans-Serif" font-size="10.00">INSTRUCCIONES</text>
</g>
<!-- n0&#45;&gt;n1 -->
<g id="edge1" class="edge">
<title>n0&#45;&gt;n1</title>
<path fill="none" stroke="black" d="M603,-287.7C603,-280.41 603,-271.73 603,-263.54"/>
<polygon fill="black" stroke="black" points="606.5,-263.62 603,-253.62 599.5,-263.62 606.5,-263.62"/>
</g>
<!-- n2 -->
<g id="node3" class="node">
<title>n2</title>
<ellipse fill="#b2dfee" stroke="#b2dfee" cx="279" cy="-162" rx="85.89" ry="18"/>
<text text-anchor="middle" x="279" y="-159.5" font-family="Helvetica,sans-Serif" font-size="10.00">DECLARACION_VARIABLES</text>
</g>
<!-- n1&#45;&gt;n2 -->
<g id="edge2" class="edge">
<title>n1&#45;&gt;n2</title>
<path fill="none" stroke="black" d="M557.61,-223.19C503.23,-211.44 411.55,-191.64 348.3,-177.97"/>
<polygon fill="black" stroke="black" points="349.22,-174.59 338.7,-175.9 347.74,-181.43 349.22,-174.59"/>
</g>
<!-- n11 -->
<g id="node12" class="node">
<title>n11</title>
<ellipse fill="#b2dfee" stroke="#b2dfee" cx="603" cy="-162" rx="34.29" ry="18"/>
<text text-anchor="middle" x="603" y="-159.5" font-family="Helvetica,sans-Serif" font-size="10.00">INC_DEC</text>
</g>
<!-- n1&#45;&gt;n11 -->
<g id="edge11" class="edge">
<title>n1&#45;&gt;n11</title>
<path fill="none" stroke="black" d="M603,-215.7C603,-208.41 603,-199.73 603,-191.54"/>
<polygon fill="black" stroke="black" points="606.5,-191.62 603,-181.62 599.5,-191.62 606.5,-191.62"/>
</g>
<!-- n15 -->
<g id="node16" class="node">
<title>n15</title>
<ellipse fill="#b2dfee" stroke="#b2dfee" cx="880" cy="-162" rx="32.93" ry="18"/>
<text text-anchor="middle" x="880" y="-159.5" font-family="Helvetica,sans-Serif" font-size="10.00">PRINTLN</text>
</g>
<!-- n1&#45;&gt;n15 -->
<g id="edge15" class="edge">
<title>n1&#45;&gt;n15</title>
<path fill="none" stroke="black" d="M645.98,-222.14C698.81,-208.79 787.82,-186.3 839.49,-173.24"/>
<polygon fill="black" stroke="black" points="840.24,-176.66 849.08,-170.81 838.53,-169.87 840.24,-176.66"/>
</g>
<!-- n3 -->
<g id="node4" class="node">
<title>n3</title>
<ellipse fill="#b2dfee" stroke="#b2dfee" cx="27" cy="-90" rx="27" ry="18"/>
<text text-anchor="middle" x="27" y="-87.5" font-family="Helvetica,sans-Serif" font-size="10.00">var</text>
</g>
<!-- n2&#45;&gt;n3 -->
<g id="edge3" class="edge">
<title>n2&#45;&gt;n3</title>
<path fill="none" stroke="black" d="M217.05,-149.25C173.34,-140.13 113.76,-126.01 63,-108 61.45,-107.45 59.88,-106.86 58.31,-106.23"/>
<polygon fill="black" stroke="black" points="59.98,-103.14 49.41,-102.39 57.2,-109.57 59.98,-103.14"/>
</g>
<!-- n4 -->
<g id="node5" class="node">
<title>n4</title>
<ellipse fill="#b2dfee" stroke="#b2dfee" cx="99" cy="-90" rx="27" ry="18"/>
<text text-anchor="middle" x="99" y="-87.5" font-family="Helvetica,sans-Serif" font-size="10.00">edad</text>
</g>
<!-- n2&#45;&gt;n4 -->
<g id="edge4" class="edge">
<title>n2&#45;&gt;n4</title>
<path fill="none" stroke="black" d="M235.45,-146.1C206.68,-135.98 168.29,-121.95 135,-108 133.49,-107.37 131.94,-106.7 130.39,-106.02"/>
<polygon fill="black" stroke="black" points="132.11,-102.96 121.56,-102.01 129.21,-109.33 132.11,-102.96"/>
</g>
<!-- n5 -->
<g id="node6" class="node">
<title>n5</title>
<ellipse fill="#b2dfee" stroke="#b2dfee" cx="171" cy="-90" rx="27" ry="18"/>
<text text-anchor="middle" x="171" y="-87.5" font-family="Helvetica,sans-Serif" font-size="10.00">:</text>
</g>
<!-- n2&#45;&gt;n5 -->
<g id="edge5" class="edge">
<title>n2&#45;&gt;n5</title>
<path fill="none" stroke="black" d="M253.41,-144.41C237.14,-133.87 216.06,-120.21 199.29,-109.34"/>
<polygon fill="black" stroke="black" points="201.56,-106.63 191.26,-104.13 197.75,-112.51 201.56,-106.63"/>
</g>
<!-- n6 -->
<g id="node7" class="node">
<title>n6</title>
<ellipse fill="#b2dfee" stroke="#b2dfee" cx="243" cy="-90" rx="27" ry="18"/>
<text text-anchor="middle" x="243" y="-87.5" font-family="Helvetica,sans-Serif" font-size="10.00">INT</text>
</g>
<!-- n2&#45;&gt;n6 -->
<g id="edge6" class="edge">
<title>n2&#45;&gt;n6</title>
<path fill="none" stroke="black" d="M270.1,-143.7C266.02,-135.75 261.08,-126.16 256.55,-117.34"/>
<polygon fill="black" stroke="black" points="259.68,-115.78 252,-108.49 253.46,-118.98 259.68,-115.78"/>
</g>
<!-- n7 -->
<g id="node8" class="node">
<title>n7</title>
<ellipse fill="#b2dfee" stroke="#b2dfee" cx="315" cy="-90" rx="27" ry="18"/>
<text text-anchor="middle" x="315" y="-87.5" font-family="Helvetica,sans-Serif" font-size="10.00">=</text>
</g>
<!-- n2&#45;&gt;n7 -->
<g id="edge7" class="edge">
<title>n2&#45;&gt;n7</title>
<path fill="none" stroke="black" d="M287.9,-143.7C291.98,-135.75 296.92,-126.16 301.45,-117.34"/>
<polygon fill="black" stroke="black" points="304.54,-118.98 306,-108.49 298.32,-115.78 304.54,-118.98"/>
</g>
<!-- n8 -->
<g id="node9" class="node">
<title>n8</title>
<ellipse fill="#b2dfee" stroke="#b2dfee" cx="387" cy="-90" rx="27" ry="18"/>
<text text-anchor="middle" x="387" y="-87.5" font-family="Helvetica,sans-Serif" font-size="10.00">INT</text>
</g>
<!-- n2&#45;&gt;n8 -->
<g id="edge8" class="edge">
<title>n2&#45;&gt;n8</title>
<path fill="none" stroke="black" d="M304.59,-144.41C320.86,-133.87 341.94,-120.21 358.71,-109.34"/>
<polygon fill="black" stroke="black" points="360.25,-112.51 366.74,-104.13 356.44,-106.63 360.25,-112.51"/>
</g>
<!-- n10 -->
<g id="node11" class="node">
<title>n10</title>
<ellipse fill="#b2dfee" stroke="#b2dfee" cx="459" cy="-90" rx="27" ry="18"/>
<text text-anchor="middle" x="459" y="-87.5" font-family="Helvetica,sans-Serif" font-size="10.00">;</text>
</g>
<!-- n2&#45;&gt;n10 -->
<g id="edge10" class="edge">
<title>n2&#45;&gt;n10</title>
<path fill="none" stroke="black" d="M322.55,-146.1C351.32,-135.98 389.71,-121.95 423,-108 424.51,-107.37 426.06,-106.7 427.61,-106.02"/>
<polygon fill="black" stroke="black" points="428.79,-109.33 436.44,-102.01 425.89,-102.96 428.79,-109.33"/>
</g>
<!-- n9 -->
<g id="node10" class="node">
<title>n9</title>
<ellipse fill="#b2dfee" stroke="#b2dfee" cx="387" cy="-18" rx="27" ry="18"/>
<text text-anchor="middle" x="387" y="-15.5" font-family="Helvetica,sans-Serif" font-size="10.00">136</text>
</g>
<!-- n8&#45;&gt;n9 -->
<g id="edge9" class="edge">
<title>n8&#45;&gt;n9</title>
<path fill="none" stroke="black" d="M387,-71.7C387,-64.41 387,-55.73 387,-47.54"/>
<polygon fill="black" stroke="black" points="390.5,-47.62 387,-37.62 383.5,-47.62 390.5,-47.62"/>
</g>
<!-- n12 -->
<g id="node13" class="node">
<title>n12</title>
<ellipse fill="#b2dfee" stroke="#b2dfee" cx="531" cy="-90" rx="27" ry="18"/>
<text text-anchor="middle" x="531" y="-87.5" font-family="Helvetica,sans-Serif" font-size="10.00">edad</text>
</g>
<!-- n11&#45;&gt;n12 -->
<g id="edge12" class="edge">
<title>n11&#45;&gt;n12</title>
<path fill="none" stroke="black" d="M587.38,-145.81C577.49,-136.2 564.54,-123.61 553.55,-112.93"/>
<polygon fill="black" stroke="black" points="556.31,-110.72 546.7,-106.26 551.43,-115.74 556.31,-110.72"/>
</g>
<!-- n13 -->
<g id="node14" class="node">
<title>n13</title>
<ellipse fill="#b2dfee" stroke="#b2dfee" cx="603" cy="-90" rx="27" ry="18"/>
<text text-anchor="middle" x="603" y="-87.5" font-family="Helvetica,sans-Serif" font-size="10.00">++</text>
</g>
<!-- n11&#45;&gt;n13 -->
<g id="edge13" class="edge">
<title>n11&#45;&gt;n13</title>
<path fill="none" stroke="black" d="M603,-143.7C603,-136.41 603,-127.73 603,-119.54"/>
<polygon fill="black" stroke="black" points="606.5,-119.62 603,-109.62 599.5,-119.62 606.5,-119.62"/>
</g>
<!-- n14 -->
<g id="node15" class="node">
<title>n14</title>
<ellipse fill="#b2dfee" stroke="#b2dfee" cx="675" cy="-90" rx="27" ry="18"/>
<text text-anchor="middle" x="675" y="-87.5" font-family="Helvetica,sans-Serif" font-size="10.00">;</text>
</g>
<!-- n11&#45;&gt;n14 -->
<g id="edge14" class="edge">
<title>n11&#45;&gt;n14</title>
<path fill="none" stroke="black" d="M618.62,-145.81C628.51,-136.2 641.46,-123.61 652.45,-112.93"/>
<polygon fill="black" stroke="black" points="654.57,-115.74 659.3,-106.26 649.69,-110.72 654.57,-115.74"/>
</g>
<!-- n16 -->
<g id="node17" class="node">
<title>n16</title>
<ellipse fill="#b2dfee" stroke="#b2dfee" cx="747" cy="-90" rx="27" ry="18"/>
<text text-anchor="middle" x="747" y="-87.5" font-family="Helvetica,sans-Serif" font-size="10.00">Println</text>
</g>
<!-- n15&#45;&gt;n16 -->
<g id="edge16" class="edge">
<title>n15&#45;&gt;n16</title>
<path fill="none" stroke="black" d="M856.83,-148.81C834.92,-137.27 801.89,-119.89 777.77,-107.2"/>
<polygon fill="black" stroke="black" points="779.54,-104.17 769.06,-102.61 776.28,-110.36 779.54,-104.17"/>
</g>
<!-- n17 -->
<g id="node18" class="node">
<title>n17</title>
<ellipse fill="#b2dfee" stroke="#b2dfee" cx="819" cy="-90" rx="27" ry="18"/>
<text text-anchor="middle" x="819" y="-87.5" font-family="Helvetica,sans-Serif" font-size="10.00">(</text>
</g>
<!-- n15&#45;&gt;n17 -->
<g id="edge17" class="edge">
<title>n15&#45;&gt;n17</title>
<path fill="none" stroke="black" d="M866.46,-145.46C858.54,-136.37 848.37,-124.7 839.48,-114.5"/>
<polygon fill="black" stroke="black" points="842.28,-112.39 833.08,-107.15 837.01,-116.99 842.28,-112.39"/>
</g>
<!-- n18 -->
<g id="node19" class="node">
<title>n18</title>
<ellipse fill="#b2dfee" stroke="#b2dfee" cx="941" cy="-90" rx="77.23" ry="18"/>
<text text-anchor="middle" x="941" y="-87.5" font-family="Helvetica,sans-Serif" font-size="10.00">RECUPERAR_VARIABLE</text>
</g>
<!-- n15&#45;&gt;n18 -->
<g id="edge18" class="edge">
<title>n15&#45;&gt;n18</title>
<path fill="none" stroke="black" d="M893.54,-145.46C900.95,-136.95 910.33,-126.19 918.79,-116.48"/>
<polygon fill="black" stroke="black" points="921.29,-118.94 925.22,-109.1 916.02,-114.34 921.29,-118.94"/>
</g>
<!-- n20 -->
<g id="node21" class="node">
<title>n20</title>
<ellipse fill="#b2dfee" stroke="#b2dfee" cx="1063" cy="-90" rx="27" ry="18"/>
<text text-anchor="middle" x="1063" y="-87.5" font-family="Helvetica,sans-Serif" font-size="10.00">)</text>
</g>
<!-- n15&#45;&gt;n20 -->
<g id="edge20" class="edge">
<title>n15&#45;&gt;n20</title>
<path fill="none" stroke="black" d="M907.66,-151.9C937.44,-141.91 986.04,-125.01 1027,-108 1028.52,-107.37 1030.06,-106.71 1031.62,-106.03"/>
<polygon fill="black" stroke="black" points="1032.79,-109.35 1040.45,-102.03 1029.9,-102.97 1032.79,-109.35"/>
</g>
<!-- n21 -->
<g id="node22" class="node">
<title>n21</title>
<ellipse fill="#b2dfee" stroke="#b2dfee" cx="1135" cy="-90" rx="27" ry="18"/>
<text text-anchor="middle" x="1135" y="-87.5" font-family="Helvetica,sans-Serif" font-size="10.00">;</text>
</g>
<!-- n15&#45;&gt;n21 -->
<g id="edge21" class="edge">
<title>n15&#45;&gt;n21</title>
<path fill="none" stroke="black" d="M911.04,-155.56C954.01,-147.56 1033.71,-131.05 1099,-108 1100.55,-107.45 1102.12,-106.86 1103.69,-106.24"/>
<polygon fill="black" stroke="black" points="1104.8,-109.58 1112.59,-102.4 1102.02,-103.15 1104.8,-109.58"/>
</g>
<!-- n19 -->
<g id="node20" class="node">
<title>n19</title>
<ellipse fill="#b2dfee" stroke="#b2dfee" cx="941" cy="-18" rx="27" ry="18"/>
<text text-anchor="middle" x="941" y="-15.5" font-family="Helvetica,sans-Serif" font-size="10.00">edad</text>
</g>
<!-- n18&#45;&gt;n19 -->
<g id="edge19" class="edge">
<title>n18&#45;&gt;n19</title>
<path fill="none" stroke="black" d="M941,-71.7C941,-64.41 941,-55.73 941,-47.54"/>
<polygon fill="black" stroke="black" points="944.5,-47.62 941,-37.62 937.5,-47.62 944.5,-47.62"/>
</g>
</g>
</svg>
