<?xml version="1.0" encoding="UTF-8" standalone="no"?>
<!DOCTYPE svg PUBLIC "-//W3C//DTD SVG 1.1//EN"
 "http://www.w3.org/Graphics/SVG/1.1/DTD/svg11.dtd">
<!-- Generated by graphviz version 7.1.0 (20230121.1956)
 -->
<!-- Title: arbolAST Pages: 1 -->
<svg width="2318pt" height="404pt"
 viewBox="0.00 0.00 2318.00 404.00" xmlns="http://www.w3.org/2000/svg" xmlns:xlink="http://www.w3.org/1999/xlink">
<g id="graph0" class="graph" transform="scale(1 1) rotate(0) translate(4 400)">
<title>arbolAST</title>
<polygon fill="white" stroke="none" points="-4,4 -4,-400 2314,-400 2314,4 -4,4"/>
<!-- n0 -->
<g id="node1" class="node">
<title>n0</title>
<ellipse fill="#b2dfee" stroke="#b2dfee" cx="1285" cy="-378" rx="27" ry="18"/>
<text text-anchor="middle" x="1285" y="-375.5" font-family="Helvetica,sans-Serif" font-size="10.00">INICIO</text>
</g>
<!-- n1 -->
<g id="node2" class="node">
<title>n1</title>
<ellipse fill="#b2dfee" stroke="#b2dfee" cx="1285" cy="-306" rx="55.85" ry="18"/>
<text text-anchor="middle" x="1285" y="-303.5" font-family="Helvetica,sans-Serif" font-size="10.00">INSTRUCCIONES</text>
</g>
<!-- n0&#45;&gt;n1 -->
<g id="edge1" class="edge">
<title>n0&#45;&gt;n1</title>
<path fill="none" stroke="black" d="M1285,-359.7C1285,-352.41 1285,-343.73 1285,-335.54"/>
<polygon fill="black" stroke="black" points="1288.5,-335.62 1285,-325.62 1281.5,-335.62 1288.5,-335.62"/>
</g>
<!-- n2 -->
<g id="node3" class="node">
<title>n2</title>
<ellipse fill="#b2dfee" stroke="#b2dfee" cx="279" cy="-234" rx="85.89" ry="18"/>
<text text-anchor="middle" x="279" y="-231.5" font-family="Helvetica,sans-Serif" font-size="10.00">DECLARACION_VARIABLES</text>
</g>
<!-- n1&#45;&gt;n2 -->
<g id="edge2" class="edge">
<title>n1&#45;&gt;n2</title>
<path fill="none" stroke="black" d="M1230.91,-301.24C1067.29,-289.85 576.24,-255.68 370.87,-241.39"/>
<polygon fill="black" stroke="black" points="371.26,-237.91 361.04,-240.71 370.77,-244.89 371.26,-237.91"/>
</g>
<!-- n11 -->
<g id="node12" class="node">
<title>n11</title>
<ellipse fill="#b2dfee" stroke="#b2dfee" cx="783" cy="-234" rx="85.89" ry="18"/>
<text text-anchor="middle" x="783" y="-231.5" font-family="Helvetica,sans-Serif" font-size="10.00">DECLARACION_VARIABLES</text>
</g>
<!-- n1&#45;&gt;n11 -->
<g id="edge11" class="edge">
<title>n1&#45;&gt;n11</title>
<path fill="none" stroke="black" d="M1234.57,-297.97C1147.61,-285.84 968.73,-260.9 864.1,-246.31"/>
<polygon fill="black" stroke="black" points="864.85,-242.88 854.46,-244.97 863.88,-249.81 864.85,-242.88"/>
</g>
<!-- n24 -->
<g id="node25" class="node">
<title>n24</title>
<ellipse fill="#b2dfee" stroke="#b2dfee" cx="1285" cy="-234" rx="85.89" ry="18"/>
<text text-anchor="middle" x="1285" y="-231.5" font-family="Helvetica,sans-Serif" font-size="10.00">DECLARACION_VARIABLES</text>
</g>
<!-- n1&#45;&gt;n24 -->
<g id="edge24" class="edge">
<title>n1&#45;&gt;n24</title>
<path fill="none" stroke="black" d="M1285,-287.7C1285,-280.41 1285,-271.73 1285,-263.54"/>
<polygon fill="black" stroke="black" points="1288.5,-263.62 1285,-253.62 1281.5,-263.62 1288.5,-263.62"/>
</g>
<!-- n33 -->
<g id="node34" class="node">
<title>n33</title>
<ellipse fill="#b2dfee" stroke="#b2dfee" cx="1645" cy="-234" rx="66.54" ry="18"/>
<text text-anchor="middle" x="1645" y="-231.5" font-family="Helvetica,sans-Serif" font-size="10.00">ASIGNAR_VARIABLE</text>
</g>
<!-- n1&#45;&gt;n33 -->
<g id="edge33" class="edge">
<title>n1&#45;&gt;n33</title>
<path fill="none" stroke="black" d="M1332.06,-295.85C1395.74,-283.47 1509.58,-261.33 1580.99,-247.45"/>
<polygon fill="black" stroke="black" points="1581.44,-250.92 1590.59,-245.58 1580.1,-244.05 1581.44,-250.92"/>
</g>
<!-- n43 -->
<g id="node44" class="node">
<title>n43</title>
<ellipse fill="#b2dfee" stroke="#b2dfee" cx="2028" cy="-234" rx="32.93" ry="18"/>
<text text-anchor="middle" x="2028" y="-231.5" font-family="Helvetica,sans-Serif" font-size="10.00">PRINTLN</text>
</g>
<!-- n1&#45;&gt;n43 -->
<g id="edge43" class="edge">
<title>n1&#45;&gt;n43</title>
<path fill="none" stroke="black" d="M1338.14,-299.99C1478.24,-286.79 1855.76,-251.23 1984.38,-239.11"/>
<polygon fill="black" stroke="black" points="1984.55,-242.61 1994.18,-238.19 1983.9,-235.64 1984.55,-242.61"/>
</g>
<!-- n3 -->
<g id="node4" class="node">
<title>n3</title>
<ellipse fill="#b2dfee" stroke="#b2dfee" cx="27" cy="-162" rx="27" ry="18"/>
<text text-anchor="middle" x="27" y="-159.5" font-family="Helvetica,sans-Serif" font-size="10.00">var</text>
</g>
<!-- n2&#45;&gt;n3 -->
<g id="edge3" class="edge">
<title>n2&#45;&gt;n3</title>
<path fill="none" stroke="black" d="M217.05,-221.25C173.34,-212.13 113.76,-198.01 63,-180 61.45,-179.45 59.88,-178.86 58.31,-178.23"/>
<polygon fill="black" stroke="black" points="59.98,-175.14 49.41,-174.39 57.2,-181.57 59.98,-175.14"/>
</g>
<!-- n4 -->
<g id="node5" class="node">
<title>n4</title>
<ellipse fill="#b2dfee" stroke="#b2dfee" cx="99" cy="-162" rx="27" ry="18"/>
<text text-anchor="middle" x="99" y="-159.5" font-family="Helvetica,sans-Serif" font-size="10.00">num2</text>
</g>
<!-- n2&#45;&gt;n4 -->
<g id="edge4" class="edge">
<title>n2&#45;&gt;n4</title>
<path fill="none" stroke="black" d="M235.45,-218.1C206.68,-207.98 168.29,-193.95 135,-180 133.49,-179.37 131.94,-178.7 130.39,-178.02"/>
<polygon fill="black" stroke="black" points="132.11,-174.96 121.56,-174.01 129.21,-181.33 132.11,-174.96"/>
</g>
<!-- n5 -->
<g id="node6" class="node">
<title>n5</title>
<ellipse fill="#b2dfee" stroke="#b2dfee" cx="171" cy="-162" rx="27" ry="18"/>
<text text-anchor="middle" x="171" y="-159.5" font-family="Helvetica,sans-Serif" font-size="10.00">:</text>
</g>
<!-- n2&#45;&gt;n5 -->
<g id="edge5" class="edge">
<title>n2&#45;&gt;n5</title>
<path fill="none" stroke="black" d="M253.41,-216.41C237.14,-205.87 216.06,-192.21 199.29,-181.34"/>
<polygon fill="black" stroke="black" points="201.56,-178.63 191.26,-176.13 197.75,-184.51 201.56,-178.63"/>
</g>
<!-- n6 -->
<g id="node7" class="node">
<title>n6</title>
<ellipse fill="#b2dfee" stroke="#b2dfee" cx="243" cy="-162" rx="27" ry="18"/>
<text text-anchor="middle" x="243" y="-159.5" font-family="Helvetica,sans-Serif" font-size="10.00">INT</text>
</g>
<!-- n2&#45;&gt;n6 -->
<g id="edge6" class="edge">
<title>n2&#45;&gt;n6</title>
<path fill="none" stroke="black" d="M270.1,-215.7C266.02,-207.75 261.08,-198.16 256.55,-189.34"/>
<polygon fill="black" stroke="black" points="259.68,-187.78 252,-180.49 253.46,-190.98 259.68,-187.78"/>
</g>
<!-- n7 -->
<g id="node8" class="node">
<title>n7</title>
<ellipse fill="#b2dfee" stroke="#b2dfee" cx="315" cy="-162" rx="27" ry="18"/>
<text text-anchor="middle" x="315" y="-159.5" font-family="Helvetica,sans-Serif" font-size="10.00">=</text>
</g>
<!-- n2&#45;&gt;n7 -->
<g id="edge7" class="edge">
<title>n2&#45;&gt;n7</title>
<path fill="none" stroke="black" d="M287.9,-215.7C291.98,-207.75 296.92,-198.16 301.45,-189.34"/>
<polygon fill="black" stroke="black" points="304.54,-190.98 306,-180.49 298.32,-187.78 304.54,-190.98"/>
</g>
<!-- n8 -->
<g id="node9" class="node">
<title>n8</title>
<ellipse fill="#b2dfee" stroke="#b2dfee" cx="387" cy="-162" rx="27" ry="18"/>
<text text-anchor="middle" x="387" y="-159.5" font-family="Helvetica,sans-Serif" font-size="10.00">INT</text>
</g>
<!-- n2&#45;&gt;n8 -->
<g id="edge8" class="edge">
<title>n2&#45;&gt;n8</title>
<path fill="none" stroke="black" d="M304.59,-216.41C320.86,-205.87 341.94,-192.21 358.71,-181.34"/>
<polygon fill="black" stroke="black" points="360.25,-184.51 366.74,-176.13 356.44,-178.63 360.25,-184.51"/>
</g>
<!-- n10 -->
<g id="node11" class="node">
<title>n10</title>
<ellipse fill="#b2dfee" stroke="#b2dfee" cx="459" cy="-162" rx="27" ry="18"/>
<text text-anchor="middle" x="459" y="-159.5" font-family="Helvetica,sans-Serif" font-size="10.00">;</text>
</g>
<!-- n2&#45;&gt;n10 -->
<g id="edge10" class="edge">
<title>n2&#45;&gt;n10</title>
<path fill="none" stroke="black" d="M322.55,-218.1C351.32,-207.98 389.71,-193.95 423,-180 424.51,-179.37 426.06,-178.7 427.61,-178.02"/>
<polygon fill="black" stroke="black" points="428.79,-181.33 436.44,-174.01 425.89,-174.96 428.79,-181.33"/>
</g>
<!-- n9 -->
<g id="node10" class="node">
<title>n9</title>
<ellipse fill="#b2dfee" stroke="#b2dfee" cx="387" cy="-90" rx="27" ry="18"/>
<text text-anchor="middle" x="387" y="-87.5" font-family="Helvetica,sans-Serif" font-size="10.00">10</text>
</g>
<!-- n8&#45;&gt;n9 -->
<g id="edge9" class="edge">
<title>n8&#45;&gt;n9</title>
<path fill="none" stroke="black" d="M387,-143.7C387,-136.41 387,-127.73 387,-119.54"/>
<polygon fill="black" stroke="black" points="390.5,-119.62 387,-109.62 383.5,-119.62 390.5,-119.62"/>
</g>
<!-- n12 -->
<g id="node13" class="node">
<title>n12</title>
<ellipse fill="#b2dfee" stroke="#b2dfee" cx="531" cy="-162" rx="27" ry="18"/>
<text text-anchor="middle" x="531" y="-159.5" font-family="Helvetica,sans-Serif" font-size="10.00">var</text>
</g>
<!-- n11&#45;&gt;n12 -->
<g id="edge12" class="edge">
<title>n11&#45;&gt;n12</title>
<path fill="none" stroke="black" d="M721.05,-221.25C677.34,-212.13 617.76,-198.01 567,-180 565.45,-179.45 563.88,-178.86 562.31,-178.23"/>
<polygon fill="black" stroke="black" points="563.98,-175.14 553.41,-174.39 561.2,-181.57 563.98,-175.14"/>
</g>
<!-- n13 -->
<g id="node14" class="node">
<title>n13</title>
<ellipse fill="#b2dfee" stroke="#b2dfee" cx="603" cy="-162" rx="27" ry="18"/>
<text text-anchor="middle" x="603" y="-159.5" font-family="Helvetica,sans-Serif" font-size="10.00">num1</text>
</g>
<!-- n11&#45;&gt;n13 -->
<g id="edge13" class="edge">
<title>n11&#45;&gt;n13</title>
<path fill="none" stroke="black" d="M739.45,-218.1C710.68,-207.98 672.29,-193.95 639,-180 637.49,-179.37 635.94,-178.7 634.39,-178.02"/>
<polygon fill="black" stroke="black" points="636.11,-174.96 625.56,-174.01 633.21,-181.33 636.11,-174.96"/>
</g>
<!-- n14 -->
<g id="node15" class="node">
<title>n14</title>
<ellipse fill="#b2dfee" stroke="#b2dfee" cx="675" cy="-162" rx="27" ry="18"/>
<text text-anchor="middle" x="675" y="-159.5" font-family="Helvetica,sans-Serif" font-size="10.00">:</text>
</g>
<!-- n11&#45;&gt;n14 -->
<g id="edge14" class="edge">
<title>n11&#45;&gt;n14</title>
<path fill="none" stroke="black" d="M757.41,-216.41C741.14,-205.87 720.06,-192.21 703.29,-181.34"/>
<polygon fill="black" stroke="black" points="705.56,-178.63 695.26,-176.13 701.75,-184.51 705.56,-178.63"/>
</g>
<!-- n15 -->
<g id="node16" class="node">
<title>n15</title>
<ellipse fill="#b2dfee" stroke="#b2dfee" cx="747" cy="-162" rx="27" ry="18"/>
<text text-anchor="middle" x="747" y="-159.5" font-family="Helvetica,sans-Serif" font-size="10.00">INT</text>
</g>
<!-- n11&#45;&gt;n15 -->
<g id="edge15" class="edge">
<title>n11&#45;&gt;n15</title>
<path fill="none" stroke="black" d="M774.1,-215.7C770.02,-207.75 765.08,-198.16 760.55,-189.34"/>
<polygon fill="black" stroke="black" points="763.68,-187.78 756,-180.49 757.46,-190.98 763.68,-187.78"/>
</g>
<!-- n16 -->
<g id="node17" class="node">
<title>n16</title>
<ellipse fill="#b2dfee" stroke="#b2dfee" cx="819" cy="-162" rx="27" ry="18"/>
<text text-anchor="middle" x="819" y="-159.5" font-family="Helvetica,sans-Serif" font-size="10.00">=</text>
</g>
<!-- n11&#45;&gt;n16 -->
<g id="edge16" class="edge">
<title>n11&#45;&gt;n16</title>
<path fill="none" stroke="black" d="M791.9,-215.7C795.98,-207.75 800.92,-198.16 805.45,-189.34"/>
<polygon fill="black" stroke="black" points="808.54,-190.98 810,-180.49 802.32,-187.78 808.54,-190.98"/>
</g>
<!-- n17 -->
<g id="node18" class="node">
<title>n17</title>
<ellipse fill="#b2dfee" stroke="#b2dfee" cx="908" cy="-162" rx="43.62" ry="18"/>
<text text-anchor="middle" x="908" y="-159.5" font-family="Helvetica,sans-Serif" font-size="10.00">ARITMETICA</text>
</g>
<!-- n11&#45;&gt;n17 -->
<g id="edge17" class="edge">
<title>n11&#45;&gt;n17</title>
<path fill="none" stroke="black" d="M811.99,-216.76C830.21,-206.56 853.82,-193.34 873.07,-182.56"/>
<polygon fill="black" stroke="black" points="874.63,-185.7 881.65,-177.76 871.21,-179.59 874.63,-185.7"/>
</g>
<!-- n23 -->
<g id="node24" class="node">
<title>n23</title>
<ellipse fill="#b2dfee" stroke="#b2dfee" cx="997" cy="-162" rx="27" ry="18"/>
<text text-anchor="middle" x="997" y="-159.5" font-family="Helvetica,sans-Serif" font-size="10.00">;</text>
</g>
<!-- n11&#45;&gt;n23 -->
<g id="edge23" class="edge">
<title>n11&#45;&gt;n23</title>
<path fill="none" stroke="black" d="M835.88,-219.52C871.66,-209.85 919.74,-195.78 961,-180 962.53,-179.41 964.09,-178.79 965.66,-178.14"/>
<polygon fill="black" stroke="black" points="966.79,-181.46 974.53,-174.22 963.97,-175.06 966.79,-181.46"/>
</g>
<!-- n18 -->
<g id="node19" class="node">
<title>n18</title>
<ellipse fill="#b2dfee" stroke="#b2dfee" cx="786" cy="-90" rx="77.23" ry="18"/>
<text text-anchor="middle" x="786" y="-87.5" font-family="Helvetica,sans-Serif" font-size="10.00">RECUPERAR_VARIABLE</text>
</g>
<!-- n17&#45;&gt;n18 -->
<g id="edge18" class="edge">
<title>n17&#45;&gt;n18</title>
<path fill="none" stroke="black" d="M883.31,-146.83C866.24,-137.04 843.19,-123.81 823.81,-112.7"/>
<polygon fill="black" stroke="black" points="825.79,-109.8 815.38,-107.86 822.31,-115.87 825.79,-109.8"/>
</g>
<!-- n20 -->
<g id="node21" class="node">
<title>n20</title>
<ellipse fill="#b2dfee" stroke="#b2dfee" cx="908" cy="-90" rx="27" ry="18"/>
<text text-anchor="middle" x="908" y="-87.5" font-family="Helvetica,sans-Serif" font-size="10.00">**</text>
</g>
<!-- n17&#45;&gt;n20 -->
<g id="edge20" class="edge">
<title>n17&#45;&gt;n20</title>
<path fill="none" stroke="black" d="M908,-143.7C908,-136.41 908,-127.73 908,-119.54"/>
<polygon fill="black" stroke="black" points="911.5,-119.62 908,-109.62 904.5,-119.62 911.5,-119.62"/>
</g>
<!-- n21 -->
<g id="node22" class="node">
<title>n21</title>
<ellipse fill="#b2dfee" stroke="#b2dfee" cx="980" cy="-90" rx="27" ry="18"/>
<text text-anchor="middle" x="980" y="-87.5" font-family="Helvetica,sans-Serif" font-size="10.00">INT</text>
</g>
<!-- n17&#45;&gt;n21 -->
<g id="edge21" class="edge">
<title>n17&#45;&gt;n21</title>
<path fill="none" stroke="black" d="M924.34,-145.12C934.03,-135.69 946.46,-123.61 957.12,-113.25"/>
<polygon fill="black" stroke="black" points="959.38,-115.93 964.11,-106.45 954.5,-110.91 959.38,-115.93"/>
</g>
<!-- n19 -->
<g id="node20" class="node">
<title>n19</title>
<ellipse fill="#b2dfee" stroke="#b2dfee" cx="786" cy="-18" rx="27" ry="18"/>
<text text-anchor="middle" x="786" y="-15.5" font-family="Helvetica,sans-Serif" font-size="10.00">num2</text>
</g>
<!-- n18&#45;&gt;n19 -->
<g id="edge19" class="edge">
<title>n18&#45;&gt;n19</title>
<path fill="none" stroke="black" d="M786,-71.7C786,-64.41 786,-55.73 786,-47.54"/>
<polygon fill="black" stroke="black" points="789.5,-47.62 786,-37.62 782.5,-47.62 789.5,-47.62"/>
</g>
<!-- n22 -->
<g id="node23" class="node">
<title>n22</title>
<ellipse fill="#b2dfee" stroke="#b2dfee" cx="980" cy="-18" rx="27" ry="18"/>
<text text-anchor="middle" x="980" y="-15.5" font-family="Helvetica,sans-Serif" font-size="10.00">2</text>
</g>
<!-- n21&#45;&gt;n22 -->
<g id="edge22" class="edge">
<title>n21&#45;&gt;n22</title>
<path fill="none" stroke="black" d="M980,-71.7C980,-64.41 980,-55.73 980,-47.54"/>
<polygon fill="black" stroke="black" points="983.5,-47.62 980,-37.62 976.5,-47.62 983.5,-47.62"/>
</g>
<!-- n25 -->
<g id="node26" class="node">
<title>n25</title>
<ellipse fill="#b2dfee" stroke="#b2dfee" cx="1069" cy="-162" rx="27" ry="18"/>
<text text-anchor="middle" x="1069" y="-159.5" font-family="Helvetica,sans-Serif" font-size="10.00">const</text>
</g>
<!-- n24&#45;&gt;n25 -->
<g id="edge25" class="edge">
<title>n24&#45;&gt;n25</title>
<path fill="none" stroke="black" d="M1231.51,-219.58C1195.33,-209.94 1146.71,-195.88 1105,-180 1103.47,-179.42 1101.91,-178.79 1100.34,-178.15"/>
<polygon fill="black" stroke="black" points="1102.03,-175.07 1091.47,-174.23 1099.21,-181.47 1102.03,-175.07"/>
</g>
<!-- n26 -->
<g id="node27" class="node">
<title>n26</title>
<ellipse fill="#b2dfee" stroke="#b2dfee" cx="1141" cy="-162" rx="27" ry="18"/>
<text text-anchor="middle" x="1141" y="-159.5" font-family="Helvetica,sans-Serif" font-size="10.00">num3</text>
</g>
<!-- n24&#45;&gt;n26 -->
<g id="edge26" class="edge">
<title>n24&#45;&gt;n26</title>
<path fill="none" stroke="black" d="M1251.96,-216.94C1228.06,-205.32 1195.95,-189.71 1172.42,-178.28"/>
<polygon fill="black" stroke="black" points="1174.16,-175.23 1163.64,-174.01 1171.1,-181.53 1174.16,-175.23"/>
</g>
<!-- n27 -->
<g id="node28" class="node">
<title>n27</title>
<ellipse fill="#b2dfee" stroke="#b2dfee" cx="1213" cy="-162" rx="27" ry="18"/>
<text text-anchor="middle" x="1213" y="-159.5" font-family="Helvetica,sans-Serif" font-size="10.00">:</text>
</g>
<!-- n24&#45;&gt;n27 -->
<g id="edge27" class="edge">
<title>n24&#45;&gt;n27</title>
<path fill="none" stroke="black" d="M1267.57,-216.05C1258.08,-206.82 1246.21,-195.29 1235.97,-185.33"/>
<polygon fill="black" stroke="black" points="1238.53,-182.94 1228.92,-178.48 1233.65,-187.96 1238.53,-182.94"/>
</g>
<!-- n28 -->
<g id="node29" class="node">
<title>n28</title>
<ellipse fill="#b2dfee" stroke="#b2dfee" cx="1285" cy="-162" rx="27" ry="18"/>
<text text-anchor="middle" x="1285" y="-159.5" font-family="Helvetica,sans-Serif" font-size="10.00">INT</text>
</g>
<!-- n24&#45;&gt;n28 -->
<g id="edge28" class="edge">
<title>n24&#45;&gt;n28</title>
<path fill="none" stroke="black" d="M1285,-215.7C1285,-208.41 1285,-199.73 1285,-191.54"/>
<polygon fill="black" stroke="black" points="1288.5,-191.62 1285,-181.62 1281.5,-191.62 1288.5,-191.62"/>
</g>
<!-- n29 -->
<g id="node30" class="node">
<title>n29</title>
<ellipse fill="#b2dfee" stroke="#b2dfee" cx="1357" cy="-162" rx="27" ry="18"/>
<text text-anchor="middle" x="1357" y="-159.5" font-family="Helvetica,sans-Serif" font-size="10.00">=</text>
</g>
<!-- n24&#45;&gt;n29 -->
<g id="edge29" class="edge">
<title>n24&#45;&gt;n29</title>
<path fill="none" stroke="black" d="M1302.43,-216.05C1311.92,-206.82 1323.79,-195.29 1334.03,-185.33"/>
<polygon fill="black" stroke="black" points="1336.35,-187.96 1341.08,-178.48 1331.47,-182.94 1336.35,-187.96"/>
</g>
<!-- n30 -->
<g id="node31" class="node">
<title>n30</title>
<ellipse fill="#b2dfee" stroke="#b2dfee" cx="1429" cy="-162" rx="27" ry="18"/>
<text text-anchor="middle" x="1429" y="-159.5" font-family="Helvetica,sans-Serif" font-size="10.00">INT</text>
</g>
<!-- n24&#45;&gt;n30 -->
<g id="edge30" class="edge">
<title>n24&#45;&gt;n30</title>
<path fill="none" stroke="black" d="M1318.04,-216.94C1341.94,-205.32 1374.05,-189.71 1397.58,-178.28"/>
<polygon fill="black" stroke="black" points="1398.9,-181.53 1406.36,-174.01 1395.84,-175.23 1398.9,-181.53"/>
</g>
<!-- n32 -->
<g id="node33" class="node">
<title>n32</title>
<ellipse fill="#b2dfee" stroke="#b2dfee" cx="1501" cy="-162" rx="27" ry="18"/>
<text text-anchor="middle" x="1501" y="-159.5" font-family="Helvetica,sans-Serif" font-size="10.00">;</text>
</g>
<!-- n24&#45;&gt;n32 -->
<g id="edge32" class="edge">
<title>n24&#45;&gt;n32</title>
<path fill="none" stroke="black" d="M1338.49,-219.58C1374.67,-209.94 1423.29,-195.88 1465,-180 1466.53,-179.42 1468.09,-178.79 1469.66,-178.15"/>
<polygon fill="black" stroke="black" points="1470.79,-181.47 1478.53,-174.23 1467.97,-175.07 1470.79,-181.47"/>
</g>
<!-- n31 -->
<g id="node32" class="node">
<title>n31</title>
<ellipse fill="#b2dfee" stroke="#b2dfee" cx="1429" cy="-90" rx="27" ry="18"/>
<text text-anchor="middle" x="1429" y="-87.5" font-family="Helvetica,sans-Serif" font-size="10.00">5</text>
</g>
<!-- n30&#45;&gt;n31 -->
<g id="edge31" class="edge">
<title>n30&#45;&gt;n31</title>
<path fill="none" stroke="black" d="M1429,-143.7C1429,-136.41 1429,-127.73 1429,-119.54"/>
<polygon fill="black" stroke="black" points="1432.5,-119.62 1429,-109.62 1425.5,-119.62 1432.5,-119.62"/>
</g>
<!-- n34 -->
<g id="node35" class="node">
<title>n34</title>
<ellipse fill="#b2dfee" stroke="#b2dfee" cx="1573" cy="-162" rx="27" ry="18"/>
<text text-anchor="middle" x="1573" y="-159.5" font-family="Helvetica,sans-Serif" font-size="10.00">num1</text>
</g>
<!-- n33&#45;&gt;n34 -->
<g id="edge34" class="edge">
<title>n33&#45;&gt;n34</title>
<path fill="none" stroke="black" d="M1627.94,-216.41C1618.32,-207.06 1606.18,-195.26 1595.77,-185.13"/>
<polygon fill="black" stroke="black" points="1598.21,-182.62 1588.6,-178.16 1593.33,-187.64 1598.21,-182.62"/>
</g>
<!-- n35 -->
<g id="node36" class="node">
<title>n35</title>
<ellipse fill="#b2dfee" stroke="#b2dfee" cx="1645" cy="-162" rx="27" ry="18"/>
<text text-anchor="middle" x="1645" y="-159.5" font-family="Helvetica,sans-Serif" font-size="10.00">=</text>
</g>
<!-- n33&#45;&gt;n35 -->
<g id="edge35" class="edge">
<title>n33&#45;&gt;n35</title>
<path fill="none" stroke="black" d="M1645,-215.7C1645,-208.41 1645,-199.73 1645,-191.54"/>
<polygon fill="black" stroke="black" points="1648.5,-191.62 1645,-181.62 1641.5,-191.62 1648.5,-191.62"/>
</g>
<!-- n36 -->
<g id="node37" class="node">
<title>n36</title>
<ellipse fill="#b2dfee" stroke="#b2dfee" cx="1734" cy="-162" rx="43.62" ry="18"/>
<text text-anchor="middle" x="1734" y="-159.5" font-family="Helvetica,sans-Serif" font-size="10.00">ARITMETICA</text>
</g>
<!-- n33&#45;&gt;n36 -->
<g id="edge36" class="edge">
<title>n33&#45;&gt;n36</title>
<path fill="none" stroke="black" d="M1665.64,-216.76C1677.46,-207.47 1692.47,-195.67 1705.4,-185.49"/>
<polygon fill="black" stroke="black" points="1707.5,-188.3 1713.2,-179.36 1703.17,-182.79 1707.5,-188.3"/>
</g>
<!-- n42 -->
<g id="node43" class="node">
<title>n42</title>
<ellipse fill="#b2dfee" stroke="#b2dfee" cx="1823" cy="-162" rx="27" ry="18"/>
<text text-anchor="middle" x="1823" y="-159.5" font-family="Helvetica,sans-Serif" font-size="10.00">;</text>
</g>
<!-- n33&#45;&gt;n42 -->
<g id="edge42" class="edge">
<title>n33&#45;&gt;n42</title>
<path fill="none" stroke="black" d="M1684.83,-219.14C1713.49,-208.93 1752.94,-194.37 1787,-180 1788.51,-179.36 1790.05,-178.7 1791.61,-178.01"/>
<polygon fill="black" stroke="black" points="1792.78,-181.32 1800.44,-173.99 1789.88,-174.95 1792.78,-181.32"/>
</g>
<!-- n37 -->
<g id="node38" class="node">
<title>n37</title>
<ellipse fill="#b2dfee" stroke="#b2dfee" cx="1612" cy="-90" rx="77.23" ry="18"/>
<text text-anchor="middle" x="1612" y="-87.5" font-family="Helvetica,sans-Serif" font-size="10.00">RECUPERAR_VARIABLE</text>
</g>
<!-- n36&#45;&gt;n37 -->
<g id="edge37" class="edge">
<title>n36&#45;&gt;n37</title>
<path fill="none" stroke="black" d="M1709.31,-146.83C1692.24,-137.04 1669.19,-123.81 1649.81,-112.7"/>
<polygon fill="black" stroke="black" points="1651.79,-109.8 1641.38,-107.86 1648.31,-115.87 1651.79,-109.8"/>
</g>
<!-- n39 -->
<g id="node40" class="node">
<title>n39</title>
<ellipse fill="#b2dfee" stroke="#b2dfee" cx="1734" cy="-90" rx="27" ry="18"/>
<text text-anchor="middle" x="1734" y="-87.5" font-family="Helvetica,sans-Serif" font-size="10.00">+</text>
</g>
<!-- n36&#45;&gt;n39 -->
<g id="edge39" class="edge">
<title>n36&#45;&gt;n39</title>
<path fill="none" stroke="black" d="M1734,-143.7C1734,-136.41 1734,-127.73 1734,-119.54"/>
<polygon fill="black" stroke="black" points="1737.5,-119.62 1734,-109.62 1730.5,-119.62 1737.5,-119.62"/>
</g>
<!-- n40 -->
<g id="node41" class="node">
<title>n40</title>
<ellipse fill="#b2dfee" stroke="#b2dfee" cx="1856" cy="-90" rx="77.23" ry="18"/>
<text text-anchor="middle" x="1856" y="-87.5" font-family="Helvetica,sans-Serif" font-size="10.00">RECUPERAR_VARIABLE</text>
</g>
<!-- n36&#45;&gt;n40 -->
<g id="edge40" class="edge">
<title>n36&#45;&gt;n40</title>
<path fill="none" stroke="black" d="M1758.69,-146.83C1775.76,-137.04 1798.81,-123.81 1818.19,-112.7"/>
<polygon fill="black" stroke="black" points="1819.69,-115.87 1826.62,-107.86 1816.21,-109.8 1819.69,-115.87"/>
</g>
<!-- n38 -->
<g id="node39" class="node">
<title>n38</title>
<ellipse fill="#b2dfee" stroke="#b2dfee" cx="1612" cy="-18" rx="27" ry="18"/>
<text text-anchor="middle" x="1612" y="-15.5" font-family="Helvetica,sans-Serif" font-size="10.00">num2</text>
</g>
<!-- n37&#45;&gt;n38 -->
<g id="edge38" class="edge">
<title>n37&#45;&gt;n38</title>
<path fill="none" stroke="black" d="M1612,-71.7C1612,-64.41 1612,-55.73 1612,-47.54"/>
<polygon fill="black" stroke="black" points="1615.5,-47.62 1612,-37.62 1608.5,-47.62 1615.5,-47.62"/>
</g>
<!-- n41 -->
<g id="node42" class="node">
<title>n41</title>
<ellipse fill="#b2dfee" stroke="#b2dfee" cx="1856" cy="-18" rx="27" ry="18"/>
<text text-anchor="middle" x="1856" y="-15.5" font-family="Helvetica,sans-Serif" font-size="10.00">num1</text>
</g>
<!-- n40&#45;&gt;n41 -->
<g id="edge41" class="edge">
<title>n40&#45;&gt;n41</title>
<path fill="none" stroke="black" d="M1856,-71.7C1856,-64.41 1856,-55.73 1856,-47.54"/>
<polygon fill="black" stroke="black" points="1859.5,-47.62 1856,-37.62 1852.5,-47.62 1859.5,-47.62"/>
</g>
<!-- n44 -->
<g id="node45" class="node">
<title>n44</title>
<ellipse fill="#b2dfee" stroke="#b2dfee" cx="1895" cy="-162" rx="27" ry="18"/>
<text text-anchor="middle" x="1895" y="-159.5" font-family="Helvetica,sans-Serif" font-size="10.00">Println</text>
</g>
<!-- n43&#45;&gt;n44 -->
<g id="edge44" class="edge">
<title>n43&#45;&gt;n44</title>
<path fill="none" stroke="black" d="M2004.83,-220.81C1982.92,-209.27 1949.89,-191.89 1925.77,-179.2"/>
<polygon fill="black" stroke="black" points="1927.54,-176.17 1917.06,-174.61 1924.28,-182.36 1927.54,-176.17"/>
</g>
<!-- n45 -->
<g id="node46" class="node">
<title>n45</title>
<ellipse fill="#b2dfee" stroke="#b2dfee" cx="1967" cy="-162" rx="27" ry="18"/>
<text text-anchor="middle" x="1967" y="-159.5" font-family="Helvetica,sans-Serif" font-size="10.00">(</text>
</g>
<!-- n43&#45;&gt;n45 -->
<g id="edge45" class="edge">
<title>n43&#45;&gt;n45</title>
<path fill="none" stroke="black" d="M2014.46,-217.46C2006.54,-208.37 1996.37,-196.7 1987.48,-186.5"/>
<polygon fill="black" stroke="black" points="1990.28,-184.39 1981.08,-179.15 1985.01,-188.99 1990.28,-184.39"/>
</g>
<!-- n46 -->
<g id="node47" class="node">
<title>n46</title>
<ellipse fill="#b2dfee" stroke="#b2dfee" cx="2089" cy="-162" rx="77.23" ry="18"/>
<text text-anchor="middle" x="2089" y="-159.5" font-family="Helvetica,sans-Serif" font-size="10.00">RECUPERAR_VARIABLE</text>
</g>
<!-- n43&#45;&gt;n46 -->
<g id="edge46" class="edge">
<title>n43&#45;&gt;n46</title>
<path fill="none" stroke="black" d="M2041.54,-217.46C2048.95,-208.95 2058.33,-198.19 2066.79,-188.48"/>
<polygon fill="black" stroke="black" points="2069.29,-190.94 2073.22,-181.1 2064.02,-186.34 2069.29,-190.94"/>
</g>
<!-- n48 -->
<g id="node49" class="node">
<title>n48</title>
<ellipse fill="#b2dfee" stroke="#b2dfee" cx="2211" cy="-162" rx="27" ry="18"/>
<text text-anchor="middle" x="2211" y="-159.5" font-family="Helvetica,sans-Serif" font-size="10.00">)</text>
</g>
<!-- n43&#45;&gt;n48 -->
<g id="edge48" class="edge">
<title>n43&#45;&gt;n48</title>
<path fill="none" stroke="black" d="M2055.66,-223.9C2085.44,-213.91 2134.04,-197.01 2175,-180 2176.52,-179.37 2178.06,-178.71 2179.62,-178.03"/>
<polygon fill="black" stroke="black" points="2180.79,-181.35 2188.45,-174.03 2177.9,-174.97 2180.79,-181.35"/>
</g>
<!-- n49 -->
<g id="node50" class="node">
<title>n49</title>
<ellipse fill="#b2dfee" stroke="#b2dfee" cx="2283" cy="-162" rx="27" ry="18"/>
<text text-anchor="middle" x="2283" y="-159.5" font-family="Helvetica,sans-Serif" font-size="10.00">;</text>
</g>
<!-- n43&#45;&gt;n49 -->
<g id="edge49" class="edge">
<title>n43&#45;&gt;n49</title>
<path fill="none" stroke="black" d="M2059.04,-227.56C2102.01,-219.56 2181.71,-203.05 2247,-180 2248.55,-179.45 2250.12,-178.86 2251.69,-178.24"/>
<polygon fill="black" stroke="black" points="2252.8,-181.58 2260.59,-174.4 2250.02,-175.15 2252.8,-181.58"/>
</g>
<!-- n47 -->
<g id="node48" class="node">
<title>n47</title>
<ellipse fill="#b2dfee" stroke="#b2dfee" cx="2089" cy="-90" rx="27" ry="18"/>
<text text-anchor="middle" x="2089" y="-87.5" font-family="Helvetica,sans-Serif" font-size="10.00">num1</text>
</g>
<!-- n46&#45;&gt;n47 -->
<g id="edge47" class="edge">
<title>n46&#45;&gt;n47</title>
<path fill="none" stroke="black" d="M2089,-143.7C2089,-136.41 2089,-127.73 2089,-119.54"/>
<polygon fill="black" stroke="black" points="2092.5,-119.62 2089,-109.62 2085.5,-119.62 2092.5,-119.62"/>
</g>
</g>
</svg>
