<?xml version="1.0" encoding="UTF-8" standalone="no"?>
<!DOCTYPE svg PUBLIC "-//W3C//DTD SVG 1.1//EN"
 "http://www.w3.org/Graphics/SVG/1.1/DTD/svg11.dtd">
<!-- Generated by graphviz version 7.1.0 (20230121.1956)
 -->
<!-- Title: arbolAST Pages: 1 -->
<svg width="2003pt" height="404pt"
 viewBox="0.00 0.00 2003.00 404.00" xmlns="http://www.w3.org/2000/svg" xmlns:xlink="http://www.w3.org/1999/xlink">
<g id="graph0" class="graph" transform="scale(1 1) rotate(0) translate(4 400)">
<title>arbolAST</title>
<polygon fill="white" stroke="none" points="-4,4 -4,-400 1999,-400 1999,4 -4,4"/>
<!-- n0 -->
<g id="node1" class="node">
<title>n0</title>
<ellipse fill="#b2dfee" stroke="#b2dfee" cx="869" cy="-378" rx="27" ry="18"/>
<text text-anchor="middle" x="869" y="-375.5" font-family="Helvetica,sans-Serif" font-size="10.00">INICIO</text>
</g>
<!-- n1 -->
<g id="node2" class="node">
<title>n1</title>
<ellipse fill="#b2dfee" stroke="#b2dfee" cx="869" cy="-306" rx="55.85" ry="18"/>
<text text-anchor="middle" x="869" y="-303.5" font-family="Helvetica,sans-Serif" font-size="10.00">INSTRUCCIONES</text>
</g>
<!-- n0&#45;&gt;n1 -->
<g id="edge1" class="edge">
<title>n0&#45;&gt;n1</title>
<path fill="none" stroke="black" d="M869,-359.7C869,-352.41 869,-343.73 869,-335.54"/>
<polygon fill="black" stroke="black" points="872.5,-335.62 869,-325.62 865.5,-335.62 872.5,-335.62"/>
</g>
<!-- n2 -->
<g id="node3" class="node">
<title>n2</title>
<ellipse fill="#b2dfee" stroke="#b2dfee" cx="218" cy="-234" rx="32.93" ry="18"/>
<text text-anchor="middle" x="218" y="-231.5" font-family="Helvetica,sans-Serif" font-size="10.00">PRINTLN</text>
</g>
<!-- n1&#45;&gt;n2 -->
<g id="edge2" class="edge">
<title>n1&#45;&gt;n2</title>
<path fill="none" stroke="black" d="M816.55,-299.36C691.36,-285.9 376.9,-252.09 261.41,-239.67"/>
<polygon fill="black" stroke="black" points="262.06,-236.22 251.74,-238.63 261.31,-243.18 262.06,-236.22"/>
</g>
<!-- n9 -->
<g id="node10" class="node">
<title>n9</title>
<ellipse fill="#b2dfee" stroke="#b2dfee" cx="653" cy="-234" rx="85.89" ry="18"/>
<text text-anchor="middle" x="653" y="-231.5" font-family="Helvetica,sans-Serif" font-size="10.00">DECLARACION_VARIABLES</text>
</g>
<!-- n1&#45;&gt;n9 -->
<g id="edge9" class="edge">
<title>n1&#45;&gt;n9</title>
<path fill="none" stroke="black" d="M830.88,-292.65C797.01,-281.67 747.06,-265.48 708.7,-253.05"/>
<polygon fill="black" stroke="black" points="710.25,-249.87 699.66,-250.12 708.09,-256.53 710.25,-249.87"/>
</g>
<!-- n18 -->
<g id="node19" class="node">
<title>n18</title>
<ellipse fill="#b2dfee" stroke="#b2dfee" cx="1085" cy="-234" rx="85.89" ry="18"/>
<text text-anchor="middle" x="1085" y="-231.5" font-family="Helvetica,sans-Serif" font-size="10.00">DECLARACION_VARIABLES</text>
</g>
<!-- n1&#45;&gt;n18 -->
<g id="edge18" class="edge">
<title>n1&#45;&gt;n18</title>
<path fill="none" stroke="black" d="M907.12,-292.65C940.99,-281.67 990.94,-265.48 1029.3,-253.05"/>
<polygon fill="black" stroke="black" points="1029.91,-256.53 1038.34,-250.12 1027.75,-249.87 1029.91,-256.53"/>
</g>
<!-- n27 -->
<g id="node28" class="node">
<title>n27</title>
<ellipse fill="#b2dfee" stroke="#b2dfee" cx="1661" cy="-234" rx="27.84" ry="18"/>
<text text-anchor="middle" x="1661" y="-231.5" font-family="Helvetica,sans-Serif" font-size="10.00">WHILE</text>
</g>
<!-- n1&#45;&gt;n27 -->
<g id="edge27" class="edge">
<title>n1&#45;&gt;n27</title>
<path fill="none" stroke="black" d="M922.5,-300.27C1072.12,-287.05 1492.35,-249.91 1622.25,-238.43"/>
<polygon fill="black" stroke="black" points="1622.38,-241.93 1632.04,-237.56 1621.77,-234.95 1622.38,-241.93"/>
</g>
<!-- n3 -->
<g id="node4" class="node">
<title>n3</title>
<ellipse fill="#b2dfee" stroke="#b2dfee" cx="27" cy="-162" rx="27" ry="18"/>
<text text-anchor="middle" x="27" y="-159.5" font-family="Helvetica,sans-Serif" font-size="10.00">Println</text>
</g>
<!-- n2&#45;&gt;n3 -->
<g id="edge3" class="edge">
<title>n2&#45;&gt;n3</title>
<path fill="none" stroke="black" d="M189.65,-224.36C158.3,-214.56 106.48,-197.64 63,-180 61.48,-179.38 59.93,-178.73 58.37,-178.06"/>
<polygon fill="black" stroke="black" points="60.08,-175 49.53,-174.09 57.21,-181.38 60.08,-175"/>
</g>
<!-- n4 -->
<g id="node5" class="node">
<title>n4</title>
<ellipse fill="#b2dfee" stroke="#b2dfee" cx="99" cy="-162" rx="27" ry="18"/>
<text text-anchor="middle" x="99" y="-159.5" font-family="Helvetica,sans-Serif" font-size="10.00">(</text>
</g>
<!-- n2&#45;&gt;n4 -->
<g id="edge4" class="edge">
<title>n2&#45;&gt;n4</title>
<path fill="none" stroke="black" d="M196.17,-220.16C177.14,-208.97 149.38,-192.64 128.4,-180.29"/>
<polygon fill="black" stroke="black" points="130.41,-177.42 120.02,-175.36 126.86,-183.45 130.41,-177.42"/>
</g>
<!-- n5 -->
<g id="node6" class="node">
<title>n5</title>
<ellipse fill="#b2dfee" stroke="#b2dfee" cx="178" cy="-162" rx="33.61" ry="18"/>
<text text-anchor="middle" x="178" y="-159.5" font-family="Helvetica,sans-Serif" font-size="10.00">CADENA</text>
</g>
<!-- n2&#45;&gt;n5 -->
<g id="edge5" class="edge">
<title>n2&#45;&gt;n5</title>
<path fill="none" stroke="black" d="M208.52,-216.41C203.89,-208.3 198.2,-198.35 193,-189.25"/>
<polygon fill="black" stroke="black" points="196.16,-187.73 188.16,-180.78 190.08,-191.2 196.16,-187.73"/>
</g>
<!-- n7 -->
<g id="node8" class="node">
<title>n7</title>
<ellipse fill="#b2dfee" stroke="#b2dfee" cx="257" cy="-162" rx="27" ry="18"/>
<text text-anchor="middle" x="257" y="-159.5" font-family="Helvetica,sans-Serif" font-size="10.00">)</text>
</g>
<!-- n2&#45;&gt;n7 -->
<g id="edge7" class="edge">
<title>n2&#45;&gt;n7</title>
<path fill="none" stroke="black" d="M227.24,-216.41C231.82,-208.19 237.46,-198.06 242.6,-188.85"/>
<polygon fill="black" stroke="black" points="245.55,-190.75 247.36,-180.31 239.43,-187.34 245.55,-190.75"/>
</g>
<!-- n8 -->
<g id="node9" class="node">
<title>n8</title>
<ellipse fill="#b2dfee" stroke="#b2dfee" cx="329" cy="-162" rx="27" ry="18"/>
<text text-anchor="middle" x="329" y="-159.5" font-family="Helvetica,sans-Serif" font-size="10.00">;</text>
</g>
<!-- n2&#45;&gt;n8 -->
<g id="edge8" class="edge">
<title>n2&#45;&gt;n8</title>
<path fill="none" stroke="black" d="M239.14,-219.67C256.41,-208.77 281.01,-193.26 300.11,-181.22"/>
<polygon fill="black" stroke="black" points="301.92,-184.21 308.51,-175.92 298.19,-178.29 301.92,-184.21"/>
</g>
<!-- n6 -->
<g id="node7" class="node">
<title>n6</title>
<ellipse fill="#b2dfee" stroke="#b2dfee" cx="178" cy="-90" rx="27" ry="18"/>
</g>
<!-- n5&#45;&gt;n6 -->
<g id="edge6" class="edge">
<title>n5&#45;&gt;n6</title>
<path fill="none" stroke="black" d="M178,-143.7C178,-136.41 178,-127.73 178,-119.54"/>
<polygon fill="black" stroke="black" points="181.5,-119.62 178,-109.62 174.5,-119.62 181.5,-119.62"/>
</g>
<!-- n10 -->
<g id="node11" class="node">
<title>n10</title>
<ellipse fill="#b2dfee" stroke="#b2dfee" cx="401" cy="-162" rx="27" ry="18"/>
<text text-anchor="middle" x="401" y="-159.5" font-family="Helvetica,sans-Serif" font-size="10.00">var</text>
</g>
<!-- n9&#45;&gt;n10 -->
<g id="edge10" class="edge">
<title>n9&#45;&gt;n10</title>
<path fill="none" stroke="black" d="M591.05,-221.25C547.34,-212.13 487.76,-198.01 437,-180 435.45,-179.45 433.88,-178.86 432.31,-178.23"/>
<polygon fill="black" stroke="black" points="433.98,-175.14 423.41,-174.39 431.2,-181.57 433.98,-175.14"/>
</g>
<!-- n11 -->
<g id="node12" class="node">
<title>n11</title>
<ellipse fill="#b2dfee" stroke="#b2dfee" cx="473" cy="-162" rx="27" ry="18"/>
<text text-anchor="middle" x="473" y="-159.5" font-family="Helvetica,sans-Serif" font-size="10.00">j</text>
</g>
<!-- n9&#45;&gt;n11 -->
<g id="edge11" class="edge">
<title>n9&#45;&gt;n11</title>
<path fill="none" stroke="black" d="M609.45,-218.1C580.68,-207.98 542.29,-193.95 509,-180 507.49,-179.37 505.94,-178.7 504.39,-178.02"/>
<polygon fill="black" stroke="black" points="506.11,-174.96 495.56,-174.01 503.21,-181.33 506.11,-174.96"/>
</g>
<!-- n12 -->
<g id="node13" class="node">
<title>n12</title>
<ellipse fill="#b2dfee" stroke="#b2dfee" cx="545" cy="-162" rx="27" ry="18"/>
<text text-anchor="middle" x="545" y="-159.5" font-family="Helvetica,sans-Serif" font-size="10.00">:</text>
</g>
<!-- n9&#45;&gt;n12 -->
<g id="edge12" class="edge">
<title>n9&#45;&gt;n12</title>
<path fill="none" stroke="black" d="M627.41,-216.41C611.14,-205.87 590.06,-192.21 573.29,-181.34"/>
<polygon fill="black" stroke="black" points="575.56,-178.63 565.26,-176.13 571.75,-184.51 575.56,-178.63"/>
</g>
<!-- n13 -->
<g id="node14" class="node">
<title>n13</title>
<ellipse fill="#b2dfee" stroke="#b2dfee" cx="617" cy="-162" rx="27" ry="18"/>
<text text-anchor="middle" x="617" y="-159.5" font-family="Helvetica,sans-Serif" font-size="10.00">INT</text>
</g>
<!-- n9&#45;&gt;n13 -->
<g id="edge13" class="edge">
<title>n9&#45;&gt;n13</title>
<path fill="none" stroke="black" d="M644.1,-215.7C640.02,-207.75 635.08,-198.16 630.55,-189.34"/>
<polygon fill="black" stroke="black" points="633.68,-187.78 626,-180.49 627.46,-190.98 633.68,-187.78"/>
</g>
<!-- n14 -->
<g id="node15" class="node">
<title>n14</title>
<ellipse fill="#b2dfee" stroke="#b2dfee" cx="689" cy="-162" rx="27" ry="18"/>
<text text-anchor="middle" x="689" y="-159.5" font-family="Helvetica,sans-Serif" font-size="10.00">=</text>
</g>
<!-- n9&#45;&gt;n14 -->
<g id="edge14" class="edge">
<title>n9&#45;&gt;n14</title>
<path fill="none" stroke="black" d="M661.9,-215.7C665.98,-207.75 670.92,-198.16 675.45,-189.34"/>
<polygon fill="black" stroke="black" points="678.54,-190.98 680,-180.49 672.32,-187.78 678.54,-190.98"/>
</g>
<!-- n15 -->
<g id="node16" class="node">
<title>n15</title>
<ellipse fill="#b2dfee" stroke="#b2dfee" cx="761" cy="-162" rx="27" ry="18"/>
<text text-anchor="middle" x="761" y="-159.5" font-family="Helvetica,sans-Serif" font-size="10.00">INT</text>
</g>
<!-- n9&#45;&gt;n15 -->
<g id="edge15" class="edge">
<title>n9&#45;&gt;n15</title>
<path fill="none" stroke="black" d="M678.59,-216.41C694.86,-205.87 715.94,-192.21 732.71,-181.34"/>
<polygon fill="black" stroke="black" points="734.25,-184.51 740.74,-176.13 730.44,-178.63 734.25,-184.51"/>
</g>
<!-- n17 -->
<g id="node18" class="node">
<title>n17</title>
<ellipse fill="#b2dfee" stroke="#b2dfee" cx="833" cy="-162" rx="27" ry="18"/>
<text text-anchor="middle" x="833" y="-159.5" font-family="Helvetica,sans-Serif" font-size="10.00">;</text>
</g>
<!-- n9&#45;&gt;n17 -->
<g id="edge17" class="edge">
<title>n9&#45;&gt;n17</title>
<path fill="none" stroke="black" d="M696.55,-218.1C725.32,-207.98 763.71,-193.95 797,-180 798.51,-179.37 800.06,-178.7 801.61,-178.02"/>
<polygon fill="black" stroke="black" points="802.79,-181.33 810.44,-174.01 799.89,-174.96 802.79,-181.33"/>
</g>
<!-- n16 -->
<g id="node17" class="node">
<title>n16</title>
<ellipse fill="#b2dfee" stroke="#b2dfee" cx="761" cy="-90" rx="27" ry="18"/>
<text text-anchor="middle" x="761" y="-87.5" font-family="Helvetica,sans-Serif" font-size="10.00">0</text>
</g>
<!-- n15&#45;&gt;n16 -->
<g id="edge16" class="edge">
<title>n15&#45;&gt;n16</title>
<path fill="none" stroke="black" d="M761,-143.7C761,-136.41 761,-127.73 761,-119.54"/>
<polygon fill="black" stroke="black" points="764.5,-119.62 761,-109.62 757.5,-119.62 764.5,-119.62"/>
</g>
<!-- n19 -->
<g id="node20" class="node">
<title>n19</title>
<ellipse fill="#b2dfee" stroke="#b2dfee" cx="905" cy="-162" rx="27" ry="18"/>
<text text-anchor="middle" x="905" y="-159.5" font-family="Helvetica,sans-Serif" font-size="10.00">var</text>
</g>
<!-- n18&#45;&gt;n19 -->
<g id="edge19" class="edge">
<title>n18&#45;&gt;n19</title>
<path fill="none" stroke="black" d="M1041.45,-218.1C1012.68,-207.98 974.29,-193.95 941,-180 939.49,-179.37 937.94,-178.7 936.39,-178.02"/>
<polygon fill="black" stroke="black" points="938.11,-174.96 927.56,-174.01 935.21,-181.33 938.11,-174.96"/>
</g>
<!-- n20 -->
<g id="node21" class="node">
<title>n20</title>
<ellipse fill="#b2dfee" stroke="#b2dfee" cx="977" cy="-162" rx="27" ry="18"/>
<text text-anchor="middle" x="977" y="-159.5" font-family="Helvetica,sans-Serif" font-size="10.00">k</text>
</g>
<!-- n18&#45;&gt;n20 -->
<g id="edge20" class="edge">
<title>n18&#45;&gt;n20</title>
<path fill="none" stroke="black" d="M1059.41,-216.41C1043.14,-205.87 1022.06,-192.21 1005.29,-181.34"/>
<polygon fill="black" stroke="black" points="1007.56,-178.63 997.26,-176.13 1003.75,-184.51 1007.56,-178.63"/>
</g>
<!-- n21 -->
<g id="node22" class="node">
<title>n21</title>
<ellipse fill="#b2dfee" stroke="#b2dfee" cx="1049" cy="-162" rx="27" ry="18"/>
<text text-anchor="middle" x="1049" y="-159.5" font-family="Helvetica,sans-Serif" font-size="10.00">:</text>
</g>
<!-- n18&#45;&gt;n21 -->
<g id="edge21" class="edge">
<title>n18&#45;&gt;n21</title>
<path fill="none" stroke="black" d="M1076.1,-215.7C1072.02,-207.75 1067.08,-198.16 1062.55,-189.34"/>
<polygon fill="black" stroke="black" points="1065.68,-187.78 1058,-180.49 1059.46,-190.98 1065.68,-187.78"/>
</g>
<!-- n22 -->
<g id="node23" class="node">
<title>n22</title>
<ellipse fill="#b2dfee" stroke="#b2dfee" cx="1121" cy="-162" rx="27" ry="18"/>
<text text-anchor="middle" x="1121" y="-159.5" font-family="Helvetica,sans-Serif" font-size="10.00">INT</text>
</g>
<!-- n18&#45;&gt;n22 -->
<g id="edge22" class="edge">
<title>n18&#45;&gt;n22</title>
<path fill="none" stroke="black" d="M1093.9,-215.7C1097.98,-207.75 1102.92,-198.16 1107.45,-189.34"/>
<polygon fill="black" stroke="black" points="1110.54,-190.98 1112,-180.49 1104.32,-187.78 1110.54,-190.98"/>
</g>
<!-- n23 -->
<g id="node24" class="node">
<title>n23</title>
<ellipse fill="#b2dfee" stroke="#b2dfee" cx="1193" cy="-162" rx="27" ry="18"/>
<text text-anchor="middle" x="1193" y="-159.5" font-family="Helvetica,sans-Serif" font-size="10.00">=</text>
</g>
<!-- n18&#45;&gt;n23 -->
<g id="edge23" class="edge">
<title>n18&#45;&gt;n23</title>
<path fill="none" stroke="black" d="M1110.59,-216.41C1126.86,-205.87 1147.94,-192.21 1164.71,-181.34"/>
<polygon fill="black" stroke="black" points="1166.25,-184.51 1172.74,-176.13 1162.44,-178.63 1166.25,-184.51"/>
</g>
<!-- n24 -->
<g id="node25" class="node">
<title>n24</title>
<ellipse fill="#b2dfee" stroke="#b2dfee" cx="1265" cy="-162" rx="27" ry="18"/>
<text text-anchor="middle" x="1265" y="-159.5" font-family="Helvetica,sans-Serif" font-size="10.00">INT</text>
</g>
<!-- n18&#45;&gt;n24 -->
<g id="edge24" class="edge">
<title>n18&#45;&gt;n24</title>
<path fill="none" stroke="black" d="M1128.55,-218.1C1157.32,-207.98 1195.71,-193.95 1229,-180 1230.51,-179.37 1232.06,-178.7 1233.61,-178.02"/>
<polygon fill="black" stroke="black" points="1234.79,-181.33 1242.44,-174.01 1231.89,-174.96 1234.79,-181.33"/>
</g>
<!-- n26 -->
<g id="node27" class="node">
<title>n26</title>
<ellipse fill="#b2dfee" stroke="#b2dfee" cx="1337" cy="-162" rx="27" ry="18"/>
<text text-anchor="middle" x="1337" y="-159.5" font-family="Helvetica,sans-Serif" font-size="10.00">;</text>
</g>
<!-- n18&#45;&gt;n26 -->
<g id="edge26" class="edge">
<title>n18&#45;&gt;n26</title>
<path fill="none" stroke="black" d="M1146.95,-221.25C1190.66,-212.13 1250.24,-198.01 1301,-180 1302.55,-179.45 1304.12,-178.86 1305.69,-178.23"/>
<polygon fill="black" stroke="black" points="1306.8,-181.57 1314.59,-174.39 1304.02,-175.14 1306.8,-181.57"/>
</g>
<!-- n25 -->
<g id="node26" class="node">
<title>n25</title>
<ellipse fill="#b2dfee" stroke="#b2dfee" cx="1265" cy="-90" rx="27" ry="18"/>
<text text-anchor="middle" x="1265" y="-87.5" font-family="Helvetica,sans-Serif" font-size="10.00">10</text>
</g>
<!-- n24&#45;&gt;n25 -->
<g id="edge25" class="edge">
<title>n24&#45;&gt;n25</title>
<path fill="none" stroke="black" d="M1265,-143.7C1265,-136.41 1265,-127.73 1265,-119.54"/>
<polygon fill="black" stroke="black" points="1268.5,-119.62 1265,-109.62 1261.5,-119.62 1268.5,-119.62"/>
</g>
<!-- n28 -->
<g id="node29" class="node">
<title>n28</title>
<ellipse fill="#b2dfee" stroke="#b2dfee" cx="1409" cy="-162" rx="27" ry="18"/>
<text text-anchor="middle" x="1409" y="-159.5" font-family="Helvetica,sans-Serif" font-size="10.00">while</text>
</g>
<!-- n27&#45;&gt;n28 -->
<g id="edge28" class="edge">
<title>n27&#45;&gt;n28</title>
<path fill="none" stroke="black" d="M1634.23,-228.23C1592.91,-220.46 1511.41,-203.56 1445,-180 1443.45,-179.45 1441.88,-178.86 1440.31,-178.23"/>
<polygon fill="black" stroke="black" points="1441.98,-175.14 1431.41,-174.39 1439.2,-181.57 1441.98,-175.14"/>
</g>
<!-- n29 -->
<g id="node30" class="node">
<title>n29</title>
<ellipse fill="#b2dfee" stroke="#b2dfee" cx="1481" cy="-162" rx="27" ry="18"/>
<text text-anchor="middle" x="1481" y="-159.5" font-family="Helvetica,sans-Serif" font-size="10.00">(</text>
</g>
<!-- n27&#45;&gt;n29 -->
<g id="edge29" class="edge">
<title>n27&#45;&gt;n29</title>
<path fill="none" stroke="black" d="M1636.54,-224.74C1607.68,-214.82 1558.4,-197.35 1517,-180 1515.49,-179.37 1513.94,-178.7 1512.39,-178.02"/>
<polygon fill="black" stroke="black" points="1514.11,-174.96 1503.56,-174.01 1511.21,-181.33 1514.11,-174.96"/>
</g>
<!-- n30 -->
<g id="node31" class="node">
<title>n30</title>
<ellipse fill="#b2dfee" stroke="#b2dfee" cx="1571" cy="-162" rx="45.15" ry="18"/>
<text text-anchor="middle" x="1571" y="-159.5" font-family="Helvetica,sans-Serif" font-size="10.00">RELACIONAL</text>
</g>
<!-- n27&#45;&gt;n30 -->
<g id="edge30" class="edge">
<title>n27&#45;&gt;n30</title>
<path fill="none" stroke="black" d="M1643.65,-219.5C1631.24,-209.86 1614.27,-196.65 1599.84,-185.43"/>
<polygon fill="black" stroke="black" points="1602.04,-182.71 1592,-179.33 1597.75,-188.24 1602.04,-182.71"/>
</g>
<!-- n36 -->
<g id="node37" class="node">
<title>n36</title>
<ellipse fill="#b2dfee" stroke="#b2dfee" cx="1661" cy="-162" rx="27" ry="18"/>
<text text-anchor="middle" x="1661" y="-159.5" font-family="Helvetica,sans-Serif" font-size="10.00">)</text>
</g>
<!-- n27&#45;&gt;n36 -->
<g id="edge36" class="edge">
<title>n27&#45;&gt;n36</title>
<path fill="none" stroke="black" d="M1661,-215.7C1661,-208.41 1661,-199.73 1661,-191.54"/>
<polygon fill="black" stroke="black" points="1664.5,-191.62 1661,-181.62 1657.5,-191.62 1664.5,-191.62"/>
</g>
<!-- n37 -->
<g id="node38" class="node">
<title>n37</title>
<ellipse fill="#b2dfee" stroke="#b2dfee" cx="1733" cy="-162" rx="27" ry="18"/>
<text text-anchor="middle" x="1733" y="-159.5" font-family="Helvetica,sans-Serif" font-size="10.00">{</text>
</g>
<!-- n27&#45;&gt;n37 -->
<g id="edge37" class="edge">
<title>n27&#45;&gt;n37</title>
<path fill="none" stroke="black" d="M1675.92,-218.5C1685.77,-208.92 1698.86,-196.19 1710.03,-185.34"/>
<polygon fill="black" stroke="black" points="1712.29,-188.02 1717.02,-178.54 1707.41,-183 1712.29,-188.02"/>
</g>
<!-- n38 -->
<g id="node39" class="node">
<title>n38</title>
<ellipse fill="#b2dfee" stroke="#b2dfee" cx="1807" cy="-162" rx="29.37" ry="18"/>
<text text-anchor="middle" x="1807" y="-159.5" font-family="Helvetica,sans-Serif" font-size="10.00">MATCH</text>
</g>
<!-- n27&#45;&gt;n38 -->
<g id="edge38" class="edge">
<title>n27&#45;&gt;n38</title>
<path fill="none" stroke="black" d="M1682.86,-222.52C1707.12,-210.89 1746.54,-191.99 1774.44,-178.61"/>
<polygon fill="black" stroke="black" points="1775.64,-181.92 1783.15,-174.44 1772.62,-175.6 1775.64,-181.92"/>
</g>
<!-- n39 -->
<g id="node40" class="node">
<title>n39</title>
<ellipse fill="#b2dfee" stroke="#b2dfee" cx="1889" cy="-162" rx="34.29" ry="18"/>
<text text-anchor="middle" x="1889" y="-159.5" font-family="Helvetica,sans-Serif" font-size="10.00">INC_DEC</text>
</g>
<!-- n27&#45;&gt;n39 -->
<g id="edge39" class="edge">
<title>n27&#45;&gt;n39</title>
<path fill="none" stroke="black" d="M1686.52,-226.41C1722.24,-217.02 1789.07,-198.82 1845,-180 1847.24,-179.25 1849.54,-178.44 1851.85,-177.62"/>
<polygon fill="black" stroke="black" points="1853.03,-180.91 1861.19,-174.16 1850.6,-174.35 1853.03,-180.91"/>
</g>
<!-- n43 -->
<g id="node44" class="node">
<title>n43</title>
<ellipse fill="#b2dfee" stroke="#b2dfee" cx="1968" cy="-162" rx="27" ry="18"/>
<text text-anchor="middle" x="1968" y="-159.5" font-family="Helvetica,sans-Serif" font-size="10.00">}</text>
</g>
<!-- n27&#45;&gt;n43 -->
<g id="edge43" class="edge">
<title>n27&#45;&gt;n43</title>
<path fill="none" stroke="black" d="M1688.49,-229.91C1738.1,-223.84 1845.46,-208.41 1932,-180 1933.56,-179.49 1935.14,-178.92 1936.72,-178.32"/>
<polygon fill="black" stroke="black" points="1937.79,-181.67 1945.64,-174.55 1935.07,-175.22 1937.79,-181.67"/>
</g>
<!-- n31 -->
<g id="node32" class="node">
<title>n31</title>
<ellipse fill="#b2dfee" stroke="#b2dfee" cx="1449" cy="-90" rx="77.23" ry="18"/>
<text text-anchor="middle" x="1449" y="-87.5" font-family="Helvetica,sans-Serif" font-size="10.00">RECUPERAR_VARIABLE</text>
</g>
<!-- n30&#45;&gt;n31 -->
<g id="edge31" class="edge">
<title>n30&#45;&gt;n31</title>
<path fill="none" stroke="black" d="M1546.02,-146.67C1529,-136.9 1506.15,-123.79 1486.91,-112.75"/>
<polygon fill="black" stroke="black" points="1488.66,-109.72 1478.24,-107.78 1485.18,-115.79 1488.66,-109.72"/>
</g>
<!-- n33 -->
<g id="node34" class="node">
<title>n33</title>
<ellipse fill="#b2dfee" stroke="#b2dfee" cx="1571" cy="-90" rx="27" ry="18"/>
<text text-anchor="middle" x="1571" y="-87.5" font-family="Helvetica,sans-Serif" font-size="10.00">&lt;=</text>
</g>
<!-- n30&#45;&gt;n33 -->
<g id="edge33" class="edge">
<title>n30&#45;&gt;n33</title>
<path fill="none" stroke="black" d="M1571,-143.7C1571,-136.41 1571,-127.73 1571,-119.54"/>
<polygon fill="black" stroke="black" points="1574.5,-119.62 1571,-109.62 1567.5,-119.62 1574.5,-119.62"/>
</g>
<!-- n34 -->
<g id="node35" class="node">
<title>n34</title>
<ellipse fill="#b2dfee" stroke="#b2dfee" cx="1693" cy="-90" rx="77.23" ry="18"/>
<text text-anchor="middle" x="1693" y="-87.5" font-family="Helvetica,sans-Serif" font-size="10.00">RECUPERAR_VARIABLE</text>
</g>
<!-- n30&#45;&gt;n34 -->
<g id="edge34" class="edge">
<title>n30&#45;&gt;n34</title>
<path fill="none" stroke="black" d="M1595.98,-146.67C1613,-136.9 1635.85,-123.79 1655.09,-112.75"/>
<polygon fill="black" stroke="black" points="1656.82,-115.79 1663.76,-107.78 1653.34,-109.72 1656.82,-115.79"/>
</g>
<!-- n32 -->
<g id="node33" class="node">
<title>n32</title>
<ellipse fill="#b2dfee" stroke="#b2dfee" cx="1449" cy="-18" rx="27" ry="18"/>
<text text-anchor="middle" x="1449" y="-15.5" font-family="Helvetica,sans-Serif" font-size="10.00">j</text>
</g>
<!-- n31&#45;&gt;n32 -->
<g id="edge32" class="edge">
<title>n31&#45;&gt;n32</title>
<path fill="none" stroke="black" d="M1449,-71.7C1449,-64.41 1449,-55.73 1449,-47.54"/>
<polygon fill="black" stroke="black" points="1452.5,-47.62 1449,-37.62 1445.5,-47.62 1452.5,-47.62"/>
</g>
<!-- n35 -->
<g id="node36" class="node">
<title>n35</title>
<ellipse fill="#b2dfee" stroke="#b2dfee" cx="1693" cy="-18" rx="27" ry="18"/>
<text text-anchor="middle" x="1693" y="-15.5" font-family="Helvetica,sans-Serif" font-size="10.00">k</text>
</g>
<!-- n34&#45;&gt;n35 -->
<g id="edge35" class="edge">
<title>n34&#45;&gt;n35</title>
<path fill="none" stroke="black" d="M1693,-71.7C1693,-64.41 1693,-55.73 1693,-47.54"/>
<polygon fill="black" stroke="black" points="1696.5,-47.62 1693,-37.62 1689.5,-47.62 1696.5,-47.62"/>
</g>
<!-- n40 -->
<g id="node41" class="node">
<title>n40</title>
<ellipse fill="#b2dfee" stroke="#b2dfee" cx="1817" cy="-90" rx="27" ry="18"/>
<text text-anchor="middle" x="1817" y="-87.5" font-family="Helvetica,sans-Serif" font-size="10.00">j</text>
</g>
<!-- n39&#45;&gt;n40 -->
<g id="edge40" class="edge">
<title>n39&#45;&gt;n40</title>
<path fill="none" stroke="black" d="M1873.38,-145.81C1863.49,-136.2 1850.54,-123.61 1839.55,-112.93"/>
<polygon fill="black" stroke="black" points="1842.31,-110.72 1832.7,-106.26 1837.43,-115.74 1842.31,-110.72"/>
</g>
<!-- n41 -->
<g id="node42" class="node">
<title>n41</title>
<ellipse fill="#b2dfee" stroke="#b2dfee" cx="1889" cy="-90" rx="27" ry="18"/>
<text text-anchor="middle" x="1889" y="-87.5" font-family="Helvetica,sans-Serif" font-size="10.00">++</text>
</g>
<!-- n39&#45;&gt;n41 -->
<g id="edge41" class="edge">
<title>n39&#45;&gt;n41</title>
<path fill="none" stroke="black" d="M1889,-143.7C1889,-136.41 1889,-127.73 1889,-119.54"/>
<polygon fill="black" stroke="black" points="1892.5,-119.62 1889,-109.62 1885.5,-119.62 1892.5,-119.62"/>
</g>
<!-- n42 -->
<g id="node43" class="node">
<title>n42</title>
<ellipse fill="#b2dfee" stroke="#b2dfee" cx="1961" cy="-90" rx="27" ry="18"/>
<text text-anchor="middle" x="1961" y="-87.5" font-family="Helvetica,sans-Serif" font-size="10.00">;</text>
</g>
<!-- n39&#45;&gt;n42 -->
<g id="edge42" class="edge">
<title>n39&#45;&gt;n42</title>
<path fill="none" stroke="black" d="M1904.62,-145.81C1914.51,-136.2 1927.46,-123.61 1938.45,-112.93"/>
<polygon fill="black" stroke="black" points="1940.57,-115.74 1945.3,-106.26 1935.69,-110.72 1940.57,-115.74"/>
</g>
</g>
</svg>
