<?xml version="1.0" encoding="UTF-8" standalone="no"?>
<!DOCTYPE svg PUBLIC "-//W3C//DTD SVG 1.1//EN"
 "http://www.w3.org/Graphics/SVG/1.1/DTD/svg11.dtd">
<!-- Generated by graphviz version 7.1.0 (20230121.1956)
 -->
<!-- Title: arbolAST Pages: 1 -->
<svg width="1940pt" height="332pt"
 viewBox="0.00 0.00 1940.00 332.00" xmlns="http://www.w3.org/2000/svg" xmlns:xlink="http://www.w3.org/1999/xlink">
<g id="graph0" class="graph" transform="scale(1 1) rotate(0) translate(4 328)">
<title>arbolAST</title>
<polygon fill="white" stroke="none" points="-4,4 -4,-328 1936,-328 1936,4 -4,4"/>
<!-- n0 -->
<g id="node1" class="node">
<title>n0</title>
<ellipse fill="#b2dfee" stroke="#b2dfee" cx="714" cy="-306" rx="27" ry="18"/>
<text text-anchor="middle" x="714" y="-303.5" font-family="Helvetica,sans-Serif" font-size="10.00">INICIO</text>
</g>
<!-- n1 -->
<g id="node2" class="node">
<title>n1</title>
<ellipse fill="#b2dfee" stroke="#b2dfee" cx="714" cy="-234" rx="55.85" ry="18"/>
<text text-anchor="middle" x="714" y="-231.5" font-family="Helvetica,sans-Serif" font-size="10.00">INSTRUCCIONES</text>
</g>
<!-- n0&#45;&gt;n1 -->
<g id="edge1" class="edge">
<title>n0&#45;&gt;n1</title>
<path fill="none" stroke="black" d="M714,-287.7C714,-280.41 714,-271.73 714,-263.54"/>
<polygon fill="black" stroke="black" points="717.5,-263.62 714,-253.62 710.5,-263.62 717.5,-263.62"/>
</g>
<!-- n2 -->
<g id="node3" class="node">
<title>n2</title>
<ellipse fill="#b2dfee" stroke="#b2dfee" cx="279" cy="-162" rx="85.89" ry="18"/>
<text text-anchor="middle" x="279" y="-159.5" font-family="Helvetica,sans-Serif" font-size="10.00">DECLARACION_VARIABLES</text>
</g>
<!-- n1&#45;&gt;n2 -->
<g id="edge2" class="edge">
<title>n1&#45;&gt;n2</title>
<path fill="none" stroke="black" d="M664.95,-225.11C589.94,-213.04 446.08,-189.89 356.75,-175.51"/>
<polygon fill="black" stroke="black" points="357.52,-172.09 347.09,-173.96 356.41,-179 357.52,-172.09"/>
</g>
<!-- n11 -->
<g id="node12" class="node">
<title>n11</title>
<ellipse fill="#b2dfee" stroke="#b2dfee" cx="1185" cy="-162" rx="70.78" ry="18"/>
<text text-anchor="middle" x="1185" y="-159.5" font-family="Helvetica,sans-Serif" font-size="10.00">Declaracion de Arreglos</text>
</g>
<!-- n1&#45;&gt;n11 -->
<g id="edge11" class="edge">
<title>n1&#45;&gt;n11</title>
<path fill="none" stroke="black" d="M763.96,-225.58C847.79,-213.12 1017.06,-187.96 1113.49,-173.63"/>
<polygon fill="black" stroke="black" points="1114,-177.09 1123.38,-172.16 1112.97,-170.17 1114,-177.09"/>
</g>
<!-- n3 -->
<g id="node4" class="node">
<title>n3</title>
<ellipse fill="#b2dfee" stroke="#b2dfee" cx="27" cy="-90" rx="27" ry="18"/>
<text text-anchor="middle" x="27" y="-87.5" font-family="Helvetica,sans-Serif" font-size="10.00">var</text>
</g>
<!-- n2&#45;&gt;n3 -->
<g id="edge3" class="edge">
<title>n2&#45;&gt;n3</title>
<path fill="none" stroke="black" d="M217.05,-149.25C173.34,-140.13 113.76,-126.01 63,-108 61.45,-107.45 59.88,-106.86 58.31,-106.23"/>
<polygon fill="black" stroke="black" points="59.98,-103.14 49.41,-102.39 57.2,-109.57 59.98,-103.14"/>
</g>
<!-- n4 -->
<g id="node5" class="node">
<title>n4</title>
<ellipse fill="#b2dfee" stroke="#b2dfee" cx="99" cy="-90" rx="27" ry="18"/>
<text text-anchor="middle" x="99" y="-87.5" font-family="Helvetica,sans-Serif" font-size="10.00">var1</text>
</g>
<!-- n2&#45;&gt;n4 -->
<g id="edge4" class="edge">
<title>n2&#45;&gt;n4</title>
<path fill="none" stroke="black" d="M235.45,-146.1C206.68,-135.98 168.29,-121.95 135,-108 133.49,-107.37 131.94,-106.7 130.39,-106.02"/>
<polygon fill="black" stroke="black" points="132.11,-102.96 121.56,-102.01 129.21,-109.33 132.11,-102.96"/>
</g>
<!-- n5 -->
<g id="node6" class="node">
<title>n5</title>
<ellipse fill="#b2dfee" stroke="#b2dfee" cx="171" cy="-90" rx="27" ry="18"/>
<text text-anchor="middle" x="171" y="-87.5" font-family="Helvetica,sans-Serif" font-size="10.00">:</text>
</g>
<!-- n2&#45;&gt;n5 -->
<g id="edge5" class="edge">
<title>n2&#45;&gt;n5</title>
<path fill="none" stroke="black" d="M253.41,-144.41C237.14,-133.87 216.06,-120.21 199.29,-109.34"/>
<polygon fill="black" stroke="black" points="201.56,-106.63 191.26,-104.13 197.75,-112.51 201.56,-106.63"/>
</g>
<!-- n6 -->
<g id="node7" class="node">
<title>n6</title>
<ellipse fill="#b2dfee" stroke="#b2dfee" cx="243" cy="-90" rx="27" ry="18"/>
<text text-anchor="middle" x="243" y="-87.5" font-family="Helvetica,sans-Serif" font-size="10.00">INT</text>
</g>
<!-- n2&#45;&gt;n6 -->
<g id="edge6" class="edge">
<title>n2&#45;&gt;n6</title>
<path fill="none" stroke="black" d="M270.1,-143.7C266.02,-135.75 261.08,-126.16 256.55,-117.34"/>
<polygon fill="black" stroke="black" points="259.68,-115.78 252,-108.49 253.46,-118.98 259.68,-115.78"/>
</g>
<!-- n7 -->
<g id="node8" class="node">
<title>n7</title>
<ellipse fill="#b2dfee" stroke="#b2dfee" cx="315" cy="-90" rx="27" ry="18"/>
<text text-anchor="middle" x="315" y="-87.5" font-family="Helvetica,sans-Serif" font-size="10.00">=</text>
</g>
<!-- n2&#45;&gt;n7 -->
<g id="edge7" class="edge">
<title>n2&#45;&gt;n7</title>
<path fill="none" stroke="black" d="M287.9,-143.7C291.98,-135.75 296.92,-126.16 301.45,-117.34"/>
<polygon fill="black" stroke="black" points="304.54,-118.98 306,-108.49 298.32,-115.78 304.54,-118.98"/>
</g>
<!-- n8 -->
<g id="node9" class="node">
<title>n8</title>
<ellipse fill="#b2dfee" stroke="#b2dfee" cx="387" cy="-90" rx="27" ry="18"/>
<text text-anchor="middle" x="387" y="-87.5" font-family="Helvetica,sans-Serif" font-size="10.00">INT</text>
</g>
<!-- n2&#45;&gt;n8 -->
<g id="edge8" class="edge">
<title>n2&#45;&gt;n8</title>
<path fill="none" stroke="black" d="M304.59,-144.41C320.86,-133.87 341.94,-120.21 358.71,-109.34"/>
<polygon fill="black" stroke="black" points="360.25,-112.51 366.74,-104.13 356.44,-106.63 360.25,-112.51"/>
</g>
<!-- n10 -->
<g id="node11" class="node">
<title>n10</title>
<ellipse fill="#b2dfee" stroke="#b2dfee" cx="459" cy="-90" rx="27" ry="18"/>
<text text-anchor="middle" x="459" y="-87.5" font-family="Helvetica,sans-Serif" font-size="10.00">;</text>
</g>
<!-- n2&#45;&gt;n10 -->
<g id="edge10" class="edge">
<title>n2&#45;&gt;n10</title>
<path fill="none" stroke="black" d="M322.55,-146.1C351.32,-135.98 389.71,-121.95 423,-108 424.51,-107.37 426.06,-106.7 427.61,-106.02"/>
<polygon fill="black" stroke="black" points="428.79,-109.33 436.44,-102.01 425.89,-102.96 428.79,-109.33"/>
</g>
<!-- n9 -->
<g id="node10" class="node">
<title>n9</title>
<ellipse fill="#b2dfee" stroke="#b2dfee" cx="387" cy="-18" rx="27" ry="18"/>
<text text-anchor="middle" x="387" y="-15.5" font-family="Helvetica,sans-Serif" font-size="10.00">0</text>
</g>
<!-- n8&#45;&gt;n9 -->
<g id="edge9" class="edge">
<title>n8&#45;&gt;n9</title>
<path fill="none" stroke="black" d="M387,-71.7C387,-64.41 387,-55.73 387,-47.54"/>
<polygon fill="black" stroke="black" points="390.5,-47.62 387,-37.62 383.5,-47.62 390.5,-47.62"/>
</g>
<!-- n12 -->
<g id="node13" class="node">
<title>n12</title>
<ellipse fill="#b2dfee" stroke="#b2dfee" cx="534" cy="-90" rx="30.04" ry="18"/>
<text text-anchor="middle" x="534" y="-87.5" font-family="Helvetica,sans-Serif" font-size="10.00">arreglo2</text>
</g>
<!-- n11&#45;&gt;n12 -->
<g id="edge12" class="edge">
<title>n11&#45;&gt;n12</title>
<path fill="none" stroke="black" d="M1115.81,-157.83C978.06,-151.06 674.1,-133.68 573,-108 571.13,-107.52 569.24,-106.97 567.34,-106.36"/>
<polygon fill="black" stroke="black" points="568.67,-103.12 558.08,-102.88 566.21,-109.67 568.67,-103.12"/>
</g>
<!-- n13 -->
<g id="node14" class="node">
<title>n13</title>
<ellipse fill="#b2dfee" stroke="#b2dfee" cx="609" cy="-90" rx="27" ry="18"/>
<text text-anchor="middle" x="609" y="-87.5" font-family="Helvetica,sans-Serif" font-size="10.00">:</text>
</g>
<!-- n11&#45;&gt;n13 -->
<g id="edge13" class="edge">
<title>n11&#45;&gt;n13</title>
<path fill="none" stroke="black" d="M1114.13,-161.7C1009.57,-161.03 808.67,-153.21 645,-108 643.38,-107.55 641.73,-107.03 640.09,-106.47"/>
<polygon fill="black" stroke="black" points="641.46,-103.24 630.88,-102.72 638.82,-109.73 641.46,-103.24"/>
</g>
<!-- n14 -->
<g id="node15" class="node">
<title>n14</title>
<ellipse fill="#b2dfee" stroke="#b2dfee" cx="681" cy="-90" rx="27" ry="18"/>
<text text-anchor="middle" x="681" y="-87.5" font-family="Helvetica,sans-Serif" font-size="10.00">INT</text>
</g>
<!-- n11&#45;&gt;n14 -->
<g id="edge14" class="edge">
<title>n11&#45;&gt;n14</title>
<path fill="none" stroke="black" d="M1114.23,-160.16C1021.36,-157.44 854.05,-146.96 717,-108 715.38,-107.54 713.74,-107.01 712.1,-106.44"/>
<polygon fill="black" stroke="black" points="713.47,-103.21 702.89,-102.66 710.82,-109.69 713.47,-103.21"/>
</g>
<!-- n15 -->
<g id="node16" class="node">
<title>n15</title>
<ellipse fill="#b2dfee" stroke="#b2dfee" cx="753" cy="-90" rx="27" ry="18"/>
<text text-anchor="middle" x="753" y="-87.5" font-family="Helvetica,sans-Serif" font-size="10.00">=</text>
</g>
<!-- n11&#45;&gt;n15 -->
<g id="edge15" class="edge">
<title>n11&#45;&gt;n15</title>
<path fill="none" stroke="black" d="M1115.33,-158.15C1035.17,-153.4 900.26,-140.85 789,-108 787.38,-107.52 785.75,-106.98 784.11,-106.4"/>
<polygon fill="black" stroke="black" points="785.49,-103.18 774.91,-102.59 782.81,-109.65 785.49,-103.18"/>
</g>
<!-- n16 -->
<g id="node17" class="node">
<title>n16</title>
<ellipse fill="#b2dfee" stroke="#b2dfee" cx="825" cy="-90" rx="27" ry="18"/>
<text text-anchor="middle" x="825" y="-87.5" font-family="Helvetica,sans-Serif" font-size="10.00">[</text>
</g>
<!-- n11&#45;&gt;n16 -->
<g id="edge16" class="edge">
<title>n11&#45;&gt;n16</title>
<path fill="none" stroke="black" d="M1118.28,-155.57C1051.89,-148.89 947.67,-134.97 861,-108 859.39,-107.5 857.76,-106.94 856.13,-106.34"/>
<polygon fill="black" stroke="black" points="857.52,-103.12 846.94,-102.49 854.81,-109.58 857.52,-103.12"/>
</g>
<!-- n17 -->
<g id="node18" class="node">
<title>n17</title>
<ellipse fill="#b2dfee" stroke="#b2dfee" cx="897" cy="-90" rx="27" ry="18"/>
<text text-anchor="middle" x="897" y="-87.5" font-family="Helvetica,sans-Serif" font-size="10.00">INT</text>
</g>
<!-- n11&#45;&gt;n17 -->
<g id="edge17" class="edge">
<title>n11&#45;&gt;n17</title>
<path fill="none" stroke="black" d="M1124.38,-152.34C1072.66,-143.99 996.78,-129.44 933,-108 931.44,-107.48 929.87,-106.9 928.29,-106.3"/>
<polygon fill="black" stroke="black" points="929.95,-103.2 919.37,-102.51 927.2,-109.64 929.95,-103.2"/>
</g>
<!-- n19 -->
<g id="node20" class="node">
<title>n19</title>
<ellipse fill="#b2dfee" stroke="#b2dfee" cx="969" cy="-90" rx="27" ry="18"/>
<text text-anchor="middle" x="969" y="-87.5" font-family="Helvetica,sans-Serif" font-size="10.00">INT</text>
</g>
<!-- n11&#45;&gt;n19 -->
<g id="edge19" class="edge">
<title>n11&#45;&gt;n19</title>
<path fill="none" stroke="black" d="M1135.81,-148.72C1099.24,-139.07 1048.38,-124.52 1005,-108 1003.47,-107.42 1001.91,-106.79 1000.34,-106.15"/>
<polygon fill="black" stroke="black" points="1002.03,-103.07 991.47,-102.23 999.21,-109.47 1002.03,-103.07"/>
</g>
<!-- n21 -->
<g id="node22" class="node">
<title>n21</title>
<ellipse fill="#b2dfee" stroke="#b2dfee" cx="1041" cy="-90" rx="27" ry="18"/>
<text text-anchor="middle" x="1041" y="-87.5" font-family="Helvetica,sans-Serif" font-size="10.00">INT</text>
</g>
<!-- n11&#45;&gt;n21 -->
<g id="edge21" class="edge">
<title>n11&#45;&gt;n21</title>
<path fill="none" stroke="black" d="M1153.04,-145.46C1129.04,-133.8 1096.34,-117.9 1072.46,-106.29"/>
<polygon fill="black" stroke="black" points="1074.06,-103.18 1063.54,-101.96 1071,-109.47 1074.06,-103.18"/>
</g>
<!-- n23 -->
<g id="node24" class="node">
<title>n23</title>
<ellipse fill="#b2dfee" stroke="#b2dfee" cx="1113" cy="-90" rx="27" ry="18"/>
<text text-anchor="middle" x="1113" y="-87.5" font-family="Helvetica,sans-Serif" font-size="10.00">INT</text>
</g>
<!-- n11&#45;&gt;n23 -->
<g id="edge23" class="edge">
<title>n11&#45;&gt;n23</title>
<path fill="none" stroke="black" d="M1167.94,-144.41C1158.32,-135.06 1146.18,-123.26 1135.77,-113.13"/>
<polygon fill="black" stroke="black" points="1138.21,-110.62 1128.6,-106.16 1133.33,-115.64 1138.21,-110.62"/>
</g>
<!-- n25 -->
<g id="node26" class="node">
<title>n25</title>
<ellipse fill="#b2dfee" stroke="#b2dfee" cx="1185" cy="-90" rx="27" ry="18"/>
<text text-anchor="middle" x="1185" y="-87.5" font-family="Helvetica,sans-Serif" font-size="10.00">INT</text>
</g>
<!-- n11&#45;&gt;n25 -->
<g id="edge25" class="edge">
<title>n11&#45;&gt;n25</title>
<path fill="none" stroke="black" d="M1185,-143.7C1185,-136.41 1185,-127.73 1185,-119.54"/>
<polygon fill="black" stroke="black" points="1188.5,-119.62 1185,-109.62 1181.5,-119.62 1188.5,-119.62"/>
</g>
<!-- n27 -->
<g id="node28" class="node">
<title>n27</title>
<ellipse fill="#b2dfee" stroke="#b2dfee" cx="1257" cy="-90" rx="27" ry="18"/>
<text text-anchor="middle" x="1257" y="-87.5" font-family="Helvetica,sans-Serif" font-size="10.00">INT</text>
</g>
<!-- n11&#45;&gt;n27 -->
<g id="edge27" class="edge">
<title>n11&#45;&gt;n27</title>
<path fill="none" stroke="black" d="M1202.06,-144.41C1211.68,-135.06 1223.82,-123.26 1234.23,-113.13"/>
<polygon fill="black" stroke="black" points="1236.67,-115.64 1241.4,-106.16 1231.79,-110.62 1236.67,-115.64"/>
</g>
<!-- n29 -->
<g id="node30" class="node">
<title>n29</title>
<ellipse fill="#b2dfee" stroke="#b2dfee" cx="1329" cy="-90" rx="27" ry="18"/>
<text text-anchor="middle" x="1329" y="-87.5" font-family="Helvetica,sans-Serif" font-size="10.00">INT</text>
</g>
<!-- n11&#45;&gt;n29 -->
<g id="edge29" class="edge">
<title>n11&#45;&gt;n29</title>
<path fill="none" stroke="black" d="M1216.96,-145.46C1240.96,-133.8 1273.66,-117.9 1297.54,-106.29"/>
<polygon fill="black" stroke="black" points="1299,-109.47 1306.46,-101.96 1295.94,-103.18 1299,-109.47"/>
</g>
<!-- n31 -->
<g id="node32" class="node">
<title>n31</title>
<ellipse fill="#b2dfee" stroke="#b2dfee" cx="1401" cy="-90" rx="27" ry="18"/>
<text text-anchor="middle" x="1401" y="-87.5" font-family="Helvetica,sans-Serif" font-size="10.00">INT</text>
</g>
<!-- n11&#45;&gt;n31 -->
<g id="edge31" class="edge">
<title>n11&#45;&gt;n31</title>
<path fill="none" stroke="black" d="M1234.19,-148.72C1270.76,-139.07 1321.62,-124.52 1365,-108 1366.53,-107.42 1368.09,-106.79 1369.66,-106.15"/>
<polygon fill="black" stroke="black" points="1370.79,-109.47 1378.53,-102.23 1367.97,-103.07 1370.79,-109.47"/>
</g>
<!-- n33 -->
<g id="node34" class="node">
<title>n33</title>
<ellipse fill="#b2dfee" stroke="#b2dfee" cx="1473" cy="-90" rx="27" ry="18"/>
<text text-anchor="middle" x="1473" y="-87.5" font-family="Helvetica,sans-Serif" font-size="10.00">INT</text>
</g>
<!-- n11&#45;&gt;n33 -->
<g id="edge33" class="edge">
<title>n11&#45;&gt;n33</title>
<path fill="none" stroke="black" d="M1245.62,-152.34C1297.34,-143.99 1373.22,-129.44 1437,-108 1438.56,-107.48 1440.13,-106.9 1441.71,-106.3"/>
<polygon fill="black" stroke="black" points="1442.8,-109.64 1450.63,-102.51 1440.05,-103.2 1442.8,-109.64"/>
</g>
<!-- n35 -->
<g id="node36" class="node">
<title>n35</title>
<ellipse fill="#b2dfee" stroke="#b2dfee" cx="1545" cy="-90" rx="27" ry="18"/>
<text text-anchor="middle" x="1545" y="-87.5" font-family="Helvetica,sans-Serif" font-size="10.00">INT</text>
</g>
<!-- n11&#45;&gt;n35 -->
<g id="edge35" class="edge">
<title>n11&#45;&gt;n35</title>
<path fill="none" stroke="black" d="M1251.72,-155.57C1318.11,-148.89 1422.33,-134.97 1509,-108 1510.61,-107.5 1512.24,-106.94 1513.87,-106.34"/>
<polygon fill="black" stroke="black" points="1515.19,-109.58 1523.06,-102.49 1512.48,-103.12 1515.19,-109.58"/>
</g>
<!-- n37 -->
<g id="node38" class="node">
<title>n37</title>
<ellipse fill="#b2dfee" stroke="#b2dfee" cx="1617" cy="-90" rx="27" ry="18"/>
<text text-anchor="middle" x="1617" y="-87.5" font-family="Helvetica,sans-Serif" font-size="10.00">INT</text>
</g>
<!-- n11&#45;&gt;n37 -->
<g id="edge37" class="edge">
<title>n11&#45;&gt;n37</title>
<path fill="none" stroke="black" d="M1254.67,-158.15C1334.83,-153.4 1469.74,-140.85 1581,-108 1582.62,-107.52 1584.25,-106.98 1585.89,-106.4"/>
<polygon fill="black" stroke="black" points="1587.19,-109.65 1595.09,-102.59 1584.51,-103.18 1587.19,-109.65"/>
</g>
<!-- n39 -->
<g id="node40" class="node">
<title>n39</title>
<ellipse fill="#b2dfee" stroke="#b2dfee" cx="1689" cy="-90" rx="27" ry="18"/>
<text text-anchor="middle" x="1689" y="-87.5" font-family="Helvetica,sans-Serif" font-size="10.00">INT</text>
</g>
<!-- n11&#45;&gt;n39 -->
<g id="edge39" class="edge">
<title>n11&#45;&gt;n39</title>
<path fill="none" stroke="black" d="M1255.77,-160.16C1348.64,-157.44 1515.95,-146.96 1653,-108 1654.62,-107.54 1656.26,-107.01 1657.9,-106.44"/>
<polygon fill="black" stroke="black" points="1659.18,-109.69 1667.11,-102.66 1656.53,-103.21 1659.18,-109.69"/>
</g>
<!-- n41 -->
<g id="node42" class="node">
<title>n41</title>
<ellipse fill="#b2dfee" stroke="#b2dfee" cx="1761" cy="-90" rx="27" ry="18"/>
<text text-anchor="middle" x="1761" y="-87.5" font-family="Helvetica,sans-Serif" font-size="10.00">INT</text>
</g>
<!-- n11&#45;&gt;n41 -->
<g id="edge41" class="edge">
<title>n11&#45;&gt;n41</title>
<path fill="none" stroke="black" d="M1255.87,-161.7C1360.43,-161.03 1561.33,-153.21 1725,-108 1726.62,-107.55 1728.27,-107.03 1729.91,-106.47"/>
<polygon fill="black" stroke="black" points="1731.18,-109.73 1739.12,-102.72 1728.54,-103.24 1731.18,-109.73"/>
</g>
<!-- n43 -->
<g id="node44" class="node">
<title>n43</title>
<ellipse fill="#b2dfee" stroke="#b2dfee" cx="1833" cy="-90" rx="27" ry="18"/>
<text text-anchor="middle" x="1833" y="-87.5" font-family="Helvetica,sans-Serif" font-size="10.00">]</text>
</g>
<!-- n11&#45;&gt;n43 -->
<g id="edge43" class="edge">
<title>n11&#45;&gt;n43</title>
<path fill="none" stroke="black" d="M1254.52,-158.07C1392.52,-151.76 1696.36,-135.18 1797,-108 1798.63,-107.56 1800.27,-107.05 1801.91,-106.49"/>
<polygon fill="black" stroke="black" points="1803.18,-109.75 1811.14,-102.76 1800.55,-103.26 1803.18,-109.75"/>
</g>
<!-- n44 -->
<g id="node45" class="node">
<title>n44</title>
<ellipse fill="#b2dfee" stroke="#b2dfee" cx="1905" cy="-90" rx="27" ry="18"/>
<text text-anchor="middle" x="1905" y="-87.5" font-family="Helvetica,sans-Serif" font-size="10.00">;</text>
</g>
<!-- n11&#45;&gt;n44 -->
<g id="edge44" class="edge">
<title>n11&#45;&gt;n44</title>
<path fill="none" stroke="black" d="M1255.16,-158.79C1405.55,-153.52 1754.59,-138.34 1869,-108 1870.63,-107.57 1872.27,-107.06 1873.92,-106.51"/>
<polygon fill="black" stroke="black" points="1875.18,-109.77 1883.14,-102.79 1872.56,-103.28 1875.18,-109.77"/>
</g>
<!-- n18 -->
<g id="node19" class="node">
<title>n18</title>
<ellipse fill="#b2dfee" stroke="#b2dfee" cx="897" cy="-18" rx="27" ry="18"/>
<text text-anchor="middle" x="897" y="-15.5" font-family="Helvetica,sans-Serif" font-size="10.00">0</text>
</g>
<!-- n17&#45;&gt;n18 -->
<g id="edge18" class="edge">
<title>n17&#45;&gt;n18</title>
<path fill="none" stroke="black" d="M897,-71.7C897,-64.41 897,-55.73 897,-47.54"/>
<polygon fill="black" stroke="black" points="900.5,-47.62 897,-37.62 893.5,-47.62 900.5,-47.62"/>
</g>
<!-- n20 -->
<g id="node21" class="node">
<title>n20</title>
<ellipse fill="#b2dfee" stroke="#b2dfee" cx="969" cy="-18" rx="27" ry="18"/>
<text text-anchor="middle" x="969" y="-15.5" font-family="Helvetica,sans-Serif" font-size="10.00">0</text>
</g>
<!-- n19&#45;&gt;n20 -->
<g id="edge20" class="edge">
<title>n19&#45;&gt;n20</title>
<path fill="none" stroke="black" d="M969,-71.7C969,-64.41 969,-55.73 969,-47.54"/>
<polygon fill="black" stroke="black" points="972.5,-47.62 969,-37.62 965.5,-47.62 972.5,-47.62"/>
</g>
<!-- n22 -->
<g id="node23" class="node">
<title>n22</title>
<ellipse fill="#b2dfee" stroke="#b2dfee" cx="1041" cy="-18" rx="27" ry="18"/>
<text text-anchor="middle" x="1041" y="-15.5" font-family="Helvetica,sans-Serif" font-size="10.00">1</text>
</g>
<!-- n21&#45;&gt;n22 -->
<g id="edge22" class="edge">
<title>n21&#45;&gt;n22</title>
<path fill="none" stroke="black" d="M1041,-71.7C1041,-64.41 1041,-55.73 1041,-47.54"/>
<polygon fill="black" stroke="black" points="1044.5,-47.62 1041,-37.62 1037.5,-47.62 1044.5,-47.62"/>
</g>
<!-- n24 -->
<g id="node25" class="node">
<title>n24</title>
<ellipse fill="#b2dfee" stroke="#b2dfee" cx="1113" cy="-18" rx="27" ry="18"/>
<text text-anchor="middle" x="1113" y="-15.5" font-family="Helvetica,sans-Serif" font-size="10.00">2</text>
</g>
<!-- n23&#45;&gt;n24 -->
<g id="edge24" class="edge">
<title>n23&#45;&gt;n24</title>
<path fill="none" stroke="black" d="M1113,-71.7C1113,-64.41 1113,-55.73 1113,-47.54"/>
<polygon fill="black" stroke="black" points="1116.5,-47.62 1113,-37.62 1109.5,-47.62 1116.5,-47.62"/>
</g>
<!-- n26 -->
<g id="node27" class="node">
<title>n26</title>
<ellipse fill="#b2dfee" stroke="#b2dfee" cx="1185" cy="-18" rx="27" ry="18"/>
<text text-anchor="middle" x="1185" y="-15.5" font-family="Helvetica,sans-Serif" font-size="10.00">0</text>
</g>
<!-- n25&#45;&gt;n26 -->
<g id="edge26" class="edge">
<title>n25&#45;&gt;n26</title>
<path fill="none" stroke="black" d="M1185,-71.7C1185,-64.41 1185,-55.73 1185,-47.54"/>
<polygon fill="black" stroke="black" points="1188.5,-47.62 1185,-37.62 1181.5,-47.62 1188.5,-47.62"/>
</g>
<!-- n28 -->
<g id="node29" class="node">
<title>n28</title>
<ellipse fill="#b2dfee" stroke="#b2dfee" cx="1257" cy="-18" rx="27" ry="18"/>
<text text-anchor="middle" x="1257" y="-15.5" font-family="Helvetica,sans-Serif" font-size="10.00">0</text>
</g>
<!-- n27&#45;&gt;n28 -->
<g id="edge28" class="edge">
<title>n27&#45;&gt;n28</title>
<path fill="none" stroke="black" d="M1257,-71.7C1257,-64.41 1257,-55.73 1257,-47.54"/>
<polygon fill="black" stroke="black" points="1260.5,-47.62 1257,-37.62 1253.5,-47.62 1260.5,-47.62"/>
</g>
<!-- n30 -->
<g id="node31" class="node">
<title>n30</title>
<ellipse fill="#b2dfee" stroke="#b2dfee" cx="1329" cy="-18" rx="27" ry="18"/>
<text text-anchor="middle" x="1329" y="-15.5" font-family="Helvetica,sans-Serif" font-size="10.00">5</text>
</g>
<!-- n29&#45;&gt;n30 -->
<g id="edge30" class="edge">
<title>n29&#45;&gt;n30</title>
<path fill="none" stroke="black" d="M1329,-71.7C1329,-64.41 1329,-55.73 1329,-47.54"/>
<polygon fill="black" stroke="black" points="1332.5,-47.62 1329,-37.62 1325.5,-47.62 1332.5,-47.62"/>
</g>
<!-- n32 -->
<g id="node33" class="node">
<title>n32</title>
<ellipse fill="#b2dfee" stroke="#b2dfee" cx="1401" cy="-18" rx="27" ry="18"/>
<text text-anchor="middle" x="1401" y="-15.5" font-family="Helvetica,sans-Serif" font-size="10.00">1</text>
</g>
<!-- n31&#45;&gt;n32 -->
<g id="edge32" class="edge">
<title>n31&#45;&gt;n32</title>
<path fill="none" stroke="black" d="M1401,-71.7C1401,-64.41 1401,-55.73 1401,-47.54"/>
<polygon fill="black" stroke="black" points="1404.5,-47.62 1401,-37.62 1397.5,-47.62 1404.5,-47.62"/>
</g>
<!-- n34 -->
<g id="node35" class="node">
<title>n34</title>
<ellipse fill="#b2dfee" stroke="#b2dfee" cx="1473" cy="-18" rx="27" ry="18"/>
<text text-anchor="middle" x="1473" y="-15.5" font-family="Helvetica,sans-Serif" font-size="10.00">0</text>
</g>
<!-- n33&#45;&gt;n34 -->
<g id="edge34" class="edge">
<title>n33&#45;&gt;n34</title>
<path fill="none" stroke="black" d="M1473,-71.7C1473,-64.41 1473,-55.73 1473,-47.54"/>
<polygon fill="black" stroke="black" points="1476.5,-47.62 1473,-37.62 1469.5,-47.62 1476.5,-47.62"/>
</g>
<!-- n36 -->
<g id="node37" class="node">
<title>n36</title>
<ellipse fill="#b2dfee" stroke="#b2dfee" cx="1545" cy="-18" rx="27" ry="18"/>
<text text-anchor="middle" x="1545" y="-15.5" font-family="Helvetica,sans-Serif" font-size="10.00">0</text>
</g>
<!-- n35&#45;&gt;n36 -->
<g id="edge36" class="edge">
<title>n35&#45;&gt;n36</title>
<path fill="none" stroke="black" d="M1545,-71.7C1545,-64.41 1545,-55.73 1545,-47.54"/>
<polygon fill="black" stroke="black" points="1548.5,-47.62 1545,-37.62 1541.5,-47.62 1548.5,-47.62"/>
</g>
<!-- n38 -->
<g id="node39" class="node">
<title>n38</title>
<ellipse fill="#b2dfee" stroke="#b2dfee" cx="1617" cy="-18" rx="27" ry="18"/>
<text text-anchor="middle" x="1617" y="-15.5" font-family="Helvetica,sans-Serif" font-size="10.00">8</text>
</g>
<!-- n37&#45;&gt;n38 -->
<g id="edge38" class="edge">
<title>n37&#45;&gt;n38</title>
<path fill="none" stroke="black" d="M1617,-71.7C1617,-64.41 1617,-55.73 1617,-47.54"/>
<polygon fill="black" stroke="black" points="1620.5,-47.62 1617,-37.62 1613.5,-47.62 1620.5,-47.62"/>
</g>
<!-- n40 -->
<g id="node41" class="node">
<title>n40</title>
<ellipse fill="#b2dfee" stroke="#b2dfee" cx="1689" cy="-18" rx="27" ry="18"/>
<text text-anchor="middle" x="1689" y="-15.5" font-family="Helvetica,sans-Serif" font-size="10.00">0</text>
</g>
<!-- n39&#45;&gt;n40 -->
<g id="edge40" class="edge">
<title>n39&#45;&gt;n40</title>
<path fill="none" stroke="black" d="M1689,-71.7C1689,-64.41 1689,-55.73 1689,-47.54"/>
<polygon fill="black" stroke="black" points="1692.5,-47.62 1689,-37.62 1685.5,-47.62 1692.5,-47.62"/>
</g>
<!-- n42 -->
<g id="node43" class="node">
<title>n42</title>
<ellipse fill="#b2dfee" stroke="#b2dfee" cx="1761" cy="-18" rx="27" ry="18"/>
<text text-anchor="middle" x="1761" y="-15.5" font-family="Helvetica,sans-Serif" font-size="10.00">0</text>
</g>
<!-- n41&#45;&gt;n42 -->
<g id="edge42" class="edge">
<title>n41&#45;&gt;n42</title>
<path fill="none" stroke="black" d="M1761,-71.7C1761,-64.41 1761,-55.73 1761,-47.54"/>
<polygon fill="black" stroke="black" points="1764.5,-47.62 1761,-37.62 1757.5,-47.62 1764.5,-47.62"/>
</g>
</g>
</svg>
