<?xml version="1.0" encoding="UTF-8" standalone="no"?>
<!DOCTYPE svg PUBLIC "-//W3C//DTD SVG 1.1//EN"
 "http://www.w3.org/Graphics/SVG/1.1/DTD/svg11.dtd">
<!-- Generated by graphviz version 7.1.0 (20230121.1956)
 -->
<!-- Title: arbolAST Pages: 1 -->
<svg width="978pt" height="332pt"
 viewBox="0.00 0.00 978.00 332.00" xmlns="http://www.w3.org/2000/svg" xmlns:xlink="http://www.w3.org/1999/xlink">
<g id="graph0" class="graph" transform="scale(1 1) rotate(0) translate(4 328)">
<title>arbolAST</title>
<polygon fill="white" stroke="none" points="-4,4 -4,-328 974,-328 974,4 -4,4"/>
<!-- n0 -->
<g id="node1" class="node">
<title>n0</title>
<ellipse fill="#b2dfee" stroke="#b2dfee" cx="438" cy="-306" rx="27" ry="18"/>
<text text-anchor="middle" x="438" y="-303.5" font-family="Helvetica,sans-Serif" font-size="10.00">INICIO</text>
</g>
<!-- n1 -->
<g id="node2" class="node">
<title>n1</title>
<ellipse fill="#b2dfee" stroke="#b2dfee" cx="438" cy="-234" rx="55.85" ry="18"/>
<text text-anchor="middle" x="438" y="-231.5" font-family="Helvetica,sans-Serif" font-size="10.00">INSTRUCCIONES</text>
</g>
<!-- n0&#45;&gt;n1 -->
<g id="edge1" class="edge">
<title>n0&#45;&gt;n1</title>
<path fill="none" stroke="black" d="M438,-287.7C438,-280.41 438,-271.73 438,-263.54"/>
<polygon fill="black" stroke="black" points="441.5,-263.62 438,-253.62 434.5,-263.62 441.5,-263.62"/>
</g>
<!-- n2 -->
<g id="node3" class="node">
<title>n2</title>
<ellipse fill="#b2dfee" stroke="#b2dfee" cx="288" cy="-162" rx="85.89" ry="18"/>
<text text-anchor="middle" x="288" y="-159.5" font-family="Helvetica,sans-Serif" font-size="10.00">DECLARACION_VARIABLES</text>
</g>
<!-- n1&#45;&gt;n2 -->
<g id="edge2" class="edge">
<title>n1&#45;&gt;n2</title>
<path fill="none" stroke="black" d="M407.28,-218.67C385.71,-208.6 356.51,-194.97 332.4,-183.72"/>
<polygon fill="black" stroke="black" points="333.99,-180.6 323.45,-179.54 331.03,-186.94 333.99,-180.6"/>
</g>
<!-- n11 -->
<g id="node12" class="node">
<title>n11</title>
<ellipse fill="#b2dfee" stroke="#b2dfee" cx="688" cy="-162" rx="32.93" ry="18"/>
<text text-anchor="middle" x="688" y="-159.5" font-family="Helvetica,sans-Serif" font-size="10.00">PRINTLN</text>
</g>
<!-- n1&#45;&gt;n11 -->
<g id="edge11" class="edge">
<title>n1&#45;&gt;n11</title>
<path fill="none" stroke="black" d="M479.28,-221.44C526.08,-208.34 601.84,-187.13 648.07,-174.18"/>
<polygon fill="black" stroke="black" points="649,-177.55 657.69,-171.49 647.12,-170.81 649,-177.55"/>
</g>
<!-- n3 -->
<g id="node4" class="node">
<title>n3</title>
<ellipse fill="#b2dfee" stroke="#b2dfee" cx="27" cy="-90" rx="27" ry="18"/>
<text text-anchor="middle" x="27" y="-87.5" font-family="Helvetica,sans-Serif" font-size="10.00">var</text>
</g>
<!-- n2&#45;&gt;n3 -->
<g id="edge3" class="edge">
<title>n2&#45;&gt;n3</title>
<path fill="none" stroke="black" d="M223.94,-149.63C178.36,-140.65 116.04,-126.54 63,-108 61.45,-107.46 59.88,-106.87 58.3,-106.25"/>
<polygon fill="black" stroke="black" points="59.97,-103.16 49.4,-102.42 57.2,-109.59 59.97,-103.16"/>
</g>
<!-- n4 -->
<g id="node5" class="node">
<title>n4</title>
<ellipse fill="#b2dfee" stroke="#b2dfee" cx="99" cy="-90" rx="27" ry="18"/>
<text text-anchor="middle" x="99" y="-87.5" font-family="Helvetica,sans-Serif" font-size="10.00">edad</text>
</g>
<!-- n2&#45;&gt;n4 -->
<g id="edge4" class="edge">
<title>n2&#45;&gt;n4</title>
<path fill="none" stroke="black" d="M241.66,-146.39C211.07,-136.39 170.27,-122.39 135,-108 133.48,-107.38 131.93,-106.73 130.37,-106.06"/>
<polygon fill="black" stroke="black" points="132.09,-102.99 121.53,-102.07 129.21,-109.37 132.09,-102.99"/>
</g>
<!-- n5 -->
<g id="node6" class="node">
<title>n5</title>
<ellipse fill="#b2dfee" stroke="#b2dfee" cx="171" cy="-90" rx="27" ry="18"/>
<text text-anchor="middle" x="171" y="-87.5" font-family="Helvetica,sans-Serif" font-size="10.00">:</text>
</g>
<!-- n2&#45;&gt;n5 -->
<g id="edge5" class="edge">
<title>n2&#45;&gt;n5</title>
<path fill="none" stroke="black" d="M260.57,-144.59C242.45,-133.75 218.72,-119.55 200.24,-108.49"/>
<polygon fill="black" stroke="black" points="202.26,-105.62 191.88,-103.49 198.67,-111.63 202.26,-105.62"/>
</g>
<!-- n6 -->
<g id="node7" class="node">
<title>n6</title>
<ellipse fill="#b2dfee" stroke="#b2dfee" cx="249" cy="-90" rx="32.93" ry="18"/>
<text text-anchor="middle" x="249" y="-87.5" font-family="Helvetica,sans-Serif" font-size="10.00">DOUBLE</text>
</g>
<!-- n2&#45;&gt;n6 -->
<g id="edge6" class="edge">
<title>n2&#45;&gt;n6</title>
<path fill="none" stroke="black" d="M278.36,-143.7C273.95,-135.78 268.63,-126.23 263.73,-117.44"/>
<polygon fill="black" stroke="black" points="266.92,-115.98 259,-108.94 260.81,-119.38 266.92,-115.98"/>
</g>
<!-- n7 -->
<g id="node8" class="node">
<title>n7</title>
<ellipse fill="#b2dfee" stroke="#b2dfee" cx="327" cy="-90" rx="27" ry="18"/>
<text text-anchor="middle" x="327" y="-87.5" font-family="Helvetica,sans-Serif" font-size="10.00">=</text>
</g>
<!-- n2&#45;&gt;n7 -->
<g id="edge7" class="edge">
<title>n2&#45;&gt;n7</title>
<path fill="none" stroke="black" d="M297.64,-143.7C302.12,-135.67 307.53,-125.95 312.48,-117.05"/>
<polygon fill="black" stroke="black" points="315.46,-118.91 317.27,-108.47 309.34,-115.5 315.46,-118.91"/>
</g>
<!-- n8 -->
<g id="node9" class="node">
<title>n8</title>
<ellipse fill="#b2dfee" stroke="#b2dfee" cx="405" cy="-90" rx="32.93" ry="18"/>
<text text-anchor="middle" x="405" y="-87.5" font-family="Helvetica,sans-Serif" font-size="10.00">DOUBLE</text>
</g>
<!-- n2&#45;&gt;n8 -->
<g id="edge8" class="edge">
<title>n2&#45;&gt;n8</title>
<path fill="none" stroke="black" d="M315.43,-144.59C332.9,-134.14 355.58,-120.57 373.75,-109.7"/>
<polygon fill="black" stroke="black" points="375.5,-112.73 382.28,-104.59 371.9,-106.72 375.5,-112.73"/>
</g>
<!-- n10 -->
<g id="node11" class="node">
<title>n10</title>
<ellipse fill="#b2dfee" stroke="#b2dfee" cx="483" cy="-90" rx="27" ry="18"/>
<text text-anchor="middle" x="483" y="-87.5" font-family="Helvetica,sans-Serif" font-size="10.00">;</text>
</g>
<!-- n2&#45;&gt;n10 -->
<g id="edge10" class="edge">
<title>n2&#45;&gt;n10</title>
<path fill="none" stroke="black" d="M335.85,-146.69C367.69,-136.77 410.27,-122.73 447,-108 448.52,-107.39 450.07,-106.74 451.63,-106.08"/>
<polygon fill="black" stroke="black" points="452.79,-109.4 460.48,-102.11 449.93,-103.01 452.79,-109.4"/>
</g>
<!-- n9 -->
<g id="node10" class="node">
<title>n9</title>
<ellipse fill="#b2dfee" stroke="#b2dfee" cx="405" cy="-18" rx="27" ry="18"/>
<text text-anchor="middle" x="405" y="-15.5" font-family="Helvetica,sans-Serif" font-size="10.00">16.0</text>
</g>
<!-- n8&#45;&gt;n9 -->
<g id="edge9" class="edge">
<title>n8&#45;&gt;n9</title>
<path fill="none" stroke="black" d="M405,-71.7C405,-64.41 405,-55.73 405,-47.54"/>
<polygon fill="black" stroke="black" points="408.5,-47.62 405,-37.62 401.5,-47.62 408.5,-47.62"/>
</g>
<!-- n12 -->
<g id="node13" class="node">
<title>n12</title>
<ellipse fill="#b2dfee" stroke="#b2dfee" cx="555" cy="-90" rx="27" ry="18"/>
<text text-anchor="middle" x="555" y="-87.5" font-family="Helvetica,sans-Serif" font-size="10.00">Println</text>
</g>
<!-- n11&#45;&gt;n12 -->
<g id="edge12" class="edge">
<title>n11&#45;&gt;n12</title>
<path fill="none" stroke="black" d="M664.83,-148.81C642.92,-137.27 609.89,-119.89 585.77,-107.2"/>
<polygon fill="black" stroke="black" points="587.54,-104.17 577.06,-102.61 584.28,-110.36 587.54,-104.17"/>
</g>
<!-- n13 -->
<g id="node14" class="node">
<title>n13</title>
<ellipse fill="#b2dfee" stroke="#b2dfee" cx="627" cy="-90" rx="27" ry="18"/>
<text text-anchor="middle" x="627" y="-87.5" font-family="Helvetica,sans-Serif" font-size="10.00">(</text>
</g>
<!-- n11&#45;&gt;n13 -->
<g id="edge13" class="edge">
<title>n11&#45;&gt;n13</title>
<path fill="none" stroke="black" d="M674.46,-145.46C666.54,-136.37 656.37,-124.7 647.48,-114.5"/>
<polygon fill="black" stroke="black" points="650.28,-112.39 641.08,-107.15 645.01,-116.99 650.28,-112.39"/>
</g>
<!-- n14 -->
<g id="node15" class="node">
<title>n14</title>
<ellipse fill="#b2dfee" stroke="#b2dfee" cx="749" cy="-90" rx="77.23" ry="18"/>
<text text-anchor="middle" x="749" y="-87.5" font-family="Helvetica,sans-Serif" font-size="10.00">RECUPERAR_VARIABLE</text>
</g>
<!-- n11&#45;&gt;n14 -->
<g id="edge14" class="edge">
<title>n11&#45;&gt;n14</title>
<path fill="none" stroke="black" d="M701.54,-145.46C708.95,-136.95 718.33,-126.19 726.79,-116.48"/>
<polygon fill="black" stroke="black" points="729.29,-118.94 733.22,-109.1 724.02,-114.34 729.29,-118.94"/>
</g>
<!-- n16 -->
<g id="node17" class="node">
<title>n16</title>
<ellipse fill="#b2dfee" stroke="#b2dfee" cx="871" cy="-90" rx="27" ry="18"/>
<text text-anchor="middle" x="871" y="-87.5" font-family="Helvetica,sans-Serif" font-size="10.00">)</text>
</g>
<!-- n11&#45;&gt;n16 -->
<g id="edge16" class="edge">
<title>n11&#45;&gt;n16</title>
<path fill="none" stroke="black" d="M715.66,-151.9C745.44,-141.91 794.04,-125.01 835,-108 836.52,-107.37 838.06,-106.71 839.62,-106.03"/>
<polygon fill="black" stroke="black" points="840.79,-109.35 848.45,-102.03 837.9,-102.97 840.79,-109.35"/>
</g>
<!-- n17 -->
<g id="node18" class="node">
<title>n17</title>
<ellipse fill="#b2dfee" stroke="#b2dfee" cx="943" cy="-90" rx="27" ry="18"/>
<text text-anchor="middle" x="943" y="-87.5" font-family="Helvetica,sans-Serif" font-size="10.00">;</text>
</g>
<!-- n11&#45;&gt;n17 -->
<g id="edge17" class="edge">
<title>n11&#45;&gt;n17</title>
<path fill="none" stroke="black" d="M719.04,-155.56C762.01,-147.56 841.71,-131.05 907,-108 908.55,-107.45 910.12,-106.86 911.69,-106.24"/>
<polygon fill="black" stroke="black" points="912.8,-109.58 920.59,-102.4 910.02,-103.15 912.8,-109.58"/>
</g>
<!-- n15 -->
<g id="node16" class="node">
<title>n15</title>
<ellipse fill="#b2dfee" stroke="#b2dfee" cx="749" cy="-18" rx="27" ry="18"/>
<text text-anchor="middle" x="749" y="-15.5" font-family="Helvetica,sans-Serif" font-size="10.00">edad</text>
</g>
<!-- n14&#45;&gt;n15 -->
<g id="edge15" class="edge">
<title>n14&#45;&gt;n15</title>
<path fill="none" stroke="black" d="M749,-71.7C749,-64.41 749,-55.73 749,-47.54"/>
<polygon fill="black" stroke="black" points="752.5,-47.62 749,-37.62 745.5,-47.62 752.5,-47.62"/>
</g>
</g>
</svg>
