<?xml version="1.0" encoding="UTF-8" standalone="no"?>
<!DOCTYPE svg PUBLIC "-//W3C//DTD SVG 1.1//EN"
 "http://www.w3.org/Graphics/SVG/1.1/DTD/svg11.dtd">
<!-- Generated by graphviz version 7.1.0 (20230121.1956)
 -->
<!-- Title: arbolAST Pages: 1 -->
<svg width="120pt" height="188pt"
 viewBox="0.00 0.00 119.85 188.00" xmlns="http://www.w3.org/2000/svg" xmlns:xlink="http://www.w3.org/1999/xlink">
<g id="graph0" class="graph" transform="scale(1 1) rotate(0) translate(4 184)">
<title>arbolAST</title>
<polygon fill="white" stroke="none" points="-4,4 -4,-184 115.85,-184 115.85,4 -4,4"/>
<!-- n0 -->
<g id="node1" class="node">
<title>n0</title>
<ellipse fill="#b2dfee" stroke="#b2dfee" cx="55.92" cy="-162" rx="27" ry="18"/>
<text text-anchor="middle" x="55.92" y="-159.5" font-family="Helvetica,sans-Serif" font-size="10.00">INICIO</text>
</g>
<!-- n1 -->
<g id="node2" class="node">
<title>n1</title>
<ellipse fill="#b2dfee" stroke="#b2dfee" cx="55.92" cy="-90" rx="55.85" ry="18"/>
<text text-anchor="middle" x="55.92" y="-87.5" font-family="Helvetica,sans-Serif" font-size="10.00">INSTRUCCIONES</text>
</g>
<!-- n0&#45;&gt;n1 -->
<g id="edge1" class="edge">
<title>n0&#45;&gt;n1</title>
<path fill="none" stroke="black" d="M55.92,-143.7C55.92,-136.41 55.92,-127.73 55.92,-119.54"/>
<polygon fill="black" stroke="black" points="59.42,-119.62 55.92,-109.62 52.42,-119.62 59.42,-119.62"/>
</g>
<!-- n2 -->
<g id="node3" class="node">
<title>n2</title>
<ellipse fill="#b2dfee" stroke="#b2dfee" cx="55.92" cy="-18" rx="29.37" ry="18"/>
<text text-anchor="middle" x="55.92" y="-15.5" font-family="Helvetica,sans-Serif" font-size="10.00">MATCH</text>
</g>
<!-- n1&#45;&gt;n2 -->
<g id="edge2" class="edge">
<title>n1&#45;&gt;n2</title>
<path fill="none" stroke="black" d="M55.92,-71.7C55.92,-64.41 55.92,-55.73 55.92,-47.54"/>
<polygon fill="black" stroke="black" points="59.42,-47.62 55.92,-37.62 52.42,-47.62 59.42,-47.62"/>
</g>
</g>
</svg>
