<?xml version="1.0" encoding="UTF-8" standalone="no"?>
<!DOCTYPE svg PUBLIC "-//W3C//DTD SVG 1.1//EN"
 "http://www.w3.org/Graphics/SVG/1.1/DTD/svg11.dtd">
<!-- Generated by graphviz version 7.1.0 (20230121.1956)
 -->
<!-- Title: arbolAST Pages: 1 -->
<svg width="3234pt" height="404pt"
 viewBox="0.00 0.00 3234.00 404.00" xmlns="http://www.w3.org/2000/svg" xmlns:xlink="http://www.w3.org/1999/xlink">
<g id="graph0" class="graph" transform="scale(1 1) rotate(0) translate(4 400)">
<title>arbolAST</title>
<polygon fill="white" stroke="none" points="-4,4 -4,-400 3230,-400 3230,4 -4,4"/>
<!-- n0 -->
<g id="node1" class="node">
<title>n0</title>
<ellipse fill="#b2dfee" stroke="#b2dfee" cx="1909" cy="-378" rx="27" ry="18"/>
<text text-anchor="middle" x="1909" y="-375.5" font-family="Helvetica,sans-Serif" font-size="10.00">INICIO</text>
</g>
<!-- n1 -->
<g id="node2" class="node">
<title>n1</title>
<ellipse fill="#b2dfee" stroke="#b2dfee" cx="1909" cy="-306" rx="55.85" ry="18"/>
<text text-anchor="middle" x="1909" y="-303.5" font-family="Helvetica,sans-Serif" font-size="10.00">INSTRUCCIONES</text>
</g>
<!-- n0&#45;&gt;n1 -->
<g id="edge1" class="edge">
<title>n0&#45;&gt;n1</title>
<path fill="none" stroke="black" d="M1909,-359.7C1909,-352.41 1909,-343.73 1909,-335.54"/>
<polygon fill="black" stroke="black" points="1912.5,-335.62 1909,-325.62 1905.5,-335.62 1912.5,-335.62"/>
</g>
<!-- n2 -->
<g id="node3" class="node">
<title>n2</title>
<ellipse fill="#b2dfee" stroke="#b2dfee" cx="423" cy="-234" rx="70.78" ry="18"/>
<text text-anchor="middle" x="423" y="-231.5" font-family="Helvetica,sans-Serif" font-size="10.00">Declaracion de Arreglos</text>
</g>
<!-- n1&#45;&gt;n2 -->
<g id="edge2" class="edge">
<title>n1&#45;&gt;n2</title>
<path fill="none" stroke="black" d="M1853.91,-302.4C1627.88,-291.76 771.02,-251.39 503.38,-238.79"/>
<polygon fill="black" stroke="black" points="503.88,-235.31 493.72,-238.33 503.55,-242.3 503.88,-235.31"/>
</g>
<!-- n18 -->
<g id="node19" class="node">
<title>n18</title>
<ellipse fill="#b2dfee" stroke="#b2dfee" cx="1143" cy="-234" rx="79.44" ry="18"/>
<text text-anchor="middle" x="1143" y="-231.5" font-family="Helvetica,sans-Serif" font-size="10.00">Declaracion de Arreglos 2D</text>
</g>
<!-- n1&#45;&gt;n18 -->
<g id="edge18" class="edge">
<title>n1&#45;&gt;n18</title>
<path fill="none" stroke="black" d="M1855.74,-300.13C1724.62,-288.15 1385.35,-257.15 1226.87,-242.66"/>
<polygon fill="black" stroke="black" points="1227.56,-239.21 1217.29,-241.79 1226.93,-246.18 1227.56,-239.21"/>
</g>
<!-- n40 -->
<g id="node41" class="node">
<title>n40</title>
<ellipse fill="#b2dfee" stroke="#b2dfee" cx="1719" cy="-234" rx="55.17" ry="18"/>
<text text-anchor="middle" x="1719" y="-231.5" font-family="Helvetica,sans-Serif" font-size="10.00">DECLARA_LISTA</text>
</g>
<!-- n1&#45;&gt;n40 -->
<g id="edge40" class="edge">
<title>n1&#45;&gt;n40</title>
<path fill="none" stroke="black" d="M1873.26,-291.83C1842.61,-280.54 1798.25,-264.2 1764.97,-251.93"/>
<polygon fill="black" stroke="black" points="1766.59,-248.8 1756,-248.63 1764.17,-255.37 1766.59,-248.8"/>
</g>
<!-- n48 -->
<g id="node49" class="node">
<title>n48</title>
<ellipse fill="#b2dfee" stroke="#b2dfee" cx="2064" cy="-234" rx="52.28" ry="18"/>
<text text-anchor="middle" x="2064" y="-231.5" font-family="Helvetica,sans-Serif" font-size="10.00">APPEND_LISTA</text>
</g>
<!-- n1&#45;&gt;n48 -->
<g id="edge48" class="edge">
<title>n1&#45;&gt;n48</title>
<path fill="none" stroke="black" d="M1940.37,-290.83C1964.16,-280.09 1997.07,-265.23 2022.95,-253.54"/>
<polygon fill="black" stroke="black" points="2024.16,-256.83 2031.83,-249.53 2021.28,-250.45 2024.16,-256.83"/>
</g>
<!-- n54 -->
<g id="node55" class="node">
<title>n54</title>
<ellipse fill="#b2dfee" stroke="#b2dfee" cx="2470" cy="-234" rx="85.89" ry="18"/>
<text text-anchor="middle" x="2470" y="-231.5" font-family="Helvetica,sans-Serif" font-size="10.00">DECLARACION_VARIABLES</text>
</g>
<!-- n1&#45;&gt;n54 -->
<g id="edge54" class="edge">
<title>n1&#45;&gt;n54</title>
<path fill="none" stroke="black" d="M1960.27,-298.6C2057.36,-286.49 2268.82,-260.1 2386.59,-245.41"/>
<polygon fill="black" stroke="black" points="2386.69,-248.92 2396.18,-244.21 2385.83,-241.98 2386.69,-248.92"/>
</g>
<!-- n69 -->
<g id="node70" class="node">
<title>n69</title>
<ellipse fill="#b2dfee" stroke="#b2dfee" cx="2944" cy="-234" rx="32.93" ry="18"/>
<text text-anchor="middle" x="2944" y="-231.5" font-family="Helvetica,sans-Serif" font-size="10.00">PRINTLN</text>
</g>
<!-- n1&#45;&gt;n69 -->
<g id="edge69" class="edge">
<title>n1&#45;&gt;n69</title>
<path fill="none" stroke="black" d="M1963.19,-301.34C2145.27,-289.02 2733.01,-249.27 2899.61,-238"/>
<polygon fill="black" stroke="black" points="2899.84,-241.49 2909.58,-237.33 2899.37,-234.51 2899.84,-241.49"/>
</g>
<!-- n3 -->
<g id="node4" class="node">
<title>n3</title>
<ellipse fill="#b2dfee" stroke="#b2dfee" cx="27" cy="-162" rx="27" ry="18"/>
<text text-anchor="middle" x="27" y="-159.5" font-family="Helvetica,sans-Serif" font-size="10.00">i</text>
</g>
<!-- n2&#45;&gt;n3 -->
<g id="edge3" class="edge">
<title>n2&#45;&gt;n3</title>
<path fill="none" stroke="black" d="M354.69,-228.95C281.29,-223.23 161.87,-209.9 63,-180 61.39,-179.51 59.76,-178.96 58.12,-178.37"/>
<polygon fill="black" stroke="black" points="59.5,-175.15 48.92,-174.54 56.81,-181.62 59.5,-175.15"/>
</g>
<!-- n4 -->
<g id="node5" class="node">
<title>n4</title>
<ellipse fill="#b2dfee" stroke="#b2dfee" cx="99" cy="-162" rx="27" ry="18"/>
<text text-anchor="middle" x="99" y="-159.5" font-family="Helvetica,sans-Serif" font-size="10.00">:</text>
</g>
<!-- n2&#45;&gt;n4 -->
<g id="edge4" class="edge">
<title>n2&#45;&gt;n4</title>
<path fill="none" stroke="black" d="M358.91,-226.04C299.76,-218.49 210.01,-204.16 135,-180 133.4,-179.48 131.77,-178.91 130.14,-178.3"/>
<polygon fill="black" stroke="black" points="131.54,-175.09 120.96,-174.42 128.81,-181.53 131.54,-175.09"/>
</g>
<!-- n5 -->
<g id="node6" class="node">
<title>n5</title>
<ellipse fill="#b2dfee" stroke="#b2dfee" cx="171" cy="-162" rx="27" ry="18"/>
<text text-anchor="middle" x="171" y="-159.5" font-family="Helvetica,sans-Serif" font-size="10.00">INT</text>
</g>
<!-- n2&#45;&gt;n5 -->
<g id="edge5" class="edge">
<title>n2&#45;&gt;n5</title>
<path fill="none" stroke="black" d="M367.51,-222.59C323.34,-213.54 260.31,-198.91 207,-180 205.45,-179.45 203.88,-178.86 202.31,-178.23"/>
<polygon fill="black" stroke="black" points="203.98,-175.14 193.41,-174.39 201.2,-181.57 203.98,-175.14"/>
</g>
<!-- n6 -->
<g id="node7" class="node">
<title>n6</title>
<ellipse fill="#b2dfee" stroke="#b2dfee" cx="243" cy="-162" rx="27" ry="18"/>
<text text-anchor="middle" x="243" y="-159.5" font-family="Helvetica,sans-Serif" font-size="10.00">=</text>
</g>
<!-- n2&#45;&gt;n6 -->
<g id="edge6" class="edge">
<title>n2&#45;&gt;n6</title>
<path fill="none" stroke="black" d="M381.97,-218.99C352.95,-208.81 313.27,-194.37 279,-180 277.49,-179.37 275.94,-178.7 274.39,-178.02"/>
<polygon fill="black" stroke="black" points="276.11,-174.96 265.56,-174.01 273.21,-181.33 276.11,-174.96"/>
</g>
<!-- n7 -->
<g id="node8" class="node">
<title>n7</title>
<ellipse fill="#b2dfee" stroke="#b2dfee" cx="315" cy="-162" rx="27" ry="18"/>
<text text-anchor="middle" x="315" y="-159.5" font-family="Helvetica,sans-Serif" font-size="10.00">[</text>
</g>
<!-- n2&#45;&gt;n7 -->
<g id="edge7" class="edge">
<title>n2&#45;&gt;n7</title>
<path fill="none" stroke="black" d="M397.95,-216.76C381.59,-206.16 360.21,-192.3 343.25,-181.31"/>
<polygon fill="black" stroke="black" points="345.41,-178.54 335.11,-176.04 341.6,-184.41 345.41,-178.54"/>
</g>
<!-- n8 -->
<g id="node9" class="node">
<title>n8</title>
<ellipse fill="#b2dfee" stroke="#b2dfee" cx="387" cy="-162" rx="27" ry="18"/>
<text text-anchor="middle" x="387" y="-159.5" font-family="Helvetica,sans-Serif" font-size="10.00">INT</text>
</g>
<!-- n2&#45;&gt;n8 -->
<g id="edge8" class="edge">
<title>n2&#45;&gt;n8</title>
<path fill="none" stroke="black" d="M414.1,-215.7C410.02,-207.75 405.08,-198.16 400.55,-189.34"/>
<polygon fill="black" stroke="black" points="403.68,-187.78 396,-180.49 397.46,-190.98 403.68,-187.78"/>
</g>
<!-- n10 -->
<g id="node11" class="node">
<title>n10</title>
<ellipse fill="#b2dfee" stroke="#b2dfee" cx="459" cy="-162" rx="27" ry="18"/>
<text text-anchor="middle" x="459" y="-159.5" font-family="Helvetica,sans-Serif" font-size="10.00">INT</text>
</g>
<!-- n2&#45;&gt;n10 -->
<g id="edge10" class="edge">
<title>n2&#45;&gt;n10</title>
<path fill="none" stroke="black" d="M431.9,-215.7C435.98,-207.75 440.92,-198.16 445.45,-189.34"/>
<polygon fill="black" stroke="black" points="448.54,-190.98 450,-180.49 442.32,-187.78 448.54,-190.98"/>
</g>
<!-- n12 -->
<g id="node13" class="node">
<title>n12</title>
<ellipse fill="#b2dfee" stroke="#b2dfee" cx="531" cy="-162" rx="27" ry="18"/>
<text text-anchor="middle" x="531" y="-159.5" font-family="Helvetica,sans-Serif" font-size="10.00">INT</text>
</g>
<!-- n2&#45;&gt;n12 -->
<g id="edge12" class="edge">
<title>n2&#45;&gt;n12</title>
<path fill="none" stroke="black" d="M448.05,-216.76C464.41,-206.16 485.79,-192.3 502.75,-181.31"/>
<polygon fill="black" stroke="black" points="504.4,-184.41 510.89,-176.04 500.59,-178.54 504.4,-184.41"/>
</g>
<!-- n14 -->
<g id="node15" class="node">
<title>n14</title>
<ellipse fill="#b2dfee" stroke="#b2dfee" cx="603" cy="-162" rx="27" ry="18"/>
<text text-anchor="middle" x="603" y="-159.5" font-family="Helvetica,sans-Serif" font-size="10.00">INT</text>
</g>
<!-- n2&#45;&gt;n14 -->
<g id="edge14" class="edge">
<title>n2&#45;&gt;n14</title>
<path fill="none" stroke="black" d="M464.03,-218.99C493.05,-208.81 532.73,-194.37 567,-180 568.51,-179.37 570.06,-178.7 571.61,-178.02"/>
<polygon fill="black" stroke="black" points="572.79,-181.33 580.44,-174.01 569.89,-174.96 572.79,-181.33"/>
</g>
<!-- n16 -->
<g id="node17" class="node">
<title>n16</title>
<ellipse fill="#b2dfee" stroke="#b2dfee" cx="675" cy="-162" rx="27" ry="18"/>
<text text-anchor="middle" x="675" y="-159.5" font-family="Helvetica,sans-Serif" font-size="10.00">]</text>
</g>
<!-- n2&#45;&gt;n16 -->
<g id="edge16" class="edge">
<title>n2&#45;&gt;n16</title>
<path fill="none" stroke="black" d="M478.49,-222.59C522.66,-213.54 585.69,-198.91 639,-180 640.55,-179.45 642.12,-178.86 643.69,-178.23"/>
<polygon fill="black" stroke="black" points="644.8,-181.57 652.59,-174.39 642.02,-175.14 644.8,-181.57"/>
</g>
<!-- n17 -->
<g id="node18" class="node">
<title>n17</title>
<ellipse fill="#b2dfee" stroke="#b2dfee" cx="747" cy="-162" rx="27" ry="18"/>
<text text-anchor="middle" x="747" y="-159.5" font-family="Helvetica,sans-Serif" font-size="10.00">;</text>
</g>
<!-- n2&#45;&gt;n17 -->
<g id="edge17" class="edge">
<title>n2&#45;&gt;n17</title>
<path fill="none" stroke="black" d="M487.09,-226.04C546.24,-218.49 635.99,-204.16 711,-180 712.6,-179.48 714.23,-178.91 715.86,-178.3"/>
<polygon fill="black" stroke="black" points="717.19,-181.53 725.04,-174.42 714.46,-175.09 717.19,-181.53"/>
</g>
<!-- n9 -->
<g id="node10" class="node">
<title>n9</title>
<ellipse fill="#b2dfee" stroke="#b2dfee" cx="387" cy="-90" rx="27" ry="18"/>
<text text-anchor="middle" x="387" y="-87.5" font-family="Helvetica,sans-Serif" font-size="10.00">1</text>
</g>
<!-- n8&#45;&gt;n9 -->
<g id="edge9" class="edge">
<title>n8&#45;&gt;n9</title>
<path fill="none" stroke="black" d="M387,-143.7C387,-136.41 387,-127.73 387,-119.54"/>
<polygon fill="black" stroke="black" points="390.5,-119.62 387,-109.62 383.5,-119.62 390.5,-119.62"/>
</g>
<!-- n11 -->
<g id="node12" class="node">
<title>n11</title>
<ellipse fill="#b2dfee" stroke="#b2dfee" cx="459" cy="-90" rx="27" ry="18"/>
<text text-anchor="middle" x="459" y="-87.5" font-family="Helvetica,sans-Serif" font-size="10.00">3</text>
</g>
<!-- n10&#45;&gt;n11 -->
<g id="edge11" class="edge">
<title>n10&#45;&gt;n11</title>
<path fill="none" stroke="black" d="M459,-143.7C459,-136.41 459,-127.73 459,-119.54"/>
<polygon fill="black" stroke="black" points="462.5,-119.62 459,-109.62 455.5,-119.62 462.5,-119.62"/>
</g>
<!-- n13 -->
<g id="node14" class="node">
<title>n13</title>
<ellipse fill="#b2dfee" stroke="#b2dfee" cx="531" cy="-90" rx="27" ry="18"/>
<text text-anchor="middle" x="531" y="-87.5" font-family="Helvetica,sans-Serif" font-size="10.00">5</text>
</g>
<!-- n12&#45;&gt;n13 -->
<g id="edge13" class="edge">
<title>n12&#45;&gt;n13</title>
<path fill="none" stroke="black" d="M531,-143.7C531,-136.41 531,-127.73 531,-119.54"/>
<polygon fill="black" stroke="black" points="534.5,-119.62 531,-109.62 527.5,-119.62 534.5,-119.62"/>
</g>
<!-- n15 -->
<g id="node16" class="node">
<title>n15</title>
<ellipse fill="#b2dfee" stroke="#b2dfee" cx="603" cy="-90" rx="27" ry="18"/>
<text text-anchor="middle" x="603" y="-87.5" font-family="Helvetica,sans-Serif" font-size="10.00">7</text>
</g>
<!-- n14&#45;&gt;n15 -->
<g id="edge15" class="edge">
<title>n14&#45;&gt;n15</title>
<path fill="none" stroke="black" d="M603,-143.7C603,-136.41 603,-127.73 603,-119.54"/>
<polygon fill="black" stroke="black" points="606.5,-119.62 603,-109.62 599.5,-119.62 606.5,-119.62"/>
</g>
<!-- n19 -->
<g id="node20" class="node">
<title>n19</title>
<ellipse fill="#b2dfee" stroke="#b2dfee" cx="819" cy="-162" rx="27" ry="18"/>
<text text-anchor="middle" x="819" y="-159.5" font-family="Helvetica,sans-Serif" font-size="10.00">a</text>
</g>
<!-- n18&#45;&gt;n19 -->
<g id="edge19" class="edge">
<title>n18&#45;&gt;n19</title>
<path fill="none" stroke="black" d="M1072.8,-225.25C1013.7,-217.51 927.47,-203.34 855,-180 853.4,-179.48 851.77,-178.91 850.14,-178.3"/>
<polygon fill="black" stroke="black" points="851.54,-175.09 840.96,-174.42 848.81,-181.53 851.54,-175.09"/>
</g>
<!-- n20 -->
<g id="node21" class="node">
<title>n20</title>
<ellipse fill="#b2dfee" stroke="#b2dfee" cx="891" cy="-162" rx="27" ry="18"/>
<text text-anchor="middle" x="891" y="-159.5" font-family="Helvetica,sans-Serif" font-size="10.00">:</text>
</g>
<!-- n18&#45;&gt;n20 -->
<g id="edge20" class="edge">
<title>n18&#45;&gt;n20</title>
<path fill="none" stroke="black" d="M1083.39,-221.74C1039.48,-212.63 978.67,-198.33 927,-180 925.45,-179.45 923.88,-178.86 922.31,-178.23"/>
<polygon fill="black" stroke="black" points="923.98,-175.14 913.41,-174.39 921.2,-181.57 923.98,-175.14"/>
</g>
<!-- n21 -->
<g id="node22" class="node">
<title>n21</title>
<ellipse fill="#b2dfee" stroke="#b2dfee" cx="963" cy="-162" rx="27" ry="18"/>
<text text-anchor="middle" x="963" y="-159.5" font-family="Helvetica,sans-Serif" font-size="10.00">INT</text>
</g>
<!-- n18&#45;&gt;n21 -->
<g id="edge21" class="edge">
<title>n18&#45;&gt;n21</title>
<path fill="none" stroke="black" d="M1100.4,-218.44C1071.53,-208.3 1032.66,-194.11 999,-180 997.49,-179.37 995.94,-178.7 994.39,-178.02"/>
<polygon fill="black" stroke="black" points="996.11,-174.96 985.56,-174.01 993.21,-181.33 996.11,-174.96"/>
</g>
<!-- n22 -->
<g id="node23" class="node">
<title>n22</title>
<ellipse fill="#b2dfee" stroke="#b2dfee" cx="1035" cy="-162" rx="27" ry="18"/>
<text text-anchor="middle" x="1035" y="-159.5" font-family="Helvetica,sans-Serif" font-size="10.00">=</text>
</g>
<!-- n18&#45;&gt;n22 -->
<g id="edge22" class="edge">
<title>n18&#45;&gt;n22</title>
<path fill="none" stroke="black" d="M1117.68,-216.59C1101.31,-205.98 1080,-192.17 1063.11,-181.22"/>
<polygon fill="black" stroke="black" points="1065.31,-178.48 1055.02,-175.97 1061.51,-184.35 1065.31,-178.48"/>
</g>
<!-- n23 -->
<g id="node24" class="node">
<title>n23</title>
<ellipse fill="#b2dfee" stroke="#b2dfee" cx="1107" cy="-162" rx="27" ry="18"/>
<text text-anchor="middle" x="1107" y="-159.5" font-family="Helvetica,sans-Serif" font-size="10.00">[</text>
</g>
<!-- n18&#45;&gt;n23 -->
<g id="edge23" class="edge">
<title>n18&#45;&gt;n23</title>
<path fill="none" stroke="black" d="M1134.1,-215.7C1130.02,-207.75 1125.08,-198.16 1120.55,-189.34"/>
<polygon fill="black" stroke="black" points="1123.68,-187.78 1116,-180.49 1117.46,-190.98 1123.68,-187.78"/>
</g>
<!-- n24 -->
<g id="node25" class="node">
<title>n24</title>
<ellipse fill="#b2dfee" stroke="#b2dfee" cx="1179" cy="-162" rx="27" ry="18"/>
<text text-anchor="middle" x="1179" y="-159.5" font-family="Helvetica,sans-Serif" font-size="10.00">Fila</text>
</g>
<!-- n18&#45;&gt;n24 -->
<g id="edge24" class="edge">
<title>n18&#45;&gt;n24</title>
<path fill="none" stroke="black" d="M1151.9,-215.7C1155.98,-207.75 1160.92,-198.16 1165.45,-189.34"/>
<polygon fill="black" stroke="black" points="1168.54,-190.98 1170,-180.49 1162.32,-187.78 1168.54,-190.98"/>
</g>
<!-- n31 -->
<g id="node32" class="node">
<title>n31</title>
<ellipse fill="#b2dfee" stroke="#b2dfee" cx="1251" cy="-162" rx="27" ry="18"/>
<text text-anchor="middle" x="1251" y="-159.5" font-family="Helvetica,sans-Serif" font-size="10.00">Fila</text>
</g>
<!-- n18&#45;&gt;n31 -->
<g id="edge31" class="edge">
<title>n18&#45;&gt;n31</title>
<path fill="none" stroke="black" d="M1168.32,-216.59C1184.69,-205.98 1206,-192.17 1222.89,-181.22"/>
<polygon fill="black" stroke="black" points="1224.49,-184.35 1230.98,-175.97 1220.69,-178.48 1224.49,-184.35"/>
</g>
<!-- n38 -->
<g id="node39" class="node">
<title>n38</title>
<ellipse fill="#b2dfee" stroke="#b2dfee" cx="1323" cy="-162" rx="27" ry="18"/>
<text text-anchor="middle" x="1323" y="-159.5" font-family="Helvetica,sans-Serif" font-size="10.00">]</text>
</g>
<!-- n18&#45;&gt;n38 -->
<g id="edge38" class="edge">
<title>n18&#45;&gt;n38</title>
<path fill="none" stroke="black" d="M1185.6,-218.44C1214.47,-208.3 1253.34,-194.11 1287,-180 1288.51,-179.37 1290.06,-178.7 1291.61,-178.02"/>
<polygon fill="black" stroke="black" points="1292.79,-181.33 1300.44,-174.01 1289.89,-174.96 1292.79,-181.33"/>
</g>
<!-- n39 -->
<g id="node40" class="node">
<title>n39</title>
<ellipse fill="#b2dfee" stroke="#b2dfee" cx="1395" cy="-162" rx="27" ry="18"/>
<text text-anchor="middle" x="1395" y="-159.5" font-family="Helvetica,sans-Serif" font-size="10.00">;</text>
</g>
<!-- n18&#45;&gt;n39 -->
<g id="edge39" class="edge">
<title>n18&#45;&gt;n39</title>
<path fill="none" stroke="black" d="M1202.61,-221.74C1246.52,-212.63 1307.33,-198.33 1359,-180 1360.55,-179.45 1362.12,-178.86 1363.69,-178.23"/>
<polygon fill="black" stroke="black" points="1364.8,-181.57 1372.59,-174.39 1362.02,-175.14 1364.8,-181.57"/>
</g>
<!-- n25 -->
<g id="node26" class="node">
<title>n25</title>
<ellipse fill="#b2dfee" stroke="#b2dfee" cx="963" cy="-90" rx="27" ry="18"/>
<text text-anchor="middle" x="963" y="-87.5" font-family="Helvetica,sans-Serif" font-size="10.00">[</text>
</g>
<!-- n24&#45;&gt;n25 -->
<g id="edge25" class="edge">
<title>n24&#45;&gt;n25</title>
<path fill="none" stroke="black" d="M1157.97,-150.23C1153.13,-147.98 1147.95,-145.77 1143,-144 1080.87,-121.81 1061.13,-130.19 999,-108 997.45,-107.45 995.89,-106.85 994.31,-106.22"/>
<polygon fill="black" stroke="black" points="995.98,-103.14 985.42,-102.38 993.2,-109.56 995.98,-103.14"/>
</g>
<!-- n26 -->
<g id="node27" class="node">
<title>n26</title>
<ellipse fill="#b2dfee" stroke="#b2dfee" cx="1035" cy="-90" rx="27" ry="18"/>
<text text-anchor="middle" x="1035" y="-87.5" font-family="Helvetica,sans-Serif" font-size="10.00">INT</text>
</g>
<!-- n24&#45;&gt;n26 -->
<g id="edge26" class="edge">
<title>n24&#45;&gt;n26</title>
<path fill="none" stroke="black" d="M1157.44,-150.52C1133.34,-138.8 1094.08,-119.72 1066.53,-106.32"/>
<polygon fill="black" stroke="black" points="1068.12,-103.21 1057.6,-101.98 1065.06,-109.5 1068.12,-103.21"/>
</g>
<!-- n28 -->
<g id="node29" class="node">
<title>n28</title>
<ellipse fill="#b2dfee" stroke="#b2dfee" cx="1107" cy="-90" rx="27" ry="18"/>
<text text-anchor="middle" x="1107" y="-87.5" font-family="Helvetica,sans-Serif" font-size="10.00">INT</text>
</g>
<!-- n24&#45;&gt;n28 -->
<g id="edge28" class="edge">
<title>n24&#45;&gt;n28</title>
<path fill="none" stroke="black" d="M1164.08,-146.5C1154.23,-136.92 1141.14,-124.19 1129.97,-113.34"/>
<polygon fill="black" stroke="black" points="1132.59,-111 1122.98,-106.54 1127.71,-116.02 1132.59,-111"/>
</g>
<!-- n30 -->
<g id="node31" class="node">
<title>n30</title>
<ellipse fill="#b2dfee" stroke="#b2dfee" cx="1179" cy="-90" rx="27" ry="18"/>
<text text-anchor="middle" x="1179" y="-87.5" font-family="Helvetica,sans-Serif" font-size="10.00">]</text>
</g>
<!-- n24&#45;&gt;n30 -->
<g id="edge30" class="edge">
<title>n24&#45;&gt;n30</title>
<path fill="none" stroke="black" d="M1179,-143.7C1179,-136.41 1179,-127.73 1179,-119.54"/>
<polygon fill="black" stroke="black" points="1182.5,-119.62 1179,-109.62 1175.5,-119.62 1182.5,-119.62"/>
</g>
<!-- n27 -->
<g id="node28" class="node">
<title>n27</title>
<ellipse fill="#b2dfee" stroke="#b2dfee" cx="1035" cy="-18" rx="27" ry="18"/>
<text text-anchor="middle" x="1035" y="-15.5" font-family="Helvetica,sans-Serif" font-size="10.00">1</text>
</g>
<!-- n26&#45;&gt;n27 -->
<g id="edge27" class="edge">
<title>n26&#45;&gt;n27</title>
<path fill="none" stroke="black" d="M1035,-71.7C1035,-64.41 1035,-55.73 1035,-47.54"/>
<polygon fill="black" stroke="black" points="1038.5,-47.62 1035,-37.62 1031.5,-47.62 1038.5,-47.62"/>
</g>
<!-- n29 -->
<g id="node30" class="node">
<title>n29</title>
<ellipse fill="#b2dfee" stroke="#b2dfee" cx="1107" cy="-18" rx="27" ry="18"/>
<text text-anchor="middle" x="1107" y="-15.5" font-family="Helvetica,sans-Serif" font-size="10.00">3</text>
</g>
<!-- n28&#45;&gt;n29 -->
<g id="edge29" class="edge">
<title>n28&#45;&gt;n29</title>
<path fill="none" stroke="black" d="M1107,-71.7C1107,-64.41 1107,-55.73 1107,-47.54"/>
<polygon fill="black" stroke="black" points="1110.5,-47.62 1107,-37.62 1103.5,-47.62 1110.5,-47.62"/>
</g>
<!-- n32 -->
<g id="node33" class="node">
<title>n32</title>
<ellipse fill="#b2dfee" stroke="#b2dfee" cx="1251" cy="-90" rx="27" ry="18"/>
<text text-anchor="middle" x="1251" y="-87.5" font-family="Helvetica,sans-Serif" font-size="10.00">[</text>
</g>
<!-- n31&#45;&gt;n32 -->
<g id="edge32" class="edge">
<title>n31&#45;&gt;n32</title>
<path fill="none" stroke="black" d="M1251,-143.7C1251,-136.41 1251,-127.73 1251,-119.54"/>
<polygon fill="black" stroke="black" points="1254.5,-119.62 1251,-109.62 1247.5,-119.62 1254.5,-119.62"/>
</g>
<!-- n33 -->
<g id="node34" class="node">
<title>n33</title>
<ellipse fill="#b2dfee" stroke="#b2dfee" cx="1323" cy="-90" rx="27" ry="18"/>
<text text-anchor="middle" x="1323" y="-87.5" font-family="Helvetica,sans-Serif" font-size="10.00">INT</text>
</g>
<!-- n31&#45;&gt;n33 -->
<g id="edge33" class="edge">
<title>n31&#45;&gt;n33</title>
<path fill="none" stroke="black" d="M1265.92,-146.5C1275.77,-136.92 1288.86,-124.19 1300.03,-113.34"/>
<polygon fill="black" stroke="black" points="1302.29,-116.02 1307.02,-106.54 1297.41,-111 1302.29,-116.02"/>
</g>
<!-- n35 -->
<g id="node36" class="node">
<title>n35</title>
<ellipse fill="#b2dfee" stroke="#b2dfee" cx="1395" cy="-90" rx="27" ry="18"/>
<text text-anchor="middle" x="1395" y="-87.5" font-family="Helvetica,sans-Serif" font-size="10.00">INT</text>
</g>
<!-- n31&#45;&gt;n35 -->
<g id="edge35" class="edge">
<title>n31&#45;&gt;n35</title>
<path fill="none" stroke="black" d="M1272.56,-150.52C1296.66,-138.8 1335.92,-119.72 1363.47,-106.32"/>
<polygon fill="black" stroke="black" points="1364.94,-109.5 1372.4,-101.98 1361.88,-103.21 1364.94,-109.5"/>
</g>
<!-- n37 -->
<g id="node38" class="node">
<title>n37</title>
<ellipse fill="#b2dfee" stroke="#b2dfee" cx="1467" cy="-90" rx="27" ry="18"/>
<text text-anchor="middle" x="1467" y="-87.5" font-family="Helvetica,sans-Serif" font-size="10.00">]</text>
</g>
<!-- n31&#45;&gt;n37 -->
<g id="edge37" class="edge">
<title>n31&#45;&gt;n37</title>
<path fill="none" stroke="black" d="M1272.03,-150.23C1276.87,-147.98 1282.05,-145.77 1287,-144 1349.13,-121.81 1368.87,-130.19 1431,-108 1432.55,-107.45 1434.11,-106.85 1435.69,-106.22"/>
<polygon fill="black" stroke="black" points="1436.8,-109.56 1444.58,-102.38 1434.02,-103.14 1436.8,-109.56"/>
</g>
<!-- n34 -->
<g id="node35" class="node">
<title>n34</title>
<ellipse fill="#b2dfee" stroke="#b2dfee" cx="1323" cy="-18" rx="27" ry="18"/>
<text text-anchor="middle" x="1323" y="-15.5" font-family="Helvetica,sans-Serif" font-size="10.00">5</text>
</g>
<!-- n33&#45;&gt;n34 -->
<g id="edge34" class="edge">
<title>n33&#45;&gt;n34</title>
<path fill="none" stroke="black" d="M1323,-71.7C1323,-64.41 1323,-55.73 1323,-47.54"/>
<polygon fill="black" stroke="black" points="1326.5,-47.62 1323,-37.62 1319.5,-47.62 1326.5,-47.62"/>
</g>
<!-- n36 -->
<g id="node37" class="node">
<title>n36</title>
<ellipse fill="#b2dfee" stroke="#b2dfee" cx="1395" cy="-18" rx="27" ry="18"/>
<text text-anchor="middle" x="1395" y="-15.5" font-family="Helvetica,sans-Serif" font-size="10.00">7</text>
</g>
<!-- n35&#45;&gt;n36 -->
<g id="edge36" class="edge">
<title>n35&#45;&gt;n36</title>
<path fill="none" stroke="black" d="M1395,-71.7C1395,-64.41 1395,-55.73 1395,-47.54"/>
<polygon fill="black" stroke="black" points="1398.5,-47.62 1395,-37.62 1391.5,-47.62 1398.5,-47.62"/>
</g>
<!-- n41 -->
<g id="node42" class="node">
<title>n41</title>
<ellipse fill="#b2dfee" stroke="#b2dfee" cx="1467" cy="-162" rx="27" ry="18"/>
<text text-anchor="middle" x="1467" y="-159.5" font-family="Helvetica,sans-Serif" font-size="10.00">List&lt;</text>
</g>
<!-- n40&#45;&gt;n41 -->
<g id="edge41" class="edge">
<title>n40&#45;&gt;n41</title>
<path fill="none" stroke="black" d="M1671.86,-224.28C1627.56,-215.41 1559.77,-200.14 1503,-180 1501.45,-179.45 1499.88,-178.86 1498.31,-178.23"/>
<polygon fill="black" stroke="black" points="1499.98,-175.14 1489.41,-174.39 1497.2,-181.57 1499.98,-175.14"/>
</g>
<!-- n42 -->
<g id="node43" class="node">
<title>n42</title>
<ellipse fill="#b2dfee" stroke="#b2dfee" cx="1539" cy="-162" rx="27" ry="18"/>
<text text-anchor="middle" x="1539" y="-159.5" font-family="Helvetica,sans-Serif" font-size="10.00">INT</text>
</g>
<!-- n40&#45;&gt;n42 -->
<g id="edge42" class="edge">
<title>n40&#45;&gt;n42</title>
<path fill="none" stroke="black" d="M1681.96,-220.38C1652.66,-210.16 1610.87,-195.04 1575,-180 1573.49,-179.37 1571.94,-178.7 1570.39,-178.02"/>
<polygon fill="black" stroke="black" points="1572.11,-174.96 1561.56,-174.01 1569.21,-181.33 1572.11,-174.96"/>
</g>
<!-- n43 -->
<g id="node44" class="node">
<title>n43</title>
<ellipse fill="#b2dfee" stroke="#b2dfee" cx="1611" cy="-162" rx="27" ry="18"/>
<text text-anchor="middle" x="1611" y="-159.5" font-family="Helvetica,sans-Serif" font-size="10.00">&gt;</text>
</g>
<!-- n40&#45;&gt;n43 -->
<g id="edge43" class="edge">
<title>n40&#45;&gt;n43</title>
<path fill="none" stroke="black" d="M1695.03,-217.46C1678.62,-206.82 1656.77,-192.67 1639.47,-181.45"/>
<polygon fill="black" stroke="black" points="1641.45,-178.56 1631.15,-176.06 1637.64,-184.44 1641.45,-178.56"/>
</g>
<!-- n44 -->
<g id="node45" class="node">
<title>n44</title>
<ellipse fill="#b2dfee" stroke="#b2dfee" cx="1683" cy="-162" rx="27" ry="18"/>
<text text-anchor="middle" x="1683" y="-159.5" font-family="Helvetica,sans-Serif" font-size="10.00">l</text>
</g>
<!-- n40&#45;&gt;n44 -->
<g id="edge44" class="edge">
<title>n40&#45;&gt;n44</title>
<path fill="none" stroke="black" d="M1710.29,-216.05C1706.16,-208.03 1701.13,-198.26 1696.52,-189.3"/>
<polygon fill="black" stroke="black" points="1699.76,-187.95 1692.08,-180.65 1693.54,-191.15 1699.76,-187.95"/>
</g>
<!-- n45 -->
<g id="node46" class="node">
<title>n45</title>
<ellipse fill="#b2dfee" stroke="#b2dfee" cx="1755" cy="-162" rx="27" ry="18"/>
<text text-anchor="middle" x="1755" y="-159.5" font-family="Helvetica,sans-Serif" font-size="10.00">=</text>
</g>
<!-- n40&#45;&gt;n45 -->
<g id="edge45" class="edge">
<title>n40&#45;&gt;n45</title>
<path fill="none" stroke="black" d="M1727.71,-216.05C1731.84,-208.03 1736.87,-198.26 1741.48,-189.3"/>
<polygon fill="black" stroke="black" points="1744.46,-191.15 1745.92,-180.65 1738.24,-187.95 1744.46,-191.15"/>
</g>
<!-- n46 -->
<g id="node47" class="node">
<title>n46</title>
<ellipse fill="#b2dfee" stroke="#b2dfee" cx="1835" cy="-162" rx="34.96" ry="18"/>
<text text-anchor="middle" x="1835" y="-159.5" font-family="Helvetica,sans-Serif" font-size="10.00">new List()</text>
</g>
<!-- n40&#45;&gt;n46 -->
<g id="edge46" class="edge">
<title>n40&#45;&gt;n46</title>
<path fill="none" stroke="black" d="M1744.46,-217.64C1761.79,-207.18 1784.85,-193.26 1803.36,-182.09"/>
<polygon fill="black" stroke="black" points="1805.07,-185.15 1811.82,-176.99 1801.45,-179.16 1805.07,-185.15"/>
</g>
<!-- n47 -->
<g id="node48" class="node">
<title>n47</title>
<ellipse fill="#b2dfee" stroke="#b2dfee" cx="1915" cy="-162" rx="27" ry="18"/>
<text text-anchor="middle" x="1915" y="-159.5" font-family="Helvetica,sans-Serif" font-size="10.00">;</text>
</g>
<!-- n40&#45;&gt;n47 -->
<g id="edge47" class="edge">
<title>n40&#45;&gt;n47</title>
<path fill="none" stroke="black" d="M1758.93,-221.25C1791.6,-211.29 1838.79,-196.08 1879,-180 1880.52,-179.39 1882.08,-178.75 1883.64,-178.08"/>
<polygon fill="black" stroke="black" points="1884.79,-181.4 1892.49,-174.12 1881.93,-175.01 1884.79,-181.4"/>
</g>
<!-- n49 -->
<g id="node50" class="node">
<title>n49</title>
<ellipse fill="#b2dfee" stroke="#b2dfee" cx="1987" cy="-162" rx="27" ry="18"/>
<text text-anchor="middle" x="1987" y="-159.5" font-family="Helvetica,sans-Serif" font-size="10.00">l</text>
</g>
<!-- n48&#45;&gt;n49 -->
<g id="edge49" class="edge">
<title>n48&#45;&gt;n49</title>
<path fill="none" stroke="black" d="M2046.14,-216.76C2035.59,-207.17 2022.11,-194.91 2010.68,-184.52"/>
<polygon fill="black" stroke="black" points="2013.29,-182.17 2003.54,-178.04 2008.59,-187.35 2013.29,-182.17"/>
</g>
<!-- n50 -->
<g id="node51" class="node">
<title>n50</title>
<ellipse fill="#b2dfee" stroke="#b2dfee" cx="2064" cy="-162" rx="31.58" ry="18"/>
<text text-anchor="middle" x="2064" y="-159.5" font-family="Helvetica,sans-Serif" font-size="10.00">.append(</text>
</g>
<!-- n48&#45;&gt;n50 -->
<g id="edge50" class="edge">
<title>n48&#45;&gt;n50</title>
<path fill="none" stroke="black" d="M2064,-215.7C2064,-208.41 2064,-199.73 2064,-191.54"/>
<polygon fill="black" stroke="black" points="2067.5,-191.62 2064,-181.62 2060.5,-191.62 2067.5,-191.62"/>
</g>
<!-- n51 -->
<g id="node52" class="node">
<title>n51</title>
<ellipse fill="#b2dfee" stroke="#b2dfee" cx="2141" cy="-162" rx="27" ry="18"/>
<text text-anchor="middle" x="2141" y="-159.5" font-family="Helvetica,sans-Serif" font-size="10.00">INT</text>
</g>
<!-- n48&#45;&gt;n51 -->
<g id="edge51" class="edge">
<title>n48&#45;&gt;n51</title>
<path fill="none" stroke="black" d="M2081.86,-216.76C2092.41,-207.17 2105.89,-194.91 2117.32,-184.52"/>
<polygon fill="black" stroke="black" points="2119.41,-187.35 2124.46,-178.04 2114.71,-182.17 2119.41,-187.35"/>
</g>
<!-- n53 -->
<g id="node54" class="node">
<title>n53</title>
<ellipse fill="#b2dfee" stroke="#b2dfee" cx="2213" cy="-162" rx="27" ry="18"/>
<text text-anchor="middle" x="2213" y="-159.5" font-family="Helvetica,sans-Serif" font-size="10.00">);</text>
</g>
<!-- n48&#45;&gt;n53 -->
<g id="edge53" class="edge">
<title>n48&#45;&gt;n53</title>
<path fill="none" stroke="black" d="M2094.23,-218.85C2116.99,-208.19 2148.96,-193.19 2177,-180 2178.3,-179.39 2179.63,-178.76 2180.97,-178.13"/>
<polygon fill="black" stroke="black" points="2182.38,-181.33 2189.93,-173.9 2179.4,-175 2182.38,-181.33"/>
</g>
<!-- n52 -->
<g id="node53" class="node">
<title>n52</title>
<ellipse fill="#b2dfee" stroke="#b2dfee" cx="2141" cy="-90" rx="27" ry="18"/>
<text text-anchor="middle" x="2141" y="-87.5" font-family="Helvetica,sans-Serif" font-size="10.00">19</text>
</g>
<!-- n51&#45;&gt;n52 -->
<g id="edge52" class="edge">
<title>n51&#45;&gt;n52</title>
<path fill="none" stroke="black" d="M2141,-143.7C2141,-136.41 2141,-127.73 2141,-119.54"/>
<polygon fill="black" stroke="black" points="2144.5,-119.62 2141,-109.62 2137.5,-119.62 2144.5,-119.62"/>
</g>
<!-- n55 -->
<g id="node56" class="node">
<title>n55</title>
<ellipse fill="#b2dfee" stroke="#b2dfee" cx="2285" cy="-162" rx="27" ry="18"/>
<text text-anchor="middle" x="2285" y="-159.5" font-family="Helvetica,sans-Serif" font-size="10.00">var</text>
</g>
<!-- n54&#45;&gt;n55 -->
<g id="edge55" class="edge">
<title>n54&#45;&gt;n55</title>
<path fill="none" stroke="black" d="M2424.9,-218.26C2395.12,-208.21 2355.39,-194.19 2321,-180 2319.48,-179.37 2317.94,-178.72 2316.38,-178.04"/>
<polygon fill="black" stroke="black" points="2318.1,-174.98 2307.54,-174.05 2315.21,-181.35 2318.1,-174.98"/>
</g>
<!-- n56 -->
<g id="node57" class="node">
<title>n56</title>
<ellipse fill="#b2dfee" stroke="#b2dfee" cx="2357" cy="-162" rx="27" ry="18"/>
<text text-anchor="middle" x="2357" y="-159.5" font-family="Helvetica,sans-Serif" font-size="10.00">flag</text>
</g>
<!-- n54&#45;&gt;n56 -->
<g id="edge56" class="edge">
<title>n54&#45;&gt;n56</title>
<path fill="none" stroke="black" d="M2443.51,-216.59C2426.11,-205.81 2403.38,-191.73 2385.58,-180.7"/>
<polygon fill="black" stroke="black" points="2387.89,-178.02 2377.55,-175.73 2384.21,-183.97 2387.89,-178.02"/>
</g>
<!-- n57 -->
<g id="node58" class="node">
<title>n57</title>
<ellipse fill="#b2dfee" stroke="#b2dfee" cx="2429" cy="-162" rx="27" ry="18"/>
<text text-anchor="middle" x="2429" y="-159.5" font-family="Helvetica,sans-Serif" font-size="10.00">:</text>
</g>
<!-- n54&#45;&gt;n57 -->
<g id="edge57" class="edge">
<title>n54&#45;&gt;n57</title>
<path fill="none" stroke="black" d="M2459.87,-215.7C2455.16,-207.67 2449.47,-197.95 2444.26,-189.05"/>
<polygon fill="black" stroke="black" points="2447.3,-187.31 2439.22,-180.45 2441.26,-190.85 2447.3,-187.31"/>
</g>
<!-- n58 -->
<g id="node59" class="node">
<title>n58</title>
<ellipse fill="#b2dfee" stroke="#b2dfee" cx="2512" cy="-162" rx="37.85" ry="18"/>
<text text-anchor="middle" x="2512" y="-159.5" font-family="Helvetica,sans-Serif" font-size="10.00">BOOLEAN</text>
</g>
<!-- n54&#45;&gt;n58 -->
<g id="edge58" class="edge">
<title>n54&#45;&gt;n58</title>
<path fill="none" stroke="black" d="M2480.38,-215.7C2485.13,-207.78 2490.86,-198.23 2496.14,-189.44"/>
<polygon fill="black" stroke="black" points="2499.1,-191.3 2501.25,-180.92 2493.1,-187.69 2499.1,-191.3"/>
</g>
<!-- n59 -->
<g id="node60" class="node">
<title>n59</title>
<ellipse fill="#b2dfee" stroke="#b2dfee" cx="2595" cy="-162" rx="27" ry="18"/>
<text text-anchor="middle" x="2595" y="-159.5" font-family="Helvetica,sans-Serif" font-size="10.00">=</text>
</g>
<!-- n54&#45;&gt;n59 -->
<g id="edge59" class="edge">
<title>n54&#45;&gt;n59</title>
<path fill="none" stroke="black" d="M2498.99,-216.76C2518.77,-205.69 2544.9,-191.06 2564.9,-179.85"/>
<polygon fill="black" stroke="black" points="2566.41,-183.02 2573.42,-175.08 2562.99,-176.92 2566.41,-183.02"/>
</g>
<!-- n60 -->
<g id="node61" class="node">
<title>n60</title>
<ellipse fill="#b2dfee" stroke="#b2dfee" cx="2667" cy="-162" rx="27" ry="18"/>
<text text-anchor="middle" x="2667" y="-159.5" font-family="Helvetica,sans-Serif" font-size="10.00">FIND</text>
</g>
<!-- n54&#45;&gt;n60 -->
<g id="edge60" class="edge">
<title>n54&#45;&gt;n60</title>
<path fill="none" stroke="black" d="M2518.46,-218.76C2550.71,-208.86 2593.83,-194.83 2631,-180 2632.52,-179.39 2634.08,-178.75 2635.64,-178.09"/>
<polygon fill="black" stroke="black" points="2636.79,-181.4 2644.49,-174.13 2633.93,-175.01 2636.79,-181.4"/>
</g>
<!-- n68 -->
<g id="node69" class="node">
<title>n68</title>
<ellipse fill="#b2dfee" stroke="#b2dfee" cx="2739" cy="-162" rx="27" ry="18"/>
<text text-anchor="middle" x="2739" y="-159.5" font-family="Helvetica,sans-Serif" font-size="10.00">;</text>
</g>
<!-- n54&#45;&gt;n68 -->
<g id="edge68" class="edge">
<title>n54&#45;&gt;n68</title>
<path fill="none" stroke="black" d="M2535.59,-222.03C2582.87,-213.18 2647.81,-199.05 2703,-180 2704.55,-179.46 2706.13,-178.88 2707.7,-178.27"/>
<polygon fill="black" stroke="black" points="2708.8,-181.61 2716.61,-174.45 2706.04,-175.17 2708.8,-181.61"/>
</g>
<!-- n61 -->
<g id="node62" class="node">
<title>n61</title>
<ellipse fill="#b2dfee" stroke="#b2dfee" cx="2487" cy="-90" rx="27" ry="18"/>
<text text-anchor="middle" x="2487" y="-87.5" font-family="Helvetica,sans-Serif" font-size="10.00">FIND</text>
</g>
<!-- n60&#45;&gt;n61 -->
<g id="edge61" class="edge">
<title>n60&#45;&gt;n61</title>
<path fill="none" stroke="black" d="M2645.87,-150.51C2641.03,-148.25 2635.88,-145.96 2631,-144 2584.04,-125.16 2569.96,-126.84 2523,-108 2521.48,-107.39 2519.93,-106.74 2518.37,-106.08"/>
<polygon fill="black" stroke="black" points="2520.07,-103.01 2509.52,-102.11 2517.21,-109.4 2520.07,-103.01"/>
</g>
<!-- n62 -->
<g id="node63" class="node">
<title>n62</title>
<ellipse fill="#b2dfee" stroke="#b2dfee" cx="2559" cy="-90" rx="27" ry="18"/>
<text text-anchor="middle" x="2559" y="-87.5" font-family="Helvetica,sans-Serif" font-size="10.00">(</text>
</g>
<!-- n60&#45;&gt;n62 -->
<g id="edge62" class="edge">
<title>n60&#45;&gt;n62</title>
<path fill="none" stroke="black" d="M2648.19,-148.81C2631.41,-137.93 2606.61,-121.86 2587.41,-109.42"/>
<polygon fill="black" stroke="black" points="2589.52,-106.61 2579.23,-104.11 2585.72,-112.49 2589.52,-106.61"/>
</g>
<!-- n63 -->
<g id="node64" class="node">
<title>n63</title>
<ellipse fill="#b2dfee" stroke="#b2dfee" cx="2631" cy="-90" rx="27" ry="18"/>
<text text-anchor="middle" x="2631" y="-87.5" font-family="Helvetica,sans-Serif" font-size="10.00">l</text>
</g>
<!-- n60&#45;&gt;n63 -->
<g id="edge63" class="edge">
<title>n60&#45;&gt;n63</title>
<path fill="none" stroke="black" d="M2658.65,-144.76C2654.42,-136.55 2649.19,-126.37 2644.42,-117.09"/>
<polygon fill="black" stroke="black" points="2647.68,-115.79 2640,-108.49 2641.46,-118.99 2647.68,-115.79"/>
</g>
<!-- n64 -->
<g id="node65" class="node">
<title>n64</title>
<ellipse fill="#b2dfee" stroke="#b2dfee" cx="2703" cy="-90" rx="27" ry="18"/>
<text text-anchor="middle" x="2703" y="-87.5" font-family="Helvetica,sans-Serif" font-size="10.00">,</text>
</g>
<!-- n60&#45;&gt;n64 -->
<g id="edge64" class="edge">
<title>n60&#45;&gt;n64</title>
<path fill="none" stroke="black" d="M2675.35,-144.76C2679.58,-136.55 2684.81,-126.37 2689.58,-117.09"/>
<polygon fill="black" stroke="black" points="2692.54,-118.99 2694,-108.49 2686.32,-115.79 2692.54,-118.99"/>
</g>
<!-- n65 -->
<g id="node66" class="node">
<title>n65</title>
<ellipse fill="#b2dfee" stroke="#b2dfee" cx="2775" cy="-90" rx="27" ry="18"/>
<text text-anchor="middle" x="2775" y="-87.5" font-family="Helvetica,sans-Serif" font-size="10.00">INT</text>
</g>
<!-- n60&#45;&gt;n65 -->
<g id="edge65" class="edge">
<title>n60&#45;&gt;n65</title>
<path fill="none" stroke="black" d="M2685.81,-148.81C2702.59,-137.93 2727.39,-121.86 2746.59,-109.42"/>
<polygon fill="black" stroke="black" points="2748.28,-112.49 2754.77,-104.11 2744.48,-106.61 2748.28,-112.49"/>
</g>
<!-- n67 -->
<g id="node68" class="node">
<title>n67</title>
<ellipse fill="#b2dfee" stroke="#b2dfee" cx="2847" cy="-90" rx="27" ry="18"/>
<text text-anchor="middle" x="2847" y="-87.5" font-family="Helvetica,sans-Serif" font-size="10.00">)</text>
</g>
<!-- n60&#45;&gt;n67 -->
<g id="edge67" class="edge">
<title>n60&#45;&gt;n67</title>
<path fill="none" stroke="black" d="M2688.13,-150.51C2692.97,-148.25 2698.12,-145.96 2703,-144 2749.96,-125.16 2764.04,-126.84 2811,-108 2812.52,-107.39 2814.07,-106.74 2815.63,-106.08"/>
<polygon fill="black" stroke="black" points="2816.79,-109.4 2824.48,-102.11 2813.93,-103.01 2816.79,-109.4"/>
</g>
<!-- n66 -->
<g id="node67" class="node">
<title>n66</title>
<ellipse fill="#b2dfee" stroke="#b2dfee" cx="2775" cy="-18" rx="27" ry="18"/>
<text text-anchor="middle" x="2775" y="-15.5" font-family="Helvetica,sans-Serif" font-size="10.00">19</text>
</g>
<!-- n65&#45;&gt;n66 -->
<g id="edge66" class="edge">
<title>n65&#45;&gt;n66</title>
<path fill="none" stroke="black" d="M2775,-71.7C2775,-64.41 2775,-55.73 2775,-47.54"/>
<polygon fill="black" stroke="black" points="2778.5,-47.62 2775,-37.62 2771.5,-47.62 2778.5,-47.62"/>
</g>
<!-- n70 -->
<g id="node71" class="node">
<title>n70</title>
<ellipse fill="#b2dfee" stroke="#b2dfee" cx="2811" cy="-162" rx="27" ry="18"/>
<text text-anchor="middle" x="2811" y="-159.5" font-family="Helvetica,sans-Serif" font-size="10.00">Println</text>
</g>
<!-- n69&#45;&gt;n70 -->
<g id="edge70" class="edge">
<title>n69&#45;&gt;n70</title>
<path fill="none" stroke="black" d="M2920.83,-220.81C2898.92,-209.27 2865.89,-191.89 2841.77,-179.2"/>
<polygon fill="black" stroke="black" points="2843.54,-176.17 2833.06,-174.61 2840.28,-182.36 2843.54,-176.17"/>
</g>
<!-- n71 -->
<g id="node72" class="node">
<title>n71</title>
<ellipse fill="#b2dfee" stroke="#b2dfee" cx="2883" cy="-162" rx="27" ry="18"/>
<text text-anchor="middle" x="2883" y="-159.5" font-family="Helvetica,sans-Serif" font-size="10.00">(</text>
</g>
<!-- n69&#45;&gt;n71 -->
<g id="edge71" class="edge">
<title>n69&#45;&gt;n71</title>
<path fill="none" stroke="black" d="M2930.46,-217.46C2922.54,-208.37 2912.37,-196.7 2903.48,-186.5"/>
<polygon fill="black" stroke="black" points="2906.28,-184.39 2897.08,-179.15 2901.01,-188.99 2906.28,-184.39"/>
</g>
<!-- n72 -->
<g id="node73" class="node">
<title>n72</title>
<ellipse fill="#b2dfee" stroke="#b2dfee" cx="3005" cy="-162" rx="77.23" ry="18"/>
<text text-anchor="middle" x="3005" y="-159.5" font-family="Helvetica,sans-Serif" font-size="10.00">RECUPERAR_VARIABLE</text>
</g>
<!-- n69&#45;&gt;n72 -->
<g id="edge72" class="edge">
<title>n69&#45;&gt;n72</title>
<path fill="none" stroke="black" d="M2957.54,-217.46C2964.95,-208.95 2974.33,-198.19 2982.79,-188.48"/>
<polygon fill="black" stroke="black" points="2985.29,-190.94 2989.22,-181.1 2980.02,-186.34 2985.29,-190.94"/>
</g>
<!-- n74 -->
<g id="node75" class="node">
<title>n74</title>
<ellipse fill="#b2dfee" stroke="#b2dfee" cx="3127" cy="-162" rx="27" ry="18"/>
<text text-anchor="middle" x="3127" y="-159.5" font-family="Helvetica,sans-Serif" font-size="10.00">)</text>
</g>
<!-- n69&#45;&gt;n74 -->
<g id="edge74" class="edge">
<title>n69&#45;&gt;n74</title>
<path fill="none" stroke="black" d="M2971.66,-223.9C3001.44,-213.91 3050.04,-197.01 3091,-180 3092.52,-179.37 3094.06,-178.71 3095.62,-178.03"/>
<polygon fill="black" stroke="black" points="3096.79,-181.35 3104.45,-174.03 3093.9,-174.97 3096.79,-181.35"/>
</g>
<!-- n75 -->
<g id="node76" class="node">
<title>n75</title>
<ellipse fill="#b2dfee" stroke="#b2dfee" cx="3199" cy="-162" rx="27" ry="18"/>
<text text-anchor="middle" x="3199" y="-159.5" font-family="Helvetica,sans-Serif" font-size="10.00">;</text>
</g>
<!-- n69&#45;&gt;n75 -->
<g id="edge75" class="edge">
<title>n69&#45;&gt;n75</title>
<path fill="none" stroke="black" d="M2975.04,-227.56C3018.01,-219.56 3097.71,-203.05 3163,-180 3164.55,-179.45 3166.12,-178.86 3167.69,-178.24"/>
<polygon fill="black" stroke="black" points="3168.8,-181.58 3176.59,-174.4 3166.02,-175.15 3168.8,-181.58"/>
</g>
<!-- n73 -->
<g id="node74" class="node">
<title>n73</title>
<ellipse fill="#b2dfee" stroke="#b2dfee" cx="3005" cy="-90" rx="27" ry="18"/>
<text text-anchor="middle" x="3005" y="-87.5" font-family="Helvetica,sans-Serif" font-size="10.00">flag</text>
</g>
<!-- n72&#45;&gt;n73 -->
<g id="edge73" class="edge">
<title>n72&#45;&gt;n73</title>
<path fill="none" stroke="black" d="M3005,-143.7C3005,-136.41 3005,-127.73 3005,-119.54"/>
<polygon fill="black" stroke="black" points="3008.5,-119.62 3005,-109.62 3001.5,-119.62 3008.5,-119.62"/>
</g>
</g>
</svg>
