<?xml version="1.0" encoding="UTF-8" standalone="no"?>
<!DOCTYPE svg PUBLIC "-//W3C//DTD SVG 1.1//EN"
 "http://www.w3.org/Graphics/SVG/1.1/DTD/svg11.dtd">
<!-- Generated by graphviz version 7.1.0 (20230121.1956)
 -->
<!-- Title: arbolAST Pages: 1 -->
<svg width="1558pt" height="332pt"
 viewBox="0.00 0.00 1558.00 332.00" xmlns="http://www.w3.org/2000/svg" xmlns:xlink="http://www.w3.org/1999/xlink">
<g id="graph0" class="graph" transform="scale(1 1) rotate(0) translate(4 328)">
<title>arbolAST</title>
<polygon fill="white" stroke="none" points="-4,4 -4,-328 1554,-328 1554,4 -4,4"/>
<!-- n0 -->
<g id="node1" class="node">
<title>n0</title>
<ellipse fill="#b2dfee" stroke="#b2dfee" cx="747" cy="-306" rx="27" ry="18"/>
<text text-anchor="middle" x="747" y="-303.5" font-family="Helvetica,sans-Serif" font-size="10.00">INICIO</text>
</g>
<!-- n1 -->
<g id="node2" class="node">
<title>n1</title>
<ellipse fill="#b2dfee" stroke="#b2dfee" cx="747" cy="-234" rx="55.85" ry="18"/>
<text text-anchor="middle" x="747" y="-231.5" font-family="Helvetica,sans-Serif" font-size="10.00">INSTRUCCIONES</text>
</g>
<!-- n0&#45;&gt;n1 -->
<g id="edge1" class="edge">
<title>n0&#45;&gt;n1</title>
<path fill="none" stroke="black" d="M747,-287.7C747,-280.41 747,-271.73 747,-263.54"/>
<polygon fill="black" stroke="black" points="750.5,-263.62 747,-253.62 743.5,-263.62 750.5,-263.62"/>
</g>
<!-- n2 -->
<g id="node3" class="node">
<title>n2</title>
<ellipse fill="#b2dfee" stroke="#b2dfee" cx="279" cy="-162" rx="85.89" ry="18"/>
<text text-anchor="middle" x="279" y="-159.5" font-family="Helvetica,sans-Serif" font-size="10.00">DECLARACION_VARIABLES</text>
</g>
<!-- n1&#45;&gt;n2 -->
<g id="edge2" class="edge">
<title>n1&#45;&gt;n2</title>
<path fill="none" stroke="black" d="M697.36,-225.58C616.46,-213.48 455.51,-189.4 358.53,-174.9"/>
<polygon fill="black" stroke="black" points="359.22,-171.46 348.82,-173.44 358.19,-178.38 359.22,-171.46"/>
</g>
<!-- n11 -->
<g id="node12" class="node">
<title>n11</title>
<ellipse fill="#b2dfee" stroke="#b2dfee" cx="747" cy="-162" rx="85.89" ry="18"/>
<text text-anchor="middle" x="747" y="-159.5" font-family="Helvetica,sans-Serif" font-size="10.00">DECLARACION_VARIABLES</text>
</g>
<!-- n1&#45;&gt;n11 -->
<g id="edge11" class="edge">
<title>n1&#45;&gt;n11</title>
<path fill="none" stroke="black" d="M747,-215.7C747,-208.41 747,-199.73 747,-191.54"/>
<polygon fill="black" stroke="black" points="750.5,-191.62 747,-181.62 743.5,-191.62 750.5,-191.62"/>
</g>
<!-- n20 -->
<g id="node21" class="node">
<title>n20</title>
<ellipse fill="#b2dfee" stroke="#b2dfee" cx="1268" cy="-162" rx="32.93" ry="18"/>
<text text-anchor="middle" x="1268" y="-159.5" font-family="Helvetica,sans-Serif" font-size="10.00">PRINTLN</text>
</g>
<!-- n1&#45;&gt;n20 -->
<g id="edge20" class="edge">
<title>n1&#45;&gt;n20</title>
<path fill="none" stroke="black" d="M797.9,-226.16C900.28,-212.41 1129.43,-181.62 1224.93,-168.79"/>
<polygon fill="black" stroke="black" points="1225.22,-172.28 1234.67,-167.48 1224.29,-165.34 1225.22,-172.28"/>
</g>
<!-- n3 -->
<g id="node4" class="node">
<title>n3</title>
<ellipse fill="#b2dfee" stroke="#b2dfee" cx="27" cy="-90" rx="27" ry="18"/>
<text text-anchor="middle" x="27" y="-87.5" font-family="Helvetica,sans-Serif" font-size="10.00">var</text>
</g>
<!-- n2&#45;&gt;n3 -->
<g id="edge3" class="edge">
<title>n2&#45;&gt;n3</title>
<path fill="none" stroke="black" d="M217.05,-149.25C173.34,-140.13 113.76,-126.01 63,-108 61.45,-107.45 59.88,-106.86 58.31,-106.23"/>
<polygon fill="black" stroke="black" points="59.98,-103.14 49.41,-102.39 57.2,-109.57 59.98,-103.14"/>
</g>
<!-- n4 -->
<g id="node5" class="node">
<title>n4</title>
<ellipse fill="#b2dfee" stroke="#b2dfee" cx="99" cy="-90" rx="27" ry="18"/>
<text text-anchor="middle" x="99" y="-87.5" font-family="Helvetica,sans-Serif" font-size="10.00">i</text>
</g>
<!-- n2&#45;&gt;n4 -->
<g id="edge4" class="edge">
<title>n2&#45;&gt;n4</title>
<path fill="none" stroke="black" d="M235.45,-146.1C206.68,-135.98 168.29,-121.95 135,-108 133.49,-107.37 131.94,-106.7 130.39,-106.02"/>
<polygon fill="black" stroke="black" points="132.11,-102.96 121.56,-102.01 129.21,-109.33 132.11,-102.96"/>
</g>
<!-- n5 -->
<g id="node6" class="node">
<title>n5</title>
<ellipse fill="#b2dfee" stroke="#b2dfee" cx="171" cy="-90" rx="27" ry="18"/>
<text text-anchor="middle" x="171" y="-87.5" font-family="Helvetica,sans-Serif" font-size="10.00">:</text>
</g>
<!-- n2&#45;&gt;n5 -->
<g id="edge5" class="edge">
<title>n2&#45;&gt;n5</title>
<path fill="none" stroke="black" d="M253.41,-144.41C237.14,-133.87 216.06,-120.21 199.29,-109.34"/>
<polygon fill="black" stroke="black" points="201.56,-106.63 191.26,-104.13 197.75,-112.51 201.56,-106.63"/>
</g>
<!-- n6 -->
<g id="node7" class="node">
<title>n6</title>
<ellipse fill="#b2dfee" stroke="#b2dfee" cx="243" cy="-90" rx="27" ry="18"/>
<text text-anchor="middle" x="243" y="-87.5" font-family="Helvetica,sans-Serif" font-size="10.00">INT</text>
</g>
<!-- n2&#45;&gt;n6 -->
<g id="edge6" class="edge">
<title>n2&#45;&gt;n6</title>
<path fill="none" stroke="black" d="M270.1,-143.7C266.02,-135.75 261.08,-126.16 256.55,-117.34"/>
<polygon fill="black" stroke="black" points="259.68,-115.78 252,-108.49 253.46,-118.98 259.68,-115.78"/>
</g>
<!-- n7 -->
<g id="node8" class="node">
<title>n7</title>
<ellipse fill="#b2dfee" stroke="#b2dfee" cx="315" cy="-90" rx="27" ry="18"/>
<text text-anchor="middle" x="315" y="-87.5" font-family="Helvetica,sans-Serif" font-size="10.00">=</text>
</g>
<!-- n2&#45;&gt;n7 -->
<g id="edge7" class="edge">
<title>n2&#45;&gt;n7</title>
<path fill="none" stroke="black" d="M287.9,-143.7C291.98,-135.75 296.92,-126.16 301.45,-117.34"/>
<polygon fill="black" stroke="black" points="304.54,-118.98 306,-108.49 298.32,-115.78 304.54,-118.98"/>
</g>
<!-- n8 -->
<g id="node9" class="node">
<title>n8</title>
<ellipse fill="#b2dfee" stroke="#b2dfee" cx="387" cy="-90" rx="27" ry="18"/>
<text text-anchor="middle" x="387" y="-87.5" font-family="Helvetica,sans-Serif" font-size="10.00">INT</text>
</g>
<!-- n2&#45;&gt;n8 -->
<g id="edge8" class="edge">
<title>n2&#45;&gt;n8</title>
<path fill="none" stroke="black" d="M304.59,-144.41C320.86,-133.87 341.94,-120.21 358.71,-109.34"/>
<polygon fill="black" stroke="black" points="360.25,-112.51 366.74,-104.13 356.44,-106.63 360.25,-112.51"/>
</g>
<!-- n10 -->
<g id="node11" class="node">
<title>n10</title>
<ellipse fill="#b2dfee" stroke="#b2dfee" cx="459" cy="-90" rx="27" ry="18"/>
<text text-anchor="middle" x="459" y="-87.5" font-family="Helvetica,sans-Serif" font-size="10.00">;</text>
</g>
<!-- n2&#45;&gt;n10 -->
<g id="edge10" class="edge">
<title>n2&#45;&gt;n10</title>
<path fill="none" stroke="black" d="M322.55,-146.1C351.32,-135.98 389.71,-121.95 423,-108 424.51,-107.37 426.06,-106.7 427.61,-106.02"/>
<polygon fill="black" stroke="black" points="428.79,-109.33 436.44,-102.01 425.89,-102.96 428.79,-109.33"/>
</g>
<!-- n9 -->
<g id="node10" class="node">
<title>n9</title>
<ellipse fill="#b2dfee" stroke="#b2dfee" cx="387" cy="-18" rx="27" ry="18"/>
<text text-anchor="middle" x="387" y="-15.5" font-family="Helvetica,sans-Serif" font-size="10.00">4</text>
</g>
<!-- n8&#45;&gt;n9 -->
<g id="edge9" class="edge">
<title>n8&#45;&gt;n9</title>
<path fill="none" stroke="black" d="M387,-71.7C387,-64.41 387,-55.73 387,-47.54"/>
<polygon fill="black" stroke="black" points="390.5,-47.62 387,-37.62 383.5,-47.62 390.5,-47.62"/>
</g>
<!-- n12 -->
<g id="node13" class="node">
<title>n12</title>
<ellipse fill="#b2dfee" stroke="#b2dfee" cx="531" cy="-90" rx="27" ry="18"/>
<text text-anchor="middle" x="531" y="-87.5" font-family="Helvetica,sans-Serif" font-size="10.00">var</text>
</g>
<!-- n11&#45;&gt;n12 -->
<g id="edge12" class="edge">
<title>n11&#45;&gt;n12</title>
<path fill="none" stroke="black" d="M693.51,-147.58C657.33,-137.94 608.71,-123.88 567,-108 565.47,-107.42 563.91,-106.79 562.34,-106.15"/>
<polygon fill="black" stroke="black" points="564.03,-103.07 553.47,-102.23 561.21,-109.47 564.03,-103.07"/>
</g>
<!-- n13 -->
<g id="node14" class="node">
<title>n13</title>
<ellipse fill="#b2dfee" stroke="#b2dfee" cx="603" cy="-90" rx="27" ry="18"/>
<text text-anchor="middle" x="603" y="-87.5" font-family="Helvetica,sans-Serif" font-size="10.00">a</text>
</g>
<!-- n11&#45;&gt;n13 -->
<g id="edge13" class="edge">
<title>n11&#45;&gt;n13</title>
<path fill="none" stroke="black" d="M713.96,-144.94C690.06,-133.32 657.95,-117.71 634.42,-106.28"/>
<polygon fill="black" stroke="black" points="636.16,-103.23 625.64,-102.01 633.1,-109.53 636.16,-103.23"/>
</g>
<!-- n14 -->
<g id="node15" class="node">
<title>n14</title>
<ellipse fill="#b2dfee" stroke="#b2dfee" cx="675" cy="-90" rx="27" ry="18"/>
<text text-anchor="middle" x="675" y="-87.5" font-family="Helvetica,sans-Serif" font-size="10.00">:</text>
</g>
<!-- n11&#45;&gt;n14 -->
<g id="edge14" class="edge">
<title>n11&#45;&gt;n14</title>
<path fill="none" stroke="black" d="M729.57,-144.05C720.08,-134.82 708.21,-123.29 697.97,-113.33"/>
<polygon fill="black" stroke="black" points="700.53,-110.94 690.92,-106.48 695.65,-115.96 700.53,-110.94"/>
</g>
<!-- n15 -->
<g id="node16" class="node">
<title>n15</title>
<ellipse fill="#b2dfee" stroke="#b2dfee" cx="747" cy="-90" rx="27" ry="18"/>
<text text-anchor="middle" x="747" y="-87.5" font-family="Helvetica,sans-Serif" font-size="10.00">INT</text>
</g>
<!-- n11&#45;&gt;n15 -->
<g id="edge15" class="edge">
<title>n11&#45;&gt;n15</title>
<path fill="none" stroke="black" d="M747,-143.7C747,-136.41 747,-127.73 747,-119.54"/>
<polygon fill="black" stroke="black" points="750.5,-119.62 747,-109.62 743.5,-119.62 750.5,-119.62"/>
</g>
<!-- n16 -->
<g id="node17" class="node">
<title>n16</title>
<ellipse fill="#b2dfee" stroke="#b2dfee" cx="819" cy="-90" rx="27" ry="18"/>
<text text-anchor="middle" x="819" y="-87.5" font-family="Helvetica,sans-Serif" font-size="10.00">=</text>
</g>
<!-- n11&#45;&gt;n16 -->
<g id="edge16" class="edge">
<title>n11&#45;&gt;n16</title>
<path fill="none" stroke="black" d="M764.43,-144.05C773.92,-134.82 785.79,-123.29 796.03,-113.33"/>
<polygon fill="black" stroke="black" points="798.35,-115.96 803.08,-106.48 793.47,-110.94 798.35,-115.96"/>
</g>
<!-- n17 -->
<g id="node18" class="node">
<title>n17</title>
<ellipse fill="#b2dfee" stroke="#b2dfee" cx="941" cy="-90" rx="77.23" ry="18"/>
<text text-anchor="middle" x="941" y="-87.5" font-family="Helvetica,sans-Serif" font-size="10.00">RECUPERAR_VARIABLE</text>
</g>
<!-- n11&#45;&gt;n17 -->
<g id="edge17" class="edge">
<title>n11&#45;&gt;n17</title>
<path fill="none" stroke="black" d="M788.62,-145.98C818.2,-135.31 858.11,-120.91 889.67,-109.52"/>
<polygon fill="black" stroke="black" points="890.81,-112.83 899.02,-106.15 888.43,-106.25 890.81,-112.83"/>
</g>
<!-- n19 -->
<g id="node20" class="node">
<title>n19</title>
<ellipse fill="#b2dfee" stroke="#b2dfee" cx="1063" cy="-90" rx="27" ry="18"/>
<text text-anchor="middle" x="1063" y="-87.5" font-family="Helvetica,sans-Serif" font-size="10.00">;</text>
</g>
<!-- n11&#45;&gt;n19 -->
<g id="edge19" class="edge">
<title>n11&#45;&gt;n19</title>
<path fill="none" stroke="black" d="M820.5,-152.29C877.73,-144.27 958.65,-130.2 1027,-108 1028.6,-107.48 1030.23,-106.9 1031.85,-106.29"/>
<polygon fill="black" stroke="black" points="1033.19,-109.52 1041.03,-102.4 1030.46,-103.08 1033.19,-109.52"/>
</g>
<!-- n18 -->
<g id="node19" class="node">
<title>n18</title>
<ellipse fill="#b2dfee" stroke="#b2dfee" cx="941" cy="-18" rx="27" ry="18"/>
<text text-anchor="middle" x="941" y="-15.5" font-family="Helvetica,sans-Serif" font-size="10.00">a</text>
</g>
<!-- n17&#45;&gt;n18 -->
<g id="edge18" class="edge">
<title>n17&#45;&gt;n18</title>
<path fill="none" stroke="black" d="M941,-71.7C941,-64.41 941,-55.73 941,-47.54"/>
<polygon fill="black" stroke="black" points="944.5,-47.62 941,-37.62 937.5,-47.62 944.5,-47.62"/>
</g>
<!-- n21 -->
<g id="node22" class="node">
<title>n21</title>
<ellipse fill="#b2dfee" stroke="#b2dfee" cx="1135" cy="-90" rx="27" ry="18"/>
<text text-anchor="middle" x="1135" y="-87.5" font-family="Helvetica,sans-Serif" font-size="10.00">Println</text>
</g>
<!-- n20&#45;&gt;n21 -->
<g id="edge21" class="edge">
<title>n20&#45;&gt;n21</title>
<path fill="none" stroke="black" d="M1244.83,-148.81C1222.92,-137.27 1189.89,-119.89 1165.77,-107.2"/>
<polygon fill="black" stroke="black" points="1167.54,-104.17 1157.06,-102.61 1164.28,-110.36 1167.54,-104.17"/>
</g>
<!-- n22 -->
<g id="node23" class="node">
<title>n22</title>
<ellipse fill="#b2dfee" stroke="#b2dfee" cx="1207" cy="-90" rx="27" ry="18"/>
<text text-anchor="middle" x="1207" y="-87.5" font-family="Helvetica,sans-Serif" font-size="10.00">(</text>
</g>
<!-- n20&#45;&gt;n22 -->
<g id="edge22" class="edge">
<title>n20&#45;&gt;n22</title>
<path fill="none" stroke="black" d="M1254.46,-145.46C1246.54,-136.37 1236.37,-124.7 1227.48,-114.5"/>
<polygon fill="black" stroke="black" points="1230.28,-112.39 1221.08,-107.15 1225.01,-116.99 1230.28,-112.39"/>
</g>
<!-- n23 -->
<g id="node24" class="node">
<title>n23</title>
<ellipse fill="#b2dfee" stroke="#b2dfee" cx="1329" cy="-90" rx="77.23" ry="18"/>
<text text-anchor="middle" x="1329" y="-87.5" font-family="Helvetica,sans-Serif" font-size="10.00">RECUPERAR_VARIABLE</text>
</g>
<!-- n20&#45;&gt;n23 -->
<g id="edge23" class="edge">
<title>n20&#45;&gt;n23</title>
<path fill="none" stroke="black" d="M1281.54,-145.46C1288.95,-136.95 1298.33,-126.19 1306.79,-116.48"/>
<polygon fill="black" stroke="black" points="1309.29,-118.94 1313.22,-109.1 1304.02,-114.34 1309.29,-118.94"/>
</g>
<!-- n25 -->
<g id="node26" class="node">
<title>n25</title>
<ellipse fill="#b2dfee" stroke="#b2dfee" cx="1451" cy="-90" rx="27" ry="18"/>
<text text-anchor="middle" x="1451" y="-87.5" font-family="Helvetica,sans-Serif" font-size="10.00">)</text>
</g>
<!-- n20&#45;&gt;n25 -->
<g id="edge25" class="edge">
<title>n20&#45;&gt;n25</title>
<path fill="none" stroke="black" d="M1295.66,-151.9C1325.44,-141.91 1374.04,-125.01 1415,-108 1416.52,-107.37 1418.06,-106.71 1419.62,-106.03"/>
<polygon fill="black" stroke="black" points="1420.79,-109.35 1428.45,-102.03 1417.9,-102.97 1420.79,-109.35"/>
</g>
<!-- n26 -->
<g id="node27" class="node">
<title>n26</title>
<ellipse fill="#b2dfee" stroke="#b2dfee" cx="1523" cy="-90" rx="27" ry="18"/>
<text text-anchor="middle" x="1523" y="-87.5" font-family="Helvetica,sans-Serif" font-size="10.00">;</text>
</g>
<!-- n20&#45;&gt;n26 -->
<g id="edge26" class="edge">
<title>n20&#45;&gt;n26</title>
<path fill="none" stroke="black" d="M1299.04,-155.56C1342.01,-147.56 1421.71,-131.05 1487,-108 1488.55,-107.45 1490.12,-106.86 1491.69,-106.24"/>
<polygon fill="black" stroke="black" points="1492.8,-109.58 1500.59,-102.4 1490.02,-103.15 1492.8,-109.58"/>
</g>
<!-- n24 -->
<g id="node25" class="node">
<title>n24</title>
<ellipse fill="#b2dfee" stroke="#b2dfee" cx="1329" cy="-18" rx="27" ry="18"/>
<text text-anchor="middle" x="1329" y="-15.5" font-family="Helvetica,sans-Serif" font-size="10.00">a</text>
</g>
<!-- n23&#45;&gt;n24 -->
<g id="edge24" class="edge">
<title>n23&#45;&gt;n24</title>
<path fill="none" stroke="black" d="M1329,-71.7C1329,-64.41 1329,-55.73 1329,-47.54"/>
<polygon fill="black" stroke="black" points="1332.5,-47.62 1329,-37.62 1325.5,-47.62 1332.5,-47.62"/>
</g>
</g>
</svg>
