<?xml version="1.0" encoding="UTF-8" standalone="no"?>
<!DOCTYPE svg PUBLIC "-//W3C//DTD SVG 1.1//EN"
 "http://www.w3.org/Graphics/SVG/1.1/DTD/svg11.dtd">
<!-- Generated by graphviz version 7.1.0 (20230121.1956)
 -->
<!-- Title: arbolAST Pages: 1 -->
<svg width="1988pt" height="404pt"
 viewBox="0.00 0.00 1988.00 404.00" xmlns="http://www.w3.org/2000/svg" xmlns:xlink="http://www.w3.org/1999/xlink">
<g id="graph0" class="graph" transform="scale(1 1) rotate(0) translate(4 400)">
<title>arbolAST</title>
<polygon fill="white" stroke="none" points="-4,4 -4,-400 1984,-400 1984,4 -4,4"/>
<!-- n0 -->
<g id="node1" class="node">
<title>n0</title>
<ellipse fill="#b2dfee" stroke="#b2dfee" cx="747" cy="-378" rx="27" ry="18"/>
<text text-anchor="middle" x="747" y="-375.5" font-family="Helvetica,sans-Serif" font-size="10.00">INICIO</text>
</g>
<!-- n1 -->
<g id="node2" class="node">
<title>n1</title>
<ellipse fill="#b2dfee" stroke="#b2dfee" cx="747" cy="-306" rx="55.85" ry="18"/>
<text text-anchor="middle" x="747" y="-303.5" font-family="Helvetica,sans-Serif" font-size="10.00">INSTRUCCIONES</text>
</g>
<!-- n0&#45;&gt;n1 -->
<g id="edge1" class="edge">
<title>n0&#45;&gt;n1</title>
<path fill="none" stroke="black" d="M747,-359.7C747,-352.41 747,-343.73 747,-335.54"/>
<polygon fill="black" stroke="black" points="750.5,-335.62 747,-325.62 743.5,-335.62 750.5,-335.62"/>
</g>
<!-- n2 -->
<g id="node3" class="node">
<title>n2</title>
<ellipse fill="#b2dfee" stroke="#b2dfee" cx="279" cy="-234" rx="85.89" ry="18"/>
<text text-anchor="middle" x="279" y="-231.5" font-family="Helvetica,sans-Serif" font-size="10.00">DECLARACION_VARIABLES</text>
</g>
<!-- n1&#45;&gt;n2 -->
<g id="edge2" class="edge">
<title>n1&#45;&gt;n2</title>
<path fill="none" stroke="black" d="M697.36,-297.58C616.46,-285.48 455.51,-261.4 358.53,-246.9"/>
<polygon fill="black" stroke="black" points="359.22,-243.46 348.82,-245.44 358.19,-250.38 359.22,-243.46"/>
</g>
<!-- n11 -->
<g id="node12" class="node">
<title>n11</title>
<ellipse fill="#b2dfee" stroke="#b2dfee" cx="747" cy="-234" rx="85.89" ry="18"/>
<text text-anchor="middle" x="747" y="-231.5" font-family="Helvetica,sans-Serif" font-size="10.00">DECLARACION_VARIABLES</text>
</g>
<!-- n1&#45;&gt;n11 -->
<g id="edge11" class="edge">
<title>n1&#45;&gt;n11</title>
<path fill="none" stroke="black" d="M747,-287.7C747,-280.41 747,-271.73 747,-263.54"/>
<polygon fill="black" stroke="black" points="750.5,-263.62 747,-253.62 743.5,-263.62 750.5,-263.62"/>
</g>
<!-- n20 -->
<g id="node21" class="node">
<title>n20</title>
<ellipse fill="#b2dfee" stroke="#b2dfee" cx="1353" cy="-234" rx="27.84" ry="18"/>
<text text-anchor="middle" x="1353" y="-231.5" font-family="Helvetica,sans-Serif" font-size="10.00">WHILE</text>
</g>
<!-- n1&#45;&gt;n20 -->
<g id="edge20" class="edge">
<title>n1&#45;&gt;n20</title>
<path fill="none" stroke="black" d="M798.93,-299C918.17,-285.23 1209.38,-251.59 1314.42,-239.46"/>
<polygon fill="black" stroke="black" points="1314.68,-242.95 1324.21,-238.33 1313.88,-236 1314.68,-242.95"/>
</g>
<!-- n3 -->
<g id="node4" class="node">
<title>n3</title>
<ellipse fill="#b2dfee" stroke="#b2dfee" cx="27" cy="-162" rx="27" ry="18"/>
<text text-anchor="middle" x="27" y="-159.5" font-family="Helvetica,sans-Serif" font-size="10.00">var</text>
</g>
<!-- n2&#45;&gt;n3 -->
<g id="edge3" class="edge">
<title>n2&#45;&gt;n3</title>
<path fill="none" stroke="black" d="M217.05,-221.25C173.34,-212.13 113.76,-198.01 63,-180 61.45,-179.45 59.88,-178.86 58.31,-178.23"/>
<polygon fill="black" stroke="black" points="59.98,-175.14 49.41,-174.39 57.2,-181.57 59.98,-175.14"/>
</g>
<!-- n4 -->
<g id="node5" class="node">
<title>n4</title>
<ellipse fill="#b2dfee" stroke="#b2dfee" cx="99" cy="-162" rx="27" ry="18"/>
<text text-anchor="middle" x="99" y="-159.5" font-family="Helvetica,sans-Serif" font-size="10.00">j</text>
</g>
<!-- n2&#45;&gt;n4 -->
<g id="edge4" class="edge">
<title>n2&#45;&gt;n4</title>
<path fill="none" stroke="black" d="M235.45,-218.1C206.68,-207.98 168.29,-193.95 135,-180 133.49,-179.37 131.94,-178.7 130.39,-178.02"/>
<polygon fill="black" stroke="black" points="132.11,-174.96 121.56,-174.01 129.21,-181.33 132.11,-174.96"/>
</g>
<!-- n5 -->
<g id="node6" class="node">
<title>n5</title>
<ellipse fill="#b2dfee" stroke="#b2dfee" cx="171" cy="-162" rx="27" ry="18"/>
<text text-anchor="middle" x="171" y="-159.5" font-family="Helvetica,sans-Serif" font-size="10.00">:</text>
</g>
<!-- n2&#45;&gt;n5 -->
<g id="edge5" class="edge">
<title>n2&#45;&gt;n5</title>
<path fill="none" stroke="black" d="M253.41,-216.41C237.14,-205.87 216.06,-192.21 199.29,-181.34"/>
<polygon fill="black" stroke="black" points="201.56,-178.63 191.26,-176.13 197.75,-184.51 201.56,-178.63"/>
</g>
<!-- n6 -->
<g id="node7" class="node">
<title>n6</title>
<ellipse fill="#b2dfee" stroke="#b2dfee" cx="243" cy="-162" rx="27" ry="18"/>
<text text-anchor="middle" x="243" y="-159.5" font-family="Helvetica,sans-Serif" font-size="10.00">INT</text>
</g>
<!-- n2&#45;&gt;n6 -->
<g id="edge6" class="edge">
<title>n2&#45;&gt;n6</title>
<path fill="none" stroke="black" d="M270.1,-215.7C266.02,-207.75 261.08,-198.16 256.55,-189.34"/>
<polygon fill="black" stroke="black" points="259.68,-187.78 252,-180.49 253.46,-190.98 259.68,-187.78"/>
</g>
<!-- n7 -->
<g id="node8" class="node">
<title>n7</title>
<ellipse fill="#b2dfee" stroke="#b2dfee" cx="315" cy="-162" rx="27" ry="18"/>
<text text-anchor="middle" x="315" y="-159.5" font-family="Helvetica,sans-Serif" font-size="10.00">=</text>
</g>
<!-- n2&#45;&gt;n7 -->
<g id="edge7" class="edge">
<title>n2&#45;&gt;n7</title>
<path fill="none" stroke="black" d="M287.9,-215.7C291.98,-207.75 296.92,-198.16 301.45,-189.34"/>
<polygon fill="black" stroke="black" points="304.54,-190.98 306,-180.49 298.32,-187.78 304.54,-190.98"/>
</g>
<!-- n8 -->
<g id="node9" class="node">
<title>n8</title>
<ellipse fill="#b2dfee" stroke="#b2dfee" cx="387" cy="-162" rx="27" ry="18"/>
<text text-anchor="middle" x="387" y="-159.5" font-family="Helvetica,sans-Serif" font-size="10.00">INT</text>
</g>
<!-- n2&#45;&gt;n8 -->
<g id="edge8" class="edge">
<title>n2&#45;&gt;n8</title>
<path fill="none" stroke="black" d="M304.59,-216.41C320.86,-205.87 341.94,-192.21 358.71,-181.34"/>
<polygon fill="black" stroke="black" points="360.25,-184.51 366.74,-176.13 356.44,-178.63 360.25,-184.51"/>
</g>
<!-- n10 -->
<g id="node11" class="node">
<title>n10</title>
<ellipse fill="#b2dfee" stroke="#b2dfee" cx="459" cy="-162" rx="27" ry="18"/>
<text text-anchor="middle" x="459" y="-159.5" font-family="Helvetica,sans-Serif" font-size="10.00">;</text>
</g>
<!-- n2&#45;&gt;n10 -->
<g id="edge10" class="edge">
<title>n2&#45;&gt;n10</title>
<path fill="none" stroke="black" d="M322.55,-218.1C351.32,-207.98 389.71,-193.95 423,-180 424.51,-179.37 426.06,-178.7 427.61,-178.02"/>
<polygon fill="black" stroke="black" points="428.79,-181.33 436.44,-174.01 425.89,-174.96 428.79,-181.33"/>
</g>
<!-- n9 -->
<g id="node10" class="node">
<title>n9</title>
<ellipse fill="#b2dfee" stroke="#b2dfee" cx="387" cy="-90" rx="27" ry="18"/>
<text text-anchor="middle" x="387" y="-87.5" font-family="Helvetica,sans-Serif" font-size="10.00">0</text>
</g>
<!-- n8&#45;&gt;n9 -->
<g id="edge9" class="edge">
<title>n8&#45;&gt;n9</title>
<path fill="none" stroke="black" d="M387,-143.7C387,-136.41 387,-127.73 387,-119.54"/>
<polygon fill="black" stroke="black" points="390.5,-119.62 387,-109.62 383.5,-119.62 390.5,-119.62"/>
</g>
<!-- n12 -->
<g id="node13" class="node">
<title>n12</title>
<ellipse fill="#b2dfee" stroke="#b2dfee" cx="531" cy="-162" rx="27" ry="18"/>
<text text-anchor="middle" x="531" y="-159.5" font-family="Helvetica,sans-Serif" font-size="10.00">var</text>
</g>
<!-- n11&#45;&gt;n12 -->
<g id="edge12" class="edge">
<title>n11&#45;&gt;n12</title>
<path fill="none" stroke="black" d="M693.51,-219.58C657.33,-209.94 608.71,-195.88 567,-180 565.47,-179.42 563.91,-178.79 562.34,-178.15"/>
<polygon fill="black" stroke="black" points="564.03,-175.07 553.47,-174.23 561.21,-181.47 564.03,-175.07"/>
</g>
<!-- n13 -->
<g id="node14" class="node">
<title>n13</title>
<ellipse fill="#b2dfee" stroke="#b2dfee" cx="603" cy="-162" rx="27" ry="18"/>
<text text-anchor="middle" x="603" y="-159.5" font-family="Helvetica,sans-Serif" font-size="10.00">k</text>
</g>
<!-- n11&#45;&gt;n13 -->
<g id="edge13" class="edge">
<title>n11&#45;&gt;n13</title>
<path fill="none" stroke="black" d="M713.96,-216.94C690.06,-205.32 657.95,-189.71 634.42,-178.28"/>
<polygon fill="black" stroke="black" points="636.16,-175.23 625.64,-174.01 633.1,-181.53 636.16,-175.23"/>
</g>
<!-- n14 -->
<g id="node15" class="node">
<title>n14</title>
<ellipse fill="#b2dfee" stroke="#b2dfee" cx="675" cy="-162" rx="27" ry="18"/>
<text text-anchor="middle" x="675" y="-159.5" font-family="Helvetica,sans-Serif" font-size="10.00">:</text>
</g>
<!-- n11&#45;&gt;n14 -->
<g id="edge14" class="edge">
<title>n11&#45;&gt;n14</title>
<path fill="none" stroke="black" d="M729.57,-216.05C720.08,-206.82 708.21,-195.29 697.97,-185.33"/>
<polygon fill="black" stroke="black" points="700.53,-182.94 690.92,-178.48 695.65,-187.96 700.53,-182.94"/>
</g>
<!-- n15 -->
<g id="node16" class="node">
<title>n15</title>
<ellipse fill="#b2dfee" stroke="#b2dfee" cx="747" cy="-162" rx="27" ry="18"/>
<text text-anchor="middle" x="747" y="-159.5" font-family="Helvetica,sans-Serif" font-size="10.00">INT</text>
</g>
<!-- n11&#45;&gt;n15 -->
<g id="edge15" class="edge">
<title>n11&#45;&gt;n15</title>
<path fill="none" stroke="black" d="M747,-215.7C747,-208.41 747,-199.73 747,-191.54"/>
<polygon fill="black" stroke="black" points="750.5,-191.62 747,-181.62 743.5,-191.62 750.5,-191.62"/>
</g>
<!-- n16 -->
<g id="node17" class="node">
<title>n16</title>
<ellipse fill="#b2dfee" stroke="#b2dfee" cx="819" cy="-162" rx="27" ry="18"/>
<text text-anchor="middle" x="819" y="-159.5" font-family="Helvetica,sans-Serif" font-size="10.00">=</text>
</g>
<!-- n11&#45;&gt;n16 -->
<g id="edge16" class="edge">
<title>n11&#45;&gt;n16</title>
<path fill="none" stroke="black" d="M764.43,-216.05C773.92,-206.82 785.79,-195.29 796.03,-185.33"/>
<polygon fill="black" stroke="black" points="798.35,-187.96 803.08,-178.48 793.47,-182.94 798.35,-187.96"/>
</g>
<!-- n17 -->
<g id="node18" class="node">
<title>n17</title>
<ellipse fill="#b2dfee" stroke="#b2dfee" cx="891" cy="-162" rx="27" ry="18"/>
<text text-anchor="middle" x="891" y="-159.5" font-family="Helvetica,sans-Serif" font-size="10.00">INT</text>
</g>
<!-- n11&#45;&gt;n17 -->
<g id="edge17" class="edge">
<title>n11&#45;&gt;n17</title>
<path fill="none" stroke="black" d="M780.04,-216.94C803.94,-205.32 836.05,-189.71 859.58,-178.28"/>
<polygon fill="black" stroke="black" points="860.9,-181.53 868.36,-174.01 857.84,-175.23 860.9,-181.53"/>
</g>
<!-- n19 -->
<g id="node20" class="node">
<title>n19</title>
<ellipse fill="#b2dfee" stroke="#b2dfee" cx="963" cy="-162" rx="27" ry="18"/>
<text text-anchor="middle" x="963" y="-159.5" font-family="Helvetica,sans-Serif" font-size="10.00">;</text>
</g>
<!-- n11&#45;&gt;n19 -->
<g id="edge19" class="edge">
<title>n11&#45;&gt;n19</title>
<path fill="none" stroke="black" d="M800.49,-219.58C836.67,-209.94 885.29,-195.88 927,-180 928.53,-179.42 930.09,-178.79 931.66,-178.15"/>
<polygon fill="black" stroke="black" points="932.79,-181.47 940.53,-174.23 929.97,-175.07 932.79,-181.47"/>
</g>
<!-- n18 -->
<g id="node19" class="node">
<title>n18</title>
<ellipse fill="#b2dfee" stroke="#b2dfee" cx="861" cy="-90" rx="27" ry="18"/>
<text text-anchor="middle" x="861" y="-87.5" font-family="Helvetica,sans-Serif" font-size="10.00">10</text>
</g>
<!-- n17&#45;&gt;n18 -->
<g id="edge18" class="edge">
<title>n17&#45;&gt;n18</title>
<path fill="none" stroke="black" d="M883.89,-144.41C880.49,-136.48 876.33,-126.78 872.5,-117.84"/>
<polygon fill="black" stroke="black" points="875.81,-116.67 868.65,-108.86 869.38,-119.43 875.81,-116.67"/>
</g>
<!-- n21 -->
<g id="node22" class="node">
<title>n21</title>
<ellipse fill="#b2dfee" stroke="#b2dfee" cx="1065" cy="-162" rx="27" ry="18"/>
<text text-anchor="middle" x="1065" y="-159.5" font-family="Helvetica,sans-Serif" font-size="10.00">while</text>
</g>
<!-- n20&#45;&gt;n21 -->
<g id="edge21" class="edge">
<title>n20&#45;&gt;n21</title>
<path fill="none" stroke="black" d="M1325.59,-229.38C1278.71,-222.72 1180.46,-206.71 1101,-180 1099.44,-179.48 1097.87,-178.9 1096.29,-178.3"/>
<polygon fill="black" stroke="black" points="1097.95,-175.2 1087.37,-174.51 1095.2,-181.64 1097.95,-175.2"/>
</g>
<!-- n22 -->
<g id="node23" class="node">
<title>n22</title>
<ellipse fill="#b2dfee" stroke="#b2dfee" cx="1137" cy="-162" rx="27" ry="18"/>
<text text-anchor="middle" x="1137" y="-159.5" font-family="Helvetica,sans-Serif" font-size="10.00">(</text>
</g>
<!-- n20&#45;&gt;n22 -->
<g id="edge22" class="edge">
<title>n20&#45;&gt;n22</title>
<path fill="none" stroke="black" d="M1327.25,-226.76C1291.94,-217.9 1226.74,-200.46 1173,-180 1171.47,-179.42 1169.91,-178.79 1168.34,-178.15"/>
<polygon fill="black" stroke="black" points="1170.03,-175.07 1159.47,-174.23 1167.21,-181.47 1170.03,-175.07"/>
</g>
<!-- n23 -->
<g id="node24" class="node">
<title>n23</title>
<ellipse fill="#b2dfee" stroke="#b2dfee" cx="1227" cy="-162" rx="45.15" ry="18"/>
<text text-anchor="middle" x="1227" y="-159.5" font-family="Helvetica,sans-Serif" font-size="10.00">RELACIONAL</text>
</g>
<!-- n20&#45;&gt;n23 -->
<g id="edge23" class="edge">
<title>n20&#45;&gt;n23</title>
<path fill="none" stroke="black" d="M1332.19,-221.44C1313.28,-210.93 1284.98,-195.21 1262.5,-182.72"/>
<polygon fill="black" stroke="black" points="1264.4,-179.77 1253.95,-177.97 1261,-185.89 1264.4,-179.77"/>
</g>
<!-- n29 -->
<g id="node30" class="node">
<title>n29</title>
<ellipse fill="#b2dfee" stroke="#b2dfee" cx="1317" cy="-162" rx="27" ry="18"/>
<text text-anchor="middle" x="1317" y="-159.5" font-family="Helvetica,sans-Serif" font-size="10.00">)</text>
</g>
<!-- n20&#45;&gt;n29 -->
<g id="edge29" class="edge">
<title>n20&#45;&gt;n29</title>
<path fill="none" stroke="black" d="M1344.47,-216.41C1340.34,-208.39 1335.29,-198.57 1330.65,-189.54"/>
<polygon fill="black" stroke="black" points="1333.85,-188.11 1326.16,-180.82 1327.62,-191.31 1333.85,-188.11"/>
</g>
<!-- n30 -->
<g id="node31" class="node">
<title>n30</title>
<ellipse fill="#b2dfee" stroke="#b2dfee" cx="1389" cy="-162" rx="27" ry="18"/>
<text text-anchor="middle" x="1389" y="-159.5" font-family="Helvetica,sans-Serif" font-size="10.00">{</text>
</g>
<!-- n20&#45;&gt;n30 -->
<g id="edge30" class="edge">
<title>n20&#45;&gt;n30</title>
<path fill="none" stroke="black" d="M1361.53,-216.41C1365.66,-208.39 1370.71,-198.57 1375.35,-189.54"/>
<polygon fill="black" stroke="black" points="1378.38,-191.31 1379.84,-180.82 1372.15,-188.11 1378.38,-191.31"/>
</g>
<!-- n31 -->
<g id="node32" class="node">
<title>n31</title>
<ellipse fill="#b2dfee" stroke="#b2dfee" cx="1467" cy="-162" rx="32.93" ry="18"/>
<text text-anchor="middle" x="1467" y="-159.5" font-family="Helvetica,sans-Serif" font-size="10.00">PRINTLN</text>
</g>
<!-- n20&#45;&gt;n31 -->
<g id="edge31" class="edge">
<title>n20&#45;&gt;n31</title>
<path fill="none" stroke="black" d="M1372.86,-220.81C1390.32,-210.08 1416.02,-194.3 1436.16,-181.94"/>
<polygon fill="black" stroke="black" points="1437.84,-185.01 1444.53,-176.79 1434.18,-179.04 1437.84,-185.01"/>
</g>
<!-- n38 -->
<g id="node39" class="node">
<title>n38</title>
<ellipse fill="#b2dfee" stroke="#b2dfee" cx="1547" cy="-162" rx="29.37" ry="18"/>
<text text-anchor="middle" x="1547" y="-159.5" font-family="Helvetica,sans-Serif" font-size="10.00">MATCH</text>
</g>
<!-- n20&#45;&gt;n38 -->
<g id="edge38" class="edge">
<title>n20&#45;&gt;n38</title>
<path fill="none" stroke="black" d="M1377.84,-225.35C1408.84,-215.62 1463.34,-197.93 1509,-180 1510.56,-179.39 1512.14,-178.75 1513.74,-178.09"/>
<polygon fill="black" stroke="black" points="1515.03,-181.35 1522.85,-174.19 1512.28,-174.91 1515.03,-181.35"/>
</g>
<!-- n39 -->
<g id="node40" class="node">
<title>n39</title>
<ellipse fill="#b2dfee" stroke="#b2dfee" cx="1809" cy="-162" rx="34.29" ry="18"/>
<text text-anchor="middle" x="1809" y="-159.5" font-family="Helvetica,sans-Serif" font-size="10.00">INC_DEC</text>
</g>
<!-- n20&#45;&gt;n39 -->
<g id="edge39" class="edge">
<title>n20&#45;&gt;n39</title>
<path fill="none" stroke="black" d="M1380.16,-228.83C1456.19,-217.16 1671.69,-184.08 1765.01,-169.75"/>
<polygon fill="black" stroke="black" points="1765.45,-173.23 1774.8,-168.25 1764.38,-166.31 1765.45,-173.23"/>
</g>
<!-- n43 -->
<g id="node44" class="node">
<title>n43</title>
<ellipse fill="#b2dfee" stroke="#b2dfee" cx="1888" cy="-162" rx="27" ry="18"/>
<text text-anchor="middle" x="1888" y="-159.5" font-family="Helvetica,sans-Serif" font-size="10.00">}</text>
</g>
<!-- n20&#45;&gt;n43 -->
<g id="edge43" class="edge">
<title>n20&#45;&gt;n43</title>
<path fill="none" stroke="black" d="M1381.2,-233.27C1458.21,-233.32 1677.95,-228.83 1852,-180 1853.62,-179.54 1855.26,-179.02 1856.9,-178.45"/>
<polygon fill="black" stroke="black" points="1858.18,-181.71 1866.12,-174.69 1855.54,-175.23 1858.18,-181.71"/>
</g>
<!-- n24 -->
<g id="node25" class="node">
<title>n24</title>
<ellipse fill="#b2dfee" stroke="#b2dfee" cx="983" cy="-90" rx="77.23" ry="18"/>
<text text-anchor="middle" x="983" y="-87.5" font-family="Helvetica,sans-Serif" font-size="10.00">RECUPERAR_VARIABLE</text>
</g>
<!-- n23&#45;&gt;n24 -->
<g id="edge24" class="edge">
<title>n23&#45;&gt;n24</title>
<path fill="none" stroke="black" d="M1192.48,-149.95C1186.02,-147.93 1179.31,-145.87 1173,-144 1129.67,-131.14 1080.52,-117.45 1043.07,-107.21"/>
<polygon fill="black" stroke="black" points="1044.37,-103.94 1033.8,-104.68 1042.52,-110.69 1044.37,-103.94"/>
</g>
<!-- n26 -->
<g id="node27" class="node">
<title>n26</title>
<ellipse fill="#b2dfee" stroke="#b2dfee" cx="1105" cy="-90" rx="27" ry="18"/>
<text text-anchor="middle" x="1105" y="-87.5" font-family="Helvetica,sans-Serif" font-size="10.00">&lt;=</text>
</g>
<!-- n23&#45;&gt;n26 -->
<g id="edge26" class="edge">
<title>n23&#45;&gt;n26</title>
<path fill="none" stroke="black" d="M1202.02,-146.67C1182.58,-135.51 1155.53,-119.99 1134.93,-108.17"/>
<polygon fill="black" stroke="black" points="1136.84,-105.23 1126.42,-103.29 1133.36,-111.3 1136.84,-105.23"/>
</g>
<!-- n27 -->
<g id="node28" class="node">
<title>n27</title>
<ellipse fill="#b2dfee" stroke="#b2dfee" cx="1227" cy="-90" rx="77.23" ry="18"/>
<text text-anchor="middle" x="1227" y="-87.5" font-family="Helvetica,sans-Serif" font-size="10.00">RECUPERAR_VARIABLE</text>
</g>
<!-- n23&#45;&gt;n27 -->
<g id="edge27" class="edge">
<title>n23&#45;&gt;n27</title>
<path fill="none" stroke="black" d="M1227,-143.7C1227,-136.41 1227,-127.73 1227,-119.54"/>
<polygon fill="black" stroke="black" points="1230.5,-119.62 1227,-109.62 1223.5,-119.62 1230.5,-119.62"/>
</g>
<!-- n25 -->
<g id="node26" class="node">
<title>n25</title>
<ellipse fill="#b2dfee" stroke="#b2dfee" cx="983" cy="-18" rx="27" ry="18"/>
<text text-anchor="middle" x="983" y="-15.5" font-family="Helvetica,sans-Serif" font-size="10.00">j</text>
</g>
<!-- n24&#45;&gt;n25 -->
<g id="edge25" class="edge">
<title>n24&#45;&gt;n25</title>
<path fill="none" stroke="black" d="M983,-71.7C983,-64.41 983,-55.73 983,-47.54"/>
<polygon fill="black" stroke="black" points="986.5,-47.62 983,-37.62 979.5,-47.62 986.5,-47.62"/>
</g>
<!-- n28 -->
<g id="node29" class="node">
<title>n28</title>
<ellipse fill="#b2dfee" stroke="#b2dfee" cx="1227" cy="-18" rx="27" ry="18"/>
<text text-anchor="middle" x="1227" y="-15.5" font-family="Helvetica,sans-Serif" font-size="10.00">k</text>
</g>
<!-- n27&#45;&gt;n28 -->
<g id="edge28" class="edge">
<title>n27&#45;&gt;n28</title>
<path fill="none" stroke="black" d="M1227,-71.7C1227,-64.41 1227,-55.73 1227,-47.54"/>
<polygon fill="black" stroke="black" points="1230.5,-47.62 1227,-37.62 1223.5,-47.62 1230.5,-47.62"/>
</g>
<!-- n32 -->
<g id="node33" class="node">
<title>n32</title>
<ellipse fill="#b2dfee" stroke="#b2dfee" cx="1349" cy="-90" rx="27" ry="18"/>
<text text-anchor="middle" x="1349" y="-87.5" font-family="Helvetica,sans-Serif" font-size="10.00">Println</text>
</g>
<!-- n31&#45;&gt;n32 -->
<g id="edge32" class="edge">
<title>n31&#45;&gt;n32</title>
<path fill="none" stroke="black" d="M1445.36,-148.16C1426.57,-137.02 1399.21,-120.79 1378.44,-108.46"/>
<polygon fill="black" stroke="black" points="1380.24,-105.46 1369.85,-103.37 1376.66,-111.48 1380.24,-105.46"/>
</g>
<!-- n33 -->
<g id="node34" class="node">
<title>n33</title>
<ellipse fill="#b2dfee" stroke="#b2dfee" cx="1421" cy="-90" rx="27" ry="18"/>
<text text-anchor="middle" x="1421" y="-87.5" font-family="Helvetica,sans-Serif" font-size="10.00">(</text>
</g>
<!-- n31&#45;&gt;n33 -->
<g id="edge33" class="edge">
<title>n31&#45;&gt;n33</title>
<path fill="none" stroke="black" d="M1456.33,-144.76C1450.74,-136.25 1443.76,-125.64 1437.49,-116.09"/>
<polygon fill="black" stroke="black" points="1440.54,-114.37 1432.13,-107.93 1434.69,-118.21 1440.54,-114.37"/>
</g>
<!-- n34 -->
<g id="node35" class="node">
<title>n34</title>
<ellipse fill="#b2dfee" stroke="#b2dfee" cx="1543" cy="-90" rx="77.23" ry="18"/>
<text text-anchor="middle" x="1543" y="-87.5" font-family="Helvetica,sans-Serif" font-size="10.00">RECUPERAR_VARIABLE</text>
</g>
<!-- n31&#45;&gt;n34 -->
<g id="edge34" class="edge">
<title>n31&#45;&gt;n34</title>
<path fill="none" stroke="black" d="M1483.12,-146.15C1492.84,-137.2 1505.46,-125.58 1516.61,-115.31"/>
<polygon fill="black" stroke="black" points="1518.67,-118.16 1523.66,-108.81 1513.93,-113.01 1518.67,-118.16"/>
</g>
<!-- n36 -->
<g id="node37" class="node">
<title>n36</title>
<ellipse fill="#b2dfee" stroke="#b2dfee" cx="1665" cy="-90" rx="27" ry="18"/>
<text text-anchor="middle" x="1665" y="-87.5" font-family="Helvetica,sans-Serif" font-size="10.00">)</text>
</g>
<!-- n31&#45;&gt;n36 -->
<g id="edge36" class="edge">
<title>n31&#45;&gt;n36</title>
<path fill="none" stroke="black" d="M1492.62,-150.19C1498,-148.04 1503.66,-145.88 1509,-144 1561.53,-125.53 1577.01,-127.94 1629,-108 1630.53,-107.41 1632.09,-106.79 1633.66,-106.14"/>
<polygon fill="black" stroke="black" points="1634.79,-109.46 1642.52,-102.22 1631.96,-103.06 1634.79,-109.46"/>
</g>
<!-- n37 -->
<g id="node38" class="node">
<title>n37</title>
<ellipse fill="#b2dfee" stroke="#b2dfee" cx="1737" cy="-90" rx="27" ry="18"/>
<text text-anchor="middle" x="1737" y="-87.5" font-family="Helvetica,sans-Serif" font-size="10.00">;</text>
</g>
<!-- n31&#45;&gt;n37 -->
<g id="edge37" class="edge">
<title>n31&#45;&gt;n37</title>
<path fill="none" stroke="black" d="M1492.03,-149.92C1497.55,-147.75 1503.41,-145.64 1509,-144 1592.32,-119.59 1618.4,-134.76 1701,-108 1702.6,-107.48 1704.23,-106.91 1705.85,-106.29"/>
<polygon fill="black" stroke="black" points="1707.19,-109.53 1715.03,-102.41 1704.46,-103.08 1707.19,-109.53"/>
</g>
<!-- n35 -->
<g id="node36" class="node">
<title>n35</title>
<ellipse fill="#b2dfee" stroke="#b2dfee" cx="1543" cy="-18" rx="27" ry="18"/>
<text text-anchor="middle" x="1543" y="-15.5" font-family="Helvetica,sans-Serif" font-size="10.00">j</text>
</g>
<!-- n34&#45;&gt;n35 -->
<g id="edge35" class="edge">
<title>n34&#45;&gt;n35</title>
<path fill="none" stroke="black" d="M1543,-71.7C1543,-64.41 1543,-55.73 1543,-47.54"/>
<polygon fill="black" stroke="black" points="1546.5,-47.62 1543,-37.62 1539.5,-47.62 1546.5,-47.62"/>
</g>
<!-- n40 -->
<g id="node41" class="node">
<title>n40</title>
<ellipse fill="#b2dfee" stroke="#b2dfee" cx="1809" cy="-90" rx="27" ry="18"/>
<text text-anchor="middle" x="1809" y="-87.5" font-family="Helvetica,sans-Serif" font-size="10.00">j</text>
</g>
<!-- n39&#45;&gt;n40 -->
<g id="edge40" class="edge">
<title>n39&#45;&gt;n40</title>
<path fill="none" stroke="black" d="M1809,-143.7C1809,-136.41 1809,-127.73 1809,-119.54"/>
<polygon fill="black" stroke="black" points="1812.5,-119.62 1809,-109.62 1805.5,-119.62 1812.5,-119.62"/>
</g>
<!-- n41 -->
<g id="node42" class="node">
<title>n41</title>
<ellipse fill="#b2dfee" stroke="#b2dfee" cx="1881" cy="-90" rx="27" ry="18"/>
<text text-anchor="middle" x="1881" y="-87.5" font-family="Helvetica,sans-Serif" font-size="10.00">++</text>
</g>
<!-- n39&#45;&gt;n41 -->
<g id="edge41" class="edge">
<title>n39&#45;&gt;n41</title>
<path fill="none" stroke="black" d="M1824.62,-145.81C1834.51,-136.2 1847.46,-123.61 1858.45,-112.93"/>
<polygon fill="black" stroke="black" points="1860.57,-115.74 1865.3,-106.26 1855.69,-110.72 1860.57,-115.74"/>
</g>
<!-- n42 -->
<g id="node43" class="node">
<title>n42</title>
<ellipse fill="#b2dfee" stroke="#b2dfee" cx="1953" cy="-90" rx="27" ry="18"/>
<text text-anchor="middle" x="1953" y="-87.5" font-family="Helvetica,sans-Serif" font-size="10.00">;</text>
</g>
<!-- n39&#45;&gt;n42 -->
<g id="edge42" class="edge">
<title>n39&#45;&gt;n42</title>
<path fill="none" stroke="black" d="M1833.43,-149.13C1857.69,-137.33 1894.99,-119.2 1921.48,-106.32"/>
<polygon fill="black" stroke="black" points="1922.92,-109.51 1930.38,-102 1919.86,-103.22 1922.92,-109.51"/>
</g>
</g>
</svg>
